<svg width="1983.95" height="2086" viewBox="0 0 524.92 551.921" xmlns="http://www.w3.org/2000/svg"><g transform="translate(.53 .53)"><rect style="display:inline;fill:#000;fill-opacity:1;fill-rule:evenodd;stroke-width:.264999;stroke-linecap:round;stop-color:#000" width="524.391" height="551.392" x="-.265" y="-.265" rx="10.98"/><rect style="display:inline;fill:#fff;fill-opacity:1;fill-rule:evenodd;stroke-width:.264999;stroke-linecap:round;stop-color:#000" width="523.333" height="550.333" x=".265" y=".265" rx="10.583"/><rect style="display:inline;fill:#115ec6;fill-opacity:1;fill-rule:evenodd;stroke-width:.264999;stroke-linecap:round;stop-color:#000" width="507.458" height="418.042" x="8.202" y="124.619" rx="21.167"/><rect style="display:inline;fill:#115ec6;fill-opacity:1;fill-rule:evenodd;stroke-width:.264999;stroke-linecap:round;stop-color:#000" height="108.479" x="8.202" y="8.202" rx="21.167" width="507.458"/></g><g transform="translate(-112.304 116.51)" style="display:inline"><path d="M175.169 52.825v-3.979l1.99-.336.336-.112.28-.196.225-.28.14-.309.056-.364v-1.57h5.101v31.75h-5.1V52.826zM192.631 52.825v-3.979l1.99-.336.337-.112.28-.196.224-.28.14-.309.057-.364v-1.57h5.101v31.75h-5.101V52.826z" style="fill:#fff;fill-opacity:1;stroke:none;stroke-width:.336315;stroke-linecap:round;stroke-linejoin:round;stroke-miterlimit:10;stroke-dasharray:none;stroke-opacity:1"/><path d="m220.905 55.675-.056.56-.168.532-.252.504-.364.448-.448.336-.476.28-.533.168-.56.028-.56-.028-.533-.168-.504-.28-.42-.336-.364-.448-.28-.504-.14-.532-.057-.56v-3.164l.056-.56.14-.532.28-.504.365-.42.42-.364.504-.252.533-.168.56-.056.56.056.533.168.476.252.448.364.364.42.252.504.168.532.056.56zm-7.143 4.788-.645.028-.616.168-.588.28-.505.364-.448.448-.364.532-.28.56-.168.615-.056.644v7.476l.056.84.168.84.28.812.392.756.476.7.589.616.644.56.729.448.756.364 1.064.336 1.121.252 1.12.112h1.121l1.12-.112 1.093-.252 1.065-.336.784-.364.729-.448.644-.56.56-.616.477-.7.392-.756.28-.812.168-.84.056-.84v-7.476l-.056-.644-.168-.615-.252-.56-.364-.532-.449-.448-.532-.364-.588-.28-.617-.168-.616-.028.616-.056.617-.168.588-.28.532-.364.449-.448.364-.532.252-.56.168-.616.056-.644V51.53l-.056-.84-.168-.84-.28-.784-.392-.784-.477-.7-.56-.615-.644-.56-.729-.448-.784-.364-1.065-.336-1.092-.224-1.12-.112h-1.121l-1.121.112-1.12.224-1.065.336-.756.364-.729.448-.644.56-.589.615-.476.7-.392.784-.28.784-.168.84-.056.84v5.264l.056.644.168.616.28.56.364.532.448.448.505.364.588.28.616.168zm7.143 10.135-.056.56-.168.532-.252.504-.364.42-.448.364-.476.28-.533.14-.56.056-.56-.056-.533-.14-.504-.28-.42-.364-.364-.42-.28-.504-.14-.532-.057-.56v-4.9l.056-.56.14-.532.28-.504.365-.448.42-.336.504-.28.533-.14.56-.055.56.056.533.14.476.28.448.335.364.448.252.504.168.532.056.56z" style="fill:#fff;fill-opacity:1;stroke:none;stroke-width:.336077;stroke-linecap:round;stroke-linejoin:round;stroke-miterlimit:10;stroke-dasharray:none;stroke-opacity:1"/><path style="fill:#fff;stroke:none;stroke-width:.446349;stroke-linecap:round;stroke-linejoin:round;stroke-miterlimit:10;stroke-dasharray:none;stroke-opacity:1" d="M146.962 51.558h6.539l.657.08.588.24.588.32.485.48.415.56.277.68.207.679.07.76-.07.72-.207.72-.277.639-.415.6-.485.44-.588.36-.588.24-.657.04h-6.54zm-5.606-5.878v31.75h5.606V65.034h3.667l6.262 12.396h6.54l-6.574-12.956 1.003-.52.969-.68.865-.8.761-.96.657-1.039.52-1.12.415-1.2.242-1.239.104-1.28-.035-1.319-.208-1.24-.311-1.24-.484-1.159-.623-1.08-.692-1-.83-.839-.935-.72-1.003-.6-1.038-.4-1.107-.28-1.107-.08z"/><path style="fill:#fff;stroke:none;stroke-width:.448047;stroke-linecap:round;stroke-linejoin:round;stroke-miterlimit:10;stroke-dasharray:none;stroke-opacity:1" d="M265.45-47.454h-6.91v29.634h6.052v-20.042l13.26 20.042h6.948v-29.634h-6.089v20.042z"/><path style="fill:#fff;stroke:none;stroke-width:.448232;stroke-linecap:round;stroke-linejoin:round;stroke-miterlimit:10;stroke-dasharray:none;stroke-opacity:1" d="M314.671-23.613h-14.524v-6.502h12.134v-5.493h-12.134v-6.091h13.404v-5.755h-19.49v29.634h20.61z"/><path style="fill:#fff;stroke:none;stroke-width:.448227;stroke-linecap:round;stroke-linejoin:round;stroke-miterlimit:10;stroke-dasharray:none;stroke-opacity:1" d="m332.032-27.648 6.086 9.828h7.131l-9.632-15.62 8.624-14.014h-7.131l-5.078 8.221-5.077-8.22h-7.132l8.662 14.012-9.632 15.62h7.13z"/><path style="fill:#fff;stroke:none;stroke-width:.447935;stroke-linecap:round;stroke-linejoin:round;stroke-miterlimit:10;stroke-dasharray:none;stroke-opacity:1" d="M346.705-47.454v5.785h8.4v23.849h6.086V-41.67h8.4v-5.785z"/><path style="fill:#fff;stroke:none;stroke-width:.448232;stroke-linecap:round;stroke-linejoin:round;stroke-miterlimit:10;stroke-dasharray:none;stroke-opacity:1" d="M411.826-23.613h-14.524v-6.502h12.134v-5.493h-12.134v-6.091h13.404v-5.755h-19.49v29.634h20.61z"/><path style="fill:#fff;stroke:none;stroke-width:.448227;stroke-linecap:round;stroke-linejoin:round;stroke-miterlimit:10;stroke-dasharray:none;stroke-opacity:1" d="m429.187-27.648 6.086 9.828h7.131l-9.632-15.62 8.624-14.014h-7.131l-5.078 8.221-5.077-8.22h-7.132l8.662 14.012-9.632 15.62h7.13z"/><path style="fill:#fff;stroke:none;stroke-width:.447866;stroke-linecap:round;stroke-linejoin:round;stroke-miterlimit:10;stroke-dasharray:none;stroke-opacity:1" d="M453.601-47.454v29.634h-6.046v-29.634z"/><path style="fill:#fff;stroke:none;stroke-width:.447935;stroke-linecap:round;stroke-linejoin:round;stroke-miterlimit:10;stroke-dasharray:none;stroke-opacity:1" d="M459.312-47.454v5.785h8.4v23.849h6.086V-41.67h8.4v-5.785z"/><path style="fill:#fff;stroke:none;stroke-width:.448135;stroke-linecap:round;stroke-linejoin:round;stroke-miterlimit:10;stroke-dasharray:none;stroke-opacity:1" d="m282.726-88.402-.943-1.083-1.058-.933-1.2-.82-1.267-.71-1.392-.522-1.497-.41-1.547-.225-1.624-.074-1.627.074-1.667.224-1.716.41-1.279.449-1.233.56-1.2.709-1.154.82-1.062.896-.875.896-.746.97-.643 1.008-.542 1.045-.365 1.082-.252 1.083-.104 1.082.067 1.008.178 1.007.32.896.48.859.595.709.921.746 1.094.523 1.217.335 6.568 1.568.603.261.46.373.346.523.176.597.017.635-.153.709-.292.671-.469.635-.56.56-.776.522-.82.41-.865.3-.862.149h-2.018l-1.118-.15-1.061-.224-.984-.373-.953-.485-1.05-.821-.957-.896-.803-1.045-6.217 3.956.784 1.12.878 1.045.983.933 1.088.821 1.24.672 1.467.522 1.581.374 1.612.26 1.651.113 1.73-.037 1.72-.15 1.762-.298 1.765-.448 1.24-.448 1.207-.597 1.172-.747 1.09-.858 1.006-.97.878-1.045.749-1.12.619-1.194.432-1.195.282-1.194.144-1.231-.027-1.157-.233-1.083-.432-.896-.575-.783-.632-.71-.764-.634-.832-.522-.834-.374-.892-.298-6.49-1.717-.436-.187-.368-.298-.264-.41-.179-.448-.02-.486.066-.522.177-.523.327-.522.382-.448.758-.597.792-.448.875-.336.872-.187.842-.074 1.213.074 1.146.187 1.106.336 1.01.41.934.56.867.672.724.784 5.716-4.18"/><path style="fill:#fff;stroke:none;stroke-width:.447871;stroke-linecap:round;stroke-linejoin:round;stroke-miterlimit:10;stroke-dasharray:none;stroke-opacity:1" d="M289.57-92.433h5.774l-6.263 23.373-.035.411.096.337.217.299.286.187.4.037 1.127-.037 1.157-.15-.73 5.086-1.877.337-1.848.224-1.866.15-.762-.075-.685-.224-.664-.3-.513-.448-.409-.561-.267-.673-.144-.711-.023-.748.135-.785z"/><path style="fill:#fff;stroke:none;stroke-width:.137874;stroke-linecap:round;stroke-linejoin:round;stroke-miterlimit:10;stroke-opacity:1" d="m302.166-83.967-4.647 17.353-.06.286-.044.369v.378l.048.385.09.387.133.392.177.396.224.402.268.403.314.415h5.393l-.16-.203-.242-.349-.21-.357-.177-.375-.147-.388-.117-.4-.085-.414-.05-.426-.024-.444.01-.457 4.647-17.353zM309.077-90.42l-7.52 2.805.312 1.004 7.715-1.746zm0 0"/><path d="m344.237-93.44-.74.02-.733.055-.719.089-.718.124-.713.164-.705.199-.691.233-.692.273-.678.308-.678.342-.663.377-.665.417-.65.453-.165.123-.63.486-.61.506-.582.529-.553.54-.535.568-.5.582-.479.597-.452.622-.43.636-.399.659-.376.677-.349.69-.322.713-.144.343-.315.794-.288.76-.253.72-.226.67-.192.637-.088.335-.179.706-.15.698-.115.685-.097.678-.062.67-.034.657-.007.658.02.636.048.638.082.623.103.617.13.609.164.595.192.59.22.574.246.575.274.562.3.548.33.547.363.534.103.138.403.52.439.465.465.418.487.362.52.323.54.268.48.183.493.144.561.116.63.09.713.069.78.04.85.02h.184l.65-.02.692-.075.74-.117.786-.164.206-.048 3.06-.738.37.5.014.026.398.473.007.007h5.237l-.15-.63-.068-.644.013-.67.09-.7.13-.588 7.072-26.402h-4.335l-.52.43-.3.255-.624-.308-.623-.274-.63-.247-.63-.22-.63-.184-.636-.15-.638-.124-.643-.089-.643-.06-.644-.036zm-1.123 5.183.657.056.629.122.603.185.582.26.555.329.438.321.473.467.383.506.288.535.19.568.104.602.02.39-.014.61-.04.63-.062.643-.09.665-.108.677-.144.698-.158.713-.186.732-.211.753-.24.767-.26.781-.075.219-.329.903-.356.85-.363.801-.383.74-.403.684-.418.63-.432.575-.452.52-.465.46-.487.41-.499.349-.52.302-.535.239-.547.191-.57.131-.588.075-.527.02-.582-.026-.623-.089-.679-.152-.725-.211-.158-.048-.56-.212-.515-.253-.459-.288-.41-.335-.356-.377-.307-.418-.262-.452-.205-.5-.157-.54-.11-.576-.055-.624-.006-.656.048-.706.096-.738.15-.782.192-.828.02-.075.24-.823.254-.793.28-.768.309-.738.32-.72.35-.683.37-.659.39-.629.418-.603.439-.575.465-.541.48-.52.506-.493.528-.466.376-.301.76-.555.732-.451.699-.37.677-.268.652-.178.623-.082z" style="fill:#fff;fill-opacity:1;fill-rule:evenodd;stroke:none;stroke-width:.128495"/><path style="fill:#fff;stroke:none;stroke-width:.448344;stroke-linecap:round;stroke-linejoin:round;stroke-miterlimit:10;stroke-dasharray:none;stroke-opacity:1" d="M366.056-83.966h-5.786L354.598-62.8h5.786l3.407-12.715.275-.748.49-.71.627-.673.748-.561.792-.449 1.305-.411.458-.038.4.038.177.037.694.337.43.486.287.598.108.71-.014.749-.163.748-3.377 12.602h5.786l3.407-12.715.275-.748.452-.71.665-.673.748-.561.792-.449 1.305-.411.42-.038.438.038.14.037.693.337.43.486.325.598.108.71-.051.749-.163.748-3.377 12.602h5.786l3.387-12.64.293-1.234.097-1.197-.026-1.159-.184-1.122-.374-.972-.516-.86-.658-.748-.763-.636-.868-.523-.982-.374-1.172-.225-.923-.037-.963.112-.983.187-.94.3-.968.41-.934.561-.88.636-.835.748-.302-.823-.454-.673-.596-.56-.749-.412-.611-.224-1.172-.225-1.072-.037-1.086.15-1.115.261-1.08.412-1.084.56-1.04.674z"/><path style="fill:#fff;stroke:none;stroke-width:1.75559;stroke-linecap:round;stroke-linejoin:round;stroke-miterlimit:10;stroke-opacity:1" d="m404.051-84.345-1.092.097-1.07.227-1.058.365-1.032.512-1.01.652-.986.798-.271.249-.832.855-.772.903-.689.961-.606 1.021-.524 1.069-.448 1.14-.038.095-.332 1.104-.273 1.08-.19 1.081-.12 1.081-.046 1.058.011.63.107 1.057.214.987.32.9.415.82.522.736.392.451.701.607.81.485.889.358.986.227 1.07.093.523.011 1.08-.057 1.104-.154 1.14-.225 1.164-.31.488.167.82.308.128.106h3.755l-.06-.712-.024-1.14.106-.796.5-1.875.499-1.842.475-1.735.44-1.627.402-1.519.38-1.415.358-1.307.32-1.21.297-1.092.26-.986.239-.891.202-.773.177-.675.155-.56.12-.463.082-.355.057-.248h-4.334l-.248.96-.188-.166-.619-.346-.82-.294-1.01-.214-1.223-.167-1.413-.082zm.189 5.084.523.037.95.26.903.499.308.262.572.76.2.89v.049l-.06 1.223-.154 1.127-.237 1.02-.343.916-.297.617-.667 1.19-.664.938-.666.7-.402.286-.939.438-1.103.263-1.284.068-.723-.094-.787-.332-.57-.594-.342-.843-.109-1.105v-.358l.083-1.114.203-1.01.072-.214.38-1.08.509-1.056.643-1.035.095-.143.783-.89.986-.82 1.093-.64z"/><path d="m430.042-70.863 4.833 2.016-.172.224-.852 1.232-.972 1.12-1.054 1.008-1.183.933-1.254.784-1.195.56-1.155.41-1.21.336-1.206.187-1.177.075-1.136-.075-1.07-.187-1.029-.336-.972-.41-.857-.56-.835-.784-.683-.933-.55-1.008-.372-1.12-.192-1.232-.015-.224.027-1.493.186-1.531.336-1.53.484-1.531.624-1.493.774-1.494.144-.261.843-1.195.971-1.12 1.101-1.045 1.173-.896 1.265-.821 1.148-.523 1.202-.448 1.199-.298 1.18-.224 1.176-.075 1.137.075 1.096.224 1.04.298.924.448.905.523.825.821.692.896.504 1.046.371 1.12.203 1.194.042.261-5.903 1.979-.128-1.195-.34-.821-.481-.71-.634-.56-.795-.373-.828-.112-.851.112-1.033.374-.934.56-.861.709-.743.821-.488.71-.414.709-.422 1.157-.385 1.157-.245 1.195-.199 1.157.034.71.119.671.302.822.472.746.633.56.833.374.79.112.889-.112.995-.374.934-.56.872-.746.78-.822z" style="fill:#fff;stroke:none;stroke-width:.447858;stroke-linecap:round;stroke-linejoin:round;stroke-miterlimit:10;stroke-dasharray:none;stroke-opacity:1"/><path style="fill:#fff;stroke:none;stroke-width:.448159;stroke-linecap:round;stroke-linejoin:round;stroke-miterlimit:10;stroke-dasharray:none;stroke-opacity:1" d="M456.721-62.8h-5.792l3.38-12.614.163-.747.013-.746-.12-.672-.278-.634-.43-.486-.695-.335-.82-.15-.87.038-.871.186-.902.299-.793.448-.748.56-.629.671-.489.71-.274.746-3.41 12.726h-5.793l7.94-29.633h5.793l-2.67 9.965 1.04-.672 1.036-.522 1.12-.41 1.126-.3 1.076-.111h1.084l1.173.223.984.374.906.522.765.635.66.746.516.859.376.97.186 1.12.026 1.156-.133 1.195-.256 1.231z"/><path d="m275.658 90.001-.523 1.346-.635 1.27-.746 1.233-.971 1.196-1.083 1.121-1.195.897-1.307.747-1.344.636-1.419.448-1.493.3-1.494.111h-1.68l-1.493-.112-1.457-.299-1.418-.448-1.382-.636-1.27-.747-1.194-.897-1.12-1.158-1.009-1.233-.858-1.346-.71-1.42-.56-1.494-.448-1.533-.261-1.569-.112-1.57v-2.13l.112-1.606.261-1.57.448-1.532.56-1.457.71-1.42.858-1.346 1.009-1.27 1.12-1.121 1.195-.897 1.269-.785 1.382-.598 1.418-.448 1.457-.299 1.493-.112h1.68l1.494.112 1.493.299 1.42.448 1.343.598 1.307.785 1.195.897 1.12 1.12.971 1.271 1.046 1.831.82 1.944-6.048 2.391-.261-1.009-.374-1.009-.522-.897-.672-.859-.785-.71-.858-.598-.86-.374-.858-.261-.896-.15-.896-.074-.934.074-.933.15-.896.299-.859.373-.784.486-.71.636-.634.672-.523.785-.448.822-.299.86-.373 1.532-.187 1.532-.037 1.532.037 1.57.187 1.531.373 1.495.299.897.448.822.523.785.635.673.709.597.784.524.859.373.896.262.933.187.934.037 1.008-.075 1.008-.186.97-.337.86-.486.821-.597.672-.71.598-.785.485-.86.336-.934.224-.971z" style="fill:#fff;stroke:none;stroke-width:.448242;stroke-linecap:round;stroke-linejoin:round;stroke-miterlimit:10;stroke-dasharray:none;stroke-opacity:1"/><path style="fill:#fff;stroke:none;stroke-width:.447798;stroke-linecap:round;stroke-linejoin:round;stroke-miterlimit:10;stroke-dasharray:none;stroke-opacity:1" d="M300.77 80.271V68.963h6.082v29.633h-6.082v-12.54h-11.977v12.54h-6.082V68.963h6.082V80.27z"/><path style="fill:#fff;stroke:none;stroke-width:.448232;stroke-linecap:round;stroke-linejoin:round;stroke-miterlimit:10;stroke-dasharray:none;stroke-opacity:1" d="M336.756 92.804h-14.524v-6.502h12.134v-5.493h-12.134v-6.091h13.404v-5.755h-19.49v29.633h20.61z"/><path style="fill:#fff;stroke:none;stroke-width:.447958;stroke-linecap:round;stroke-linejoin:round;stroke-miterlimit:10;stroke-dasharray:none;stroke-opacity:1" d="M351.093 74.45h7.057l.71.074.634.224.635.298.523.448.448.523.299.634.224.635.074.709-.074.672-.224.671-.299.597-.448.56-.523.41-.635.337-.634.224-.71.037h-7.057zm-6.048-5.487v29.633h6.048v-11.57h3.958l6.758 11.57h7.057l-7.094-12.092 1.083-.485 1.045-.635.934-.746.821-.896.71-.97.56-1.045.448-1.12.261-1.157.112-1.194-.037-1.232-.224-1.157-.336-1.157-.523-1.082-.672-1.008-.747-.933-.896-.783-1.008-.672-1.083-.56-1.12-.373-1.195-.262-1.195-.074zM382.42 74.45h7.057l.71.074.634.224.635.298.523.448.448.523.298.634.224.635.075.709-.075.671-.224.672-.298.597-.448.56-.523.41-.635.337-.635.224-.71.037h-7.056zm-6.049-5.487v29.633h6.049v-11.57h3.958l6.758 11.57h7.057l-7.094-12.092 1.083-.485 1.045-.635.933-.746.822-.896.71-.97.56-1.045.447-1.12.262-1.157.112-1.194-.038-1.232-.224-1.157-.336-1.157-.522-1.082-.673-1.008-.746-.933-.896-.783-1.009-.672-1.082-.56-1.12-.373-1.195-.262-1.195-.074z"/><path style="fill:#fff;stroke:none;stroke-width:.448433;stroke-linecap:round;stroke-linejoin:round;stroke-miterlimit:10;stroke-dasharray:none;stroke-opacity:1" d="m413.382 86.9-9.94-17.937h6.95l6.055 10.874 6.016-10.874h6.951l-9.94 17.937v11.696h-6.092z"/><path style="fill:#fff;stroke:none;stroke-width:.448262;stroke-linecap:round;stroke-linejoin:round;stroke-miterlimit:10;stroke-dasharray:none;stroke-opacity:1" d="M446.741 98.596h-7.618l-6.908-29.633h6.236l4.743 20.366 4.256-20.366h7.058l4.257 20.366 4.742-20.366h6.236l-6.908 29.633h-7.618l-4.22-20.328z"/><path style="fill:#fff;stroke:none;stroke-width:.44788;stroke-linecap:round;stroke-linejoin:round;stroke-miterlimit:10;stroke-dasharray:none;stroke-opacity:1" d="m491.243 74.897.784.522.71.598.634.709.522.746.41.821.3.896.373 1.493.224 1.53.037 1.568-.037 1.53-.224 1.53-.374 1.53-.298.858-.41.859-.523.746-.635.71-.709.597-.784.485-.858.373-.896.299-.933.149-.933.074-.934-.074-.933-.15-.895-.298-.859-.373-.784-.485-.709-.598-.634-.709-.523-.746-.41-.859-.336-.858-.336-1.53-.224-1.53-.038-1.53.038-1.568.224-1.53.336-1.493.335-.896.411-.82.523-.747.634-.71.71-.597.783-.522.859-.373.895-.261.934-.187.933-.037.933.037.933.187.896.26zm10.489 7.8-.112-1.567-.262-1.568-.41-1.53-.598-1.493-.709-1.418-.858-1.344-.97-1.231-1.12-1.157-1.195-.896-1.306-.746-1.344-.598-1.418-.485-1.493-.261-1.456-.15h-1.717l-1.493.15-1.456.261-1.418.485-1.38.598-1.27.746-1.194.896-1.12 1.157-.97 1.231-.86 1.344-.746 1.418-.56 1.493-.41 1.53-.299 1.568-.112 1.567v2.128l.112 1.604.299 1.568.41 1.53.56 1.493.747 1.418.858 1.306.97 1.27 1.12 1.119 1.195.896 1.27.783 1.38.598 1.418.447 1.456.299 1.493.15h1.717l1.456-.15 1.493-.299 1.418-.447 1.344-.598 1.306-.783 1.195-.896 1.12-1.12.97-1.269.858-1.306.71-1.418.597-1.493.41-1.53.262-1.568.112-1.604zM524.687 74.897l.783.522.71.598.634.709.523.746.41.821.299.896.373 1.493.224 1.53.037 1.568-.037 1.53-.224 1.53-.373 1.53-.299.858-.41.859-.523.746-.635.71-.709.597-.784.485-.858.373-.896.299-.933.149-.933.074-.933-.074-.933-.15-.896-.298-.859-.373-.783-.485-.71-.598-.634-.709-.523-.746-.41-.859-.336-.858-.336-1.53-.224-1.53-.037-1.53.037-1.568.224-1.53.336-1.493.336-.896.41-.82.523-.747.634-.71.71-.597.783-.522.859-.373.896-.261.933-.187.933-.037.933.037.933.187.896.26zm10.488 7.8-.112-1.567-.261-1.568-.411-1.53-.597-1.493-.71-1.418-.858-1.344-.97-1.231-1.12-1.157-1.194-.896-1.307-.746-1.344-.598-1.418-.485-1.493-.261-1.456-.15h-1.717l-1.493.15-1.455.261-1.419.485-1.38.598-1.27.746-1.194.896-1.12 1.157-.97 1.231-.859 1.344-.746 1.418-.56 1.493-.41 1.53-.3 1.568-.111 1.567v2.128l.112 1.604.298 1.568.41 1.53.56 1.493.747 1.418.859 1.306.97 1.27 1.12 1.119 1.194.896 1.27.783 1.38.598 1.419.447 1.455.299 1.493.15h1.717l1.456-.15 1.493-.299 1.418-.447 1.344-.598 1.307-.783 1.194-.896 1.12-1.12.97-1.269.859-1.306.709-1.418.597-1.493.41-1.53.262-1.568.112-1.604z"/><path style="fill:#fff;stroke:none;stroke-width:.448329;stroke-linecap:round;stroke-linejoin:round;stroke-miterlimit:10;stroke-dasharray:none;stroke-opacity:1" d="M553.812 92.655h-5.155V74.867h5.155l1.046.075 1.008.261.972.374.933.523.822.635.71.785.598.86.448.934.336 1.009.261 1.42.113 1.42v1.457l-.15 1.458-.299 1.42-.336.934-.485.934-.598.822-.71.71-.822.635-.896.486-.934.337-1.008.224zm-.075 5.941 1.382-.075 1.42-.224 1.345-.373 1.307-.524 1.27-.635 1.158-.785 1.083-.896 1.009-1.01.859-1.12.747-1.196.635-1.27.485-1.309.337-1.382.224-1.607.112-1.607v-1.607l-.112-1.644-.224-1.607-.337-1.345-.485-1.346-.635-1.27-.747-1.196-.86-1.084-1.008-1.008-1.083-.935-1.158-.747-1.27-.673-1.307-.523-1.345-.336-1.42-.224-1.382-.075H542.57v29.633z"/><path d="m271.95 45.022-.883 1.346-.975 1.27-1.078 1.233-1.29 1.196-1.384 1.121-1.435.897-1.507.747-1.515.636-1.539.448-1.573.299-1.524.112h-1.68l-1.464-.112-1.376-.299-1.298-.448-1.212-.636-1.069-.747-.954-.897-.81-1.158-.678-1.233-.498-1.346-.33-1.42-.159-1.494-.037-1.533.159-1.57.309-1.569.57-2.13.543-1.606.682-1.57.858-1.532.95-1.457 1.09-1.42 1.22-1.346 1.349-1.27 1.42-1.121 1.435-.897 1.48-.785 1.542-.598 1.539-.448 1.536-.3 1.524-.111h1.68l1.463.112 1.414.299 1.299.448 1.184.598 1.096.785.955.897.82 1.12.63 1.271.555 1.831.3 1.944-6.69 2.391.01-1.009-.103-1.009-.283-.897-.442-.86-.593-.71-.699-.597-.759-.374-.788-.261-.856-.15-.876-.074-.954.074-.973.15-.977.299-.959.373-.914.486-.88.635-.815.673-.733.785-.668.822-.529.86-.784 1.531-.597 1.533-.448 1.532-.383 1.57-.224 1.531-.027 1.495.058.897.228.822.313.785.454.672.55.598.643.523.759.374.826.262.883.187.924.037 1.028-.075 1.058-.187 1.061-.336.99-.486.98-.598.863-.71.808-.784.715-.86.587-.934.484-.972z" style="fill:#fff;stroke:none;stroke-width:.448241;stroke-linecap:round;stroke-linejoin:round;stroke-miterlimit:10;stroke-dasharray:none;stroke-opacity:1"/><path style="fill:#fff;stroke:none;stroke-width:.448381;stroke-linecap:round;stroke-linejoin:round;stroke-miterlimit:10;stroke-dasharray:none;stroke-opacity:1" d="m289.257 36.788.796.374.624.599.482.71.34.823.117.673-.004.71-.17 1.197-.274 1.16-.348 1.159-.47 1.197-.377.71-.48.673-.78.823-.862.71-.944.599-.987.336-.898.15-.782-.15-.805-.336-.661-.598-.482-.711-.302-.823-.119-.673.004-.71.172-1.197.236-1.16.385-1.159.47-1.196.377-.71.479-.674.743-.823.863-.71.981-.599.996-.374.852-.112zm8.286 1.683-.015-.224-.202-1.197-.361-1.16-.551-1.009-.683-.935-.835-.785-.858-.561-.972-.411-1.03-.337-1.107-.187-1.137-.075-1.178.075-1.17.187-1.21.337-1.193.411-1.158.56-1.256.786-1.184.935-1.092 1.01-.983 1.16-.843 1.196-.135.224-.774 1.496-.635 1.533-.485 1.534-.336 1.533-.187 1.533-.018 1.459.005.261.202 1.197.372 1.122.54 1.047.683.935.835.785.868.524.962.449 1.03.336 1.07.187 1.138.075 1.177-.075 1.207-.187 1.21-.336 1.203-.45 1.149-.523 1.256-.785 1.183-.935 1.102-1.047.973-1.122.843-1.197.145-.261.764-1.459.635-1.533.448-1.533.374-1.534.187-1.533z"/><path d="M313.208 27a2.91 2.91 0 0 1-2.91 2.912A2.91 2.91 0 0 1 307.386 27a2.91 2.91 0 0 1 2.91-2.91 2.91 2.91 0 0 1 2.911 2.91z" style="fill:#fff;fill-rule:evenodd;stroke:none;stroke-width:.24141;stroke-linecap:round;stop-color:#000"/><path style="fill:#fff;stroke:none;stroke-width:.137874;stroke-linecap:round;stroke-linejoin:round;stroke-miterlimit:10;stroke-opacity:1" d="m306.354 32.45-4.647 17.353-.06.286-.044.368v.379l.048.384.09.387.133.393.177.395.224.402.268.404.314.414h5.393l-.16-.202-.242-.35-.21-.357-.177-.374-.147-.389-.117-.4-.085-.414-.05-.425-.024-.445.01-.456 4.647-17.353zm0 0"/><path style="fill:#fff;stroke:none;stroke-width:.447871;stroke-linecap:round;stroke-linejoin:round;stroke-miterlimit:10;stroke-dasharray:none;stroke-opacity:1" d="M318.735 23.984h5.774l-6.263 23.372-.036.412.096.336.218.3.285.187.4.037 1.128-.037 1.157-.15-.73 5.086-1.878.336-1.848.225-1.865.15-.762-.075-.685-.225-.665-.299-.513-.449-.408-.56-.267-.674-.145-.71-.023-.748.136-.786zM332.07 23.984h5.774l-6.263 23.372-.036.412.096.336.218.3.285.187.4.037 1.128-.037 1.157-.15-.73 5.086-1.878.336-1.848.225-1.865.15-.762-.075-.685-.225-.665-.299-.513-.449-.408-.56-.267-.674-.145-.71-.023-.748.136-.786z"/><path style="fill:#fff;stroke:none;stroke-width:.448609;stroke-linecap:round;stroke-linejoin:round;stroke-miterlimit:10;stroke-dasharray:none;stroke-opacity:1" d="m362.972 40.154-.275.748-3.407 12.715h-5.792l5.671-21.167h5.793l-.4 1.496 1.039-.673 1.085-.56 1.082-.412 1.116-.262 1.087-.15 1.073.038 1.173.224.984.374.906.524.764.636.66.747.516.86.375.973.185 1.122.026 1.16-.134 1.196-.256 1.234-3.387 12.64h-5.792l3.377-12.603.163-.748.05-.748-.146-.71-.288-.599-.43-.486-.695-.336-.819-.15-.87.038-.862.15-.912.336-.793.448-.748.561-.63.674z"/><path style="fill:#fff;stroke:none;stroke-width:1.75559;stroke-linecap:round;stroke-linejoin:round;stroke-miterlimit:10;stroke-opacity:1" d="m391.518 32.072-1.093.097-1.07.227-1.057.365-1.032.511-1.01.653-.987.798-.27.249-.833.855-.772.902-.689.962-.606 1.02-.524 1.07-.448 1.14-.038.095-.332 1.104-.273 1.08-.189 1.08-.12 1.082-.046 1.058.01.63.107 1.057.214.987.32.9.415.82.523.736.392.45.7.608.81.485.889.358.986.226 1.07.094.523.011 1.081-.057 1.104-.154 1.14-.226 1.164-.309.487.166.82.309.128.106h3.755l-.06-.713-.024-1.14.106-.795.5-1.876.5-1.842.474-1.735.44-1.626.403-1.52.38-1.415.357-1.306.32-1.21.298-1.092.26-.986.238-.892.202-.773.178-.674.154-.56.12-.463.083-.355.057-.248h-4.335l-.248.96-.188-.166-.618-.347-.821-.293-1.01-.215-1.223-.166-1.413-.083zm.188 5.084.523.037.95.26.903.498.308.263.572.76.201.89v.049l-.06 1.223-.154 1.126-.238 1.022-.343.914-.297.618-.667 1.19-.663.937-.666.7-.403.287-.938.437-1.104.263-1.283.07-.724-.096-.786-.331-.57-.595-.343-.842-.108-1.106v-.357l.083-1.114.203-1.01.071-.215.38-1.08.51-1.055.642-1.036.096-.143.782-.889.987-.82 1.092-.64z"/><path style="fill:#fff;stroke:none;stroke-width:.448135;stroke-linecap:round;stroke-linejoin:round;stroke-miterlimit:10;stroke-dasharray:none;stroke-opacity:1" d="m449.898 28.014-.943-1.082-1.058-.933-1.2-.821-1.268-.71-1.392-.522-1.497-.41-1.546-.224-1.625-.075-1.626.075-1.667.224-1.717.41-1.278.448-1.234.56-1.2.71-1.153.82-1.062.896-.876.896-.745.97-.644 1.008-.542 1.045-.364 1.082-.253 1.082-.103 1.083.066 1.007.178 1.008.321.896.48.858.595.71.92.746 1.094.522 1.218.336 6.568 1.568.602.26.46.374.346.523.177.597.016.634-.152.71-.292.671-.47.635-.56.56-.776.522-.82.41-.864.3-.862.148h-2.018l-1.119-.149-1.06-.224-.984-.373-.954-.485-1.05-.821-.956-.896-.804-1.045-6.217 3.956.784 1.12.878 1.045.983.933 1.088.82 1.24.673 1.467.522 1.582.373 1.611.262 1.652.112 1.729-.038 1.721-.15 1.762-.298 1.764-.448 1.241-.447 1.206-.598 1.172-.746 1.09-.858 1.007-.97.878-1.046.748-1.12.619-1.194.432-1.194.283-1.194.143-1.232-.026-1.157-.233-1.082-.433-.896-.575-.784-.632-.709-.764-.634-.832-.523-.834-.373-.891-.298-6.49-1.717-.437-.187-.368-.298-.264-.411-.179-.448-.02-.485.066-.523.177-.522.327-.523.382-.447.758-.598.792-.447.875-.336.872-.187.842-.075 1.213.075 1.146.187 1.106.336 1.011.41.934.56.866.672.724.784 5.716-4.18"/><path d="M462.856 27a2.91 2.91 0 0 1-2.91 2.912A2.91 2.91 0 0 1 457.035 27a2.91 2.91 0 0 1 2.91-2.91 2.91 2.91 0 0 1 2.911 2.91z" style="fill:#fff;fill-rule:evenodd;stroke:none;stroke-width:.24141;stroke-linecap:round;stop-color:#000"/><path style="fill:#fff;stroke:none;stroke-width:.137874;stroke-linecap:round;stroke-linejoin:round;stroke-miterlimit:10;stroke-opacity:1" d="m456.003 32.45-4.647 17.353-.06.286-.045.368v.379l.049.384.09.387.133.393.176.395.224.402.268.404.315.414h5.392l-.159-.202-.243-.35-.21-.357-.177-.374-.147-.389-.117-.4-.085-.414-.05-.425-.024-.445.01-.456 4.647-17.353zm0 0"/><path style="fill:#fff;stroke:none;stroke-width:.447871;stroke-linecap:round;stroke-linejoin:round;stroke-miterlimit:10;stroke-dasharray:none;stroke-opacity:1" d="M468.384 23.984h5.773l-6.263 23.372-.035.412.096.336.217.3.286.187.4.037 1.127-.037 1.157-.15-.73 5.086-1.877.336-1.848.225-1.866.15-.762-.075-.685-.225-.664-.299-.513-.449-.409-.56-.266-.674-.145-.71-.023-.748.135-.786z"/><path style="fill:#fff;stroke:none;stroke-width:.137874;stroke-linecap:round;stroke-linejoin:round;stroke-miterlimit:10;stroke-opacity:1" d="m480.98 32.45-4.647 17.353-.06.286-.045.368v.379l.048.384.09.387.133.393.177.395.224.403.268.403.314.414h5.393l-.16-.202-.242-.35-.21-.357-.177-.374-.147-.389-.117-.4-.085-.414-.05-.425-.024-.445.01-.456 4.647-17.353zM487.89 25.997l-7.52 2.805.312 1.004 7.715-1.746zm0 0"/><path style="fill:#fff;stroke:none;stroke-width:.448609;stroke-linecap:round;stroke-linejoin:round;stroke-miterlimit:10;stroke-dasharray:none;stroke-opacity:1" d="m495.052 40.154-.275.748-3.407 12.715h-5.792l5.671-21.167h5.793l-.4 1.496 1.039-.673 1.085-.56 1.081-.412 1.117-.262 1.087-.15 1.073.038 1.173.224.984.374.906.524.764.636.66.747.516.86.375.973.185 1.122.026 1.16-.134 1.196-.256 1.234-3.387 12.64h-5.792l3.376-12.603.164-.748.05-.748-.146-.71-.288-.599-.43-.486-.695-.336-.819-.15-.87.038-.862.15-.912.336-.793.448-.748.561-.63.674z"/><path style="fill:#fff;stroke:none;stroke-width:.137874;stroke-linecap:round;stroke-linejoin:round;stroke-miterlimit:10;stroke-opacity:1" d="m517.81 32.45-4.648 17.353-.06.286-.044.368v.379l.048.384.09.387.133.393.177.395.224.403.268.403.314.414h5.393l-.16-.202-.242-.35-.21-.357-.177-.374-.147-.389-.117-.4-.085-.414-.05-.425-.024-.445.01-.456 4.647-17.353zM524.72 25.997l-7.52 2.805.312 1.004 7.715-1.746zm0 0"/><path style="fill:#fff;stroke:none;stroke-width:.424948;stroke-linecap:round;stroke-linejoin:round;stroke-miterlimit:10;stroke-dasharray:none;stroke-opacity:1" d="M250.161 172.15h5.443V196h11.828v5.784H250.16z"/><path style="fill:#fff;stroke:none;stroke-width:.424898;stroke-linecap:round;stroke-linejoin:round;stroke-miterlimit:10;stroke-dasharray:none;stroke-opacity:1" d="m286.68 178.085.706.522.638.597.571.71.47.746.37.821.269.896.336 1.493.201 1.53.034 1.567-.034 1.53-.201 1.53-.336 1.53-.269.86-.37.858-.47.746-.57.71-.639.596-.705.485-.773.374-.806.298-.84.15-.84.074-.84-.074-.84-.15-.806-.298-.772-.374-.706-.485-.638-.597-.571-.709-.47-.746-.37-.859-.302-.858-.303-1.53-.201-1.53-.034-1.53.034-1.568.201-1.53.303-1.493.302-.896.37-.821.47-.747.571-.709.638-.597.706-.522.772-.374.807-.26.84-.187.84-.038.839.038.84.186.806.262zm9.44 7.8-.1-1.568-.236-1.567-.37-1.53-.537-1.493-.638-1.418-.773-1.344-.873-1.232-1.008-1.157-1.075-.895-1.176-.747-1.209-.597-1.276-.485-1.344-.261-1.31-.15h-1.545l-1.344.15-1.31.261-1.277.485-1.243.597-1.142.747-1.075.895-1.008 1.157-.873 1.232-.773 1.344-.671 1.418-.504 1.493-.37 1.53-.269 1.567-.1 1.568v2.127l.1 1.605.27 1.568.369 1.53.504 1.493.671 1.418.773 1.306.873 1.27 1.008 1.119 1.075.895 1.142.784 1.243.597 1.277.448 1.31.299 1.344.149h1.545l1.31-.15 1.344-.298 1.276-.448 1.21-.597 1.175-.784 1.075-.895 1.008-1.12.873-1.269.773-1.306.638-1.418.538-1.493.37-1.53.234-1.568.101-1.605z"/><path style="fill:#fff;stroke:none;stroke-width:.425245;stroke-linecap:round;stroke-linejoin:round;stroke-miterlimit:10;stroke-dasharray:none;stroke-opacity:1" d="m324.314 191.582-.202 1.383-.336 1.308-.504 1.27-.571 1.196-.74 1.121-.806 1.047-.94.934-1.009.785-1.075.672-1.143.523-1.21.374-1.21.224-1.243.075-1.243-.075-1.21-.224-1.176-.374-1.176-.523-1.076-.672-1.008-.785-.907-.934-.84-1.047-.706-1.12-.605-1.197-.47-1.27-.336-1.308-.236-1.383-.067-1.382v-18.05h5.478v18.05l.067 1.009.202.934.336.897.47.822.571.747.639.635.773.524.806.373.84.224.874.075.874-.075.874-.224.806-.373.74-.524.672-.635.57-.747.438-.822.336-.897.201-.934.068-1.01v-18.048h5.477V190.2z"/><path style="fill:#fff;stroke:none;stroke-width:.425054;stroke-linecap:round;stroke-linejoin:round;stroke-miterlimit:10;stroke-dasharray:none;stroke-opacity:1" d="M342.802 189.916v-5.188h11.7v17.056h-4.976v-2.127l-.773.82-.908.71-.941.56-1.043.41-1.042.261-1.076.075h-1.075l-1.345-.15-1.311-.298-1.278-.448-1.243-.597-1.143-.746-1.076-.896-1.009-1.157-.874-1.232-.807-1.343-.638-1.418-.505-1.493-.403-1.53-.235-1.568-.101-1.567v-2.128l.1-1.605.236-1.567.403-1.53.505-1.493.638-1.418.807-1.344.874-1.232 1.009-1.12 1.076-.895 1.143-.784 1.243-.597 1.278-.448 1.311-.298 1.345-.15h1.513l1.344.15 1.345.298 1.277.448 1.21.597 1.177.784 1.076.896 1.009 1.12.874 1.268.907 1.792-5.11 2.687-.47-1.045-.639-.896-.74-.82-.84-.673-.773-.336-.773-.26-.807-.15-.807-.075-.84.075-.84.15-.808.298-.773.373-.706.485-.639.597-.571.71-.47.746-.37.858-.303.859-.303 1.493-.201 1.567-.034 1.53.034 1.568.201 1.53.303 1.493.302.895.37.822.47.746.572.71.64.596.705.485.773.411.807.261.84.15.84.074.909-.075.907-.186.874-.336.84-.523.74-.634.64-.746.537-.859.37-1.12.235-1.12.034-1.193z"/><path style="fill:#fff;stroke:none;stroke-width:.424819;stroke-linecap:round;stroke-linejoin:round;stroke-miterlimit:10;stroke-dasharray:none;stroke-opacity:1" d="M378.717 183.459v-11.308h5.473v29.633h-5.473v-12.54h-10.78v12.54h-5.473V172.15h5.473v11.308z"/><path style="fill:#fff;stroke:none;stroke-width:.424948;stroke-linecap:round;stroke-linejoin:round;stroke-miterlimit:10;stroke-dasharray:none;stroke-opacity:1" d="M392.655 172.15h5.443V196h11.828v5.784h-17.271z"/><path style="fill:#fff;stroke:none;stroke-width:.424882;stroke-linecap:round;stroke-linejoin:round;stroke-miterlimit:10;stroke-dasharray:none;stroke-opacity:1" d="M420.507 172.15v29.634h-5.442V172.15z"/><path style="fill:#fff;stroke:none;stroke-width:.425054;stroke-linecap:round;stroke-linejoin:round;stroke-miterlimit:10;stroke-dasharray:none;stroke-opacity:1" d="M435.195 172.15h-6.22v29.634h5.446v-20.042l11.935 20.042h6.253V172.15h-5.48v20.041z"/><path style="fill:#fff;stroke:none;stroke-width:.425139;stroke-linecap:round;stroke-linejoin:round;stroke-miterlimit:10;stroke-dasharray:none;stroke-opacity:1" d="m482.068 176.181-1.11-1.082-1.177-.933-1.278-.821-1.312-.71-1.378-.522-1.447-.41-1.446-.224-1.48-.075-1.446.075-1.446.224-1.446.41-1.043.448-.975.56-.908.71-.84.82-.74.896-.572.896-.437.97-.337 1.008-.235 1.045-.068 1.082.034 1.082.168 1.083.303 1.007.404 1.008.504.896.639.858.706.71 1.01.746 1.109.522 1.177.336 6.29 1.568.604.26.505.374.437.522.303.598.168.634.034.71-.101.671-.27.634-.37.56-.571.523-.639.41-.706.299-.74.15h-1.816l-1.043-.15-1.009-.224-.975-.373-.975-.485-1.144-.822-1.076-.895-.975-1.045-4.641 3.956.975 1.12 1.042 1.045 1.11.933 1.177.82 1.278.672 1.446.523 1.514.373 1.513.261 1.514.112 1.547-.037 1.513-.15 1.514-.298 1.48-.448 1.008-.448.942-.597.874-.746.774-.859.672-.97.539-1.045.403-1.12.27-1.194.1-1.194-.034-1.194-.168-1.232-.302-1.157-.471-1.082-.606-.896-.706-.784-.74-.709-.84-.634-.875-.523-.84-.373-.875-.299-6.255-1.717-.438-.186-.403-.299-.337-.41-.269-.448-.134-.485-.067-.523.033-.522.168-.523.236-.448.538-.597.605-.448.706-.336.74-.186.74-.075 1.11.075 1.076.186 1.076.336 1.01.41.975.56.941.673.841.783 4.137-4.18"/><path style="fill:#fff;stroke:none;stroke-width:.424948;stroke-linecap:round;stroke-linejoin:round;stroke-miterlimit:10;stroke-dasharray:none;stroke-opacity:1" d="M485.464 172.15v5.785h7.56v23.849h5.477v-23.849h7.56v-5.784z"/><path style="fill:#fff;stroke:none;stroke-width:.424898;stroke-linecap:round;stroke-linejoin:round;stroke-miterlimit:10;stroke-dasharray:none;stroke-opacity:1" d="m525.377 178.085.706.522.638.597.571.71.47.746.37.821.269.896.335 1.493.202 1.53.034 1.567-.034 1.53-.202 1.53-.335 1.53-.27.86-.369.858-.47.746-.571.71-.638.596-.706.485-.772.374-.807.298-.84.15-.84.074-.84-.074-.839-.15-.806-.298-.773-.374-.705-.485-.638-.597-.572-.709-.47-.746-.37-.859-.302-.858-.302-1.53-.202-1.53-.033-1.53.033-1.568.202-1.53.302-1.493.303-.896.37-.821.47-.747.57-.709.639-.597.705-.522.773-.373.806-.262.84-.186.84-.038.84.038.84.186.806.262zm9.44 7.8-.101-1.568-.235-1.567-.37-1.53-.537-1.493-.638-1.418-.773-1.344-.874-1.232-1.007-1.156-1.075-.896-1.176-.747-1.21-.597-1.276-.485-1.344-.261-1.31-.15h-1.545l-1.344.15-1.31.261-1.276.485-1.243.597-1.142.747-1.075.895-1.008 1.157-.873 1.232-.773 1.344-.672 1.418-.504 1.493-.37 1.53-.268 1.567-.1 1.568v2.127l.1 1.605.269 1.568.37 1.53.503 1.493.672 1.418.773 1.306.873 1.27 1.008 1.119 1.075.895 1.142.784 1.243.597 1.276.448 1.31.299 1.344.149h1.545l1.31-.15 1.344-.298 1.277-.448 1.209-.597 1.176-.784 1.075-.895 1.007-1.12.874-1.269.773-1.306.638-1.418.537-1.493.37-1.53.235-1.568.1-1.605z"/><path style="fill:#fff;stroke:none;stroke-width:.425258;stroke-linecap:round;stroke-linejoin:round;stroke-miterlimit:10;stroke-dasharray:none;stroke-opacity:1" d="M552.19 201.784h-6.855l-6.218-29.633h5.613l4.268 20.365 3.831-20.365h6.352l3.831 20.365 4.268-20.365h5.613l-6.218 29.633h-6.855l-3.798-20.329z"/><path style="fill:#fff;stroke:none;stroke-width:.425054;stroke-linecap:round;stroke-linejoin:round;stroke-miterlimit:10;stroke-dasharray:none;stroke-opacity:1" d="M584.356 172.15h-6.22v29.634h5.447v-20.042l11.934 20.042h6.253V172.15h-5.48v20.041z"/><path d="m270.704 144.025-.293-.86-.425-.785-.557-.71-.672-.56-.777-.449.925-.523.89-.672.761-.748.706-.822.577-.897.474-.934.335-.971.186-.972.026-.934-.113-.972-.226-.971-.405-.86-.49-.822-.641-.673-.737-.598-.804-.485-.956-.337-.986-.224-1.027-.075h-13.938l-7.94 29.634h14.536l1.348-.15 1.303-.261 1.363-.486 1.32-.598 1.246-.747 1.09-.86 1.007-.971.888-1.084.722-1.159.582-1.195.405-1.234.243-1.046.12-1.009.01-1.009zm-15.27-4.933 1.682-6.278h6.726l.69.075.613.224.498.374.355.485.214.598.044.673-.116.71-.255.673-.404.672-.534.598-.616.486-.708.411-.733.224-.73.075zm-3.234 12.07 1.982-7.399h7.026l.7.037.65.225.545.336.43.486.298.56.166.636.044.672-.125.748-.265.71-.415.71-.506.635-.599.56-.68.449-.726.336-.77.224-.73.075H252.2" style="fill:#fff;stroke:none;stroke-width:.448421;stroke-linecap:round;stroke-linejoin:round;stroke-miterlimit:10;stroke-dasharray:none;stroke-opacity:1"/><path style="fill:#fff;stroke:none;stroke-width:1.75559;stroke-linecap:round;stroke-linejoin:round;stroke-miterlimit:10;stroke-opacity:1" d="m286.743 135.26-1.093.096-1.07.227-1.057.366-1.032.511-1.01.653-.986.798-.272.248-.832.856-.772.902-.689.962-.606 1.02-.524 1.07-.448 1.14-.038.095-.332 1.103-.273 1.081-.189 1.08-.12 1.082-.046 1.057.01.63.107 1.058.214.986.32.9.415.821.523.735.392.452.7.606.81.486.889.358.986.226 1.07.094.523.01 1.081-.056 1.104-.154 1.14-.226 1.164-.309.487.166.82.308.128.107h3.755l-.06-.713-.024-1.14.106-.796.5-1.875.5-1.842.474-1.735.44-1.626.403-1.52.38-1.415.357-1.307.32-1.209.298-1.093.26-.985.238-.892.202-.773.178-.674.154-.561.12-.463.083-.355.057-.248h-4.335l-.248.96-.188-.166-.618-.346-.821-.294-1.01-.214-1.223-.166-1.413-.083zm.188 5.084.523.036.95.26.903.499.308.263.572.76.201.889v.05l-.06 1.222-.154 1.127-.238 1.021-.343.915-.297.618-.667 1.19-.663.937-.666.7-.403.286-.938.438-1.104.263-1.283.069-.724-.095-.786-.332-.57-.594-.343-.843-.108-1.105v-.357l.083-1.115.203-1.01.071-.214.38-1.08.51-1.056.642-1.035.096-.143.782-.89.987-.82 1.092-.64z"/><path d="M311.303 130.189a2.91 2.91 0 0 1-2.91 2.91 2.91 2.91 0 0 1-2.911-2.91 2.91 2.91 0 0 1 2.91-2.911 2.91 2.91 0 0 1 2.911 2.91z" style="fill:#fff;fill-rule:evenodd;stroke:none;stroke-width:.24141;stroke-linecap:round;stop-color:#000"/><path style="fill:#fff;stroke:none;stroke-width:.137874;stroke-linecap:round;stroke-linejoin:round;stroke-miterlimit:10;stroke-opacity:1" d="m304.45 135.638-4.647 17.352-.06.286-.045.369v.379l.048.384.09.387.133.392.177.396.224.402.268.404.315.414h5.392l-.16-.203-.242-.349-.21-.357-.177-.375-.147-.388-.117-.4-.085-.414-.05-.425-.024-.445.01-.457 4.647-17.352zm0 0"/><path style="fill:#fff;stroke:none;stroke-width:.447871;stroke-linecap:round;stroke-linejoin:round;stroke-miterlimit:10;stroke-dasharray:none;stroke-opacity:1" d="M316.83 127.171h5.774l-6.263 23.373-.036.411.096.337.218.3.285.186.4.038 1.128-.038 1.157-.15-.73 5.087-1.877.336-1.849.224-1.865.15-.762-.075-.685-.224-.665-.3-.513-.448-.408-.561-.267-.673-.145-.71-.023-.749.136-.785z"/><path style="fill:#fff;stroke:none;stroke-width:.447863;stroke-linecap:round;stroke-linejoin:round;stroke-miterlimit:10;stroke-dasharray:none;stroke-opacity:1" d="M330.375 143.814h8.581l.089-.747-.072-.71-.203-.634-.335-.56-.467-.485-.534-.374-.639-.26-.706-.15h-.746l-.787.15-.779.26-.734.374-.727.485-.635.56-.543.635-.451.709zm-1.276 5.04-.014.746.156.672.288.597.42.523.524.41.842.336.92.187.96.037.99-.074 1.041-.262 1.128-.448 1.092-.597 1.021-.747 2.612 3.621-.966.822-1.021.746-1.066.635-1.1.485-1.145.374-1.423.298-1.42.15-1.391.037-1.35-.112-1.274-.261-.965-.3-.897-.41-.783-.56-.688-.634-.62-.747-.452-.821-.395-.896-.225-.97-.162-1.345-.04-1.38.119-1.42.278-1.455.465-1.456.604-1.419.753-1.418.882-1.344.925-1.083 1.053-1.008 1.173-.896 1.208-.746 1.083-.56 1.137-.486 1.135-.336 1.132-.186 1.102-.075 1.072.037 1.032.187 1.002.299.898.41.782.56.78.71.676.82.486.971.364 1.008.185 1.12.073 1.68-.087 1.717-.284 1.755-.395 1.754h-14.105z"/><path style="fill:#fff;stroke:none;stroke-width:.448246;stroke-linecap:round;stroke-linejoin:round;stroke-miterlimit:10;stroke-dasharray:none;stroke-opacity:1" d="m389.869 146.603-.595 1.383-.723 1.308-.9 1.27-.956 1.196-1.122 1.121-1.176 1.046-1.296.935-1.33.784-1.376.673-1.41.523-1.444.374-1.404.224-1.402.075-1.361-.075-1.284-.224-1.207-.374-1.167-.523-1.014-.673-.91-.784-.758-.935-.653-1.046-.484-1.121-.352-1.196-.182-1.27-.023-1.308.11-1.383.295-1.383 4.836-18.049h6.087l-4.837 18.05-.195 1.008-.027.935.133.896.303.823.434.747.54.635.718.523.796.374.874.224.95.075.991-.075 1.031-.224.996-.374.962-.523.917-.635.835-.747.706-.823.613-.896.475-.935.345-1.009 4.836-18.049h6.086l-4.836 18.05z"/><path style="fill:#fff;stroke:none;stroke-width:.137874;stroke-linecap:round;stroke-linejoin:round;stroke-miterlimit:10;stroke-opacity:1" d="m401.816 135.638-4.647 17.352-.06.286-.044.369v.379l.048.384.09.387.133.392.177.396.224.402.267.404.315.414h5.393l-.16-.203-.242-.349-.21-.357-.177-.375-.147-.388-.117-.4-.085-.414-.05-.425-.024-.445.01-.457 4.646-17.352zM408.727 129.185l-7.52 2.804.312 1.004 7.715-1.746zm0 0"/><path style="fill:#fff;stroke:none;stroke-width:.447934;stroke-linecap:round;stroke-linejoin:round;stroke-miterlimit:10;stroke-dasharray:none;stroke-opacity:1" d="M431.852 127.171h6.048l-6.39 23.849h13.141l-1.55 5.785h-19.19z"/><path style="fill:#fff;stroke:none;stroke-width:1.75559;stroke-linecap:round;stroke-linejoin:round;stroke-miterlimit:10;stroke-opacity:1" d="m460.098 135.26-1.093.096-1.07.227-1.057.366-1.032.511-1.01.653-.986.798-.272.248-.832.856-.772.902-.689.962-.606 1.02-.524 1.07-.448 1.14-.038.095-.332 1.103-.273 1.081-.189 1.08-.12 1.082-.046 1.057.01.63.107 1.058.215.986.32.9.414.821.523.735.392.452.7.606.81.486.889.358.986.226 1.07.094.523.01 1.081-.056 1.104-.154 1.14-.226 1.164-.309.487.166.82.308.128.107h3.755l-.06-.713-.024-1.14.106-.796.5-1.875.5-1.842.474-1.735.44-1.626.403-1.52.38-1.415.358-1.307.32-1.209.297-1.093.26-.985.238-.892.202-.773.178-.674.154-.561.12-.463.083-.355.057-.248h-4.335l-.247.96-.189-.166-.618-.346-.821-.294-1.01-.214-1.222-.166-1.414-.083zm.188 5.084.523.036.95.26.903.499.308.263.572.76.201.889v.05l-.06 1.222-.154 1.127-.238 1.021-.343.915-.297.618-.667 1.19-.663.937-.666.7-.403.286-.938.438-1.104.263-1.283.069-.724-.095-.786-.332-.57-.594-.343-.843-.108-1.105v-.357l.083-1.115.203-1.01.071-.214.38-1.08.51-1.056.642-1.035.096-.143.782-.89.987-.82 1.092-.64z"/><path d="m486.089 148.741 4.832 2.016-.172.224-.852 1.232-.972 1.12-1.053 1.008-1.183.933-1.255.784-1.195.56-1.155.41-1.209.337-1.207.186-1.176.075-1.137-.075-1.07-.186-1.029-.336-.972-.411-.857-.56-.835-.784-.682-.933-.551-1.008-.372-1.12-.192-1.232-.015-.224.027-1.493.187-1.53.335-1.531.485-1.53.624-1.494.773-1.493.145-.262.842-1.194.972-1.12 1.1-1.045 1.174-.896 1.264-.822 1.148-.522 1.202-.448 1.2-.299 1.179-.224 1.176-.075 1.137.075 1.097.224 1.039.299.925.448.904.522.825.822.693.896.503 1.045.372 1.12.202 1.194.042.262-5.903 1.978-.128-1.194-.34-.822-.48-.709-.634-.56-.796-.373-.828-.112-.85.112-1.034.373-.933.56-.862.71-.742.82-.489.71-.414.71-.422 1.156-.385 1.158-.245 1.194-.198 1.158.034.709.118.672.302.821.472.747.633.56.833.373.791.112.888-.112.996-.373.933-.56.872-.747.78-.821z" style="fill:#fff;stroke:none;stroke-width:.447858;stroke-linecap:round;stroke-linejoin:round;stroke-miterlimit:10;stroke-dasharray:none;stroke-opacity:1"/><path style="fill:#fff;stroke:none;stroke-width:.448159;stroke-linecap:round;stroke-linejoin:round;stroke-miterlimit:10;stroke-dasharray:none;stroke-opacity:1" d="M512.768 156.805h-5.793l3.38-12.615.163-.746.013-.747-.119-.672-.278-.634-.43-.485-.696-.336-.82-.15-.869.038-.872.186-.902.299-.793.448-.748.56-.628.671-.49.71-.274.746-3.41 12.727h-5.793l7.94-29.634h5.793l-2.67 9.965 1.04-.672 1.037-.522 1.119-.41 1.126-.3 1.076-.111h1.084l1.173.224.984.373.907.523.764.634.66.746.517.859.375.97.186 1.12.026 1.157-.133 1.194-.255 1.232z"/><path style="fill:#fff;stroke:none;stroke-width:.448609;stroke-linecap:round;stroke-linejoin:round;stroke-miterlimit:10;stroke-dasharray:none;stroke-opacity:1" d="m528.073 143.342-.276.748-3.407 12.715h-5.792l5.671-21.167h5.793l-.4 1.496 1.04-.673 1.084-.561 1.082-.412 1.116-.261 1.087-.15 1.073.037 1.173.225.984.374.906.523.764.636.66.748.516.86.375.972.185 1.122.026 1.16-.134 1.196-.256 1.234-3.387 12.64h-5.792l3.377-12.602.163-.748.05-.748-.145-.71-.289-.599-.43-.486-.694-.337-.82-.15-.87.038-.862.15-.912.336-.793.45-.748.56-.63.673z"/><path style="fill:#fff;stroke:none;stroke-width:1.75558;stroke-linecap:round;stroke-linejoin:round;stroke-miterlimit:10;stroke-opacity:1" d="m553.878 131.935.308 1.01 7.709-1.745-.557-2.067zM556.194 135.26l-1.092.097-1.07.227-1.058.365-1.032.511-1.01.653-.986.798-.271.249-.832.855-.772.902-.689.962-.606 1.02-.524 1.07-.448 1.14-.038.095-.332 1.103-.273 1.081-.19 1.08-.12 1.082-.045 1.058.01.63.107 1.057.214.987.32.9.415.82.523.736.392.45.7.608.81.485.889.358.986.226 1.07.094.523.01 1.081-.056 1.104-.154 1.14-.226 1.164-.309.487.166.82.308.128.107h3.755l-.06-.713-.024-1.14.106-.795.5-1.876.5-1.842.474-1.735.44-1.626.403-1.52.38-1.415.357-1.306.32-1.21.298-1.092.26-.986.238-.891.202-.774.178-.674.154-.56.12-.463.083-.355.057-.248h-4.335l-.248.96-.188-.166-.618-.347-.821-.293-1.01-.215-1.223-.166-1.413-.083zm.189 5.084.523.037.95.26.903.498.308.263.572.76.201.89v.049l-.06 1.223-.154 1.126-.238 1.021-.343.915-.297.618-.667 1.19-.664.937-.665.7-.403.287-.939.437-1.103.263-1.284.069-.723-.095-.786-.331-.57-.595-.343-.842-.109-1.106v-.357l.083-1.114.203-1.01.072-.215.38-1.08.509-1.055.643-1.036.095-.143.783-.889.987-.82 1.092-.64z"/><path d="M581.178 130.189a2.91 2.91 0 0 1-2.91 2.91 2.91 2.91 0 0 1-2.911-2.91 2.91 2.91 0 0 1 2.91-2.911 2.91 2.91 0 0 1 2.911 2.91z" style="fill:#fff;fill-rule:evenodd;stroke:none;stroke-width:.24141;stroke-linecap:round;stop-color:#000"/><path style="fill:#fff;stroke:none;stroke-width:.137874;stroke-linecap:round;stroke-linejoin:round;stroke-miterlimit:10;stroke-opacity:1" d="m574.324 135.638-4.646 17.352-.06.286-.045.369v.379l.048.384.09.387.133.392.177.396.224.402.268.404.315.414h5.392l-.16-.203-.242-.349-.21-.357-.177-.375-.147-.388-.117-.4-.085-.414-.05-.425-.024-.445.01-.457 4.647-17.352zm0 0"/><path style="fill:#fff;stroke:none;stroke-width:.448609;stroke-linecap:round;stroke-linejoin:round;stroke-miterlimit:10;stroke-dasharray:none;stroke-opacity:1" d="m588.398 143.342-.276.748-3.407 12.715h-5.792l5.671-21.167h5.793l-.4 1.496 1.04-.673 1.084-.561 1.082-.412 1.116-.261 1.087-.15 1.073.038 1.173.224.984.374.906.523.764.636.66.748.516.86.375.973.185 1.121.026 1.16-.134 1.196-.256 1.234-3.387 12.64h-5.792l3.377-12.602.163-.748.05-.748-.145-.71-.289-.599-.43-.486-.695-.337-.819-.15-.87.038-.862.15-.912.336-.793.45-.748.56-.63.673z"/><path style="fill:#fff;stroke:none;stroke-width:.448137;stroke-linecap:round;stroke-linejoin:round;stroke-miterlimit:10;stroke-dasharray:none;stroke-opacity:1" d="m274 279.369-1.233-1.083-1.308-.933-1.42-.82-1.457-.71-1.532-.522-1.607-.41-1.607-.225-1.644-.074-1.607.074-1.607.224-1.607.41-1.158.448-1.084.56-1.009.71-.934.82-.822.896-.635.896-.486.97-.374 1.008-.261 1.045-.075 1.082.037 1.083.187 1.082.337 1.008.448 1.007.56.896.71.858.785.71 1.121.746 1.233.522 1.308.336 6.988 1.568.673.261.56.373.486.523.336.597.187.634.038.71-.113.671-.298.635-.412.56-.635.522-.71.41-.784.3-.823.149h-2.017l-1.159-.15-1.12-.224-1.085-.373-1.083-.485-1.27-.821-1.197-.896-1.083-1.045-5.157 3.956 1.084 1.12 1.158 1.045 1.233.933 1.308.821 1.42.672 1.607.522 1.681.373 1.682.262 1.682.112 1.719-.038 1.681-.149 1.682-.298 1.644-.448 1.12-.448 1.047-.597.972-.747.86-.858.747-.97.597-1.046.449-1.12.299-1.193.112-1.195-.037-1.194-.187-1.232-.337-1.157-.523-1.082-.672-.896-.785-.783-.822-.71-.934-.634-.972-.523-.934-.373-.972-.298-6.95-1.717-.486-.187-.448-.298-.374-.41-.299-.449-.15-.485-.074-.522.037-.523.187-.522.262-.448.597-.597.673-.448.785-.336.822-.187.822-.074 1.233.074 1.196.187 1.196.336 1.12.41 1.084.56 1.047.672.934.784 4.596-4.18"/><path style="fill:#fff;stroke:none;stroke-width:.447798;stroke-linecap:round;stroke-linejoin:round;stroke-miterlimit:10;stroke-dasharray:none;stroke-opacity:1" d="M299.712 286.646v-11.308h6.082v29.633h-6.082v-12.54h-11.977v12.54h-6.082v-29.633h6.082v11.308z"/><path d="M321.547 275.338h7.878l9.895 29.633h-6.647l-1.605-5.231h-11.164l-1.605 5.231h-6.647zm3.92 6.203-3.957 12.967h7.952z" style="fill:#fff;stroke:none;stroke-width:.448236;stroke-linecap:round;stroke-linejoin:round;stroke-miterlimit:10;stroke-dasharray:none;stroke-opacity:1"/><path style="fill:#fff;stroke:none;stroke-width:.448047;stroke-linecap:round;stroke-linejoin:round;stroke-miterlimit:10;stroke-dasharray:none;stroke-opacity:1" d="M352.094 275.338h-6.91v29.633h6.05V284.93l13.26 20.041h6.949v-29.633h-6.089v20.042z"/><path style="fill:#fff;stroke:none;stroke-width:.448046;stroke-linecap:round;stroke-linejoin:round;stroke-miterlimit:10;stroke-dasharray:none;stroke-opacity:1" d="m386.608 294.67 2.54-2.836 8.33 13.137h7.171l-11.28-17.802 10.72-11.831h-8.18l-9.301 10.3v-10.3h-6.089v29.633h6.089z"/><path style="fill:#fff;stroke:none;stroke-width:.447866;stroke-linecap:round;stroke-linejoin:round;stroke-miterlimit:10;stroke-dasharray:none;stroke-opacity:1" d="M415.996 275.338v29.633h-6.046v-29.633z"/><path style="fill:#fff;stroke:none;stroke-width:.447935;stroke-linecap:round;stroke-linejoin:round;stroke-miterlimit:10;stroke-dasharray:none;stroke-opacity:1" d="M425.477 275.338h6.049v23.848h13.141v5.785h-19.19zM450.454 275.338h6.048v23.848h13.142v5.785h-19.19z"/><path style="fill:#fff;stroke:none;stroke-width:.448135;stroke-linecap:round;stroke-linejoin:round;stroke-miterlimit:10;stroke-dasharray:none;stroke-opacity:1" d="m274.85 234.39-.944-1.083-1.058-.933-1.2-.821-1.267-.71-1.392-.522-1.497-.41-1.547-.224-1.624-.075-1.627.075-1.667.224-1.716.41-1.279.448-1.233.56-1.2.71-1.154.82-1.062.896-.875.896-.746.97-.643 1.008-.542 1.045-.365 1.082-.252 1.082-.104 1.083.067 1.007.178 1.008.32.896.48.858.595.71.921.746 1.094.522 1.217.336 6.568 1.568.603.26.46.374.346.523.176.597.017.634-.152.71-.293.671-.469.635-.56.56-.776.522-.82.41-.865.3-.862.148h-2.018l-1.118-.149-1.061-.224-.984-.373-.953-.485-1.05-.821-.957-.896-.803-1.045-6.217 3.956.784 1.12.878 1.045.983.933 1.088.82 1.24.673 1.467.522 1.581.373 1.612.262 1.651.112 1.73-.038 1.72-.15 1.763-.298 1.764-.448 1.24-.447 1.207-.598 1.172-.746 1.09-.858 1.006-.97.878-1.046.749-1.12.619-1.194.432-1.194.282-1.194.144-1.232-.027-1.157-.233-1.082-.432-.896-.575-.784-.632-.709-.764-.634-.832-.523-.834-.373-.892-.298-6.49-1.717-.436-.187-.368-.298-.264-.411-.179-.448-.02-.485.066-.523.177-.522.327-.523.382-.447.757-.598.793-.447.875-.336.872-.187.842-.075 1.213.075 1.146.187 1.106.336 1.01.41.934.56.867.672.724.784 5.716-4.18"/><path style="fill:#fff;stroke:none;stroke-width:.447863;stroke-linecap:round;stroke-linejoin:round;stroke-miterlimit:10;stroke-dasharray:none;stroke-opacity:1" d="M281.903 247h8.582l.088-.746-.071-.709-.203-.635-.335-.56-.467-.485-.535-.373-.639-.262-.706-.149h-.746l-.786.15-.78.26-.734.374-.727.485-.635.56-.543.635-.451.71zm-1.276 5.04-.013.747.155.672.288.597.42.523.524.41.843.337.92.186.96.038.99-.075 1.04-.261 1.128-.448 1.093-.598 1.02-.746 2.612 3.62-.966.822-1.02.747-1.066.634-1.1.486-1.145.373-1.424.299-1.42.149-1.39.037-1.351-.112-1.274-.261-.964-.299-.898-.41-.783-.56-.688-.635-.62-.747-.452-.82-.394-.897-.225-.97-.163-1.344-.04-1.382.119-1.418.278-1.456.465-1.456.604-1.419.753-1.418.883-1.344.924-1.083 1.054-1.008 1.172-.895 1.208-.747 1.083-.56 1.137-.485 1.135-.336 1.132-.187 1.102-.075 1.072.038 1.032.186 1.002.299.898.41.783.56.78.71.675.821.486.97.365 1.009.185 1.12.072 1.68-.087 1.717-.284 1.754-.395 1.755h-14.104z"/><path style="fill:#fff;stroke:none;stroke-width:1.75559;stroke-linecap:round;stroke-linejoin:round;stroke-miterlimit:10;stroke-opacity:1" d="m310.026 238.447-1.092.097-1.07.227-1.058.365-1.032.511-1.01.653-.986.798-.272.249-.831.855-.772.903-.69.961-.606 1.02-.524 1.07-.447 1.14-.039.095-.331 1.104-.274 1.08-.189 1.08-.12 1.082-.046 1.058.011.63.106 1.057.215.987.32.9.414.82.523.736.392.45.7.608.81.485.89.358.986.226 1.07.094.522.011 1.082-.057 1.103-.154 1.14-.225 1.164-.31.487.166.82.309.129.106h3.754l-.06-.713-.023-1.14.106-.795.5-1.875.499-1.842.474-1.736.44-1.626.403-1.52.38-1.414.358-1.307.32-1.21.297-1.092.26-.986.239-.891.201-.774.178-.674.155-.56.12-.463.082-.355.057-.248h-4.334l-.248.96-.189-.166-.618-.347-.82-.293-1.01-.215-1.223-.166-1.413-.083zm.189 5.084.522.037.95.26.903.498.308.263.573.76.2.89v.049l-.06 1.223-.154 1.126-.238 1.022-.343.914-.297.618-.666 1.19-.664.937-.666.7-.403.287-.938.437-1.104.263-1.283.07-.724-.096-.786-.331-.57-.595-.343-.842-.108-1.106v-.357l.083-1.114.203-1.01.072-.215.38-1.08.508-1.055.644-1.036.095-.143.783-.889.986-.82 1.092-.64z"/><path style="fill:#fff;stroke:none;stroke-width:.448609;stroke-linecap:round;stroke-linejoin:round;stroke-miterlimit:10;stroke-dasharray:none;stroke-opacity:1" d="m329.736 246.694-.275.748-3.407 12.715h-5.793l5.672-21.166h5.792l-.4 1.495 1.04-.673 1.084-.56 1.082-.412 1.116-.262 1.087-.15 1.074.038 1.173.224.983.374.906.524.764.636.66.748.516.86.375.972.185 1.122.026 1.16-.134 1.196-.256 1.234-3.386 12.64h-5.793l3.377-12.603.163-.748.05-.748-.145-.71-.288-.598-.43-.487-.695-.336-.82-.15-.87.038-.861.15-.913.336-.793.449-.748.56-.629.674z"/><path d="m360.777 252.094 4.833 2.016-.172.224-.853 1.231-.971 1.12-1.054 1.008-1.183.934-1.255.784-1.195.56-1.154.41-1.21.336-1.206.187-1.177.074-1.137-.074-1.069-.187-1.03-.336-.971-.41-.858-.56-.834-.784-.683-.934-.55-1.008-.372-1.12-.193-1.231-.014-.224.027-1.494.186-1.53.335-1.53.485-1.531.624-1.494.773-1.493.145-.261.842-1.195.972-1.12 1.101-1.045 1.173-.896 1.265-.821 1.147-.523 1.202-.448 1.2-.298 1.179-.224 1.177-.075 1.136.075 1.097.224 1.04.298.924.448.905.523.824.821.693.896.504 1.045.371 1.12.202 1.195.042.261-5.903 1.979-.127-1.195-.34-.821-.482-.71-.633-.56-.796-.373-.828-.112-.85.112-1.033.374-.934.56-.862.709-.742.821-.489.71-.414.709-.422 1.157-.384 1.157-.246 1.195-.198 1.157.034.71.118.671.303.822.471.746.634.56.832.373.791.112.889-.112.995-.373.934-.56.871-.746.78-.822z" style="fill:#fff;stroke:none;stroke-width:.447858;stroke-linecap:round;stroke-linejoin:round;stroke-miterlimit:10;stroke-dasharray:none;stroke-opacity:1"/><path style="fill:#fff;stroke:none;stroke-width:.448159;stroke-linecap:round;stroke-linejoin:round;stroke-miterlimit:10;stroke-dasharray:none;stroke-opacity:1" d="M387.456 260.157h-5.792l3.38-12.615.162-.746.013-.746-.119-.672-.278-.635-.43-.485-.695-.336-.82-.149-.87.037-.872.187-.902.298-.792.448-.748.56-.629.672-.489.709-.275.746-3.41 12.727h-5.792l7.94-29.633h5.793l-2.67 9.965 1.039-.672 1.037-.523 1.119-.41 1.126-.299 1.077-.112h1.083l1.174.224.984.373.906.523.764.634.66.747.517.858.375.97.186 1.12.027 1.157-.134 1.195-.255 1.231z"/><path d="M407.183 233.541a2.91 2.91 0 0 1-2.91 2.91 2.91 2.91 0 0 1-2.911-2.91 2.91 2.91 0 0 1 2.91-2.91 2.91 2.91 0 0 1 2.911 2.91z" style="fill:#fff;fill-rule:evenodd;stroke:none;stroke-width:.24141;stroke-linecap:round;stop-color:#000"/><path style="fill:#fff;stroke:none;stroke-width:.137874;stroke-linecap:round;stroke-linejoin:round;stroke-miterlimit:10;stroke-opacity:1" d="m400.33 238.99-4.648 17.353-.06.286-.044.368v.379l.048.385.09.386.133.393.177.396.224.402.268.403.314.414h5.393l-.16-.202-.242-.35-.21-.356-.177-.375-.147-.389-.117-.4-.085-.413-.05-.426-.024-.445.01-.456 4.647-17.353zm0 0"/><path style="fill:#fff;stroke:none;stroke-width:.447871;stroke-linecap:round;stroke-linejoin:round;stroke-miterlimit:10;stroke-dasharray:none;stroke-opacity:1" d="M412.71 230.524h5.774l-6.263 23.373-.036.41.096.337.218.3.285.187.4.037 1.128-.037 1.157-.15-.73 5.086-1.878.337-1.848.224-1.865.15-.762-.075-.685-.225-.665-.299-.513-.449-.408-.56-.267-.674-.145-.71-.023-.748.136-.785zM426.045 230.524h5.774l-6.263 23.373-.036.41.096.337.218.3.285.187.4.037 1.128-.037 1.157-.15-.73 5.086-1.878.337-1.848.224-1.865.15-.762-.075-.685-.225-.665-.299-.513-.449-.408-.56-.267-.674-.145-.71-.023-.748.136-.785z"/><path style="fill:#fff;stroke:none;stroke-width:.448046;stroke-linecap:round;stroke-linejoin:round;stroke-miterlimit:10;stroke-dasharray:none;stroke-opacity:1" d="m256.433 397.858 2.54-2.837 8.33 13.138h7.171l-11.28-17.803 10.72-11.83h-8.18l-9.301 10.3v-10.3h-6.089v29.633h6.089z"/><path style="fill:#fff;stroke:none;stroke-width:.447866;stroke-linecap:round;stroke-linejoin:round;stroke-miterlimit:10;stroke-dasharray:none;stroke-opacity:1" d="M285.82 378.525v29.634h-6.045v-29.634z"/><path style="fill:#fff;stroke:none;stroke-width:.447935;stroke-linecap:round;stroke-linejoin:round;stroke-miterlimit:10;stroke-dasharray:none;stroke-opacity:1" d="M295.302 378.525h6.049v23.849h13.141v5.785h-19.19zM320.28 378.525h6.047v23.849h13.142v5.785h-19.19z"/><path style="fill:#fff;stroke:none;stroke-width:.447866;stroke-linecap:round;stroke-linejoin:round;stroke-miterlimit:10;stroke-dasharray:none;stroke-opacity:1" d="M351.226 378.525v29.634h-6.046v-29.634z"/><path style="fill:#fff;stroke:none;stroke-width:.448047;stroke-linecap:round;stroke-linejoin:round;stroke-miterlimit:10;stroke-dasharray:none;stroke-opacity:1" d="M367.545 378.525h-6.91v29.634h6.051v-20.042l13.26 20.042h6.948v-29.634h-6.088v20.042z"/><path style="fill:#fff;stroke:none;stroke-width:.448232;stroke-linecap:round;stroke-linejoin:round;stroke-miterlimit:10;stroke-dasharray:none;stroke-opacity:1" d="M416.766 402.367h-14.524v-6.503h12.134v-5.493h-12.134v-6.09h13.404v-5.756h-19.49v29.634h20.61z"/><path style="fill:#fff;stroke:none;stroke-width:.448433;stroke-linecap:round;stroke-linejoin:round;stroke-miterlimit:10;stroke-dasharray:none;stroke-opacity:1" d="m430.739 396.462-9.94-17.937h6.95l6.054 10.875 6.017-10.875h6.95l-9.94 17.937v11.697h-6.091z"/><path d="m271.95 354.585-.883 1.345-.975 1.27-1.078 1.234-1.29 1.196-1.384 1.12-1.435.897-1.507.748-1.515.635-1.539.449-1.573.299-1.524.112h-1.68l-1.463-.112-1.377-.3-1.298-.448-1.212-.635-1.069-.748-.954-.896-.81-1.159-.678-1.233-.498-1.345-.33-1.42-.159-1.495-.037-1.532.16-1.57.308-1.57.57-2.13.543-1.606.682-1.57.858-1.532.951-1.457 1.09-1.42 1.22-1.345 1.348-1.27 1.42-1.122 1.435-.897 1.48-.784 1.542-.598 1.539-.449 1.536-.299 1.524-.112h1.68l1.463.112 1.414.3 1.299.448 1.184.598 1.096.784.955.897.82 1.121.63 1.27.555 1.832.3 1.943-6.69 2.392.01-1.01-.103-1.008-.283-.897-.442-.86-.593-.71-.699-.597-.759-.374-.788-.262-.856-.15-.876-.074-.954.075-.973.15-.977.298-.959.374-.914.486-.88.635-.814.673-.733.784-.669.822-.529.86-.784 1.532-.597 1.532-.448 1.532-.383 1.57-.224 1.532-.027 1.495.058.896.228.823.313.784.454.673.55.598.643.523.759.374.826.261.883.187.924.037 1.028-.074 1.058-.187 1.061-.336.99-.486.98-.598.863-.71.808-.785.715-.86.587-.934.484-.971z" style="fill:#fff;stroke:none;stroke-width:.448241;stroke-linecap:round;stroke-linejoin:round;stroke-miterlimit:10;stroke-dasharray:none;stroke-opacity:1"/><path d="M288.866 336.563a2.91 2.91 0 0 1-2.91 2.911 2.91 2.91 0 0 1-2.911-2.91 2.91 2.91 0 0 1 2.91-2.911 2.91 2.91 0 0 1 2.911 2.91z" style="fill:#fff;fill-rule:evenodd;stroke:none;stroke-width:.24141;stroke-linecap:round;stop-color:#000"/><path style="fill:#fff;stroke:none;stroke-width:.137874;stroke-linecap:round;stroke-linejoin:round;stroke-miterlimit:10;stroke-opacity:1" d="m282.013 342.013-4.647 17.352-.06.286-.045.369v.378l.049.385.09.387.133.392.176.396.224.402.268.404.315.414h5.392l-.159-.203-.243-.349-.21-.357-.177-.375-.147-.388-.117-.4-.085-.414-.05-.426-.024-.444.01-.457 4.647-17.352zm0 0"/><path style="fill:#fff;stroke:none;stroke-width:.447871;stroke-linecap:round;stroke-linejoin:round;stroke-miterlimit:10;stroke-dasharray:none;stroke-opacity:1" d="M294.394 333.546h5.773l-6.263 23.373-.035.411.096.337.218.3.285.186.4.037 1.127-.037 1.157-.15-.73 5.086-1.877.337-1.848.224-1.866.15-.762-.075-.685-.224-.664-.3-.513-.448-.409-.561-.266-.673-.145-.71-.023-.749.136-.785zM307.729 333.546h5.773l-6.263 23.373-.035.411.096.337.218.3.285.186.4.037 1.127-.037 1.157-.15-.73 5.086-1.877.337-1.848.224-1.866.15-.762-.075-.685-.224-.664-.3-.513-.448-.409-.561-.266-.673-.145-.71-.023-.749.136-.785z"/><path style="fill:#fff;stroke:none;stroke-width:.447866;stroke-linecap:round;stroke-linejoin:round;stroke-miterlimit:10;stroke-dasharray:none;stroke-opacity:1" d="m344.689 333.546-7.94 29.634h-6.047l7.94-29.634z"/><path style="fill:#fff;stroke:none;stroke-width:.448609;stroke-linecap:round;stroke-linejoin:round;stroke-miterlimit:10;stroke-dasharray:none;stroke-opacity:1" d="m354.163 349.717-.275.748-3.407 12.715h-5.792l5.671-21.167h5.793l-.401 1.496 1.04-.673 1.084-.561 1.082-.411 1.117-.262 1.086-.15 1.074.038 1.173.224.984.374.906.523.764.636.659.748.517.86.375.973.185 1.121.026 1.16-.134 1.196-.256 1.235-3.387 12.64h-5.793l3.377-12.603.163-.748.051-.748-.146-.71-.288-.599-.43-.486-.695-.337-.82-.15-.869.038-.862.15-.912.336-.793.45-.749.56-.628.673z"/><path style="fill:#fff;stroke:none;stroke-width:.137874;stroke-linecap:round;stroke-linejoin:round;stroke-miterlimit:10;stroke-opacity:1" d="m376.92 342.013-4.647 17.352-.06.286-.044.37v.378l.048.384.09.387.133.392.177.396.224.402.267.404.315.414h5.393l-.16-.203-.242-.349-.21-.357-.177-.375-.147-.388-.117-.4-.085-.414-.05-.425-.024-.445.01-.457 4.646-17.352zM383.831 335.56l-7.52 2.804.312 1.005 7.715-1.747zm0 0"/><path style="fill:#fff;stroke:none;stroke-width:.448381;stroke-linecap:round;stroke-linejoin:round;stroke-miterlimit:10;stroke-dasharray:none;stroke-opacity:1" d="m395.807 346.351.795.374.624.598.482.71.34.824.117.673-.004.71-.17 1.197-.274 1.16-.348 1.159-.47 1.196-.377.71-.48.674-.78.823-.862.71-.944.599-.987.336-.898.15-.782-.15-.805-.336-.661-.599-.482-.71-.302-.823-.119-.673.004-.71.172-1.197.236-1.16.385-1.159.47-1.197.377-.71.48-.673.742-.823.863-.71.981-.599.996-.374.852-.112zm8.285 1.683-.015-.224-.202-1.197-.361-1.16-.551-1.01-.683-.934-.835-.785-.858-.561-.972-.412-1.03-.336-1.107-.187-1.137-.075-1.178.075-1.17.187-1.21.336-1.193.412-1.158.56-1.256.786-1.184.935-1.092 1.01-.982 1.159-.844 1.197-.135.224-.774 1.496-.635 1.533-.485 1.533-.336 1.534-.187 1.533-.018 1.458.005.262.202 1.197.372 1.122.54 1.047.683.935.835.785.868.524.963.448 1.03.337 1.07.187 1.137.075 1.177-.075 1.207-.187 1.21-.337 1.204-.448 1.148-.524 1.256-.785 1.183-.935 1.102-1.047.973-1.122.843-1.197.145-.262.764-1.458.635-1.533.448-1.534.374-1.533.187-1.533z"/><path style="fill:#fff;stroke:none;stroke-width:.448609;stroke-linecap:round;stroke-linejoin:round;stroke-miterlimit:10;stroke-dasharray:none;stroke-opacity:1" d="m415.335 349.717-.275.748-3.407 12.715h-5.793l5.672-21.167h5.792l-.4 1.496 1.04-.673 1.084-.561 1.082-.411 1.116-.262 1.087-.15 1.074.038 1.173.224.983.374.906.523.764.636.66.748.517.86.374.973.185 1.121.026 1.16-.134 1.196-.256 1.235-3.386 12.64h-5.793l3.377-12.603.163-.748.05-.748-.145-.71-.288-.599-.43-.486-.695-.337-.82-.15-.87.038-.861.15-.913.336-.793.45-.748.56-.629.673z"/><path style="fill:#fff;stroke:none;stroke-width:.447934;stroke-linecap:round;stroke-linejoin:round;stroke-miterlimit:10;stroke-dasharray:none;stroke-opacity:1" d="M456.486 333.546h6.048l-6.39 23.849h13.141l-1.55 5.785h-19.19Z"/><path style="fill:#fff;stroke:none;stroke-width:.447863;stroke-linecap:round;stroke-linejoin:round;stroke-miterlimit:10;stroke-dasharray:none;stroke-opacity:1" d="M479.892 350.189h8.582l.088-.747-.071-.71-.203-.634-.335-.56-.467-.485-.535-.374-.639-.26-.706-.15h-.746l-.786.15-.78.26-.734.374-.727.485-.635.56-.543.635-.451.709zm-1.276 5.04-.013.746.155.672.288.597.42.523.524.41.843.336.92.187.96.037.99-.074 1.04-.262 1.128-.448 1.093-.597 1.02-.747 2.612 3.622-.966.82-1.02.747-1.066.635-1.1.485-1.145.374-1.424.298-1.42.15-1.39.037-1.351-.112-1.274-.261-.964-.299-.898-.41-.783-.56-.688-.635-.62-.747-.452-.821-.394-.896-.225-.97-.163-1.345-.04-1.38.119-1.42.278-1.455.465-1.456.604-1.419.753-1.418.883-1.344.924-1.083 1.054-1.008 1.172-.896 1.208-.746 1.083-.56 1.137-.486 1.135-.336 1.132-.186 1.102-.075 1.072.037 1.032.187 1.002.299.898.41.783.56.78.71.675.82.486.971.365 1.008.185 1.12.072 1.68-.087 1.717-.284 1.755-.395 1.755h-14.104z"/><path style="fill:#fff;fill-opacity:1;stroke:none;stroke-width:2.241" d="m490.99 337.464-7.739 1.75-.315-1.015 7.529-2.8z"/><path d="M509.08 336.564a2.91 2.91 0 0 1-2.91 2.91 2.91 2.91 0 0 1-2.911-2.91 2.91 2.91 0 0 1 2.91-2.911 2.91 2.91 0 0 1 2.911 2.91z" style="fill:#fff;fill-rule:evenodd;stroke:none;stroke-width:.24141;stroke-linecap:round;stop-color:#000"/><path style="fill:#fff;stroke:none;stroke-width:.137874;stroke-linecap:round;stroke-linejoin:round;stroke-miterlimit:10;stroke-opacity:1" d="m502.227 342.013-4.647 17.352-.06.286-.045.37v.378l.049.384.09.387.133.392.176.396.224.402.268.404.315.414h5.392l-.159-.203-.243-.349-.21-.357-.177-.375-.147-.388-.117-.4-.085-.414-.05-.425-.024-.445.01-.457 4.647-17.352zm0 0"/><path style="fill:#fff;stroke:none;stroke-width:.448609;stroke-linecap:round;stroke-linejoin:round;stroke-miterlimit:10;stroke-dasharray:none;stroke-opacity:1" d="m516.3 349.717-.275.748-3.407 12.715h-5.793l5.672-21.167h5.792l-.4 1.496 1.04-.673 1.084-.561 1.082-.411 1.116-.262 1.087-.15 1.074.038 1.173.224.983.374.906.523.764.636.66.748.516.86.375.973.185 1.121.026 1.16-.134 1.196-.256 1.235-3.386 12.64h-5.793l3.377-12.603.163-.748.05-.748-.145-.71-.288-.599-.43-.486-.695-.337-.82-.15-.87.038-.861.15-.913.336-.793.45-.748.56-.629.673z"/><path style="fill:#fff;stroke:none;stroke-width:.137874;stroke-linecap:round;stroke-linejoin:round;stroke-miterlimit:10;stroke-opacity:1" d="m539.057 342.013-4.647 17.352-.06.286-.045.37v.378l.049.384.09.387.133.392.177.396.223.402.268.404.315.414h5.392l-.159-.203-.243-.349-.21-.357-.176-.375-.148-.388-.116-.4-.085-.414-.051-.425-.024-.445.01-.457 4.647-17.352zM545.968 335.56l-7.521 2.804.312 1.005 7.716-1.747zm0 0"/><path style="fill:#fff;stroke:none;stroke-width:.448609;stroke-linecap:round;stroke-linejoin:round;stroke-miterlimit:10;stroke-dasharray:none;stroke-opacity:1" d="m553.13 349.717-.275.748-3.407 12.715h-5.793l5.672-21.167h5.792l-.4 1.496 1.04-.673 1.084-.561 1.082-.411 1.116-.262 1.087-.15 1.074.038 1.173.224.983.374.906.523.764.636.66.748.516.86.375.973.185 1.121.026 1.16-.134 1.196-.256 1.235-3.387 12.64h-5.792l3.377-12.603.163-.748.05-.748-.145-.71-.288-.599-.43-.486-.695-.337-.82-.15-.87.038-.862.15-.912.336-.793.45-.748.56-.629.673z"/><path style="fill:#fff;stroke:none;stroke-width:.336247;stroke-linecap:round;stroke-linejoin:round;stroke-miterlimit:10;stroke-dasharray:none;stroke-opacity:1" d="m579.006-31.573-3.95-6.194-1.71 1.766v4.428h-4.342v-22.225h4.343v11.911l5.518-5.549h5.8l-6.472 6.53 5.94 9.333z"/><path style="fill:#fff;stroke:none;stroke-width:.336258;stroke-linecap:round;stroke-linejoin:round;stroke-miterlimit:10;stroke-dasharray:none;stroke-opacity:1" d="M591.496-47.448h-4.34v15.875h4.34v-9.536l.056-.56.224-.534.336-.505.448-.42.504-.337.895-.308.336-.028.308.028.14.028.588.252.42.365.336.448.224.533.14.561.028.561v9.452h4.34v-9.536l.055-.56.196-.534.364-.505.448-.42.504-.337.896-.308.308-.028.336.028.112.028.588.252.42.365.364.448.224.533.112.561.028.561v9.452h4.339v-9.48l-.028-.925-.168-.898-.252-.87-.364-.84-.476-.73-.56-.645-.644-.561-.7-.477-.755-.393-.812-.28-.924-.168-.7-.028-.7.084-.7.14-.644.224-.644.309-.587.42-.532.477-.476.561-.392-.617-.476-.505-.56-.42-.644-.309-.504-.168-.924-.168-.812-.028-.784.112-.783.196-.728.309-.7.42-.644.505z"/><path style="fill:#fff;stroke:none;stroke-width:.639768;stroke-linecap:round;stroke-linejoin:round;stroke-miterlimit:10;stroke-dasharray:none;stroke-opacity:1" d="M531.046-57.751v-2.133l.106-1.813.32-1.812.48-1.706.746-1.653.906-1.6 1.067-1.44 1.226-1.279 1.386-1.173 1.386-.8 1.493-.64 1.546-.373 2.612-.373 2.612-.16 2.666.107 2.612.32 1.653.373 1.599.586.96.48 1.652 1.227 1.386 1.44 1.227 1.599 1.012 1.759.64 1.866.427 1.92.213 1.919v1.973l-.213 1.972-.427 1.92-.64 1.866-.853 1.76-1.386 2.132-1.546 1.973-1.759 1.866-2.879 2.239-2.985 2.08-3.146 1.919h14.928v7.837h-29.801v-7.837l5.224-3.253 3.679-2.345 3.571-2.506 3.466-2.666 2.026-1.76 1.865-1.919 1.12-1.813.586-1.28.374-1.279.16-1.386-.054-1.333-.213-1.386-.427-1.013-.586-.907-.746-.8-.907-.693-.96-.533-1.225-.32-1.28-.213h-1.28l-1.225.16-1.227.32-1.066.48-.906.693-.746.853-.64 1.013-.533 1.28-.374 1.386-.213 1.44v1.439z"/><rect style="fill:#fff;fill-opacity:1;fill-rule:evenodd;stroke:none;stroke-width:2.74455;stroke-linecap:round;stroke-miterlimit:4;stroke-dasharray:none;stop-color:#000" width="70.908" height="63.5" x="136.911" y="-81.32" rx="7.937"/><rect style="fill:#000;fill-opacity:1;fill-rule:evenodd;stroke:none;stroke-width:2.74456;stroke-linecap:round;stroke-miterlimit:4;stroke-dasharray:none;stop-color:#000" width="65.617" height="58.208" x="139.556" y="-78.675" rx="5.821"/><path style="fill:#fff;stroke:none;stroke-width:.640069;stroke-linecap:round;stroke-linejoin:round;stroke-miterlimit:10;stroke-dasharray:none;stroke-opacity:1" d="M150.006-57.035h-7.044v-7.25l3.469-.32 1.067-.267.96-.48.854-.693.587-.907.427-.96.694-2.825h7.684v42.333h-8.698z"/><path style="fill:#fff;stroke:none;stroke-width:.640472;stroke-linecap:round;stroke-linejoin:round;stroke-miterlimit:10;stroke-dasharray:none;stroke-opacity:1" d="m178.395-43.885.266-1.121.374-1.068.533-1.014.908-1.014 1.12-.801 1.227-.64 1.335-.374 1.387-.107 1.067.107 1.014.266.96.428.908.587.747.694.64.854.534 1.014.373 1.068.267 1.12.053 1.122-.053 1.121-.267 1.121-.373 1.014-.534 1.015-.64.854-.747.747-.907.587-.96.428-1.015.266-1.067.054-1.387-.107-1.335-.374-1.227-.587-1.12-.854-.908-1.014-.533-1.015-.374-1.014-.266-1.12-.054-1.122zm-5.123 10.517 1.174 1.334 1.334 1.228 1.494 1.068 1.6.8 1.922.588 1.92.373 1.975.214 1.975.053 1.974-.16 1.974-.32 1.921-.48 1.388-.695 1.334-.8 1.174-1.015 1.12-1.12.907-1.229.747-1.388.587-1.44.587-2.296.32-2.35.054-2.348v-1.655l-.214-1.655-.373-1.655-.534-1.548-.64-1.548-.96-1.281-1.068-1.175-1.227-1.068-1.334-.854-1.441-.694-1.494-.587-1.548-.32-1.6-.16-1.868-.054-1.921.214-1.815.427-1.76.64-1.708.855-1.6 1.067.052-1.334.267-1.335.374-1.281.587-1.228.747-1.121.854-1.014 1.013-.908 1.121-.587 1.174-.32 1.227-.214 1.228.054 1.227.16 1.174.427.96.427.8.587.641.8.48.908.32.961 8.005-2.99-.427-1.334-.534-1.228-.747-1.228-.854-1.067-.96-.961-1.12-.854-1.175-.694-1.28-.534-1.921-.64-2.348-.374-2.295-.16-2.348.106-2.294.267-1.388.32-1.28.48-1.548.802-1.494.907-1.28 1.121-1.175 1.281-1.067 1.388-.8 1.549-.694 1.548-.533 1.548-.64 2.616-.428 2.669-.267 2.67-.053 2.668.16 2.67.267 2.669.534 2.615.693 2.563.267.854.534 1.602.747 1.494.907 1.388z"/></g></svg>