<svg width="2792.693" height="4086" viewBox="0 0 738.9 1081.087" xmlns="http://www.w3.org/2000/svg"><g transform="translate(275.96 398.198)"><rect style="fill:#000;stroke:none;stroke-width:.257113" width="738.371" height="1080.558" x="-275.696" y="-397.933" rx="16.536"/><rect style="fill:#fff;stroke:none;stroke-width:.257113" width="737.312" height="1079.5" x="-275.167" y="-397.404" rx="15.875"/><rect style="fill:#008445;fill-opacity:1;stroke:none;stroke-width:.251555" width="713.98" height="1055.687" x="-263.5" y="-385.498" rx="31.75"/><path style="fill:#fff;stroke-width:.264583" d="M-28.072 769.937a7.92 7.92 0 0 0-7.938 7.938v234.156a7.92 7.92 0 0 0 7.938 7.938h570.865a7.92 7.92 0 0 0 7.937-7.938V865.187a7.92 7.92 0 0 0-7.937-7.937H368.168a7.937 7.937 0 0 1-7.938-7.938v-71.437a7.92 7.92 0 0 0-7.937-7.938H-28.072z" transform="translate(-203.438 -417.248)"/><path style="fill:#000;stroke:none;stroke-width:.671904;stroke-linecap:round;stroke-linejoin:round;stroke-miterlimit:10;stroke-dasharray:none;stroke-opacity:1" d="M-82.65 526.52v8.678h12.6v35.773h9.128v-35.773h12.6v-8.677z"/><path style="fill:#000;stroke:none;stroke-width:.672391;stroke-linecap:round;stroke-linejoin:round;stroke-miterlimit:10;stroke-dasharray:none;stroke-opacity:1" d="M59.041 570.97H47.615l-10.363-44.45h9.354l7.114 30.55 6.385-30.55h10.587l6.385 30.55 7.114-30.55h9.354l-10.363 44.45H71.756l-6.33-30.492z"/><path style="fill:#000;stroke:none;stroke-width:.671904;stroke-linecap:round;stroke-linejoin:round;stroke-miterlimit:10;stroke-dasharray:none;stroke-opacity:1" d="M-39.53 526.52h9.073v35.773h19.713v8.678H-39.53z"/><path style="fill:#000;stroke:none;stroke-width:.672349;stroke-linecap:round;stroke-linejoin:round;stroke-miterlimit:10;stroke-dasharray:none;stroke-opacity:1" d="M272.84 562.283h-21.785v-9.754h18.201v-8.24h-18.201v-9.136h20.106v-8.632h-29.235v44.45h30.915zM28.683 562.282H6.897v-9.753H25.1v-8.24H6.897v-9.136h20.106v-8.632H-2.232v44.45h30.915z"/><path style="fill:#000;stroke:none;stroke-width:.672494;stroke-linecap:round;stroke-linejoin:round;stroke-miterlimit:10;stroke-dasharray:none;stroke-opacity:1" d="M211.393 562.058h-7.732v-26.68h7.732l1.569.111 1.512.393 1.457.56 1.401.785 1.233.953 1.064 1.177.897 1.29.672 1.4.504 1.514.392 2.13.169 2.13v2.186l-.225 2.186-.448 2.13-.504 1.401-.728 1.402-.897 1.233-1.064 1.065-1.233.953-1.345.728-1.4.505-1.513.336zm-.112 8.913 2.073-.112 2.129-.337 2.017-.56 1.961-.785 1.905-.953 1.737-1.177 1.625-1.345 1.513-1.514 1.288-1.681 1.12-1.794.953-1.906.729-1.962.504-2.074.336-2.41.168-2.41v-2.41l-.168-2.467-.336-2.41-.504-2.018-.729-2.018-.952-1.906-1.12-1.793-1.29-1.626-1.512-1.513-1.625-1.402-1.737-1.12-1.905-1.01-1.96-.784-2.018-.505-2.13-.336-2.072-.112h-16.753v44.45z"/><path d="m-178.85 558.079-.785 2.017-.952 1.906-1.12 1.85-1.456 1.794-1.625 1.681-1.792 1.346-1.96 1.12-2.016.953-2.129.673-2.24.449-2.24.168h-2.52l-2.24-.168-2.185-.449-2.128-.673-2.073-.952-1.904-1.121-1.792-1.346-1.68-1.737-1.513-1.85-1.288-2.018-1.064-2.13-.84-2.242-.672-2.298-.392-2.355-.168-2.354v-3.195l.168-2.41.392-2.354.672-2.298.84-2.187 1.064-2.13 1.288-2.017 1.513-1.906 1.68-1.682 1.792-1.345 1.904-1.177 2.073-.897 2.128-.673 2.184-.448 2.24-.168h2.52l2.241.168 2.24.448 2.129.673 2.016.897 1.96 1.177 1.792 1.345 1.68 1.682 1.457 1.906 1.568 2.746 1.232 2.915-9.073 3.587-.392-1.513-.56-1.514-.784-1.345-1.008-1.289-1.177-1.065-1.288-.897-1.288-.56-1.288-.393-1.344-.224-1.344-.112-1.4.112-1.4.224-1.345.449-1.288.56-1.176.729-1.064.953-.953 1.009-.784 1.177-.672 1.233-.448 1.29-.56 2.297-.28 2.299-.056 2.298.056 2.354.28 2.298.56 2.242.448 1.345.672 1.234.784 1.177.953 1.009 1.064.897 1.176.784 1.288.56 1.344.393 1.4.28 1.4.056 1.513-.112 1.512-.28 1.456-.504 1.288-.73 1.232-.896 1.009-1.065.896-1.177.728-1.29.504-1.4.336-1.458z" style="fill:#000;stroke:none;stroke-width:.672364;stroke-linecap:round;stroke-linejoin:round;stroke-miterlimit:10;stroke-dasharray:none;stroke-opacity:1"/><path d="M-158.912 526.52h11.817l14.841 44.45h-9.969l-2.408-7.847h-16.746l-2.408 7.848h-9.97zm5.88 9.306-5.936 19.45h11.929zM111.915 526.52h11.817l14.842 44.45h-9.97l-2.407-7.847H109.45l-2.409 7.848h-9.969zm5.88 9.306-5.936 19.45h11.93z" style="fill:#000;stroke:none;stroke-width:.672354;stroke-linecap:round;stroke-linejoin:round;stroke-miterlimit:10;stroke-dasharray:none;stroke-opacity:1"/><path style="fill:#000;stroke:none;stroke-width:.671938;stroke-linecap:round;stroke-linejoin:round;stroke-miterlimit:10;stroke-dasharray:none;stroke-opacity:1" d="M156.552 534.75h10.586l1.064.112.952.336.952.448.784.672.672.783.448.952.336.952.112 1.063-.112 1.008-.336 1.008-.448.896-.672.84-.784.615-.952.504-.952.336-1.064.056h-10.586zm-9.073-8.23v44.45h9.073v-17.354h5.937l10.137 17.355h10.586l-10.642-18.139 1.624-.727 1.569-.952 1.4-1.12 1.232-1.343 1.064-1.456.84-1.567.672-1.68.392-1.735.168-1.792-.056-1.847-.336-1.736-.504-1.735-.784-1.623-1.008-1.512-1.12-1.4-1.344-1.175-1.512-1.008-1.625-.84-1.68-.56-1.792-.391-1.792-.112z"/><path style="fill:#000;stroke:none;stroke-width:.672206;stroke-linecap:round;stroke-linejoin:round;stroke-miterlimit:10;stroke-dasharray:none;stroke-opacity:1" d="m-88.31 532.567-1.85-1.624-1.962-1.4-2.13-1.23-2.186-1.064-2.298-.784-2.41-.616-2.41-.336-2.467-.112-2.41.112-2.41.336-2.41.616-1.738.672-1.625.84-1.514 1.063-1.401 1.232-1.233 1.343-.953 1.344-.729 1.455-.56 1.512-.393 1.567-.112 1.624.056 1.623.28 1.624.505 1.511.673 1.512.84 1.343 1.065 1.288 1.177 1.064 1.682 1.12 1.85.783 1.962.504 10.481 2.351 1.01.392.84.56.729.784.504.895.28.952.056 1.064-.168 1.007-.448.952-.617.84-.953.784-1.065.615-1.177.448-1.233.224h-3.027l-1.737-.224-1.682-.336-1.625-.56-1.626-.727-1.906-1.232-1.793-1.343-1.626-1.568-7.735 5.934 1.626 1.68 1.737 1.567 1.85 1.4 1.962 1.231 2.13 1.008 2.41.784 2.522.56 2.523.391 2.522.168 2.578-.056 2.523-.224 2.522-.447 2.466-.672 1.682-.672 1.57-.896 1.457-1.12 1.289-1.287 1.12-1.455.898-1.568.672-1.68.449-1.79.168-1.792-.056-1.792-.28-1.847-.505-1.736-.785-1.623-1.009-1.344-1.177-1.175-1.233-1.064-1.401-.952-1.457-.783-1.402-.56-1.457-.448-10.426-2.575-.728-.28-.673-.448-.56-.616-.449-.672-.224-.727-.112-.784.056-.784.28-.784.392-.671.897-.896 1.01-.672 1.176-.504 1.233-.28 1.234-.112 1.85.112 1.793.28 1.794.504 1.681.616 1.626.84 1.57 1.007 1.4 1.176 6.895-6.27"/><path style="fill:#000;stroke:none;stroke-width:.672071;stroke-linecap:round;stroke-linejoin:round;stroke-miterlimit:10;stroke-dasharray:none;stroke-opacity:1" d="M295.53 526.52h-10.365v44.45h9.077v-30.062l19.89 30.063h10.422v-44.45h-9.133v30.062z"/><path style="fill:#fff;fill-opacity:1;stroke:none;stroke-width:.403972" d="m594.387 519.906-19.844 19.844v246.062a7.937 7.937 0 0 1-7.938 7.938H403.887l-19.844 19.844 19.844 19.843h162.718a7.937 7.937 0 0 1 7.938 7.938v234.156h39.687V539.75l-19.843-19.844z" transform="translate(-203.438 -417.248)"/><path style="fill:#ffc90e;fill-opacity:1;stroke:none;stroke-width:.895029;stroke-linecap:round;stroke-linejoin:round;stroke-miterlimit:10;stroke-dasharray:none;stroke-opacity:1" d="M245.135 102.658h-12.868v63.5h11.268v-42.946l24.694 42.946h12.938v-63.5H269.83v42.947z"/><path style="fill:#ffc90e;fill-opacity:1;stroke:none;stroke-width:.959571;stroke-linecap:round;stroke-linejoin:round;stroke-miterlimit:10;stroke-dasharray:none;stroke-opacity:1" d="M300.399 114.414v-11.756h44.694v11.756l-21.428 51.744h-14.071l21.427-51.744z"/><rect style="fill:#fff;fill-opacity:1;stroke:none;stroke-width:.264583" width="322.58" height="87.313" x="-122.925" y="98.69" rx="11.906"/><rect style="fill:#115ec6;fill-opacity:1;stroke:none;stroke-width:.264583" width="314.642" height="79.375" x="-118.957" y="102.658" rx="7.937"/><path style="fill:#fff;fill-opacity:1;stroke:none;stroke-width:.672259;stroke-linecap:round;stroke-linejoin:round;stroke-miterlimit:10;stroke-dasharray:none;stroke-opacity:1" d="M-77.732 174.096v-63.5H-62.5l8.288 31.778 8.232-31.778h15.23v63.5h-10.136v-50.834l-9.35 36.262h-7.952l-9.351-36.262v50.834zM55.936 174.096v-63.5h15.23l8.289 31.778 8.231-31.778h15.231v63.5H92.781v-50.834l-9.35 36.262h-7.952l-9.352-36.262v50.834z"/><path d="m8.968 130.587-.112 1.12-.336 1.063-.505 1.008-.728.896-.896.672-.953.56-1.064.336-1.121.056-1.12-.056-1.065-.336-1.009-.56-.84-.672-.729-.896-.56-1.008-.28-1.064-.112-1.12v-6.327l.112-1.12.28-1.064.56-1.008.729-.84.84-.728 1.009-.504 1.064-.336 1.12-.112 1.122.112 1.064.336.953.504.896.728.728.84.505 1.008.336 1.064.112 1.12zm-14.288 9.575-1.288.056-1.233.336-1.177.56-1.008.728-.897.896-.728 1.064-.56 1.12-.336 1.232-.112 1.287v14.952l.112 1.68.336 1.68.56 1.623.785 1.512.952 1.4 1.177 1.232 1.288 1.12 1.457.896 1.513.728 2.129.672 2.241.504 2.241.224h2.242l2.24-.224 2.186-.504 2.129-.672 1.569-.728 1.456-.896 1.29-1.12 1.12-1.232.952-1.4.785-1.512.56-1.624.336-1.68.112-1.68v-14.95l-.112-1.288-.336-1.232-.504-1.12-.729-1.064-.896-.896-1.065-.728-1.176-.56-1.233-.336-1.233-.056 1.233-.112 1.233-.336 1.176-.56 1.065-.728.896-.896.729-1.064.504-1.12.336-1.232.112-1.288V122.3l-.112-1.68-.336-1.68-.56-1.568-.785-1.568-.952-1.4-1.12-1.231-1.29-1.12-1.456-.896-1.57-.728-2.128-.672-2.185-.448-2.241-.224H2.132l-2.24.224-2.242.448-2.13.672-1.512.728-1.457.896-1.288 1.12-1.177 1.232-.952 1.4-.785 1.567-.56 1.568-.336 1.68-.112 1.68v10.527l.112 1.288.336 1.232.56 1.12.728 1.064.897.896 1.008.728 1.177.56 1.233.336zm14.288 20.27-.112 1.12-.336 1.064-.505 1.008-.728.84-.896.728-.953.56-1.064.28-1.121.112-1.12-.112-1.065-.28-1.009-.56-.84-.728-.729-.84-.56-1.008-.28-1.063-.112-1.12v-9.8l.112-1.12.28-1.064.56-1.008.729-.895.84-.672 1.009-.56 1.064-.28 1.12-.112 1.122.112 1.064.28.953.56.896.672.728.895.505 1.008.336 1.064.112 1.12z" style="fill:#fff;fill-opacity:1;stroke:none;stroke-width:.672153;stroke-linecap:round;stroke-linejoin:round;stroke-miterlimit:10;stroke-dasharray:none;stroke-opacity:1"/><path d="m142.635 140.132-.112 1.12-.336 1.066-.504.953-.729.896-.84.729-1.008.504-1.065.337-1.12.112-1.121-.112-1.065-.337-1.008-.504-.84-.729-.73-.896-.503-.953-.337-1.065-.112-1.121v-15.917l.112-1.121.337-1.065.504-.953.728-.896.84-.729 1.01-.504 1.064-.337 1.12-.112 1.121.112 1.065.337 1.008.504.84.729.729.896.504.953.336 1.065.112 1.12zm-21.57.056.111 1.681.336 1.738.56 1.625.785 1.513 1.009 1.345 1.12 1.233 1.289 1.065 1.4.953 1.513.729 1.57.56 1.624.336 1.68.169h1.626l1.68-.225 1.625-.448 1.513-.617 1.513-.784-11.766 23.035h11.43l8.348-16.366 1.009-2.185.728-2.242.56-2.354.337-2.354.112-2.41v-23.932l-.112-1.681-.337-1.681-.56-1.57-.728-1.513-1.009-1.401-1.12-1.29-1.289-1.064-1.457-.953-1.513-.672-2.185-.729-2.185-.448-2.241-.225H135.8l-2.241.225-2.186.448-2.185.729-1.512.672-1.457.953-1.289 1.065-1.12 1.289-1.009 1.401-.728 1.513-.56 1.57-.337 1.68-.112 1.682z" style="fill:#fff;fill-opacity:1;stroke:none;stroke-width:.672452;stroke-linecap:round;stroke-linejoin:round;stroke-miterlimit:10;stroke-dasharray:none;stroke-opacity:1"/><path d="m-92.303 170.312-1.294-3.888-1.14-3.94-.88-3.94-.726-4.043-.518-4.043-.31-4.043-.103-4.095.104-4.043.31-4.095.517-4.044.725-3.991.88-3.992 1.14-3.887 1.295-3.888 1.502-3.784-4.403-6.48-2.018 2.955-1.865 3.006-1.657 3.162-1.501 3.214-1.347 3.266-1.139 3.37-.985 3.42-.776 3.474-.57 3.525-.414 3.525-.155 3.524v3.577l.155 3.525.414 3.525.57 3.525.776 3.473.985 3.421 1.14 3.37 1.346 3.265 1.5 3.214 1.658 3.11 1.865 3.059 2.018 2.902 4.403-6.427zM169.032 170.312l1.295-3.888 1.14-3.94.88-3.94.725-4.043.518-4.043.31-4.043.103-4.095-.103-4.043-.31-4.096-.518-4.043-.725-3.991-.88-3.992-1.14-3.887-1.295-3.888-1.502-3.784 4.403-6.48 2.019 2.955 1.865 3.006 1.657 3.162 1.5 3.214 1.347 3.266 1.14 3.37.984 3.42.777 3.474.57 3.525.413 3.525.155 3.524v3.577l-.155 3.525-.414 3.525-.57 3.525-.776 3.473-.985 3.421-1.139 3.37-1.346 3.265-1.501 3.214-1.657 3.11-1.865 3.059-2.02 2.902-4.402-6.427z" style="fill:#fff;fill-opacity:1;stroke:none;stroke-width:.621723;stroke-linecap:round;stroke-linejoin:round;stroke-miterlimit:10;stroke-dasharray:none;stroke-opacity:1"/><path style="fill:#fff;stroke:none;stroke-width:.672728;stroke-linecap:round;stroke-linejoin:round;stroke-miterlimit:10;stroke-dasharray:none;stroke-opacity:1" d="M44.225 135.592v6.726H30.43v-6.726z"/><path d="m-182.825 490.61-1.325 2.018-1.463 1.906-1.616 1.85-1.936 1.793-2.075 1.682-2.153 1.345-2.26 1.12-2.272.954-2.309.672-2.36.449-2.286.168h-2.52l-2.195-.168-2.064-.449-1.948-.672-1.817-.953-1.604-1.121-1.432-1.345-1.214-1.738-1.017-1.85-.748-2.018-.493-2.13-.24-2.242-.056-2.298.24-2.354.462-2.354.856-3.195.814-2.41 1.023-2.355 1.288-2.298 1.426-2.186 1.634-2.13 1.83-2.018 2.022-1.906 2.131-1.682 2.153-1.345 2.22-1.177 2.312-.897 2.308-.672 2.305-.449 2.285-.168h2.52l2.196.168 2.12.449 1.948.672 1.776.897 1.645 1.177 1.432 1.345 1.23 1.682.945 1.906.832 2.746.451 2.915-10.034 3.588.013-1.514-.154-1.513-.424-1.346-.663-1.289-.89-1.065-1.048-.897-1.138-.56-1.183-.393-1.284-.224-1.315-.112-1.43.112-1.46.224-1.464.449-1.439.56-1.371.73-1.32.952-1.222 1.009-1.1 1.177-1.002 1.233-.794 1.29-1.175 2.298-.896 2.298-.672 2.298-.575 2.354-.336 2.298-.04 2.243.087 1.345.342 1.233.469 1.177.681 1.009.824.897.966.785 1.138.56 1.24.392 1.324.28 1.385.057 1.543-.112 1.587-.28 1.591-.505 1.484-.729 1.472-.897 1.294-1.065 1.211-1.177 1.074-1.289.88-1.401.726-1.458z" style="fill:#000;stroke:none;stroke-width:.672364;stroke-linecap:round;stroke-linejoin:round;stroke-miterlimit:10;stroke-dasharray:none;stroke-opacity:1"/><path style="fill:#000;stroke:none;stroke-width:2.63339;stroke-linecap:round;stroke-linejoin:round;stroke-miterlimit:10;stroke-opacity:1" d="m-159.049 471.184-1.638.146-1.605.34-1.587.548-1.548.767-1.515.979-1.48 1.197-.406.373-1.248 1.283-1.158 1.354-1.033 1.442-.91 1.531-.786 1.604-.672 1.71-.057.142-.497 1.656-.41 1.621-.284 1.62-.18 1.622-.07 1.587.017.946.16 1.585.321 1.48.48 1.35.622 1.231.784 1.103.588.677 1.051.91 1.215.728 1.333.537 1.48.34 1.605.14.784.017 1.621-.086 1.656-.231 1.71-.338 1.746-.464.73.249 1.23.462.193.16h5.632l-.09-1.07-.035-1.71.159-1.192.75-2.813.748-2.763.712-2.603.66-2.44.605-2.278.57-2.123.536-1.96.48-1.814.446-1.64.39-1.478.358-1.337.302-1.16.267-1.011.232-.842.18-.693.124-.533.085-.372h-6.502l-.372 1.44-.282-.249-.928-.52-1.231-.44-1.514-.321-1.835-.25-2.12-.124zm.283 7.626.784.056 1.424.39 1.355.747.463.394.858 1.141.302 1.333v.074l-.09 1.835-.232 1.69-.357 1.532-.514 1.372-.446.926-1 1.785-.995 1.406-1 1.05-.604.43-1.407.656-1.655.395-1.925.103-1.086-.142-1.18-.497-.854-.892-.514-1.264-.163-1.658v-.536l.125-1.672.304-1.514.108-.322.569-1.62.764-1.584.965-1.553.142-.214 1.175-1.334 1.48-1.23 1.638-.961z"/><path d="M-122.208 463.578a4.366 4.366 0 0 1-4.366 4.366 4.366 4.366 0 0 1-4.366-4.366 4.366 4.366 0 0 1 4.366-4.366 4.366 4.366 0 0 1 4.366 4.366z" style="fill:#000;fill-rule:evenodd;stroke:none;stroke-width:.362116;stroke-linecap:round;stop-color:#000"/><path style="fill:#000;stroke:none;stroke-width:.206812;stroke-linecap:round;stroke-linejoin:round;stroke-miterlimit:10;stroke-opacity:1" d="m-132.489 471.752-6.97 26.028-.09.43-.067.552v.568l.073.577.134.58.2.589.265.594.336.603.402.605.472.621h8.089l-.24-.304-.363-.523-.316-.536-.265-.562-.22-.583-.176-.6-.127-.62-.076-.639-.036-.667.015-.684 6.97-26.03zm0 0"/><path d="M198.15 463.578a4.366 4.366 0 0 1-4.367 4.366 4.366 4.366 0 0 1-4.366-4.366 4.366 4.366 0 0 1 4.366-4.366 4.366 4.366 0 0 1 4.366 4.366z" style="fill:#000;fill-rule:evenodd;stroke:none;stroke-width:.362116;stroke-linecap:round;stop-color:#000"/><path style="fill:#000;stroke:none;stroke-width:.206812;stroke-linecap:round;stroke-linejoin:round;stroke-miterlimit:10;stroke-opacity:1" d="m187.869 471.752-6.97 26.028-.09.43-.068.552v.568l.073.577.134.58.2.589.266.594.335.603.402.605.472.621h8.089l-.239-.304-.364-.523-.315-.536-.265-.562-.221-.583-.175-.6-.128-.62-.076-.639-.035-.667.015-.684 6.97-26.03zm0 0"/><path style="fill:#000;stroke:none;stroke-width:.671957;stroke-linecap:round;stroke-linejoin:round;stroke-miterlimit:10;stroke-dasharray:none;stroke-opacity:1" d="m-113.484 490.903-2.564-.672-1.224-.448-1.052-.672-.894-.84-.753-.952-.555-1.064-.413-1.176-.073-1.4.11-1.456.39-1.456.558-1.455.782-1.456.961-1.288 1.17-1.232 1.238-1.064 1.319-.952 1.441-.784 1.453-.616 1.505-.392 2.136-.448 2.076-.224h2.072l2.027.168 1.967.392 1.545.504 1.443.672 1.328.896 1.257.952 1.029 1.176-6.906 5.711-1.182-1.231-1.41-1.008-1.582-.784-.933-.28-1.018-.168h-1.064l-1.195.28-1.143.504-1.076.672-.598.56-.39.615-.138.728.059.616.241.56.567.392 3.501.728 3.24.448 1.228.224 1.224.448 1.082.56 1.036.728.865.952.667 1.064.469 1.176.215 1.288.017 1.4-.151 1.4-.447 1.456-.599 1.4-.823 1.4-1.103 1.4-1.24 1.287-1.38 1.176-1.502 1.008-1.554.784-2.364.672-2.36.448-2.355.224h-2.24l-2.236-.224-2.12-.448-1.85-.616-1.736-.84-1.506-1.064-1.35-1.232-1.178-1.456 7.888-5.823.846 1.232 1.059 1.064 1.23.84 1.388.671 1.504.448 1.62.224h1.512l1.169-.392 1.061-.616.639-.503.516-.672.251-.728.027-.728-.227-.616-.44-.448-1.959-.84-2.12-.448z"/><path style="fill:#000;stroke:none;stroke-width:.671804;stroke-linecap:round;stroke-linejoin:round;stroke-miterlimit:10;stroke-dasharray:none;stroke-opacity:1" d="M-82.167 459.052h8.66l-9.394 35.06-.054.616.144.505.327.449.428.28.6.056 1.69-.056 1.737-.224-1.095 7.629-2.817.505-2.772.336-2.798.225-1.143-.113-1.027-.336-.997-.449-.77-.673-.613-.842-.4-1.01-.217-1.065-.034-1.122.203-1.178z"/><path style="fill:#000;stroke:none;stroke-width:.671795;stroke-linecap:round;stroke-linejoin:round;stroke-miterlimit:10;stroke-dasharray:none;stroke-opacity:1" d="M-61.851 484.015h12.873l.132-1.12-.107-1.064-.304-.952-.503-.84-.7-.727-.802-.56-.958-.392-1.06-.224h-1.119l-1.18.224-1.168.392-1.101.56-1.09.727-.953.84-.815.952-.677 1.064zm-1.914 7.56-.02 1.12.234 1.008.431.896.63.784.786.615 1.264.504 1.38.28 1.44.056 1.486-.112 1.56-.392 1.691-.671 1.64-.896 1.531-1.12 3.918 5.431-1.45 1.232-1.531 1.12-1.598.952-1.65.728-1.718.56-2.135.448-2.13.224-2.087.056-2.025-.168-1.91-.392-1.447-.448-1.347-.616-1.174-.84-1.032-.952-.931-1.12-.678-1.232-.59-1.344-.338-1.455-.244-2.016-.06-2.072.178-2.128.417-2.184.697-2.184.906-2.128 1.13-2.128 1.324-2.015 1.387-1.624 1.58-1.512 1.76-1.344 1.81-1.12 1.625-.84 1.706-.728 1.702-.504 1.698-.28 1.654-.112 1.608.056 1.548.28 1.503.448 1.346.616 1.174.84 1.17 1.064 1.013 1.232.73 1.456.546 1.512.278 1.68.108 2.52-.13 2.575-.426 2.632-.593 2.632h-21.157z"/><path style="fill:#000;stroke:none;stroke-width:2.63338;stroke-linecap:round;stroke-linejoin:round;stroke-miterlimit:10;stroke-opacity:1" d="m-23.776 466.198.463 1.514 11.562-2.617-.835-3.1zM-20.301 471.185l-1.639.145-1.605.34-1.586.549-1.548.767-1.515.978-1.48 1.197-.407.373-1.247 1.283-1.158 1.354-1.034 1.443-.91 1.53-.785 1.604-.672 1.71-.057.143-.498 1.655-.41 1.622-.283 1.62-.181 1.622-.069 1.586.017.946.16 1.586.321 1.48.48 1.35.622 1.23.784 1.103.588.677 1.051.91 1.215.728 1.333.537 1.48.34 1.605.14.784.017 1.621-.086 1.656-.23 1.71-.339 1.746-.463.73.248 1.23.463.193.16h5.632l-.09-1.07-.036-1.71.16-1.193.75-2.813.748-2.763.712-2.603.66-2.44.604-2.278.57-2.123.536-1.96.481-1.814.446-1.639.39-1.479.357-1.337.303-1.16.266-1.01.232-.842.18-.694.124-.532.086-.372h-6.502l-.372 1.44-.283-.25-.927-.519-1.231-.44-1.514-.322-1.835-.25-2.12-.124zm.283 7.626.784.055 1.424.39 1.355.748.462.394.859 1.14.301 1.334v.074l-.09 1.835-.232 1.69-.356 1.531-.515 1.372-.445.927-1 1.784-.996 1.407-.999 1.05-.604.43-1.407.656-1.656.394-1.925.104-1.085-.142-1.18-.498-.854-.891-.514-1.265-.163-1.658v-.535l.124-1.672.305-1.515.107-.322.57-1.62.763-1.583.965-1.553.143-.214 1.174-1.334 1.48-1.23 1.638-.961z"/><path style="fill:#000;stroke:none;stroke-width:.672913;stroke-linecap:round;stroke-linejoin:round;stroke-miterlimit:10;stroke-dasharray:none;stroke-opacity:1" d="m10.54 483.308-.412 1.121-5.11 19.073h-8.689l8.507-31.75h8.69l-.602 2.244 1.56-1.01 1.627-.841 1.622-.617 1.675-.393 1.63-.224 1.61.056 1.76.336 1.476.561 1.359.785 1.146.954.988 1.122.776 1.29.562 1.459.278 1.682.038 1.74-.2 1.794-.384 1.852-5.08 18.96h-8.69l5.066-18.904.245-1.122.076-1.122-.219-1.066-.432-.897-.646-.73-1.042-.505-1.229-.224-1.304.056-1.293.224-1.369.505-1.19.673-1.122.842-.943 1.01zM235.966 483.308l-.413 1.121-5.11 19.073h-8.69l8.508-31.75h8.69l-.602 2.244 1.56-1.01 1.627-.841 1.622-.617 1.675-.393 1.63-.224 1.61.056 1.76.336 1.476.561 1.359.785 1.146.954.988 1.122.776 1.29.562 1.459.278 1.682.038 1.74-.2 1.794-.384 1.852-5.08 18.96h-8.69l5.066-18.904.244-1.122.077-1.122-.22-1.066-.431-.897-.646-.73-1.042-.505-1.229-.224-1.304.056-1.294.224-1.368.505-1.19.673-1.122.842-.943 1.01zM291.21 483.308l-.412 1.121-5.11 19.073h-8.69l8.508-31.75h8.69l-.602 2.244 1.56-1.01 1.627-.841 1.622-.617 1.675-.393 1.63-.224 1.61.056 1.76.336 1.476.561 1.359.785 1.146.954.988 1.122.776 1.29.562 1.459.278 1.682.038 1.74-.2 1.794-.384 1.852-5.08 18.96h-8.69l5.066-18.904.244-1.122.077-1.122-.22-1.066-.431-.897-.646-.73-1.042-.505-1.229-.224-1.304.056-1.294.224-1.368.505-1.19.673-1.122.842-.943 1.01z"/><path d="m99.468 484.332-.44-1.29-.637-1.176-.836-1.065-1.008-.841-1.165-.673 1.388-.785 1.335-1.009 1.141-1.12 1.06-1.234.864-1.345.712-1.401.503-1.458.278-1.457.04-1.401-.17-1.458-.34-1.457-.607-1.29-.734-1.233-.963-1.009-1.105-.896-1.206-.73-1.434-.504-1.48-.336-1.539-.112H72.218l-11.91 44.45h21.804l2.021-.224 1.955-.393 2.045-.728 1.978-.897 1.87-1.121 1.635-1.29 1.511-1.457 1.333-1.625 1.082-1.738.873-1.794.608-1.85.364-1.569.181-1.513.014-1.514zm-22.905-7.4 2.523-9.416h10.09l1.035.112.918.336.747.56.534.73.32.896.066 1.01-.174 1.064-.382 1.01-.607 1.008-.8.897-.924.729-1.062.616-1.1.337-1.094.112zm-4.851 18.106 2.974-11.098h10.537l1.05.056.975.336.818.504.646.729.447.84.249.954.066 1.009-.188 1.12-.398 1.066-.621 1.065-.76.953-.898.84-1.021.673-1.088.505-1.155.336-1.095.112H71.712" style="fill:#000;stroke:none;stroke-width:.67263;stroke-linecap:round;stroke-linejoin:round;stroke-miterlimit:10;stroke-dasharray:none;stroke-opacity:1"/><path style="fill:#000;stroke:none;stroke-width:.672236;stroke-linecap:round;stroke-linejoin:round;stroke-miterlimit:10;stroke-dasharray:none;stroke-opacity:1" d="M133.316 503.502h-8.688l5.07-18.922.244-1.12.02-1.12-.18-1.007-.417-.952-.646-.727-1.042-.504-1.23-.224-1.303.056-1.309.28-1.353.447-1.189.672-1.122.84-.943 1.008-.733 1.063-.412 1.12-5.115 19.09h-8.69l11.911-44.45h8.689l-4.005 14.947 1.56-1.007 1.555-.784 1.678-.616 1.69-.448 1.614-.168h1.626l1.76.336 1.475.56 1.36.784 1.147.951.989 1.12.776 1.288.563 1.455.279 1.68.04 1.735-.2 1.791-.383 1.848z"/><path style="fill:#000;stroke:none;stroke-width:2.63339;stroke-linecap:round;stroke-linejoin:round;stroke-miterlimit:10;stroke-opacity:1" d="m161.309 471.184-1.639.146-1.605.34-1.586.548-1.548.767-1.515.979-1.48 1.197-.407.373-1.247 1.283-1.158 1.354-1.034 1.442-.91 1.531-.785 1.604-.672 1.71-.057.142-.498 1.656-.41 1.621-.283 1.62-.181 1.622-.069 1.587.017.946.16 1.585.32 1.48.482 1.35.62 1.231.785 1.103.588.677 1.051.91 1.214.728 1.334.537 1.48.34 1.604.14.784.017 1.622-.086 1.655-.231 1.71-.338 1.747-.464.73.249 1.23.462.193.16h5.632l-.09-1.07-.036-1.71.159-1.192.75-2.813.748-2.763.713-2.603.659-2.44.605-2.278.57-2.123.536-1.96.48-1.814.446-1.64.391-1.478.357-1.337.303-1.16.266-1.011.232-.842.18-.693.124-.533.085-.372h-6.501l-.372 1.44-.283-.249-.927-.52-1.232-.44-1.513-.321-1.835-.25-2.12-.124zm.282 7.626.785.056 1.424.39 1.355.747.462.394.859 1.141.301 1.333v.074l-.09 1.835-.232 1.69-.356 1.532-.515 1.372-.445.926-1 1.785-.996 1.406-.999 1.05-.604.43-1.407.656-1.656.395-1.925.103-1.085-.142-1.18-.497-.854-.892-.515-1.264-.162-1.658v-.536l.124-1.672.305-1.514.107-.322.57-1.62.763-1.584.965-1.553.143-.214 1.174-1.334 1.48-1.23 1.638-.961z"/><path style="fill:#000;stroke:none;stroke-width:.672522;stroke-linecap:round;stroke-linejoin:round;stroke-miterlimit:10;stroke-dasharray:none;stroke-opacity:1" d="M203.553 503.502h-8.68l8.508-31.75h8.679l-.842 3.141 1.35-1.065 1.416-.898 1.554-.785 1.591-.505 1.546-.337 1.542-.112h2.128l-2.21 8.246h-2.967l-1.262.112-1.322.337-1.27.56-1.26.73-1.065.841-1.013 1.066-.86 1.122-.668 1.234-.386 1.234z"/><path style="fill:#000;stroke:none;stroke-width:.206812;stroke-linecap:round;stroke-linejoin:round;stroke-miterlimit:10;stroke-opacity:1" d="m270.101 471.752-6.97 26.029-.09.429-.067.553v.567l.073.577.134.58.2.589.265.594.336.603.402.605.472.621h8.089l-.24-.304-.363-.523-.316-.536-.265-.562-.22-.583-.176-.6-.127-.62-.076-.639-.036-.666.015-.685 6.97-26.03zM280.468 462.072l-11.282 4.207.47 1.506 11.572-2.62zm0 0"/><path d="m34.213-171.907-1.325 2.018-1.462 1.906-1.616 1.85-1.937 1.793-2.075 1.682-2.153 1.345-2.26 1.121-2.272.953-2.308.673-2.36.448-2.286.168h-2.52l-2.196-.168-2.064-.448-1.948-.673-1.817-.953-1.604-1.12-1.431-1.346-1.215-1.738-1.017-1.85-.747-2.017-.493-2.13-.24-2.242-.056-2.299.239-2.354.462-2.354.857-3.195.813-2.41 1.023-2.355 1.288-2.298 1.426-2.186 1.635-2.13 1.829-2.018 2.023-1.906 2.13-1.681 2.153-1.345 2.22-1.178 2.312-.896 2.309-.673 2.304-.448 2.286-.169h2.52l2.195.169 2.12.448 1.948.673 1.776.896 1.645 1.178 1.432 1.345 1.23 1.681.945 1.906.832 2.747.452 2.915-10.035 3.587.014-1.513-.155-1.514-.424-1.345-.662-1.29-.891-1.064-1.048-.897-1.138-.56-1.183-.393-1.284-.224-1.314-.112-1.43.112-1.46.224-1.465.448-1.438.56-1.372.73-1.32.952-1.222 1.01-1.1 1.177-1.002 1.233-.793 1.289-1.176 2.298-.896 2.298-.672 2.298-.574 2.355-.336 2.298-.04 2.242.087 1.345.341 1.233.47 1.177.68 1.01.825.896.966.785 1.138.56 1.239.393 1.325.28 1.385.056 1.542-.112 1.587-.28 1.592-.505 1.483-.728 1.473-.897 1.293-1.065 1.212-1.177 1.073-1.29.88-1.4.726-1.458z" style="display:inline;fill:#fff;stroke:none;stroke-width:.672363;stroke-linecap:round;stroke-linejoin:round;stroke-miterlimit:10;stroke-dasharray:none;stroke-opacity:1"/><path style="display:inline;fill:#fff;stroke:none;stroke-width:.672573;stroke-linecap:round;stroke-linejoin:round;stroke-miterlimit:10;stroke-dasharray:none;stroke-opacity:1" d="m60.174-184.258 1.194.561.936.898.722 1.066.51 1.234.177 1.01-.006 1.065-.257 1.795-.41 1.74-.522 1.738-.705 1.795-.566 1.066-.718 1.01-1.17 1.234-1.295 1.066-1.416.897-1.48.505-1.347.224-1.172-.224-1.21-.505-.99-.897-.723-1.066-.453-1.234-.178-1.01.006-1.066.257-1.795.354-1.739.578-1.739.705-1.795.566-1.065.718-1.01 1.115-1.234 1.293-1.066 1.473-.898 1.494-.56 1.277-.169zm12.428 2.525-.022-.337-.303-1.795-.542-1.739-.826-1.514-1.024-1.403-1.253-1.178-1.286-.841-1.459-.617-1.545-.505-1.66-.28-1.707-.113-1.766.112-1.755.28-1.815.506-1.79.617-1.737.841-1.884 1.178-1.775 1.403-1.638 1.514-1.474 1.74-1.265 1.794-.202.337-1.162 2.244-.952 2.3-.728 2.3-.504 2.3-.28 2.3-.027 2.187.008.392.303 1.795.557 1.683.81 1.571 1.025 1.402 1.253 1.178 1.301.786 1.444.673 1.545.505 1.604.28 1.706.112 1.766-.112 1.812-.28 1.815-.505 1.804-.673 1.723-.786 1.883-1.178 1.776-1.402 1.653-1.57 1.459-1.684 1.265-1.795.217-.392 1.146-2.188.953-2.3.672-2.3.56-2.3.28-2.3z"/><path style="display:inline;fill:#fff;stroke:none;stroke-width:.672522;stroke-linecap:round;stroke-linejoin:round;stroke-miterlimit:10;stroke-dasharray:none;stroke-opacity:1" d="M84.041-159.015h-8.679l8.508-31.75h8.678l-.841 3.142 1.35-1.066 1.415-.898 1.555-.785 1.59-.505 1.547-.336 1.542-.112h2.127l-2.21 8.245h-2.967l-1.262.113-1.322.336-1.27.561-1.26.73-1.064.84-1.014 1.067-.86 1.122-.667 1.234-.387 1.234z"/><path d="m125.233-171.11 7.25 3.024-.258.336-1.28 1.848-1.457 1.68-1.58 1.512-1.774 1.4-1.883 1.176-1.792.84-1.732.615-1.814.504-1.81.28-1.765.112-1.705-.112-1.604-.28-1.544-.504-1.458-.616-1.286-.84-1.252-1.175-1.024-1.4-.826-1.512-.558-1.68-.288-1.848-.022-.336.04-2.24.28-2.296.503-2.296.727-2.295.936-2.24 1.16-2.24.217-.392 1.264-1.792 1.457-1.68 1.652-1.568 1.759-1.344 1.897-1.232 1.721-.784 1.804-.672 1.799-.447 1.769-.336 1.765-.112 1.705.112 1.645.335 1.559.448 1.387.672 1.357.784 1.237 1.232 1.039 1.344.755 1.568.557 1.68.304 1.792.063.392-8.855 2.968-.192-1.792-.509-1.232-.722-1.064-.95-.84-1.194-.56-1.242-.168-1.276.168-1.55.56-1.4.84-1.292 1.064-1.114 1.232-.733 1.064-.62 1.064-.634 1.736-.577 1.735-.368 1.792-.297 1.736.05 1.064.178 1.008.454 1.232.707 1.12.95.84 1.25.56 1.186.168 1.332-.168 1.493-.56 1.4-.84 1.308-1.12 1.17-1.232z" style="display:inline;fill:#fff;stroke:none;stroke-width:.671785;stroke-linecap:round;stroke-linejoin:round;stroke-miterlimit:10;stroke-dasharray:none;stroke-opacity:1"/><path style="display:inline;fill:#fff;stroke:none;stroke-width:2.63338;stroke-linecap:round;stroke-linejoin:round;stroke-miterlimit:10;stroke-opacity:1" d="m155.462-191.332-1.638.145-1.606.34-1.586.548-1.548.767-1.515.98-1.48 1.196-.406.373-1.248 1.283-1.158 1.354-1.033 1.443-.91 1.53-.786 1.604-.672 1.71-.057.143-.497 1.655-.41 1.622-.284 1.62-.18 1.621-.07 1.587.017.946.16 1.586.321 1.48.48 1.35.622 1.23.784 1.103.588.677 1.051.91 1.215.728 1.333.537 1.48.34 1.605.14.784.017 1.621-.085 1.656-.232 1.71-.338 1.746-.463.73.248 1.23.463.193.16h5.632l-.09-1.07-.036-1.71.16-1.193.75-2.813.748-2.763.712-2.603.66-2.44.604-2.278.57-2.123.537-1.96.48-1.814.446-1.639.39-1.479.357-1.337.303-1.16.266-1.011.232-.841.18-.694.124-.533.086-.372h-6.502l-.372 1.441-.283-.25-.927-.519-1.231-.44-1.514-.322-1.835-.25-2.12-.124zm.283 7.626.784.055 1.424.39 1.355.748.463.394.858 1.14.302 1.334v.074l-.091 1.834-.231 1.69-.357 1.532-.515 1.372-.445.927-1 1.784-.995 1.407-1 1.05-.604.43-1.407.656-1.655.394-1.925.103-1.086-.142-1.18-.497-.854-.892-.514-1.264-.163-1.658v-.536l.124-1.671.305-1.515.107-.322.57-1.62.764-1.583.965-1.553.142-.215 1.175-1.333 1.48-1.231 1.638-.96z"/><path d="M192.303-198.939a4.366 4.366 0 0 1-4.366 4.366 4.366 4.366 0 0 1-4.367-4.366 4.366 4.366 0 0 1 4.367-4.366 4.366 4.366 0 0 1 4.366 4.366z" style="display:inline;fill:#fff;fill-rule:evenodd;stroke:none;stroke-width:.362115;stroke-linecap:round;stop-color:#000"/><path style="display:inline;fill:#fff;stroke:none;stroke-width:.206811;stroke-linecap:round;stroke-linejoin:round;stroke-miterlimit:10;stroke-opacity:1" d="m182.022-190.765-6.97 26.029-.09.429-.067.553v.568l.073.577.134.58.2.588.265.594.336.603.402.605.472.622h8.089l-.24-.304-.363-.524-.316-.535-.265-.563-.22-.582-.176-.6-.127-.621-.076-.638-.036-.667.015-.685 6.97-26.029zm0 0"/><path style="display:inline;fill:#fff;stroke:none;stroke-width:.672237;stroke-linecap:round;stroke-linejoin:round;stroke-miterlimit:10;stroke-dasharray:none;stroke-opacity:1" d="M255.105-159.015h-8.69l5.071-18.922.244-1.12.02-1.119-.179-1.008-.417-.951-.646-.728-1.043-.504-1.229-.224-1.304.056-1.308.28-1.354.448-1.189.672-1.122.84-.942 1.007-.734 1.064-.412 1.12-5.115 19.09h-8.689l11.91-44.45h8.69l-4.006 14.947 1.56-1.008 1.555-.784 1.678-.615 1.69-.448 1.615-.168h1.625l1.76.336 1.476.56 1.36.783 1.146.952.99 1.12.775 1.287.563 1.456.279 1.68.04 1.735-.2 1.791-.383 1.847z"/><path style="display:inline;fill:#fff;stroke:none;stroke-width:.672154;stroke-linecap:round;stroke-linejoin:round;stroke-miterlimit:10;stroke-dasharray:none;stroke-opacity:1" d="m212.38-182.59-1.14-.559-1.183-.392-1.37-.112-1.375.112-1.435.336-.904.448-.879.56-.811.728-.673.84-.977 1.344-.782 1.456-.513 1.288-.417 1.343-.192 1.344-.009 1.288.082.952.32.896.518.784.732.616.832.448 1.087.336 1.131.168h1.233l1.222-.168 1.281-.392.905-.448.878-.56.755-.728.618-.84.651-1.176.54-1.176 1.35-5.04.015-.895-.11-.84-.295-.784-.492-.672zm-19.69 24.135 1.318.728 1.49.504 1.52.392 2.543.336 2.618.056 2.413-.224.972-.28.92-.504.851-.672.715-.784.576-.896.367-.951.45-1.68-1.595.728-1.592.504-2.01.392-2.021.224-1.931-.112-1.733-.224-1.658-.504-1.486-.728-1.314-.952-1.06-1.064-.902-1.232-.633-1.4-.436-1.512-.252-1.568-.04-1.736.145-1.792.312-1.792.551-1.847.76-1.792.914-1.736 1.025-1.736 1.138-1.736 1.331-1.624 1.197-1.12 1.293-1.064 1.417-.896 1.443-.784 1.454-.616 1.958-.616 1.938-.336 1.935-.112 1.89.056 1.76.336 1.254.336 1.139.56.966.784.435-1.624h8.629l-8.177 30.519-.518 1.511-.726 1.456-.88 1.4-1.088 1.344-1.17 1.232-1.35 1.064-1.813 1.12-1.865.896-1.917.672-1.913.448-2.346.392-2.23.168-2.226-.056-2.14-.168-2.637-.616-2.479-.784-2.434-.952-2.248-1.232 5.966-7z"/><path style="display:inline;fill:#fff;stroke:none;stroke-width:.672067;stroke-linecap:round;stroke-linejoin:round;stroke-miterlimit:10;stroke-dasharray:none;stroke-opacity:1" d="m154.447-106.997 3.81-4.255 12.495 19.706h10.758l-16.921-26.703 16.08-17.747H168.4l-13.952 15.451v-15.45h-9.132v44.45h9.132z"/><path d="m38.188-104.438-.784 2.018-.953 1.906-1.12 1.85-1.456 1.793-1.624 1.682-1.792 1.345-1.96 1.121-2.017.953-2.128.673-2.24.448-2.24.168h-2.521l-2.24-.168-2.185-.448-2.128-.673-2.072-.953-1.905-1.121-1.792-1.345-1.68-1.738-1.512-1.85-1.288-2.018-1.064-2.13-.84-2.242-.673-2.298-.392-2.354-.168-2.354v-3.195l.168-2.41.392-2.355.672-2.298.84-2.186 1.065-2.13 1.288-2.018 1.512-1.906 1.68-1.681 1.792-1.346 1.905-1.177 2.072-.897 2.128-.672 2.185-.449 2.24-.168h2.52l2.24.168 2.24.449 2.13.672 2.015.897 1.96 1.177 1.793 1.346 1.68 1.681 1.456 1.906 1.568 2.747 1.233 2.914-9.074 3.588-.392-1.514-.56-1.513-.784-1.345-1.008-1.29-1.176-1.065-1.288-.896-1.288-.561-1.289-.392-1.344-.225-1.344-.112-1.4.112-1.4.225-1.345.448-1.288.56-1.176.73-1.064.952-.952 1.01-.784 1.176-.672 1.233-.448 1.29-.56 2.298-.28 2.298-.056 2.298.056 2.354.28 2.299.56 2.242.448 1.345.672 1.233.784 1.177.952 1.01 1.064.896 1.176.785 1.288.56 1.345.393 1.4.28 1.4.056 1.512-.112 1.512-.28 1.457-.505 1.288-.729 1.232-.896 1.008-1.065.896-1.177.728-1.29.504-1.401.336-1.457z" style="display:inline;fill:#fff;stroke:none;stroke-width:.672363;stroke-linecap:round;stroke-linejoin:round;stroke-miterlimit:10;stroke-dasharray:none;stroke-opacity:1"/><path style="display:inline;fill:#fff;stroke:none;stroke-width:.67182;stroke-linecap:round;stroke-linejoin:round;stroke-miterlimit:10;stroke-dasharray:none;stroke-opacity:1" d="m72.005-127.095 1.176.784 1.064.896.952 1.064.784 1.12.615 1.23.448 1.344.56 2.24.336 2.295.056 2.351-.056 2.295-.336 2.296-.56 2.295-.448 1.288-.615 1.287-.784 1.12-.952 1.064-1.064.895-1.176.728-1.287.56-1.344.448-1.4.224-1.4.112-1.4-.112-1.399-.224-1.343-.448-1.288-.56-1.176-.728-1.064-.895-.952-1.064-.783-1.12-.616-1.287-.504-1.288-.504-2.295-.336-2.296-.056-2.295.056-2.351.336-2.295.504-2.24.504-1.343.616-1.232.783-1.12.952-1.063 1.064-.896 1.176-.784 1.288-.56 1.343-.391 1.4-.28 1.4-.056 1.4.056 1.399.28 1.344.392zm15.733 11.7-.168-2.35-.392-2.352-.616-2.295-.896-2.24-1.063-2.127-1.288-2.015-1.456-1.848-1.68-1.735-1.791-1.344-1.96-1.12-2.015-.895-2.128-.728-2.24-.392-2.183-.223h-2.575l-2.24.223-2.183.392-2.128.728-2.071.896-1.904 1.12-1.791 1.343-1.68 1.735-1.456 1.848-1.287 2.015-1.12 2.128-.84 2.239-.616 2.295-.448 2.351-.168 2.352v3.19l.168 2.408.448 2.351.616 2.295.84 2.24 1.12 2.127 1.287 1.96 1.456 1.903 1.68 1.68 1.791 1.343 1.904 1.176 2.071.895 2.128.672 2.183.448 2.24.224h2.575l2.184-.224 2.24-.448 2.127-.672 2.015-.895 1.96-1.176 1.792-1.344 1.68-1.68 1.455-1.903 1.288-1.959 1.063-2.127.896-2.24.616-2.295.392-2.351.168-2.407z"/><path style="display:inline;fill:#fff;stroke:none;stroke-width:.671938;stroke-linecap:round;stroke-linejoin:round;stroke-miterlimit:10;stroke-dasharray:none;stroke-opacity:1" d="M107.843-127.766h10.586l1.064.112.952.335.952.448.784.672.672.784.448.952.336.951.112 1.064-.112 1.008-.336 1.007-.448.896-.672.84-.784.616-.952.503-.952.336-1.064.056h-10.586Zm-9.073-8.23v44.45h9.073V-108.9h5.937l10.137 17.354h10.586l-10.642-18.138 1.624-.728 1.569-.952 1.4-1.12 1.232-1.343 1.064-1.455.84-1.568.672-1.68.392-1.735.168-1.791-.056-1.848-.336-1.735-.504-1.736-.784-1.623-1.008-1.512-1.12-1.4-1.344-1.175-1.512-1.007-1.625-.84-1.68-.56-1.792-.392-1.792-.112z"/><path style="fill:#fff;stroke:none;stroke-width:.672153;stroke-linecap:round;stroke-linejoin:round;stroke-miterlimit:10;stroke-dasharray:none;stroke-opacity:1" d="M36.45-345.81h8.684l-5.071 18.926-.188 1.12-.076 1.12.178 1.008.417.952.702.728 1.041.504 1.188.168h1.288l1.364-.28 1.297-.448 1.244-.672 1.066-.84.998-1.008.678-1.064.412-1.12 5.116-19.094h8.685l-8.508 31.75h-8.684l.6-2.24-1.503 1.008-1.61.784-1.678.616-1.633.448-1.67.168h-1.625l-1.759-.336-1.475-.56-1.302-.784-1.202-.952-.933-1.12-.831-1.288-.562-1.456-.223-1.68-.039-1.736.16-1.848.367-1.792z"/><path style="fill:#fff;stroke:none;stroke-width:.671904;stroke-linecap:round;stroke-linejoin:round;stroke-miterlimit:10;stroke-dasharray:none;stroke-opacity:1" d="M4.879-358.51h9.072l-9.585 35.772h19.712l-2.325 8.678H-7.032Z"/><path d="M86.946-353.985a4.366 4.366 0 0 1-4.366 4.367 4.366 4.366 0 0 1-4.367-4.367 4.366 4.366 0 0 1 4.367-4.366 4.366 4.366 0 0 1 4.366 4.366z" style="fill:#fff;fill-rule:evenodd;stroke:none;stroke-width:.362114;stroke-linecap:round;stop-color:#000"/><path style="fill:#fff;stroke:none;stroke-width:.206811;stroke-linecap:round;stroke-linejoin:round;stroke-miterlimit:10;stroke-opacity:1" d="m76.665-345.81-6.97 26.028-.09.43-.067.552v.568l.073.577.134.58.2.588.265.594.336.603.402.606.472.62h8.089l-.24-.303-.364-.523-.315-.536-.265-.562-.22-.583-.176-.6-.127-.62-.076-.64-.036-.666.015-.685 6.97-26.029zm0 0"/><path style="fill:#fff;stroke:none;stroke-width:.672515;stroke-linecap:round;stroke-linejoin:round;stroke-miterlimit:10;stroke-dasharray:none;stroke-opacity:1" d="M100.744-345.81h-8.679l-8.507 31.75h8.679l5.11-19.073.413-1.122.733-1.066.943-1.01 1.121-.84 1.188-.674 1.957-.617.687-.056.601.056.265.056 1.04.505.645.73.431.897.163 1.066-.02 1.121-.245 1.122-5.066 18.904h8.679l5.11-19.072.413-1.122.677-1.066.999-1.01 1.121-.84 1.188-.674 1.957-.617.631-.056.657.056.21.056 1.04.505.644.73.488.897.162 1.066-.077 1.121-.244 1.122-5.066 18.904h8.679l5.08-18.96.44-1.85.145-1.796-.038-1.739-.277-1.683-.56-1.458-.775-1.29-.987-1.122-1.144-.954-1.302-.785-1.473-.561-1.758-.337-1.384-.056-1.445.168-1.475.28-1.408.45-1.453.617-1.402.841-1.319.954-1.252 1.122-.454-1.234-.68-1.01-.895-.842-1.123-.617-.917-.336-1.758-.337-1.609-.056-1.628.225-1.672.392-1.622.617-1.625.842-1.558 1.01z"/><path style="fill:#fff;stroke:none;stroke-width:.672912;stroke-linecap:round;stroke-linejoin:round;stroke-miterlimit:10;stroke-dasharray:none;stroke-opacity:1" d="m152.702-334.255-.412 1.122-5.11 19.072h-8.69l8.508-31.75h8.688l-.6 2.244 1.56-1.01 1.626-.84 1.623-.618 1.675-.392 1.63-.225 1.61.056 1.76.337 1.475.56 1.36.786 1.145.954.989 1.122.775 1.29.562 1.458.278 1.683.039 1.74-.2 1.794-.385 1.851-5.08 18.96h-8.689l5.065-18.904.245-1.122.076-1.121-.219-1.066-.432-.898-.645-.729-1.042-.505-1.23-.224-1.304.056-1.293.224-1.369.505-1.189.673-1.122.842-.944 1.01z"/><path style="fill:#fff;stroke:none;stroke-width:.671796;stroke-linecap:round;stroke-linejoin:round;stroke-miterlimit:10;stroke-dasharray:none;stroke-opacity:1" d="M188.26-333.547h12.873l.132-1.12-.106-1.064-.305-.952-.502-.84-.7-.728-.802-.56-.959-.392-1.06-.224h-1.119l-1.179.224-1.168.392-1.102.56-1.09.728-.953.84-.815.952-.677 1.064zm-1.913 7.56-.02 1.12.233 1.007.431.896.63.784.786.616 1.265.504 1.38.28 1.44.056 1.485-.112 1.56-.392 1.692-.672 1.639-.896 1.531-1.12 3.918 5.432-1.45 1.232-1.53 1.12-1.6.952-1.65.728-1.717.56-2.135.448-2.13.224-2.086.056-2.026-.168-1.91-.392-1.447-.448-1.346-.616-1.175-.84-1.032-.952-.931-1.12-.677-1.232-.592-1.344-.337-1.456-.244-2.016-.06-2.072.178-2.128.417-2.183.698-2.184.906-2.128 1.13-2.128 1.323-2.016 1.387-1.624 1.58-1.512 1.76-1.344 1.81-1.12 1.625-.84 1.706-.727 1.703-.504 1.698-.28 1.653-.112 1.608.056 1.548.28 1.503.448 1.346.616 1.174.84 1.17 1.063 1.014 1.232.729 1.456.546 1.512.278 1.68.108 2.52-.13 2.576-.426 2.632-.593 2.631h-21.156z"/><path style="fill:#fff;stroke:none;stroke-width:2.63339;stroke-linecap:round;stroke-linejoin:round;stroke-miterlimit:10;stroke-opacity:1" d="m230.445-346.378-1.638.145-1.606.34-1.586.548-1.548.768-1.515.978-1.48 1.197-.406.373-1.248 1.283-1.158 1.354-1.033 1.443-.91 1.53-.786 1.604-.672 1.71-.057.143-.497 1.655-.41 1.622-.284 1.62-.181 1.622-.068 1.587.016.945.16 1.586.321 1.48.48 1.35.622 1.23.784 1.103.588.677 1.051.91 1.215.729 1.333.536 1.48.34 1.605.14.784.017 1.621-.085 1.656-.232 1.71-.338 1.746-.463.73.249 1.23.462.193.16h5.632l-.09-1.07-.036-1.71.16-1.193.75-2.813.748-2.763.712-2.603.66-2.44.604-2.278.57-2.123.537-1.96.48-1.814.446-1.639.39-1.479.357-1.337.303-1.16.267-1.01.231-.842.18-.694.124-.532.086-.372h-6.502l-.372 1.44-.283-.25-.927-.519-1.231-.44-1.514-.322-1.835-.25-2.12-.124zm.283 7.626.784.055 1.424.39 1.355.748.463.394.858 1.14.301 1.334v.074l-.09 1.834-.231 1.69-.357 1.532-.515 1.372-.445.927-1 1.784-.995 1.407-1 1.05-.604.43-1.407.656-1.655.395-1.925.103-1.086-.142-1.18-.498-.854-.892-.514-1.264-.163-1.658v-.535l.124-1.672.305-1.515.108-.322.569-1.62.764-1.583.965-1.553.142-.214 1.175-1.334 1.48-1.231 1.638-.96z"/><path d="m269.431-326.156 7.25 3.024-.258.336-1.28 1.848-1.457 1.68-1.58 1.512-1.774 1.4-1.883 1.176-1.792.84-1.732.616-1.814.504-1.81.28-1.765.112-1.705-.112-1.604-.28-1.544-.504-1.458-.616-1.286-.84-1.252-1.176-1.024-1.4-.826-1.512-.558-1.68-.288-1.848-.022-.336.04-2.24.28-2.296.503-2.295.727-2.296.936-2.24 1.16-2.24.217-.392 1.264-1.792 1.457-1.68 1.652-1.568 1.759-1.344 1.897-1.231 1.721-.784 1.803-.672 1.8-.448 1.769-.336 1.765-.112 1.705.112 1.644.336 1.56.448 1.387.672 1.357.784 1.237 1.231 1.039 1.344.755 1.568.557 1.68.304 1.792.063.392-8.855 2.968-.192-1.792-.509-1.232-.722-1.064-.95-.84-1.194-.56-1.242-.168-1.276.168-1.55.56-1.4.84-1.292 1.064-1.114 1.232-.733 1.064-.62 1.064-.634 1.736-.577 1.736-.368 1.791-.297 1.736.05 1.064.178 1.008.454 1.232.707 1.12.95.84 1.25.56 1.186.168 1.332-.168 1.493-.56 1.4-.84 1.308-1.12 1.17-1.232z" style="fill:#fff;stroke:none;stroke-width:.671785;stroke-linecap:round;stroke-linejoin:round;stroke-miterlimit:10;stroke-dasharray:none;stroke-opacity:1"/><path style="fill:#fff;stroke:none;stroke-width:.672237;stroke-linecap:round;stroke-linejoin:round;stroke-miterlimit:10;stroke-dasharray:none;stroke-opacity:1" d="M309.45-314.06h-8.689l5.07-18.922.245-1.12.02-1.12-.18-1.007-.417-.952-.646-.728-1.042-.504-1.23-.224-1.304.056-1.308.28-1.353.448-1.19.672-1.121.84-.943 1.007-.733 1.064-.412 1.12-5.116 19.09h-8.688l11.91-44.45h8.689l-4.005 14.947 1.559-1.008 1.555-.784 1.679-.615 1.69-.448 1.614-.168h1.626l1.76.336 1.475.56 1.36.783 1.146.952.99 1.12.776 1.287.563 1.456.278 1.68.04 1.735-.2 1.791-.383 1.848z"/><path style="fill:#fff;stroke:none;stroke-width:.672071;stroke-linecap:round;stroke-linejoin:round;stroke-miterlimit:10;stroke-dasharray:none;stroke-opacity:1" d="M70.008-246.592v-32.19L83.455-259.3l13.447-19.482v32.19h9.077v-44.45H94.325l-10.87 15.731-10.87-15.73h-11.71v44.45z"/><path style="fill:#fff;stroke:none;stroke-width:.672068;stroke-linecap:round;stroke-linejoin:round;stroke-miterlimit:10;stroke-dasharray:none;stroke-opacity:1" d="m290.073-262.043 3.81-4.254 12.494 19.705h10.758l-16.92-26.703 16.08-17.747h-12.27l-13.952 15.451v-15.45h-9.133v44.45h9.133z"/><path style="fill:#fff;stroke:none;stroke-width:.671904;stroke-linecap:round;stroke-linejoin:round;stroke-miterlimit:10;stroke-dasharray:none;stroke-opacity:1" d="M.397-291.042H9.47v35.773h19.713v8.677H.397Z"/><path style="fill:#fff;stroke:none;stroke-width:.672349;stroke-linecap:round;stroke-linejoin:round;stroke-miterlimit:10;stroke-dasharray:none;stroke-opacity:1" d="M150.842-255.28h-21.786v-9.753h18.202v-8.24h-18.202v-9.137h20.106v-8.632h-29.235v44.45h30.915z"/><path style="fill:#fff;stroke:none;stroke-width:.671798;stroke-linecap:round;stroke-linejoin:round;stroke-miterlimit:10;stroke-dasharray:none;stroke-opacity:1" d="M46.817-291.042v44.45h-9.069v-44.45zM219.22-291.042v44.45h-9.07v-44.45z"/><path style="fill:#fff;stroke:none;stroke-width:.671938;stroke-linecap:round;stroke-linejoin:round;stroke-miterlimit:10;stroke-dasharray:none;stroke-opacity:1" d="M172.349-282.812h10.585l1.064.112.952.336.952.447.784.672.672.784.449.952.336.951.112 1.064-.112 1.008-.336 1.007-.449.896-.672.84-.784.616-.952.504-.952.335-1.064.056h-10.585zm-9.074-8.23v44.45h9.074v-17.354h5.936l10.138 17.354h10.585l-10.641-18.138 1.624-.728 1.568-.951 1.4-1.12 1.232-1.344 1.064-1.455.84-1.568.673-1.68.392-1.735.168-1.791-.056-1.847-.336-1.736-.504-1.735-.784-1.624-1.009-1.511-1.12-1.4-1.344-1.176-1.512-1.007-1.624-.84-1.68-.56-1.793-.392-1.792-.112z"/><path d="m270.968-259.484-.784 2.018-.952 1.906-1.12 1.85-1.457 1.793-1.624 1.682-1.792 1.345-1.96 1.121-2.017.953-2.128.673-2.24.448-2.24.168h-2.52l-2.241-.168-2.184-.448-2.129-.673-2.072-.953-1.904-1.12-1.792-1.346-1.68-1.738-1.513-1.85-1.288-2.017-1.064-2.13-.84-2.243-.672-2.298-.392-2.354-.168-2.354v-3.195l.168-2.41.392-2.355.672-2.298.84-2.186 1.064-2.13 1.288-2.018 1.512-1.906 1.68-1.681 1.793-1.346 1.904-1.177 2.072-.896 2.129-.673 2.184-.449 2.24-.168h2.52l2.24.168 2.241.449 2.128.673 2.017.896 1.96 1.177 1.792 1.346 1.68 1.681 1.457 1.906 1.568 2.747 1.232 2.915-9.073 3.587-.392-1.514-.56-1.513-.784-1.345-1.009-1.29-1.176-1.064-1.288-.897-1.288-.56-1.288-.393-1.344-.224-1.345-.113-1.4.113-1.4.224-1.344.448-1.288.56-1.176.73-1.065.952-.952 1.01-.784 1.176-.672 1.234-.448 1.289-.56 2.298-.28 2.298-.056 2.298.056 2.355.28 2.298.56 2.242.448 1.345.672 1.233.784 1.177.952 1.01 1.065.896 1.176.785 1.288.56 1.344.393 1.4.28 1.4.056 1.513-.112 1.512-.28 1.456-.505 1.288-.728 1.232-.897 1.008-1.065.897-1.177.728-1.29.504-1.4.336-1.458z" style="fill:#fff;stroke:none;stroke-width:.672364;stroke-linecap:round;stroke-linejoin:round;stroke-miterlimit:10;stroke-dasharray:none;stroke-opacity:1"/><rect style="display:inline;fill:#fff;fill-opacity:1;fill-rule:evenodd;stroke:none;stroke-width:4.11682;stroke-linecap:round;stroke-miterlimit:4;stroke-dasharray:none;stop-color:#000" width="75.565" height="95.25" x="-238.654" y="-360.892" rx="11.906"/><rect style="display:inline;fill:#000;fill-opacity:1;fill-rule:evenodd;stroke:none;stroke-width:4.11684;stroke-linecap:round;stroke-miterlimit:4;stroke-dasharray:none;stop-color:#000" width="67.627" height="87.312" x="-234.685" y="-356.923" rx="8.731"/><path style="display:inline;fill:#fff;stroke:none;stroke-width:.504387;stroke-linecap:round;stroke-linejoin:round;stroke-miterlimit:10;stroke-dasharray:none;stroke-opacity:1" d="M315.608 634.47h-6.509v23.813h6.509v-14.304l.084-.842.336-.799.504-.757.672-.631.756-.505 1.343-.463.504-.042.462.042.21.042.882.379.63.547.504.673.336.8.21.84.042.842v14.178h6.509V643.98l.084-.842.294-.799.546-.757.672-.631.756-.505 1.343-.463.462-.042.504.042.168.042.882.379.63.547.546.673.336.8.168.84.042.842v14.178h6.509v-14.22l-.042-1.388-.252-1.346-.378-1.305-.546-1.262-.714-1.094-.84-.967-.966-.842-1.05-.715-1.133-.589-1.218-.42-1.386-.253-1.05-.042-1.05.126-1.05.21-.965.337-.966.463-.882.63-.798.716-.714.841-.588-.925-.714-.757-.84-.632-.965-.462-.756-.253-1.386-.252-1.218-.042-1.176.168-1.175.294-1.092.463-1.05.631-.966.758z"/><path style="fill:#fff;stroke:none;stroke-width:.673753;stroke-linecap:round;stroke-linejoin:round;stroke-miterlimit:10;stroke-dasharray:none;stroke-opacity:1" d="M17.925 62.939H6.475l-10.383-44.54h9.373l7.128 30.61 6.398-30.61H29.6l6.399 30.61 7.127-30.61h9.373l-10.383 44.54h-11.45l-6.342-30.555Z"/><path style="fill:#fff;stroke:none;stroke-width:.673708;stroke-linecap:round;stroke-linejoin:round;stroke-miterlimit:10;stroke-dasharray:none;stroke-opacity:1" d="M174.892 54.233h-21.83V44.46H171.3v-8.256h-18.239v-9.156h20.147v-8.65h-29.294v44.54h30.978z"/><path d="M70.906 18.399h11.841l14.872 44.54h-9.99l-2.413-7.864h-16.78l-2.412 7.864h-9.99zm5.892 9.323-5.948 19.49h11.953z" style="fill:#fff;stroke:none;stroke-width:.673714;stroke-linecap:round;stroke-linejoin:round;stroke-miterlimit:10;stroke-dasharray:none;stroke-opacity:1"/><path style="fill:#fff;stroke:none;stroke-width:.673263;stroke-linecap:round;stroke-linejoin:round;stroke-miterlimit:10;stroke-dasharray:none;stroke-opacity:1" d="M100.874 18.399v8.695h12.625v35.845h9.147V27.094h12.626v-8.695z"/><path style="fill:#fff;stroke:none;stroke-width:.673297;stroke-linecap:round;stroke-linejoin:round;stroke-miterlimit:10;stroke-dasharray:none;stroke-opacity:1" d="M196.442 26.645h10.606l1.067.112.954.337.954.448.786.674.673.785.449.953.337.954.112 1.066-.112 1.01-.337 1.01-.449.897-.673.841-.786.617-.954.505-.954.337-1.067.056h-10.606zm-9.092-8.246v44.54h9.092v-17.39h5.948l10.158 17.39h10.607l-10.663-18.175 1.628-.73 1.571-.953 1.403-1.122 1.235-1.346 1.066-1.459.842-1.57.673-1.683.393-1.74.168-1.794-.056-1.852-.336-1.739-.505-1.739-.786-1.626-1.01-1.515-1.123-1.402-1.347-1.178-1.515-1.01-1.627-.841-1.684-.561-1.796-.393-1.796-.112z"/><path d="M243.413 62.939V44.46h18.238v-8.256h-18.238v-9.156h20.146v-8.65h-29.237v44.54z" style="fill:#fff;stroke:none;stroke-width:.673692;stroke-linecap:round;stroke-linejoin:round;stroke-miterlimit:10;stroke-dasharray:none;stroke-opacity:1"/><path style="fill:#fff;stroke:none;stroke-width:.67318;stroke-linecap:round;stroke-linejoin:round;stroke-miterlimit:10;stroke-dasharray:none;stroke-opacity:1" d="m296.378 27.318 1.178.785 1.066.898.954 1.066.785 1.122.617 1.234.45 1.346.56 2.244.337 2.3.056 2.356-.056 2.3-.337 2.3-.56 2.3-.45 1.29-.617 1.29-.785 1.122-.954 1.066-1.066.897-1.178.73-1.29.56-1.347.45-1.402.224-1.403.112-1.402-.112-1.403-.225-1.346-.449-1.29-.56-1.179-.73-1.065-.897-.954-1.066-.786-1.122-.617-1.29-.505-1.29-.505-2.3-.336-2.3-.056-2.3.056-2.356.336-2.3.505-2.244.505-1.346.617-1.234.786-1.122.954-1.066 1.065-.898 1.179-.785 1.29-.561 1.346-.393 1.403-.28 1.402-.056 1.403.056 1.402.28 1.347.393zm15.765 11.724-.169-2.356-.392-2.356-.618-2.3-.897-2.244L309 27.655l-1.29-2.02-1.459-1.851-1.683-1.739-1.795-1.346-1.964-1.122-2.02-.898-2.131-.729-2.244-.393-2.188-.224h-2.58l-2.245.224-2.188.393-2.132.73-2.075.897-1.908 1.122-1.795 1.346-1.683 1.739-1.459 1.851-1.29 2.02-1.122 2.131-.842 2.244-.617 2.3-.449 2.356-.168 2.356v3.197l.168 2.413.45 2.356.616 2.3.842 2.243 1.122 2.132 1.29 1.963 1.459 1.908 1.683 1.682 1.795 1.347 1.908 1.178 2.075.897 2.132.673 2.188.45 2.244.224h2.58l2.189-.225 2.244-.449 2.132-.673 2.02-.897 1.963-1.178 1.795-1.347 1.683-1.682 1.459-1.908 1.29-1.963 1.066-2.132.897-2.244.618-2.3.392-2.355.169-2.413z"/><path style="fill:#fff;stroke:none;stroke-width:.673297;stroke-linecap:round;stroke-linejoin:round;stroke-miterlimit:10;stroke-dasharray:none;stroke-opacity:1" d="M332.289 26.645h10.606l1.067.112.954.337.954.448.785.674.674.785.449.953.337.954.112 1.066-.112 1.01-.337 1.01-.45.897-.673.841-.785.617-.954.505-.954.337-1.067.056H332.29zm-9.092-8.246v44.54h9.092v-17.39h5.948l10.158 17.39h10.607l-10.663-18.175 1.627-.73 1.572-.953 1.403-1.122 1.235-1.346 1.066-1.459.842-1.57.673-1.683.393-1.74.168-1.794-.056-1.852-.337-1.739-.505-1.739-.785-1.626-1.01-1.515-1.123-1.402-1.347-1.178-1.515-1.01-1.628-.841-1.683-.561-1.796-.393-1.796-.112z"/><path style="fill:#fff;stroke:none;stroke-width:.673855;stroke-linecap:round;stroke-linejoin:round;stroke-miterlimit:10;stroke-dasharray:none;stroke-opacity:1" d="M387.24 54.008h-7.748V27.273h7.748l1.572.112 1.516.394 1.46.561 1.403.787 1.235.954 1.067 1.18.898 1.292.674 1.404.505 1.516.393 2.135.169 2.134v2.19l-.225 2.191-.449 2.134-.505 1.404-.73 1.405-.898 1.235-1.067 1.067-1.235.955-1.348.73-1.403.506-1.516.337zm-.112 8.93 2.077-.112 2.134-.337 2.02-.561 1.966-.787 1.909-.954 1.74-1.18 1.628-1.348 1.516-1.516 1.291-1.685 1.123-1.798.955-1.91.73-1.965.505-2.078.337-2.416.168-2.415v-2.415l-.168-2.471-.337-2.415-.506-2.022-.73-2.022-.954-1.91-1.123-1.797-1.291-1.63-1.516-1.516-1.628-1.404-1.74-1.123-1.91-1.011-1.964-.786-2.021-.506-2.134-.337-2.077-.112H370.34v44.54z"/><path style="fill:#fff;stroke:none;stroke-width:.673135;stroke-linecap:round;stroke-linejoin:round;stroke-miterlimit:10;stroke-dasharray:none;stroke-opacity:1" d="m8.597-28.354 3.306-12.341h9.031l1.092.112.976.336.874.505.717.673.49.898.304.953.108 1.066-.133 1.122-.285 1.066-.47 1.122-.662 1.01-.832 1.01-.955.84-1.078.674-1.144.505-1.156.336-1.152.113zM24.21-48.941H5.026L-6.91-4.401h9.087l4.21-15.707h10.096l1.769-.113 1.829-.336 1.777-.561 1.781-.785 1.77-.954L27-23.979l1.525-1.29 1.4-1.459 1.176-1.458 1.079-1.515.926-1.57.716-1.627.492-1.627.38-1.627.155-1.626-.084-1.571-.267-1.515-.394-1.458-.62-1.459-.832-1.29-.99-1.122-1.258-.953-1.36-.786-1.477-.56-1.648-.337z"/><path style="fill:#fff;stroke:none;stroke-width:.673934;stroke-linecap:round;stroke-linejoin:round;stroke-miterlimit:10;stroke-dasharray:none;stroke-opacity:1" d="m54.65-29.696 1.196.562.938.9.724 1.068.51 1.236.178 1.012-.006 1.068-.257 1.799-.411 1.742-.523 1.743-.706 1.798-.567 1.068-.72 1.012-1.173 1.237-1.296 1.068-1.42.899-1.482.506-1.35.225-1.175-.225-1.211-.506-.994-.9-.724-1.067-.454-1.237-.178-1.012.006-1.068.257-1.798.355-1.743.579-1.742.706-1.799.567-1.068.72-1.012 1.117-1.236 1.296-1.068 1.476-.9 1.497-.562 1.28-.168zm12.453 2.53-.022-.337-.303-1.8-.543-1.742-.828-1.517-1.027-1.405-1.255-1.18-1.289-.844-1.461-.618-1.548-.506-1.664-.281-1.71-.113-1.77.113-1.758.28-1.82.507-1.792.618-1.741.843-1.888 1.18-1.779 1.406-1.641 1.517-1.477 1.743-1.268 1.799-.202.337-1.164 2.248-.954 2.305-.73 2.304-.505 2.305-.28 2.304-.027 2.192.007.394.303 1.799.559 1.686.812 1.574 1.027 1.405 1.255 1.18 1.304.787 1.446.675 1.548.506 1.608.28 1.71.113 1.77-.112 1.814-.281 1.82-.506 1.807-.675 1.726-.787 1.888-1.18 1.78-1.405 1.655-1.574 1.462-1.686 1.268-1.8.217-.393 1.149-2.192.954-2.304.674-2.305.561-2.304.28-2.305z"/><path style="fill:#fff;stroke:none;stroke-width:.673883;stroke-linecap:round;stroke-linejoin:round;stroke-miterlimit:10;stroke-dasharray:none;stroke-opacity:1" d="M78.565-4.402H69.87l8.524-31.814h8.697l-.844 3.148 1.353-1.068 1.419-.9 1.557-.786 1.595-.506 1.549-.337 1.545-.113h2.132l-2.214 8.263h-2.974l-1.264.112-1.325.337-1.273.563-1.262.73-1.067.843L85-24.862l-.862 1.124-.668 1.237-.387 1.237zM246.545-4.402h-8.697l8.525-31.814h8.696l-.843 3.148 1.352-1.068 1.42-.9 1.556-.786 1.595-.506 1.549-.337 1.545-.113h2.132l-2.214 8.263h-2.974l-1.264.112-1.325.337-1.273.563-1.261.73-1.068.843-1.015 1.068-.863 1.124-.668 1.237-.387 1.237z"/><path style="fill:#fff;stroke:none;stroke-width:.673514;stroke-linecap:round;stroke-linejoin:round;stroke-miterlimit:10;stroke-dasharray:none;stroke-opacity:1" d="m117.916-4.84-2.538.674-2.535.449-2.474.224-2.485.057-2.354-.225-1.12-.224-1.043-.505-.83-.674-.673-.841-.474-.954-.205-1.122-.02-1.179.218-1.234 5.051-18.853h-5.109l1.94-7.238h5.109l2.661-9.931 9.379-2.525-3.338 12.456h8.085l-1.94 7.238h-8.084l-4.15 15.486-.124.674.115.617.258.505.456.393.542.28.603.056 1.714-.112 1.704-.28 1.692-.45z"/><path style="fill:#fff;stroke:none;stroke-width:.673263;stroke-linecap:round;stroke-linejoin:round;stroke-miterlimit:10;stroke-dasharray:none;stroke-opacity:1" d="M161.76-48.941h9.091l-9.605 35.845H181l-2.33 8.694h-28.843z"/><path style="fill:#fff;stroke:none;stroke-width:2.6387;stroke-linecap:round;stroke-linejoin:round;stroke-miterlimit:10;stroke-opacity:1" d="m200.098-41.781.463 1.517 11.586-2.622-.838-3.107zM203.58-36.784l-1.643.146-1.608.34-1.59.55-1.55.768-1.519.981-1.482 1.2-.408.373-1.25 1.286-1.16 1.356-1.036 1.446-.912 1.534-.787 1.606-.673 1.715-.057.142-.5 1.659-.41 1.625-.284 1.623-.181 1.625-.069 1.59.017.948.16 1.588.322 1.483.481 1.353.623 1.234.786 1.104.589.679 1.053.912 1.217.73 1.336.537 1.482.34 1.609.141.785.017 1.625-.086 1.659-.232 1.714-.338 1.749-.465.732.25 1.232.463.193.16h5.644l-.09-1.072-.036-1.713.16-1.196.752-2.818.749-2.769.714-2.608.66-2.444.606-2.284.571-2.127.538-1.964.481-1.817.447-1.643.391-1.482.358-1.34.303-1.161.267-1.014.233-.843.18-.695.124-.534.086-.372h-6.515l-.373 1.443-.283-.25-.93-.52-1.233-.442-1.517-.322-1.838-.25-2.124-.125zm.282 7.641.786.056 1.427.391 1.358.749.463.394.86 1.144.302 1.335v.075l-.09 1.838-.232 1.693-.357 1.535-.516 1.375-.446.929-1.003 1.787-.997 1.41-1 1.053-.606.43-1.41.657-1.66.396-1.928.103-1.088-.142-1.181-.499-.857-.893-.515-1.267-.163-1.661v-.537l.124-1.675.306-1.518.107-.322.57-1.624.766-1.586.967-1.557.143-.214 1.177-1.337 1.482-1.233 1.642-.962z"/><path d="M241.13-44.407a4.375 4.375 0 0 1-4.375 4.375 4.375 4.375 0 0 1-4.375-4.375 4.375 4.375 0 0 1 4.375-4.374 4.375 4.375 0 0 1 4.375 4.374z" style="fill:#fff;fill-rule:evenodd;stroke:none;stroke-width:.362847;stroke-linecap:round;stop-color:#000"/><path style="fill:#fff;stroke:none;stroke-width:.207229;stroke-linecap:round;stroke-linejoin:round;stroke-miterlimit:10;stroke-opacity:1" d="m230.829-36.216-6.984 26.081-.09.43-.068.554v.57l.073.577.135.582.2.59.266.594.336.605.403.606.473.623h8.105l-.24-.305-.364-.524-.316-.537-.266-.563-.22-.584-.177-.602-.127-.621-.077-.64-.035-.668.015-.687 6.984-26.081zm0 0"/><path style="fill:#fff;stroke:none;stroke-width:.673514;stroke-linecap:round;stroke-linejoin:round;stroke-miterlimit:10;stroke-dasharray:none;stroke-opacity:1" d="m288.29-28.024-1.141-.56-1.186-.394-1.374-.112-1.377.112-1.438.337-.906.449-.88.561-.813.73-.675.841-.978 1.347-.784 1.459-.514 1.29-.417 1.347-.193 1.346-.009 1.29.081.955.321.898.52.785.733.617.834.45 1.089.336 1.133.168h1.236l1.224-.168 1.284-.393.906-.449.88-.561.757-.73.619-.841.652-1.178.54-1.179 1.354-5.05.016-.897-.112-.842-.294-.785-.494-.674zM268.56-3.84l1.32.729 1.493.505 1.523.393 2.549.336 2.624.057 2.418-.225.973-.28.921-.505.855-.674.715-.785.578-.898.368-.954.45-1.683-1.598.73-1.595.504-2.014.393-2.026.224-1.935-.112-1.736-.224-1.661-.505-1.489-.73-1.316-.954-1.062-1.066-.905-1.234-.634-1.403-.437-1.515-.252-1.57-.04-1.74.145-1.796.312-1.795.553-1.852.762-1.795.915-1.74 1.027-1.74 1.14-1.739 1.334-1.627 1.2-1.122 1.296-1.066 1.42-.898 1.445-.785 1.456-.618 1.962-.617 1.943-.336 1.94-.113 1.893.056 1.762.337 1.258.337 1.14.56.97.786.435-1.627h8.646l-8.194 30.58-.518 1.515-.728 1.459-.88 1.403-1.092 1.346-1.172 1.235-1.353 1.066-1.816 1.122-1.87.898-1.92.673-1.917.449-2.35.393-2.235.168-2.231-.056-2.144-.168-2.642-.618-2.485-.785-2.439-.954-2.252-1.234 5.978-7.014z"/><path style="fill:#fff;stroke:none;stroke-width:.673154;stroke-linecap:round;stroke-linejoin:round;stroke-miterlimit:10;stroke-dasharray:none;stroke-opacity:1" d="M314.017-23.928h12.9l.132-1.122-.107-1.066-.306-.954-.503-.842-.702-.729-.803-.561-.96-.393-1.062-.224h-1.122l-1.181.224-1.171.393-1.104.561-1.093.73-.954.841-.817.954-.678 1.066zm-1.917 7.575-.02 1.122.233 1.01.433.898.63.786.789.617 1.266.505 1.383.28 1.443.056 1.489-.112 1.563-.393 1.695-.673 1.642-.898 1.535-1.122 3.925 5.443-1.452 1.234-1.535 1.122-1.601.954-1.654.73-1.72.56-2.14.45-2.135.224-2.09.056-2.03-.168-1.914-.393-1.45-.449-1.349-.617-1.176-.842-1.034-.953-.934-1.123-.678-1.234-.593-1.347-.338-1.459-.244-2.02-.06-2.076.178-2.132.418-2.188.699-2.188.908-2.133 1.132-2.132 1.326-2.02 1.39-1.627 1.583-1.515 1.763-1.346 1.815-1.123 1.628-.841 1.71-.73 1.705-.505 1.702-.28 1.656-.112 1.611.056 1.552.28 1.506.45 1.349.616 1.176.842 1.173 1.066 1.015 1.234.73 1.46.548 1.514.278 1.684.109 2.525-.131 2.58-.426 2.638-.595 2.637h-21.199z"/><path style="fill:#fff;stroke:none;stroke-width:.504256;stroke-linecap:round;stroke-linejoin:round;stroke-miterlimit:10;stroke-dasharray:none;stroke-opacity:1" d="m216.48 648.95.336.883.504.841.672.757.756.588.84.463.966.294.966.126.966-.042.924-.21.924-.378.798-.505.714-.672.588-.8.462-.882.336-.967.21-.967.042-1.009-.084-1.009-.21-.967-.336-.925-.504-.882-.714-.757-.84-.63-.924-.505-1.008-.294-1.008-.085-1.05.042-1.008.253-.966.462-.84.589-.756.714-.588.883-6.93-1.093 2.52-17.32h20.665v6.18h-14.827l-.714 4.96 1.092-.672 1.134-.547 1.218-.42 1.26-.253 1.302-.084 1.26.042 1.302.21 1.218.379 1.176.504 1.093.673 1.008.757 1.008.967.882 1.05.756 1.136.546 1.135.336 1.177.252 1.808.084 1.85-.084 1.85-.21 1.807-.336 1.808-.378 1.219-.588 1.135-.672 1.05-.84.968-.924.883-1.05.714-1.135.589-1.47.546-1.512.42-1.554.253-1.596.084-1.554-.084-1.554-.252-1.512-.42-1.47-.59-1.176-.63-1.05-.715-.967-.882-.84-.967-.756-1.093-.588-1.135-.462-1.22-.294-1.26 6.595-1.893z"/><path style="fill:#fff;stroke:none;stroke-width:.503775;stroke-linecap:round;stroke-linejoin:round;stroke-miterlimit:10;stroke-dasharray:none;stroke-opacity:1" d="m242.858 630.11-.84 1.638-.672 1.721-.462 1.764-.42 2.057-.21 2.1-.042 2.14.042 2.1.21 2.1.42 2.099.462 1.763.672 1.68.84 1.637 1.008 1.553 1.05 1.092 1.218.966 1.26.798 1.387.671 1.47.504 1.47.294 1.554.168h2.016l1.512-.168 1.47-.294 1.47-.504 1.387-.671 1.26-.798 1.218-.966 1.05-1.092 1.008-1.553.84-1.638.673-1.679.504-1.763.378-2.1.21-2.1.042-2.098-.042-2.142-.21-2.1-.378-2.056-.504-1.764-.672-1.721-.84-1.638-1.009-1.511-1.05-1.092-1.218-.966-1.26-.84-1.386-.671-1.47-.462-1.47-.336-1.513-.168h-2.016l-1.554.168-1.47.336-1.47.462-1.387.672-1.26.84-1.218.965-1.05 1.092zm11.425 22.631-.966-.042-.924-.21-.882-.336-.84-.462-.756-.587-.63-.672-.546-.798-.42-.84-.547-1.553-.294-1.638-.21-2.015-.084-2.057.084-2.058.21-2.057.294-1.638.546-1.511.42-.882.547-.756.63-.713.756-.588.84-.462.882-.336.924-.21.966-.042.924.042.924.21.882.336.84.462.757.588.63.713.546.756.42.882.546 1.511.336 1.638.21 2.057.042 2.058-.042 2.057-.21 2.015-.336 1.638-.546 1.553-.42.84-.546.798-.63.672-.756.587-.84.462-.883.336-.924.21zM277.386 630.11l-.84 1.638-.672 1.721-.462 1.764-.42 2.057-.21 2.1-.042 2.14.042 2.1.21 2.1.42 2.099.462 1.763.672 1.68.84 1.637 1.008 1.553 1.05 1.092 1.218.966 1.26.798 1.387.671 1.47.504 1.47.294 1.554.168h2.016l1.513-.168 1.47-.294 1.47-.504 1.386-.671 1.26-.798 1.218-.966 1.05-1.092 1.009-1.553.84-1.638.672-1.679.504-1.763.378-2.1.21-2.1.042-2.098-.042-2.142-.21-2.1-.378-2.056-.504-1.764-.672-1.721-.84-1.638-1.009-1.511-1.05-1.092-1.218-.966-1.26-.84-1.386-.671-1.47-.462-1.47-.336-1.513-.168h-2.016l-1.554.168-1.47.336-1.47.462-1.387.672-1.26.84-1.218.965-1.05 1.092zm11.425 22.631-.966-.042-.924-.21-.882-.336-.84-.462-.756-.587-.63-.672-.546-.798-.42-.84-.546-1.553-.294-1.638-.21-2.015-.085-2.057.084-2.058.21-2.057.295-1.638.546-1.511.42-.882.546-.756.63-.713.756-.588.84-.462.882-.336.924-.21.966-.042.924.042.925.21.882.336.84.462.756.588.63.713.546.756.42.882.546 1.511.336 1.638.21 2.057.042 2.058-.042 2.057-.21 2.015-.336 1.638-.546 1.553-.42.84-.546.798-.63.672-.756.587-.84.462-.882.336-.925.21z"/><path style="fill:#fff;stroke:none;stroke-width:.960488;stroke-linecap:round;stroke-linejoin:round;stroke-miterlimit:10;stroke-dasharray:none;stroke-opacity:1" d="m-210.552-299.558.64 1.682.96 1.601 1.28 1.442 1.44 1.12 1.6.882 1.84.56 1.84.24 1.84-.08 1.76-.4 1.76-.72 1.52-.962 1.36-1.28 1.12-1.522.881-1.682.64-1.842.4-1.841.08-1.922-.16-1.922-.4-1.842-.64-1.761-.96-1.682-1.36-1.441-1.6-1.201-1.76-.961-1.92-.56-1.92-.161-2 .08-1.92.48-1.841.881-1.6 1.121-1.44 1.362-1.12 1.681-13.201-2.082 4.8-32.991h39.363v11.771h-28.242l-1.36 9.45 2.08-1.282 2.16-1.041 2.32-.8 2.4-.481 2.48-.16 2.4.08 2.48.4 2.321.72 2.24.961 2.08 1.282 1.92 1.441 1.92 1.842 1.68 2.002 1.44 2.162 1.04 2.162.641 2.242.48 3.443.16 3.523-.16 3.524-.4 3.443-.64 3.443-.72 2.322-1.12 2.162-1.28 2.002-1.6 1.842-1.76 1.682-2 1.361-2.16 1.121-2.801 1.041-2.88.8-2.96.481-3.04.16-2.96-.16-2.961-.48-2.88-.801-2.8-1.121-2.24-1.201-2-1.361-1.84-1.682-1.601-1.842-1.44-2.082-1.12-2.162-.88-2.322-.56-2.402 12.56-3.604z"/><path style="fill:#000;stroke:none;stroke-width:.719735;stroke-linecap:round;stroke-linejoin:round;stroke-miterlimit:10;stroke-dasharray:none;stroke-opacity:1" d="M7.195 386.739v-2.4l.12-2.039.36-2.04.54-1.919.84-1.859 1.019-1.8 1.2-1.619 1.379-1.44 1.559-1.319 1.56-.9 1.679-.72 1.739-.42 2.939-.42 2.938-.18 3 .12 2.938.36 1.86.42 1.798.66 1.08.54 1.86 1.38 1.559 1.62 1.379 1.799 1.14 1.979.72 2.1.479 2.159.24 2.159v2.22l-.24 2.219-.48 2.159-.72 2.1-.96 1.979-1.558 2.399-1.74 2.22-1.979 2.099-3.239 2.519-3.358 2.339-3.539 2.16H42.1v8.817H8.574v-8.818l5.878-3.659 4.138-2.639 4.018-2.819 3.899-2.999 2.279-1.98 2.099-2.159 1.26-2.039.66-1.44.419-1.439.18-1.56-.06-1.5-.24-1.559-.48-1.14-.66-1.019-.84-.9-1.019-.78-1.08-.6-1.379-.36-1.44-.239h-1.438l-1.38.18-1.38.36-1.199.54-1.02.78-.84.96-.719 1.139-.6 1.44-.42 1.559-.24 1.62v1.619z"/><path style="fill:#000;stroke:none;stroke-width:.720077;stroke-linecap:round;stroke-linejoin:round;stroke-miterlimit:10;stroke-dasharray:none;stroke-opacity:1" d="M-12.314 383.98h-7.924v-8.158l3.902-.36 1.201-.3 1.08-.54.961-.78.66-1.019.48-1.08.781-3.178h8.645v47.625h-9.786z"/><path style="fill:#000;stroke:none;stroke-width:.720376;stroke-linecap:round;stroke-linejoin:round;stroke-miterlimit:10;stroke-dasharray:none;stroke-opacity:1" d="m61.24 401.896.6 1.501.84 1.442 1.08 1.2 1.2 1.082 1.26.6 1.32.42 1.38.301 1.38.06 1.56-.06 1.56-.36 1.44-.66 1.38-.842.78-.9.6-1.021.36-1.202.12-1.561-.06-1.021-.24-.96-.48-.962-.6-.84-.78-.661-.84-.54-1.38-.361-1.44-.18-6-.36v-8.649l4.74-.36 1.62-.24 1.62-.48 1.2-.661 1.08-.901.6-.901.36-1.021.12-1.021-.12-1.081-.36-1.021-.72-.96-.84-.902-1.02-.66-1.08-.48-1.62-.301-1.62-.12-1.62.12-1.62.3-1.56.48-1.5.721-1.02.841-.84.961-.6 1.141-.42 1.201-.24 1.321-9.722-1.38.42-1.863.66-1.861.84-1.682 1.02-1.621 1.2-1.502 1.38-1.321 1.56-1.201 1.861-1.081 2.04-.901 2.04-.72 2.16-.481 2.16-.24 2.221-.06 2.16.18 2.16.42 2.1.6 2.04.781 1.561.841 1.44.961 1.32 1.141 1.14 1.321.96 1.442.78 1.561.54 1.622.36 1.681.18 1.742-.18 1.922-.3 1.922-.54 1.861-.6 1.141-.84 1.021-.96.841-1.08.66-1.2.481 1.38.6 1.32.781 1.08 1.021.9 1.202.66 1.32.54 2.463.24 2.462-.12 2.463-.36 2.402-.42 1.622-.66 1.561-.78 1.502-1.02 1.38-1.14 1.202-1.32 1.081-1.44.84-1.56.721-1.62.48-3.18.481-3.18.18-3.241-.06-3.18-.36-1.8-.42-1.8-.6-1.621-.782-1.62-1.02-1.38-1.202-1.56-1.922-1.32-2.102-1.02-2.222-.84-2.342-.54-2.402 9.72-1.562z"/><path style="fill:#000;stroke:none;stroke-width:.720069;stroke-linecap:round;stroke-linejoin:round;stroke-miterlimit:10;stroke-dasharray:none;stroke-opacity:1" d="m105.873 399.193 15.049-19.938v19.938zm-10.791 8.829h25.84v8.168h9.773v-8.168h6.115v-8.829h-6.115v-30.628h-12.471l-23.142 30.628z"/><path style="fill:#000;stroke:none;stroke-width:.719897;stroke-linecap:round;stroke-linejoin:round;stroke-miterlimit:10;stroke-dasharray:none;stroke-opacity:1" d="M-59.789 368.565h9.72v38.327h21.12v9.298h-30.84z"/></g></svg>