<svg width="2013.428" height="3417" viewBox="0 0 532.72 904.081" xmlns="http://www.w3.org/2000/svg"><defs><clipPath clipPathUnits="userSpaceOnUse" id="a"><path d="M72.063 254.103h451.15V799.37H72.063Z" transform="translate(-486.066 -550.289)"/></clipPath></defs><g transform="matrix(1.5 0 0 1.5 -168.302 180.231)" style="display:inline"><rect style="display:inline;fill:#000;fill-opacity:1;fill-rule:evenodd;stroke-width:.264999;stroke-linecap:round;stop-color:#000" width="354.794" height="602.368" x="112.378" y="-119.978" rx="11.024"/><rect style="display:inline;fill:#fff;fill-opacity:1;fill-rule:evenodd;stroke-width:.264999;stroke-linecap:round;stop-color:#000" width="354.088" height="601.663" x="112.731" y="-119.625" rx="10.583"/><rect style="display:inline;fill:#115ec6;fill-opacity:1;fill-rule:evenodd;stroke-width:.264999;stroke-linecap:round;stop-color:#000" height="585.788" x="120.668" y="-111.687" rx="21.167" width="338.213"/><path style="display:inline;fill:teal;fill-opacity:1;stroke:none;stroke-width:.223259;stroke-linecap:square;stroke-linejoin:miter;stroke-miterlimit:10;stroke-dasharray:none;stroke-opacity:1" d="M142.943-85.405h25.4v42.333h-25.4z"/><rect style="display:inline;fill:#fff;fill-opacity:1;fill-rule:evenodd;stroke:none;stroke-width:2.74455;stroke-linecap:round;stroke-miterlimit:4;stroke-dasharray:none;stop-color:#000" width="50.377" height="63.5" x="136.543" y="-95.812" rx="7.937"/><rect style="display:inline;fill:#000;fill-opacity:1;fill-rule:evenodd;stroke:none;stroke-width:2.74456;stroke-linecap:round;stroke-miterlimit:4;stroke-dasharray:none;stop-color:#000" width="45.085" height="58.208" x="139.189" y="-93.167" rx="5.821"/><path style="display:inline;fill:#fff;stroke:none;stroke-width:.639714;stroke-linecap:round;stroke-linejoin:round;stroke-miterlimit:10;stroke-dasharray:none;stroke-opacity:1" d="M146.823-77.392v-7.837h29.796v7.837l-14.285 34.496h-9.381l14.285-34.496z"/><path style="fill:#fff;stroke:none;stroke-width:.448329;stroke-linecap:round;stroke-linejoin:round;stroke-miterlimit:10;stroke-dasharray:none;stroke-opacity:1" d="M149.263 369.204h-5.155l4.766-17.787h5.155l1.026.074.938.262.871.374.794.523.652.635.499.785.367.86.198.934.066 1.009-.119 1.42-.268 1.42-.39 1.457-.54 1.457-.68 1.42-.587.935-.735.934-.818.822-.9.71-.992.635-1.027.486-1.024.336-1.069.224zm-1.667 5.942 1.402-.075 1.48-.224 1.445-.374 1.447-.523 1.44-.635 1.369-.785 1.323-.897 1.279-1.009 1.16-1.12 1.067-1.197.975-1.27.836-1.308.707-1.383.655-1.606.542-1.607.43-1.607.33-1.644.206-1.607.024-1.346-.125-1.345-.295-1.27-.426-1.196-.569-1.084-.738-1.009-.833-.934-.958-.747-1.09-.673-1.167-.523-1.254-.336-1.36-.225-1.362-.074h-11.168l-7.94 29.633zM247.476 369.204h-5.154l4.766-17.787h5.154l1.026.074.939.262.87.374.794.523.652.635.5.785.367.86.198.934.065 1.009-.119 1.42-.268 1.42-.39 1.457-.54 1.457-.68 1.42-.586.935-.736.934-.818.822-.9.71-.992.635-1.027.486-1.024.336-1.068.224zm-1.666 5.942 1.402-.075 1.48-.224 1.444-.374 1.447-.523 1.44-.635 1.369-.785 1.323-.897 1.28-1.009 1.159-1.12 1.067-1.197.976-1.27.836-1.308.706-1.383.655-1.606.543-1.607.43-1.607.329-1.644.206-1.607.024-1.346-.125-1.345-.294-1.27-.427-1.196-.569-1.084-.738-1.009-.833-.934-.957-.747-1.09-.673-1.167-.523-1.255-.336-1.36-.225-1.361-.074H242.58l-7.94 29.633z"/><path style="fill:#fff;stroke:none;stroke-width:.448102;stroke-linecap:round;stroke-linejoin:round;stroke-miterlimit:10;stroke-dasharray:none;stroke-opacity:1" d="M172.149 353.98h5.79l-3.382 12.617-.125.747-.05.746.118.672.278.635.468.485.694.336.792.112h.86l.908-.186.865-.3.83-.447.71-.56.666-.672.451-.71.275-.746 3.41-12.73h5.79l-5.671 21.167h-5.79l.4-1.493-1.001.672-1.074.522-1.119.41-1.088.3-1.114.112h-1.083l-1.172-.224-.984-.374-.868-.522-.801-.635-.622-.746-.554-.86-.375-.97-.148-1.12-.027-1.157.106-1.232.246-1.194z"/><path style="fill:#fff;fill-opacity:1;fill-rule:evenodd;stroke:none;stroke-width:.283383" d="m178.685 350.544.309.996 7.615-1.74-.558-2.066zm0 0"/><path style="fill:#fff;stroke:none;stroke-width:.448608;stroke-linecap:round;stroke-linejoin:round;stroke-miterlimit:10;stroke-dasharray:none;stroke-opacity:1" d="m201.39 361.683-.275.748-3.407 12.715h-5.792l5.671-21.167h5.793l-.4 1.496 1.039-.673 1.085-.561 1.082-.411 1.116-.262 1.087-.15 1.073.038 1.173.224.984.374.906.524.764.635.66.748.516.86.375.973.185 1.122.026 1.159-.134 1.197-.256 1.234-3.387 12.64h-5.792l3.377-12.603.163-.748.05-.748-.146-.71-.288-.599-.43-.486-.695-.336-.819-.15-.87.037-.862.15-.912.337-.793.448-.748.561-.63.673z"/><path style="fill:#fff;stroke:none;stroke-width:.448349;stroke-linecap:round;stroke-linejoin:round;stroke-miterlimit:10;stroke-dasharray:none;stroke-opacity:1" d="M270.587 375.146H264.8l5.671-21.167h5.786l-.56 2.094.899-.71.944-.598 1.036-.524 1.06-.337 1.031-.224 1.028-.075h1.419l-1.473 5.497h-1.979l-.84.075-.882.225-.847.374-.84.486-.71.56-.675.711-.574.748-.444.823-.258.823z"/><path style="fill:#fff;stroke:none;stroke-width:.448382;stroke-linecap:round;stroke-linejoin:round;stroke-miterlimit:10;stroke-dasharray:none;stroke-opacity:1" d="m297.009 358.317.796.374.623.599.482.71.34.823.118.673-.004.71-.172 1.197-.273 1.16-.348 1.159-.47 1.196-.377.711-.479.673-.78.823-.863.71-.944.599-.986.336-.899.15-.781-.15-.806-.336-.661-.599-.482-.71-.302-.823-.118-.673.004-.71.171-1.197.236-1.16.385-1.159.47-1.196.377-.711.48-.673.743-.823.862-.71.982-.599.996-.374.851-.112zm8.285 1.683-.015-.224-.202-1.197-.361-1.16-.55-1.009-.684-.935-.835-.785-.857-.561-.973-.412-1.03-.336-1.107-.187-1.137-.075-1.177.075-1.17.187-1.21.336-1.194.412-1.158.56-1.256.786-1.184.935-1.091 1.01-.983 1.159-.843 1.197-.135.224-.774 1.496-.635 1.533-.486 1.533-.336 1.534-.187 1.533-.017 1.458.004.262.202 1.197.371 1.122.541 1.047.683.935.835.785.868.524.962.448 1.03.337 1.07.187 1.137.075 1.178-.075 1.207-.187 1.21-.337 1.203-.448 1.148-.524 1.256-.785 1.184-.935 1.102-1.047.973-1.122.843-1.197.145-.262.764-1.458.635-1.533.448-1.534.373-1.533.187-1.533z"/><path style="fill:#fff;stroke:none;stroke-width:.448344;stroke-linecap:round;stroke-linejoin:round;stroke-miterlimit:10;stroke-dasharray:none;stroke-opacity:1" d="M318.517 353.98h-5.786l-5.672 21.166h5.786l3.407-12.715.275-.748.49-.71.627-.674.748-.56.792-.45 1.305-.41.458-.038.4.037.177.038.694.336.43.486.287.599.108.71-.014.748-.163.748-3.377 12.603h5.786l3.407-12.715.275-.748.452-.71.665-.674.748-.56.792-.45 1.305-.41.42-.038.438.037.14.038.693.336.43.486.325.599.108.71-.05.748-.164.748-3.377 12.603h5.786l3.387-12.64.293-1.235.097-1.196-.025-1.16-.185-1.121-.374-.973-.516-.86-.658-.748-.763-.636-.868-.523-.982-.374-1.172-.224-.923-.038-.963.112-.983.187-.94.3-.968.41-.934.562-.88.636-.835.747-.302-.822-.454-.673-.596-.561-.749-.412-.611-.224-1.172-.224-1.072-.038-1.086.15-1.115.262-1.08.41-1.084.562-1.04.673z"/><path style="fill:#fff;stroke:none;stroke-width:1.75559;stroke-linecap:round;stroke-linejoin:round;stroke-miterlimit:10;stroke-opacity:1" d="m356.512 353.6-1.092.098-1.07.227-1.058.365-1.032.511-1.01.653-.986.798-.271.248-.832.856-.772.902-.689.962-.606 1.02-.524 1.07-.448 1.14-.038.095-.332 1.103-.273 1.081-.19 1.08-.12 1.082-.046 1.058.011.63.107 1.057.214.986.32.9.415.821.522.736.392.45.701.608.81.485.889.358.986.226 1.07.094.523.01 1.08-.056 1.104-.154 1.14-.226 1.165-.308.487.165.82.309.128.106h3.755l-.06-.713-.024-1.14.106-.795.5-1.875.499-1.842.475-1.736.44-1.626.403-1.52.38-1.414.357-1.307.32-1.21.297-1.092.261-.986.238-.891.202-.773.177-.675.155-.56.12-.463.083-.355.057-.248h-4.335l-.248.96-.188-.166-.619-.346-.82-.294-1.01-.214-1.223-.167-1.413-.083zm.189 5.085.523.037.95.26.903.498.308.263.572.76.201.89v.048l-.06 1.224-.154 1.126-.238 1.021-.343.915-.297.618-.667 1.19-.664.937-.665.7-.403.286-.939.438-1.103.263-1.284.069-.723-.095-.786-.332-.57-.594-.343-.843-.109-1.105v-.357l.083-1.115.203-1.01.072-.214.38-1.08.509-1.056.643-1.035.095-.143.783-.889.986-.82 1.093-.64z"/><path style="fill:#fff;stroke:none;stroke-width:.448047;stroke-linecap:round;stroke-linejoin:round;stroke-miterlimit:10;stroke-dasharray:none;stroke-opacity:1" d="M344.17 420.125v-21.46l8.964 12.988 8.965-12.988v21.46h6.05v-29.633h-7.768l-7.247 10.487-7.246-10.487h-7.807v29.633z"/><path style="fill:#fff;stroke:none;stroke-width:.448329;stroke-linecap:round;stroke-linejoin:round;stroke-miterlimit:10;stroke-dasharray:none;stroke-opacity:1" d="M152.623 414.183h-5.154v-17.787h5.155l1.045.075 1.009.261.971.374.934.523.822.635.71.785.597.86.448.934.336 1.009.262 1.42.112 1.42v1.457l-.15 1.458-.298 1.42-.336.934-.486.934-.598.822-.71.71-.821.635-.897.486-.933.336-1.009.225zm-.074 5.942 1.382-.075 1.42-.224 1.344-.374 1.307-.523 1.27-.635 1.158-.785 1.083-.897 1.009-1.009.86-1.12.746-1.196.635-1.27.486-1.309.336-1.382.224-1.607.112-1.607v-1.607l-.112-1.644-.224-1.607-.336-1.345-.486-1.346-.635-1.27-.747-1.196-.859-1.084-1.008-1.009-1.084-.934-1.158-.747-1.27-.673-1.307-.523-1.345-.336-1.42-.225-1.381-.074H141.38v29.633zM253.165 414.183h-5.155v-17.787h5.155l1.046.075 1.009.261.97.374.935.523.821.635.71.785.598.86.448.934.336 1.009.262 1.42.112 1.42v1.457l-.15 1.458-.299 1.42-.336.934-.485.934-.598.822-.71.71-.821.635-.897.486-.934.336-1.008.225zm-.075 5.942 1.383-.075 1.419-.224 1.345-.374 1.307-.523 1.27-.635 1.158-.785 1.083-.897 1.009-1.009.859-1.12.747-1.196.635-1.27.485-1.309.337-1.382.224-1.607.112-1.607v-1.607l-.112-1.644-.224-1.607-.337-1.345-.485-1.346-.635-1.27-.747-1.196-.86-1.084-1.008-1.009-1.083-.934-1.158-.747-1.27-.673-1.307-.523-1.345-.336-1.42-.225-1.382-.074h-11.168v29.633z"/><path style="fill:#fff;stroke:none;stroke-width:.448247;stroke-linecap:round;stroke-linejoin:round;stroke-miterlimit:10;stroke-dasharray:none;stroke-opacity:1" d="m197.063 409.923-.224 1.383-.374 1.308-.56 1.27-.635 1.196-.821 1.121-.896 1.047-1.046.934-1.12.785-1.195.672-1.27.523-1.343.374-1.345.224-1.381.075-1.382-.075-1.344-.224-1.307-.374-1.307-.523-1.194-.672-1.12-.785-1.009-.934-.933-1.047-.784-1.12-.672-1.197-.523-1.27-.374-1.308-.261-1.383-.075-1.382v-18.05h6.087v18.05l.074 1.009.224.934.374.897.522.822.635.747.71.636.858.523.897.373.933.225.97.074.972-.074.97-.225.897-.373.821-.523.747-.636.635-.747.485-.822.373-.897.224-.934.075-1.01v-18.048h6.086v18.049zM328.931 409.923l-.224 1.383-.373 1.308-.56 1.27-.635 1.196-.822 1.121-.896 1.047-1.045.934-1.12.785-1.195.672-1.27.523-1.344.374-1.344.224-1.382.075-1.381-.075-1.345-.224-1.306-.374-1.307-.523-1.195-.672-1.12-.785-1.008-.934-.934-1.047-.784-1.12-.672-1.197-.523-1.27-.373-1.308-.262-1.383-.074-1.382v-18.05h6.086v18.05l.075 1.009.224.934.373.897.523.822.635.747.709.636.859.523.896.373.933.225.971.074.971-.074.97-.225.897-.373.821-.523.747-.636.635-.747.485-.822.374-.897.224-.934.074-1.01v-18.048h6.087v18.049z"/><path style="fill:#fff;stroke:none;stroke-width:.448047;stroke-linecap:round;stroke-linejoin:round;stroke-miterlimit:10;stroke-dasharray:none;stroke-opacity:1" d="M213.16 390.492h-6.91v29.633h6.051v-20.042l13.26 20.042h6.948v-29.633h-6.089v20.041z"/><path style="fill:#fff;stroke:none;stroke-width:.447959;stroke-linecap:round;stroke-linejoin:round;stroke-miterlimit:10;stroke-dasharray:none;stroke-opacity:1" d="M279.681 395.978h7.057l.71.075.635.224.634.298.523.448.448.522.299.635.224.634.074.71-.074.671-.224.672-.299.597-.448.56-.523.41-.634.336-.635.224-.71.038h-7.057zm-6.048-5.486v29.633h6.048v-11.57h3.958l6.758 11.57h7.057l-7.094-12.092 1.083-.485 1.045-.635.934-.746.821-.896.71-.97.56-1.045.448-1.12.261-1.157.112-1.194-.037-1.232-.224-1.157-.336-1.157-.523-1.082-.672-1.008-.747-.933-.896-.784-1.008-.671-1.083-.56-1.12-.373-1.195-.262-1.195-.074z"/><path style="display:inline;fill:#fff;stroke:none;stroke-width:.595132;stroke-linecap:round;stroke-linejoin:round;stroke-miterlimit:10;stroke-dasharray:none;stroke-opacity:1" d="M150.297 189.838h8.719l.876.106.785.32.784.427.646.64.553.746.37.906.276.907.092 1.013-.092.96-.277.96-.369.852-.553.8-.646.586-.784.48-.785.32-.876.053h-8.719zM142.824 182v42.333h7.473v-16.528h4.89l8.35 16.528h8.719l-8.765-17.274 1.338-.693 1.291-.907 1.154-1.066 1.014-1.28.877-1.386.692-1.493.554-1.6.322-1.652.139-1.706-.046-1.76-.277-1.652-.415-1.653-.646-1.546-.83-1.44-.923-1.333-1.107-1.12-1.246-.96-1.338-.799-1.384-.533-1.476-.373-1.476-.107z"/><path d="m265.47 201.69-.075.748-.224.71-.336.635-.486.598-.56.486-.673.336-.71.224-.746.075-.747-.075-.71-.224-.673-.336-.56-.486-.485-.598-.337-.635-.224-.71-.074-.747V191.08l.074-.748.224-.71.337-.635.485-.598.56-.485.673-.337.71-.224.747-.075.747.075.71.224.672.337.56.485.486.598.336.635.224.71.075.748zm-14.381.038.074 1.121.225 1.158.373 1.084.523 1.009.672.897.747.822.86.71.933.635 1.009.485 1.046.374 1.083.224 1.12.112h1.084l1.12-.15 1.084-.298 1.008-.411 1.009-.523-7.844 15.356h7.62l5.565-10.91.672-1.457.486-1.495.374-1.569.224-1.57.074-1.606v-15.954l-.074-1.121-.224-1.121-.374-1.046-.486-1.01-.672-.933-.747-.86-.859-.71-.971-.635-1.009-.448-1.457-.486-1.456-.299-1.494-.15h-1.494l-1.495.15-1.456.3-1.457.485-1.009.448-.97.636-.86.71-.747.859-.672.934-.486 1.009-.373 1.046-.225 1.12-.074 1.122z" style="fill:#fff;fill-opacity:1;stroke:none;stroke-width:.448301;stroke-linecap:round;stroke-linejoin:round;stroke-miterlimit:10;stroke-dasharray:none;stroke-opacity:1"/><path d="m201.946 215.225-.074.746-.187.71-.373.671-.448.56-.596.486-.672.336-.709.224-.746.074-.746-.074-.71-.224-.633-.336-.597-.486-.448-.56-.373-.671-.224-.71-.075-.746V204.66l.075-.747.224-.709.373-.672.448-.56.597-.485.634-.373.709-.187.746-.075.746.075.709.187.672.373.596.485.448.56.373.672.187.71.074.746zm6.79-10.602-.074-1.158-.261-1.12-.373-1.082-.523-1.045-.671-.896-.746-.822-.858-.709-.933-.597-.97-.486-1.082-.373-1.082-.261-1.082-.112-1.12.037-1.081.15-1.082.26-1.045.411-.97.523L202.581 182h-7.611l-5.56 10.938-.634 1.419-.522 1.53-.373 1.53-.224 1.606-.074 1.568v15.94l.074 1.12.224 1.12.373 1.083.522 1.008.635.933.746.821.858.747.97.597 1.045.485 1.417.448 1.455.336 1.493.15h1.492l1.492-.15 1.493-.336 1.418-.448 1.044-.485.933-.597.858-.747.784-.821.634-.933.522-1.008.373-1.083.224-1.12.075-1.12z" style="fill:#fff;fill-opacity:1;stroke:none;stroke-width:.44784;stroke-linecap:round;stroke-linejoin:round;stroke-miterlimit:10;stroke-dasharray:none;stroke-opacity:1"/><path style="fill:#fff;fill-opacity:1;stroke:none;stroke-width:.448103;stroke-linecap:round;stroke-linejoin:round;stroke-miterlimit:10;stroke-dasharray:none;stroke-opacity:1" d="M219.339 210.148h6.76v5.077l.075.746.224.71.337.672.485.56.56.485.673.336.71.224.747.074.747-.074.71-.224.672-.336.56-.486.486-.56.336-.671.224-.71.075-.746v-6.57l-.075-.71-.224-.747-.336-.634-.486-.597-.56-.448-.673-.374-.71-.224-.746-.074h-3.175v-5.712h3.175l.747-.075.71-.186.672-.374.56-.485.486-.56.336-.672.224-.71.075-.746v-4.218l-.075-.747-.224-.71-.336-.671-.486-.56-.56-.485-.673-.336-.71-.224-.746-.075-.748.075-.71.224-.672.336-.56.485-.485.56-.337.672-.224.71-.074.746v2.762h-6.761v-4.069l.074-1.12.224-1.12.374-1.082.486-1.008.635-.934.784-.82.86-.747.97-.598 1.009-.485 1.457-.448 1.456-.299 1.494-.186h1.495l1.494.186 1.456.299 1.457.448 1.009.485.97.598.86.746.747.821.672.934.486 1.008.374 1.082.224 1.12.074 1.12v7.018l-.074.859-.187.821-.374.747-.485.71-.598.596-.71.486-.747.373-.821.187-.86.074.86.075.821.224.747.373.71.486.598.597.485.71.374.746.187.821.074.859v9.967l-.074 1.12-.224 1.12-.374 1.083-.486 1.008-.672.933-.747.821-.86.747-.97.597-1.009.485-1.457.448-1.456.336-1.494.15h-1.495l-1.494-.15-1.456-.336-1.457-.448-1.009-.485-.97-.597-.86-.747-.784-.821-.635-.933-.486-1.008-.374-1.083-.224-1.12-.074-1.12z"/><path style="fill:#fff;stroke:none;stroke-width:.448329;stroke-linecap:round;stroke-linejoin:round;stroke-miterlimit:10;stroke-dasharray:none;stroke-opacity:1" d="M228.626-25.025h-5.155v-17.787h5.155l1.046.074 1.009.262.97.374.935.523.821.635.71.785.598.86.448.933.336 1.01.262 1.42.112 1.42v1.457l-.15 1.457-.299 1.42-.336.934-.485.935-.598.822-.71.71-.822.635-.896.486-.934.336-1.008.224zm-.075 5.942 1.382-.075 1.42-.224 1.345-.374 1.307-.523 1.27-.635 1.158-.785 1.083-.897 1.009-1.009.859-1.121.747-1.196.635-1.27.485-1.308.337-1.383.224-1.607.112-1.607v-1.606l-.112-1.645-.224-1.607-.337-1.345-.485-1.345-.635-1.27-.747-1.196-.86-1.084-1.008-1.01-1.083-.933-1.158-.748-1.27-.672-1.307-.523-1.345-.337-1.42-.224-1.382-.075h-11.168v29.634z"/><path style="fill:#fff;stroke:none;stroke-width:.448247;stroke-linecap:round;stroke-linejoin:round;stroke-miterlimit:10;stroke-dasharray:none;stroke-opacity:1" d="m273.065-29.285-.224 1.383-.373 1.308-.56 1.27-.635 1.196-.821 1.12-.897 1.047-1.045.934-1.12.785-1.195.673-1.27.523-1.344.374-1.344.224-1.382.075-1.381-.075-1.344-.224-1.307-.374-1.307-.523-1.195-.673-1.12-.785-1.008-.934-.934-1.046-.784-1.121-.672-1.196-.523-1.27-.373-1.308-.261-1.383-.075-1.383v-18.049h6.086v18.05l.075 1.008.224.934.373.897.523.822.635.748.71.635.858.523.896.374.934.224.97.075.971-.075.971-.224.896-.374.822-.523.746-.635.635-.748.486-.822.373-.897.224-.934.075-1.009v-18.049h6.086v18.05z"/><path d="m304.974-31.863-.523-.86-.635-.785-.748-.71-.822-.56-.897-.449.785-.523.71-.672.56-.748.486-.822.337-.897.224-.934.075-.972-.075-.971-.224-.934-.374-.972-.486-.972-.635-.859-.71-.822-.822-.673-.897-.598-.934-.485-1.046-.337-1.047-.224-1.046-.075h-13.938v29.634h14.536l1.308-.15 1.233-.261 1.233-.486 1.158-.598 1.047-.748.86-.859.747-.972.597-1.083.412-1.159.261-1.196.075-1.233-.038-1.046-.15-1.009-.261-1.009zm-16.591-4.933v-6.278h6.726l.71.075.673.224.597.374.486.485.374.598.224.673.075.71-.075.673-.224.672-.374.598-.486.486-.597.41-.673.225-.71.075zm0 12.07v-7.4h7.025l.71.038.71.225.635.336.56.486.45.56.335.635.225.673.074.747-.074.71-.225.71-.336.636-.448.56-.56.449-.636.336-.71.224-.71.075h-7.025" style="fill:#fff;stroke:none;stroke-width:.448421;stroke-linecap:round;stroke-linejoin:round;stroke-miterlimit:10;stroke-dasharray:none;stroke-opacity:1"/><path style="fill:#fff;stroke:none;stroke-width:.447934;stroke-linecap:round;stroke-linejoin:round;stroke-miterlimit:10;stroke-dasharray:none;stroke-opacity:1" d="M313.228-48.717h6.048v23.849h13.142v5.785h-19.19z"/><path style="fill:#fff;stroke:none;stroke-width:.447866;stroke-linecap:round;stroke-linejoin:round;stroke-miterlimit:10;stroke-dasharray:none;stroke-opacity:1" d="M344.175-48.717v29.634h-6.046v-29.634z"/><path style="fill:#fff;stroke:none;stroke-width:.448048;stroke-linecap:round;stroke-linejoin:round;stroke-miterlimit:10;stroke-dasharray:none;stroke-opacity:1" d="M360.494-48.717h-6.91v29.634h6.051v-20.042l13.26 20.042h6.948v-29.634h-6.088v20.042z"/><path d="m230.883-94.703-.74.02-.732.056-.72.088-.718.124-.712.165-.705.199-.692.233-.692.273-.677.308-.679.342-.663.377-.664.417-.651.453-.164.123-.63.486-.61.506-.582.528-.554.541-.534.568-.5.582-.48.597-.452.622-.43.636-.398.658-.377.678-.348.69-.322.713-.144.343-.315.794-.288.76-.253.72-.227.67-.191.637-.089.335-.178.706-.15.698-.116.685-.096.678-.062.67-.034.657-.007.658.02.636.048.638.082.623.103.616.13.61.164.594.192.59.22.574.246.576.274.561.3.548.33.547.363.535.103.137.403.52.439.466.465.417.487.362.52.324.54.267.48.183.493.144.561.117.63.089.713.07.78.04.85.02h.184l.65-.02.692-.075.74-.117.786-.165.206-.047 3.06-.739.37.5.015.027.397.473.007.006h5.238l-.15-.63-.069-.644.013-.67.09-.7.13-.588 7.072-26.401h-4.334l-.52.43-.301.255-.623-.309-.623-.273-.63-.247-.63-.22-.63-.185-.637-.15-.637-.124-.644-.088-.642-.061-.644-.036zm-1.123 5.183.657.056.63.123.602.185.582.26.555.328.438.322.473.466.383.506.288.535.191.568.103.602.02.39-.013.61-.041.63-.062.644-.089.664-.108.677-.145.699-.158.712-.185.732-.212.753-.239.767-.26.782-.075.218-.33.904-.356.849-.363.802-.383.738-.403.686-.418.629-.431.576-.453.52-.465.459-.487.41-.498.35-.521.3-.535.24-.547.192-.569.13-.589.075-.527.02-.582-.026-.623-.09-.678-.15-.725-.212-.158-.048-.561-.212-.515-.253-.458-.288-.41-.335-.356-.377-.308-.418-.261-.452-.206-.5-.157-.54-.109-.576-.055-.624-.006-.656.047-.706.097-.738.15-.782.192-.828.02-.075.24-.823.253-.793.28-.768.31-.738.32-.72.35-.683.37-.659.39-.629.418-.603.438-.575.465-.541.48-.52.506-.493.528-.466.376-.301.76-.555.732-.451.7-.37.677-.268.65-.178.624-.083z" style="fill:#fff;fill-opacity:1;fill-rule:evenodd;stroke:none;stroke-width:.128494"/><path style="fill:#fff;stroke:none;stroke-width:.448104;stroke-linecap:round;stroke-linejoin:round;stroke-miterlimit:10;stroke-dasharray:none;stroke-opacity:1" d="m255.718-64.354-1.689.449-1.686.298-1.646.15-1.654.037-1.566-.15-.744-.149-.695-.336-.552-.448-.448-.56-.315-.634-.136-.747-.015-.784.146-.821 3.36-12.543h-3.399l1.29-4.816h3.4l1.77-6.608 6.24-1.68-2.22 8.288h5.378l-1.29 4.815h-5.379l-2.76 10.304-.083.448.077.41.17.336.304.262.361.186.401.038 1.14-.075 1.134-.187 1.126-.298z"/><path style="fill:#fff;stroke:none;stroke-width:.448157;stroke-linecap:round;stroke-linejoin:round;stroke-miterlimit:10;stroke-dasharray:none;stroke-opacity:1" d="M278.81-64.062h-5.793l3.38-12.615.163-.747.013-.746-.12-.672-.278-.634-.43-.485-.695-.336-.82-.15-.87.038-.871.186-.903.299-.792.448-.748.56-.629.671-.489.71-.274.746-3.41 12.727h-5.793l7.94-29.634h5.793l-2.67 9.965 1.04-.672 1.036-.522 1.12-.41 1.126-.3 1.076-.111h1.084l1.173.224.984.373.906.522.764.635.66.746.517.859.376.97.186 1.12.026 1.157-.133 1.194-.256 1.231z"/><path d="m329.457-72.657-.884 1.345-.975 1.27-1.077 1.234-1.291 1.195-1.383 1.122-1.435.896-1.508.748-1.514.635-1.539.448-1.574.3-1.523.111h-1.68l-1.464-.112-1.376-.299-1.299-.448-1.21-.635-1.07-.748-.955-.897-.81-1.158-.677-1.233-.498-1.345-.33-1.42-.159-1.495-.037-1.532.159-1.57.308-1.57.571-2.13.543-1.606.681-1.57.859-1.532.95-1.457 1.09-1.42 1.22-1.345 1.348-1.27 1.42-1.122 1.436-.897 1.48-.784 1.542-.598 1.539-.449 1.536-.299 1.523-.112h1.68l1.464.112 1.414.3 1.298.448 1.184.598 1.097.784.954.897.82 1.121.63 1.27.555 1.832.301 1.943-6.69 2.392.01-1.01-.104-1.008-.282-.897-.442-.86-.594-.71-.698-.598-.759-.373-.789-.262-.856-.15-.876-.074-.953.075-.974.15-.976.298-.959.374-.914.486-.88.635-.815.672-.733.785-.668.822-.53.86-.783 1.532-.597 1.532-.448 1.532-.383 1.57-.224 1.532-.027 1.494.058.897.228.822.312.785.455.673.549.598.644.523.758.374.826.261.884.187.923.037 1.028-.074 1.059-.187 1.06-.336.99-.486.981-.598.862-.71.808-.785.716-.86.586-.934.485-.971z" style="fill:#fff;stroke:none;stroke-width:.448241;stroke-linecap:round;stroke-linejoin:round;stroke-miterlimit:10;stroke-dasharray:none;stroke-opacity:1"/><path style="fill:#fff;stroke:none;stroke-width:.447871;stroke-linecap:round;stroke-linejoin:round;stroke-miterlimit:10;stroke-dasharray:none;stroke-opacity:1" d="M340.259-93.696h5.773l-6.263 23.373-.035.411.096.337.218.299.285.187.4.037 1.127-.037 1.158-.15-.73 5.086-1.878.337-1.848.224-1.865.15-.762-.075-.685-.224-.665-.3-.513-.448-.408-.561-.267-.673-.145-.711-.023-.748.136-.785z"/><path style="fill:#fff;stroke:none;stroke-width:1.75559;stroke-linecap:round;stroke-linejoin:round;stroke-miterlimit:10;stroke-opacity:1" d="m370.284-85.608-1.092.097-1.07.227-1.058.365-1.032.512-1.01.652-.986.798-.271.25-.832.854-.772.903-.689.962-.606 1.02-.524 1.07-.448 1.14-.038.094-.332 1.104-.273 1.081-.19 1.08-.12 1.081-.046 1.058.011.63.107 1.058.214.986.32.9.415.821.523.735.392.451.7.607.81.486.889.357.986.227 1.07.094.523.01 1.081-.056 1.104-.155 1.14-.225 1.164-.309.487.166.82.308.128.107h3.755l-.06-.713-.024-1.14.106-.796.5-1.875.5-1.842.474-1.735.44-1.626.403-1.52.38-1.415.357-1.307.32-1.209.298-1.093.26-.985.238-.892.202-.773.178-.674.154-.561.12-.462.083-.356.057-.248h-4.335l-.248.96-.188-.165-.618-.347-.821-.293-1.01-.215-1.223-.166-1.413-.083zm.189 5.084.523.037.95.26.903.499.308.262.572.761.2.889v.05l-.06 1.222-.153 1.127-.238 1.021-.343.915-.297.617-.667 1.19-.664.938-.666.7-.402.286-.939.438-1.103.263-1.284.069-.723-.095-.787-.332-.57-.594-.342-.843-.109-1.105v-.357l.083-1.115.203-1.01.072-.214.38-1.08.509-1.056.643-1.035.095-.143.783-.89.986-.82 1.093-.64z"/><path style="fill:#fff;stroke:none;stroke-width:.448104;stroke-linecap:round;stroke-linejoin:round;stroke-miterlimit:10;stroke-dasharray:none;stroke-opacity:1" d="m394.994-64.354-1.688.449-1.686.298-1.647.15-1.653.037-1.566-.15-.745-.149-.694-.336-.552-.448-.448-.56-.316-.634-.136-.747-.014-.784.145-.821 3.361-12.543h-3.399l1.29-4.816h3.4l1.77-6.608 6.24-1.68-2.22 8.288h5.378l-1.29 4.815h-5.379l-2.76 10.304-.083.448.076.41.172.336.303.262.361.186.401.038 1.14-.075 1.134-.187 1.126-.298z"/><path style="fill:#fff;stroke:none;stroke-width:.448157;stroke-linecap:round;stroke-linejoin:round;stroke-miterlimit:10;stroke-dasharray:none;stroke-opacity:1" d="M418.086-64.063h-5.792l3.38-12.614.162-.747.014-.746-.12-.672-.278-.634-.43-.486-.695-.335-.82-.15-.87.038-.871.186-.903.299-.792.448-.748.56-.629.671-.489.71-.275.746-3.41 12.726h-5.792l7.94-29.633h5.793l-2.67 9.965 1.04-.672 1.036-.522 1.119-.41 1.126-.3 1.077-.112h1.084l1.173.224.984.374.906.522.764.635.66.746.517.858.376.97.185 1.12.027 1.157-.133 1.195-.256 1.231z"/><g style="fill:#fff;stroke:none"><path d="M1123.055 286.774a13.752 13.752 0 0 1-13.752 13.752 13.752 13.752 0 0 1-13.752-13.752 13.752 13.752 0 0 1 13.752-13.752 13.752 13.752 0 0 1 13.752 13.752z" style="fill:#fff;fill-rule:evenodd;stroke:none;stroke-width:1.14052;stroke-linecap:round;stop-color:#000" transform="matrix(.21167 0 0 .21167 121.995 -151.38)"/><path style="fill:#fff;stroke:none;stroke-width:.651374;stroke-linecap:round;stroke-linejoin:round;stroke-miterlimit:10;stroke-opacity:1" d="m1090.675 312.518-21.954 81.981-.283 1.351-.211 1.742v1.788l.229 1.817.423 1.828.63 1.853.836 1.87 1.057 1.9 1.265 1.906 1.487 1.957h25.477l-.753-.957-1.147-1.649-.992-1.688-.835-1.77-.696-1.835-.552-1.892-.401-1.953-.24-2.01-.111-2.1.047-2.158 21.953-81.98zm0 0" transform="matrix(.21167 0 0 .21167 121.995 -151.38)"/></g><path d="m223.42-98.582.328 1.164 12.858-3.176-.712-2.486zm0 0" style="fill:#fff;stroke:none;stroke-width:.0912307;stroke-linecap:round;stroke-linejoin:round;stroke-miterlimit:10;stroke-opacity:1"/><path d="m163.708 263.364-.883 1.345-.975 1.27-1.078 1.234-1.29 1.195-1.384 1.121-1.435.897-1.507.748-1.515.635-1.539.448-1.573.3-1.524.111h-1.68l-1.463-.112-1.377-.299-1.298-.448-1.212-.635-1.069-.748-.954-.897-.81-1.158-.678-1.233-.498-1.345-.329-1.42-.16-1.495-.037-1.532.16-1.57.308-1.57.57-2.13.543-1.606.682-1.57.858-1.532.951-1.457 1.09-1.42 1.22-1.345 1.348-1.27 1.42-1.122 1.435-.897 1.48-.785 1.542-.597 1.539-.449 1.536-.299 1.524-.112h1.68l1.463.112 1.414.3 1.299.448 1.184.597 1.096.785.955.897.82 1.121.63 1.27.555 1.832.3 1.943-6.69 2.391.01-1.009-.103-1.008-.283-.897-.442-.86-.593-.71-.699-.598-.759-.373-.788-.262-.856-.15-.876-.074-.954.075-.973.149-.977.299-.959.374-.914.485-.88.636-.815.672-.733.785-.668.822-.529.86-.784 1.532-.597 1.532-.448 1.532-.383 1.57-.224 1.532-.027 1.494.058.897.228.822.312.785.455.673.55.598.643.523.759.374.826.261.883.187.924.037 1.028-.074 1.058-.187 1.06-.337.99-.485.981-.598.863-.71.807-.785.716-.86.587-.934.484-.971z" style="fill:#fff;stroke:none;stroke-width:.448243;stroke-linecap:round;stroke-linejoin:round;stroke-miterlimit:10;stroke-dasharray:none;stroke-opacity:1"/><path d="M204.12 245.342a2.91 2.91 0 0 1-2.911 2.911 2.91 2.91 0 0 1-2.911-2.91 2.91 2.91 0 0 1 2.91-2.911 2.91 2.91 0 0 1 2.911 2.91z" style="fill:#fff;fill-rule:evenodd;stroke:none;stroke-width:.241409;stroke-linecap:round;stop-color:#000"/><path style="fill:#fff;stroke:none;stroke-width:.137874;stroke-linecap:round;stroke-linejoin:round;stroke-miterlimit:10;stroke-opacity:1" d="m197.266 250.791-4.647 17.353-.06.286-.045.369v.378l.049.385.09.387.133.392.176.396.224.402.268.403.315.415h5.392l-.159-.203-.243-.349-.21-.357-.176-.375-.148-.388-.116-.4-.085-.414-.051-.426-.024-.444.01-.457 4.647-17.353zm0 0"/><path style="fill:#fff;stroke:none;stroke-width:.447971;stroke-linecap:round;stroke-linejoin:round;stroke-miterlimit:10;stroke-dasharray:none;stroke-opacity:1" d="m209.935 263.559-1.709-.448-.816-.299-.7-.448-.597-.56-.502-.634-.37-.71-.276-.783-.048-.934.073-.97.26-.971.372-.97.522-.971.64-.859.78-.821.825-.71.88-.634.96-.523.97-.41 1.003-.262 1.424-.298 1.384-.15h1.38l1.352.112 1.311.262 1.03.336.963.447.885.598.838.634.686.784-4.604 3.808-.788-.821-.94-.672-1.055-.523-.622-.186-.679-.112h-.71l-.796.186-.762.336-.717.448-.399.374-.26.41-.092.485.04.411.16.373.379.262 2.334.485 2.16.299.818.149.816.299.721.373.691.485.577.635.445.71.312.783.143.859.012.933-.101.933-.298.97-.399.934-.549.933-.735.934-.827.858-.92.784-1.001.672-1.036.523-1.576.448-1.573.298-1.57.15h-1.494l-1.49-.15-1.414-.298-1.234-.41-1.156-.56-1.005-.71-.9-.821-.785-.97 5.259-3.883.564.82.706.71.82.56.925.448 1.003.299 1.08.15h1.008l.78-.262.706-.41.426-.337.344-.448.168-.485.018-.485-.151-.411-.294-.299-1.306-.56-1.413-.298z"/><path style="fill:#fff;stroke:none;stroke-width:.447864;stroke-linecap:round;stroke-linejoin:round;stroke-miterlimit:10;stroke-dasharray:none;stroke-opacity:1" d="M231.023 258.967h8.581l.089-.746-.072-.71-.203-.634-.335-.56-.467-.486-.534-.373-.639-.261-.706-.15h-.746l-.787.15-.779.261-.734.373-.727.486-.635.56-.543.634-.451.71zm-1.276 5.04-.014.747.156.671.288.598.42.522.524.411.842.336.92.187.96.037.99-.075 1.041-.261 1.127-.448 1.093-.597 1.021-.747 2.612 3.621-.966.822-1.021.746-1.066.635-1.1.485-1.145.373-1.423.299-1.42.15-1.391.037-1.35-.112-1.274-.262-.965-.298-.897-.411-.783-.56-.688-.635-.62-.746-.453-.821-.394-.896-.225-.971-.162-1.344-.04-1.381.119-1.419.278-1.456.464-1.456.604-1.418.754-1.419.882-1.344.925-1.082 1.053-1.008 1.173-.896 1.208-.747 1.083-.56 1.137-.485 1.135-.336 1.132-.187 1.102-.074 1.072.037 1.032.187 1.002.298.898.41.782.56.78.71.676.821.486.971.364 1.008.185 1.12.073 1.68-.087 1.717-.284 1.755-.395 1.754h-14.105z"/><path style="fill:#fff;stroke:none;stroke-width:1.75559;stroke-linecap:round;stroke-linejoin:round;stroke-miterlimit:10;stroke-opacity:1" d="m179.56 250.413-1.093.097-1.07.227-1.058.365-1.032.512-1.01.652-.986.798-.272.249-.831.855-.772.903-.69.961-.606 1.021-.524 1.07-.447 1.14-.039.094-.331 1.104-.274 1.08-.189 1.081-.12 1.081-.046 1.058.011.63.106 1.058.215.986.32.9.414.821.523.735.392.451.7.607.81.485.89.358.986.227 1.07.094.522.01 1.082-.057 1.103-.154 1.14-.225 1.164-.309.487.166.82.308.129.107h3.755l-.06-.713-.024-1.14.106-.796.5-1.875.499-1.842.475-1.735.439-1.626.403-1.52.38-1.415.358-1.307.32-1.209.297-1.093.26-.985.239-.892.202-.773.177-.674.155-.561.12-.462.082-.356.057-.248h-4.334l-.248.96-.189-.165-.618-.347-.82-.293-1.01-.215-1.223-.166-1.413-.083zm.188 5.084.522.037.95.26.903.499.308.262.573.76.2.89v.05l-.06 1.222-.154 1.127-.238 1.02-.343.916-.297.617-.667 1.19-.663.938-.666.7-.403.286-.938.438-1.104.263-1.283.068-.724-.094-.786-.332-.57-.594-.343-.843-.108-1.105v-.358l.083-1.114.203-1.01.072-.214.38-1.08.508-1.056.644-1.035.095-.143.783-.89.986-.82 1.092-.64zM259.146 250.413l-1.093.097-1.07.227-1.057.365-1.032.512-1.01.652-.986.798-.272.249-.832.855-.772.903-.689.961-.606 1.021-.524 1.07-.448 1.14-.038.094-.332 1.104-.273 1.08-.189 1.081-.12 1.081-.046 1.058.01.63.107 1.058.214.986.32.9.415.821.523.735.392.451.7.607.81.485.889.358.986.227 1.07.094.523.01 1.081-.057 1.104-.154 1.14-.225 1.164-.309.487.166.82.308.128.107h3.755l-.06-.713-.024-1.14.106-.796.5-1.875.5-1.842.474-1.735.44-1.626.403-1.52.38-1.415.357-1.307.32-1.209.298-1.093.26-.985.238-.892.202-.773.178-.674.154-.561.12-.462.083-.356.057-.248h-4.335l-.248.96-.188-.165-.618-.347-.821-.293-1.01-.215-1.223-.166-1.413-.083zm.188 5.084.523.037.95.26.903.499.308.262.572.76.201.89v.049l-.06 1.223-.154 1.127-.238 1.02-.343.916-.297.617-.667 1.19-.663.938-.666.7-.403.286-.938.438-1.104.263-1.283.068-.724-.094-.786-.332-.57-.594-.343-.843-.108-1.105v-.358l.083-1.114.203-1.01.071-.214.38-1.08.51-1.056.642-1.035.096-.143.782-.89.987-.82 1.092-.64z"/><path style="fill:#fff;stroke:none;stroke-width:.447869;stroke-linecap:round;stroke-linejoin:round;stroke-miterlimit:10;stroke-dasharray:none;stroke-opacity:1" d="M277.592 242.325h5.773l-6.263 23.373-.035.411.096.337.218.299.285.187.4.037 1.127-.037 1.158-.15-.73 5.086-1.878.337-1.848.224-1.865.15-.762-.075-.685-.225-.665-.299-.513-.448-.408-.561-.267-.674-.145-.71-.023-.748.136-.785z"/><path d="m166.358 308.343-.523 1.345-.635 1.27-.747 1.234-.97 1.196-1.083 1.12-1.195.897-1.307.748-1.344.635-1.419.449-1.493.298-1.494.113h-1.68l-1.494-.113-1.456-.298-1.419-.449-1.381-.635-1.27-.748-1.195-.896-1.12-1.159-1.008-1.233-.859-1.345-.709-1.42-.56-1.495-.448-1.532-.261-1.57-.112-1.57v-2.13l.112-1.606.26-1.57.449-1.532.56-1.457.71-1.42.858-1.345 1.008-1.27 1.12-1.122 1.195-.897 1.27-.784 1.381-.598 1.42-.449 1.455-.299 1.494-.112h1.68l1.494.112 1.493.3 1.42.448 1.343.598 1.307.784 1.195.897 1.12 1.121.97 1.27 1.046 1.832.822 1.943-6.05 2.392-.26-1.01-.373-1.008-.523-.897-.672-.86-.784-.71-.86-.598-.858-.373-.859-.262-.896-.15-.896-.074-.933.075-.934.15-.896.298-.859.374-.784.486-.71.635-.634.672-.523.785-.448.822-.299.86-.373 1.532-.187 1.532-.037 1.532.037 1.57.187 1.532.373 1.494.3.897.447.822.523.785.635.673.71.598.783.523.859.374.896.261.934.187.933.037 1.008-.074 1.008-.187.971-.337.859-.485.821-.598.672-.71.598-.785.485-.86.336-.934.224-.971z" style="fill:#fff;stroke:none;stroke-width:.448243;stroke-linecap:round;stroke-linejoin:round;stroke-miterlimit:10;stroke-dasharray:none;stroke-opacity:1"/><path style="fill:#fff;stroke:none;stroke-width:.447798;stroke-linecap:round;stroke-linejoin:round;stroke-miterlimit:10;stroke-dasharray:none;stroke-opacity:1" d="M252.43 298.613v-11.309h6.082v29.634h-6.082v-12.54h-11.977v12.54h-6.082v-29.634h6.082v11.309z"/><path style="fill:#fff;stroke:none;stroke-width:.448137;stroke-linecap:round;stroke-linejoin:round;stroke-miterlimit:10;stroke-dasharray:none;stroke-opacity:1" d="m226.718 291.335-1.233-1.082-1.308-.933-1.42-.821-1.457-.71-1.532-.522-1.607-.41-1.607-.225-1.644-.074-1.607.074-1.607.224-1.607.411-1.158.448-1.084.56-1.009.709-.934.82-.822.897-.635.895-.486.97-.374 1.008-.261 1.045-.075 1.083.038 1.082.186 1.082.337 1.008.448 1.008.56.895.71.859.785.709 1.121.746 1.233.523 1.308.336 6.988 1.567.673.261.56.374.486.522.336.597.187.635.038.709-.112.672-.3.634-.41.56-.636.522-.71.411-.784.299-.822.149h-2.018l-1.159-.15-1.12-.223-1.084-.374-1.084-.485-1.27-.82-1.196-.897-1.084-1.045-5.157 3.957 1.084 1.12 1.158 1.044 1.233.933 1.308.821 1.42.672 1.607.523 1.682.373 1.681.261 1.682.112 1.719-.037 1.681-.15 1.682-.298 1.644-.448 1.121-.448 1.046-.597.972-.746.86-.859.747-.97.598-1.045.448-1.12.299-1.194.112-1.194-.037-1.195-.187-1.231-.336-1.157-.524-1.083-.672-.895-.785-.784-.822-.71-.934-.634-.972-.522-.934-.373-.972-.299-6.95-1.717-.486-.186-.448-.299-.374-.41-.299-.448-.15-.485-.074-.523.037-.522.187-.523.262-.448.598-.597.672-.448.785-.336.822-.186.822-.075 1.233.075 1.196.186 1.196.336 1.12.41 1.085.56 1.046.672.934.784 4.596-4.18"/><path d="M179.65 287.304h7.878l9.895 29.634h-6.646l-1.606-5.232h-11.164l-1.605 5.232h-6.646zm3.92 6.203-3.957 12.967h7.953z" style="fill:#fff;stroke:none;stroke-width:.448236;stroke-linecap:round;stroke-linejoin:round;stroke-miterlimit:10;stroke-dasharray:none;stroke-opacity:1"/><path style="fill:#fff;stroke:none;stroke-width:.448232;stroke-linecap:round;stroke-linejoin:round;stroke-miterlimit:10;stroke-dasharray:none;stroke-opacity:1" d="M288.415 311.145h-14.524v-6.502h12.135v-5.493H273.89v-6.091h13.404v-5.755h-19.49v29.634h20.61z"/><path style="fill:#fff;stroke:none;stroke-width:.447936;stroke-linecap:round;stroke-linejoin:round;stroke-miterlimit:10;stroke-dasharray:none;stroke-opacity:1" d="M296.704 287.304h6.048v23.849h13.142v5.785h-19.19z"/><path style="display:inline;fill:#fff;fill-opacity:1;stroke:none;stroke-width:.448173;stroke-linecap:round;stroke-linejoin:round;stroke-miterlimit:10;stroke-dasharray:none;stroke-opacity:1" d="M320.206 49.708V7.375h10.154l5.525 21.185 5.488-21.185h10.154v42.333h-6.758V15.82l-6.233 24.175h-5.302L327 15.819v33.89z"/><path d="m378.006 20.702-.075.747-.224.71-.336.671-.486.597-.598.448-.635.374-.71.224-.746.037-.747-.037-.71-.224-.672-.374-.56-.448-.486-.597-.374-.672-.187-.71-.074-.746v-4.218l.074-.747.187-.71.374-.671.485-.56.56-.485.673-.336.71-.224.747-.075.747.075.71.224.634.336.598.485.486.56.336.672.224.71.075.746zm-9.525 6.384-.86.037-.821.224-.785.373-.672.486-.598.597-.485.71-.374.746-.224.821-.075.859v9.967l.075 1.12.224 1.12.374 1.083.523 1.008.635.933.784.821.86.747.97.597 1.009.485 1.42.448 1.493.336 1.495.15h1.494l1.494-.15 1.456-.336 1.42-.448 1.046-.485.971-.597.86-.747.746-.821.635-.933.523-1.008.374-1.083.224-1.12.075-1.12V31.94l-.075-.859-.224-.821-.337-.747-.485-.709-.598-.597-.71-.486-.784-.373-.822-.224-.821-.037.821-.075.822-.224.785-.373.71-.485.597-.598.485-.709.337-.747.224-.82.075-.86v-7.018l-.075-1.12-.224-1.12-.374-1.045-.523-1.045-.635-.933-.747-.822-.859-.746-.971-.598-1.046-.485-1.42-.448-1.456-.298-1.494-.15h-1.494l-1.495.15-1.494.298-1.42.448-1.008.485-.97.598-.86.746-.784.822-.635.933-.523 1.045-.374 1.045-.224 1.12-.075 1.12v7.019l.075.858.224.821.374.747.485.71.598.597.672.485.785.373.821.224zm9.525 13.514-.075.746-.224.71-.336.671-.486.56-.598.486-.635.373-.71.187-.746.074-.747-.074-.71-.187-.672-.373-.56-.486-.486-.56-.374-.671-.187-.71-.074-.746v-6.533l.074-.747.187-.71.374-.671.485-.597.56-.448.673-.374.71-.186.747-.075.747.075.71.186.634.374.598.448.486.597.336.672.224.71.075.746z" style="display:inline;fill:#fff;fill-opacity:1;stroke:none;stroke-width:.448103;stroke-linecap:round;stroke-linejoin:round;stroke-miterlimit:10;stroke-dasharray:none;stroke-opacity:1"/><path style="display:inline;fill:#fff;stroke:none;stroke-width:.336258;stroke-linecap:round;stroke-linejoin:round;stroke-miterlimit:10;stroke-dasharray:none;stroke-opacity:1" d="M368.967 450.288h-4.34v15.874h4.34v-9.536l.056-.56.224-.533.336-.505.448-.421.503-.337.896-.308.336-.028.308.028.14.028.588.252.42.365.336.449.224.533.14.56.028.562v9.452h4.34v-9.537l.055-.56.196-.533.364-.505.448-.421.504-.337.896-.308.308-.028.336.028.112.028.588.252.42.365.364.449.224.533.112.56.028.562v9.452h4.339v-9.48l-.028-.926-.168-.898-.252-.869-.364-.841-.476-.73-.56-.645-.644-.56-.7-.478-.756-.392-.811-.28-.924-.169-.7-.028-.7.084-.7.14-.644.225-.644.308-.588.421-.532.477-.475.56-.392-.616-.476-.505-.56-.42-.644-.31-.504-.168-.924-.168-.812-.028-.784.112-.784.196-.727.309-.7.42-.644.506z"/><path style="display:inline;fill:#fff;stroke:none;stroke-width:.331887;stroke-linecap:round;stroke-linejoin:round;stroke-miterlimit:10;stroke-dasharray:none;stroke-opacity:1" d="M331.262 451.408h-3.652v-3.76l1.799-.165.553-.139.498-.248.443-.36.304-.47.221-.497.36-1.466h3.985v21.951h-4.51z"/><path style="fill:#fff;stroke:none;stroke-width:.336247;stroke-linecap:round;stroke-linejoin:round;stroke-miterlimit:10;stroke-dasharray:none;stroke-opacity:1" d="m356.476 466.162-3.95-6.193-1.709 1.765v4.428h-4.342v-22.225h4.342v11.912l5.52-5.55h5.798l-6.471 6.53 5.939 9.333z"/><path d="M-.037.022c0-1.26-1.08-2.303-2.305-2.303-.431 0-.863.143-1.223.36A34560.658 34560.658 0 0 1-40.98 19.684c-2.628-.684-5.256-1.405-7.885-2.124.685-2.628 1.404-5.181 2.124-7.809 14.868-8.568 30.682-17.756 45.587-26.36.683-.433 1.115-1.153 1.116-1.98L0-96.548h11.483V96.827c-1.908 1.91-3.815 3.78-5.759 5.724-1.909-1.909-3.817-3.78-5.724-5.724Z" style="display:inline;fill:#fff;fill-opacity:1;fill-rule:evenodd;stroke:none" transform="matrix(2.30412 0 0 -2.30412 405.964 243.705)" clip-path="url(#a)"/></g></svg>