<svg xmlns="http://www.w3.org/2000/svg" width="2262.6" height="3138" viewBox="0 0 598.646 830.263"><defs><clipPath id="a" clipPathUnits="userSpaceOnUse"><path d="M688.297 378.448v149.015s-.033 70.441 105 123.03c105.032-52.589 105-123.03 105-123.03V378.448h-210z" style="fill:#fff;stroke:#000;stroke-width:2;stroke-miterlimit:4;stroke-dasharray:none"/></clipPath></defs><g transform="translate(217.283 292.402)"><rect style="fill:#000;fill-opacity:1;fill-rule:evenodd;stroke:none;stroke-width:.105833;stop-color:#000" width="597.853" height="184.15" x="-216.887" y="353.446" rx="16.536"/><rect style="fill:#000;fill-opacity:1;fill-rule:evenodd;stroke:none;stroke-width:.105833;stop-color:#000" width="597.853" height="639.233" x="-216.887" y="-292.138" rx="16.536"/><rect style="fill:#fff;fill-opacity:1;fill-rule:evenodd;stroke:none;stroke-width:.105833;stop-color:#000" width="596.265" height="637.646" x="-216.093" y="-291.344" rx="15.875"/><rect style="fill:#804001;fill-opacity:1;fill-rule:evenodd;stroke:none;stroke-width:.105833;stop-color:#000" width="572.453" height="613.833" x="-204.187" y="-279.438" rx="31.75"/><path style="fill:#fff;stroke:#000;stroke-width:1px;stroke-linecap:butt;stroke-linejoin:miter;stroke-opacity:1" d="M706.041 689.081s-11.421 44.357-18.296 42.515c-6.875-1.842 2.298-35.002.707-46.58-3.89 15.467-15.984 39.145-18.915 38.36-2.932-.786 4.507-40.57 3.712-63.11-.424-12.02 33.676 26.252 33.676 26.252zM880.965 689.081s11.422 44.357 18.297 42.515c6.875-1.842-2.298-35.002-.707-46.58 3.889 15.467 15.983 39.145 18.915 38.36 2.931-.786-4.508-40.57-3.712-63.11.424-12.02-33.676 26.252-33.676 26.252z" transform="translate(-484.712 -524.556) scale(.71424)"/><path transform="translate(-34.024 -245.31) scale(.71424)" d="M48.875 199.344c-7.587 0-42.764 30.132-37.844 36.469 36.392 61.52 104.282 87.554 151.469 84.125 47.187 3.429 115.077-22.605 151.469-84.125 4.92-6.337-30.257-36.47-37.844-36.47s-26.508 19.829-33.5 53.126c18.018-12.567 28.585-25.846 31.031-31.406 3.088-7.021-6.002-7.536-7.187-7.282 7.534-8.274 10.587 1.009 9.969 2.531C265.41 243.45 210.3 280.935 162.5 279.938c-47.801.998-102.91-36.487-113.938-63.625-.618-1.522 2.435-10.805 9.97-2.53-1.186-.255-10.276.26-7.188 7.28 2.446 5.561 13.013 18.84 31.031 31.407-6.992-33.297-25.913-53.125-33.5-53.125z" style="fill:#fff;fill-opacity:1;stroke:#000"/><text xml:space="preserve" style="font-style:normal;font-variant:normal;font-weight:400;font-stretch:normal;font-size:120px;line-height:125%;font-family:IrishUnciAlphabet;-inkscape-font-specification:IrishUnciAlphabet;letter-spacing:0;word-spacing:0;fill:#000;fill-opacity:1;stroke:none" x="739.392" y="817.262" transform="translate(-484.712 -524.556) scale(.71424)"/><text xml:space="preserve" style="font-style:normal;font-variant:normal;font-weight:400;font-stretch:normal;font-size:120px;line-height:125%;font-family:'YY Uncial Most Irish';-inkscape-font-specification:'YY Uncial Most Irish';letter-spacing:0;word-spacing:0;fill:#000;fill-opacity:1;stroke:none" x="701.714" y="789.39" transform="translate(-484.712 -524.556) scale(.71424)"/><path style="fill:#000;fill-opacity:1;stroke:none" d="M979.224 562.452h5v5h-5zM985.224 562.452h5v5h-5z" transform="translate(-712.904 -481.31) scale(.71424)"/><path style="fill:#000;fill-opacity:1;stroke:none" d="M979.224 562.452h5v5h-5zM985.224 562.452h5v5h-5z" transform="translate(-712.904 -477.024) scale(.71424)"/><path style="fill:#000;fill-opacity:1;stroke:none" d="M979.224 562.452h5v5h-5zM985.224 562.452h5v5h-5z" transform="matrix(-.71424 0 0 .71424 876.983 -481.31)"/><path style="fill:#000;fill-opacity:1;stroke:none" d="M979.224 562.452h5v5h-5zM985.224 562.452h5v5h-5z" transform="matrix(-.71424 0 0 .71424 876.983 -477.024)"/><path d="M683.503 371.97v156.112s-.034 73.795 110 128.889c110.034-55.094 110-128.89 110-128.89v-156.11h-110z" style="fill:#fff;stroke:#000;stroke-width:2;stroke-miterlimit:4;stroke-dasharray:none" transform="translate(-484.712 -524.556) scale(.71424)"/><path style="fill:#fff;stroke:#000;stroke-width:2;stroke-miterlimit:4;stroke-dasharray:none" d="M688.297 378.448v149.015s-.033 70.441 105 123.03c105.032-52.589 105-123.03 105-123.03V378.448h-210z" transform="translate(-484.712 -524.556) scale(.71424)"/><g clip-path="url(#a)" transform="translate(-484.712 -524.556) scale(.71424)"><path style="fill:#e1dc00;fill-opacity:1;stroke:none" d="M687.297 377.448h212v274.045h-212z"/><path style="fill:#0b9d00;fill-opacity:1;stroke:none" d="M687.297 377.448h212v85h-212z"/><path style="fill:#fff;fill-opacity:1;stroke:none" d="M687.297 462.448h212v85h-212z"/><g style="fill:#009af3;fill-opacity:1"><path transform="matrix(.36201 0 0 1.0057 842.796 516.442)" d="M-39.123 30.83 9.674-53.687 58.471 30.83Z" style="fill:#009af3;fill-opacity:1;stroke:none"/><path style="fill:#009af3;fill-opacity:1;stroke:none" d="M-39.123 30.83 9.674-53.687 58.471 30.83Z" transform="matrix(.36201 0 0 1.0057 878.13 516.442)"/><path style="fill:#009af3;fill-opacity:1;stroke:none" d="M-39.123 30.83 9.674-53.687 58.471 30.83Z" transform="matrix(.36201 0 0 1.0057 807.462 516.442)"/><path transform="matrix(.36201 0 0 1.0057 772.128 516.442)" d="M-39.123 30.83 9.674-53.687 58.471 30.83Z" style="fill:#009af3;fill-opacity:1;stroke:none"/><path style="fill:#009af3;fill-opacity:1;stroke:none" d="M-39.123 30.83 9.674-53.687 58.471 30.83Z" transform="matrix(.36201 0 0 1.0057 736.794 516.442)"/><path transform="matrix(.36201 0 0 1.0057 701.46 516.442)" d="M-39.123 30.83 9.674-53.687 58.471 30.83Z" style="fill:#009af3;fill-opacity:1;stroke:none"/></g><g style="stroke:#000" transform="translate(422.847 24.535)"><rect transform="scale(1 -1)" style="fill:#ffef00;fill-opacity:1;stroke:#000" width="74" height="9.5" x="333.45" y="-425.413" rx="1.957" ry="1.957"/><rect transform="scale(1 -1)" ry="1.03" rx="1.957" y="-415.413" x="333.45" height="5" width="74" style="fill:#ffef00;fill-opacity:1;stroke:#000"/><rect style="fill:#ffef00;fill-opacity:1;stroke:#000" width="74" height="5" x="333.45" y="425.914" rx="1.957" ry="1.03"/></g><path style="fill:#ffef00;fill-opacity:1;stroke:#000;stroke-width:1.13557;stroke-miterlimit:4;stroke-dasharray:none" d="M206.697 80.993H170.09l18.303-31.703Z" transform="matrix(.4917 0 0 1.57714 700.663 306.711)"/><path style="fill:#ffef00;fill-opacity:1;stroke:#000;stroke-width:1.13557;stroke-miterlimit:4" d="M200.596 80.993H170.09l25.75-31.703Z" transform="matrix(.4917 0 0 1.57714 719.663 306.711)"/><path d="M345.45 409.913h15l-12.662-50z" style="fill:#ffef00;fill-opacity:1;stroke:#000;stroke-width:1;stroke-miterlimit:4" transform="translate(422.847 24.535)"/><path style="fill:#ffef00;fill-opacity:1;stroke:#000;stroke-width:1.01092;stroke-miterlimit:4" d="M334.038 409.908h10.406l-12.942-49.99s-.603 49.99 2.536 49.99zM406.861 409.908h-10.406l12.943-49.99s.602 49.99-2.537 49.99z" transform="translate(422.847 24.535)"/><path d="M297.2 364.565v10h-5.75v4.5h5.75v10.5h-12.75v-4.75h-3v4.75h-5v3h5v4.75h3v-4.75h12.937l2.063 35 2.062-35h12.938v4.75h3v-4.75h5v-3h-5v-4.75h-3v4.75H301.7v-10.5h5.75v-4.5h-5.75v-10zM439.2 364.565v10h-5.75v4.5h5.75v10.5h-12.75v-4.75h-3v4.75h-5v3h5v4.75h3v-4.75h12.937l2.063 35 2.062-35h12.938v4.75h3v-4.75h5v-3h-5v-4.75h-3v4.75H443.7v-10.5h5.75v-4.5h-5.75v-10z" style="fill:#fff;fill-opacity:1;stroke:#fff;stroke-width:4;stroke-linecap:round;stroke-linejoin:round;stroke-miterlimit:4;stroke-dasharray:none;stroke-opacity:1" transform="translate(422.847 24.535)"/><g transform="translate(422.016 32.633)"><path transform="translate(176.45 338.217)" d="m232.966 238.174-33.46-58.21" style="fill:none;stroke:#000;stroke-width:1px;stroke-linecap:butt;stroke-linejoin:miter;stroke-opacity:1"/><rect ry="1.515" rx="1.515" y="516.565" x="373.45" height="75" width="3.5" style="fill:#109c00;fill-opacity:1;stroke:#000;stroke-linejoin:round"/><rect transform="matrix(-.05284 .9986 -.99833 -.05778 0 0)" style="fill:#109c00;fill-opacity:1;stroke:#000;stroke-width:1.00001;stroke-linejoin:round;stroke-miterlimit:4;stroke-dasharray:none" width="3.072" height="62.948" x="501.484" y="-435.372" rx="1.33" ry="1.272"/><path transform="translate(176.45 338.217)" d="m226.4 242.72-26.516-55.18" style="fill:none;stroke:#000;stroke-width:1px;stroke-linecap:butt;stroke-linejoin:miter;stroke-opacity:1"/><path transform="translate(176.45 338.217)" d="M171.473 237.163s-18.94-25.758 5.051-51.139c29.8 1.137 52.528 3.536 52.528 3.536s-29.294 14.52-16.036 52.15c.436 1.625-27.022-19.699-41.543-4.547z" style="fill:#109c00;fill-opacity:1;stroke:#000;stroke-width:1px;stroke-linecap:butt;stroke-linejoin:miter;stroke-opacity:1"/><path transform="translate(176.45 338.217)" d="M155.058 240.699s3.283-10.48 28.032-2.147c24.749 8.334 42.68 9.092 46.215.253.877-1.52 10.354-3.41 1.641 9.47-.877 1.52-3.157 2.02-3.535 5.808-.38 3.789-11.743 19.446-51.14 9.723-5.72-1.533-21.213-3.914-21.213-23.107z" style="fill:#109c00;fill-opacity:1;stroke:#000;stroke-width:1px;stroke-linecap:butt;stroke-linejoin:miter;stroke-opacity:1"/><path transform="translate(176.45 338.217)" d="M161.75 235.875c-.65.158-1.247.356-1.781.563v10.187c.308 5.188 1.24 10.887 5.594 13.5-1.07-.567-3.813-7.195-3.813-10.594z" style="fill:#109c00;fill-opacity:1;stroke:#000;stroke-width:1px;stroke-linecap:butt;stroke-linejoin:miter;stroke-opacity:1"/><path transform="translate(176.45 338.217)" d="M161.75 242.972s23.992-.505 37.25 5.682 32.199-.758 32.199-.758M162.13 250.295s22.98-.883 36.112 4.925c13.132 5.808 29.295-1.01 29.295-1.01M163.266 255.599s25.38.252 36.492 4.924c11.111 4.672 23.233-.379 23.233-.379M159.857 242.972s-2.905.379-4.546 2.02M160.078 250.295s-2.494 0-2.62 1.39M160.647 236.213l36.34-51.153" style="fill:none;stroke:#000;stroke-width:1px;stroke-linecap:butt;stroke-linejoin:miter;stroke-opacity:1"/></g></g><g style="font-style:normal;font-variant:normal;font-weight:700;font-stretch:normal;font-size:33.8482px;line-height:125%;font-family:'Seanchló GC';-inkscape-font-specification:'Seanchló GC Bold';letter-spacing:0;word-spacing:0;fill:#000;fill-opacity:1;stroke:none"><path d="m694.387 663.805-2.257.141-2.493-.957a5.749 5.749 0 0 1-.459-.76 6.959 6.959 0 0 1-.29-.672 4.451 4.451 0 0 1-.18-.627c-.043-.205-.081-.415-.116-.629l-.23-1.37c-.04-.144-.082-.3-.124-.466l-.115-.457.019.016c-.141-.458-.482-.917-1.022-1.38l-.32-.273c-.032-.027-.053-.034-.064-.022l-.009-.008.046.023a9.91 9.91 0 0 0-.653-.028 7.34 7.34 0 0 0-.823.038 6.455 6.455 0 0 0-.932.165 5.98 5.98 0 0 0-.989.345 7.488 7.488 0 0 0-1.891 1 9.68 9.68 0 0 0-1.663 1.555 9.692 9.692 0 0 0-1.294 1.903 7.518 7.518 0 0 0-.686 2.014 5.736 5.736 0 0 0-.214 1.147 6.788 6.788 0 0 0-.001 1.05c.034.367.104.718.21 1.052.105.335.244.669.416 1l-.019-.015c.216.358.444.686.684.984.24.298.504.57.793.817l.34.29.094.08a.956.956 0 0 0 .084.065c.03.02.066.043.106.066l.18.105c.183.026.404.041.663.044.258.003.54-.013.849-.048a7.61 7.61 0 0 0 2.007-.526l3.634 1.395c-.717.267-1.364.48-1.94.64-.578.159-1.085.247-1.523.264l.009.008c-.07.017-.137.03-.204.038a1.58 1.58 0 0 1-.25.006 3.683 3.683 0 0 1-.368-.038 6.983 6.983 0 0 1-.558-.11l.036.015a3.134 3.134 0 0 1-.665-.137 9.054 9.054 0 0 1-.756-.28l.028.024a7.537 7.537 0 0 0-.399-.153c-.21-.077-.436-.16-.674-.25-.239-.09-.464-.174-.675-.251a17.626 17.626 0 0 1-.39-.146 6.616 6.616 0 0 1-1.09-.517 7.31 7.31 0 0 1-1.152-.846c-.754-.645-1.35-1.347-1.787-2.107a5.903 5.903 0 0 1-.774-2.432 6.54 6.54 0 0 1-.069-1.216 6.14 6.14 0 0 1 .183-1.263l-.008.009a9.463 9.463 0 0 1 2.111-4.262 9.509 9.509 0 0 1 3.883-2.747 8.845 8.845 0 0 1 1.12-.356c.37-.09.792-.151 1.264-.182.402-.026.83-.01 1.283.045.452.055.949.2 1.489.433l-.01-.008c.351.137.707.27 1.07.4.361.13.717.263 1.068.4l-.009-.008c.263.138.553.285.87.442.317.157.632.37.946.638.478.409.837.792 1.08 1.151.241.36.4.712.473 1.058l-.009-.008c.054.242.113.49.177.747.064.255.106.441.127.557l-.009-.008a86.805 86.805 0 0 0 .177 1.023c.02.11.041.212.063.307s.048.215.077.36l2.602 1.018z" style="font-weight:700;font-size:25.3862px;-inkscape-font-specification:'Seanchló GC Bold'" transform="translate(-484.712 -534.556) scale(.71424)"/><path d="M692.9 676.07c.21-.291.396-.608.558-.951.161-.344.274-.694.337-1.051.063-.358.063-.711 0-1.061a2.276 2.276 0 0 0-.437-.981 1.739 1.739 0 0 0-.39-.392h-.089a.214.214 0 0 0-.074.013l.007.005a2.78 2.78 0 0 0-.365.045 2.11 2.11 0 0 0-.352.104c-.121.047-.251.108-.39.185-.14.077-.294.178-.464.301l.013-.002a7.386 7.386 0 0 0-.504.485c-.18.188-.363.411-.55.668-.451.624-.743 1.181-.875 1.674l-.007-.005c-.155.584-.167 1.114-.036 1.59.13.475.386.876.766 1.203.062-.006.12-.015.172-.028a.774.774 0 0 1 .168-.02l-.007-.005c.164-.026.377-.093.64-.2.263-.107.505-.229.727-.365.179-.147.369-.321.57-.524.201-.202.395-.432.581-.689zm2.098.889c-.355.49-.783.935-1.283 1.334-.15.117-.32.217-.51.3-.192.083-.418.16-.68.231l.012-.002c-.116.04-.25.07-.405.093a4.024 4.024 0 0 1-.486.04 3.57 3.57 0 0 1-.515-.025 2.87 2.87 0 0 1-.493-.101l-1.406-.388-.423-.198a2.563 2.563 0 0 1-.452-.262c-.371-.27-.652-.568-.84-.898a3.376 3.376 0 0 1-.388-.983 3.366 3.366 0 0 1-.071-.938c.021-.3.06-.554.115-.76.16-.602.47-1.22.93-1.853l.139-.193c.082-.114.206-.267.371-.46.165-.192.38-.396.644-.61.177-.134.379-.252.606-.356.228-.104.474-.183.739-.238.265-.055.54-.083.829-.085.288-.002.58.033.878.103l1.413.393.478.227c.06.028.117.057.172.086.055.029.096.05.123.062l.165.12c.342.247.616.543.82.887.204.344.345.706.422 1.085.078.379.095.763.052 1.153-.043.39-.145.755-.305 1.097l.005-.007c-.11.232-.22.443-.328.633-.109.19-.218.36-.328.513zM700.772 676.577a.155.155 0 0 1 .02-.05.025.025 0 0 1-.002.02.084.084 0 0 0-.007.027zm5.152 9.463c-.212.317-.444.627-.694.927-.25.301-.514.563-.788.786a3.278 3.278 0 0 1-.843.508c-.287.115-.57.147-.85.096l-1.427-.362.11-.492c.251-.002.47-.036.655-.1.186-.064.359-.166.518-.305.16-.139.32-.318.478-.538.158-.22.335-.487.532-.8l2.46-3.931a.54.54 0 0 0 .067-.374 1.5 1.5 0 0 0-.145-.45 2.968 2.968 0 0 0-.29-.467 5.213 5.213 0 0 0-.362-.434c-.104.01-.213.023-.325.036-.112.013-.234.02-.366.02l.007.005a.638.638 0 0 1-.12.019c-.032 0-.063.003-.092.005l-.092.005a.996.996 0 0 0-.116.01l-3.408 5.448-2.313-.491 3.614-5.776a.54.54 0 0 0 .062-.383 1.764 1.764 0 0 0-.149-.467 2.779 2.779 0 0 0-.285-.475 5.667 5.667 0 0 0-.344-.423l-.128.013a6.37 6.37 0 0 1-.255.018l.005-.007a9.132 9.132 0 0 0-.377.029c-.1.01-.228.018-.384.024l-3.414 5.455-2.313-.49 3.67-5.867a4.253 4.253 0 0 0 .256-.474l-1.59-.35-.002-.48 1.666-.402 1.627.341c.458.287.656.657.594 1.11-.006.032-.006.05 0 .052a.08.08 0 0 0 .01-.034l.115-.001 1.646.344c.39.34.74.698 1.05 1.072.31.374.533.736.669 1.084l.289-.022a5.51 5.51 0 0 1 .304-.012l1.641.351c.323.292.617.59.88.894.265.304.477.6.637.887.16.287.26.555.303.803a.898.898 0 0 1-.11.649zM714.88 690.791c-.185.321-.392.64-.62.958a5.842 5.842 0 0 1-.734.843c-.26.244-.53.435-.81.572-.28.138-.56.191-.844.16l-1.448-.262.076-.499c.25-.02.466-.068.646-.145.181-.077.346-.19.496-.34.15-.15.296-.34.439-.57.142-.23.3-.51.475-.836l2.175-4.084c.133-.25.078-.558-.165-.927l.008.004a12.71 12.71 0 0 0-.347-.445 4.769 4.769 0 0 0-.311-.345 15.078 15.078 0 0 1-1.53.023l-3.009 5.648-2.342-.328 4.931-9.258c.047-.088.088-.173.121-.255.034-.082.065-.162.093-.24l-1.607-.227-.038-.49 1.65-.53 1.642.236c.244.13.415.28.513.453.098.172.15.353.155.542.006.19-.026.38-.095.573a4.15 4.15 0 0 1-.241.546l-1.31 2.459.285-.028c.106-.01.223-.025.352-.043l1.658.244c.074.073.136.126.185.159a2.657 2.657 0 0 1 .346.26c.071.06.168.157.29.289l-.007-.004c.207.21.387.422.54.636.151.215.272.424.36.627a1.8 1.8 0 0 1 .152.576.863.863 0 0 1-.09.48zM721.032 695.157c.077.003.17.004.28.003.111 0 .233 0 .368.004a53.115 53.115 0 0 1-.058-1.35 22.144 22.144 0 0 1-.003-1.259c.009-.215.014-.396.016-.54.002-.145.007-.287.016-.425a27.566 27.566 0 0 1 .087-1.066l-.206.153c-.088.066-.186.14-.292.224-.107.084-.216.168-.33.252-.112.084-.217.163-.313.239a8.953 8.953 0 0 1-.246.187 91.638 91.638 0 0 0-.607.487c-.15.122-.291.238-.423.35-.132.11-.258.219-.378.325-.12.106-.244.214-.372.324.847.732 1.484 1.442 1.911 2.13a13 13 0 0 1 .271-.02l.28-.017zm4.324 1.252.071.48-1.595.662-2.005-.155a5.125 5.125 0 0 0-.021-.408 26.237 26.237 0 0 0-.04-.42 21.337 21.337 0 0 1-.033-.35c-.009-.102-.014-.17-.018-.203-.442.004-.823.025-1.146.065l-1.807-.143c-.193-.38-.393-.73-.6-1.047a7.555 7.555 0 0 0-.633-.85 7.16 7.16 0 0 0-.204.203c-.068.069-.134.133-.2.193l-2.563-.208 2.266-1.995c.066-.06.19-.163.37-.31.18-.146.388-.314.62-.505.234-.19.481-.39.743-.6l.74-.596a78.426 78.426 0 0 1 .986-.783 17.179 17.179 0 0 1 1.791-1.194l2.127.144c-.131.832-.236 1.602-.316 2.31-.08.707-.125 1.368-.137 1.984-.008.313-.013.606-.016.88-.003.273.005.537.023.792l-.008-.004.021.407a35.445 35.445 0 0 0 .133 1.536zM730.89 696.943c.543.015.974-.065 1.294-.24.32-.175.565-.482.735-.92.16-.411.198-.81.116-1.199a2.805 2.805 0 0 0-.475-1.068l.008.003a1.844 1.844 0 0 0-.415-.355 3.171 3.171 0 0 0-.559-.278.295.295 0 0 1-.114-.035.253.253 0 0 0-.106-.032l-.212.012c-.023.074-.046.153-.07.238a1.788 1.788 0 0 1-.097.265l-1.46 3.47c.226.02.452.045.678.08.227.034.452.054.677.059zm-1.198.603a7.766 7.766 0 0 0-.192-.017 10.247 10.247 0 0 1-.148-.02.533.533 0 0 1-.11-.023 8.85 8.85 0 0 1-.438.813c-.178.296-.38.574-.607.833a3.686 3.686 0 0 1-.746.656 1.56 1.56 0 0 1-.861.27l-1.461-.084.008-.508c.257-.045.473-.122.647-.23.175-.11.329-.251.463-.426s.255-.385.363-.63c.107-.245.222-.524.343-.836l1.709-4.405c.068-.175.125-.345.17-.51l-1.628-.046-.092-.47 1.561-.709 1.662.03c.22.085.405.211.558.377.153.167.25.35.293.55a12.4 12.4 0 0 1 .312-.026c.117-.008.256-.005.417.01.161.015.346.047.554.097.207.049.448.126.722.233l.082.032c.373.144.695.354.966.63.272.275.483.58.634.912.152.333.242.674.27 1.022.029.348-.013.668-.126.958l-.012.033c-.081.208-.199.41-.353.605a2.15 2.15 0 0 1-.611.515 3.293 3.293 0 0 1-.91.347c-.354.083-.769.12-1.245.112l-.153.007c.213.279.385.56.514.843l-.008-.003c.012.017.046.089.101.214.056.126.117.276.185.45.068.174.137.357.208.549.07.191.128.361.17.51l1.59.05.202.352-1.737.726a12.05 12.05 0 0 0-.73-.019l-.653-.012a37.918 37.918 0 0 0-.54-.007c-.071-.5-.168-.991-.29-1.474a6.512 6.512 0 0 0-.451-1.272 10.887 10.887 0 0 0-.602-1.008z" style="font-weight:700;font-size:18.0524px;-inkscape-font-specification:'Seanchló GC Bold'" transform="translate(-484.712 -534.556) scale(.71424)"/><path d="M39.88-30.504c.603-.176 1.11-.394 1.522-.653.411-.26.715-.551.912-.876a2.095 2.095 0 0 1-.55-.676l-.004.011a1.747 1.747 0 0 1-.114-1.402c.078-.24.198-.451.36-.634.164-.183.35-.329.56-.439.21-.11.436-.177.68-.2.243-.025.485.002.724.08.247.08.46.203.637.369a2.039 2.039 0 0 1 .645 1.24c.034.242.025.48-.026.711-.197.606-.47 1.089-.818 1.447-.828 1.071-2.045 1.859-3.649 2.363z"/><path d="m771.05 695.636-1.881 1.256-2.636.423a5.749 5.749 0 0 1-.779-.426 6.955 6.955 0 0 1-.588-.436 4.445 4.445 0 0 1-.471-.452 14.09 14.09 0 0 1-.415-.485l-.888-1.07c-.107-.104-.22-.217-.34-.34l-.33-.338.025.004c-.352-.325-.878-.551-1.577-.68l-.414-.076c-.041-.007-.063-.003-.066.014l-.012-.002.051-.003a9.9 9.9 0 0 0-.579.303c-.22.124-.45.272-.693.446a6.458 6.458 0 0 0-.723.611c-.24.233-.467.498-.681.795a7.488 7.488 0 0 0-1.134 1.815 9.68 9.68 0 0 0-.658 2.18 9.692 9.692 0 0 0-.162 2.295c.04.717.18 1.412.417 2.086.102.405.233.772.391 1.099.158.327.334.63.526.91.214.3.45.567.71.804.259.236.546.455.862.656l-.024-.004c.366.201.728.37 1.085.508.357.136.723.24 1.097.308l.439.08.122.023a1.592 1.592 0 0 0 .23.017h.207c.173-.07.371-.167.596-.294.225-.127.462-.283.71-.468a7.606 7.606 0 0 0 1.472-1.463l3.844-.619c-.487.592-.94 1.101-1.358 1.528-.419.428-.814.759-1.184.993l.012.002c-.051.05-.103.095-.157.135a1.61 1.61 0 0 1-.213.131 3.67 3.67 0 0 1-.337.153 6.992 6.992 0 0 1-.538.184l.039-.005c-.193.091-.408.163-.645.216-.236.053-.5.1-.794.138l.037.007c-.06.006-.2.028-.422.068-.221.039-.458.08-.71.122-.25.042-.487.082-.708.121-.222.04-.358.063-.41.07a6.618 6.618 0 0 1-1.203.101c-.437 0-.91-.052-1.421-.154-.976-.179-1.843-.487-2.603-.924a5.903 5.903 0 0 1-1.891-1.715 6.543 6.543 0 0 1-.67-1.017 6.136 6.136 0 0 1-.476-1.184l-.002.012a9.463 9.463 0 0 1-.315-4.746 9.509 9.509 0 0 1 1.978-4.325c.251-.315.515-.605.79-.87.275-.264.61-.528 1.002-.792a6.939 6.939 0 0 1 1.132-.606c.42-.179.921-.303 1.505-.373l-.012-.002c.372-.057.747-.12 1.125-.19s.753-.133 1.125-.19l-.012-.003c.296-.013.621-.03.974-.054s.733.002 1.14.076c.617.114 1.12.265 1.51.454.39.19.703.415.941.677l-.012-.002c.168.182.344.367.528.556.184.19.313.329.39.418l-.013-.002a89.654 89.654 0 0 0 .667.797c.073.085.142.163.21.234.066.07.148.161.245.272l2.763-.426z" style="font-weight:700;font-size:25.3862px;-inkscape-font-specification:'Seanchló GC Bold'" transform="translate(-484.712 -534.556) scale(.71424)"/><path d="M775.663 709.474a6.45 6.45 0 0 0 .264-.093c.104-.039.219-.08.346-.122a52.73 52.73 0 0 1-.515-1.25c-.16-.405-.305-.8-.433-1.181a20.375 20.375 0 0 0-.17-.514 8.57 8.57 0 0 1-.13-.404 46.05 46.05 0 0 1-.281-1.032l-.141.214c-.061.092-.127.195-.199.31-.071.115-.146.232-.223.349-.078.117-.149.228-.213.332-.065.103-.12.19-.168.26a91.652 91.652 0 0 0-.405.665c-.099.166-.191.323-.278.472a19 19 0 0 0-.244.436c-.076.14-.156.284-.239.43 1.046.4 1.887.85 2.524 1.351.086-.04.168-.077.248-.112l.257-.111zm4.492-.3.23.427-1.274 1.168-1.937.537a5.558 5.558 0 0 0-.16-.375 26.206 26.206 0 0 0-.18-.382 20.145 20.145 0 0 1-.237-.502c-.414.154-.765.305-1.054.452l-1.748.483c-.312-.292-.619-.551-.921-.78a7.555 7.555 0 0 0-.885-.582 7.342 7.342 0 0 0-.123.26 4.35 4.35 0 0 1-.123.25l-2.48.679 1.45-2.648c.042-.08.122-.219.242-.418l.411-.687c.154-.258.318-.53.492-.817.175-.286.339-.557.492-.812a78.773 78.773 0 0 1 .66-1.073 17.178 17.178 0 0 1 1.276-1.734l2.048-.59c.161.826.325 1.586.492 2.278.167.692.35 1.329.549 1.912.1.297.194.574.285.833.09.258.188.503.292.736h-.009l.16.375c.05.122.108.252.17.39a36.173 36.173 0 0 0 .478 1.008zM787.388 707.325v-.07a5.426 5.426 0 0 0-.164-1.345 4.204 4.204 0 0 0-.482-1.174 2.904 2.904 0 0 0-.764-.844 1.836 1.836 0 0 0-1.013-.355l-.287.171a3.916 3.916 0 0 0-.27.18l-.485.21-.007 2.672c-.002.622.038 1.141.12 1.556.08.414.224.745.429.992.264.3.54.542.827.725.287.183.572.29.854.32.448-.405.763-.83.946-1.276h-.009c.202-.54.303-1.127.305-1.762zm2.223-.488c-.001.405-.05.812-.145 1.22a4.539 4.539 0 0 1-.426 1.136c-.189.35-.423.659-.703.929a2.73 2.73 0 0 1-.975.605 44.84 44.84 0 0 1-.689.245c-.235.082-.464.164-.688.245h.018c-.135.059-.29.1-.463.123a4.244 4.244 0 0 1-.569.033 3.079 3.079 0 0 1-1.348-.307 3.622 3.622 0 0 1-1.16-.915c-.311-.36-.517-.78-.62-1.262a7.797 7.797 0 0 1-.15-1.623l.016-6.055c0-.1-.002-.196-.008-.287a1.844 1.844 0 0 0-.034-.26l-1.527.57-.263-.442 1.21-1.249 1.554-.578c.552.001.907.194 1.065.576h-.01c.077.165.135.341.176.53.04.187.06.399.06.634l-.006 2.495a.201.201 0 0 0 .07-.036l1.377-.49h-.01c.26-.099.536-.148.83-.147a3.026 3.026 0 0 1 1.458.347c.425.23.783.541 1.073.933.29.391.51.849.662 1.372.151.524.226 1.076.225 1.658zM799.324 708.324c-.015.37-.05.749-.107 1.136-.056.387-.143.75-.26 1.086a3.336 3.336 0 0 1-.453.882c-.184.252-.409.429-.674.532l-1.405.438-.164-.477c.213-.134.382-.276.506-.428.125-.152.219-.329.282-.53.064-.203.105-.44.125-.71.02-.27.032-.59.035-.96l.039-4.627c.002-.282-.19-.53-.576-.746h.01a12.73 12.73 0 0 0-.514-.233c-.156-.066-.3-.12-.435-.162a15.08 15.08 0 0 1-1.346.729l-.054 6.399-2.228.792.088-10.489c0-.1-.003-.194-.011-.282a5.925 5.925 0 0 0-.029-.256l-1.53.543-.26-.417 1.218-1.233 1.565-.55c.276.001.497.056.664.164.166.107.296.243.389.408.092.166.153.35.18.553.028.203.04.401.04.595l-.024 2.786c.07-.047.15-.1.24-.157.088-.058.185-.125.292-.2l1.582-.551c.1.03.18.048.238.055.059.006.122.014.19.023.067.01.146.025.237.046.09.022.221.062.391.123h-.009c.281.09.539.195.773.315.234.12.437.249.61.388.172.14.306.286.401.44.096.153.143.31.142.468zM806.828 709.731c.07-.031.154-.072.253-.122.098-.05.208-.103.33-.159-.229-.405-.446-.8-.651-1.185-.205-.385-.392-.76-.561-1.126a20.365 20.365 0 0 0-.226-.492c-.063-.13-.12-.26-.174-.387a46.306 46.306 0 0 1-.394-.994l-.118.228c-.05.099-.104.209-.162.331-.058.122-.12.246-.184.371-.064.126-.122.243-.175.354-.052.11-.098.202-.137.277a94.046 94.046 0 0 0-.328.706c-.08.176-.155.342-.224.5-.069.158-.134.311-.194.46-.06.149-.124.3-.19.455 1.084.28 1.97.634 2.658 1.061l.235-.139.242-.139zm4.43-.797.277.398-1.136 1.302-1.865.75a5.549 5.549 0 0 0-.2-.356 26.122 26.122 0 0 0-.222-.36 20.792 20.792 0 0 1-.291-.471c-.394.199-.727.388-.998.566l-1.683.674a11.642 11.642 0 0 0-1.002-.672 7.554 7.554 0 0 0-.944-.48c-.033.09-.064.18-.094.272-.03.092-.061.18-.094.263l-2.389.95 1.146-2.793c.033-.083.098-.23.194-.442l.332-.728c.125-.274.257-.563.399-.867.14-.304.274-.591.398-.863a78.453 78.453 0 0 1 .536-1.14 17.177 17.177 0 0 1 1.075-1.865l1.97-.814c.253.804.5 1.54.743 2.21.242.669.495 1.282.758 1.839.131.284.256.55.375.796s.243.48.373.699h-.009l.2.356c.065.116.136.239.213.369a35.62 35.62 0 0 0 .587.948zM812.277 712.169l-.208-.46c.199-.153.353-.31.462-.474.11-.163.187-.348.23-.555.044-.208.063-.447.057-.717-.006-.271-.025-.591-.057-.96l-.413-4.706a3.434 3.434 0 0 0-.082-.533l-1.471.678-.29-.382 1.087-1.325 1.504-.707c.27-.024.496.002.68.077.183.076.333.186.449.333.116.146.203.32.262.52.059.202.099.42.12.654l.253 4.207c.023.334.017.7-.02 1.095a6.166 6.166 0 0 1-.21 1.137 3.747 3.747 0 0 1-.427.976 1.578 1.578 0 0 1-.68.617zM821.294 706.205c.48-.254.816-.535 1.009-.845.193-.31.256-.697.189-1.163a2.067 2.067 0 0 0-.488-1.1 2.805 2.805 0 0 0-.938-.698l.01-.001a1.844 1.844 0 0 0-.537-.105c-.195-.011-.402 0-.623.032a.298.298 0 0 1-.117.025.253.253 0 0 0-.108.025l-.179.115.057.24c.021.087.036.18.045.28l.432 3.74a9.9 9.9 0 0 1 .63-.265c.213-.081.42-.174.618-.28zm-.748 1.114c-.062.026-.12.052-.176.078l-.139.056a.55.55 0 0 1-.106.033c.02.27.027.578.017.924-.01.346-.05.687-.12 1.023-.07.337-.18.65-.328.938a1.56 1.56 0 0 1-.617.66l-1.315.643-.242-.446c.202-.166.352-.339.45-.52.1-.18.164-.38.195-.597.03-.219.033-.46.007-.727a20.762 20.762 0 0 0-.111-.897l-.674-4.676a5.23 5.23 0 0 0-.103-.529l-1.44.76-.31-.365 1.011-1.384 1.463-.79c.232-.033.456-.015.67.055.216.07.39.182.525.335.076-.053.163-.111.26-.176.098-.064.22-.13.368-.195a4.14 4.14 0 0 1 .53-.188c.205-.06.453-.11.744-.152l.087-.012c.396-.057.78-.032 1.15.074.372.107.706.268 1.001.484.295.216.541.468.737.758.196.29.316.588.36.896l.006.035c.032.221.028.455-.01.7a2.151 2.151 0 0 1-.28.749 3.293 3.293 0 0 1-.623.749c-.267.246-.61.482-1.028.709l-.131.081c.322.138.61.298.862.482h-.01c.02.01.084.055.194.137.11.083.237.183.382.302.145.118.295.244.45.376.156.132.289.252.4.36l1.407-.736.351.207-1.158 1.485c-.017.003-.232.117-.645.342l-.574.31c-.174.094-.332.18-.475.26a14.029 14.029 0 0 0-.975-1.142 6.512 6.512 0 0 0-1.018-.886 10.843 10.843 0 0 0-1.02-.584z" style="font-weight:700;font-size:18.0524px;-inkscape-font-specification:'Seanchló GC Bold'" transform="translate(-484.712 -534.556) scale(.71424)"/><path d="M107.212-25.97c.436-.454.768-.895.996-1.324.227-.43.346-.834.355-1.214-.3-.05-.57-.154-.813-.313l.002.012a1.747 1.747 0 0 1-.797-1.16 1.756 1.756 0 0 1-.001-.73c.05-.24.14-.459.266-.658.128-.2.29-.37.49-.513.2-.142.423-.238.67-.29.253-.053.499-.052.735.003a2.039 2.039 0 0 1 1.177.755c.15.194.26.404.33.63.131.625.134 1.179.01 1.663-.186 1.341-.85 2.63-1.99 3.864z"/><path d="m855.508 685.117-1.014 2.022-2.08 1.673a5.749 5.749 0 0 1-.889.014 6.946 6.946 0 0 1-.726-.087 4.448 4.448 0 0 1-.634-.16 14.125 14.125 0 0 1-.6-.216l-1.301-.491c-.145-.037-.3-.08-.465-.127l-.452-.13.023-.008c-.467-.109-1.036-.045-1.707.189l-.397.14c-.04.013-.056.027-.05.043l-.012.004.042-.028c-.105.15-.222.334-.352.55-.13.216-.258.46-.382.73a6.455 6.455 0 0 0-.326.89c-.094.32-.16.664-.199 1.027a7.488 7.488 0 0 0-.087 2.138c.074.723.242 1.463.507 2.22.272.78.604 1.471.994 2.075.39.603.856 1.139 1.395 1.606.29.302.584.556.884.762.3.206.602.383.907.53.334.154.672.27 1.015.348.342.077.7.125 1.074.143l-.024.008a8.734 8.734 0 0 0 1.195-.096 6.16 6.16 0 0 0 1.105-.274l.421-.148.117-.04a.944.944 0 0 0 .098-.041c.034-.016.07-.036.11-.059l.181-.102c.116-.146.24-.329.373-.55.132-.222.26-.475.385-.759a7.606 7.606 0 0 0 .555-2l3.034-2.438a23.87 23.87 0 0 1-.424 2c-.152.578-.331 1.06-.537 1.448l.011-.004a1.71 1.71 0 0 1-.07.195 1.614 1.614 0 0 1-.12.22 3.674 3.674 0 0 1-.217.298 6.955 6.955 0 0 1-.376.427l.031-.024a3.13 3.13 0 0 1-.453.506c-.18.164-.387.335-.622.513l.035-.012c-.049.035-.16.124-.333.267-.173.144-.358.296-.556.457-.198.161-.383.314-.556.457-.173.144-.28.232-.322.264-.284.239-.616.466-.995.682-.38.216-.817.406-1.311.57-.936.327-1.843.489-2.72.484a5.898 5.898 0 0 1-2.491-.554 6.542 6.542 0 0 1-1.086-.552 6.135 6.135 0 0 1-1-.794l.004.012a9.463 9.463 0 0 1-2.62-3.969 9.509 9.509 0 0 1-.422-4.737c.062-.398.147-.78.256-1.146.108-.366.268-.761.479-1.185.18-.36.408-.723.684-1.086.275-.364.65-.72 1.123-1.07l-.012.005c.295-.234.59-.475.884-.722.294-.248.589-.489.883-.723l-.012.004c.252-.158.525-.334.82-.53.295-.194.638-.36 1.028-.496.593-.207 1.105-.325 1.537-.354.432-.028.816.013 1.153.123l-.012.004c.236.075.48.15.734.223.253.073.435.13.546.17l-.012.004a88.6 88.6 0 0 0 .973.362c.106.038.205.071.298.1.093.029.21.067.348.114l2.19-1.736z" style="font-weight:700;font-size:25.3862px;-inkscape-font-specification:'Seanchló GC Bold'" transform="translate(-484.712 -534.556) scale(.71424)"/><path d="M866.427 694.953c.052-.056.114-.126.187-.21.072-.083.153-.174.245-.272-.366-.288-.718-.57-1.054-.848a22.585 22.585 0 0 1-.947-.828 20.272 20.272 0 0 0-.396-.369 8.597 8.597 0 0 1-.309-.292 46.576 46.576 0 0 1-.743-.77l-.021.257c-.01.11-.017.233-.024.368a13.79 13.79 0 0 1-.029.413c-.011.14-.02.271-.027.393a9.38 9.38 0 0 1-.022.309 89.707 89.707 0 0 0-.035.778 21.369 21.369 0 0 0-.021 1.047c0 .16 0 .324-.002.493 1.109-.154 2.063-.164 2.862-.03a10.8 10.8 0 0 1 .164-.218l.171-.221zm3.793-2.424.407.263-.555 1.637-1.44 1.403c-.093-.08-.2-.165-.32-.253l-.342-.248a20.671 20.671 0 0 1-.449-.326c-.288.335-.524.636-.707.904l-1.3 1.264a11.643 11.643 0 0 0-1.182-.24 7.548 7.548 0 0 0-1.056-.085c.004.095.01.19.017.287.008.096.012.19.013.279l-1.847 1.788-.003-3.02c-.001-.089.003-.25.011-.482.01-.232.02-.499.03-.8.01-.3.024-.618.039-.953l.04-.949a80.535 80.535 0 0 1 .062-1.258 17.208 17.208 0 0 1 .285-2.134l1.51-1.503c.54.648 1.05 1.235 1.528 1.761a21.4 21.4 0 0 0 1.401 1.412c.23.213.447.41.65.593.204.183.408.351.611.505l-.008.004.32.253a35.623 35.623 0 0 0 1.242.914zM872.394 695.184l-.363-.351c.13-.216.215-.42.257-.611.042-.192.046-.392.01-.601a3.156 3.156 0 0 0-.21-.688c-.105-.25-.24-.54-.405-.872l-2.11-4.227a4.24 4.24 0 0 0-.272-.466l-1.12 1.17-.41-.248.526-1.632 1.14-1.21c.242-.12.462-.179.66-.176.199.003.379.05.54.144.162.094.307.223.436.389.128.165.245.353.35.564l1.779 3.821c.144.302.272.644.383 1.025.112.381.186.76.222 1.136.037.376.023.73-.04 1.064a1.578 1.578 0 0 1-.407.824zM878.652 686.355c.358-.408.572-.791.642-1.15.07-.358-.01-.742-.239-1.153a2.068 2.068 0 0 0-.849-.854 2.805 2.805 0 0 0-1.125-.317l.008-.004a1.83 1.83 0 0 0-.538.093c-.185.06-.376.144-.57.252a.297.297 0 0 1-.1.066.257.257 0 0 0-.092.061l-.127.171c.042.064.089.133.14.205.05.073.097.154.14.245l1.739 3.34c.158-.163.323-.32.494-.472.17-.152.33-.313.477-.483zm-.3 1.307a7.772 7.772 0 0 0-.137.137l-.11.101a.537.537 0 0 1-.088.07c.117.244.232.53.346.856.115.326.2.66.254.999.054.34.064.67.028.993a1.56 1.56 0 0 1-.342.836l-.998 1.07-.385-.33c.129-.227.208-.442.235-.646a1.744 1.744 0 0 0-.031-.628 3.048 3.048 0 0 0-.254-.681c-.12-.24-.26-.505-.424-.798l-2.298-4.128a5.24 5.24 0 0 0-.285-.457l-1.074 1.223-.42-.23.451-1.653 1.085-1.26c.205-.114.42-.177.646-.188.226-.011.429.03.61.125.051-.076.111-.162.18-.257.068-.095.159-.2.274-.314.114-.114.257-.235.427-.364.17-.129.385-.264.641-.407l.077-.043c.35-.195.717-.308 1.102-.341a3.163 3.163 0 0 1 1.107.095c.353.096.672.244.959.445.286.2.505.436.657.708l.017.031c.108.195.189.415.24.658.052.244.054.51.006.8a3.293 3.293 0 0 1-.314.92 5.092 5.092 0 0 1-.708 1.03l-.093.123c.35.013.676.06.977.142l-.008.004c.02.002.097.021.23.059.131.037.286.086.463.145.178.06.363.123.555.19.193.068.36.133.502.195l1.052-1.19.402.068-.552 1.8c-.015.01-.175.192-.48.55l-.426.495c-.13.149-.246.286-.35.412-.43-.265-.87-.505-1.32-.719a6.513 6.513 0 0 0-1.267-.465 10.866 10.866 0 0 0-1.16-.181zM888.948 679.59a6.285 6.285 0 0 0-.56-.746 4.221 4.221 0 0 0-.694-.638 3.493 3.493 0 0 0-.824-.448 2.682 2.682 0 0 0-.945-.17l.015-.01c-.194.013-.37.04-.529.081-.158.042-.31.106-.457.193a2.37 2.37 0 0 0-.206.44 1.723 1.723 0 0 0-.08.662c.012.264.08.575.203.932.123.357.335.77.635 1.241.41.645.82 1.116 1.225 1.414.227.17.462.307.707.412.245.105.507.174.785.206l-.007.005c.249.03.488.028.719-.004a2.12 2.12 0 0 0 .677-.218l.016-.073c.012-.056.03-.139.051-.247.022-.108.038-.238.049-.391.01-.153.01-.324.002-.514a3.58 3.58 0 0 0-.088-.613l.005.007a5.882 5.882 0 0 0-.698-1.52zm.85 4.268.007-.005c-.173.221-.427.44-.764.654-.334.199-.675.33-1.023.396-.349.066-.688.08-1.018.043a3.568 3.568 0 0 1-1.72-.665 4.191 4.191 0 0 1-.72-.654 7.048 7.048 0 0 1-.653-.875l-.128-.2c-.06-.095-.137-.223-.23-.387a3.644 3.644 0 0 1-.264-.594 4.11 4.11 0 0 1-.187-.801 4.343 4.343 0 0 1-.01-1.008c.01-.083.032-.182.066-.298a4.01 4.01 0 0 1 .146-.402l-.007.005c.038-.115.092-.233.162-.354l-.275.102c-.104.039-.217.079-.336.12l.005.008c-.232.085-.477.17-.737.255-.259.085-.473.154-.642.206a.25.25 0 0 0-.054.013 1.517 1.517 0 0 1-.151.034 4.347 4.347 0 0 1-.146.025c-.051.008-.098.017-.14.026a.343.343 0 0 0-.079.025l-.124-2.18c1.254.12 2.207.085 2.858-.107.154-.043.296-.091.425-.146.129-.054.26-.117.396-.19.135-.072.282-.157.44-.254.157-.097.34-.211.548-.344a2.936 2.936 0 0 1 1.12-.432 3.48 3.48 0 0 1 1.164.005c.38.067.744.191 1.089.372.345.18.645.405.9.675.176.187.332.367.47.537.136.171.255.336.356.494.341.535.594 1.096.758 1.68.048.186.076.388.083.607.007.218-.002.45-.027.696l.007-.005c-.01.083-.024.18-.045.29a3.839 3.839 0 0 1-.206.701c-.047.117-.1.223-.159.316a.87.87 0 0 0-.128.218l-.043.095a.727.727 0 0 1-.102.144zM890.94 673.932l.01-.017a.133.133 0 0 1-.002.012c-.003-.005-.006-.003-.007.005zm2.984 1.34-.021.015a2.37 2.37 0 0 0 .248-.32l.55-.7c.205-.589.201-1.032-.011-1.327a1.128 1.128 0 0 0-.612-.435 1.847 1.847 0 0 0-.827-.04l.007-.005c-.231.05-.515.19-.85.417-.065.293-.094.6-.088.92.007.322.054.613.142.876l.002-.012c.064.17.154.36.27.571.115.21.265.455.451.734zm3.886 2.003a.757.757 0 0 0 .23-.426 5.64 5.64 0 0 0 .05-.481l1.586-2.325c-.016.33-.034.615-.054.853a9.56 9.56 0 0 1-.07.627c-.028.179-.06.332-.098.46a1.536 1.536 0 0 1-.145.343l-.257.457-.783 1.161-.429.536c-.124.119-.26.238-.405.357-.146.12-.305.241-.476.365-.372.268-.745.44-1.117.516a3.386 3.386 0 0 1-1.974-.17c-.274-.115-.5-.23-.68-.348-.52-.342-1.009-.83-1.466-1.465l-.139-.193a11.06 11.06 0 0 1-.324-.489 3.823 3.823 0 0 1-.373-.812 2.855 2.855 0 0 1-.15-.94c-.002-.35.035-.714.11-1.094l.016-.022c.009-.028.024-.072.046-.132.023-.06.04-.111.051-.156l-.002.013-.005-.007c.043-.111.095-.226.154-.345a5.76 5.76 0 0 1 .202-.368l.826-1.191c.047-.085.1-.16.16-.224.058-.064.141-.152.248-.265l-.014.01a2.232 2.232 0 0 1 .353-.309 3.137 3.137 0 0 1 1.905-.59c.308.011.587.068.835.172.248.104.438.246.568.427.09.124.154.277.194.458.04.181.05.384.03.608a3.34 3.34 0 0 1-.51 1.464l-.463.67 1.166-.84s.01-.027.026-.083l1.079-1.58.462.189a3.205 3.205 0 0 1-.21.629 5.313 5.313 0 0 1-.319.598 9.96 9.96 0 0 1-.38.573c-.134.186-.264.373-.391.558l.014-.01c-.131.21-.369.439-.712.686l-2.318 1.668c.203.201.386.366.55.494.165.128.313.228.445.3a2.107 2.107 0 0 0 .637.236c.42.102.786.127 1.096.075.31-.053.598-.175.865-.368l.336-.242a.031.031 0 0 0 .012-.013.038.038 0 0 1 .012-.014zM905.717 670.47a6.37 6.37 0 0 0 .126-.25c.048-.099.104-.208.166-.327a52.79 52.79 0 0 1-1.237-.546 22.576 22.576 0 0 1-1.13-.553c-.19-.103-.35-.188-.478-.253a8.611 8.611 0 0 1-.374-.202c-.12-.07-.25-.145-.39-.229-.14-.083-.315-.19-.527-.321l.046.252c.02.109.044.23.072.362.028.132.055.268.08.406s.05.267.075.387c.026.12.045.22.06.304.014.083.024.133.03.15l.138.61c.043.188.085.366.126.533.041.167.083.329.125.483.043.155.084.314.126.477 1.031-.435 1.95-.693 2.756-.772.035-.088.068-.172.102-.252l.108-.258zm3.035-3.324.46.148-.11 1.725-1.026 1.729a5.528 5.528 0 0 0-.375-.162c-.139-.054-.27-.104-.395-.15a20.193 20.193 0 0 1-.518-.198c-.192.397-.341.75-.449 1.056l-.926 1.558c-.427.006-.829.03-1.205.075a7.55 7.55 0 0 0-1.042.192c.028.09.059.181.09.272.033.092.062.18.086.266l-1.32 2.206-.787-2.914a10.615 10.615 0 0 1-.114-.47l-.179-.78-.21-.93-.207-.927a77.36 77.36 0 0 1-.267-1.231 17.178 17.178 0 0 1-.279-2.135l1.07-1.844c.689.486 1.333.92 1.932 1.305.6.384 1.172.717 1.72 1 .277.146.537.28.781.404s.485.233.721.329l-.007.006.375.161a35.836 35.836 0 0 0 1.436.56z" style="font-weight:700;font-size:18.0524px;-inkscape-font-specification:'Seanchló GC Bold'" transform="translate(-484.712 -534.556) scale(.71424)"/><path d="M911.113 657.037a5.074 5.074 0 0 0-.197.49l-.735 1.39.006-.006a1.306 1.306 0 0 1-.264.313.94.94 0 0 1-.08.068.324.324 0 0 1-.055.032l-.052.048a3.23 3.23 0 0 1-.103.07.463.463 0 0 1-.09.046l-.544.319a1.502 1.502 0 0 1-.28.137.762.762 0 0 0-.093.043c-.032.017-.08.047-.145.09l-.172.098a3.12 3.12 0 0 0-.542.4c-.087.08-.175.166-.265.26l-.278.296c-.008.096.043.204.154.325.15.165.325.265.523.298.198.034.417.027.656-.02.24-.048.498-.125.775-.23.277-.107.57-.218.879-.333l-.007.006a15.909 15.909 0 0 0 .7-.259l.182-.07c.046-.018.09-.035.133-.05h-.012l.428-.16c.124-.046.239-.086.342-.121a3.146 3.146 0 0 1 .621-.144c.564-.062 1.06-.032 1.487.091.427.123.76.315.998.575.214.234.35.506.41.814.058.308.017.646-.124 1.014-.017.025-.024.041-.02.05.003.008.003.024 0 .046a.376.376 0 0 1-.032.096c-.018.04-.052.103-.102.188l.013-.011-.344.649-.344.649a2.449 2.449 0 0 1-.363.505c-.168.19-.376.398-.623.624-.286.261-.63.5-1.03.715-.401.215-.859.41-1.374.588l-.822 1.504-.406.013.188-1.427.824-1.554c.405-.115.765-.226 1.082-.332a6.48 6.48 0 0 0 .82-.332 3.117 3.117 0 0 0 .886-.572l.065-.06.04-.035a.294.294 0 0 0 .045-.054l.059-.053c.057-.069.098-.114.124-.138.03-.028.074-.076.132-.144.009-.191-.01-.37-.058-.54a1.047 1.047 0 0 0-.236-.434c-.341-.373-.811-.576-1.41-.609-.6-.033-1.317.117-2.152.45l.006-.006a1.96 1.96 0 0 1-.273.125 28.677 28.677 0 0 1-1.04.384c-.182.063-.324.113-.425.15-.177.05-.33.092-.458.126a1.959 1.959 0 0 1-.35.062l.008-.006c-.833.1-1.382.005-1.647-.285-.14-.152-.213-.357-.222-.615a1.593 1.593 0 0 1 .21-.808l.701-1.31-.006.006c.073-.139.176-.285.31-.439.134-.154.314-.343.54-.565l.709-.649c.043-.031.08-.06.113-.085.032-.026.067-.051.103-.077.037-.025.077-.053.122-.082.045-.029.108-.065.19-.107l-.007.006c.098-.05.194-.103.288-.162a3.3 3.3 0 0 1 .351-.184l-.013.012c.081-.042.158-.084.23-.127.073-.042.15-.084.231-.127a1.95 1.95 0 0 0 .286-.392c.099-.17.206-.388.322-.654l.346-.065z" style="font-weight:700;font-size:18.0524px;-inkscape-font-specification:'Seanchló GC Bold'" transform="translate(-484.712 -534.556) scale(.71424)"/></g><rect style="fill:#fff;fill-opacity:1;fill-rule:evenodd;stroke:none;stroke-width:.105833;stop-color:#000" width="596.265" height="182.563" x="-216.093" y="354.239" rx="15.875"/><rect style="fill:#804000;fill-opacity:1;fill-rule:evenodd;stroke:none;stroke-width:.105833;stop-color:#000" width="572.453" height="158.75" x="-204.187" y="366.146" rx="31.75"/><path style="fill:#fff;stroke:none;stroke-width:.672031;stroke-linecap:round;stroke-linejoin:round;stroke-miterlimit:10;stroke-dasharray:none;stroke-opacity:1" d="m-61.666 441.797-4.649 19.599h-10.137l-8.906-31.75h8.57l5.656 20.102 4.761-20.102h9.466l4.76 20.102 5.601-20.102h8.626l-8.906 31.75h-10.193z"/><path style="fill:#fff;stroke:none;stroke-width:.671976;stroke-linecap:round;stroke-linejoin:round;stroke-miterlimit:10;stroke-dasharray:none;stroke-opacity:1" d="m113.245 471.419 3.08.28 3.024.056 1.176-.112 1.176-.28 1.064-.504.952-.672.84-.84.672-1.008.504-1.064 13.496-37.63h-8.792l-6.888 19.207-6.888-19.206h-8.736l10.864 30.294.112.728v.728l-.224.728-.336.615-.504.504-.672.392-.672.224-.728.056-4.48-.615-1.064 7.615z"/><path style="fill:#fff;stroke:none;stroke-width:.672494;stroke-linecap:round;stroke-linejoin:round;stroke-miterlimit:10;stroke-dasharray:none;stroke-opacity:1" d="m6.082 461.395-7.9-12.387-3.417 3.531v8.856h-8.685v-44.45h8.685v23.823l11.037-11.099H17.4L4.458 442.73l11.878 18.666Z"/><path style="fill:#fff;stroke:none;stroke-width:.672574;stroke-linecap:round;stroke-linejoin:round;stroke-miterlimit:10;stroke-dasharray:none;stroke-opacity:1" d="m193.585 436.153 1.344.56 1.176.898 1.008 1.066.84 1.234.448 1.01.28 1.065.224 1.796.056 1.738-.056 1.74-.224 1.794-.28 1.066-.448 1.01-.84 1.234-1.008 1.066-1.176.897-1.344.505-1.288.225-1.232-.225-1.344-.505-1.232-.897-1.008-1.066-.784-1.234-.448-1.01-.28-1.066-.224-1.795-.112-1.739.112-1.738.224-1.796.28-1.065.448-1.01.784-1.234 1.008-1.066 1.232-.897 1.344-.561 1.232-.169zm13.104 2.524-.112-.337-.784-1.795-1.008-1.739-1.232-1.514-1.4-1.403-1.568-1.178-1.512-.841-1.624-.617-1.68-.505-1.736-.28-1.736-.113-1.736.113-1.68.28-1.68.505-1.624.617-1.512.841-1.568 1.178-1.4 1.403-1.232 1.514-1.008 1.74-.784 1.794-.112.337-.56 2.244-.336 2.3-.112 2.3.112 2.3.336 2.3.56 2.187.112.393.784 1.795 1.008 1.682 1.232 1.571 1.4 1.402 1.568 1.178 1.512.786 1.624.673 1.68.505 1.68.28 1.736.112 1.736-.112 1.736-.28 1.68-.505 1.624-.673 1.512-.786 1.568-1.177 1.4-1.403 1.232-1.57 1.008-1.683.784-1.795.112-.393.56-2.188.336-2.3.056-2.3-.056-2.3-.336-2.3z"/><path style="fill:#fff;stroke:none;stroke-width:.672523;stroke-linecap:round;stroke-linejoin:round;stroke-miterlimit:10;stroke-dasharray:none;stroke-opacity:1" d="M66.1 461.395h-8.679v-31.75h8.68v3.142l1.063-1.066 1.176-.897 1.344-.786 1.456-.505 1.455-.336 1.512-.112h2.128v8.246h-2.968l-1.232.112-1.231.336-1.12.561-1.064.73-.84.841-.728 1.066-.56 1.122-.336 1.234-.056 1.234z"/><path d="m164.694 449.3 8.06 3.024-.168.336-.784 1.848-1.007 1.68-1.176 1.512-1.399 1.4-1.567 1.176-1.567.84-1.567.616-1.68.504-1.734.28-1.735.112-1.735-.112-1.68-.28-1.678-.504-1.623-.616-1.511-.84-1.567-1.176-1.4-1.4-1.23-1.512-1.008-1.68-.784-1.848-.112-.336-.56-2.24-.335-2.296-.112-2.295.112-2.296.336-2.24.56-2.24.111-.392.784-1.792 1.007-1.68 1.231-1.568 1.4-1.344 1.567-1.231 1.51-.784 1.624-.672 1.679-.448 1.679-.336 1.735-.112 1.735.112 1.735.336 1.679.448 1.567.672 1.567.784 1.567 1.231 1.4 1.344 1.175 1.568 1.007 1.68.784 1.792.168.392-8.06 2.968-.671-1.792-.84-1.232-1.007-1.064-1.176-.84-1.343-.56-1.287-.168-1.231.168-1.4.56-1.175.84-1.007 1.064-.784 1.232-.448 1.064-.335 1.064-.168 1.736-.112 1.736.112 1.791.168 1.736.335 1.064.448 1.008.784 1.232 1.007 1.12 1.175.84 1.4.56 1.23.168 1.288-.168 1.343-.56 1.176-.84 1.007-1.12.84-1.232z" style="fill:#fff;stroke:none;stroke-width:.671785;stroke-linecap:round;stroke-linejoin:round;stroke-miterlimit:10;stroke-dasharray:none;stroke-opacity:1"/><path style="fill:#fff;stroke:none;stroke-width:.671796;stroke-linecap:round;stroke-linejoin:round;stroke-miterlimit:10;stroke-dasharray:none;stroke-opacity:1" d="M29.155 441.909h12.873l-.168-1.12-.392-1.064-.56-.952-.727-.84-.895-.728-.952-.56-1.063-.392-1.12-.224h-1.12l-1.118.224-1.064.392-.951.56-.896.728-.728.84-.56.952-.391 1.064zm.112 7.56.28 1.12.504 1.007.671.896.84.784.951.616 1.4.504 1.455.28 1.455.056 1.455-.112 1.455-.392 1.512-.672 1.399-.896 1.231-1.12 5.373 5.432-1.12 1.232-1.23 1.12-1.344.952-1.455.728-1.567.56-2.015.448-2.071.224-2.07.056-2.072-.168-2.015-.392-1.567-.448-1.51-.616-1.4-.84-1.287-.952-1.232-1.12-1.007-1.232-.952-1.344-.727-1.456-.784-2.016-.616-2.072-.391-2.128-.168-2.183.112-2.184.335-2.128.56-2.128.784-2.016.951-1.624 1.176-1.512 1.399-1.344 1.511-1.12 1.4-.84 1.51-.727 1.568-.504 1.623-.28 1.623-.112 1.623.056 1.623.28 1.623.448 1.511.616 1.4.84 1.455 1.063 1.343 1.232 1.12 1.456.95 1.512.729 1.68.783 2.52.56 2.576.28 2.632.112 2.631H29.155Z"/><path style="fill:#fff;stroke:none;stroke-width:.672354;stroke-linecap:round;stroke-linejoin:round;stroke-miterlimit:10;stroke-dasharray:none;stroke-opacity:1" d="m-21.666 458.22-.112-1.064-.336-1.008-.56-.897-.785-.728-.896-.56-1.009-.393-1.064-.112-1.065.112-.953.392-.952.56-.728.73-.56.896-.337 1.008-.168 1.065.168 1.064.336 1.009.56.896.729.785.952.56.953.336 1.065.112 1.064-.112 1.009-.336.896-.56.784-.785.56-.896.337-1.009z"/><path style="fill:#fff;stroke:none;stroke-width:.672031;stroke-linecap:round;stroke-linejoin:round;stroke-miterlimit:10;stroke-dasharray:none;stroke-opacity:1" d="m-112.466 441.797-4.649 19.599h-10.137l-8.906-31.75h8.57l5.656 20.102 4.761-20.102h9.466l4.76 20.102 5.601-20.102h8.626l-8.906 31.75h-10.193zM-163.266 441.797l-4.649 19.599h-10.137l-8.906-31.75h8.57l5.656 20.102 4.761-20.102h9.466l4.76 20.102 5.601-20.102h8.626l-8.906 31.75h-10.193z"/><path style="fill:#fff;stroke:none;stroke-width:.672523;stroke-linecap:round;stroke-linejoin:round;stroke-miterlimit:10;stroke-dasharray:none;stroke-opacity:1" d="M93.088 461.395h-8.679v-31.75h8.679v3.142l1.064-1.066 1.175-.897 1.344-.786 1.456-.505 1.456-.336 1.512-.112h2.127v8.246h-2.967l-1.232.112-1.232.336-1.12.561-1.064.73-.84.841-.727 1.066-.56 1.122-.336 1.234-.056 1.234z"/><path style="fill:#fff;stroke:none;stroke-width:.672574;stroke-linecap:round;stroke-linejoin:round;stroke-miterlimit:10;stroke-dasharray:none;stroke-opacity:1" d="m264.07 436.153 1.344.56 1.176.898 1.008 1.066.84 1.234.448 1.01.28 1.065.224 1.795.056 1.74-.056 1.738-.224 1.795-.28 1.066-.448 1.01-.84 1.234-1.008 1.066-1.176.897-1.344.505-1.288.225-1.232-.225-1.344-.505-1.232-.897-1.008-1.066-.784-1.234-.448-1.01-.28-1.066-.224-1.795-.112-1.739.112-1.739.224-1.795.28-1.065.448-1.01.784-1.234 1.008-1.066 1.232-.897 1.344-.561 1.232-.169zm13.104 2.524-.112-.337-.784-1.795-1.008-1.739-1.232-1.514-1.4-1.403-1.568-1.178-1.512-.841-1.624-.617-1.68-.505-1.736-.28-1.736-.113-1.736.113-1.68.28-1.68.505-1.624.617-1.512.841-1.568 1.178-1.4 1.403-1.232 1.514-1.008 1.74-.784 1.794-.112.337-.56 2.244-.336 2.3-.112 2.3.112 2.3.336 2.3.56 2.187.112.393.784 1.795 1.008 1.682 1.232 1.571 1.4 1.402 1.568 1.178 1.512.786 1.624.673 1.68.505 1.68.28 1.736.112 1.736-.112 1.736-.28 1.68-.505 1.624-.673 1.512-.786 1.568-1.178 1.4-1.402 1.232-1.57 1.008-1.683.784-1.795.112-.393.56-2.188.336-2.3.056-2.3-.056-2.3-.336-2.3z"/><path d="m235.18 449.3 8.059 3.024-.168.336-.784 1.848-1.007 1.68-1.175 1.512-1.4 1.4-1.567 1.176-1.567.84-1.567.616-1.679.504-1.735.28-1.735.111-1.735-.111-1.679-.28-1.679-.504-1.623-.616-1.511-.84-1.567-1.176-1.4-1.4-1.23-1.512-1.008-1.68-.784-1.848-.112-.336-.56-2.24-.335-2.296-.112-2.295.112-2.296.336-2.24.56-2.24.111-.392.784-1.792 1.007-1.68 1.231-1.568 1.4-1.344 1.567-1.231 1.51-.784 1.624-.672 1.679-.448 1.68-.336 1.734-.112 1.735.112 1.735.336 1.68.448 1.566.672 1.567.784 1.567 1.231 1.4 1.344 1.175 1.568 1.007 1.68.784 1.792.168.392-8.06 2.968-.671-1.792-.84-1.232-1.007-1.064-1.175-.84-1.344-.56-1.287-.168-1.231.168-1.4.56-1.175.84-1.007 1.064-.784 1.232-.447 1.064-.336 1.064-.168 1.736-.112 1.736.112 1.791.168 1.736.336 1.064.447 1.008.784 1.232 1.007 1.12 1.176.84 1.399.56 1.231.168 1.287-.168 1.344-.56 1.175-.84 1.007-1.12.84-1.232z" style="fill:#fff;stroke:none;stroke-width:.671785;stroke-linecap:round;stroke-linejoin:round;stroke-miterlimit:10;stroke-dasharray:none;stroke-opacity:1"/><path style="fill:#fff;stroke:none;stroke-width:.672354;stroke-linecap:round;stroke-linejoin:round;stroke-miterlimit:10;stroke-dasharray:none;stroke-opacity:1" d="m295.834 458.22-.112-1.064-.336-1.008-.56-.897-.785-.728-.896-.56-1.009-.393-1.064-.112-1.065.112-.952.392-.953.56-.728.73-.56.896-.337 1.008-.168 1.065.168 1.064.336 1.009.56.896.729.785.953.56.952.336 1.065.112 1.064-.112 1.009-.336.896-.56.785-.785.56-.896.336-1.009z"/><path style="fill:#fff;stroke:none;stroke-width:.671793;stroke-linecap:round;stroke-linejoin:round;stroke-miterlimit:10;stroke-dasharray:none;stroke-opacity:1" d="M312.251 429.646v31.75h-8.675v-31.75zm.672-8.064-.112-.952-.28-.952-.448-.84-.615-.784-.784-.616-.84-.448-.951-.28-.951-.112-.952.112-.951.28-.84.448-.783.616-.616.784-.448.84-.28.952-.112.952.112.952.28.952.448.896.616.728.783.616.84.448.951.28.952.112.951-.112.952-.28.839-.448.784-.616.615-.728.448-.896.28-.952z"/><path style="fill:#fff;stroke:none;stroke-width:.671796;stroke-linecap:round;stroke-linejoin:round;stroke-miterlimit:10;stroke-dasharray:none;stroke-opacity:1" d="M327.923 441.909h12.873l-.168-1.12-.392-1.064-.56-.952-.727-.84-.896-.728-.951-.56-1.064-.392-1.12-.224H333.8l-1.119.224-1.063.392-.952.56-.895.728-.728.84-.56.952-.391 1.064zm.112 7.56.28 1.12.503 1.007.672.896.84.784.95.616 1.4.504 1.455.28 1.455.056 1.456-.112 1.455-.392 1.511-.672 1.4-.896 1.23-1.12 5.374 5.432-1.12 1.232-1.231 1.12-1.343.952-1.456.728-1.567.56-2.015.448-2.07.224-2.071.056-2.071-.168-2.015-.392-1.567-.448-1.511-.616-1.4-.84-1.287-.952-1.231-1.12-1.008-1.232-.951-1.344-.728-1.456-.783-2.016-.616-2.072-.392-2.128-.168-2.183.112-2.184.336-2.128.56-2.128.783-2.016.952-1.624 1.175-1.512 1.4-1.344 1.51-1.12 1.4-.84 1.511-.727 1.567-.504 1.623-.28 1.623-.112 1.623.056 1.624.28 1.623.448 1.51.616 1.4.84 1.455 1.063 1.344 1.232 1.119 1.456.951 1.512.728 1.68.784 2.52.56 2.576.28 2.632.111 2.631h-21.156z"/><path d="m-122.799 120.42-1.324 2.018-1.463 1.906-1.616 1.85-1.937 1.793-2.075 1.682-2.152 1.345-2.26 1.121-2.273.953-2.308.673-2.36.448-2.286.168h-2.52l-2.195-.168-2.065-.448-1.948-.673-1.817-.953-1.603-1.121-1.432-1.345-1.215-1.738-1.016-1.85-.748-2.018-.493-2.13-.24-2.242-.056-2.298.239-2.354.463-2.354.856-3.195.814-2.41 1.023-2.355 1.287-2.298 1.426-2.186 1.635-2.13 1.829-2.018 2.023-1.906 2.13-1.681 2.153-1.346 2.22-1.177 2.313-.897 2.308-.672 2.305-.449 2.285-.168h2.52l2.195.168 2.12.449 1.949.672 1.776.897 1.644 1.177 1.432 1.346 1.23 1.681.945 1.906.833 2.747.45 2.914-10.034 3.588.014-1.514-.155-1.513-.423-1.345-.663-1.29-.89-1.065-1.049-.896-1.138-.561-1.183-.392-1.284-.225-1.314-.112-1.43.112-1.46.225-1.465.448-1.438.56-1.371.73-1.32.952-1.222 1.01-1.1 1.176-1.002 1.233-.794 1.29-1.176 2.298-.896 2.298-.671 2.298-.575 2.354-.336 2.299-.04 2.242.087 1.345.342 1.233.468 1.177.682 1.01.824.896.966.785 1.138.56 1.239.393 1.325.28 1.385.056 1.542-.112 1.588-.28 1.59-.505 1.484-.729 1.473-.896 1.293-1.065 1.212-1.178 1.073-1.289.88-1.401.727-1.457z" style="fill:#fff;stroke:none;stroke-width:.672362;stroke-linecap:round;stroke-linejoin:round;stroke-miterlimit:10;stroke-dasharray:none;stroke-opacity:1"/><path style="fill:#fff;stroke:none;stroke-width:.672574;stroke-linecap:round;stroke-linejoin:round;stroke-miterlimit:10;stroke-dasharray:none;stroke-opacity:1" d="m-96.837 108.07 1.193.56.936.898.722 1.065.51 1.235.177 1.01-.006 1.065-.257 1.795-.41 1.74-.522 1.738-.705 1.795-.565 1.066-.719 1.01-1.17 1.234-1.294 1.065-1.417.898-1.48.505-1.347.224-1.172-.224-1.209-.505-.991-.898-.723-1.065-.453-1.234-.178-1.01.006-1.066.257-1.795.354-1.739.578-1.739.705-1.795.566-1.066.718-1.01 1.115-1.234 1.294-1.065 1.472-.898 1.494-.56 1.278-.17zm12.427 2.523-.022-.336-.303-1.795-.542-1.74-.826-1.514-1.024-1.402-1.252-1.178-1.287-.841-1.459-.617-1.544-.505-1.661-.28-1.706-.113-1.766.112-1.755.28-1.816.506-1.79.617-1.737.841-1.883 1.178-1.776 1.402-1.638 1.515-1.474 1.739-1.265 1.795-.202.336-1.161 2.244-.952 2.3-.729 2.3-.504 2.3-.28 2.3-.026 2.188.007.392.303 1.795.557 1.683.81 1.57 1.025 1.403 1.252 1.178 1.302.785 1.444.674 1.544.504 1.605.28 1.706.113 1.766-.112 1.812-.28 1.815-.505 1.804-.674 1.723-.785 1.883-1.178 1.776-1.402 1.653-1.57 1.459-1.684 1.265-1.795.217-.392 1.146-2.188.953-2.3.672-2.3.56-2.3.28-2.3z"/><path style="fill:#fff;stroke:none;stroke-width:.672912;stroke-linecap:round;stroke-linejoin:round;stroke-miterlimit:10;stroke-dasharray:none;stroke-opacity:1" d="m-67.545 113.118-.413 1.122-5.11 19.072h-8.689l8.507-31.75h8.69l-.602 2.244 1.56-1.01 1.627-.841 1.623-.617 1.674-.393 1.63-.224 1.61.056 1.76.336 1.476.561 1.359.786 1.146.953.989 1.122.775 1.29.562 1.459.278 1.683.039 1.739-.201 1.795-.384 1.85-5.08 18.96h-8.69l5.066-18.903.245-1.122.076-1.122-.219-1.066-.432-.897-.646-.73-1.041-.504-1.23-.225-1.304.056-1.293.225-1.369.505-1.19.673-1.122.841-.943 1.01z"/><path style="fill:#fff;stroke:none;stroke-width:.672153;stroke-linecap:round;stroke-linejoin:round;stroke-miterlimit:10;stroke-dasharray:none;stroke-opacity:1" d="m-22.904 132.875-2.534.672-2.529.448-2.47.224-2.48.056-2.349-.224-1.116-.224-1.042-.504-.829-.672-.67-.84-.474-.951-.204-1.12-.021-1.176.218-1.232 5.041-18.815h-5.099l1.936-7.224h5.099l2.655-9.91 9.36-2.52-3.33 12.43h8.067l-1.935 7.224h-8.068l-4.142 15.455-.124.672.115.616.258.504.455.392.541.28.601.056 1.711-.112 1.7-.28 1.69-.448z"/><path style="fill:#fff;stroke:none;stroke-width:2.63339;stroke-linecap:round;stroke-linejoin:round;stroke-miterlimit:10;stroke-opacity:1" d="m1.943 100.995-1.639.145-1.605.34-1.586.548-1.548.767-1.515.979-1.48 1.197-.407.373-1.247 1.283-1.158 1.354-1.034 1.442-.91 1.531-.785 1.604-.672 1.71-.057.142-.498 1.656-.41 1.621-.283 1.62-.181 1.622-.069 1.587.017.946.16 1.585.32 1.48.481 1.35.622 1.232.784 1.102.588.677 1.051.91 1.214.728 1.334.537 1.48.34 1.604.14.784.017 1.622-.086 1.655-.23 1.71-.339 1.746-.463.731.248 1.23.463.192.16h5.633l-.09-1.07-.036-1.71.159-1.193.75-2.813.748-2.763.713-2.603.659-2.44.605-2.278.57-2.123.536-1.96.48-1.814.446-1.639.391-1.479.357-1.337.303-1.16.266-1.011.232-.841.18-.694.124-.533.086-.372h-6.502l-.372 1.441-.283-.25-.927-.519-1.232-.44-1.513-.322-1.835-.25-2.12-.124zm.283 7.625.784.056 1.424.39 1.355.747.463.394.858 1.141.301 1.333v.075l-.09 1.834-.231 1.69-.357 1.532-.515 1.372-.445.927-1 1.784-.996 1.406-.998 1.05-.605.43-1.407.657-1.656.394-1.925.103-1.085-.142-1.18-.497-.854-.892-.514-1.264-.163-1.658v-.536l.124-1.672.305-1.514.107-.322.57-1.62.764-1.584.965-1.553.142-.214 1.174-1.334 1.48-1.23 1.638-.961z"/><path style="fill:#fff;stroke:none;stroke-width:.671796;stroke-linecap:round;stroke-linejoin:round;stroke-miterlimit:10;stroke-dasharray:none;stroke-opacity:1" d="M29.926 113.825h12.873l.132-1.12-.107-1.063-.305-.952-.502-.84-.7-.728-.802-.56-.958-.392-1.06-.224h-1.12l-1.179.224-1.168.392-1.102.56-1.09.728-.953.84-.815.952-.676 1.063zm-1.914 7.56-.02 1.12.233 1.008.432.896.63.784.786.616 1.264.504 1.38.28 1.44.056 1.486-.112 1.56-.392 1.691-.672 1.64-.896 1.53-1.12 3.918 5.431-1.45 1.232-1.53 1.12-1.599.952-1.65.728-1.717.56-2.135.448-2.131.224-2.086.056-2.026-.168-1.91-.392-1.447-.448-1.346-.616-1.174-.84-1.032-.952-.932-1.12-.677-1.231-.591-1.344-.338-1.456-.243-2.016-.06-2.072.178-2.128.417-2.184.697-2.184.906-2.128 1.13-2.127 1.324-2.016 1.386-1.624 1.58-1.512 1.76-1.344 1.811-1.12 1.624-.84 1.707-.728 1.702-.504 1.698-.28 1.653-.112 1.608.056 1.548.28 1.503.448 1.347.616 1.174.84 1.17 1.064 1.013 1.232.73 1.456.546 1.512.277 1.68.109 2.52-.13 2.575-.426 2.632-.594 2.632H28.2Z"/><path d="m120.089 120.42-1.325 2.018-1.463 1.906-1.615 1.85-1.937 1.793-2.075 1.682-2.153 1.345-2.26 1.121-2.272.953-2.309.673-2.36.448-2.285.168h-2.52l-2.196-.168-2.064-.448-1.948-.673-1.817-.953-1.604-1.12-1.432-1.346-1.214-1.738-1.017-1.85-.747-2.018-.494-2.13-.24-2.242-.055-2.298.238-2.354.463-2.354.856-3.195.814-2.41 1.023-2.355 1.288-2.298 1.426-2.186 1.635-2.13 1.829-2.018 2.022-1.906 2.131-1.681 2.153-1.346 2.22-1.177 2.312-.897 2.309-.672 2.304-.449 2.285-.168h2.52l2.196.168 2.12.449 1.948.672 1.776.897 1.645 1.177 1.432 1.346 1.23 1.681.945 1.906.832 2.747.451 2.914-10.034 3.588.013-1.514-.154-1.513-.424-1.345-.663-1.29-.89-1.065-1.048-.896-1.138-.56-1.183-.393-1.284-.225-1.315-.112-1.43.112-1.46.225-1.464.448-1.439.56-1.371.73-1.32.952-1.222 1.01-1.1 1.176-1.002 1.233-.794 1.29-1.176 2.298-.895 2.298-.672 2.298-.575 2.354-.336 2.299-.04 2.242.087 1.345.342 1.233.468 1.177.682 1.01.824.896.966.785 1.138.56 1.239.393 1.325.28 1.385.056 1.543-.112 1.587-.28 1.591-.505 1.484-.728 1.472-.897 1.294-1.065 1.211-1.177 1.074-1.29.88-1.401.726-1.457z" style="fill:#fff;stroke:none;stroke-width:.672362;stroke-linecap:round;stroke-linejoin:round;stroke-miterlimit:10;stroke-dasharray:none;stroke-opacity:1"/><path style="fill:#fff;stroke:none;stroke-width:.672235;stroke-linecap:round;stroke-linejoin:round;stroke-miterlimit:10;stroke-dasharray:none;stroke-opacity:1" d="M153.656 133.312h-8.69l5.07-18.922.245-1.12.02-1.12-.179-1.007-.418-.952-.646-.727-1.042-.504-1.23-.224-1.303.056-1.309.28-1.353.448-1.189.672-1.122.84-.943 1.007-.733 1.064-.412 1.12-5.115 19.09h-8.69l11.911-44.45h8.69l-4.006 14.947 1.56-1.008 1.555-.784 1.678-.616 1.69-.448 1.614-.168h1.626l1.76.336 1.476.56 1.36.784 1.146.952.989 1.12.776 1.287.563 1.455.279 1.68.04 1.735-.2 1.792-.383 1.847z"/><path d="M183.246 93.388a4.366 4.366 0 0 1-4.366 4.366 4.366 4.366 0 0 1-4.366-4.366 4.366 4.366 0 0 1 4.366-4.366 4.366 4.366 0 0 1 4.366 4.366z" style="fill:#fff;fill-rule:evenodd;stroke:none;stroke-width:.362114;stroke-linecap:round;stop-color:#000"/><path style="fill:#fff;stroke:none;stroke-width:.206811;stroke-linecap:round;stroke-linejoin:round;stroke-miterlimit:10;stroke-opacity:1" d="m172.965 101.562-6.97 26.029-.09.429-.067.553v.567l.073.577.134.58.2.589.266.594.335.603.402.605.472.621h8.089l-.24-.303-.363-.524-.315-.536-.265-.562-.221-.582-.175-.601-.128-.62-.076-.639-.035-.666.014-.685 6.97-26.03zm0 0"/><path style="fill:#fff;stroke:none;stroke-width:2.63339;stroke-linecap:round;stroke-linejoin:round;stroke-miterlimit:10;stroke-opacity:1" d="m199.11 100.995-1.638.145-1.605.34-1.587.548-1.548.767-1.514.979-1.48 1.197-.407.373-1.248 1.283-1.158 1.354-1.033 1.442-.91 1.531-.786 1.604-.671 1.71-.058.142-.497 1.656-.41 1.621-.284 1.62-.18 1.622-.07 1.587.017.946.16 1.585.321 1.48.48 1.35.622 1.232.784 1.102.588.677 1.051.91 1.215.728 1.333.537 1.48.34 1.605.14.784.017 1.621-.086 1.656-.23 1.71-.339 1.746-.463.73.248 1.23.463.193.16h5.632l-.09-1.07-.035-1.71.158-1.193.751-2.813.748-2.763.712-2.603.66-2.44.604-2.278.57-2.123.537-1.96.48-1.814.446-1.639.39-1.479.357-1.337.303-1.16.267-1.011.231-.841.18-.694.124-.533.086-.372h-6.502l-.372 1.441-.283-.25-.927-.519-1.231-.44-1.514-.322-1.835-.25-2.12-.124zm.283 7.625.784.056 1.425.39 1.355.747.462.394.858 1.141.302 1.333v.075l-.09 1.834-.232 1.69-.357 1.532-.514 1.372-.446.927-1 1.784-.995 1.407-.999 1.05-.604.43-1.408.656-1.655.394-1.925.103-1.086-.142-1.179-.497-.854-.892-.515-1.264-.163-1.658v-.536l.125-1.672.304-1.514.108-.322.569-1.62.764-1.583.965-1.554.143-.214 1.174-1.334 1.48-1.23 1.638-.96z"/><path style="fill:#fff;stroke:none;stroke-width:.672523;stroke-linecap:round;stroke-linejoin:round;stroke-miterlimit:10;stroke-dasharray:none;stroke-opacity:1" d="M223.892 133.312h-8.68l8.508-31.75h8.68l-.843 3.142 1.35-1.066 1.416-.898 1.554-.785 1.591-.505 1.546-.337 1.542-.112h2.128l-2.21 8.246h-2.967l-1.262.112-1.322.337-1.27.56-1.26.73-1.065.842-1.013 1.065-.86 1.122-.667 1.234-.387 1.234zM250.88 133.312h-8.68l8.508-31.75h8.679l-.842 3.142 1.35-1.066 1.416-.898 1.554-.785 1.59-.505 1.547-.337 1.542-.112h2.127l-2.209 8.246h-2.968l-1.262.112-1.322.337-1.27.56-1.259.73-1.065.842-1.014 1.065-.86 1.122-.667 1.234-.387 1.234z"/><path style="fill:#fff;stroke:none;stroke-width:2.63339;stroke-linecap:round;stroke-linejoin:round;stroke-miterlimit:10;stroke-opacity:1" d="m288.328 100.995-1.639.145-1.605.34-1.586.548-1.548.767-1.515.979-1.48 1.197-.407.373-1.247 1.283-1.158 1.354-1.034 1.442-.91 1.531-.785 1.604-.672 1.71-.057.142-.498 1.656-.41 1.621-.283 1.62-.181 1.622-.069 1.587.016.946.16 1.585.322 1.48.48 1.35.622 1.232.784 1.102.588.677 1.05.91 1.215.728 1.333.537 1.48.34 1.605.14.784.017 1.622-.086 1.655-.23 1.71-.339 1.746-.463.731.248 1.23.463.192.16h5.633l-.09-1.07-.036-1.71.159-1.193.75-2.813.748-2.763.713-2.603.659-2.44.605-2.278.57-2.123.536-1.96.48-1.814.446-1.639.391-1.479.357-1.337.303-1.16.266-1.011.232-.841.18-.694.124-.533.085-.372h-6.501l-.372 1.441-.283-.25-.927-.519-1.232-.44-1.513-.322-1.835-.25-2.12-.124zm.283 7.625.784.056 1.424.39 1.355.747.463.394.858 1.141.301 1.333v.075l-.09 1.834-.231 1.69-.357 1.532-.515 1.372-.445.927-1 1.784-.996 1.407-.999 1.05-.604.43-1.407.656-1.656.394-1.925.103-1.085-.142-1.18-.497-.854-.892-.514-1.264-.163-1.658v-.536l.124-1.672.305-1.514.107-.322.57-1.62.763-1.583.965-1.554.143-.214 1.174-1.334 1.48-1.23 1.638-.96z"/><path style="fill:#fff;stroke:none;stroke-width:.206811;stroke-linecap:round;stroke-linejoin:round;stroke-miterlimit:10;stroke-opacity:1" d="m314.888 101.562-6.97 26.029-.09.429-.068.553v.568l.073.576.135.58.2.589.265.594.336.603.401.605.472.621h8.09l-.24-.303-.364-.524-.315-.536-.265-.562-.22-.582-.176-.601-.128-.62-.076-.639-.035-.666.015-.685 6.97-26.03zM325.255 91.882l-11.282 4.207.469 1.506 11.573-2.619zm0 0"/><path d="m-45.916 69.812 4.941-18.441h18.201l2.208-8.24h-18.2l2.447-9.137h20.105l2.313-8.632h-29.177l-11.91 44.45z" style="fill:#fff;stroke:none;stroke-width:.672333;stroke-linecap:round;stroke-linejoin:round;stroke-miterlimit:10;stroke-dasharray:none;stroke-opacity:1"/><path style="fill:#fff;stroke:none;stroke-width:2.63337;stroke-linecap:round;stroke-linejoin:round;stroke-miterlimit:10;stroke-opacity:1" d="m-3.754 32.508.462 1.514 11.563-2.617-.836-3.1zM-.28 37.495l-1.638.145-1.605.34-1.586.549-1.548.767-1.515.979-1.48 1.196-.407.374-1.248 1.283-1.157 1.353-1.034 1.443-.91 1.531-.786 1.603-.671 1.711-.057.142-.498 1.655-.41 1.622-.283 1.62-.181 1.622-.069 1.587.017.945.16 1.586.32 1.48.481 1.35.622 1.23.784 1.104.588.676 1.051.91 1.214.729 1.334.536 1.48.34 1.604.14.784.017 1.622-.085 1.655-.232 1.71-.338 1.746-.463.731.249 1.23.462.192.16h5.633l-.09-1.07-.036-1.71.159-1.193.75-2.813.748-2.763.713-2.603.659-2.439.605-2.279.57-2.123.536-1.96.48-1.813.446-1.64.391-1.478.357-1.337.303-1.16.266-1.012.232-.84.18-.694.124-.533.085-.372H8.572L8.2 39.42l-.283-.249-.927-.52-1.232-.44-1.513-.322-1.835-.25-2.12-.123zm.283 7.626.784.055 1.425.391 1.355.747.462.394.858 1.14.302 1.334v.074l-.09 1.835-.232 1.69-.357 1.531-.514 1.372-.446.927-1 1.784-.995 1.407-.999 1.05-.604.43-1.408.656-1.655.395-1.925.103-1.086-.142-1.179-.498-.854-.891-.515-1.264-.162-1.658v-.536l.124-1.672.305-1.515.107-.321.57-1.62.763-1.584.965-1.553.143-.214 1.174-1.334 1.48-1.23 1.638-.961z"/><path d="M37.196 29.888a4.366 4.366 0 0 1-4.366 4.366 4.366 4.366 0 0 1-4.366-4.366 4.366 4.366 0 0 1 4.366-4.366 4.366 4.366 0 0 1 4.366 4.366z" style="fill:#fff;fill-rule:evenodd;stroke:none;stroke-width:.362114;stroke-linecap:round;stop-color:#000"/><path style="fill:#fff;stroke:none;stroke-width:.206811;stroke-linecap:round;stroke-linejoin:round;stroke-miterlimit:10;stroke-opacity:1" d="m26.915 38.062-6.97 26.029-.09.429-.067.553v.567l.073.577.134.58.2.589.266.594.335.603.402.605.472.621h8.089l-.24-.303-.363-.524-.315-.536-.266-.562-.22-.582-.175-.601-.128-.62-.076-.639-.035-.666.014-.685 6.97-26.03zm0 0"/><path style="fill:#fff;stroke:none;stroke-width:.671806;stroke-linecap:round;stroke-linejoin:round;stroke-miterlimit:10;stroke-dasharray:none;stroke-opacity:1" d="M45.487 25.362h8.66l-9.394 35.06-.054.616.144.505.327.449.428.28.6.057 1.69-.057 1.737-.224-1.094 7.629-2.818.505-2.772.336-2.797.225L39 70.63l-1.027-.337-.997-.449-.77-.673-.612-.841-.4-1.01-.218-1.066-.034-1.122.204-1.178z"/><path style="fill:#fff;stroke:none;stroke-width:.672153;stroke-linecap:round;stroke-linejoin:round;stroke-miterlimit:10;stroke-dasharray:none;stroke-opacity:1" d="m74.886 69.375-2.534.672-2.529.448-2.47.224-2.48.056-2.349-.224-1.116-.224-1.042-.504-.828-.671-.672-.84-.473-.952-.204-1.12-.021-1.176.218-1.232 5.041-18.815h-5.099l1.936-7.223h5.099l2.655-9.912 9.36-2.52-3.33 12.432h8.067l-1.935 7.223h-8.068L67.97 60.472l-.125.672.116.616.257.504.455.392.541.28.602.056 1.71-.112 1.7-.28 1.69-.448z"/><path style="fill:#fff;stroke:none;stroke-width:.671796;stroke-linecap:round;stroke-linejoin:round;stroke-miterlimit:10;stroke-dasharray:none;stroke-opacity:1" d="M92.473 50.325h12.873l.132-1.12-.107-1.063-.304-.952-.503-.84-.7-.728-.802-.56-.958-.392-1.06-.224h-1.119l-1.18.224-1.168.392-1.101.56-1.09.728-.953.84-.815.952-.677 1.064zm-1.914 7.56-.02 1.12.234 1.008.431.896.63.784.786.616 1.264.504 1.38.28 1.44.056 1.486-.112 1.56-.392 1.691-.672 1.64-.896 1.531-1.12 3.918 5.432-1.45 1.231-1.531 1.12-1.598.952-1.65.728-1.718.56-2.135.448-2.13.224-2.087.056-2.025-.168-1.91-.392-1.447-.448-1.347-.616-1.174-.84-1.032-.952-.931-1.12-.677-1.231-.592-1.344-.337-1.456-.244-2.016-.06-2.072.178-2.128.417-2.184.697-2.184.906-2.127 1.13-2.128 1.324-2.016 1.387-1.624 1.58-1.512 1.76-1.344 1.81-1.12 1.625-.84 1.706-.728 1.702-.504 1.698-.28 1.654-.112 1.608.056 1.548.28 1.503.448 1.346.616 1.174.84 1.17 1.064 1.014 1.232.729 1.456.546 1.512.278 1.68.108 2.52-.13 2.575-.426 2.632-.593 2.632H90.747Z"/><path style="fill:#fff;stroke:none;stroke-width:.672153;stroke-linecap:round;stroke-linejoin:round;stroke-miterlimit:10;stroke-dasharray:none;stroke-opacity:1" d="m162.683 46.238-1.139-.56-1.183-.392-1.371-.112-1.375.112-1.435.336-.904.448-.878.56-.812.728-.673.84-.977 1.344-.782 1.455-.513 1.288-.416 1.344-.192 1.344-.01 1.288.082.952.32.896.518.784.732.616.832.448 1.087.336 1.131.168h1.233l1.222-.168 1.281-.392.905-.448.878-.56.756-.728.617-.84.651-1.176.54-1.176 1.35-5.04.016-.895-.111-.84-.295-.784-.492-.672zm-19.69 24.134 1.318.728 1.49.504 1.52.392 2.543.336 2.618.056 2.413-.224.972-.28.92-.504.852-.672.714-.784.576-.896.367-.952.45-1.68-1.595.728-1.592.504-2.01.392-2.021.224-1.931-.112-1.733-.224-1.658-.504-1.486-.728-1.313-.952-1.06-1.063-.903-1.232-.633-1.4-.435-1.512-.253-1.568-.039-1.736.144-1.792.312-1.792.551-1.848.76-1.792.914-1.735 1.026-1.736 1.137-1.736 1.332-1.624 1.196-1.12 1.294-1.064 1.416-.896 1.443-.784 1.454-.616 1.958-.616 1.939-.336 1.935-.112 1.89.056 1.759.336 1.254.336 1.14.56.966.784.435-1.624h8.628L167.79 68.58l-.517 1.512-.726 1.456-.88 1.4-1.088 1.344-1.17 1.232-1.35 1.064-1.813 1.12-1.865.896-1.917.672-1.913.448-2.346.392-2.23.168-2.227-.056-2.14-.168-2.636-.616-2.48-.784-2.434-.952-2.247-1.232 5.965-7z"/><path style="fill:#fff;stroke:none;stroke-width:.672574;stroke-linecap:round;stroke-linejoin:round;stroke-miterlimit:10;stroke-dasharray:none;stroke-opacity:1" d="m197.803 44.57 1.193.56.936.898.722 1.066.51 1.234.177 1.01-.006 1.065-.257 1.795-.41 1.74-.522 1.738-.705 1.795-.565 1.066-.719 1.01-1.17 1.234-1.294 1.065-1.417.898-1.479.505-1.348.224-1.172-.224-1.209-.505-.991-.898-.723-1.065-.453-1.234-.178-1.01.006-1.066.257-1.795.354-1.739.578-1.739.705-1.795.566-1.066.718-1.01 1.115-1.233 1.294-1.066 1.472-.898 1.495-.56 1.277-.169zm12.427 2.524-.022-.337-.303-1.795-.542-1.739-.826-1.515-1.024-1.402-1.253-1.178-1.286-.841-1.459-.617-1.545-.505-1.66-.28-1.706-.113-1.766.112-1.756.28-1.815.506-1.79.617-1.737.841-1.883 1.178-1.776 1.402-1.638 1.515-1.474 1.739-1.265 1.795-.202.337-1.161 2.243-.953 2.3-.728 2.3-.504 2.3-.28 2.3-.026 2.188.007.392.303 1.795.557 1.683.811 1.57 1.024 1.403 1.253 1.178 1.301.785 1.444.674 1.545.504 1.604.281 1.706.112 1.766-.112 1.812-.28 1.815-.505 1.804-.674 1.723-.785 1.883-1.178 1.776-1.402 1.653-1.57 1.459-1.684 1.265-1.795.217-.392 1.146-2.188.953-2.3.672-2.3.56-2.3.28-2.3z"/><path style="fill:#fff;stroke:none;stroke-width:.672391;stroke-linecap:round;stroke-linejoin:round;stroke-miterlimit:10;stroke-dasharray:none;stroke-opacity:1" d="M-119.692 220.625h-11.427l-10.362-44.45h9.354l7.113 30.549 6.386-30.55h10.586l6.385 30.55 7.114-30.55h9.354l-10.362 44.45h-11.427l-6.33-30.492z"/><path style="fill:#fff;stroke:none;stroke-width:.672349;stroke-linecap:round;stroke-linejoin:round;stroke-miterlimit:10;stroke-dasharray:none;stroke-opacity:1" d="M-45.593 211.937h-21.786v-9.754h18.202v-8.24H-67.38v-9.136h20.106v-8.632h-29.235v44.45h30.915z"/><path style="fill:#fff;stroke:none;stroke-width:.671904;stroke-linecap:round;stroke-linejoin:round;stroke-miterlimit:10;stroke-dasharray:none;stroke-opacity:1" d="M-33.16 176.175h9.072v35.772h19.712v8.678H-33.16Z"/><path d="m41.83 207.733-.784 2.017-.952 1.906-1.12 1.85-1.456 1.794-1.624 1.681-1.793 1.346-1.96 1.12-2.016.954-2.128.672-2.24.449-2.24.168h-2.521l-2.24-.168-2.185-.449-2.128-.672-2.072-.953-1.905-1.121-1.792-1.346-1.68-1.737-1.512-1.85-1.288-2.018-1.065-2.13-.84-2.242-.672-2.298-.392-2.355-.168-2.354v-3.195l.168-2.41.392-2.354.672-2.298.84-2.187 1.065-2.13 1.288-2.017 1.512-1.906 1.68-1.682 1.792-1.345 1.905-1.177 2.072-.897 2.128-.673 2.184-.448 2.24-.168h2.521l2.24.168 2.24.448 2.129.673 2.016.897 1.96 1.177 1.793 1.345 1.68 1.682 1.456 1.906 1.568 2.746 1.233 2.915-9.074 3.587-.392-1.513-.56-1.514-.784-1.345-1.008-1.29-1.176-1.064-1.288-.897-1.289-.56-1.288-.393-1.344-.224-1.344-.112-1.4.112-1.4.224-1.345.449-1.288.56-1.176.729-1.064.953-.952 1.009-.784 1.177-.672 1.233-.448 1.29-.56 2.297-.28 2.299-.057 2.298.056 2.354.28 2.298.56 2.242.449 1.345.672 1.234.784 1.177.952 1.009 1.064.897 1.176.784 1.288.56 1.345.393 1.4.28 1.4.056 1.512-.112 1.512-.28 1.457-.504 1.288-.73 1.232-.896 1.008-1.065.896-1.177.728-1.29.504-1.4.336-1.458z" style="fill:#fff;stroke:none;stroke-width:.672362;stroke-linecap:round;stroke-linejoin:round;stroke-miterlimit:10;stroke-dasharray:none;stroke-opacity:1"/><path style="fill:#fff;stroke:none;stroke-width:.671819;stroke-linecap:round;stroke-linejoin:round;stroke-miterlimit:10;stroke-dasharray:none;stroke-opacity:1" d="m75.648 185.076 1.176.784 1.064.895.952 1.064.783 1.12.616 1.231.448 1.344.56 2.24.336 2.294.056 2.352-.056 2.295-.336 2.295-.56 2.296-.448 1.287-.616 1.288-.783 1.12-.952 1.063-1.064.896-1.176.728-1.287.56-1.344.447-1.4.224-1.4.112-1.4-.112-1.399-.224-1.344-.448-1.287-.56-1.176-.727-1.064-.896-.952-1.064-.783-1.12-.616-1.287-.504-1.287-.504-2.296-.336-2.295-.056-2.295.056-2.352.336-2.295.504-2.24.504-1.343.616-1.231.783-1.12.952-1.064 1.064-.895 1.176-.784 1.287-.56 1.344-.392 1.4-.28 1.4-.056 1.4.056 1.399.28 1.344.392zm15.733 11.7-.168-2.351-.392-2.351-.616-2.296-.896-2.239-1.063-2.127-1.288-2.016-1.456-1.847-1.68-1.735-1.791-1.344-1.96-1.12-2.015-.895-2.128-.728-2.24-.392-2.183-.224H68.93l-2.24.224-2.183.392-2.128.728-2.071.895-1.904 1.12-1.792 1.344-1.68 1.735-1.455 1.847-1.288 2.016-1.12 2.127-.84 2.24-.615 2.295-.448 2.351-.168 2.351v3.191l.168 2.407.448 2.352.616 2.295.84 2.24 1.12 2.127 1.287 1.959 1.456 1.903 1.68 1.68 1.791 1.343 1.904 1.176 2.071.896 2.128.672 2.183.447 2.24.224h2.575l2.184-.224 2.24-.447 2.127-.672 2.015-.896 1.96-1.176 1.791-1.343 1.68-1.68 1.456-1.903 1.288-1.96 1.063-2.127.896-2.239.616-2.295.392-2.352.168-2.407z"/><path style="fill:#fff;stroke:none;stroke-width:.672071;stroke-linecap:round;stroke-linejoin:round;stroke-miterlimit:10;stroke-dasharray:none;stroke-opacity:1" d="M111.38 220.625v-32.19l13.448 19.482 13.447-19.482v32.19h9.076v-44.45h-11.654l-10.87 15.73-10.87-15.73h-11.71v44.45z"/><path style="fill:#fff;stroke:none;stroke-width:.672349;stroke-linecap:round;stroke-linejoin:round;stroke-miterlimit:10;stroke-dasharray:none;stroke-opacity:1" d="M192.214 211.937h-21.786v-9.754h18.202v-8.24h-18.202v-9.136h20.106v-8.632H161.3v44.45h30.914z"/><path style="fill:#fff;stroke:none;stroke-width:.671904;stroke-linecap:round;stroke-linejoin:round;stroke-miterlimit:10;stroke-dasharray:none;stroke-opacity:1" d="M222.804 176.175v8.677h12.6v35.773h9.128v-35.773h12.6v-8.677z"/><path style="fill:#fff;stroke:none;stroke-width:.671819;stroke-linecap:round;stroke-linejoin:round;stroke-miterlimit:10;stroke-dasharray:none;stroke-opacity:1" d="m289.326 185.076 1.176.784 1.063.895.952 1.064.784 1.12.616 1.231.448 1.344.56 2.24.336 2.294.056 2.352-.056 2.295-.336 2.295-.56 2.296-.448 1.287-.616 1.288-.784 1.12-.952 1.063-1.063.896-1.176.728-1.288.56-1.344.447-1.4.224-1.399.112-1.4-.112-1.4-.224-1.343-.448-1.288-.56-1.176-.727-1.063-.896-.952-1.064-.784-1.12-.616-1.287-.504-1.287-.504-2.296-.335-2.295-.056-2.295.056-2.352.335-2.295.504-2.24.504-1.343.616-1.231.784-1.12.952-1.064 1.063-.895 1.176-.784 1.288-.56 1.344-.392 1.4-.28 1.399-.056 1.4.056 1.4.28 1.343.392zm15.732 11.7-.168-2.351-.392-2.351-.615-2.296-.896-2.239-1.064-2.127-1.288-2.016-1.455-1.847-1.68-1.735-1.792-1.344-1.96-1.12-2.015-.895-2.127-.728-2.24-.392-2.183-.224h-2.576l-2.24.224-2.183.392-2.127.728-2.072.895-1.903 1.12-1.792 1.344-1.68 1.735-1.455 1.847-1.288 2.016-1.12 2.127-.84 2.24-.615 2.295-.448 2.351-.168 2.351v3.191l.168 2.407.448 2.352.615 2.295.84 2.24 1.12 2.127 1.288 1.959 1.455 1.903 1.68 1.68 1.792 1.343 1.903 1.176 2.072.896 2.127.672 2.184.447 2.24.224h2.575l2.183-.224 2.24-.447 2.127-.672 2.016-.896 1.96-1.176 1.791-1.343 1.68-1.68 1.455-1.903 1.288-1.96 1.064-2.127.896-2.239.615-2.295.392-2.352.168-2.407z"/><path d="m-135.652 271.233-.784 2.017-.952 1.906-1.12 1.85-1.457 1.794-1.624 1.681-1.792 1.346-1.96 1.12-2.017.954-2.128.672-2.24.449-2.24.168h-2.52l-2.241-.168-2.184-.449-2.129-.672-2.072-.953-1.904-1.121-1.792-1.346-1.68-1.737-1.513-1.85-1.288-2.018-1.064-2.13-.84-2.242-.672-2.298-.392-2.355-.168-2.354v-3.195l.168-2.41.392-2.354.672-2.298.84-2.187 1.064-2.13 1.288-2.017 1.512-1.906 1.68-1.682 1.793-1.345 1.904-1.177 2.072-.897 2.129-.673 2.184-.448 2.24-.168h2.52l2.24.168 2.241.448 2.128.673 2.017.897 1.96 1.177 1.792 1.345 1.68 1.682 1.457 1.906 1.568 2.746 1.232 2.915-9.073 3.587-.392-1.513-.56-1.514-.784-1.345-1.009-1.289-1.176-1.065-1.288-.897-1.288-.56-1.288-.393-1.344-.224-1.345-.112-1.4.112-1.4.224-1.344.449-1.288.56-1.176.729-1.065.953-.952 1.009-.784 1.177-.672 1.233-.448 1.29-.56 2.297-.28 2.299-.056 2.298.056 2.354.28 2.298.56 2.242.448 1.345.672 1.234.784 1.177.952 1.009 1.065.897 1.176.784 1.288.56 1.344.393 1.4.28 1.4.056 1.513-.112 1.512-.28 1.456-.504 1.288-.73 1.232-.896 1.008-1.065.897-1.177.728-1.29.504-1.4.336-1.458z" style="fill:#fff;stroke:none;stroke-width:.672362;stroke-linecap:round;stroke-linejoin:round;stroke-miterlimit:10;stroke-dasharray:none;stroke-opacity:1"/><path style="fill:#fff;stroke:none;stroke-width:.671819;stroke-linecap:round;stroke-linejoin:round;stroke-miterlimit:10;stroke-dasharray:none;stroke-opacity:1" d="m-101.834 248.576 1.176.784 1.063.895.952 1.064.784 1.12.616 1.231.448 1.344.56 2.24.336 2.294.056 2.352-.056 2.295-.336 2.295-.56 2.296-.448 1.287-.616 1.288-.784 1.12-.952 1.063-1.063.896-1.176.728-1.288.56-1.344.447-1.4.224-1.399.112-1.4-.112-1.4-.224-1.343-.448-1.288-.56-1.176-.727-1.063-.896-.952-1.064-.784-1.12-.616-1.287-.504-1.287-.504-2.296-.336-2.295-.056-2.295.056-2.352.336-2.295.504-2.24.504-1.343.616-1.231.784-1.12.952-1.064 1.063-.895 1.176-.784 1.288-.56 1.344-.392 1.4-.28 1.399-.056 1.4.056 1.4.28 1.343.392zm15.732 11.7-.168-2.351-.392-2.351-.615-2.296-.896-2.239-1.064-2.127-1.288-2.016-1.455-1.847-1.68-1.735-1.792-1.344-1.96-1.12-2.015-.895-2.127-.728-2.24-.392-2.183-.224h-2.576l-2.24.224-2.183.392-2.127.728-2.072.895-1.903 1.12-1.792 1.344-1.68 1.735-1.455 1.847-1.288 2.016-1.12 2.127-.84 2.24-.615 2.295-.448 2.351-.168 2.351v3.191l.168 2.407.448 2.352.615 2.295.84 2.24 1.12 2.127 1.288 1.959 1.455 1.903 1.68 1.68 1.792 1.343 1.903 1.176 2.072.896 2.127.672 2.184.447 2.24.224h2.575l2.183-.224 2.24-.447 2.127-.672 2.016-.896 1.96-1.176 1.791-1.343 1.68-1.68 1.455-1.903 1.288-1.96 1.064-2.127.896-2.239.615-2.295.392-2.352.168-2.407z"/><path style="fill:#fff;stroke:none;stroke-width:.67237;stroke-linecap:round;stroke-linejoin:round;stroke-miterlimit:10;stroke-dasharray:none;stroke-opacity:1" d="m-39.112 268.822-.336 2.074-.56 1.962-.84 1.906-.952 1.794-1.233 1.681-1.344 1.57-1.568 1.401-1.68 1.177-1.793 1.01-1.904.784-2.016.56-2.016.337-2.073.112-2.072-.112-2.016-.337-1.96-.56-1.961-.785-1.792-1.009-1.68-1.177-1.513-1.401-1.4-1.57-1.176-1.681-1.008-1.794-.784-1.906-.56-1.962-.393-2.074-.112-2.074v-27.073h9.13v27.073l.112 1.514.336 1.401.56 1.345.784 1.234.952 1.12 1.064.954 1.289.784 1.344.56 1.4.337 1.456.112 1.456-.112 1.457-.336 1.344-.56 1.232-.785 1.12-.953.952-1.121.728-1.234.56-1.345.337-1.401.112-1.514v-27.073H-39v27.073z"/><path style="fill:#fff;stroke:none;stroke-width:.672071;stroke-linecap:round;stroke-linejoin:round;stroke-miterlimit:10;stroke-dasharray:none;stroke-opacity:1" d="M-14.966 239.675H-25.33v44.45h9.076v-30.063l19.89 30.063h10.422v-44.45H4.925v30.062z"/><path style="fill:#fff;stroke:none;stroke-width:.671904;stroke-linecap:round;stroke-linejoin:round;stroke-miterlimit:10;stroke-dasharray:none;stroke-opacity:1" d="M22.461 239.675v8.677h12.6v35.773h9.129v-35.773h12.6v-8.677z"/><path style="fill:#fff;stroke:none;stroke-width:.67265;stroke-linecap:round;stroke-linejoin:round;stroke-miterlimit:10;stroke-dasharray:none;stroke-opacity:1" d="m74.11 266.58-14.911-26.905h10.426l9.081 16.311 9.025-16.311h10.426l-14.91 26.905v17.545h-9.138z"/><path style="fill:#fff;stroke:none;stroke-width:.672068;stroke-linecap:round;stroke-linejoin:round;stroke-miterlimit:10;stroke-dasharray:none;stroke-opacity:1" d="m138.723 268.674 3.81-4.255 12.494 19.706h10.758l-16.92-26.704 16.08-17.746h-12.27l-13.952 15.45v-15.45h-9.133v44.45h9.133z"/><path style="fill:#fff;stroke:none;stroke-width:.672349;stroke-linecap:round;stroke-linejoin:round;stroke-miterlimit:10;stroke-dasharray:none;stroke-opacity:1" d="M204.597 275.437h-21.786v-9.754h18.202v-8.24H182.81v-9.136h20.106v-8.632h-29.235v44.45h30.915z"/><path style="fill:#fff;stroke:none;stroke-width:.671938;stroke-linecap:round;stroke-linejoin:round;stroke-miterlimit:10;stroke-dasharray:none;stroke-opacity:1" d="M226.104 247.904h10.585l1.064.112.952.336.952.448.784.672.673.783.448.952.336.952.112 1.063-.112 1.008-.336 1.008-.448.896-.673.84-.784.615-.952.504-.952.336-1.064.056h-10.585zm-9.074-8.23v44.45h9.074V266.77h5.936l10.138 17.355h10.585l-10.641-18.139 1.624-.727 1.568-.952 1.4-1.12 1.232-1.343 1.065-1.456.84-1.567.672-1.68.392-1.735.168-1.792-.056-1.847-.336-1.736-.504-1.735-.784-1.623-1.009-1.512-1.12-1.4-1.344-1.175-1.512-1.008-1.624-.84-1.68-.56-1.793-.391-1.792-.112zM273.094 247.904h10.585l1.064.112.952.336.952.448.784.672.673.783.448.952.336.952.112 1.063-.112 1.008-.336 1.008-.448.896-.673.84-.784.615-.952.504-.952.336-1.064.056h-10.585zm-9.074-8.23v44.45h9.074V266.77h5.936l10.138 17.355h10.585l-10.641-18.139 1.624-.727 1.568-.952 1.4-1.12 1.232-1.343 1.064-1.456.84-1.567.673-1.68.392-1.735.168-1.792-.056-1.847-.336-1.736-.504-1.735-.784-1.623-1.009-1.512-1.12-1.4-1.344-1.175-1.512-1.008-1.624-.84-1.68-.56-1.793-.391-1.792-.112z"/><path style="fill:#fff;stroke:none;stroke-width:.67265;stroke-linecap:round;stroke-linejoin:round;stroke-miterlimit:10;stroke-dasharray:none;stroke-opacity:1" d="m319.537 266.58-14.91-26.905h10.426l9.08 16.311 9.025-16.311h10.427l-14.911 26.905v17.545h-9.137z"/></g></svg>