<svg width="2410.66" height="1142" viewBox="0 0 637.82 302.154" xmlns="http://www.w3.org/2000/svg"><g transform="matrix(1.5 0 0 1.5 348.319 101.502)"><rect style="fill:#aaa;fill-opacity:1;fill-rule:evenodd;stroke:none;stroke-width:.226378;stroke-linecap:round;stop-color:#000" width="424.861" height="201.083" x="-232.036" y="-67.492" rx="13.452"/><path style="fill:#000;fill-rule:evenodd;stroke-width:1.00157;stroke-linecap:round;stop-color:#000" d="M207.77 0a40 40 0 0 0-34.565 20L8.66 305a30 30 0 0 0 0 30l164.545 285a40 40 0 0 0 34.64 20h1232.569c27.7 0 50-22.3 50-50V50c0-27.7-22.3-50-50-50z" transform="matrix(.26458 0 0 .26458 -217.389 -51.617)"/><path style="fill:#fff;fill-rule:evenodd;stroke-width:1.01032;stroke-linecap:round;stop-color:#000" d="M208.979 30a20 20 0 0 0-17.32 10L30 320c53.881 93.336 107.78 186.662 161.658 280l.002.002A20 20 0 0 0 208.98 610h1226.794c11.08 0 20-9.077 20-20.352V50.352c0-11.275-8.92-20.352-20-20.352z" transform="matrix(.26458 0 0 .26458 -216.161 -51.617)"/><path d="m-92.028-7.295-.707 1.345-.78 1.271-.862 1.233-1.033 1.196-1.106 1.121-1.148.897-1.206.747-1.211.636-1.232.448-1.258.299-1.22.112h-1.344l-1.17-.112-1.101-.299-1.04-.448-.968-.636-.856-.747-.763-.897-.648-1.158-.542-1.234-.399-1.345-.263-1.42-.128-1.495-.03-1.532.128-1.57.247-1.569.456-2.13.434-1.607.546-1.569.687-1.532.76-1.457.872-1.42.975-1.346 1.08-1.27 1.136-1.121 1.148-.897 1.184-.785 1.233-.598 1.231-.448 1.23-.3 1.218-.111h1.344l1.171.112 1.13.299 1.04.448.947.598.877.785.764.897.656 1.12.504 1.271.444 1.831.24 1.943-5.351 2.392.007-1.009-.083-1.009-.226-.897-.353-.86-.475-.71-.559-.597-.607-.374-.63-.261-.686-.15-.7-.075-.763.075-.78.15-.78.299-.767.373-.732.486-.703.635-.652.673-.587.785-.534.822-.424.86-.627 1.531-.478 1.533-.358 1.532-.306 1.57-.18 1.531-.021 1.495.047.897.182.822.25.785.363.672.44.598.515.523.607.374.66.262.707.186.74.038.822-.075.846-.187.849-.336.791-.486.785-.598.69-.71.646-.784.573-.86.469-.934.388-.972z" style="fill:#000;stroke:none;stroke-width:.400919;stroke-linecap:round;stroke-linejoin:round;stroke-miterlimit:10;stroke-dasharray:none;stroke-opacity:1"/><path style="fill:#000;stroke:none;stroke-width:.401044;stroke-linecap:round;stroke-linejoin:round;stroke-miterlimit:10;stroke-dasharray:none;stroke-opacity:1" d="m-68.869-15.529.637.374.499.599.385.71.272.823.094.673-.003.71-.137 1.197-.218 1.16-.279 1.159-.376 1.197-.302.71-.383.673-.624.823-.69.71-.755.599-.79.336-.718.15-.625-.15-.645-.336-.529-.599-.385-.71-.242-.823-.095-.673.004-.71.137-1.197.188-1.16.309-1.159.376-1.196.301-.71.383-.674.595-.823.69-.71.785-.599.797-.374.681-.112zm6.628 1.683-.011-.224-.162-1.197-.289-1.16-.44-1.009-.547-.935-.668-.785-.686-.561-.778-.411-.824-.337-.886-.187-.91-.075-.941.075-.936.187-.969.337-.954.41-.927.562-1.004.785-.947.935-.874 1.01-.786 1.16-.675 1.196-.107.224-.62 1.496-.508 1.533-.388 1.534-.269 1.533-.15 1.533-.013 1.459.004.261.161 1.197.297 1.122.433 1.047.546.935.668.785.694.524.77.449.824.336.856.187.91.075.942-.075.966-.187.968-.336.962-.45.919-.523 1.005-.785.947-.935.881-1.047.778-1.122.675-1.197.116-.261.611-1.459.508-1.533.358-1.533.3-1.534.149-1.533z"/><path style="fill:#000;stroke:none;stroke-width:.401248;stroke-linecap:round;stroke-linejoin:round;stroke-miterlimit:10;stroke-dasharray:none;stroke-opacity:1" d="m-53.246-12.163-.22.748L-56.192 1.3h-4.634l4.537-21.167h4.634l-.32 1.496.832-.673.867-.56.866-.412.893-.262.87-.15.858.038.939.224.787.374.725.524.61.635.528.748.414.86.3.973.148 1.122.02 1.159-.107 1.197-.205 1.234-2.71 12.64h-4.633l2.701-12.603.13-.748.041-.748-.116-.71-.23-.599-.345-.486-.556-.336-.655-.15-.696.038-.69.15-.73.336-.634.448-.599.561-.503.674zM-33.095-12.163l-.22.748L-36.042 1.3h-4.634l4.537-21.167h4.634l-.32 1.496.831-.673.868-.56.866-.412.893-.262.869-.15.859.038.938.224.787.374.725.524.611.635.528.748.413.86.3.973.148 1.122.02 1.159-.106 1.197-.205 1.234-2.71 12.64h-4.634l2.702-12.603.13-.748.041-.748-.117-.71-.23-.599-.344-.486-.556-.336-.656-.15-.695.038-.69.15-.73.336-.634.448-.599.561-.503.674z"/><path d="m9.114-29.34-.592.02-.586.055-.575.089-.575.124-.57.164-.564.199-.553.233-.554.273-.542.308-.542.342-.53.377-.532.417-.521.453-.131.123-.505.486-.487.506-.466.529-.443.54-.427.568-.4.582-.383.597-.362.622-.345.636-.318.658-.301.678-.28.69-.257.713-.115.343-.252.794-.23.76-.203.72-.18.67-.154.637-.071.335-.143.706-.12.698-.092.685-.077.678-.05.67-.027.657-.006.658.017.636.037.638.066.623.082.616.104.61.132.594.153.59.176.574.197.576.219.562.24.547.264.547.29.535.083.138.323.52.35.465.372.418.39.362.417.323.432.267.384.184.393.143.45.117.503.089.57.07.624.04.68.02h.148l.52-.02.553-.075.592-.117.63-.165.164-.047L8.057.294l.296.5.01.027.319.473.005.007h4.19l-.12-.63-.055-.644.01-.67.072-.7.105-.588 5.657-26.402H15.08l-.416.43-.241.255-.498-.308-.499-.274-.504-.247-.504-.22-.504-.184-.51-.15-.51-.124-.514-.089-.514-.06-.515-.036zm-.898 5.182.525.056.504.123.482.185.466.26.444.329.35.321.378.467.307.506.23.535.153.567.083.603.016.39-.011.61-.033.63-.05.643-.07.664-.087.678-.116.698-.126.713-.149.732-.17.753-.19.767-.209.781-.06.219-.263.903-.285.85-.29.801-.307.739-.322.685-.334.63-.346.575-.361.52-.373.46-.39.409-.398.35-.417.301-.427.24-.438.191-.455.13-.471.075-.422.021-.466-.027-.498-.088-.543-.152-.58-.212-.126-.048-.449-.212-.411-.253-.367-.287-.328-.336L.53-6.04l-.246-.417-.21-.452-.164-.5-.125-.541-.088-.576-.044-.623-.005-.657.038-.705.078-.739.12-.782.153-.828.016-.075.193-.822.202-.794.224-.767.247-.739.257-.72.28-.683.296-.658.312-.63.334-.603.35-.575.373-.54.383-.521.405-.493.423-.466.3-.3.609-.556.585-.45.56-.37.542-.268.52-.178.499-.083z" style="fill:#000;fill-opacity:1;fill-rule:evenodd;stroke:none;stroke-width:.114929"/><path style="fill:#000;stroke:none;stroke-width:.400796;stroke-linecap:round;stroke-linejoin:round;stroke-miterlimit:10;stroke-dasharray:none;stroke-opacity:1" d="m28.982 1.009-1.351.448-1.349.298-1.317.15-1.323.037-1.253-.15-.595-.149-.556-.336-.442-.447-.358-.56-.252-.635-.109-.747-.011-.784.116-.82L22.87-15.23h-2.72l1.033-4.816h2.719l1.416-6.607 4.992-1.68-1.776 8.287h4.303l-1.033 4.816h-4.303L25.294-4.927l-.066.448.061.41.137.337.243.261.289.187.32.037.913-.075.906-.186.901-.299z"/><path style="fill:#000;stroke:none;stroke-width:.400844;stroke-linecap:round;stroke-linejoin:round;stroke-miterlimit:10;stroke-dasharray:none;stroke-opacity:1" d="M47.455 1.3h-4.634l2.704-12.615.13-.746.011-.747-.095-.671-.223-.635-.344-.485-.556-.336-.656-.15-.695.038-.698.187-.722.298-.634.448-.598.56-.503.672-.391.709-.22.746L36.603 1.3h-4.634l6.352-29.633h4.634l-2.136 9.965.832-.672.83-.523.894-.41.901-.299.862-.112h.867l.938.224.787.373.725.523.612.634.527.747.414.858.3.97.15 1.12.02 1.157-.106 1.194-.204 1.232z"/><path style="fill:#000;stroke:none;stroke-width:1.57025;stroke-linecap:round;stroke-linejoin:round;stroke-miterlimit:10;stroke-opacity:1" d="m62.385-20.245-.874.097-.856.227-.846.365-.826.511-.808.653-.789.798-.217.249-.665.855-.618.903-.551.961-.485 1.02-.42 1.07-.358 1.14-.03.095-.266 1.104-.218 1.08-.152 1.08-.096 1.082-.037 1.058.01.63.084 1.057.172.987.256.9.332.82.418.736.314.45.56.608.648.485.711.358.79.226.855.094.418.01.865-.056.883-.154.912-.226.931-.309.39.166.656.308.103.107h3.004l-.048-.713-.02-1.14.085-.795.4-1.876.4-1.842.38-1.735.351-1.626.323-1.52.304-1.415.286-1.306.256-1.21.238-1.092.208-.986.19-.892.162-.773.142-.674.124-.56.096-.463.066-.355.045-.248h-3.467l-.199.96-.15-.166-.495-.347-.657-.293-.807-.215-.979-.166-1.13-.083zm.15 5.084.419.037.76.26.722.498.247.263.457.76.161.89v.049l-.048 1.223-.123 1.126-.19 1.021-.275.915-.238.618-.533 1.19-.53.937-.534.7-.322.287-.75.437-.883.263-1.027.069-.579-.095-.629-.331-.456-.595-.274-.842-.087-1.106v-.357l.066-1.115.163-1.01.057-.214.304-1.08.407-1.055.515-1.036.076-.143.626-.889.79-.82.873-.64z"/><path style="fill:#000;stroke:none;stroke-width:.400746;stroke-linecap:round;stroke-linejoin:round;stroke-miterlimit:10;stroke-dasharray:none;stroke-opacity:1" d="m96.484-10.568 1.112-5.188h10.399L104.339 1.3h-4.423l.456-2.127-.863.82-.96.71-.956.56-1.014.41-.983.262-.972.074h-.956l-1.163-.15-1.102-.298-1.04-.448-.977-.597-.856-.746-.764-.896-.649-1.157-.512-1.231-.43-1.344-.263-1.418-.129-1.493-.03-1.53.127-1.568.246-1.567.456-2.128.434-1.604.545-1.568.686-1.53.769-1.493.871-1.418 1.006-1.344 1.04-1.231 1.137-1.12 1.148-.896 1.184-.784 1.234-.597 1.231-.448 1.23-.298 1.227-.15h1.345l1.163.15 1.131.298 1.04.448.948.597.878.784.764.896.657 1.12.505 1.268.422 1.792-5.118 2.687-.194-1.045-.376-.896-.481-.821-.603-.672-.615-.336-.632-.261-.685-.15-.701-.074-.763.075-.78.149-.78.299-.768.373-.731.485-.696.597-.66.71-.578.746-.513.858-.453.858-.589 1.493-.515 1.568-.358 1.53-.306 1.567-.149 1.53-.051 1.494.077.895.153.821.258.747.356.709.44.597.523.485.6.41.66.262.716.15.731.074.823-.075.847-.186.849-.336.859-.523.793-.634.728-.747.662-.858.569-1.12.449-1.12.286-1.194z"/><path style="fill:#000;stroke:none;stroke-width:1.57025;stroke-linecap:round;stroke-linejoin:round;stroke-miterlimit:10;stroke-opacity:1" d="m120.297-20.245-.874.097-.856.227-.846.365-.826.511-.808.653-.789.798-.217.249-.665.855-.618.903-.55.961-.486 1.021-.42 1.069-.357 1.14-.03.095-.266 1.104-.219 1.08-.151 1.081-.097 1.081-.036 1.058.009.63.085 1.058.171.986.257.9.331.821.419.735.313.45.56.608.649.485.71.358.79.227.856.093.418.011.865-.057.883-.154.912-.225.931-.31.39.167.655.308.103.106h3.004l-.048-.713-.019-1.14.085-.795.4-1.875.4-1.842.38-1.736.35-1.626.323-1.519.304-1.415.286-1.307.257-1.21.237-1.092.209-.986.19-.891.161-.773.143-.675.123-.56.096-.463.066-.355.046-.248h-3.468l-.198.96-.15-.166-.495-.346-.657-.294-.807-.214-.979-.167-1.13-.083zm.15 5.084.419.037.76.26.722.498.247.263.457.76.161.89v.049l-.048 1.223-.123 1.126-.19 1.021-.275.915-.238.618-.533 1.19-.531.937-.533.7-.322.286-.75.438-.884.263-1.026.069-.58-.095-.628-.332-.456-.594-.274-.843-.087-1.105v-.357l.066-1.115.163-1.01.057-.214.304-1.08.407-1.056.515-1.035.075-.143.627-.89.789-.82.874-.64z"/><path style="fill:#000;stroke:none;stroke-width:.400548;stroke-linecap:round;stroke-linejoin:round;stroke-miterlimit:10;stroke-dasharray:none;stroke-opacity:1" d="m142.64-11.763-.976 4.554-.18.56-.24.56-.312.485-.373.485-.613.634-.65.523-.677.373-.713.261-.71.112-.67-.075-.618-.186-.481-.261-.427-.374-.314-.485-.239-.56-.132-.634-.059-1.12.107-1.194.158-1.157.316-1.194.397-1.157.517-1.157.429-.747.418-.56.522-.485.671-.485.7-.336.734-.224.694-.037.663.112.63.261.51.41.455.523.268.56.17.597.066.672zM139.84 1.3h4.627l6.352-29.633h-4.627l-2.032 9.48-.64-.635-.694-.523-.786-.373-.81-.261-.901-.112-.904.037-.927.15-.96.298-.924.41-.926.56-.882.635-.825.784-.265.261-.691.858-.618.933-.116.262-.752 1.418-.618 1.493-.537 1.53-.418 1.53-.268 1.53-.179 1.53-.021 1.493.076 1.456.208 1.12.32 1.007.458.933.578.784.7.635.88.485.974.336 1.013.149h1.044l1.085-.187 1.087-.336.789-.335.739-.523.703-.635z"/><path d="M1123.055 286.774a13.752 13.752 0 0 1-13.752 13.752 13.752 13.752 0 0 1-13.752-13.752 13.752 13.752 0 0 1 13.752-13.752 13.752 13.752 0 0 1 13.752 13.752z" style="fill:#000;fill-rule:evenodd;stroke:none;stroke-width:1.14052;stroke-linecap:round;stop-color:#000" transform="matrix(.16933 0 0 .21167 -268.666 -86.017)"/><path style="fill:#000;stroke:none;stroke-width:.651374;stroke-linecap:round;stroke-linejoin:round;stroke-miterlimit:10;stroke-opacity:1" d="m1090.675 312.518-21.954 81.981-.283 1.351-.211 1.742v1.788l.229 1.817.423 1.828.63 1.853.836 1.87 1.057 1.9 1.265 1.906 1.487 1.957h25.477l-.753-.957-1.147-1.649-.992-1.688-.835-1.77-.696-1.835-.552-1.892-.401-1.953-.24-2.01-.111-2.1.047-2.158 21.953-81.98zm0 0" transform="matrix(.16933 0 0 .21167 -268.666 -86.017)"/><path style="fill:#000;stroke:none;stroke-width:.448045;stroke-linecap:round;stroke-linejoin:round;stroke-miterlimit:10;stroke-dasharray:none;stroke-opacity:1" d="m-102.324 38.624 2.54-2.836 8.33 13.137h7.171l-11.28-17.802 10.72-11.831h-8.18l-9.301 10.3v-10.3h-6.089v29.633h6.089z"/><path style="fill:#000;stroke:none;stroke-width:.447866;stroke-linecap:round;stroke-linejoin:round;stroke-miterlimit:10;stroke-dasharray:none;stroke-opacity:1" d="M-72.936 19.292v29.633h-6.046V19.292Z"/><path style="fill:#000;stroke:none;stroke-width:.448048;stroke-linecap:round;stroke-linejoin:round;stroke-miterlimit:10;stroke-dasharray:none;stroke-opacity:1" d="M-56.617 19.292h-6.91v29.633h6.051V28.883l13.26 20.042h6.948V19.292h-6.088v20.041zM-21.057 19.292h-6.91v29.633h6.051V28.883l13.26 20.042h6.948V19.292h-6.088v20.041z"/><path style="fill:#000;stroke:none;stroke-width:.448231;stroke-linecap:round;stroke-linejoin:round;stroke-miterlimit:10;stroke-dasharray:none;stroke-opacity:1" d="M28.164 43.133H13.64V36.63h12.134v-5.493H13.64v-6.091h13.404v-5.755H7.554v29.633h20.61Z"/><path style="fill:#000;stroke:none;stroke-width:.448048;stroke-linecap:round;stroke-linejoin:round;stroke-miterlimit:10;stroke-dasharray:none;stroke-opacity:1" d="M47.735 37.057v-5.188h12.999v17.056h-5.528v-2.127l-.86.82-1.008.71-1.046.56-1.158.41-1.158.262-1.195.074h-1.195l-1.494-.15-1.457-.298-1.42-.448-1.382-.597-1.27-.746-1.195-.896-1.12-1.157-.972-1.231-.896-1.344-.71-1.418-.56-1.493-.448-1.53-.262-1.568-.112-1.567v-2.128l.112-1.604.262-1.568.448-1.53.56-1.493.71-1.418.896-1.344.971-1.231 1.121-1.12 1.195-.896 1.27-.784 1.382-.597 1.42-.448 1.457-.298 1.494-.15h1.68l1.495.15 1.494.298 1.42.448 1.344.597 1.307.784 1.196.896 1.12 1.12.971 1.268 1.009 1.792-5.678 2.687-.523-1.045-.71-.896-.821-.82-.934-.672-.86-.336-.858-.262-.897-.149-.896-.075-.934.075-.934.15-.896.298-.86.373-.784.485-.71.597-.635.71-.522.746-.411.858-.337.859-.336 1.493-.224 1.567-.037 1.53.037 1.568.224 1.53.336 1.493.337.896.41.82.523.747.635.71.71.596.785.486.859.41.896.261.934.15.934.074 1.008-.074 1.009-.187.971-.336.934-.522.822-.635.71-.746.597-.859.41-1.12.262-1.119.038-1.194z"/><path d="M75.82 19.292h7.878l9.895 29.633h-6.646l-1.606-5.232H74.177l-1.605 5.232h-6.647zm3.92 6.203-3.957 12.967h7.952z" style="fill:#000;stroke:none;stroke-width:.448236;stroke-linecap:round;stroke-linejoin:round;stroke-miterlimit:10;stroke-dasharray:none;stroke-opacity:1"/><path style="fill:#000;stroke:none;stroke-width:.448329;stroke-linecap:round;stroke-linejoin:round;stroke-miterlimit:10;stroke-dasharray:none;stroke-opacity:1" d="M110.812 42.983h-5.155V25.196h5.155l1.046.075 1.008.261.971.374.934.523.822.635.71.785.597.86.449.934.336 1.009.261 1.42.112 1.42v1.457l-.15 1.458-.298 1.42-.336.934-.486.934-.597.822-.71.71-.822.635-.896.486-.934.336-1.009.225zm-.075 5.942 1.382-.075 1.42-.224 1.344-.374 1.308-.523 1.27-.635 1.157-.785 1.084-.897 1.008-1.009.86-1.12.746-1.196.635-1.27.486-1.309.336-1.382.224-1.607.112-1.607v-1.607l-.112-1.644-.224-1.607-.336-1.345-.486-1.346-.635-1.27-.747-1.196-.859-1.084-1.008-1.009-1.084-.934-1.158-.747-1.27-.673-1.307-.523-1.345-.336-1.419-.224-1.382-.075H99.568v29.633z"/><path d="m3.143-33.22.263 1.165 10.287-3.176-.57-2.487zm0 0" style="fill:#000;stroke:none;stroke-width:.0815991;stroke-linecap:round;stroke-linejoin:round;stroke-miterlimit:10;stroke-opacity:1"/><path style="fill:#000;stroke:none;stroke-width:.264583px;stroke-linecap:butt;stroke-linejoin:miter;stroke-opacity:1" d="m-168.506 33.05 39.717 68.792h-24.442l-39.717-68.792 39.717-68.792h24.442z"/><path style="fill:#000;stroke:none;stroke-width:.446349;stroke-linecap:round;stroke-linejoin:round;stroke-miterlimit:10;stroke-dasharray:none;stroke-opacity:1" d="M-102.863 75.97h6.54l.657.08.588.24.588.32.485.48.415.56.277.679.207.68.07.76-.07.72-.207.72-.277.639-.415.6-.485.44-.588.36-.588.24-.657.04h-6.54zm-5.605-5.878v31.75h5.605V89.446h3.668l6.262 12.396h6.54l-6.574-12.956 1.003-.52.969-.68.865-.8.76-.96.658-1.039.52-1.12.414-1.2.243-1.239.103-1.28-.034-1.32-.208-1.239-.311-1.24-.485-1.159-.622-1.08-.692-1-.83-.839-.935-.72-1.003-.6-1.038-.4-1.107-.28-1.108-.08z"/><path style="fill:#000;stroke:none;stroke-width:.480049;stroke-linecap:round;stroke-linejoin:round;stroke-miterlimit:10;stroke-dasharray:none;stroke-opacity:1" d="M-70.832 80.368h-5.282V74.93l2.6-.24.801-.2.72-.36.641-.52.44-.68.32-.719.52-2.12h5.764v31.75h-6.524z"/><path style="fill:#000;stroke:none;stroke-width:.480044;stroke-linecap:round;stroke-linejoin:round;stroke-miterlimit:10;stroke-dasharray:none;stroke-opacity:1" d="m-51.232 90.51 10.033-13.292v13.293zm-7.194 5.886H-41.2v5.446h6.515v-5.446h4.077v-5.885h-4.077V70.09h-8.314l-15.428 20.42z"/><path style="fill:#000;stroke:none;stroke-width:.479785;stroke-linecap:round;stroke-linejoin:round;stroke-miterlimit:10;stroke-dasharray:none;stroke-opacity:1" d="m-5.558 101.402 1.08-.48 1.041-.6.92-.76.841-.84.68-1.08.56-1.159.441-1.24.24-1.279.12-1.28-.08-1.32-.2-1.279-.36-1.04-.48-.959-.68-.88-.801-.76-.92-.6-1.001-.44.88-.479.8-.56.721-.72.6-.8.44-.88.321-.919.2-1 .04-.96-.12-1.199-.24-1.16-.4-1.16-.52-1.039-.721-1-.8-.88-.92-.759-1.161-.72-1.201-.6-1.28-.44-1.361-.36-1.321-.2-1.36-.04-1.402.04-1.32.2-1.321.36-1.28.44-1.241.6-1.16.72-.921.76-.8.88-.681 1-.56 1.039-.4 1.16-.24 1.16-.12 1.199.04.96.2 1 .32.919.48.88.56.8.72.72.8.559.881.48-1 .44-.92.6-.801.76-.68.879-.48.96-.361 1.04-.2 1.279-.08 1.32.12 1.28.24 1.279.44 1.24.56 1.159.681 1.08.84.84.96.76 1.001.599 1.081.48 1.48.48 1.482.36 1.52.24 1.561.04 1.52-.04 1.522-.24 1.48-.36zm-1.76-24.113.28.6.16.64.08.64-.08.64-.16.64-.28.6-.36.519-.561.48-.64.32-.881.32-.88.2-.92.08-.921-.08-.92-.2-.881-.32-.64-.32-.52-.48-.401-.52-.28-.6-.16-.64-.08-.64.08-.639.16-.64.28-.6.4-.52.52-.48.64-.32.881-.32.92-.199.921-.04.92.04.881.2.88.32.64.32.561.48zm.08 17.955-.561.48-1.16.52-1.281.32-1.32.12-1.322-.12-1.32-.32-1.16-.52-.561-.48-.4-.6-.32-.68-.2-.68-.08-.76.08-.72.2-.719.32-.68.4-.6.56-.48 1.16-.52 1.321-.28 1.321-.16 1.32.16 1.281.28 1.161.52.56.48.44.6.32.68.16.72.08.72-.08.76-.16.68-.32.679z"/></g></svg>