<svg width="1994" height="902" viewBox="0 0 527.579 238.654" xmlns="http://www.w3.org/2000/svg"><g transform="translate(156.655 -16.838)"><rect style="font-variation-settings:normal;fill:#aaa;fill-opacity:1;stroke:none;stroke-width:.264583;stroke-linecap:butt;stroke-linejoin:miter;stroke-miterlimit:4;stroke-dasharray:none;stroke-dashoffset:0;stroke-opacity:1" width="527.155" height="238.125" x="-156.443" y="17.102" rx="23.813"/><path style="vector-effect:none;fill:#fff;stroke-width:1.32291" d="M-70.36 40.915c-4.085.032-8.13 1.706-11.02 4.598a16.109 16.109 0 0 0-2.58 3.342l-47.735 82.676a11.868 11.868 0 0 0-.936 4.635c0 1.644.334 3.21.936 4.634l47.734 82.676c2.108 3.676 5.744 6.436 9.86 7.454a16.1 16.1 0 0 0 3.89.485l-.002-.001h397.268A19.8 19.8 0 0 0 346.9 211.57V60.761a19.8 19.8 0 0 0-19.844-19.843H-70.213l.002-.001-.075-.001z"/><path style="fill:#115ec6;stroke-width:1.62101" d="M-67.921 52.824a7.637 7.637 0 0 0-.188.013 7.92 7.92 0 0 0-.564.04c-.19.017-.378.04-.566.068a7.938 7.938 0 0 0-.544.119c-.186.043-.37.092-.553.148a7.94 7.94 0 0 0-.528.197c-.176.068-.35.142-.52.223-.17.084-.335.175-.498.271-.164.092-.325.19-.482.294a7.937 7.937 0 0 0-.454.34c-.15.115-.294.235-.435.36a7.938 7.938 0 0 0-.4.4 7.937 7.937 0 0 0-.38.417 7.938 7.938 0 0 0-.34.454c-.111.153-.217.31-.317.47-.036.05-.07.102-.105.155l-45.828 79.375 45.828 79.375c.034.052.07.104.105.155.1.16.206.317.317.469.108.156.222.308.341.456.12.142.245.28.375.412.13.14.265.275.405.405.14.125.286.244.435.359.147.118.297.231.452.339.158.104.32.202.484.295.162.096.327.186.496.27.171.081.345.156.522.224.174.072.35.137.528.197.18.055.362.104.546.146.183.047.367.087.552.12.187.03.375.052.563.068.188.02.376.033.565.04.062.005.125.01.188.013h394.976a7.92 7.92 0 0 0 7.938-7.937V60.761a7.92 7.92 0 0 0-7.938-7.937z"/><path style="fill:#fff;stroke:none;stroke-width:.672349;stroke-linecap:round;stroke-linejoin:round;stroke-miterlimit:10;stroke-dasharray:none;stroke-opacity:1" d="M46.536 183.042H24.75v-9.753h18.202v-8.24H24.75v-9.137h20.106v-8.632H15.62v44.45h30.915z"/><path style="fill:#fff;stroke:none;stroke-width:.672341;stroke-linecap:round;stroke-linejoin:round;stroke-miterlimit:10;stroke-dasharray:none;stroke-opacity:1" d="m72.578 176.988 9.128 14.742h10.697L77.954 168.3l12.937-21.02H80.194l-7.616 12.332-7.617-12.332H54.265l12.992 21.02-14.449 23.43h10.697z"/><path style="fill:#fff;stroke:none;stroke-width:.671798;stroke-linecap:round;stroke-linejoin:round;stroke-miterlimit:10;stroke-dasharray:none;stroke-opacity:1" d="M109.199 147.28v44.45h-9.07v-44.45z"/><path style="fill:#fff;stroke:none;stroke-width:.671904;stroke-linecap:round;stroke-linejoin:round;stroke-miterlimit:10;stroke-dasharray:none;stroke-opacity:1" d="M117.765 147.28v8.677h12.6v35.773h9.128v-35.772h12.6v-8.678z"/><path d="m32.7 74.331-.89.031-.883.083-.87.133-.873.186-.867.246-.862.299-.849.349-.852.41-.838.462-.841.513-.826.565-.831.626-.817.68-.207.184-.795.729-.772.759-.74.793-.708.811-.687.851-.647.874-.622.894-.593.934-.567.954-.53.988-.506 1.015-.473 1.037-.444 1.069-.2.513-.442 1.191-.406 1.14-.361 1.08-.325 1.005-.281.957-.133.502-.27 1.059-.237 1.046-.193 1.028-.17 1.017-.128 1.006-.093.984-.061.988-.026.954.005.957.05.934.073.925.108.914.15.892.182.885.218.861.25.864.283.842.317.822.352.82.393.802.113.206.442.781.489.698.524.626.556.543.6.485.626.401.56.275.58.216.664.175.75.133.85.104.932.06 1.018.03h.222l.781-.03.836-.112.897-.175.957-.247.251-.07 3.732-1.109.404.75.014.04.44.709.007.01h6.285l-.13-.944-.03-.966.069-1.006.163-1.049.203-.882 10.597-39.603h-5.201l-.66.646-.38.381-.723-.462-.726-.411-.736-.37-.738-.33-.742-.277-.752-.226-.755-.185-.765-.133-.766-.092-.77-.052zm-1.762 7.775.784.084.745.184.708.278.678.39.64.493.5.482.53.7.419.76.303.801.184.852.075.903-.006.585-.066.915-.1.945-.125.966-.16.996-.184 1.016-.229 1.048-.247 1.069-.28 1.098-.315 1.13-.348 1.15-.375 1.172-.107.328-.468 1.355L33 103.08l-.5 1.202-.518 1.108-.539 1.028-.551.944-.565.864-.584.78-.595.688-.617.615-.626.525-.649.452-.66.359-.673.287-.693.196-.712.112-.634.031-.697-.04-.74-.133-.802-.227-.853-.318-.186-.072-.656-.318-.597-.38-.528-.431-.465-.503-.397-.566-.336-.626-.277-.678-.207-.75-.145-.81-.085-.865-.017-.935.046-.984.113-1.059.175-1.108.243-1.172.296-1.243.03-.112.354-1.234.368-1.19.397-1.151.43-1.108.442-1.08.474-1.025.497-.987.519-.944.549-.905.572-.863.601-.812.617-.78.647-.739.671-.699.476-.45.956-.834.914-.676.869-.555.834-.401.796-.268.754-.123z" style="fill:#fff;fill-opacity:1;fill-rule:evenodd;stroke:none;stroke-width:.172394"/><path style="fill:#fff;stroke:none;stroke-width:.601516;stroke-linecap:round;stroke-linejoin:round;stroke-miterlimit:10;stroke-dasharray:none;stroke-opacity:1" d="M58.125 88.543h-6.943l-8.497 31.75h6.943l5.104-19.073.39-1.122.644-1.066.807-1.01.942-.84.987-.674 1.598-.617.553-.056.477.056.21.056.805.505.477.73.297.897.073 1.066-.076 1.122-.256 1.121-5.06 18.904h6.944l5.104-19.072.39-1.122.599-1.066.852-1.01.942-.84.987-.674 1.598-.617.508-.056.522.056.165.056.805.505.477.73.342.897.073 1.066-.121 1.122-.255 1.121-5.06 18.904h6.943l5.075-18.96.45-1.85.212-1.796.062-1.739-.132-1.683-.371-1.458-.55-1.29-.73-1.122-.865-.954-1-.785-1.148-.561-1.388-.337-1.105-.056-1.165.169-1.195.28-1.15.449-1.196.617-1.165.841-1.107.954-1.061 1.122-.297-1.234-.492-1.01-.67-.841-.865-.618-.716-.336-1.389-.337-1.284-.056-1.314.225-1.36.392-1.329.617-1.345.842-1.3 1.01z"/><path style="fill:#fff;stroke:none;stroke-width:2.35538;stroke-linecap:round;stroke-linejoin:round;stroke-miterlimit:10;stroke-opacity:1" d="m103.75 87.975-1.318.145-1.303.34-1.298.549-1.28.767-1.263.979-1.248 1.196-.345.374-1.067 1.282-.998 1.354-.904 1.443-.81 1.53-.713 1.604-.629 1.711-.053.142-.486 1.655-.415 1.622-.313 1.62-.231 1.622-.14 1.587-.037.945.043 1.586.179 1.48.312 1.35.432 1.231.568 1.103.435.676.792.91.933.729 1.038.536 1.165.34 1.277.14.626.017 1.302-.085 1.337-.231 1.386-.338 1.421-.464.572.249.959.462.145.16h4.506l-.015-1.07.063-1.71.19-1.193.751-2.812.745-2.763.71-2.603.656-2.44.606-2.278.569-2.123.533-1.96.482-1.814.443-1.64.392-1.478.356-1.337.304-1.16.267-1.012.23-.84.182-.694.127-.533.088-.372h-5.201l-.374 1.44-.213-.249-.714-.52-.962-.44-1.194-.322-1.455-.249-1.689-.124zm-.18 7.626.624.055 1.119.391 1.044.747.35.394.625 1.14.17 1.334-.004.074-.17 1.835-.275 1.69-.367 1.531-.485 1.372-.406.927-.895 1.784-.87 1.407-.856 1.05-.506.43-1.161.656-1.346.395-1.545.103-.86-.142-.918-.498-.636-.891-.344-1.264-.042-1.658.029-.536.188-1.672.325-1.515.103-.322.541-1.62.696-1.583.855-1.553.125-.214 1.01-1.334 1.25-1.23 1.362-.961z"/><path d="m133.862 108.197 5.638 3.024-.224.336-1.122 1.848-1.255 1.68-1.345 1.512-1.494 1.4-1.569 1.176-1.478.84-1.419.616-1.478.504-1.463.28-1.418.112-1.358-.112-1.268-.28-1.208-.504-1.134-.616-.984-.84-.939-1.176-.745-1.4-.58-1.512-.356-1.68-.133-1.848v-.336l.152-2.24.346-2.295.525-2.296.704-2.296.868-2.24 1.048-2.24.194-.392 1.106-1.792 1.256-1.68 1.405-1.567 1.479-1.344 1.583-1.232 1.419-.784 1.478-.672 1.463-.448 1.433-.336 1.418-.112 1.358.112 1.298.336 1.224.448 1.074.672 1.043.784.924 1.232.76 1.344.52 1.567.357 1.68.147 1.792.03.392-7.242 2.968-.058-1.792-.342-1.232-.52-1.064-.716-.84-.925-.56-.985-.168-1.03.168-1.269.56-1.165.84-1.09 1.064-.957 1.232-.643 1.064-.554 1.064-.599 1.736-.554 1.736-.39 1.792-.33 1.736-.016 1.063.088 1.008.297 1.232.507 1.12.715.84.97.56.94.168 1.074-.168 1.225-.56 1.165-.84 1.106-1.12 1-1.232z" style="fill:#fff;stroke:none;stroke-width:.600863;stroke-linecap:round;stroke-linejoin:round;stroke-miterlimit:10;stroke-dasharray:none;stroke-opacity:1"/><path style="fill:#fff;stroke:none;stroke-width:.601267;stroke-linecap:round;stroke-linejoin:round;stroke-miterlimit:10;stroke-dasharray:none;stroke-opacity:1" d="M165.232 120.293h-6.95l5.064-18.922.254-1.12.076-1.12-.09-1.007-.283-.952-.478-.728-.807-.504-.971-.224-1.047.056-1.061.28-1.106.448-.988.672-.942.84-.808 1.007-.643 1.064-.39 1.12-5.109 19.09h-6.95l11.896-44.45h6.951l-4 14.947 1.3-1.008 1.287-.783 1.375-.616 1.376-.448 1.3-.168h1.301l1.39.336 1.15.56 1.047.783.866.952.732 1.12.552 1.287.373 1.456.133 1.68-.06 1.735-.256 1.791-.405 1.848z"/><rect style="display:inline;fill:#fff;fill-opacity:1;fill-rule:evenodd;stroke:none;stroke-width:4.11683;stroke-linecap:round;stroke-miterlimit:4;stroke-dasharray:none;stop-color:#000" width="106.362" height="95.25" x="208.787" y="92.511" rx="11.906"/><rect style="display:inline;fill:#000;fill-opacity:1;fill-rule:evenodd;stroke:none;stroke-width:4.11684;stroke-linecap:round;stroke-miterlimit:4;stroke-dasharray:none;stop-color:#000" width="98.425" height="87.313" x="212.755" y="96.48" rx="8.731"/><path style="font-variation-settings:normal;vector-effect:none;fill:#fff;fill-opacity:1;stroke:none;stroke-width:1.32292;stroke-linecap:butt;stroke-linejoin:miter;stroke-miterlimit:4;stroke-dasharray:none;stroke-dashoffset:0;stroke-opacity:1;-inkscape-stroke:none" d="M-51.882 64.73h36.662l-41.245 71.438 41.245 71.437h-36.662l-41.244-71.437z"/><path style="fill:#fff;stroke:none;stroke-width:.960101;stroke-linecap:round;stroke-linejoin:round;stroke-miterlimit:10;stroke-dasharray:none;stroke-opacity:1" d="M233.42 128.937h-10.566V118.06l5.203-.48 1.6-.4 1.441-.72 1.281-1.039.88-1.36.64-1.439 1.041-4.239h11.526v63.5H233.42z"/><path style="fill:#fff;stroke:none;stroke-width:.959572;stroke-linecap:round;stroke-linejoin:round;stroke-miterlimit:10;stroke-dasharray:none;stroke-opacity:1" d="M258.39 120.14v-11.757h44.695v11.757l-21.428 51.743h-14.071l21.427-51.743z"/></g></svg>