<svg width="1813.2" height="1956" viewBox="0 0 479.742 517.525" xmlns="http://www.w3.org/2000/svg"><g transform="translate(125.412 158.22)"><rect style="display:inline;fill:#000;fill-opacity:1;fill-rule:evenodd;stroke-width:.356397;stroke-linecap:round;stop-color:#000" height="516.996" x="-125.148" y="-157.956" rx="16.536" width="479.213"/><rect style="display:inline;fill:#fff;fill-opacity:1;fill-rule:evenodd;stroke-width:.356397;stroke-linecap:round;stop-color:#000" height="515.938" x="-124.619" y="-157.427" rx="15.875" width="478.155"/><rect style="display:inline;fill:#115ec6;fill-opacity:1;fill-rule:evenodd;stroke-width:.356138;stroke-linecap:round;stop-color:#000" height="492.125" x="-112.713" y="-145.521" rx="31.75" width="454.342"/><rect style="display:inline;fill:#fff;fill-opacity:1;fill-rule:evenodd;stroke:none;stroke-width:4.11682;stroke-linecap:round;stroke-miterlimit:4;stroke-dasharray:none;stop-color:#000" width="106.362" height="95.25" x="211.455" y="231.51" rx="11.906"/><rect style="display:inline;fill:#000;fill-opacity:1;fill-rule:evenodd;stroke:none;stroke-width:4.11684;stroke-linecap:round;stroke-miterlimit:4;stroke-dasharray:none;stop-color:#000" width="98.425" height="87.312" x="215.424" y="235.479" rx="8.731"/><path style="display:inline;fill:#fff;stroke:none;stroke-width:.960099;stroke-linecap:round;stroke-linejoin:round;stroke-miterlimit:10;stroke-dasharray:none;stroke-opacity:1" d="M236.088 267.939h-10.566v-10.877l5.203-.48 1.6-.4 1.442-.72 1.28-1.039.88-1.36.641-1.439 1.04-4.239h11.527v63.5h-13.047z"/><path style="display:inline;fill:#fff;stroke:none;stroke-width:.959571;stroke-linecap:round;stroke-linejoin:round;stroke-miterlimit:10;stroke-dasharray:none;stroke-opacity:1" d="M261.06 259.142v-11.757h44.693v11.757l-21.427 51.743h-14.072l21.427-51.743z"/><path d="m-47.888-90.68-1.325 2.018-1.462 1.906-1.616 1.85-1.937 1.793-2.075 1.682-2.153 1.345-2.26 1.121-2.272.953-2.308.673-2.36.448-2.286.168h-2.52l-2.196-.168-2.064-.448-1.948-.673-1.817-.953-1.604-1.12-1.431-1.346-1.215-1.738-1.017-1.85-.747-2.017-.493-2.13-.24-2.242-.056-2.299.239-2.354.462-2.354.857-3.195.813-2.41 1.023-2.355 1.288-2.298 1.426-2.186 1.635-2.13 1.829-2.018 2.023-1.906 2.13-1.681 2.153-1.345 2.22-1.177 2.312-.897 2.309-.673 2.304-.448 2.286-.169h2.52l2.195.169 2.12.448 1.948.673 1.776.897 1.645 1.177 1.432 1.345 1.23 1.681.945 1.906.832 2.747.452 2.915-10.035 3.587.014-1.513-.155-1.514-.424-1.345-.662-1.29-.891-1.064-1.048-.897-1.138-.56-1.183-.393-1.284-.224-1.314-.112-1.43.112-1.46.224-1.465.448-1.438.56-1.372.73-1.32.952-1.222 1.01-1.1 1.177-1.002 1.233-.793 1.289-1.176 2.298-.896 2.298-.672 2.298-.574 2.355-.336 2.298-.04 2.242.087 1.345.341 1.233.47 1.178.68 1.008.825.897.966.785 1.138.56 1.239.393 1.325.28 1.385.056 1.542-.112 1.587-.28 1.592-.505 1.483-.728 1.473-.897 1.293-1.065 1.212-1.177 1.073-1.29.88-1.4.726-1.458z" style="display:inline;fill:#fff;stroke:none;stroke-width:.672363;stroke-linecap:round;stroke-linejoin:round;stroke-miterlimit:10;stroke-dasharray:none;stroke-opacity:1"/><path style="display:inline;fill:#fff;stroke:none;stroke-width:.672573;stroke-linecap:round;stroke-linejoin:round;stroke-miterlimit:10;stroke-dasharray:none;stroke-opacity:1" d="m-21.927-103.03 1.194.56.936.898.722 1.066.51 1.234.177 1.01-.006 1.065-.257 1.795-.41 1.74-.522 1.738-.705 1.795-.566 1.066-.718 1.01-1.17 1.234-1.295 1.066-1.416.897-1.48.505-1.347.224-1.172-.224-1.21-.505-.99-.897-.723-1.066-.453-1.234-.178-1.01.006-1.066.257-1.795.354-1.739.578-1.739.705-1.795.566-1.065.718-1.01 1.115-1.234 1.293-1.066 1.473-.898 1.494-.56 1.277-.169zm12.428 2.524-.022-.337-.303-1.795-.542-1.739-.826-1.514-1.024-1.403-1.253-1.178-1.286-.841-1.459-.617-1.545-.505-1.66-.28-1.707-.113-1.766.112-1.755.281-1.815.505-1.79.617-1.737.841-1.884 1.178-1.775 1.403-1.638 1.514-1.474 1.74-1.265 1.794-.202.337-1.162 2.244-.952 2.3-.728 2.3-.504 2.3-.28 2.3-.027 2.187.008.392.303 1.796.557 1.682.81 1.571 1.025 1.402 1.253 1.178 1.301.786 1.444.673 1.545.505 1.604.28 1.706.112 1.766-.112 1.812-.28 1.815-.505 1.804-.673 1.723-.786 1.883-1.178 1.776-1.402 1.653-1.57 1.459-1.683 1.265-1.796.217-.392 1.146-2.188.953-2.3.672-2.3.56-2.3.28-2.3z"/><path style="display:inline;fill:#fff;stroke:none;stroke-width:.672522;stroke-linecap:round;stroke-linejoin:round;stroke-miterlimit:10;stroke-dasharray:none;stroke-opacity:1" d="M1.94-77.788h-8.679l8.508-31.75h8.678l-.841 3.142 1.35-1.066 1.415-.898 1.555-.785 1.59-.505 1.547-.336 1.542-.112h2.127l-2.21 8.245h-2.967l-1.262.113-1.322.336-1.27.561-1.26.73-1.064.84-1.014 1.067-.86 1.122-.667 1.234-.387 1.234z"/><path d="m43.132-89.883 7.25 3.024-.258.336-1.28 1.848-1.457 1.68-1.58 1.512-1.774 1.4-1.883 1.176-1.792.84-1.732.615-1.814.504-1.81.28-1.765.112-1.705-.112-1.604-.28-1.544-.504-1.458-.616-1.286-.84-1.252-1.175-1.024-1.4-.826-1.512-.558-1.68-.288-1.848-.022-.336.04-2.24.28-2.296.503-2.296.727-2.295.936-2.24 1.16-2.24.217-.392 1.264-1.792 1.457-1.68 1.652-1.568 1.76-1.344 1.896-1.232 1.721-.784 1.804-.671 1.799-.448 1.769-.336 1.765-.112 1.705.112 1.645.336 1.559.448 1.387.671 1.357.784 1.237 1.232 1.039 1.344.755 1.568.557 1.68.304 1.792.063.392-8.855 2.968-.191-1.792-.51-1.232-.722-1.064-.95-.84-1.194-.56-1.242-.168-1.276.168-1.55.56-1.4.84-1.292 1.064-1.114 1.232-.733 1.064-.62 1.064-.634 1.736-.577 1.735-.368 1.792-.297 1.736.05 1.064.178 1.008.454 1.232.707 1.12.95.84 1.25.56 1.186.168 1.332-.168 1.493-.56 1.4-.84 1.308-1.12 1.17-1.232z" style="display:inline;fill:#fff;stroke:none;stroke-width:.671785;stroke-linecap:round;stroke-linejoin:round;stroke-miterlimit:10;stroke-dasharray:none;stroke-opacity:1"/><path style="display:inline;fill:#fff;stroke:none;stroke-width:2.63338;stroke-linecap:round;stroke-linejoin:round;stroke-miterlimit:10;stroke-opacity:1" d="m73.361-110.105-1.638.145-1.606.34-1.586.548-1.548.767-1.515.98-1.48 1.196-.406.373-1.248 1.283-1.158 1.354-1.033 1.443-.91 1.53-.786 1.604-.672 1.71-.057.143-.497 1.655-.41 1.622-.284 1.62-.18 1.621-.07 1.587.017.946.16 1.586.321 1.48.48 1.35.622 1.23.784 1.103.588.677 1.051.91 1.215.728 1.333.537 1.48.34 1.605.14.784.017 1.621-.085 1.656-.232 1.71-.338 1.746-.463.73.248 1.23.463.193.16h5.632l-.09-1.07-.036-1.71.16-1.193.75-2.813.748-2.763.712-2.603.66-2.44.604-2.278.57-2.123.537-1.96.48-1.814.446-1.639.39-1.479.357-1.337.303-1.16.267-1.01.231-.842.18-.694.124-.533.086-.371h-6.502l-.372 1.44-.283-.25-.927-.519-1.231-.44-1.514-.322-1.835-.25-2.12-.124zm.283 7.626.784.055 1.424.39 1.355.748.463.394.858 1.14.302 1.334v.074l-.091 1.834-.231 1.69-.357 1.532-.515 1.372-.445.927-1 1.784-.995 1.407-1 1.05-.604.43-1.407.656-1.655.394-1.925.103-1.086-.142-1.18-.497-.854-.892-.514-1.264-.163-1.658v-.536l.124-1.671.305-1.515.107-.322.57-1.62.764-1.583.965-1.553.142-.214 1.175-1.334 1.48-1.231 1.638-.96z"/><path d="M110.202-117.712a4.366 4.366 0 0 1-4.366 4.366 4.366 4.366 0 0 1-4.367-4.366 4.366 4.366 0 0 1 4.367-4.366 4.366 4.366 0 0 1 4.366 4.366z" style="display:inline;fill:#fff;fill-rule:evenodd;stroke:none;stroke-width:.362115;stroke-linecap:round;stop-color:#000"/><path style="display:inline;fill:#fff;stroke:none;stroke-width:.206811;stroke-linecap:round;stroke-linejoin:round;stroke-miterlimit:10;stroke-opacity:1" d="m99.921-109.538-6.97 26.029-.09.429-.067.553v.568l.073.577.134.58.2.588.265.594.336.603.402.605.472.622h8.089l-.24-.304-.363-.524-.316-.535-.265-.563-.22-.582-.176-.6-.127-.621-.076-.638-.036-.667.015-.685 6.97-26.029zm0 0"/><path style="display:inline;fill:#fff;stroke:none;stroke-width:.672237;stroke-linecap:round;stroke-linejoin:round;stroke-miterlimit:10;stroke-dasharray:none;stroke-opacity:1" d="M173.004-77.788h-8.69l5.071-18.922.244-1.12.02-1.119-.179-1.008-.417-.951-.646-.728-1.043-.504-1.229-.224-1.304.056-1.308.28-1.354.448-1.189.672-1.122.84-.942 1.007-.734 1.064-.412 1.12-5.115 19.09h-8.689l11.91-44.45h8.69l-4.006 14.947 1.56-1.008 1.555-.784 1.678-.615 1.69-.448 1.615-.168h1.625l1.76.336 1.476.56 1.36.783 1.146.952.99 1.12.775 1.287.563 1.456.279 1.68.04 1.735-.2 1.791-.383 1.847z"/><path style="display:inline;fill:#fff;stroke:none;stroke-width:.672154;stroke-linecap:round;stroke-linejoin:round;stroke-miterlimit:10;stroke-dasharray:none;stroke-opacity:1" d="m130.279-101.362-1.14-.56-1.183-.392-1.37-.112-1.375.112-1.435.336-.904.448-.879.56-.811.728-.673.84-.977 1.344-.782 1.456-.513 1.288-.417 1.343-.192 1.344-.009 1.288.082.952.32.896.518.784.732.616.832.448 1.087.336 1.131.168h1.233l1.222-.168 1.281-.392.905-.448.878-.56.755-.728.618-.84.651-1.176.54-1.176 1.35-5.04.015-.895-.11-.84-.295-.784-.492-.672zm-19.69 24.134 1.318.728 1.49.504 1.52.392 2.543.336 2.618.056 2.413-.224.972-.28.92-.504.851-.672.715-.784.576-.895.367-.952.45-1.68-1.595.728-1.592.504-2.01.392-2.021.224-1.931-.112-1.733-.224-1.658-.504-1.486-.728-1.314-.952-1.06-1.064-.902-1.232-.633-1.4-.436-1.512-.252-1.568-.04-1.736.145-1.792.312-1.792.551-1.847.76-1.792.914-1.736 1.025-1.736 1.138-1.736 1.331-1.624 1.197-1.12 1.293-1.064 1.417-.896 1.443-.784 1.454-.616 1.958-.616 1.938-.336 1.935-.112 1.89.056 1.76.336 1.254.336 1.139.56.966.784.435-1.624h8.629l-8.177 30.519-.518 1.511-.726 1.456-.88 1.4-1.088 1.344-1.17 1.232-1.35 1.064-1.813 1.12-1.865.896-1.917.672-1.913.448-2.346.392-2.23.168-2.226-.056-2.14-.168-2.637-.616-2.479-.784-2.434-.952-2.248-1.232 5.966-7z"/><path style="display:inline;fill:#fff;stroke:none;stroke-width:.672067;stroke-linecap:round;stroke-linejoin:round;stroke-miterlimit:10;stroke-dasharray:none;stroke-opacity:1" d="m72.346-25.77 3.81-4.255 12.495 19.706h10.758L82.488-37.022l16.08-17.747h-12.27L72.346-39.318v-15.45h-9.132v44.45h9.132z"/><path d="m-43.913-23.211-.784 2.018-.953 1.906-1.12 1.85-1.456 1.793-1.624 1.682-1.792 1.345-1.96 1.121-2.017.953-2.128.673-2.24.448-2.24.168h-2.521l-2.24-.168-2.185-.448-2.128-.673-2.072-.953-1.905-1.121-1.792-1.345-1.68-1.738-1.512-1.85-1.288-2.018-1.065-2.13-.84-2.242-.672-2.298-.392-2.354-.168-2.354v-3.195l.168-2.41.392-2.355.672-2.298.84-2.186 1.065-2.13 1.288-2.018 1.512-1.906 1.68-1.681 1.792-1.346 1.905-1.177 2.072-.897 2.128-.672 2.185-.449 2.24-.168h2.52l2.24.168 2.24.449 2.13.672 2.015.897 1.96 1.177 1.793 1.346 1.68 1.681 1.456 1.906 1.568 2.747 1.233 2.914-9.074 3.588-.392-1.514-.56-1.513-.784-1.345-1.008-1.29-1.176-1.065-1.288-.896-1.288-.561-1.289-.392-1.344-.225-1.344-.112-1.4.112-1.4.225-1.345.448-1.288.56-1.176.73-1.064.952-.952 1.01-.784 1.176-.672 1.233-.448 1.29-.56 2.298-.28 2.298-.056 2.298.056 2.354.28 2.299.56 2.242.448 1.345.672 1.233.784 1.177.952 1.01 1.064.896 1.176.785 1.288.56 1.345.393 1.4.28 1.4.056 1.512-.112 1.512-.28 1.457-.505 1.288-.728 1.232-.897 1.008-1.065.896-1.177.728-1.29.504-1.401.336-1.457z" style="display:inline;fill:#fff;stroke:none;stroke-width:.672363;stroke-linecap:round;stroke-linejoin:round;stroke-miterlimit:10;stroke-dasharray:none;stroke-opacity:1"/><path style="display:inline;fill:#fff;stroke:none;stroke-width:.67182;stroke-linecap:round;stroke-linejoin:round;stroke-miterlimit:10;stroke-dasharray:none;stroke-opacity:1" d="m-10.096-45.868 1.176.784 1.064.896.952 1.064.784 1.12.615 1.23.448 1.344.56 2.24.336 2.295.056 2.351-.056 2.295-.336 2.296-.56 2.295-.448 1.288-.615 1.287-.784 1.12-.952 1.064-1.064.895-1.176.728-1.287.56-1.344.448-1.4.224-1.4.112-1.4-.112-1.399-.224-1.343-.448-1.288-.56-1.176-.728-1.064-.895-.952-1.064-.783-1.12-.616-1.287-.504-1.288-.504-2.295-.336-2.296-.056-2.295.056-2.351.336-2.295.504-2.24.504-1.343.616-1.232.783-1.12.952-1.063 1.064-.896 1.176-.784 1.288-.56 1.343-.391 1.4-.28 1.4-.056 1.4.056 1.399.28 1.344.392zm15.733 11.7-.168-2.35-.392-2.352-.616-2.295-.896-2.24-1.063-2.127-1.288-2.015-1.456-1.847-1.68-1.736-1.791-1.344-1.96-1.12-2.015-.895-2.128-.728-2.24-.392-2.183-.223h-2.575l-2.24.223-2.183.392-2.128.728-2.071.896-1.904 1.12-1.791 1.343-1.68 1.736-1.456 1.847-1.287 2.015-1.12 2.128-.84 2.239-.616 2.295-.448 2.351-.168 2.352v3.19l.168 2.408.448 2.351.616 2.295.84 2.24 1.12 2.127 1.287 1.96 1.456 1.903 1.68 1.68 1.791 1.343 1.904 1.176 2.071.895 2.128.672 2.183.448 2.24.224h2.575l2.184-.224 2.24-.448 2.127-.672 2.015-.895 1.96-1.176 1.792-1.344 1.68-1.68 1.455-1.903 1.288-1.959 1.063-2.127.896-2.24.616-2.295.392-2.351.168-2.407z"/><path style="display:inline;fill:#fff;stroke:none;stroke-width:.671938;stroke-linecap:round;stroke-linejoin:round;stroke-miterlimit:10;stroke-dasharray:none;stroke-opacity:1" d="M25.742-46.54h10.586l1.064.113.952.335.952.448.784.672.672.784.448.952.336.951.112 1.064-.112 1.008-.336 1.007-.448.896-.672.84-.784.616-.952.503-.952.336-1.064.056H25.742Zm-9.073-8.229v44.45h9.073v-17.354h5.937L41.816-10.32h10.586L41.76-28.457l1.624-.728 1.569-.952 1.4-1.12 1.232-1.343 1.064-1.455.84-1.568.672-1.68.392-1.735.168-1.791-.056-1.848-.336-1.735-.504-1.735-.784-1.624-1.008-1.512-1.12-1.4-1.344-1.175-1.512-1.007-1.625-.84-1.68-.56-1.792-.392-1.792-.112z"/><path style="fill:#fff;stroke:none;stroke-width:.671903;stroke-linecap:round;stroke-linejoin:round;stroke-miterlimit:10;stroke-dasharray:none;stroke-opacity:1" d="m-82.878 32.28-2.326 8.676h12.6l-9.584 35.773h9.128l9.585-35.773h12.6l2.325-8.677z"/><path style="fill:#fff;stroke:none;stroke-width:.672154;stroke-linecap:round;stroke-linejoin:round;stroke-miterlimit:10;stroke-dasharray:none;stroke-opacity:1" d="M-45.651 44.98h8.684l-5.071 18.926-.188 1.12-.076 1.12.178 1.008.417.952.702.728 1.041.504 1.188.168h1.288l1.364-.28 1.297-.448 1.244-.672 1.066-.84.998-1.008.678-1.064.412-1.12 5.116-19.095h8.685l-8.508 31.75h-8.684l.6-2.24-1.503 1.008-1.61.784-1.678.616-1.633.448-1.67.168h-1.625l-1.759-.336-1.475-.56-1.302-.784-1.202-.952-.933-1.12-.831-1.288-.563-1.455-.222-1.68-.039-1.736.16-1.848.367-1.792z"/><path style="fill:#fff;stroke:none;stroke-width:.671805;stroke-linecap:round;stroke-linejoin:round;stroke-miterlimit:10;stroke-dasharray:none;stroke-opacity:1" d="M-4.327 32.279h8.66l-9.394 35.06-.053.616.144.505.326.449.428.28.6.056 1.69-.056 1.737-.224-1.094 7.629-2.817.505-2.772.336-2.798.225-1.144-.113-1.027-.336-.997-.449-.77-.673-.612-.841-.4-1.01-.217-1.066-.035-1.122.204-1.178z"/><path style="fill:#fff;stroke:none;stroke-width:2.63339;stroke-linecap:round;stroke-linejoin:round;stroke-miterlimit:10;stroke-opacity:1" d="m23.25 44.412-1.64.145-1.605.34-1.586.548-1.548.767-1.515.979-1.48 1.197-.406.373-1.248 1.283-1.158 1.354-1.033 1.442-.91 1.531-.786 1.604-.672 1.71-.057.142-.497 1.656-.41 1.621-.284 1.62-.181 1.622-.068 1.587.016.946.16 1.585.321 1.48.48 1.35.622 1.231.784 1.103.588.677 1.051.91 1.215.728 1.333.537 1.48.34 1.605.14.784.017 1.621-.086 1.656-.231 1.71-.338 1.746-.464.73.25 1.23.462.193.16h5.632l-.09-1.07-.035-1.71.159-1.193.75-2.813.748-2.763.712-2.603.66-2.44.604-2.278.57-2.123.537-1.96.48-1.814.446-1.64.39-1.478.357-1.337.303-1.16.267-1.011.232-.841.18-.694.124-.533.085-.372H32.1l-.372 1.44-.282-.249-.928-.52-1.231-.44-1.514-.321-1.835-.25-2.12-.124zm.282 7.625.784.056 1.424.39 1.355.747.463.394.858 1.141.301 1.333v.075l-.09 1.834-.231 1.69-.357 1.532-.515 1.372-.445.927-1 1.784-.995 1.406-1 1.05-.604.43-1.407.657-1.655.394-1.925.103-1.086-.142-1.18-.497-.854-.892-.514-1.264-.163-1.658v-.536l.124-1.672.305-1.514.108-.322.569-1.62.764-1.584.965-1.553.142-.214 1.175-1.334 1.48-1.23 1.638-.961z"/><path d="m62.235 64.634 7.25 3.024-.258.336-1.28 1.848-1.457 1.68-1.58 1.511-1.774 1.4-1.883 1.176-1.792.84-1.732.616-1.814.504-1.81.28-1.765.112-1.705-.112-1.604-.28-1.544-.504-1.458-.616-1.286-.84-1.252-1.176-1.024-1.4-.826-1.512-.558-1.68-.288-1.847-.022-.336.04-2.24.28-2.296.503-2.296.727-2.296.936-2.24 1.16-2.24.217-.391 1.264-1.792 1.457-1.68 1.652-1.568 1.759-1.344 1.897-1.232 1.721-.784 1.803-.672 1.8-.448 1.769-.336 1.765-.112 1.705.112 1.645.336 1.559.448 1.387.672 1.357.784 1.237 1.232 1.039 1.344.755 1.568.557 1.68.304 1.792.063.392-8.855 2.967-.191-1.791-.51-1.232-.722-1.064-.95-.84-1.194-.56-1.242-.168-1.276.168-1.55.56-1.4.84-1.292 1.064-1.114 1.232-.733 1.063-.62 1.064-.634 1.736-.577 1.736-.368 1.792-.297 1.736.05 1.064.178 1.008.454 1.232.707 1.12.95.84 1.25.56 1.186.168 1.332-.168 1.493-.56 1.4-.84 1.308-1.12 1.17-1.232z" style="fill:#fff;stroke:none;stroke-width:.671786;stroke-linecap:round;stroke-linejoin:round;stroke-miterlimit:10;stroke-dasharray:none;stroke-opacity:1"/><path style="fill:#fff;stroke:none;stroke-width:.672236;stroke-linecap:round;stroke-linejoin:round;stroke-miterlimit:10;stroke-dasharray:none;stroke-opacity:1" d="M102.254 76.73h-8.689l5.07-18.923.245-1.12.02-1.12-.18-1.007-.417-.952-.646-.727-1.042-.504-1.23-.224-1.304.056-1.308.28-1.353.448-1.19.671-1.121.84-.943 1.008-.733 1.064-.412 1.12-5.116 19.09h-8.688l11.91-44.45h8.689L89.81 47.225l1.559-1.007 1.555-.784 1.679-.616 1.69-.448 1.614-.168h1.626l1.76.336 1.475.56 1.36.784 1.146.952.99 1.12.776 1.287.563 1.455.278 1.68.04 1.735-.2 1.792-.383 1.847zM223.54 76.73h-8.69l5.07-18.923.245-1.12.02-1.12-.18-1.007-.417-.952-.646-.727-1.042-.504-1.23-.224-1.304.056-1.308.28-1.353.448-1.19.671-1.121.84-.943 1.008-.733 1.064-.412 1.12-5.115 19.09h-8.69l11.911-44.45h8.689l-4.005 14.946 1.56-1.007 1.554-.784 1.679-.616 1.69-.448 1.614-.168h1.626l1.76.336 1.475.56 1.36.784 1.146.952.99 1.12.776 1.287.563 1.455.279 1.68.039 1.735-.2 1.792-.383 1.847z"/><path d="m181.268 45.899-.34 1.415-.459 1.824-.57 2.214-.7 2.59-6.09 22.788h8.16l6.382-23.812 2.021-7.541.376-1.353.522-2.02.371-1.61.214-1.207.063-.798-.095-1.155-.36-1.274-.636-1.17-.91-1.076-1.008-.783-1.223-.632-1.304-.376-1.416-.115-1.14.048-1.55.296-1.545.502-1.515.736-.13.079-.863.538-1.597 1.076-2.33 1.562-.178-.245-1.075-1.416-.815-1.024-.522-.653-1.092-.815-1.253-.522-1.384-.162-.946.048-1.4.213-1.447.408-1.483.585-1.53.783-1.566.945-1.614 1.139.099-.653.115-1.332.13-1.665h-9.04l-.21.913-.375 1.677-.376 1.661-.376 1.63-.372 1.613-.375 1.582-.376 1.562-.372 1.546-.376 1.515-.375 1.483-.356 1.483-.376 1.432-.375 1.435-.36 1.4-.372 1.368-5.928 22.15h8.728l.146-.522.668-2.262.621-2.167.586-2.037.553-1.921.522-1.824.487-1.692.438-1.582.424-1.467.376-1.333.343-1.238.293-1.127.277-.993.226-.893.197-.768.13-.454.376-1.384.408-1.567.47-1.756.34-1.435.49-1.76.472-1.4.442-1.04.795-1.19 1.143-1.008 1.353-.622 1.562-.193 1.154.11 1.06.428.716.747.36 1.075.016 1.4-.324 1.71-8.08 30.165h8.566l.23-.668.34-1.092.36-1.154.375-1.238.392-1.305.407-1.384.423-1.432.423-1.53.44-1.598.47-1.661.459-1.744.486-1.807.506-1.875.506-1.953.518-2.017.115-.443.44-1.63.407-1.514.375-1.416.048-.23.443-1.807.47-1.514.475-1.222.079-.146.862-1.254 1.143-.894 1.416-.538 1.677-.182 1.498.131 1.238.474.768.8.26 1.138-.02.178-.11.653z" style="display:inline;fill:#fff;fill-opacity:1;fill-rule:evenodd;stroke:none;stroke-width:.395465"/><path style="fill:#fff;stroke:none;stroke-width:.672573;stroke-linecap:round;stroke-linejoin:round;stroke-miterlimit:10;stroke-dasharray:none;stroke-opacity:1" d="m253.716 51.486 1.194.561.935.898.723 1.065.51 1.235.177 1.01-.006 1.065-.257 1.795-.41 1.739-.522 1.739-.705 1.795-.566 1.066-.718 1.01-1.171 1.234-1.294 1.065-1.416.898-1.48.505-1.348.224-1.171-.224-1.21-.505-.99-.898-.723-1.065-.453-1.235-.178-1.01.006-1.065.257-1.795.354-1.739.578-1.739.705-1.795.566-1.066.718-1.01 1.115-1.234 1.293-1.065 1.473-.898 1.494-.56 1.277-.17zm12.428 2.524-.022-.336-.303-1.795-.542-1.74-.826-1.514-1.024-1.402-1.253-1.178-1.286-.841-1.459-.618-1.545-.504-1.66-.28-1.707-.113-1.766.112-1.755.28-1.815.505-1.79.618-1.737.841-1.884 1.178-1.775 1.402-1.638 1.515-1.474 1.739-1.265 1.795-.202.336-1.162 2.244-.952 2.3-.728 2.3-.504 2.3-.28 2.3-.027 2.187.007.393.303 1.795.557 1.683.812 1.57 1.024 1.403 1.252 1.178 1.302.785 1.443.674 1.545.504 1.605.28 1.706.113 1.766-.112 1.811-.28 1.816-.505 1.804-.674 1.722-.785 1.884-1.178 1.776-1.402 1.653-1.571 1.459-1.683 1.265-1.795.217-.393 1.146-2.187.952-2.3.673-2.3.56-2.3.28-2.3z"/><path style="fill:#fff;fill-opacity:1;fill-rule:evenodd;stroke:none;stroke-width:.593379" d="m250.159 39.778.456 1.513L262.2 38.67l-.85-3.093z"/><path style="fill:#fff;stroke:none;stroke-width:.672522;stroke-linecap:round;stroke-linejoin:round;stroke-miterlimit:10;stroke-dasharray:none;stroke-opacity:1" d="M277.583 76.729h-8.679l8.507-31.75h8.68l-.842 3.141 1.349-1.065 1.416-.898 1.555-.785 1.59-.505 1.547-.337 1.542-.112h2.127l-2.21 8.246h-2.967l-1.262.112-1.322.337-1.27.56-1.26.73-1.065.842-1.013 1.065-.86 1.122-.667 1.234-.387 1.234z"/><path style="fill:#fff;stroke:none;stroke-width:.671903;stroke-linecap:round;stroke-linejoin:round;stroke-miterlimit:10;stroke-dasharray:none;stroke-opacity:1" d="M-87.36 99.748v8.677h12.6v35.773h9.129v-35.773h12.6v-8.677z"/><path style="fill:#fff;stroke:none;stroke-width:.67237;stroke-linecap:round;stroke-linejoin:round;stroke-miterlimit:10;stroke-dasharray:none;stroke-opacity:1" d="m-8.28 128.895-.337 2.074-.56 1.962-.84 1.906-.952 1.794-1.232 1.681-1.344 1.57-1.569 1.401-1.68 1.177-1.792 1.01-1.904.784-2.017.56-2.016.337-2.072.112-2.073-.112-2.016-.337-1.96-.56-1.96-.785-1.793-1.009-1.68-1.177-1.512-1.401-1.4-1.57-1.177-1.681-1.008-1.794-.784-1.906-.56-1.962-.392-2.074-.112-2.073V99.748h9.13v27.073l.111 1.514.336 1.401.56 1.346.785 1.233.952 1.12 1.064.954 1.288.784 1.344.56 1.4.337 1.457.112 1.456-.112 1.456-.336 1.344-.56 1.233-.785 1.12-.953.952-1.121.728-1.233.56-1.346.336-1.401.112-1.513V99.748h9.13v27.073Z"/><path style="fill:#fff;stroke:none;stroke-width:.671903;stroke-linecap:round;stroke-linejoin:round;stroke-miterlimit:10;stroke-dasharray:none;stroke-opacity:1" d="M5.609 99.748h9.072v35.773h19.712v8.677H5.61ZM43.074 99.748h9.072v35.773h19.712v8.677H43.074z"/><path d="M90.06 99.748h11.818l14.841 44.45h-9.969l-2.408-7.848H87.596l-2.408 7.848h-9.97zm5.881 9.305-5.937 19.45h11.93z" style="fill:#fff;stroke:none;stroke-width:.672354;stroke-linecap:round;stroke-linejoin:round;stroke-miterlimit:10;stroke-dasharray:none;stroke-opacity:1"/><path style="fill:#fff;stroke:none;stroke-width:.672071;stroke-linecap:round;stroke-linejoin:round;stroke-miterlimit:10;stroke-dasharray:none;stroke-opacity:1" d="M134.592 144.198v-32.19l13.447 19.482 13.447-19.482v32.19h9.077v-44.45h-11.654l-10.87 15.73-10.87-15.73h-11.71v44.45z"/><path style="fill:#fff;stroke:none;stroke-width:.67182;stroke-linecap:round;stroke-linejoin:round;stroke-miterlimit:10;stroke-dasharray:none;stroke-opacity:1" d="m208.08 108.65 1.176.783 1.063.896.952 1.063.784 1.12.616 1.231.448 1.344.56 2.24.335 2.295.056 2.35-.056 2.296-.335 2.295-.56 2.296-.448 1.287-.616 1.288-.784 1.12-.952 1.063-1.063.896-1.176.728-1.288.56-1.344.447-1.4.224-1.399.112-1.4-.112-1.4-.224-1.343-.447-1.288-.56-1.176-.728-1.063-.896-.952-1.063-.784-1.12-.616-1.288-.504-1.287-.504-2.296-.336-2.295-.056-2.295.056-2.351.336-2.296.504-2.239.504-1.344.616-1.231.784-1.12.952-1.063 1.063-.896 1.176-.784 1.288-.56 1.344-.392 1.4-.28 1.399-.056 1.4.056 1.4.28 1.343.392zm15.732 11.7-.168-2.352-.392-2.351-.615-2.295-.896-2.24-1.064-2.127-1.288-2.015-1.455-1.848-1.68-1.735-1.792-1.344-1.96-1.12-2.015-.895-2.127-.728-2.24-.392-2.183-.224h-2.576l-2.24.224-2.183.392-2.127.728-2.072.896-1.903 1.12-1.792 1.343-1.68 1.735-1.455 1.848-1.288 2.015-1.12 2.127-.84 2.24-.616 2.295-.447 2.351-.168 2.351v3.191l.168 2.408.447 2.35.616 2.296.84 2.24 1.12 2.127 1.288 1.96 1.455 1.903 1.68 1.679 1.792 1.344 1.903 1.175 2.072.896 2.127.672 2.184.448 2.24.224h2.575l2.183-.224 2.24-.448 2.127-.672 2.016-.896 1.96-1.175 1.791-1.344 1.68-1.68 1.455-1.903 1.288-1.96 1.064-2.127.896-2.239.615-2.295.392-2.351.168-2.408z"/><path style="fill:#fff;stroke:none;stroke-width:.671938;stroke-linecap:round;stroke-linejoin:round;stroke-miterlimit:10;stroke-dasharray:none;stroke-opacity:1" d="M243.918 107.977h10.585l1.064.112.952.336.952.448.784.672.672.784.449.951.336.952.112 1.064-.112 1.007-.336 1.008-.449.896-.672.84-.784.615-.952.504-.952.336-1.064.056h-10.585zm-9.074-8.23v44.45h9.074v-17.354h5.936l10.138 17.355h10.585l-10.641-18.138 1.624-.728 1.568-.952 1.4-1.12 1.232-1.343 1.064-1.456.84-1.567.673-1.68.392-1.735.168-1.791-.056-1.848-.336-1.735-.504-1.736-.784-1.623-1.009-1.512-1.12-1.4-1.344-1.175-1.512-1.008-1.624-.84-1.68-.56-1.793-.391-1.792-.112z"/><path style="fill:#fff;stroke:none;stroke-width:.672348;stroke-linecap:round;stroke-linejoin:round;stroke-miterlimit:10;stroke-dasharray:none;stroke-opacity:1" d="M312.581 135.51h-21.786v-9.754h18.202v-8.24h-18.202v-9.136h20.106v-8.632h-29.235v44.45h30.915z"/><path style="display:inline;fill:#fff;stroke:none;stroke-width:.59428" d="m53.975 326.76-71.437-37.82L7.75 263.728l-33.618-33.617-25.213 25.213-37.82-71.438 21.011 121.864Z"/><path style="display:inline;fill:#fff;fill-opacity:1;stroke:none;stroke-width:.895027;stroke-linecap:round;stroke-linejoin:round;stroke-miterlimit:10;stroke-dasharray:none;stroke-opacity:1" d="M36.687 183.885H23.82v63.5h11.268V204.44l24.694 42.946H72.72v-63.5H61.381v42.947z"/><path d="m118.413 203.876-.112 1.12-.336 1.064-.505 1.008-.728.896-.897.672-.952.56-1.065.336-1.12.056-1.12-.056-1.065-.336-1.009-.56-.84-.672-.729-.896-.56-1.008-.28-1.064-.112-1.12v-6.327l.112-1.12.28-1.064.56-1.008.729-.84.84-.728 1.009-.504 1.064-.336 1.12-.112 1.121.112 1.065.336.952.504.897.728.728.84.505 1.008.336 1.064.112 1.12zm-14.288 9.576-1.288.056-1.233.336-1.177.56-1.008.727-.897.896-.728 1.064-.56 1.12-.336 1.232-.113 1.288v14.951l.113 1.68.336 1.68.56 1.624.784 1.512.953 1.4 1.177 1.232 1.288 1.12 1.457.895 1.513.728 2.129.672 2.241.504 2.241.224h2.241l2.242-.224 2.185-.504 2.129-.672 1.569-.728 1.456-.896 1.29-1.12 1.12-1.231.952-1.4.785-1.512.56-1.624.336-1.68.112-1.68v-14.95l-.112-1.289-.336-1.232-.504-1.12-.729-1.064-.896-.896-1.065-.728-1.176-.56-1.233-.335-1.233-.056 1.233-.112 1.233-.336 1.176-.56 1.065-.728.896-.896.729-1.064.504-1.12.336-1.232.112-1.288v-10.527l-.112-1.68-.336-1.68-.56-1.568-.785-1.568-.952-1.4-1.12-1.232-1.29-1.12-1.456-.896-1.57-.728-2.128-.672-2.185-.447-2.242-.224h-2.24l-2.242.224-2.241.447-2.13.672-1.512.728-1.457.896-1.288 1.12-1.177 1.232-.953 1.4-.784 1.568-.56 1.568-.336 1.68-.113 1.68v10.527l.113 1.288.336 1.232.56 1.12.728 1.064.897.896 1.008.728 1.177.56 1.233.336zm14.288 20.27-.112 1.12-.336 1.064-.505 1.008-.728.84-.897.728-.952.56-1.065.28-1.12.112-1.12-.112-1.065-.28-1.009-.56-.84-.728-.729-.84-.56-1.008-.28-1.064-.112-1.12v-9.8l.112-1.12.28-1.063.56-1.008.729-.896.84-.672 1.009-.56 1.064-.28 1.12-.112 1.121.112 1.065.28.952.56.897.672.728.896.505 1.008.336 1.064.112 1.12z" style="fill:#fff;fill-opacity:1;stroke:none;stroke-width:.672154;stroke-linecap:round;stroke-linejoin:round;stroke-miterlimit:10;stroke-dasharray:none;stroke-opacity:1"/></g></svg>