<svg width="4986.876" height="2346" viewBox="0 0 1319.444 620.712" xmlns="http://www.w3.org/2000/svg"><g transform="translate(-252.668 86.585)"><rect style="fill:#000;stroke-width:2.30471;stroke-linecap:round" width="407.922" height="619.125" x="252.932" y="-85.791" rx="15.875"/><rect style="fill:#fff;stroke-width:2.30471;stroke-linecap:round" width="384.11" height="595.313" x="264.839" y="-73.885" rx="31.75"/><path style="fill:#000;fill-opacity:1;stroke:none;stroke-width:2.11052" d="M302.03 112.646h-8.85l9.919-37.135c.193-1.452.332-2.662.405-3.628l-.184-3.686h8.775l.811 3.362c5.724-2.632 10.14-3.952 13.236-3.952 3.217 0 5.715.995 7.485 2.979 1.447 1.733 2.175 3.878 2.175 6.43 0 .494-.028.973-.074 1.445l-9.107 34.185h-8.811l7.705-28.935c.268-.958.406-1.829.406-2.595 0-3.105-2.092-4.786-6.268-5.044-5.364.317-8.692 2.86-9.991 7.64z"/><path style="fill:#000;stroke:none;stroke-width:2.63339;stroke-linecap:round;stroke-linejoin:round;stroke-miterlimit:10;stroke-opacity:1" d="m359.208 80.329-1.639.145-1.605.34-1.586.548-1.548.767-1.515.98-1.48 1.196-.407.373-1.248 1.283-1.157 1.354-1.034 1.442-.91 1.532-.786 1.603-.671 1.71-.057.143-.498 1.655-.41 1.622-.284 1.62-.18 1.621-.069 1.587.016.946.16 1.586.322 1.48.48 1.35.622 1.23.784 1.103.588.677 1.05.91 1.215.728 1.333.537 1.48.34 1.605.14.784.017 1.622-.086 1.655-.23 1.71-.339 1.746-.463.73.248 1.23.463.193.16h5.633l-.09-1.07-.036-1.71.159-1.193.75-2.813.748-2.763.713-2.603.659-2.44.605-2.278.57-2.123.536-1.96.48-1.814.446-1.639.391-1.479.357-1.337.303-1.16.266-1.011.232-.841.18-.694.124-.533.085-.372h-6.501l-.372 1.441-.283-.25-.927-.519-1.232-.44-1.513-.322-1.835-.25-2.12-.124zm.282 7.626.784.055 1.425.39 1.355.748.462.394.858 1.14.302 1.334v.074l-.09 1.834-.232 1.69-.357 1.532-.514 1.372-.446.927-1 1.784-.995 1.407-.999 1.05-.604.43-1.407.656-1.656.394-1.925.103-1.086-.142-1.179-.497-.854-.892-.515-1.264-.162-1.658v-.536l.124-1.671.305-1.515.107-.322.57-1.62.763-1.583.965-1.553.143-.215 1.174-1.333 1.48-1.231 1.638-.96z"/><path style="fill:#000;stroke:none;stroke-width:.672205;stroke-linecap:round;stroke-linejoin:round;stroke-miterlimit:10;stroke-dasharray:none;stroke-opacity:1" d="m446.778 74.242-1.415-1.623-1.587-1.4-1.8-1.231-1.9-1.064-2.089-.784-2.245-.615-2.32-.336-2.437-.112-2.44.112-2.5.336-2.575.615-1.918.672-1.85.84-1.799 1.064-1.731 1.231-1.594 1.344-1.312 1.343-1.12 1.456-.965 1.511-.812 1.568-.547 1.623-.38 1.624-.154 1.623.1 1.512.267 1.511.481 1.344.72 1.288.892 1.063 1.382 1.12 1.64.784 1.826.503 9.852 2.352.904.392.69.56.52.783.264.896.025.952-.23 1.063-.437 1.008-.704.952-.841.84-1.163.783-1.23.616-1.297.448-1.293.224h-3.027l-1.678-.224-1.591-.336-1.476-.56-1.43-.728-1.576-1.231-1.434-1.344-1.205-1.567-9.325 5.934 1.175 1.68 1.318 1.567 1.474 1.4 1.632 1.23 1.86 1.009 2.2.783 2.373.56 2.417.392 2.477.168 2.594-.056 2.582-.224 2.642-.448 2.647-.672 1.861-.671 1.81-.896 1.757-1.12 1.634-1.287 1.511-1.456 1.317-1.567 1.123-1.68.928-1.791.648-1.792.424-1.791.215-1.847-.04-1.736-.35-1.623-.648-1.344-.862-1.176-.948-1.063-1.147-.952-1.247-.784-1.251-.56-1.338-.447-9.735-2.576-.654-.28-.552-.447-.396-.616-.268-.672-.03-.728.098-.784.266-.783.49-.784.573-.672 1.137-.896 1.189-.671 1.312-.504 1.308-.28 1.263-.112 1.82.112 1.719.28 1.658.504 1.517.615 1.4.84 1.3 1.008 1.086 1.176 8.574-6.27"/><path style="fill:#000;stroke:none;stroke-width:.672572;stroke-linecap:round;stroke-linejoin:round;stroke-miterlimit:10;stroke-dasharray:none;stroke-opacity:1" d="m466.802 87.403 1.194.561.935.898.723 1.066.51 1.234.177 1.01-.006 1.065-.257 1.795-.41 1.74-.522 1.738-.705 1.795-.566 1.066-.718 1.01-1.171 1.234-1.294 1.066-1.416.897-1.48.505-1.347.224-1.172-.224-1.21-.505-.99-.897-.723-1.066-.453-1.234-.178-1.01.006-1.066.257-1.795.354-1.739.578-1.739.705-1.795.566-1.066.718-1.01 1.115-1.233 1.293-1.066 1.473-.898 1.494-.56 1.277-.169zm12.428 2.525-.022-.337-.303-1.795-.542-1.739-.826-1.515-1.024-1.402-1.253-1.178-1.286-.841-1.459-.617-1.545-.505-1.66-.28-1.706-.113-1.767.112-1.755.28-1.815.506-1.79.617-1.737.841-1.884 1.178-1.775 1.402-1.638 1.515-1.474 1.739-1.265 1.795-.202.337-1.162 2.243-.952 2.3-.728 2.3-.504 2.3-.28 2.3-.027 2.188.007.392.303 1.795.557 1.683.812 1.57 1.024 1.403 1.252 1.178 1.302.786 1.443.673 1.545.505 1.605.28 1.706.112 1.766-.112 1.811-.28 1.816-.505 1.804-.673 1.722-.786 1.884-1.178 1.776-1.402 1.653-1.57 1.459-1.684 1.265-1.795.217-.392 1.146-2.188.952-2.3.672-2.3.56-2.3.281-2.3z"/><path style="fill:#000;stroke:none;stroke-width:.671804;stroke-linecap:round;stroke-linejoin:round;stroke-miterlimit:10;stroke-dasharray:none;stroke-opacity:1" d="M493.556 68.196h8.66l-9.393 35.06-.054.616.144.505.327.449.428.28.6.057 1.69-.056 1.737-.225-1.095 7.629-2.817.505-2.772.336-2.798.225-1.143-.112-1.027-.337-.998-.449-.77-.673-.612-.841-.4-1.01-.217-1.066-.035-1.122.204-1.178zM513.559 68.196h8.66l-9.394 35.06-.054.616.145.505.326.449.428.28.6.057 1.69-.056 1.737-.225-1.094 7.629-2.817.505-2.772.336-2.798.225-1.144-.112-1.027-.337-.997-.449-.77-.673-.612-.841-.4-1.01-.217-1.066-.035-1.122.204-1.178z"/><path style="fill:#000;stroke:none;stroke-width:2.63338;stroke-linecap:round;stroke-linejoin:round;stroke-miterlimit:10;stroke-opacity:1" d="m537.026 75.342.462 1.514 11.563-2.617-.836-3.1zM540.5 80.33l-1.638.144-1.605.341-1.587.548-1.548.767-1.515.979-1.48 1.197-.406.373-1.248 1.283-1.158 1.353-1.033 1.443-.91 1.531-.786 1.603-.672 1.711-.057.142-.497 1.655-.41 1.622-.284 1.62-.18 1.622-.07 1.587.017.945.16 1.586.321 1.48.48 1.35.622 1.231.784 1.103.588.676 1.051.91 1.215.729 1.333.536 1.48.34 1.605.14.784.017 1.621-.085 1.656-.232 1.71-.338 1.746-.463.73.249 1.23.462.193.16h5.632l-.09-1.07-.036-1.71.16-1.193.75-2.813.748-2.763.712-2.602.66-2.44.604-2.279.57-2.122.537-1.96.48-1.814.446-1.64.39-1.478.357-1.337.303-1.16.266-1.012.232-.84.18-.694.124-.533.086-.372h-6.502l-.372 1.44-.283-.249-.927-.52-1.231-.44-1.514-.322-1.835-.249-2.12-.124zm.283 7.625.784.055 1.424.391 1.355.747.463.394.858 1.141.302 1.333v.074l-.091 1.835-.231 1.69-.357 1.531-.515 1.372-.445.927-1 1.784-.995 1.407-1 1.05-.604.43-1.407.656-1.655.395-1.925.103-1.086-.142-1.18-.498-.854-.891-.514-1.264-.163-1.658v-.536l.125-1.672.304-1.515.108-.321.569-1.62.764-1.584.965-1.553.142-.214 1.175-1.334 1.48-1.23 1.638-.961z"/><path d="M576.917 72.722a4.366 4.366 0 0 1-4.366 4.366 4.366 4.366 0 0 1-4.366-4.366 4.366 4.366 0 0 1 4.366-4.366 4.366 4.366 0 0 1 4.366 4.366z" style="fill:#000;fill-rule:evenodd;stroke:none;stroke-width:.362116;stroke-linecap:round;stop-color:#000"/><path style="fill:#000;stroke:none;stroke-width:.206812;stroke-linecap:round;stroke-linejoin:round;stroke-miterlimit:10;stroke-opacity:1" d="m566.637 80.896-6.97 26.029-.09.429-.068.553v.568l.073.576.134.58.2.589.266.594.335.603.402.605.472.622h8.09l-.24-.304-.364-.524-.315-.536-.265-.562-.221-.582-.175-.601-.128-.62-.076-.638-.035-.667.015-.685 6.97-26.03zm0 0"/><path style="fill:#000;stroke:none;stroke-width:.672913;stroke-linecap:round;stroke-linejoin:round;stroke-miterlimit:10;stroke-dasharray:none;stroke-opacity:1" d="m588.805 92.452-.413 1.122-5.11 19.072h-8.69l8.508-31.75h8.689l-.601 2.244 1.56-1.01 1.626-.841 1.623-.617 1.675-.393 1.63-.224 1.61.056 1.76.337 1.475.56 1.36.786 1.146.953.988 1.122.776 1.29.562 1.459.278 1.683.038 1.739-.2 1.795-.384 1.851-5.08 18.96h-8.69l5.066-18.904.244-1.122.077-1.122-.22-1.066-.431-.897-.646-.73-1.042-.504-1.229-.225-1.304.057-1.294.224-1.368.505-1.19.673-1.122.841-.943 1.01z"/><path style="fill:#000;stroke:none;stroke-width:.672205;stroke-linecap:round;stroke-linejoin:round;stroke-miterlimit:10;stroke-dasharray:none;stroke-opacity:1" d="m330.886 141.711-1.85-1.623-1.961-1.4-2.13-1.231-2.186-1.064-2.298-.784-2.41-.616-2.41-.336-2.467-.112-2.41.112-2.41.336-2.41.616-1.739.672-1.625.84-1.513 1.063-1.402 1.232-1.233 1.343-.953 1.344-.728 1.456-.56 1.511-.393 1.568-.112 1.623.056 1.624.28 1.623.504 1.512.673 1.511.84 1.344 1.066 1.287 1.177 1.064 1.681 1.12 1.85.783 1.962.504 10.482 2.351 1.009.392.84.56.729.784.504.896.28.951.057 1.064-.168 1.008-.449.951-.616.84-.953.784-1.065.616-1.177.448-1.234.223h-3.026l-1.738-.223-1.682-.336-1.625-.56-1.626-.728-1.905-1.232-1.794-1.343-1.625-1.568-7.736 5.934 1.626 1.68 1.737 1.567 1.85 1.4 1.962 1.232 2.13 1.007 2.41.784 2.523.56 2.522.392 2.522.168 2.579-.056 2.522-.224 2.522-.448 2.467-.672 1.681-.672 1.57-.895 1.457-1.12 1.29-1.288 1.12-1.455.897-1.568.673-1.679.448-1.791.168-1.792-.056-1.791-.28-1.848-.504-1.735-.785-1.624-1.01-1.343-1.176-1.176-1.233-1.064-1.402-.951-1.457-.784-1.401-.56-1.458-.448-10.425-2.575-.729-.28-.673-.448-.56-.615-.449-.672-.224-.728-.112-.784.056-.784.28-.783.393-.672.897-.896 1.009-.672 1.177-.503 1.233-.28 1.233-.112 1.85.112 1.793.28 1.794.503 1.682.616 1.625.84 1.57 1.008 1.4 1.175 6.895-6.27M573.774 141.711l-1.85-1.623-1.962-1.4-2.13-1.231-2.186-1.064-2.298-.784-2.41-.616-2.41-.336-2.467-.112-2.41.112-2.41.336-2.41.616-1.738.672-1.626.84-1.513 1.063-1.401 1.232-1.233 1.343-.953 1.344-.729 1.456-.56 1.511-.393 1.568-.112 1.623.056 1.624.28 1.623.505 1.512.672 1.511.841 1.344 1.065 1.287 1.177 1.064 1.682 1.12 1.85.783 1.961.504 10.482 2.351 1.01.392.84.56.729.784.504.896.28.951.056 1.064-.168 1.008-.448.951-.617.84-.953.784-1.065.616-1.177.448-1.233.223h-3.027l-1.737-.223-1.682-.336-1.625-.56-1.626-.728-1.906-1.232-1.793-1.343-1.626-1.568-7.735 5.934 1.625 1.68 1.738 1.567 1.85 1.4 1.962 1.232 2.13 1.007 2.41.784 2.522.56 2.522.392 2.523.168 2.578-.056 2.523-.224 2.522-.448 2.466-.672 1.682-.672 1.57-.895 1.457-1.12 1.289-1.288 1.12-1.455.898-1.568.672-1.679.449-1.791.168-1.792-.056-1.791-.28-1.848-.505-1.735-.785-1.624-1.009-1.343-1.177-1.176-1.233-1.064-1.401-.951-1.458-.784-1.4-.56-1.458-.448-10.426-2.575-.729-.28-.672-.448-.56-.615-.45-.672-.223-.728-.112-.784.056-.784.28-.783.392-.672.897-.896 1.009-.672 1.177-.503 1.233-.28 1.233-.112 1.85.112 1.794.28 1.793.503 1.682.616 1.626.84 1.569 1.008 1.401 1.175 6.895-6.27"/><path d="M351.724 135.665h11.817l14.842 44.45h-9.97l-2.408-7.847H349.26l-2.409 7.847h-9.969zm5.88 9.305-5.936 19.45h11.93z" style="fill:#000;stroke:none;stroke-width:.672354;stroke-linecap:round;stroke-linejoin:round;stroke-miterlimit:10;stroke-dasharray:none;stroke-opacity:1"/><path style="fill:#000;stroke:none;stroke-width:.671903;stroke-linecap:round;stroke-linejoin:round;stroke-miterlimit:10;stroke-dasharray:none;stroke-opacity:1" d="M387.287 135.665h9.072v35.773h19.713v8.677h-28.785zM424.752 135.665h9.072v35.773h19.713v8.677h-28.785z"/><path style="fill:#000;stroke:none;stroke-width:.671798;stroke-linecap:round;stroke-linejoin:round;stroke-miterlimit:10;stroke-dasharray:none;stroke-opacity:1" d="M471.172 135.665v44.45h-9.069v-44.45z"/><path style="fill:#000;stroke:none;stroke-width:.672071;stroke-linecap:round;stroke-linejoin:round;stroke-miterlimit:10;stroke-dasharray:none;stroke-opacity:1" d="M495.652 135.665h-10.366v44.45h9.077v-30.062l19.89 30.062h10.422v-44.45h-9.133v30.063z"/><rect style="display:inline;fill:#000;fill-opacity:1;fill-rule:evenodd;stroke:none;stroke-width:3.46999;stroke-linecap:round;stroke-miterlimit:4;stroke-dasharray:none;stop-color:#000" width="75.565" height="95.25" x="288.651" y="-54.041" rx="8.459"/><path style="display:inline;fill:#000;stroke:none;stroke-width:.396874" d="m524.362 453.959-51.594 15.875V446.02h-31.75v23.813l-51.593-15.875 67.468 47.625z"/><rect style="display:inline;fill:#000;fill-opacity:1;fill-rule:evenodd;stroke-width:.397498;stroke-linecap:round;stop-color:#000" width="748.771" height="620.183" x="823.077" y="-86.32" rx="16.536"/><rect style="display:inline;fill:#fff;fill-opacity:1;fill-rule:evenodd;stroke-width:.397498;stroke-linecap:round;stop-color:#000" width="747.712" height="619.125" x="823.606" y="-85.791" rx="15.875"/><rect style="display:inline;fill:#008445;fill-opacity:1;fill-rule:evenodd;stroke-width:.397498;stroke-linecap:round;stop-color:#000" height="595.312" x="835.512" y="-73.885" rx="31.75" width="723.9"/><path style="display:inline;fill:#fff;stroke:none;stroke-width:.396874" d="m1018.074 453.959-51.593 15.875V446.02h-31.75v23.813l-51.594-15.875 67.469 47.625zM1511.787 453.959l-51.594 15.875V446.02h-31.75v23.813l-51.593-15.875 67.468 47.625z"/><path style="fill:#000;fill-opacity:1;stroke:none;stroke-width:2.11053" d="M459.51 267.428h-8.85l9.919-37.135c.193-1.453.331-2.662.405-3.628l-.184-3.687h8.775l.811 3.362c5.724-2.632 10.14-3.952 13.236-3.952 3.217 0 5.715.995 7.485 2.979 1.447 1.733 2.175 3.879 2.175 6.43 0 .494-.028.973-.074 1.445l-9.107 34.186h-8.811l7.705-28.936c.268-.958.406-1.828.406-2.595 0-3.105-2.092-4.786-6.268-5.044-5.364.317-8.692 2.861-9.992 7.64z"/><path style="fill:#000;stroke:none;stroke-width:2.63337;stroke-linecap:round;stroke-linejoin:round;stroke-miterlimit:10;stroke-opacity:1" d="m512.578 230.123.462 1.514 11.563-2.616-.836-3.101zM516.053 235.11l-1.639.146-1.605.34-1.586.548-1.548.767-1.515.979-1.48 1.197-.407.373-1.247 1.283-1.158 1.354-1.034 1.442-.91 1.531-.785 1.604-.672 1.71-.057.142-.498 1.656-.41 1.621-.283 1.62-.181 1.622-.069 1.587.016.946.16 1.585.322 1.48.48 1.35.622 1.231.784 1.103.588.677 1.05.91 1.215.728 1.333.537 1.48.34 1.605.14.784.016 1.622-.085 1.655-.231 1.71-.338 1.746-.464.73.249 1.23.462.193.16h5.632l-.09-1.07-.035-1.71.159-1.193.75-2.812.748-2.763.713-2.603.659-2.44.605-2.278.57-2.123.536-1.96.48-1.814.446-1.64.39-1.478.358-1.337.303-1.16.266-1.011.232-.842.18-.693.124-.533.085-.372h-6.502l-.372 1.44-.282-.249-.928-.52-1.23-.44-1.514-.321-1.836-.25-2.12-.124zm.282 7.626.784.056 1.425.39 1.355.747.462.394.858 1.141.302 1.333v.074l-.09 1.835-.232 1.69-.357 1.532-.514 1.372-.446.926-1 1.785-.995 1.406-.999 1.05-.604.43-1.407.656-1.656.395-1.925.103-1.086-.142-1.179-.498-.854-.891-.515-1.264-.162-1.658v-.536l.124-1.672.305-1.514.107-.322.57-1.62.763-1.584.965-1.553.143-.214 1.174-1.334 1.48-1.23 1.638-.961z"/><path style="fill:#000;stroke:none;stroke-width:.671957;stroke-linecap:round;stroke-linejoin:round;stroke-miterlimit:10;stroke-dasharray:none;stroke-opacity:1" d="m544.79 254.828-2.564-.672-1.224-.448-1.052-.672-.895-.84-.753-.951-.554-1.064-.413-1.176-.073-1.4.11-1.456.39-1.456.558-1.456.782-1.456.961-1.288 1.17-1.232 1.237-1.064 1.32-.952 1.441-.783 1.453-.616 1.505-.392 2.136-.448 2.076-.224h2.072l2.027.168 1.967.392 1.544.504 1.444.672 1.328.895 1.257.952 1.029 1.176-6.906 5.712-1.182-1.232-1.41-1.008-1.582-.784-.933-.28-1.019-.168h-1.064l-1.194.28-1.143.504-1.076.672-.598.56-.39.616-.139.728.06.616.241.56.567.392 3.5.728 3.24.448 1.229.224 1.223.448 1.082.56 1.037.728.865.952.667 1.064.469 1.175.215 1.288.017 1.4-.152 1.4-.446 1.456-.599 1.4-.823 1.4-1.103 1.4-1.241 1.288-1.379 1.176-1.502 1.008-1.554.784-2.364.672-2.36.448-2.356.224h-2.24l-2.235-.224-2.12-.448-1.85-.616-1.736-.84-1.507-1.064-1.35-1.232-1.177-1.456 7.888-5.824.846 1.232 1.059 1.064 1.23.84 1.388.672 1.504.448 1.62.224h1.512l1.169-.392 1.06-.616.64-.504.516-.672.25-.728.028-.728-.227-.616-.44-.448-1.959-.84-2.12-.448z"/><path style="fill:#000;stroke:none;stroke-width:.672913;stroke-linecap:round;stroke-linejoin:round;stroke-miterlimit:10;stroke-dasharray:none;stroke-opacity:1" d="m396.082 247.233-.413 1.122-5.11 19.072h-8.689l8.508-31.75h8.688l-.6 2.244 1.559-1.01 1.627-.84 1.623-.618 1.675-.392 1.63-.225 1.61.056 1.76.337 1.475.56 1.36.786 1.145.954.989 1.122.775 1.29.562 1.458.278 1.683.039 1.74-.201 1.794-.384 1.851-5.08 18.96h-8.689l5.065-18.904.245-1.122.076-1.121-.219-1.066-.432-.898-.645-.729-1.042-.505-1.23-.224-1.304.056-1.293.224-1.369.505-1.19.673-1.121.842-.944 1.01z"/><path d="m366.323 221.466-1.11.03-1.099.084-1.078.133-1.078.186-1.068.246-1.058.298-1.037.35-1.039.41-1.016.462-1.017.513-.995.565-.997.626-.976.68-.246.183-.946.73-.914.759-.873.792-.83.812-.802.851-.75.873-.719.895-.678.933-.646.955-.597.987-.565 1.016-.522 1.037-.484 1.068-.216.514-.472 1.191-.433 1.14-.379 1.08-.34 1.005-.287.956-.133.503-.267 1.059-.226 1.046-.173 1.028-.144 1.017-.093 1.006-.051.984-.01.987.03.955.071.957.123.934.155.925.195.914.246.892.288.885.33.86.369.864.41.843.451.821.494.82.546.803.154.206.605.78.657.699.698.626.73.543.781.484.811.402.72.275.738.215.842.175.945.134 1.07.104 1.168.06 1.276.03h.277l.975-.03 1.037-.112 1.11-.176 1.18-.246.308-.071 4.591-1.108.555.75.021.04.596.709.01.01h7.856l-.225-.944-.103-.967.02-1.006.134-1.048.196-.883 10.608-39.603h-6.502l-.78.646-.452.382-.934-.462-.935-.411-.944-.37-.945-.33-.946-.278-.954-.225-.957-.185-.965-.133-.963-.092-.966-.053zm-1.684 7.775.985.084.944.184.904.278.873.39.832.492.657.483.71.7.575.759.432.802.286.851.155.904.03.584-.02.916-.062.944-.092.966-.134.997-.163 1.016-.216 1.047-.237 1.07-.278 1.097-.318 1.13-.358 1.15-.392 1.172-.111.328-.494 1.355-.534 1.274-.545 1.203-.575 1.108-.604 1.028-.627.943-.648.864-.678.78-.698.689-.73.614-.748.525-.781.452-.802.359-.82.288-.854.196-.883.111-.79.032-.874-.04-.934-.134-1.018-.227-1.088-.317-.237-.072-.841-.319-.772-.38-.688-.43-.615-.503-.534-.566-.461-.626-.392-.679-.31-.75-.234-.81-.164-.864-.083-.935-.009-.985.071-1.058.145-1.108.226-1.173.287-1.242.03-.113.361-1.233.38-1.19.42-1.152.463-1.108.481-1.08.525-1.024.555-.988.585-.944.626-.905.658-.862.698-.812.719-.78.76-.74.792-.698.564-.451 1.14-.833 1.098-.676 1.048-.556 1.017-.4.976-.268.935-.124z" style="fill:#000;fill-opacity:1;fill-rule:evenodd;stroke:none;stroke-width:.192742"/><path d="M406.651 290.446h11.818l14.841 44.45h-9.969l-2.408-7.847h-16.746l-2.408 7.847h-9.97zm5.88 9.305-5.936 19.45h11.93zM451.736 290.446h11.818l14.841 44.45h-9.969l-2.408-7.847h-16.746l-2.408 7.847h-9.97zm5.88 9.305-5.936 19.45h11.93z" style="fill:#000;stroke:none;stroke-width:.672354;stroke-linecap:round;stroke-linejoin:round;stroke-miterlimit:10;stroke-dasharray:none;stroke-opacity:1"/><path style="fill:#000;stroke:none;stroke-width:.672071;stroke-linecap:round;stroke-linejoin:round;stroke-miterlimit:10;stroke-dasharray:none;stroke-opacity:1" d="M354.047 290.446H343.68v44.45h9.077v-30.062l19.89 30.062h10.422v-44.45h-9.133v30.063z"/><path style="fill:#000;stroke:none;stroke-width:.672205;stroke-linecap:round;stroke-linejoin:round;stroke-miterlimit:10;stroke-dasharray:none;stroke-opacity:1" d="m522.339 296.492-1.85-1.623-1.962-1.4-2.13-1.231-2.186-1.064-2.298-.784-2.41-.615-2.41-.336-2.467-.112-2.41.112-2.41.336-2.41.615-1.738.672-1.626.84-1.513 1.064-1.401 1.231-1.234 1.344-.952 1.343-.729 1.456-.56 1.511-.393 1.568-.112 1.623.056 1.624.28 1.623.505 1.512.672 1.511.841 1.344 1.065 1.288 1.177 1.063 1.682 1.12 1.85.784 1.961.503 10.482 2.352 1.009.392.84.56.73.783.504.896.28.952.056 1.063-.168 1.008-.448.952-.617.84-.953.783-1.065.616-1.177.448-1.233.224h-3.027l-1.738-.224-1.681-.336-1.626-.56-1.625-.728-1.906-1.231-1.794-1.344-1.625-1.567-7.735 5.934 1.625 1.68 1.738 1.567 1.85 1.4 1.961 1.23 2.13 1.009 2.41.783 2.523.56 2.522.392 2.523.168 2.578-.056 2.522-.224 2.523-.448 2.466-.672 1.682-.671 1.569-.896 1.457-1.12 1.29-1.287 1.12-1.456.897-1.567.673-1.68.448-1.791.169-1.792-.056-1.791-.28-1.848-.505-1.735-.785-1.624-1.009-1.343-1.177-1.176-1.233-1.063-1.401-.952-1.458-.784-1.401-.56-1.457-.448-10.426-2.575-.729-.28-.672-.447-.56-.616-.45-.672-.223-.728-.113-.784.057-.783.28-.784.392-.672.897-.896 1.009-.671 1.177-.504 1.233-.28 1.233-.112 1.85.112 1.794.28 1.793.504 1.682.615 1.625.84 1.57 1.008 1.401 1.175 6.895-6.27"/><path d="m985.655 375.088 3.364.28h2.354l2.355-.28 2.299-.448 1.401-.392 1.29-.56 1.233-.728 1.122-.895.953-1.064.84-1.176.617-1.231.505-1.344.28-1.4.112-1.455v-34.261h-9.138v32.75l-.112.84-.337.783-.504.672-.673.504-.785.28-1.906.223-1.906.056-2.86-.28-2.803-.391-1.009 9.013z" style="fill:#fff;stroke:none;stroke-width:.672278;stroke-linecap:round;stroke-linejoin:round;stroke-miterlimit:10;stroke-dasharray:none;stroke-opacity:1"/><path style="fill:#fff;stroke:none;stroke-width:.672071;stroke-linecap:round;stroke-linejoin:round;stroke-miterlimit:10;stroke-dasharray:none;stroke-opacity:1" d="M1129.349 330.134h-10.366v44.45h9.077V344.52l19.89 30.063h10.422v-44.45h-9.133v30.062zM1377.951 330.134h-10.365v44.45h9.077V344.52l19.89 30.063h10.422v-44.45h-9.133v30.062z"/><path style="fill:#fff;stroke:none;stroke-width:.67182;stroke-linecap:round;stroke-linejoin:round;stroke-miterlimit:10;stroke-dasharray:none;stroke-opacity:1" d="m1041.845 339.035 1.176.784 1.064.896.952 1.063.784 1.12.615 1.231.448 1.344.56 2.24.336 2.295.056 2.35-.056 2.296-.336 2.295-.56 2.296-.448 1.287-.615 1.288-.784 1.12-.952 1.063-1.064.896-1.176.728-1.287.56-1.344.447-1.4.224-1.4.112-1.399-.112-1.4-.224-1.343-.448-1.288-.56-1.176-.727-1.064-.896-.951-1.064-.784-1.12-.616-1.287-.504-1.287-.504-2.296-.336-2.295-.056-2.295.056-2.351.336-2.296.504-2.239.504-1.344.616-1.231.784-1.12.951-1.063 1.064-.896 1.176-.784 1.288-.56 1.343-.392 1.4-.28 1.4-.056 1.4.056 1.4.28 1.343.392zm15.733 11.7-.168-2.351-.392-2.351-.616-2.295-.896-2.24-1.063-2.127-1.288-2.015-1.456-1.848-1.68-1.735-1.79-1.344-1.96-1.12-2.016-.895-2.128-.728-2.24-.392-2.183-.224h-2.575l-2.24.224-2.183.392-2.128.728-2.071.895-1.904 1.12-1.791 1.344-1.68 1.735-1.456 1.848-1.287 2.015-1.12 2.127-.84 2.24-.616 2.295-.448 2.351-.168 2.351v3.191l.168 2.408.448 2.35.616 2.296.84 2.24 1.12 2.127 1.287 1.96 1.456 1.903 1.68 1.679 1.791 1.344 1.904 1.175 2.071.896 2.128.672 2.183.448 2.24.223h2.575l2.184-.223 2.24-.448 2.127-.672 2.016-.896 1.96-1.175 1.79-1.344 1.68-1.68 1.456-1.903 1.288-1.96 1.064-2.127.895-2.239.616-2.295.392-2.351.168-2.408zM1279.653 339.035l1.176.784 1.064.896.951 1.063.784 1.12.616 1.231.448 1.344.56 2.24.336 2.295.056 2.35-.056 2.296-.336 2.295-.56 2.296-.448 1.287-.616 1.288-.784 1.12-.952 1.063-1.063.896-1.176.728-1.288.56-1.343.447-1.4.224-1.4.112-1.4-.112-1.4-.224-1.343-.448-1.288-.56-1.175-.727-1.064-.896-.952-1.064-.784-1.12-.616-1.287-.503-1.287-.504-2.296-.336-2.295-.056-2.295.056-2.351.336-2.296.504-2.239.503-1.344.616-1.231.784-1.12.952-1.063 1.064-.896 1.175-.784 1.288-.56 1.344-.392 1.4-.28 1.4-.056 1.399.056 1.4.28 1.343.392zm15.733 11.7-.168-2.351-.392-2.351-.616-2.295-.896-2.24-1.064-2.127-1.287-2.015-1.456-1.848-1.68-1.735-1.791-1.344-1.96-1.12-2.015-.895-2.128-.728-2.24-.392-2.183-.224h-2.575l-2.24.224-2.183.392-2.128.728-2.072.895-1.903 1.12-1.792 1.344-1.68 1.735-1.455 1.848-1.288 2.015-1.12 2.127-.84 2.24-.615 2.295-.448 2.351-.168 2.351v3.191l.168 2.408.448 2.35.616 2.296.84 2.24 1.12 2.127 1.287 1.96 1.456 1.903 1.68 1.679 1.79 1.344 1.904 1.175 2.072.896 2.128.672 2.183.448 2.24.223h2.575l2.184-.223 2.239-.448 2.128-.672 2.015-.896 1.96-1.175 1.791-1.344 1.68-1.68 1.456-1.903 1.287-1.96 1.064-2.127.896-2.239.616-2.295.392-2.351.168-2.408z"/><path style="fill:#fff;stroke:none;stroke-width:.671697;stroke-linecap:round;stroke-linejoin:round;stroke-miterlimit:10;stroke-dasharray:none;stroke-opacity:1" d="M1095.861 347.096v-16.962h9.123v44.45h-9.123v-18.81h-17.965v18.81h-9.123v-44.45h9.123v16.962z"/><path style="fill:#fff;stroke:none;stroke-width:.671903;stroke-linecap:round;stroke-linejoin:round;stroke-miterlimit:10;stroke-dasharray:none;stroke-opacity:1" d="M1213.13 330.134v8.677h12.601v35.773h9.128V338.81h12.6v-8.677z"/><path style="fill:#fff;stroke:none;stroke-width:.672205;stroke-linecap:round;stroke-linejoin:round;stroke-miterlimit:10;stroke-dasharray:none;stroke-opacity:1" d="m1207.47 336.18-1.849-1.624-1.962-1.4-2.13-1.23-2.186-1.064-2.298-.784-2.41-.616-2.41-.336-2.466-.112-2.41.112-2.411.336-2.41.616-1.738.672-1.625.84-1.514 1.063-1.401 1.232-1.233 1.343-.953 1.344-.729 1.455-.56 1.512-.393 1.567-.112 1.624.056 1.623.28 1.624.505 1.511.673 1.512.84 1.343 1.065 1.288 1.178 1.064 1.681 1.12 1.85.783 1.962.504 10.481 2.351 1.01.392.84.56.729.784.504.895.28.952.056 1.064-.168 1.007-.448.952-.617.84-.953.784-1.065.615-1.177.448-1.233.224h-3.027l-1.737-.224-1.682-.336-1.625-.56-1.626-.727-1.906-1.232-1.793-1.343-1.626-1.568-7.735 5.934 1.626 1.68 1.737 1.567 1.85 1.4 1.962 1.231 2.13 1.008 2.41.784 2.522.56 2.523.392 2.522.167 2.578-.056 2.523-.223 2.522-.448 2.466-.672 1.682-.672 1.57-.896 1.457-1.12 1.289-1.287 1.12-1.455.898-1.568.672-1.68.449-1.79.168-1.792-.056-1.792-.28-1.847-.505-1.736-.785-1.623-1.008-1.344-1.178-1.175-1.233-1.064-1.401-.952-1.457-.783-1.402-.56-1.457-.448-10.426-2.575-.728-.28-.673-.448-.56-.616-.449-.672-.224-.727-.112-.784.056-.784.28-.784.392-.671.897-.896 1.01-.672 1.176-.504 1.233-.28 1.234-.112 1.85.112 1.793.28 1.794.504 1.681.616 1.626.84 1.57 1.007 1.4 1.176 6.895-6.27"/><path style="fill:#fff;stroke:none;stroke-width:.672392;stroke-linecap:round;stroke-linejoin:round;stroke-miterlimit:10;stroke-dasharray:none;stroke-opacity:1" d="M1324.342 374.584h-11.426l-10.362-44.45h9.353l7.114 30.549 6.385-30.55h10.587l6.385 30.55 7.114-30.55h9.354l-10.363 44.45h-11.426l-6.33-30.492z"/><path d="m1019.964 287.945-.44-1.29-.637-1.176-.836-1.065-1.008-.841-1.165-.673 1.388-.785 1.335-1.009 1.141-1.12 1.06-1.234.864-1.345.712-1.401.503-1.458.278-1.457.04-1.401-.17-1.458-.34-1.457-.606-1.29-.735-1.233-.963-1.009-1.105-.896-1.206-.73-1.434-.504-1.48-.336-1.539-.112h-20.907l-11.91 44.45h21.804l2.022-.224 1.954-.393 2.045-.728 1.978-.897 1.87-1.121 1.635-1.29 1.511-1.457 1.333-1.625 1.082-1.738.873-1.794.608-1.85.364-1.569.181-1.513.013-1.514zm-22.905-7.4 2.523-9.416h10.09l1.035.112.919.336.746.561.534.729.32.896.066 1.01-.173 1.064-.383 1.01-.607 1.008-.8.897-.924.729-1.062.616-1.1.337-1.094.112zm-4.851 18.106 2.974-11.098h10.537l1.05.056.975.336.818.504.646.73.447.84.25.953.065 1.009-.188 1.12-.398 1.066-.621 1.065-.76.953-.898.84-1.021.673-1.088.505-1.155.336-1.095.112h-10.538" style="fill:#fff;stroke:none;stroke-width:.67263;stroke-linecap:round;stroke-linejoin:round;stroke-miterlimit:10;stroke-dasharray:none;stroke-opacity:1"/><path style="fill:#fff;stroke:none;stroke-width:2.63339;stroke-linecap:round;stroke-linejoin:round;stroke-miterlimit:10;stroke-opacity:1" d="m1044.022 274.797-1.638.146-1.605.34-1.587.548-1.548.767-1.514.979-1.48 1.197-.407.373-1.248 1.283-1.158 1.354-1.033 1.442-.91 1.531-.786 1.604-.671 1.71-.057.142-.498 1.656-.41 1.621-.284 1.62-.18 1.622-.07 1.587.017.946.16 1.585.32 1.48.481 1.35.622 1.231.784 1.103.588.677 1.05.91 1.215.728 1.334.537 1.479.34 1.605.14.784.017 1.622-.086 1.655-.231 1.71-.338 1.746-.464.731.249 1.23.462.192.16h5.633l-.09-1.07-.036-1.71.159-1.192.75-2.813.748-2.763.713-2.603.659-2.44.605-2.278.57-2.123.536-1.96.48-1.814.446-1.64.39-1.478.358-1.337.302-1.16.267-1.011.232-.842.18-.693.124-.533.085-.372h-6.502l-.372 1.44-.283-.249-.927-.52-1.231-.44-1.514-.321-1.835-.25-2.12-.124zm.283 7.626.784.056 1.424.39 1.356.747.462.394.858 1.141.302 1.333v.074l-.091 1.835-.232 1.69-.356 1.532-.515 1.372-.445.926-1 1.785-.996 1.406-.999 1.05-.604.43-1.407.656-1.656.395-1.925.103-1.085-.142-1.18-.498-.854-.891-.515-1.264-.162-1.658v-.536l.124-1.672.305-1.515.107-.321.57-1.62.763-1.584.965-1.553.143-.214 1.174-1.334 1.48-1.23 1.638-.961z"/><path d="M1080.863 267.19a4.366 4.366 0 0 1-4.366 4.367 4.366 4.366 0 0 1-4.366-4.366 4.366 4.366 0 0 1 4.366-4.366 4.366 4.366 0 0 1 4.366 4.366z" style="fill:#fff;fill-rule:evenodd;stroke:none;stroke-width:.362115;stroke-linecap:round;stop-color:#000"/><path style="fill:#fff;stroke:none;stroke-width:.206811;stroke-linecap:round;stroke-linejoin:round;stroke-miterlimit:10;stroke-opacity:1" d="m1070.582 275.365-6.97 26.028-.09.43-.067.552v.568l.073.577.134.58.2.589.266.594.335.603.402.605.472.621h8.089l-.239-.304-.364-.523-.315-.536-.265-.562-.221-.583-.175-.6-.128-.62-.076-.639-.035-.667.015-.684 6.97-26.03zm0 0"/><path d="M1255.7 267.19a4.366 4.366 0 0 1-4.367 4.367 4.366 4.366 0 0 1-4.366-4.366 4.366 4.366 0 0 1 4.366-4.366 4.366 4.366 0 0 1 4.366 4.366z" style="fill:#fff;fill-rule:evenodd;stroke:none;stroke-width:.362115;stroke-linecap:round;stop-color:#000"/><path style="fill:#fff;stroke:none;stroke-width:.206811;stroke-linecap:round;stroke-linejoin:round;stroke-miterlimit:10;stroke-opacity:1" d="m1245.419 275.365-6.97 26.028-.09.43-.067.552v.568l.073.577.134.58.2.589.265.594.336.603.402.605.472.621h8.089l-.24-.304-.363-.523-.316-.536-.265-.562-.22-.583-.176-.6-.127-.62-.076-.639-.035-.667.015-.684 6.97-26.03zm0 0"/><path style="fill:#fff;stroke:none;stroke-width:.671805;stroke-linecap:round;stroke-linejoin:round;stroke-miterlimit:10;stroke-dasharray:none;stroke-opacity:1" d="M1089.154 262.665h8.66l-9.394 35.06-.054.616.144.505.327.449.427.28.6.056 1.691-.056 1.736-.224-1.094 7.629-2.817.505-2.772.336-2.798.225-1.143-.113-1.027-.336-.998-.449-.77-.673-.612-.842-.4-1.01-.217-1.065-.035-1.122.204-1.178z"/><path style="fill:#fff;stroke:none;stroke-width:.671795;stroke-linecap:round;stroke-linejoin:round;stroke-miterlimit:10;stroke-dasharray:none;stroke-opacity:1" d="M1109.47 287.628h12.873l.132-1.12-.107-1.064-.304-.952-.503-.84-.7-.727-.802-.56-.958-.392-1.06-.224h-1.119l-1.18.224-1.168.392-1.101.56-1.09.727-.953.84-.815.952-.677 1.064zm-1.914 7.56-.02 1.12.234 1.008.432.896.629.784.786.615 1.265.504 1.38.28 1.44.056 1.485-.112 1.56-.392 1.692-.672 1.639-.895 1.532-1.12 3.917 5.431-1.45 1.232-1.53 1.12-1.6.952-1.65.728-1.717.56-2.135.448-2.13.224-2.086.056-2.026-.168-1.91-.392-1.447-.448-1.346-.616-1.174-.84-1.033-.952-.93-1.12-.678-1.232-.592-1.344-.337-1.456-.244-2.015-.06-2.072.179-2.128.417-2.184.697-2.184.906-2.128 1.13-2.128 1.324-2.015 1.386-1.624 1.58-1.512 1.76-1.344 1.811-1.12 1.625-.84 1.706-.728 1.702-.504 1.698-.28 1.653-.112 1.608.056 1.549.28 1.503.448 1.346.616 1.174.84 1.17 1.064 1.013 1.232.73 1.456.546 1.512.277 1.68.109 2.52-.13 2.575-.426 2.632-.593 2.632h-21.157z"/><path style="fill:#fff;stroke:none;stroke-width:.672348;stroke-linecap:round;stroke-linejoin:round;stroke-miterlimit:10;stroke-dasharray:none;stroke-opacity:1" d="M1191.728 298.427h-21.786l2.614-9.753h18.201l2.208-8.24h-18.201l2.448-9.137h20.106l2.313-8.632h-29.235l-11.91 44.45h30.914z"/><path style="fill:#fff;stroke:none;stroke-width:.672573;stroke-linecap:round;stroke-linejoin:round;stroke-miterlimit:10;stroke-dasharray:none;stroke-opacity:1" d="m1220.832 281.872 1.194.561.935.897.723 1.066.509 1.234.177 1.01-.01 1.066-.256 1.795-.41 1.739-.522 1.739-.705 1.795-.566 1.066-.719 1.01-1.17 1.233-1.294 1.066-1.416.898-1.48.505-1.348.224-1.172-.224-1.208-.505-.992-.898-.722-1.066-.454-1.234-.177-1.01.01-1.065.257-1.795.354-1.74.578-1.738.705-1.795.565-1.066.719-1.01 1.115-1.234 1.293-1.066 1.473-.897 1.494-.561 1.277-.168zm12.428 2.524-.022-.336-.303-1.795-.542-1.74-.826-1.514-1.025-1.402-1.252-1.178-1.287-.842-1.458-.617-1.545-.504-1.661-.281-1.706-.112-1.766.112-1.755.28-1.815.505-1.79.617-1.737.842-1.884 1.178-1.776 1.402-1.638 1.515-1.474 1.739-1.264 1.795-.203.336-1.161 2.244-.952 2.3-.728 2.3-.505 2.3-.28 2.3-.026 2.187.01.393.303 1.795.557 1.683.811 1.57 1.025 1.403 1.252 1.178 1.302.785 1.443.673 1.545.505 1.605.28 1.706.113 1.766-.112 1.811-.28 1.815-.506 1.805-.673 1.722-.785 1.884-1.178 1.776-1.402 1.652-1.571 1.46-1.683 1.264-1.795.218-.393 1.146-2.187.952-2.3.672-2.3.56-2.3.28-2.3z"/><path style="fill:#fff;stroke:none;stroke-width:.672913;stroke-linecap:round;stroke-linejoin:round;stroke-miterlimit:10;stroke-dasharray:none;stroke-opacity:1" d="m1267.587 286.92-.413 1.122-5.11 19.073h-8.689l8.507-31.75h8.69l-.602 2.244 1.56-1.01 1.627-.841 1.623-.617 1.674-.393 1.63-.224 1.61.056 1.76.336 1.476.561 1.359.786 1.146.953.989 1.122.775 1.29.562 1.459.278 1.683.039 1.739-.2 1.795-.385 1.85-5.08 18.96h-8.689l5.066-18.903.244-1.122.076-1.122-.219-1.066-.432-.897-.645-.73-1.043-.504-1.229-.225-1.304.056-1.293.225-1.369.505-1.19.673-1.122.841-.943 1.01z"/><path style="fill:#ffc90e;fill-opacity:1;stroke:none;stroke-width:.895029;stroke-linecap:round;stroke-linejoin:round;stroke-miterlimit:10;stroke-dasharray:none;stroke-opacity:1" d="M1157.218 438.084h-12.869v63.5h11.269v-42.947l24.694 42.947h12.938v-63.5h-11.338v42.946z"/><path style="fill:#ffc90e;fill-opacity:1;stroke:none;stroke-width:.959571;stroke-linecap:round;stroke-linejoin:round;stroke-miterlimit:10;stroke-dasharray:none;stroke-opacity:1" d="M1212.481 449.84v-11.756h44.694v11.756l-21.427 51.744h-14.072l21.428-51.744z"/><path style="fill:#000;stroke:none;stroke-width:.669523;stroke-linecap:round;stroke-linejoin:round;stroke-miterlimit:10;stroke-dasharray:none;stroke-opacity:1" d="M377.74 383.401h9.81l.985.12.883.36.882.48.726.72.623.84.415 1.02.312 1.019.104 1.14-.104 1.079-.312 1.08-.415.96-.623.9-.726.659-.882.54-.883.36-.986.06h-9.809zm-8.407-8.817v47.625h8.407v-18.594h5.502l9.393 18.594h9.809l-9.86-19.434 1.504-.78 1.454-1.02 1.297-1.2 1.142-1.439.986-1.56.778-1.679.623-1.799.363-1.86.156-1.919-.052-1.98-.311-1.859-.467-1.859-.727-1.74-.934-1.619-1.038-1.5-1.246-1.259-1.4-1.08-1.506-.9-1.557-.6-1.66-.42-1.661-.12z"/><path style="fill:#000;stroke:none;stroke-width:.720069;stroke-linecap:round;stroke-linejoin:round;stroke-miterlimit:10;stroke-dasharray:none;stroke-opacity:1" d="m424.911 405.213 15.049-19.94v19.94zm-10.792 8.828h25.84v8.168h9.773v-8.168h6.116v-8.828h-6.116v-30.63h-12.47l-23.143 30.63z"/><path style="fill:#fff;stroke:none;stroke-width:.960092;stroke-linecap:round;stroke-linejoin:round;stroke-miterlimit:10;stroke-dasharray:none;stroke-opacity:1" d="m311.005 2.672 20.065-26.585V2.672Zm-14.389 11.772h34.454v10.89h13.03v-10.89h8.154V2.672H344.1v-40.838h-16.627L296.616 2.672Z"/><path style="fill:#000;stroke:none;stroke-width:.720069;stroke-linecap:round;stroke-linejoin:round;stroke-miterlimit:10;stroke-dasharray:none;stroke-opacity:1" d="m471.856 405.213 15.048-19.94v19.94zm-10.792 8.828h25.84v8.168h9.773v-8.168h6.115v-8.828h-6.115v-30.63h-12.47l-23.143 30.63z"/><path style="fill:#000;stroke:none;stroke-width:.720365;stroke-linecap:round;stroke-linejoin:round;stroke-miterlimit:10;stroke-dasharray:none;stroke-opacity:1" d="m521.75 408.876.48 1.261.72 1.202.96 1.08 1.08.841 1.2.661 1.38.42 1.381.18 1.38-.06 1.32-.3 1.32-.54 1.14-.721 1.02-.96.84-1.142.66-1.261.48-1.381.3-1.382.06-1.441-.12-1.442-.3-1.38-.48-1.322-.72-1.261-1.02-1.081-1.2-.901-1.32-.72-1.44-.421-1.44-.12-1.5.06-1.44.36-1.38.66-1.2.842-1.08 1.02-.84 1.262-9.901-1.562 3.6-24.743h29.522v8.828h-21.181l-1.02 7.087 1.56-.961 1.62-.78 1.74-.601 1.8-.36 1.86-.12 1.8.06 1.86.3 1.74.54 1.68.72 1.56.962 1.44 1.08 1.441 1.382 1.26 1.501 1.08 1.622.78 1.621.48 1.682.36 2.582.12 2.643-.12 2.642-.3 2.583-.48 2.582-.54 1.742-.84 1.621-.96 1.502-1.2 1.381-1.32 1.261-1.5 1.021-1.62.841-2.1.78-2.16.601-2.22.36-2.281.12-2.22-.12-2.22-.36-2.16-.6-2.1-.84-1.68-.902-1.5-1.02-1.38-1.262-1.201-1.381-1.08-1.562-.84-1.621-.66-1.742-.42-1.802 9.42-2.702z"/><path style="fill:#fff;stroke:none;stroke-width:.672494;stroke-linecap:round;stroke-linejoin:round;stroke-miterlimit:10;stroke-dasharray:none;stroke-opacity:1" d="M1055.88 187.078h-7.731v-26.682h7.732l1.568.113 1.513.392 1.457.56 1.4.785 1.233.953 1.065 1.177.896 1.29.673 1.4.504 1.514.392 2.13.168 2.13v2.186l-.224 2.186-.448 2.13-.504 1.402-.729 1.401-.896 1.233-1.065 1.065-1.232.953-1.345.729-1.4.504-1.514.337zm-.111 8.912 2.073-.112 2.129-.336 2.017-.56 1.96-.786 1.906-.953 1.737-1.177 1.625-1.345 1.512-1.513 1.29-1.682 1.12-1.794.952-1.905.729-1.962.504-2.074.336-2.41.168-2.41v-2.411l-.168-2.466-.336-2.41-.504-2.019-.729-2.017-.952-1.906-1.12-1.794-1.29-1.626-1.512-1.513-1.625-1.401-1.737-1.121-1.905-1.01-1.961-.784-2.017-.504-2.13-.337-2.072-.112h-16.753v44.45z"/><path style="fill:#fff;stroke:none;stroke-width:.67237;stroke-linecap:round;stroke-linejoin:round;stroke-miterlimit:10;stroke-dasharray:none;stroke-opacity:1" d="m1122.54 180.688-.337 2.074-.56 1.961-.84 1.906-.952 1.794-1.232 1.682-1.344 1.569-1.569 1.401-1.68 1.177-1.792 1.01-1.904.784-2.017.56-2.016.337-2.072.112-2.073-.112-2.016-.336-1.96-.56-1.96-.786-1.793-1.009-1.68-1.177-1.512-1.401-1.4-1.57-1.177-1.681-1.008-1.794-.784-1.906-.56-1.961-.392-2.074-.112-2.074V151.54h9.13v27.074l.111 1.513.336 1.401.56 1.346.785 1.233.952 1.12 1.064.954 1.288.785 1.344.56 1.4.336 1.457.112 1.456-.112 1.456-.336 1.344-.56 1.233-.785 1.12-.953.952-1.121.728-1.233.56-1.346.336-1.4.112-1.514V151.54h9.13v27.074z"/><path d="m1170.403 176.82-.785-1.29-.953-1.176-1.121-1.065-1.233-.841-1.345-.673 1.177-.785 1.065-1.009.84-1.12.73-1.234.504-1.345.336-1.401.112-1.458-.112-1.457-.336-1.401-.56-1.458-.73-1.457-.952-1.29-1.065-1.233-1.234-1.009-1.345-.896-1.401-.73-1.57-.504-1.569-.336-1.57-.112h-20.907v44.45h21.804l1.962-.224 1.85-.393 1.85-.728 1.737-.897 1.57-1.121 1.289-1.29 1.12-1.457.898-1.625.616-1.738.393-1.794.112-1.85-.056-1.569-.224-1.513-.393-1.514zm-24.887-7.399v-9.417h10.089l1.065.112 1.009.336.897.561.728.729.56.897.337 1.008.112 1.066-.112 1.008-.336 1.01-.56.896-.73.729-.896.617-1.01.336-1.064.112zm0 18.105v-11.098h10.537l1.065.056 1.065.336.953.504.841.73.673.84.504.953.336 1.009.112 1.12-.112 1.066-.336 1.065-.504.953-.673.84-.84.673-.954.505-1.065.336-1.065.112h-10.537" style="fill:#fff;stroke:none;stroke-width:.672632;stroke-linecap:round;stroke-linejoin:round;stroke-miterlimit:10;stroke-dasharray:none;stroke-opacity:1"/><path style="fill:#fff;stroke:none;stroke-width:.671901;stroke-linecap:round;stroke-linejoin:round;stroke-miterlimit:10;stroke-dasharray:none;stroke-opacity:1" d="M1182.784 151.54h9.072v35.773h19.712v8.677h-28.784z"/><path style="fill:#fff;stroke:none;stroke-width:.671799;stroke-linecap:round;stroke-linejoin:round;stroke-miterlimit:10;stroke-dasharray:none;stroke-opacity:1" d="M1229.204 151.54v44.45h-9.07v-44.45z"/><path style="fill:#fff;stroke:none;stroke-width:.672072;stroke-linecap:round;stroke-linejoin:round;stroke-miterlimit:10;stroke-dasharray:none;stroke-opacity:1" d="M1253.683 151.54h-10.365v44.45h9.076v-30.063l19.89 30.063h10.422v-44.45h-9.133v30.063z"/><path d="m1060.855 82.56-1.11.031-1.099.083-1.078.133-1.078.186-1.069.247-1.057.298-1.037.349-1.039.41-1.016.463-1.017.512-.995.565-.997.626-.976.68-.246.184-.946.729-.914.76-.873.792-.83.811-.802.852-.75.873-.719.894-.678.934-.646.954-.597.988-.565 1.015-.523 1.037-.483 1.069-.216.514-.472 1.19-.433 1.14-.379 1.08-.34 1.005-.287.957-.133.502-.267 1.059-.226 1.046-.173 1.028-.144 1.017-.093 1.006-.051.984-.011.988.03.954.072.957.123.934.154.925.195.914.247.892.287.885.33.861.37.863.41.843.451.822.494.82.545.802.155.206.604.78.658.699.697.626.731.543.781.484.81.402.72.275.738.216.842.175.945.133 1.07.104 1.169.06 1.275.031h.277l.975-.03 1.037-.113 1.11-.175 1.18-.247.309-.07 4.591-1.11.555.751.021.04.596.709.01.01h7.857l-.226-.944-.102-.966.02-1.006.134-1.049.196-.882 10.608-39.603h-6.502l-.78.646-.452.382-.934-.463-.935-.41-.944-.37-.945-.33-.946-.278-.954-.225-.957-.185-.965-.133-.963-.092-.966-.053zm-1.684 7.775.985.084.944.184.904.278.873.39.832.493.657.482.71.7.574.759.433.802.286.851.155.904.03.584-.022.915-.06.945-.092.966-.134.997-.163 1.016-.217 1.047-.237 1.07-.277 1.097-.318 1.13-.359 1.15-.391 1.172-.112.328-.494 1.355-.533 1.274-.545 1.203-.575 1.108-.605 1.027-.626.944-.648.864-.678.78-.698.689-.73.614-.748.525-.781.452-.802.359-.821.288-.853.196-.884.111-.79.031-.873-.04-.934-.133-1.019-.227-1.087-.318-.237-.072-.841-.318-.772-.38-.688-.43-.615-.504-.534-.565-.461-.626-.392-.679-.31-.75-.234-.81-.164-.864-.083-.935-.01-.985.07-1.058.146-1.108.226-1.173.287-1.243.03-.112.361-1.233.38-1.19.42-1.152.463-1.108.481-1.08.525-1.024.555-.988.585-.944.626-.905.658-.862.698-.812.719-.78.76-.74.792-.698.564-.452 1.14-.832 1.098-.676 1.048-.556 1.017-.4.976-.268.935-.124z" style="fill:#fff;fill-opacity:1;fill-rule:evenodd;stroke:none;stroke-width:.192741"/><path style="fill:#fff;stroke:none;stroke-width:.672156;stroke-linecap:round;stroke-linejoin:round;stroke-miterlimit:10;stroke-dasharray:none;stroke-opacity:1" d="m1098.107 128.085-2.533.672-2.53.448-2.469.224-2.48.056-2.35-.224-1.116-.224-1.042-.504-.828-.672-.672-.84-.473-.952-.204-1.12-.022-1.176.218-1.232 5.041-18.815h-5.098l1.935-7.223h5.099l2.656-9.912 9.36-2.52-3.331 12.432h8.068l-1.936 7.223h-8.068l-4.141 15.455-.124.672.115.616.257.504.455.392.542.28.601.056 1.71-.112 1.7-.28 1.69-.448z"/><path style="fill:#fff;stroke:none;stroke-width:.672235;stroke-linecap:round;stroke-linejoin:round;stroke-miterlimit:10;stroke-dasharray:none;stroke-opacity:1" d="M1132.744 128.521h-8.688l5.07-18.922.244-1.12.02-1.119-.179-1.008-.418-.951-.645-.728-1.043-.504-1.229-.224-1.304.056-1.308.28-1.354.448-1.189.672-1.122.84-.942 1.007-.734 1.064-.412 1.12-5.115 19.09h-8.689l11.91-44.45h8.69l-4.006 14.947 1.56-1.008 1.555-.784 1.678-.616 1.69-.447 1.615-.168h1.625l1.76.335 1.476.56 1.36.784 1.146.952.99 1.12.775 1.287.563 1.456.279 1.68.039 1.735-.2 1.79-.383 1.848z"/><path d="m1208.715 115.63-1.325 2.017-1.462 1.906-1.616 1.85-1.937 1.793-2.075 1.682-2.153 1.345-2.26 1.121-2.272.953-2.308.673-2.36.448-2.286.168h-2.52l-2.196-.168-2.064-.448-1.948-.673-1.817-.953-1.604-1.12-1.431-1.346-1.215-1.738-1.017-1.85-.747-2.017-.493-2.13-.24-2.243-.056-2.298.239-2.354.463-2.354.856-3.195.814-2.41 1.023-2.355 1.287-2.298 1.426-2.186 1.635-2.13 1.83-2.018 2.022-1.906 2.13-1.681 2.153-1.345 2.22-1.178 2.313-.896 2.308-.673 2.305-.449 2.285-.168h2.52l2.196.168 2.12.449 1.948.673 1.776.896 1.645 1.178 1.431 1.345 1.23 1.681.946 1.906.832 2.747.451 2.915-10.034 3.587.014-1.514-.155-1.513-.424-1.345-.662-1.29-.891-1.064-1.048-.897-1.138-.56-1.183-.393-1.284-.224-1.314-.112-1.43.112-1.46.224-1.465.448-1.438.56-1.372.73-1.32.952-1.222 1.01-1.1 1.176-1.002 1.234-.793 1.289-1.176 2.298-.896 2.298-.672 2.298-.575 2.355-.335 2.298-.041 2.242.088 1.345.341 1.233.469 1.177.682 1.01.824.896.965.785 1.138.56 1.24.393 1.325.28 1.385.056 1.542-.112 1.587-.28 1.592-.505 1.483-.728 1.473-.897 1.293-1.065 1.212-1.177 1.073-1.29.88-1.4.726-1.458z" style="fill:#fff;stroke:none;stroke-width:.672361;stroke-linecap:round;stroke-linejoin:round;stroke-miterlimit:10;stroke-dasharray:none;stroke-opacity:1"/><path style="fill:#fff;stroke:none;stroke-width:.671807;stroke-linecap:round;stroke-linejoin:round;stroke-miterlimit:10;stroke-dasharray:none;stroke-opacity:1" d="M1224.918 84.071h8.66l-9.394 35.06-.054.616.144.505.327.449.428.28.6.057 1.69-.056 1.737-.225-1.094 7.629-2.818.505-2.772.336-2.797.225-1.144-.112-1.027-.337-.997-.449-.77-.673-.612-.841-.4-1.01-.218-1.066-.034-1.122.204-1.178z"/><path style="fill:#fff;stroke:none;stroke-width:2.63338;stroke-linecap:round;stroke-linejoin:round;stroke-miterlimit:10;stroke-opacity:1" d="m1269.957 96.204-1.639.145-1.605.34-1.586.548-1.548.767-1.515.98-1.48 1.196-.407.373-1.247 1.283-1.158 1.354-1.034 1.442-.91 1.531-.785 1.604-.672 1.71-.057.143-.498 1.655-.41 1.622-.283 1.62-.181 1.621-.07 1.587.018.946.16 1.586.321 1.48.48 1.35.622 1.23.784 1.103.588.677 1.051.91 1.215.728 1.333.537 1.48.34 1.605.14.784.017 1.621-.086 1.656-.23 1.71-.339 1.746-.464.73.25 1.23.462.193.16h5.632l-.09-1.07-.036-1.71.159-1.193.75-2.813.748-2.763.713-2.603.659-2.44.605-2.278.57-2.123.536-1.96.48-1.814.446-1.64.391-1.478.357-1.337.303-1.16.266-1.011.232-.841.18-.694.124-.533.085-.372h-6.502l-.372 1.44-.282-.249-.928-.52-1.231-.44-1.514-.321-1.835-.25-2.12-.124zm.282 7.626.785.055 1.424.39 1.355.748.462.394.859 1.14.301 1.334v.074l-.09 1.834-.232 1.69-.357 1.532-.515 1.372-.445.927-1 1.784-.995 1.407-1 1.05-.604.43-1.407.656-1.655.394-1.925.104-1.086-.143-1.18-.497-.854-.892-.514-1.264-.163-1.658v-.536l.124-1.671.305-1.515.108-.322.569-1.62.764-1.583.965-1.553.142-.215 1.175-1.333 1.48-1.231 1.638-.96z"/><path style="fill:#fff;stroke:none;stroke-width:.672156;stroke-linecap:round;stroke-linejoin:round;stroke-miterlimit:10;stroke-dasharray:none;stroke-opacity:1" d="m1307.022 128.085-2.533.672-2.53.448-2.469.224-2.48.056-2.35-.224-1.116-.224-1.042-.504-.828-.672-.672-.84-.473-.952-.204-1.12-.021-1.176.218-1.232 5.042-18.815h-5.1l1.936-7.223h5.099l2.656-9.912 9.36-2.52-3.331 12.432h8.068l-1.936 7.223h-8.068l-4.141 15.455-.124.672.115.616.257.504.455.392.542.28.601.056 1.71-.112 1.7-.28 1.69-.448z"/><path style="fill:#fff;stroke:none;stroke-width:.672235;stroke-linecap:round;stroke-linejoin:round;stroke-miterlimit:10;stroke-dasharray:none;stroke-opacity:1" d="M1341.66 128.521h-8.69l5.07-18.922.245-1.12.02-1.119-.179-1.008-.418-.951-.645-.728-1.043-.504-1.229-.224-1.304.056-1.308.28-1.354.448-1.189.672-1.122.84-.942 1.007-.734 1.064-.412 1.12-5.115 19.09h-8.689l11.91-44.45h8.69l-4.006 14.947 1.56-1.008 1.555-.784 1.678-.616 1.69-.447 1.615-.168h1.625l1.76.335 1.476.56 1.36.784 1.146.952.99 1.12.775 1.287.563 1.456.279 1.679.04 1.735-.2 1.792-.383 1.847z"/><g style="fill:#fff;stroke:none"><path d="M1123.055 286.774a13.752 13.752 0 0 1-13.752 13.752 13.752 13.752 0 0 1-13.752-13.752 13.752 13.752 0 0 1 13.752-13.752 13.752 13.752 0 0 1 13.752 13.752z" style="fill:#fff;fill-rule:evenodd;stroke:none;stroke-width:1.14052;stroke-linecap:round;stop-color:#000" transform="matrix(.3175 0 0 .3175 897.523 -2.454)"/><path style="fill:#fff;stroke:none;stroke-width:.651374;stroke-linecap:round;stroke-linejoin:round;stroke-miterlimit:10;stroke-opacity:1" d="m1090.675 312.518-21.954 81.981-.283 1.351-.211 1.742v1.788l.229 1.817.423 1.828.63 1.853.836 1.87 1.057 1.9 1.265 1.906 1.487 1.957h25.477l-.753-.957-1.147-1.649-.992-1.688-.835-1.77-.696-1.835-.552-1.892-.401-1.953-.24-2.01-.111-2.1.047-2.158 21.953-81.98zm0 0" transform="matrix(.3175 0 0 .3175 897.523 -2.454)"/></g><path d="m1049.659 76.743.493 1.746 19.288-4.765-1.068-3.73zm0 0" style="fill:#fff;stroke:none;stroke-width:.136846;stroke-linecap:round;stroke-linejoin:round;stroke-miterlimit:10;stroke-opacity:1"/></g></svg>