<svg width="3822.885" height="2031" viewBox="0 0 1011.472 537.369" xmlns="http://www.w3.org/2000/svg"><g transform="translate(169.108 90.09)"><rect style="fill:#000;fill-opacity:1;fill-rule:evenodd;stroke-width:5.88391;stroke-linecap:round;stop-color:#000" width="1010.942" height="536.84" x="-168.843" y="-89.826" rx="16.536"/><rect style="fill:#fff;fill-opacity:1;fill-rule:evenodd;stroke-width:5.88391;stroke-linecap:round;stop-color:#000" width="1009.884" height="535.781" x="-168.314" y="-89.297" rx="15.875"/><rect style="fill:#008445;fill-opacity:1;fill-rule:evenodd;stroke-width:5.88391;stroke-linecap:round;stop-color:#000" width="986.072" height="511.969" x="-156.408" y="-77.391" rx="31.75"/><rect style="fill:#fff;fill-rule:evenodd;stroke-width:3.96874;stroke-linecap:round;stop-color:#000" width="353.377" height="226.219" x="-132.595" y="39.644" rx="7.938"/><path style="fill:#000;stroke:none;stroke-width:.672494;stroke-linecap:round;stroke-linejoin:round;stroke-miterlimit:10;stroke-dasharray:none;stroke-opacity:1" d="M-92.6 161.7h-7.731V135.02h7.732l1.569.112 1.512.392 1.457.56 1.401.786 1.233.953 1.064 1.177.897 1.289.672 1.401.504 1.514.392 2.13.169 2.13v2.186l-.225 2.186-.448 2.13-.504 1.401-.728 1.401-.897 1.234-1.064 1.065-1.233.952-1.345.73-1.4.504-1.513.336zm-.111 8.913 2.073-.113 2.129-.336 2.017-.56 1.961-.785 1.905-.953 1.737-1.177 1.625-1.345 1.513-1.514 1.288-1.681 1.12-1.794.953-1.906.729-1.962.504-2.074.336-2.41.168-2.41v-2.41l-.168-2.467-.336-2.41-.504-2.018-.729-2.018-.952-1.906-1.12-1.794-1.29-1.625-1.512-1.513-1.625-1.402-1.737-1.12-1.905-1.01-1.96-.785-2.018-.504-2.13-.336-2.072-.112h-16.753v44.45z"/><path style="fill:#000;stroke:none;stroke-width:.67237;stroke-linecap:round;stroke-linejoin:round;stroke-miterlimit:10;stroke-dasharray:none;stroke-opacity:1" d="m-25.94 155.31-.336 2.074-.56 1.962-.84 1.906-.953 1.793-1.232 1.682-1.344 1.57-1.568 1.4-1.68 1.178-1.793 1.009-1.904.785-2.016.56-2.017.336-2.072.113-2.072-.113-2.017-.336-1.96-.56-1.96-.785-1.793-1.01-1.68-1.176-1.512-1.402-1.4-1.569-1.176-1.682-1.009-1.793-.784-1.906-.56-1.962-.392-2.074-.112-2.074v-27.073h9.13v27.073l.112 1.514.336 1.4.56 1.346.784 1.233.952 1.121 1.064.953 1.288.785 1.344.56 1.4.337 1.457.112 1.456-.112 1.456-.336 1.345-.561 1.232-.785 1.12-.953.952-1.12.728-1.234.56-1.345.336-1.401.112-1.514v-27.073h9.13v27.073z"/><path style="fill:#000;stroke:none;stroke-width:.672072;stroke-linecap:round;stroke-linejoin:round;stroke-miterlimit:10;stroke-dasharray:none;stroke-opacity:1" d="M-1.794 126.163H-12.16v44.45h9.077V140.55l19.89 30.063H27.23v-44.45h-9.133v30.062z"/><path style="fill:#000;stroke:none;stroke-width:.671901;stroke-linecap:round;stroke-linejoin:round;stroke-miterlimit:10;stroke-dasharray:none;stroke-opacity:1" d="M41.289 126.163h9.072v35.772h19.713v8.678H41.289Z"/><path style="fill:#000;stroke:none;stroke-width:.672347;stroke-linecap:round;stroke-linejoin:round;stroke-miterlimit:10;stroke-dasharray:none;stroke-opacity:1" d="M109.501 161.924H87.715v-9.753h18.202v-8.24H87.715v-9.136h20.106v-8.632H78.586v44.45h30.915zM152.681 161.924h-21.786v-9.753h18.202v-8.24h-18.202v-9.136h20.106v-8.632h-29.235v44.45h30.915z"/><path style="fill:#000;stroke:none;stroke-width:.671937;stroke-linecap:round;stroke-linejoin:round;stroke-miterlimit:10;stroke-dasharray:none;stroke-opacity:1" d="M174.188 134.392h10.585l1.064.112.952.336.952.448.785.671.672.784.448.952.336.952.112 1.063-.112 1.008-.336 1.008-.448.895-.672.84-.785.616-.952.504-.952.336-1.064.056h-10.585zm-9.073-8.23v44.45h9.073v-17.354h5.937l10.137 17.355h10.585l-10.641-18.139 1.624-.727 1.568-.952 1.4-1.12 1.233-1.343 1.064-1.456.84-1.567.672-1.68.392-1.735.168-1.792-.056-1.847-.336-1.736-.504-1.735-.784-1.624-1.008-1.511-1.12-1.4-1.345-1.175-1.512-1.008-1.624-.84-1.68-.56-1.793-.391-1.792-.112z"/><path style="fill:#000;stroke:none;stroke-width:.669523;stroke-linecap:round;stroke-linejoin:round;stroke-miterlimit:10;stroke-dasharray:none;stroke-opacity:1" d="M-101.643 219.117h9.808l.986.12.883.36.882.48.727.72.622.84.416 1.02.31 1.019.105 1.14-.104 1.079-.311 1.08-.416.96-.622.9-.727.659-.882.54-.883.36-.986.06h-9.808zm-8.408-8.817v47.625h8.408V239.33h5.5l9.394 18.594h9.81L-86.8 238.49l1.505-.78 1.453-1.02 1.297-1.2 1.142-1.439.986-1.56.779-1.679.622-1.799.364-1.86.155-1.919-.052-1.98-.311-1.859-.467-1.859-.727-1.74-.934-1.619-1.038-1.5-1.245-1.259-1.402-1.08-1.505-.9-1.557-.6-1.66-.42-1.661-.12z"/><path style="fill:#000;stroke:none;stroke-width:.720074;stroke-linecap:round;stroke-linejoin:round;stroke-miterlimit:10;stroke-dasharray:none;stroke-opacity:1" d="M-55.298 225.715h-7.924v-8.157l3.902-.36 1.2-.3 1.081-.54.96-.78.661-1.02.48-1.08.78-3.178h8.645v47.625h-9.785z"/><path style="fill:#000;stroke:none;stroke-width:.719678;stroke-linecap:round;stroke-linejoin:round;stroke-miterlimit:10;stroke-dasharray:none;stroke-opacity:1" d="M-36.57 219.117V210.3h33.521v8.817l-16.07 38.808h-10.554l16.07-38.808zM6.911 217.678l-1.2 2.339-.96 2.46-.66 2.518-.6 2.94-.3 2.998-.06 3.06.06 2.998.3 3 .6 2.999.66 2.519.96 2.399 1.2 2.34 1.44 2.219 1.5 1.559 1.74 1.38 1.801 1.14 1.98.959 2.1.72 2.1.42 2.22.24h2.881l2.16-.24 2.1-.42 2.101-.72 1.98-.96 1.8-1.14 1.74-1.379 1.5-1.56 1.441-2.219 1.2-2.339.96-2.4.72-2.518.54-3 .3-2.999.06-2.999-.06-3.059-.3-2.999-.54-2.939-.72-2.519-.96-2.46-1.2-2.338-1.44-2.16-1.5-1.56-1.74-1.379-1.8-1.2-1.981-.96-2.1-.659-2.1-.48-2.16-.24h-2.881l-2.22.24-2.1.48-2.1.66-1.981.96-1.8 1.2-1.74 1.379-1.5 1.56zm16.322 32.33-1.38-.06-1.32-.3-1.26-.48-1.2-.66-1.08-.84-.9-.96-.78-1.14-.6-1.199-.78-2.22-.421-2.338-.3-2.88-.12-2.939.12-2.939.3-2.939.42-2.339.78-2.16.6-1.259.78-1.08.9-1.02 1.08-.839 1.2-.66 1.26-.48 1.32-.3 1.381-.06 1.32.06 1.32.3 1.26.48 1.2.66 1.08.84.9 1.02.781 1.08.6 1.259.78 2.159.48 2.34.3 2.938.06 2.94-.06 2.938-.3 2.88-.48 2.339-.78 2.22-.6 1.199-.78 1.14-.9.959-1.08.84-1.2.66-1.26.48-1.32.3z"/><path style="fill:#000;stroke:none;stroke-width:.672494;stroke-linecap:round;stroke-linejoin:round;stroke-miterlimit:10;stroke-dasharray:none;stroke-opacity:1" d="M-99.228 94.231h-7.733l7.15-26.68h7.732l1.539.111 1.407.393 1.307.56 1.19.785.978.953.749 1.177.55 1.29.298 1.4.098 1.514-.178 2.13-.403 2.13-.586 2.186-.81 2.186-1.018 2.13-.88 1.401-1.104 1.402-1.227 1.233-1.35 1.065-1.488.953-1.54.728-1.536.505-1.603.336zm-2.5 8.913 2.103-.112 2.219-.337 2.167-.56 2.171-.785 2.16-.953 2.053-1.177 1.985-1.345 1.919-1.514 1.739-1.681 1.601-1.794 1.463-1.906 1.254-1.962 1.06-2.074.982-2.41.814-2.41.646-2.41.493-2.467.31-2.41.036-2.018-.188-2.018-.442-1.906-.64-1.793-.853-1.626-1.107-1.513-1.25-1.402-1.436-1.12-1.635-1.01-1.75-.784-1.882-.505-2.04-.336-2.042-.112h-16.753l-11.91 44.45z"/><path style="fill:#000;stroke:none;stroke-width:.672156;stroke-linecap:round;stroke-linejoin:round;stroke-miterlimit:10;stroke-dasharray:none;stroke-opacity:1" d="M-64.9 71.394h8.685l-5.072 18.927-.188 1.12-.076 1.12.179 1.007.417.952.701.728 1.042.504 1.187.168h1.29l1.363-.28 1.297-.448 1.244-.672 1.066-.84.998-1.008.677-1.064.413-1.12 5.116-19.094h8.685l-8.508 31.75h-8.684l.6-2.24-1.503 1.008-1.61.784-1.679.616-1.632.448-1.67.168h-1.625l-1.76-.336-1.474-.56-1.303-.784-1.201-.952-.933-1.12-.831-1.288-.563-1.456-.222-1.68-.04-1.736.16-1.848.368-1.791z"/><path style="fill:#000;fill-opacity:1;fill-rule:evenodd;stroke:none;stroke-width:.425077" d="m-55.095 66.242.463 1.492 11.423-2.61-.837-3.098zm0 0"/><path style="fill:#000;stroke:none;stroke-width:.672913;stroke-linecap:round;stroke-linejoin:round;stroke-miterlimit:10;stroke-dasharray:none;stroke-opacity:1" d="m-21.037 82.95-.413 1.121-5.11 19.072h-8.689l8.507-31.75h8.69l-.602 2.244 1.56-1.01 1.627-.84 1.622-.618 1.675-.392 1.63-.225 1.61.056 1.76.337 1.476.56 1.359.786 1.146.954.988 1.122.776 1.29.562 1.458.278 1.683.038 1.74-.2 1.794-.384 1.851-5.08 18.96h-8.69l5.066-18.904.244-1.121.077-1.122-.22-1.066-.431-.898-.646-.729-1.042-.505-1.229-.224-1.304.056-1.294.224-1.368.505-1.19.673-1.122.842-.943 1.01z"/><path style="fill:#000;stroke:none;stroke-width:.671901;stroke-linecap:round;stroke-linejoin:round;stroke-miterlimit:10;stroke-dasharray:none;stroke-opacity:1" d="M40.69 58.694h9.072l-9.586 35.772H59.89l-2.325 8.678H28.779Z"/><path style="fill:#000;stroke:none;stroke-width:.671795;stroke-linecap:round;stroke-linejoin:round;stroke-miterlimit:10;stroke-dasharray:none;stroke-opacity:1" d="M75.798 83.657h12.873l.133-1.12-.107-1.064-.305-.952-.502-.84-.7-.728-.802-.56-.959-.392-1.059-.224h-1.12l-1.179.224-1.168.392-1.102.56-1.09.728-.953.84-.815.952-.677 1.064zm-1.913 7.56-.02 1.12.233 1.007.432.896.63.784.786.616 1.264.504 1.38.28 1.44.056 1.485-.112 1.56-.392 1.692-.672 1.64-.896 1.53-1.12 3.918 5.432-1.45 1.232-1.53 1.12-1.599.952-1.65.728-1.717.56-2.135.448-2.131.224-2.086.056-2.026-.168-1.91-.392-1.447-.448-1.346-.616-1.174-.84-1.032-.952-.932-1.12-.677-1.232-.591-1.344-.338-1.456-.243-2.016-.06-2.072.177-2.127.418-2.184.697-2.184.906-2.128 1.13-2.128 1.323-2.016 1.387-1.624 1.58-1.512 1.76-1.343 1.811-1.12 1.624-.84 1.707-.728 1.702-.504 1.698-.28 1.653-.112 1.608.056 1.548.28 1.503.448 1.346.616 1.175.84 1.17 1.064 1.013 1.231.73 1.456.546 1.512.277 1.68.108 2.52-.13 2.576-.425 2.632-.594 2.632H74.073Z"/><path style="fill:#000;fill-opacity:1;stroke:none;stroke-width:3.3615" d="m92.445 64.57-11.607 2.626-.473-1.523 11.292-4.202Z"/><path d="M119.581 63.22a4.366 4.366 0 0 1-4.366 4.366 4.366 4.366 0 0 1-4.366-4.366 4.366 4.366 0 0 1 4.366-4.367 4.366 4.366 0 0 1 4.366 4.367z" style="fill:#000;fill-rule:evenodd;stroke:none;stroke-width:.362115;stroke-linecap:round;stop-color:#000"/><path style="fill:#000;stroke:none;stroke-width:.206811;stroke-linecap:round;stroke-linejoin:round;stroke-miterlimit:10;stroke-opacity:1" d="m109.3 71.393-6.97 26.03-.09.428-.067.553v.568l.073.577.134.58.2.588.266.594.335.603.402.606.472.62h8.09l-.24-.303-.364-.523-.315-.536-.265-.562-.221-.583-.175-.6-.128-.62-.076-.639-.035-.667.015-.685 6.97-26.029zm0 0"/><path style="fill:#000;stroke:none;stroke-width:.672521;stroke-linecap:round;stroke-linejoin:round;stroke-miterlimit:10;stroke-dasharray:none;stroke-opacity:1" d="M124.985 103.143h-8.68l8.508-31.75h8.679l-.842 3.142L134 73.47l1.416-.897 1.554-.786 1.591-.504 1.546-.337 1.542-.112h2.128l-2.21 8.246H138.6l-1.262.112-1.322.337-1.27.56-1.26.73-1.065.841-1.013 1.066-.86 1.122-.667 1.234-.387 1.234z"/><path style="fill:#000;stroke:none;stroke-width:.671795;stroke-linecap:round;stroke-linejoin:round;stroke-miterlimit:10;stroke-dasharray:none;stroke-opacity:1" d="M155.173 83.657h12.873l.133-1.12-.107-1.064-.305-.952-.502-.84-.7-.728-.802-.56-.959-.392-1.059-.224h-1.12l-1.179.224-1.168.392-1.102.56-1.09.728-.953.84-.815.952-.677 1.064zm-1.913 7.56-.02 1.12.233 1.007.432.896.63.784.786.616 1.264.504 1.38.28 1.44.056 1.486-.112 1.56-.392 1.691-.672 1.64-.896 1.53-1.12 3.918 5.432-1.45 1.232-1.53 1.12-1.599.952-1.65.728-1.717.56-2.135.448-2.131.224-2.086.056-2.026-.168-1.91-.392-1.447-.448-1.346-.616-1.174-.84-1.032-.952-.932-1.12-.677-1.232-.591-1.344-.338-1.456-.243-2.016-.06-2.072.178-2.127.417-2.184.697-2.184.906-2.128 1.13-2.128 1.324-2.016 1.386-1.624 1.58-1.512 1.76-1.343 1.811-1.12 1.624-.84 1.707-.728 1.702-.504 1.698-.28 1.653-.112 1.608.056 1.548.28 1.503.448 1.347.616 1.174.84 1.17 1.064 1.013 1.232.73 1.455.546 1.512.277 1.68.109 2.52-.131 2.576-.425 2.632-.594 2.632h-21.156z"/><path style="fill:#fff;stroke:none;stroke-width:.672494;stroke-linecap:round;stroke-linejoin:round;stroke-miterlimit:10;stroke-dasharray:none;stroke-opacity:1" d="M300.466 52.604h-7.732V25.922h7.732l1.569.112 1.512.393 1.457.56 1.401.785 1.233.953 1.064 1.177.897 1.29.672 1.4.504 1.514.392 2.13.169 2.13v2.186l-.225 2.186-.448 2.13-.504 1.402-.728 1.4-.897 1.234-1.064 1.065-1.233.953-1.345.729-1.4.504-1.513.336zm-.112 8.912 2.073-.112 2.129-.336 2.017-.56 1.961-.786 1.905-.953 1.737-1.177 1.625-1.345 1.513-1.513 1.288-1.682 1.12-1.794.953-1.905.729-1.962.504-2.074.336-2.41.168-2.41v-2.411l-.168-2.466-.336-2.41-.504-2.019-.729-2.018-.952-1.905-1.12-1.794-1.29-1.626-1.512-1.513-1.625-1.401-1.737-1.121-1.905-1.01-1.961-.784-2.017-.505-2.13-.336-2.072-.112H283.6v44.45z"/><path style="fill:#fff;stroke:none;stroke-width:.67237;stroke-linecap:round;stroke-linejoin:round;stroke-miterlimit:10;stroke-dasharray:none;stroke-opacity:1" d="m367.125 46.214-.336 2.073-.56 1.962-.84 1.906-.953 1.794-1.232 1.681-1.344 1.57-1.568 1.401-1.68 1.177-1.793 1.01-1.904.784-2.017.56-2.016.337-2.072.112-2.073-.112-2.016-.336-1.96-.56-1.96-.786-1.793-1.009-1.68-1.177-1.512-1.401-1.4-1.57-1.177-1.681-1.008-1.794-.784-1.906-.56-1.962-.392-2.073-.112-2.074V17.066h9.13V44.14l.111 1.513.337 1.401.56 1.346.784 1.233.952 1.12 1.064.954 1.288.784 1.344.561 1.4.336 1.457.112 1.456-.112 1.456-.336 1.344-.56 1.233-.785 1.12-.953.952-1.121.728-1.233.56-1.346.336-1.401.112-1.513V17.066h9.13V44.14z"/><path d="m414.988 42.346-.785-1.29-.953-1.176-1.12-1.065-1.234-.841-1.345-.673 1.177-.785 1.065-1.009.84-1.12.73-1.234.504-1.345.336-1.401.112-1.458-.112-1.457-.336-1.402-.56-1.457-.73-1.457-.952-1.29-1.065-1.233-1.233-1.009-1.346-.896-1.401-.73-1.57-.504-1.569-.336-1.57-.112h-20.907v44.45h21.805l1.961-.224 1.85-.393 1.85-.728 1.737-.897 1.57-1.121 1.289-1.29 1.121-1.457.897-1.625.616-1.738.393-1.794.112-1.85-.056-1.569-.224-1.513-.393-1.514zm-24.887-7.4V25.53h10.09l1.064.112 1.01.336.896.56.729.73.56.896.336 1.01.113 1.064-.113 1.01-.336 1.008-.56.897-.73.729-.896.616-1.009.337-1.065.112zm0 18.106V41.953h10.538l1.065.057 1.065.336.952.504.841.729.673.84.504.954.337 1.009.112 1.12-.112 1.066-.337 1.065-.504.953-.673.84-.84.673-.953.505-1.065.336-1.065.112H390.1" style="fill:#fff;stroke:none;stroke-width:.672632;stroke-linecap:round;stroke-linejoin:round;stroke-miterlimit:10;stroke-dasharray:none;stroke-opacity:1"/><path style="fill:#fff;stroke:none;stroke-width:.671901;stroke-linecap:round;stroke-linejoin:round;stroke-miterlimit:10;stroke-dasharray:none;stroke-opacity:1" d="M427.369 17.066h9.072v35.773h19.713v8.677h-28.785z"/><path style="fill:#fff;stroke:none;stroke-width:.671799;stroke-linecap:round;stroke-linejoin:round;stroke-miterlimit:10;stroke-dasharray:none;stroke-opacity:1" d="M473.79 17.066v44.45h-9.07v-44.45Z"/><path style="fill:#fff;stroke:none;stroke-width:.672072;stroke-linecap:round;stroke-linejoin:round;stroke-miterlimit:10;stroke-dasharray:none;stroke-opacity:1" d="M498.268 17.066h-10.365v44.45h9.077V31.453l19.89 30.063h10.421v-44.45h-9.132v30.062Z"/><path style="fill:#fff;stroke:none;stroke-width:.672494;stroke-linecap:round;stroke-linejoin:round;stroke-miterlimit:10;stroke-dasharray:none;stroke-opacity:1" d="M300.466 207.385h-7.732v-26.682h7.732l1.569.112 1.512.393 1.457.56 1.4.785 1.234.953 1.064 1.177.897 1.29.672 1.4.504 1.514.392 2.13.169 2.13v2.186l-.225 2.186-.448 2.13-.504 1.401-.728 1.402-.897 1.233-1.065 1.065-1.232.953-1.345.729-1.4.504-1.513.336zm-.112 8.912 2.073-.112 2.129-.336 2.017-.56 1.961-.786 1.905-.953 1.737-1.177 1.625-1.345 1.513-1.513 1.288-1.682 1.12-1.794.953-1.905.729-1.962.504-2.074.336-2.41.168-2.41v-2.411l-.168-2.466-.336-2.41-.504-2.019-.729-2.018-.952-1.905-1.12-1.794-1.29-1.626-1.512-1.513-1.625-1.401-1.737-1.121-1.905-1.01-1.96-.784-2.018-.505-2.13-.336-2.072-.112H283.6v44.45z"/><path style="fill:#fff;stroke:none;stroke-width:.671937;stroke-linecap:round;stroke-linejoin:round;stroke-miterlimit:10;stroke-dasharray:none;stroke-opacity:1" d="M340.24 180.076h10.586l1.064.112.952.336.952.448.784.672.672.784.448.951.336.952.112 1.064-.112 1.007-.336 1.008-.448.896-.672.84-.784.615-.952.504-.952.336-1.064.056H340.24zm-9.073-8.229v44.45h9.073v-17.355h5.937l10.137 17.355H366.9l-10.642-18.138 1.624-.728 1.569-.952 1.4-1.12 1.232-1.343 1.064-1.456.84-1.567.672-1.68.392-1.735.168-1.791-.056-1.848-.336-1.735-.504-1.736-.784-1.623-1.008-1.512-1.12-1.4-1.344-1.175-1.512-1.008-1.625-.84-1.68-.56-1.792-.391-1.792-.112z"/><path style="fill:#fff;stroke:none;stroke-width:.671822;stroke-linecap:round;stroke-linejoin:round;stroke-miterlimit:10;stroke-dasharray:none;stroke-opacity:1" d="m401.557 180.748 1.176.784 1.064.896.952 1.063.784 1.12.615 1.232.448 1.343.56 2.24.336 2.295.056 2.351-.056 2.295-.336 2.296-.56 2.295-.448 1.287-.615 1.288-.784 1.12-.952 1.063-1.064.896-1.176.728-1.287.56-1.344.447-1.4.224-1.4.112-1.4-.112-1.399-.224-1.343-.447-1.288-.56-1.176-.728-1.064-.896-.952-1.063-.783-1.12-.616-1.288-.504-1.287-.504-2.295-.336-2.296-.056-2.295.056-2.351.336-2.296.504-2.239.504-1.343.616-1.232.783-1.12.952-1.063 1.064-.896 1.176-.784 1.288-.56 1.343-.392 1.4-.28 1.4-.055 1.4.056 1.399.28 1.344.391zm15.733 11.7-.168-2.35-.392-2.352-.616-2.295-.896-2.24-1.063-2.127-1.288-2.015-1.456-1.848-1.68-1.735-1.791-1.344-1.96-1.12-2.015-.895-2.128-.728-2.24-.392-2.183-.224h-2.575l-2.24.224-2.183.392-2.128.728-2.071.896-1.904 1.12-1.791 1.343-1.68 1.735-1.456 1.848-1.287 2.015-1.12 2.127-.84 2.24-.616 2.295-.448 2.351-.168 2.351v3.191l.168 2.408.448 2.351.616 2.295.84 2.24 1.12 2.127 1.287 1.96 1.456 1.903 1.68 1.68 1.791 1.343 1.904 1.175 2.071.896 2.128.672 2.183.448 2.24.224h2.575l2.184-.224 2.24-.448 2.127-.672 2.015-.896 1.96-1.175 1.792-1.344 1.68-1.68 1.455-1.903 1.288-1.96 1.063-2.126.896-2.24.616-2.295.392-2.351.168-2.408z"/><path style="fill:#fff;stroke:none;stroke-width:.672072;stroke-linecap:round;stroke-linejoin:round;stroke-miterlimit:10;stroke-dasharray:none;stroke-opacity:1" d="M445.246 198.495v-7.782h19.498v25.584h-8.292v-3.191l-1.289 1.232-1.513 1.063-1.569.84-1.737.616-1.736.392-1.793.112h-1.793l-2.241-.224-2.186-.448-2.129-.672-2.073-.896-1.905-1.12-1.793-1.343-1.68-1.735-1.457-1.848-1.345-2.015-1.065-2.128-.84-2.239-.672-2.295-.393-2.351-.168-2.352v-3.19l.168-2.408.393-2.351.672-2.295.84-2.24 1.065-2.127 1.345-2.015 1.456-1.848 1.681-1.68 1.793-1.343 1.905-1.175 2.073-.896 2.13-.672 2.185-.448 2.24-.224h2.522l2.241.224 2.241.448 2.13.672 2.017.896 1.96 1.175 1.793 1.344 1.681 1.68 1.457 1.903 1.513 2.687-8.517 4.03-.784-1.567-1.064-1.344-1.233-1.231-1.4-1.008-1.29-.504-1.288-.392-1.345-.224-1.345-.111-1.4.111-1.401.224-1.345.448-1.288.56-1.177.728-1.065.896-.952 1.063-.785 1.12-.616 1.287-.504 1.288-.504 2.24-.337 2.35-.056 2.296.056 2.351.337 2.295.504 2.24.504 1.343.616 1.232.785 1.12.952 1.063 1.065.896 1.177.728 1.288.616 1.345.391 1.4.224 1.401.112 1.513-.112 1.513-.28 1.457-.503 1.4-.784 1.233-.952 1.065-1.12.896-1.287.616-1.68.393-1.68.056-1.79z"/><path style="fill:#fff;stroke:none;stroke-width:.671695;stroke-linecap:round;stroke-linejoin:round;stroke-miterlimit:10;stroke-dasharray:none;stroke-opacity:1" d="M505.103 188.81v-16.963h9.123v44.45h-9.123v-18.81h-17.965v18.81h-9.123v-44.45h9.123v16.963z"/><path style="fill:#fff;stroke:none;stroke-width:.672347;stroke-linecap:round;stroke-linejoin:round;stroke-miterlimit:10;stroke-dasharray:none;stroke-opacity:1" d="M559.081 207.609h-21.786v-9.753h18.202v-8.24h-18.202v-9.137h20.106v-8.632h-29.235v44.45h30.915z"/><path style="fill:#fff;stroke:none;stroke-width:.672494;stroke-linecap:round;stroke-linejoin:round;stroke-miterlimit:10;stroke-dasharray:none;stroke-opacity:1" d="M588.438 207.385h-7.732v-26.682h7.732l1.57.112 1.512.393 1.457.56 1.4.785 1.233.953 1.065 1.177.896 1.29.672 1.4.505 1.514.392 2.13.168 2.13v2.186l-.224 2.186-.448 2.13-.505 1.401-.728 1.402-.897 1.233-1.064 1.065-1.233.953-1.344.729-1.401.504-1.513.336zm-.112 8.912 2.073-.112 2.13-.336 2.017-.561 1.96-.785 1.905-.953 1.737-1.177 1.625-1.345 1.513-1.513 1.289-1.682 1.12-1.794.953-1.905.728-1.962.504-2.074.337-2.41.168-2.41v-2.411l-.168-2.466-.337-2.41-.504-2.019-.728-2.018-.953-1.905-1.12-1.794-1.289-1.626-1.513-1.513-1.625-1.401-1.737-1.121-1.905-1.01-1.96-.784-2.018-.505-2.129-.336-2.073-.112h-16.752v44.45z"/><path d="M628.66 171.847h11.818l14.841 44.45h-9.969l-2.408-7.847h-16.746l-2.408 7.847h-9.97zm5.881 9.305-5.937 19.45h11.93z" style="fill:#fff;stroke:none;stroke-width:.672354;stroke-linecap:round;stroke-linejoin:round;stroke-miterlimit:10;stroke-dasharray:none;stroke-opacity:1"/><path style="fill:#fff;stroke:none;stroke-width:.601496;stroke-linecap:round;stroke-linejoin:round;stroke-miterlimit:10;stroke-dasharray:none;stroke-opacity:1" d="M289.966 139.916h-6.186l7.15-26.681h6.186l1.225.112 1.105.392 1.015.56.91.785.731.953.537 1.177.371 1.29.163 1.4-.005 1.514-.258 2.13-.436 2.13-.586 2.186-.765 2.186-.93 2.13-.778 1.402-.958 1.401-1.048 1.233-1.137 1.065-1.242.953-1.27.729-1.256.504-1.3.337zm-2.478 8.912 1.688-.112 1.794-.336 1.764-.56 1.779-.786 1.78-.952 1.704-1.178 1.66-1.345 1.616-1.513 1.482-1.682 1.377-1.794 1.273-1.905 1.108-1.962.96-2.074.914-2.41.78-2.41.646-2.411.527-2.466.377-2.41.137-2.018-.042-2.018-.251-1.906-.416-1.794-.595-1.625-.805-1.514-.924-1.401-1.09-1.121-1.253-1.01-1.358-.784-1.479-.504-1.613-.337-1.628-.112h-13.403l-11.911 44.45z"/><path style="fill:#fff;stroke:none;stroke-width:.601524;stroke-linecap:round;stroke-linejoin:round;stroke-miterlimit:10;stroke-dasharray:none;stroke-opacity:1" d="M317.22 148.828h-6.943l8.509-31.75h6.943l-.842 3.141 1.137-1.065 1.18-.898 1.286-.785 1.3-.505 1.255-.337 1.24-.112h1.702l-2.21 8.246h-2.374l-1.016.112-1.075.337-1.046.56-1.047.73-.897.842-.868 1.065-.749 1.122-.6 1.234-.375 1.234z"/><path style="fill:#fff;stroke:none;stroke-width:.601568;stroke-linecap:round;stroke-linejoin:round;stroke-miterlimit:10;stroke-dasharray:none;stroke-opacity:1" d="m350.28 123.585.925.561.7.898.522 1.065.34 1.235.089 1.01-.062 1.065-.302 1.795-.421 1.739-.511 1.739-.66 1.795-.51 1.066-.629 1.01-1.003 1.234-1.092 1.065-1.18.898-1.211.505-1.09.224-.926-.224-.94-.505-.745-.898-.521-1.065-.297-1.235-.087-1.01.061-1.065.302-1.795.377-1.739.555-1.739.66-1.795.51-1.066.63-1.01.957-1.234 1.092-1.065 1.226-.898 1.226-.56 1.03-.17zm9.807 2.524v-.336l-.146-1.795-.34-1.74-.58-1.514-.744-1.402-.939-1.178-.984-.841-1.134-.618-1.208-.504-1.314-.28-1.359-.113-1.419.112-1.419.28-1.48.505-1.464.618-1.435.841-1.57 1.178-1.496 1.402-1.391 1.515-1.273 1.739-1.108 1.795-.18.336-1.05 2.244-.884 2.3-.706 2.3-.527 2.3-.347 2.3-.139 2.187-.015.393.146 1.795.355 1.683.565 1.57.744 1.403.939 1.178.999.785 1.119.674 1.208.504 1.27.28 1.358.113 1.419-.112 1.464-.28 1.48-.505 1.479-.674 1.42-.785 1.57-1.178 1.496-1.402 1.406-1.571 1.258-1.683 1.108-1.795.195-.393 1.034-2.187.885-2.3.661-2.3.572-2.3.347-2.3z"/><path d="M379.808 108.904a3.48 4.383 8.358 0 1-3.727 4.366 3.48 4.383 8.358 0 1-3.258-4.366 3.48 4.383 8.358 0 1 3.727-4.366 3.48 4.383 8.358 0 1 3.258 4.366z" style="fill:#fff;fill-rule:evenodd;stroke:none;stroke-width:.323884;stroke-linecap:round;stop-color:#000"/><path style="fill:#fff;stroke:none;stroke-width:.184979;stroke-linecap:round;stroke-linejoin:round;stroke-miterlimit:10;stroke-opacity:1" d="m371.146 117.078-6.972 26.029-.095.429-.084.553-.03.567.027.577.077.58.128.589.18.594.237.603.289.605.344.621h6.471l-.175-.303-.263-.524-.223-.536-.182-.562-.146-.582-.108-.601-.068-.62-.027-.639.007-.666.049-.685 6.972-26.03zm0 0"/><path d="m394.003 136.733 5.637 3.024-.224.336-1.122 1.848-1.257 1.68-1.345 1.511-1.494 1.4-1.57 1.176-1.478.84-1.419.616-1.478.504-1.463.28-1.418.112-1.358-.112-1.268-.28-1.208-.504-1.134-.616-.984-.84-.938-1.176-.744-1.4-.58-1.512-.356-1.68-.132-1.847v-.336l.153-2.24.346-2.296.526-2.296.705-2.296.869-2.24 1.048-2.24.194-.391 1.107-1.792 1.257-1.68 1.405-1.568 1.48-1.344 1.583-1.232 1.419-.784 1.479-.672 1.463-.448 1.433-.336 1.418-.112 1.358.112 1.298.336 1.223.448 1.074.672 1.043.784.924 1.232.76 1.344.52 1.568.355 1.68.147 1.792.029.392-7.243 2.967-.057-1.791-.341-1.232-.521-1.064-.715-.84-.925-.56-.985-.168-1.03.168-1.27.56-1.164.84-1.091 1.064-.957 1.232-.644 1.063-.554 1.064-.6 1.736-.554 1.736-.39 1.792-.331 1.736-.017 1.064.088 1.008.297 1.232.506 1.12.715.84.97.56.94.168 1.074-.168 1.225-.56 1.165-.84 1.106-1.12 1.002-1.232z" style="fill:#fff;stroke:none;stroke-width:.600861;stroke-linecap:round;stroke-linejoin:round;stroke-miterlimit:10;stroke-dasharray:none;stroke-opacity:1"/><path style="fill:#fff;stroke:none;stroke-width:.601266;stroke-linecap:round;stroke-linejoin:round;stroke-miterlimit:10;stroke-dasharray:none;stroke-opacity:1" d="M425.37 148.828h-6.952l5.071-18.922.255-1.12.076-1.12-.089-1.007-.283-.952-.477-.727-.807-.504-.972-.224-1.046.056-1.062.28-1.106.448-.988.671-.942.84-.808 1.008-.644 1.063-.39 1.12-5.116 19.09h-6.95l11.911-44.45h6.951l-4.005 14.947 1.301-1.007 1.286-.784 1.376-.616 1.376-.448 1.3-.168h1.301l1.39.336 1.15.56 1.046.784.866.952.732 1.12.552 1.287.372 1.455.133 1.68-.062 1.735-.255 1.792-.406 1.847z"/><path style="fill:#fff;stroke:none;stroke-width:.600873;stroke-linecap:round;stroke-linejoin:round;stroke-miterlimit:10;stroke-dasharray:none;stroke-opacity:1" d="M443 129.341H453.3l.165-1.12-.028-1.063-.192-.952-.357-.84-.522-.728-.61-.56-.747-.392-.835-.224h-.896l-.955.224-.956.392-.911.56-.912.728-.807.84-.703.952-.598 1.063zm-1.936 7.56-.076 1.12.133 1.008.297.896.461.784.596.616.985.504 1.089.28 1.15.055 1.193-.112 1.27-.392 1.388-.672 1.36-.895 1.285-1.12 2.843 5.431-1.226 1.232-1.285 1.12-1.33.952-1.359.728-1.404.56-1.732.448-1.716.224-1.672.056-1.612-.168-1.507-.392-1.133-.448-1.044-.616-.894-.84-.775-.952-.685-1.12-.476-1.232-.4-1.344-.193-1.455-.087-2.016.063-2.072.257-2.128.45-2.184.676-2.184.839-2.128 1.018-2.127 1.167-2.016 1.196-1.624 1.345-1.512 1.48-1.344 1.51-1.12 1.344-.84 1.404-.728 1.388-.504 1.374-.28 1.328-.112 1.284.056 1.223.28 1.179.448 1.044.616.894.84.879 1.064.744 1.232.506 1.456.356 1.512.132 1.68-.049 2.52-.242 2.575-.482 2.632-.615 2.632h-16.926z"/><path style="fill:#fff;stroke:none;stroke-width:2.35538;stroke-linecap:round;stroke-linejoin:round;stroke-miterlimit:10;stroke-opacity:1" d="m477.436 116.51-1.318.146-1.303.34-1.298.548-1.28.767-1.264.979-1.248 1.197-.346.373-1.066 1.283-1 1.354-.904 1.442-.81 1.531-.714 1.604-.63 1.71-.053.142-.486 1.656-.416 1.621-.313 1.62-.232 1.622-.14 1.587-.037.946.043 1.585.178 1.48.312 1.35.43 1.231.569 1.103.434.677.792.91.933.728 1.037.537 1.166.34 1.276.14.627.017 1.301-.086 1.337-.231 1.386-.338 1.422-.464.571.249.959.462.146.16h4.506l-.015-1.07.063-1.71.19-1.192.752-2.813.747-2.763.71-2.603.657-2.44.606-2.278.57-2.123.534-1.96.482-1.814.444-1.64.392-1.478.357-1.337.305-1.16.267-1.011.23-.842.182-.693.128-.533.088-.372h-5.201l-.375 1.44-.213-.249-.714-.52-.961-.44-1.194-.321-1.455-.25-1.689-.124zm-.182 7.626.624.056 1.118.39 1.044.747.35.394.625 1.141.17 1.333-.006.075-.17 1.834-.276 1.69-.368 1.532-.485 1.372-.406.927-.896 1.784-.871 1.406-.856 1.05-.506.43-1.161.657-1.346.394-1.545.103-.861-.142-.917-.497-.636-.892-.344-1.264-.04-1.658.028-.536.189-1.672.325-1.514.103-.322.542-1.62.696-1.584.856-1.553.125-.214 1.011-1.334 1.25-1.23 1.362-.961z"/><path style="fill:#fff;stroke:none;stroke-width:.60082;stroke-linecap:round;stroke-linejoin:round;stroke-miterlimit:10;stroke-dasharray:none;stroke-opacity:1" d="m510.269 129.234-1.83 6.83-.315.84-.404.84-.509.727-.598.728-.971.952-1.016.784-1.046.56-1.09.391-1.075.168-1-.112-.91-.28-.701-.392-.611-.56-.432-.727-.312-.84-.148-.952.004-1.68.256-1.79.33-1.736.57-1.791.69-1.736.867-1.735.703-1.12.673-.84.822-.727 1.046-.728 1.075-.504 1.12-.336 1.045-.056.985.168.925.392.73.616.641.784.357.84.208.895.044 1.008zm-5.25 19.594h6.94l11.912-44.45h-6.941l-3.81 14.22-.91-.952-.999-.784-1.148-.56-1.194-.391-1.343-.168-1.359.055-1.403.224-1.463.448-1.42.616-1.433.84-1.375.951-1.3 1.176-.418.392-1.107 1.288-1.002 1.4-.194.391-1.242 2.127-1.048 2.24-.928 2.295-.75 2.295-.525 2.295-.392 2.296-.152 2.239-.005 2.183.222 1.68.4 1.511.61 1.4.805 1.176.999.951 1.283.728 1.432.504 1.507.224h1.567l1.643-.28 1.657-.504 1.21-.504 1.15-.784 1.106-.951z"/><path d="m565.648 102.867-.89.03-.883.084-.87.133-.872.186-.868.246-.862.298-.848.35-.853.41-.838.462-.841.513-.826.565-.832.626-.817.68-.206.184-.796.729-.772.759-.741.792-.708.812-.687.851-.647.873-.623.895-.593.933-.567.955-.531.987-.506 1.016-.474 1.037-.444 1.068-.2.514-.442 1.191-.407 1.14-.361 1.08-.326 1.005-.281.956-.133.503-.271 1.059-.237 1.046-.193 1.028-.17 1.017-.128 1.006-.094.984-.061.987-.027.955.006.957.049.934.073.925.108.914.149.892.182.885.218.86.25.864.282.842.317.822.351.82.394.803.112.206.442.78.489.698.524.627.556.543.598.484.627.402.56.275.58.215.664.175.75.134.85.104.931.06 1.019.03h.221l.782-.03.836-.112.897-.176.957-.246.25-.071 3.733-1.109.404.75.015.04.439.71.008.01h6.285l-.13-.944-.03-.966.07-1.007.163-1.048.204-.882 10.61-39.603h-5.201l-.66.646-.38.381-.723-.462-.726-.41-.736-.37-.738-.33-.742-.278-.752-.225-.755-.186-.765-.133-.766-.091-.77-.053zm-1.764 7.775.784.084.745.184.708.278.678.389.64.493.5.482.529.7.42.76.302.801.183.852.076.903-.006.585-.066.915-.1.945-.126.966-.16.996-.185 1.016-.23 1.048-.246 1.069-.281 1.098-.315 1.13-.348 1.15-.377 1.172-.106.328-.468 1.355-.496 1.274-.5 1.202-.52 1.108-.538 1.028-.552.944-.564.864-.585.78-.595.688-.617.615-.627.525-.649.452-.66.359-.673.287-.693.196-.712.112-.634.031-.697-.04-.74-.133-.802-.227-.853-.318-.186-.072-.656-.318-.597-.38-.527-.431-.465-.503-.397-.565-.336-.627-.277-.678-.207-.75-.144-.81-.085-.865-.016-.934.045-.985.113-1.058.176-1.109.243-1.172.296-1.243.031-.112.355-1.233.367-1.191.398-1.15.43-1.109.443-1.08.475-1.025.496-.987.52-.944.549-.905.572-.862.602-.812.617-.78.647-.74.672-.698.475-.452.957-.832.914-.676.869-.556.835-.4.795-.268.755-.124z" style="fill:#fff;fill-opacity:1;fill-rule:evenodd;stroke:none;stroke-width:.172392"/><path style="fill:#fff;stroke:none;stroke-width:.601194;stroke-linecap:round;stroke-linejoin:round;stroke-miterlimit:10;stroke-dasharray:none;stroke-opacity:1" d="m593.009 148.391-2.063.672-2.047.448-1.988.224-1.987.056-1.867-.224-.882-.224-.806-.504-.627-.672-.492-.84-.327-.952-.104-1.12.047-1.175.24-1.232 5.042-18.815h-4.079l1.936-7.224h4.08l2.655-9.911 7.623-2.52-3.331 12.431h6.454l-1.935 7.224h-6.455l-4.142 15.455-.135.672.059.616.179.504.343.392.418.28.478.056 1.375-.112 1.375-.28 1.375-.448z"/><path style="fill:#fff;stroke:none;stroke-width:.601266;stroke-linecap:round;stroke-linejoin:round;stroke-miterlimit:10;stroke-dasharray:none;stroke-opacity:1" d="M620.695 148.828h-6.95l5.07-18.922.255-1.12.076-1.12-.089-1.007-.283-.952-.477-.727-.807-.504-.972-.224-1.046.056-1.062.28-1.106.448-.988.671-.942.84-.808 1.008-.644 1.063-.39 1.12-5.116 19.09h-6.95l11.911-44.45h6.951l-4.005 14.947 1.301-1.007 1.286-.784 1.376-.616 1.376-.448 1.3-.168h1.301l1.39.336 1.15.56 1.046.784.866.952.732 1.12.552 1.287.372 1.455.133 1.68-.062 1.735-.256 1.792-.405 1.847z"/><path style="fill:#fff;stroke:none;stroke-width:2.35538;stroke-linecap:round;stroke-linejoin:round;stroke-miterlimit:10;stroke-opacity:1" d="m644.822 116.51-1.318.146-1.303.34-1.298.548-1.28.767-1.264.979-1.248 1.197-.346.373-1.066 1.283-1 1.354-.904 1.442-.81 1.531-.714 1.604-.63 1.71-.053.142-.486 1.656-.416 1.621-.313 1.62-.232 1.622-.14 1.587-.037.946.042 1.585.178 1.48.312 1.35.431 1.231.569 1.103.434.677.792.91.932.728 1.038.537 1.165.34 1.277.14.626.016 1.302-.085 1.337-.231 1.386-.338 1.422-.464.57.249.96.462.146.16h4.505l-.015-1.07.063-1.71.192-1.193.751-2.812.746-2.763.71-2.603.658-2.44.606-2.278.57-2.123.534-1.96.482-1.814.444-1.64.392-1.478.357-1.337.305-1.16.267-1.011.23-.842.182-.693.128-.533.088-.372h-5.202l-.374 1.44-.213-.249-.714-.52-.962-.44-1.193-.321-1.455-.25-1.689-.124zm-.182 7.626.624.056 1.118.39 1.044.747.35.394.625 1.141.17 1.333-.006.075-.17 1.834-.276 1.69-.368 1.532-.485 1.372-.406.927-.896 1.784-.871 1.406-.856 1.05-.506.43-1.161.657-1.346.394-1.545.103-.861-.142-.917-.497-.636-.892-.344-1.264-.04-1.658.028-.536.19-1.672.324-1.514.104-.322.542-1.62.696-1.584.855-1.553.126-.214 1.01-1.334 1.25-1.23 1.363-.961z"/><path d="m303.851-51.914-1.11.031-1.098.083-1.079.133-1.078.186-1.068.247-1.058.298-1.037.349-1.038.41-1.017.463-1.017.512-.995.565-.997.626-.976.68-.246.184-.946.729-.913.76-.874.792-.83.811-.802.852-.75.873-.718.894-.679.934-.645.954-.598.988-.565 1.015-.522 1.037-.483 1.069-.217.513-.472 1.191-.432 1.14-.38 1.08-.339 1.005-.287.957-.133.502-.268 1.059-.225 1.046-.173 1.028-.145 1.017-.092 1.006-.052.984-.01.988.03.954.071.957.123.934.155.925.195.914.246.892.288.885.33.861.369.863.41.843.452.821.493.82.546.803.154.206.605.78.657.699.698.626.731.543.78.484.811.402.72.275.738.216.842.175.945.133 1.07.104 1.169.06 1.275.03h.277l.975-.03 1.037-.112 1.11-.176 1.18-.246.308-.07 4.591-1.11.555.75.021.04.596.71.01.01h7.857l-.226-.944-.102-.966.02-1.006.134-1.049.195-.882 10.608-39.603h-6.501l-.78.646-.452.382-.934-.463-.935-.41-.944-.37-.945-.33-.946-.278-.955-.225-.956-.185-.965-.133-.964-.092-.966-.053zm-1.684 7.775.985.084.944.184.904.278.873.39.833.492.657.483.709.7.575.759.432.802.287.851.154.904.03.584-.02.915-.062.945-.092.966-.134.996-.163 1.017-.216 1.047-.237 1.07-.278 1.097-.318 1.13-.358 1.15-.392 1.172-.111.328-.494 1.355-.534 1.274-.545 1.202-.575 1.109-.604 1.027-.627.944-.648.864-.678.78-.698.689-.73.614-.748.525-.78.452-.803.359-.82.288-.854.196-.883.111-.79.031-.874-.04-.934-.133-1.018-.227-1.087-.318-.238-.072-.841-.318-.772-.38-.688-.431-.615-.503-.534-.565-.461-.626-.392-.679-.309-.75-.235-.81-.164-.865-.083-.934-.009-.985.071-1.058.146-1.109.225-1.172.287-1.243.03-.112.361-1.233.38-1.191.42-1.15.463-1.109.481-1.08.525-1.025.555-.987.585-.944.627-.905.657-.862.698-.812.72-.78.759-.74.792-.698.564-.452 1.14-.832 1.098-.676 1.048-.556 1.017-.4.976-.268.935-.124z" style="fill:#fff;fill-opacity:1;fill-rule:evenodd;stroke:none;stroke-width:.192741"/><path style="fill:#fff;stroke:none;stroke-width:.672156;stroke-linecap:round;stroke-linejoin:round;stroke-miterlimit:10;stroke-dasharray:none;stroke-opacity:1" d="m341.103-6.39-2.533.673-2.53.448-2.469.224-2.48.056-2.35-.224-1.116-.224-1.041-.504-.829-.672-.671-.84-.473-.952-.205-1.12-.021-1.176.218-1.232 5.041-18.815h-5.098l1.935-7.223h5.099l2.656-9.912 9.36-2.52-3.332 12.432h8.069l-1.936 7.223h-8.068l-4.141 15.455-.124.672.115.616.257.504.455.392.542.28.601.056 1.71-.112 1.7-.28 1.69-.448z"/><path style="fill:#fff;stroke:none;stroke-width:.672235;stroke-linecap:round;stroke-linejoin:round;stroke-miterlimit:10;stroke-dasharray:none;stroke-opacity:1" d="M375.74-5.953h-8.688l5.07-18.922.244-1.12.02-1.119-.179-1.008-.418-.951-.645-.728-1.043-.504-1.229-.224-1.304.056-1.308.28-1.354.448-1.189.672-1.122.84-.942 1.007-.734 1.064-.412 1.12-5.115 19.09h-8.689l11.91-44.45h8.69l-4.006 14.947 1.56-1.008 1.555-.784 1.678-.616 1.69-.448 1.615-.167h1.625l1.76.335 1.476.56 1.36.784 1.146.952.99 1.12.775 1.287.563 1.456.279 1.679.04 1.735-.2 1.792-.383 1.847z"/><path d="m451.712-18.845-1.325 2.018-1.463 1.906-1.616 1.85-1.936 1.793-2.075 1.682-2.153 1.345-2.26 1.121-2.272.953-2.309.673-2.36.448-2.286.168h-2.52l-2.195-.168-2.064-.448-1.948-.673-1.817-.953-1.604-1.12-1.432-1.346-1.214-1.738-1.017-1.85-.748-2.017-.493-2.13-.24-2.243-.055-2.298.238-2.354.463-2.354.856-3.195.814-2.41 1.023-2.355 1.288-2.298 1.426-2.186 1.635-2.13 1.828-2.018 2.023-1.906 2.131-1.681 2.153-1.345 2.22-1.178 2.312-.896 2.309-.673 2.304-.449 2.285-.168h2.52l2.196.168 2.12.449 1.948.673 1.776.896 1.645 1.178 1.432 1.345 1.23 1.681.945 1.906.832 2.747.451 2.914-10.034 3.588.013-1.514-.154-1.513-.424-1.345-.663-1.29-.89-1.064-1.048-.897-1.138-.56-1.183-.393-1.284-.224-1.315-.112-1.43.112-1.46.224-1.464.448-1.439.56-1.371.73-1.32.952-1.222 1.01-1.1 1.176-1.002 1.234-.794 1.289-1.175 2.298-.896 2.298-.672 2.298-.575 2.355-.336 2.298-.04 2.242.087 1.345.342 1.233.469 1.177.681 1.01.824.896.966.785 1.138.56 1.24.393 1.324.28 1.385.056 1.543-.112 1.587-.28 1.591-.505 1.484-.728 1.472-.897 1.294-1.065 1.211-1.177 1.074-1.29.88-1.4.726-1.458z" style="fill:#fff;stroke:none;stroke-width:.672361;stroke-linecap:round;stroke-linejoin:round;stroke-miterlimit:10;stroke-dasharray:none;stroke-opacity:1"/><path style="fill:#fff;stroke:none;stroke-width:.671807;stroke-linecap:round;stroke-linejoin:round;stroke-miterlimit:10;stroke-dasharray:none;stroke-opacity:1" d="M467.915-50.403h8.66l-9.394 35.06-.054.616.144.505.327.449.428.28.6.057 1.69-.057 1.737-.224-1.095 7.629-2.817.505-2.772.336-2.798.225-1.143-.112-1.027-.337-.997-.449-.77-.673-.613-.841-.4-1.01-.217-1.066-.034-1.122.204-1.178z"/><path style="fill:#fff;stroke:none;stroke-width:2.63338;stroke-linecap:round;stroke-linejoin:round;stroke-miterlimit:10;stroke-opacity:1" d="m512.953-38.27-1.638.145-1.605.34-1.587.548-1.548.767-1.514.98-1.48 1.196-.407.373-1.248 1.283-1.158 1.354-1.033 1.442-.91 1.531-.786 1.604-.672 1.71-.057.143-.497 1.655-.41 1.622-.284 1.62-.18 1.621-.07 1.587.017.946.16 1.586.322 1.48.48 1.35.621 1.23.785 1.103.588.677 1.05.91 1.215.728 1.333.537 1.48.34 1.605.14.784.017 1.622-.086 1.655-.23 1.71-.339 1.746-.464.73.25 1.23.462.193.16h5.632l-.09-1.07-.035-1.71.159-1.193.75-2.813.748-2.763.713-2.603.659-2.44.605-2.278.57-2.123.536-1.96.48-1.814.446-1.64.39-1.478.358-1.337.303-1.16.266-1.011.232-.841.18-.694.124-.533.085-.372h-6.501l-.372 1.44-.283-.249-.927-.52-1.232-.44-1.513-.321-1.835-.25-2.12-.124zm.283 7.626.784.055 1.424.39 1.355.748.463.394.858 1.14.302 1.334v.074l-.09 1.834-.232 1.69-.357 1.532-.514 1.372-.446.927-1 1.784-.995 1.407-1 1.05-.604.43-1.407.656-1.655.394-1.925.103-1.086-.142-1.18-.497-.854-.892-.514-1.264-.163-1.658v-.536l.125-1.671.304-1.515.108-.322.569-1.62.764-1.583.965-1.553.142-.215 1.175-1.333 1.48-1.231 1.638-.96z"/><path style="fill:#fff;stroke:none;stroke-width:.672156;stroke-linecap:round;stroke-linejoin:round;stroke-miterlimit:10;stroke-dasharray:none;stroke-opacity:1" d="m550.018-6.39-2.533.673-2.53.448-2.468.223-2.48.056-2.35-.223-1.117-.225-1.041-.503-.829-.672-.671-.84-.473-.952-.205-1.12-.02-1.176.217-1.232 5.042-18.815h-5.1l1.936-7.223h5.1l2.655-9.912 9.36-2.52-3.331 12.432h8.068l-1.936 7.223h-8.068l-4.141 15.455-.124.672.115.616.257.504.456.392.54.28.602.056 1.711-.112 1.7-.28 1.689-.448z"/><path style="fill:#fff;stroke:none;stroke-width:.672235;stroke-linecap:round;stroke-linejoin:round;stroke-miterlimit:10;stroke-dasharray:none;stroke-opacity:1" d="M584.656-5.953h-8.689l5.07-18.922.244-1.12.02-1.119-.178-1.008-.418-.951-.646-.728-1.042-.504-1.23-.224-1.304.056-1.308.28-1.353.448-1.19.672-1.121.84-.943 1.007-.733 1.064-.413 1.12-5.115 19.09h-8.689l11.91-44.45h8.69l-4.006 14.947 1.56-1.008 1.555-.784 1.679-.616 1.69-.448 1.614-.167h1.626l1.76.335 1.475.56 1.36.784 1.146.952.99 1.12.776 1.287.563 1.456.278 1.679.04 1.735-.2 1.792-.383 1.847z"/><g style="fill:#fff;stroke:none"><path d="M1123.055 286.774a13.752 13.752 0 0 1-13.752 13.752 13.752 13.752 0 0 1-13.752-13.752 13.752 13.752 0 0 1 13.752-13.752 13.752 13.752 0 0 1 13.752 13.752z" style="fill:#fff;fill-rule:evenodd;stroke:none;stroke-width:1.14052;stroke-linecap:round;stop-color:#000" transform="matrix(.3175 0 0 .3175 140.519 -136.928)"/><path style="fill:#fff;stroke:none;stroke-width:.651374;stroke-linecap:round;stroke-linejoin:round;stroke-miterlimit:10;stroke-opacity:1" d="m1090.675 312.518-21.954 81.981-.283 1.351-.211 1.742v1.788l.229 1.817.423 1.828.63 1.853.836 1.87 1.057 1.9 1.265 1.906 1.487 1.957h25.477l-.753-.957-1.147-1.649-.992-1.688-.835-1.77-.696-1.835-.552-1.892-.401-1.953-.24-2.01-.111-2.1.047-2.158 21.953-81.98zm0 0" transform="matrix(.3175 0 0 .3175 140.519 -136.928)"/></g><path d="m557.003 97.05.301 1.746 15.686-4.765-.654-3.73zm0 0" style="fill:#fff;stroke:none;stroke-width:.122399;stroke-linecap:round;stroke-linejoin:round;stroke-miterlimit:10;stroke-opacity:1"/><path style="fill:#ffc90e;fill-opacity:1;stroke:none;stroke-width:.9601;stroke-linecap:round;stroke-linejoin:round;stroke-miterlimit:10;stroke-dasharray:none;stroke-opacity:1" d="M782.52 82.07h-10.565V71.192l5.202-.48 1.601-.4 1.441-.72 1.28-1.04.881-1.359.64-1.44 1.041-4.238h11.526v63.5H782.52z"/><path style="fill:#ffc90e;fill-opacity:1;stroke:none;stroke-width:.895029;stroke-linecap:round;stroke-linejoin:round;stroke-miterlimit:10;stroke-dasharray:none;stroke-opacity:1" d="M714.128 61.516h-12.869v63.5h11.269V82.069l24.694 42.947h12.938v-63.5h-11.338v42.946z"/><path d="m292.655-57.731.493 1.746 19.288-4.765-1.068-3.73zm0 0" style="fill:#fff;stroke:none;stroke-width:.136846;stroke-linecap:round;stroke-linejoin:round;stroke-miterlimit:10;stroke-opacity:1"/><path style="fill:#fff;fill-rule:evenodd;stroke-width:.396874;stroke-linecap:round;stop-color:#000" d="M244.595 263.922h7.938v63.5h-7.938zM244.595 73.422h7.938v63.5h-7.938zM244.595 168.672h7.938v63.5h-7.938zM244.595-21.828h7.938v63.5h-7.938z"/><path style="fill:#fff;fill-opacity:1;fill-rule:evenodd;stroke:none;stroke-width:1.05545;stroke-linecap:round;stroke-linejoin:round;stroke-miterlimit:10;stroke-opacity:1" d="m39.867 316.998 50.296 87.115-18.394 10.62-50.296-87.115-7.633 28.865-15.815-27.393L9.5 285.706l43.48 11.656 15.815 27.392zm0 0"/><path style="fill:#fff;fill-rule:evenodd;stroke-width:.396874;stroke-linecap:round;stop-color:#000" d="M244.595 359.172h7.938v63.5h-7.938zM276.345 252.016v-7.938h529.507v7.938z"/><path style="fill:#fff;fill-rule:evenodd;stroke-width:.264583;stroke-linecap:round;stop-color:#000" d="M91.033 154.697h5.292v42.334h-5.292zM91.033 218.197h5.292v42.334h-5.292z" transform="matrix(1.5 0 0 1.5 400.58 31.876)"/><path style="fill:#fff;fill-opacity:1;fill-rule:evenodd;stroke:none;stroke-width:1.05545;stroke-linecap:round;stroke-linejoin:round;stroke-miterlimit:10;stroke-opacity:1" d="M417.292 314.142v100.592h-21.24V314.142l-21.043 21.182v-31.63l31.63-31.835 31.827 31.834v31.63zM686.014 314.142v100.592h-21.24V314.142l-21.043 21.182v-31.63l31.63-31.835 31.828 31.834v31.63zm0 0"/></g></svg>