<svg width="4285.642" height="2575.594" viewBox="0 0 1133.909 681.459" xmlns="http://www.w3.org/2000/svg"><g transform="translate(111.183 137.866)"><rect style="fill:#000;fill-opacity:1;stroke-width:7.9375" width="1133.38" height="681.195" x="-110.918" y="-137.734" rx="15.875"/><rect style="fill:#fff;fill-opacity:1;stroke-width:7.9375" width="1109.568" height="657.382" x="-99.012" y="-125.828" rx="31.75"/><path style="fill:#115ec6;stroke-width:3.81367" d="M-67.262 87.054a7.92 7.92 0 0 0-7.938 7.938v412.75a7.92 7.92 0 0 0 7.938 7.937h419.314a7.92 7.92 0 0 0 7.938-7.937V214.054a7.92 7.92 0 0 0-7.938-7.937h-31.034a7.937 7.937 0 0 1-.001 0 7.937 7.937 0 0 1-7.937-7.938 7.937 7.937 0 0 1 0-.01V94.991a7.92 7.92 0 0 0-7.937-7.938z"/><path style="display:inline;fill:#fff;stroke:none;stroke-width:.601872;stroke-linecap:round;stroke-linejoin:round;stroke-miterlimit:10;stroke-dasharray:none;stroke-opacity:1" d="m315.262 404.468-.33 1.122-4.088 19.072h-6.951l6.805-31.75h6.951l-.48 2.245 1.247-1.01 1.302-.842 1.298-.617 1.34-.392 1.304-.225 1.288.056 1.408.337 1.18.56 1.088.786.916.954.791 1.122.62 1.29.45 1.458.223 1.683.03 1.74-.16 1.794-.307 1.851-4.064 18.96h-6.951l4.052-18.904.196-1.121.06-1.122-.174-1.066-.346-.898-.517-.729-.833-.505-.983-.224-1.044.056-1.035.224-1.094.505-.952.673-.898.842-.754 1.01zM285.036 404.468l-.33 1.122-4.088 19.072h-6.952l6.806-31.75h6.951l-.48 2.245 1.247-1.01 1.302-.842 1.298-.617 1.34-.392 1.304-.225 1.288.056 1.408.337 1.18.56 1.088.786.916.954.791 1.122.62 1.29.45 1.458.223 1.683.03 1.74-.16 1.794-.307 1.851-4.064 18.96h-6.951l4.052-18.904.196-1.121.06-1.122-.174-1.066-.346-.898-.516-.729-.834-.505-.983-.224-1.044.056-1.035.224-1.094.505-.952.673-.898.842-.754 1.01zM135.176 404.468l-.33 1.122-4.088 19.072h-6.951l6.805-31.75h6.951l-.48 2.245 1.247-1.01 1.302-.842 1.298-.617 1.34-.392 1.304-.225 1.288.056 1.408.337 1.18.56 1.088.786.916.954.791 1.122.62 1.29.45 1.458.223 1.683.03 1.74-.16 1.794-.307 1.851-4.064 18.96h-6.951l4.052-18.904.196-1.121.06-1.122-.174-1.066-.346-.898-.516-.729-.834-.505-.983-.224-1.044.056-1.034.224-1.095.505-.952.673-.898.842-.754 1.01zM57.706 404.468l-.33 1.122-4.088 19.072h-6.952l6.806-31.75h6.951l-.48 2.245 1.247-1.01 1.302-.842 1.298-.617 1.34-.392 1.304-.225 1.288.056 1.408.337 1.18.56 1.088.786.916.954.791 1.122.62 1.29.45 1.458.223 1.683.03 1.74-.16 1.794-.307 1.851-4.064 18.96h-6.951l4.052-18.903.196-1.122.061-1.122-.175-1.066-.346-.898-.516-.729-.834-.505-.983-.224-1.044.056-1.034.224-1.095.505-.952.673-.898.842-.754 1.01z"/><path style="display:inline;fill:#fff;stroke:none;stroke-width:.600882;stroke-linecap:round;stroke-linejoin:round;stroke-miterlimit:10;stroke-dasharray:none;stroke-opacity:1" d="M224.84 380.212h6.928l-7.516 35.06-.043.617.115.505.262.448.342.28.48.057 1.353-.056 1.389-.224-.876 7.628-2.254.505-2.217.337-2.239.224-.914-.112-.822-.337-.798-.448-.615-.673-.49-.842-.32-1.01-.174-1.065-.028-1.122.163-1.178z"/><path style="display:inline;fill:#fff;stroke:none;stroke-width:2.35537;stroke-linecap:round;stroke-linejoin:round;stroke-miterlimit:10;stroke-opacity:1" d="m246.9 392.345-1.31.145-1.285.34-1.269.549-1.238.767-1.212.979-1.183 1.196-.326.374-.998 1.283-.927 1.353-.826 1.443-.728 1.531-.629 1.603-.537 1.711-.046.142-.398 1.656-.328 1.621-.227 1.62-.145 1.622-.055 1.587.013.945.128 1.586.257 1.48.385 1.35.497 1.231.627 1.103.47.676.841.91.972.729 1.067.536 1.183.34 1.284.141.628.017 1.297-.086 1.324-.23 1.368-.339 1.397-.463.585.248.983.463.155.16h4.505l-.072-1.07-.029-1.71.128-1.193.6-2.813.598-2.763.57-2.603.528-2.44.483-2.278.456-2.123.43-1.96.384-1.814.356-1.639.313-1.479.286-1.337.242-1.16.213-1.011.185-.841.145-.694.1-.533.068-.372h-5.202l-.297 1.44-.227-.248-.741-.52-.986-.44-1.21-.322-1.468-.25-1.696-.124zm.227 7.626.627.055 1.14.391 1.083.747.37.394.687 1.14.241 1.334v.074l-.072 1.835-.185 1.69-.285 1.531-.412 1.372-.356.927-.8 1.784-.797 1.407-.799 1.05-.483.43-1.126.656-1.325.395-1.54.103-.868-.142-.943-.498-.684-.891-.411-1.264-.13-1.658v-.536l.099-1.672.244-1.515.086-.321.455-1.62.611-1.584.773-1.553.114-.214.939-1.334 1.184-1.23 1.31-.961zM91.96 392.345l-1.31.145-1.285.34-1.269.549-1.238.767-1.212.979-1.184 1.196-.325.374-.998 1.283-.927 1.353-.826 1.443-.728 1.531-.629 1.603-.537 1.711-.046.142-.398 1.656-.328 1.621-.227 1.62-.145 1.622-.055 1.587.013.945.128 1.586.257 1.48.385 1.35.497 1.231.627 1.103.47.676.841.91.972.729 1.067.536 1.183.34 1.284.141.628.017 1.297-.086 1.324-.23 1.368-.339 1.397-.463.585.248.983.463.154.16h4.506l-.072-1.07-.029-1.71.128-1.193.6-2.813.598-2.763.57-2.603.527-2.44.484-2.278.456-2.123.43-1.96.384-1.814.356-1.639.313-1.479.286-1.337.242-1.16.213-1.011.185-.841.145-.694.098-.533.068-.372H99.04l-.298 1.44-.226-.248-.742-.52-.985-.44-1.21-.322-1.469-.25-1.695-.124zm.227 7.626.627.055 1.14.391 1.083.747.37.394.687 1.14.241 1.334v.074l-.072 1.835-.185 1.69-.285 1.531-.412 1.372-.356.927-.8 1.784-.797 1.407-.799 1.05-.483.43-1.126.656-1.325.395-1.54.103-.868-.142-.943-.498-.684-.891-.412-1.264-.13-1.658v-.536l.1-1.672.244-1.515.086-.321.455-1.62.612-1.584.772-1.553.114-.214.939-1.334 1.184-1.23 1.31-.961z"/><path d="M276.373 384.738a3.493 4.366 0 0 1-3.493 4.367 3.493 4.366 0 0 1-3.493-4.367 3.493 4.366 0 0 1 3.493-4.366 3.493 4.366 0 0 1 3.493 4.366z" style="display:inline;fill:#fff;fill-rule:evenodd;stroke:none;stroke-width:.323886;stroke-linecap:round;stop-color:#000"/><path style="display:inline;fill:#fff;stroke:none;stroke-width:.184977;stroke-linecap:round;stroke-linejoin:round;stroke-miterlimit:10;stroke-opacity:1" d="m268.148 392.912-5.576 26.03-.072.428-.054.553v.568l.059.577.108.58.16.588.212.594.269.603.32.606.379.62h6.47l-.19-.303-.292-.523-.252-.536-.212-.562-.176-.583-.14-.6-.103-.62-.06-.64-.03-.666.012-.685 5.577-26.029zm0 0"/><path style="display:inline;fill:#fff;stroke:none;stroke-width:.60152;stroke-linecap:round;stroke-linejoin:round;stroke-miterlimit:10;stroke-dasharray:none;stroke-opacity:1" d="M200.94 424.662h-6.944l6.806-31.75h6.943l-.673 3.142 1.08-1.066 1.133-.897 1.243-.786 1.273-.504 1.237-.337 1.233-.112h1.702l-1.767 8.246h-2.374l-1.01.112-1.058.336-1.016.561-1.007.73-.852.841-.811 1.066-.689 1.122-.533 1.234-.31 1.234z"/><path style="display:inline;fill:#fff;stroke:none;stroke-width:.601385;stroke-linecap:round;stroke-linejoin:round;stroke-miterlimit:10;stroke-dasharray:none;stroke-opacity:1" d="m188.026 409.36-.714 2.074-.868 1.962-1.08 1.906-1.147 1.794-1.346 1.681-1.412 1.57-1.555 1.401-1.597 1.177-1.65 1.01-1.691.784-1.734.56-1.685.337-1.682.112-1.633-.112-1.541-.337-1.448-.56-1.4-.785-1.218-1.009-1.092-1.177-.91-1.401-.783-1.57-.58-1.681-.422-1.794-.22-1.906-.027-1.962.131-2.074.355-2.074 5.803-27.073h7.304l-5.804 27.073-.234 1.514-.031 1.401.16 1.345.362 1.234.522 1.12.647.954.862.784.955.56 1.048.337 1.141.112 1.19-.112 1.236-.336 1.196-.56 1.154-.785 1.1-.953 1.002-1.121.847-1.234.736-1.345.57-1.401.414-1.514 5.803-27.073h7.304l-5.804 27.073z"/><path style="display:inline;fill:#fff;stroke:none;stroke-width:.601265;stroke-linecap:round;stroke-linejoin:round;stroke-miterlimit:10;stroke-dasharray:none;stroke-opacity:1" d="M20.29 424.663h-6.95l4.055-18.922.196-1.12.015-1.12-.143-1.007-.334-.952-.516-.728-.834-.504-.983-.223-1.044.056-1.047.28-1.082.447-.951.672-.898.84-.754 1.007-.587 1.064-.33 1.12-4.092 19.09h-6.95l9.527-44.45h6.952l-3.205 14.947 1.248-1.008 1.244-.783 1.343-.616 1.352-.448 1.291-.168h1.301l1.408.336 1.18.56 1.088.784.917.951.792 1.12.62 1.287.45 1.456.224 1.68.031 1.735-.16 1.791-.306 1.848z"/><path style="display:inline;fill:#fff;stroke:none;stroke-width:.601195;stroke-linecap:round;stroke-linejoin:round;stroke-miterlimit:10;stroke-dasharray:none;stroke-opacity:1" d="m-7.42 424.226-2.026.672-2.024.448-1.975.224-1.984.056-1.88-.224-.893-.224-.833-.504-.663-.672-.537-.84-.379-.952-.163-1.12-.017-1.176.174-1.232 4.034-18.814h-4.08l1.549-7.224h4.079l2.125-9.911 7.487-2.52-2.664 12.431h6.454l-1.548 7.224H-9.64l-3.313 15.455-.1.672.093.615.206.504.364.392.433.28.481.056 1.369-.112 1.36-.28 1.35-.448z"/><path d="m-37.221 378.702-.888.03-.88.083-.862.134-.862.185-.855.247-.846.298-.83.349-.83.41-.814.463-.814.512-.795.565-.798.626-.78.68-.197.184-.757.73-.731.758-.699.793-.664.811-.642.852-.6.873-.574.895-.543.933-.517.955-.478.987-.451 1.015-.418 1.037-.387 1.069-.173.514-.378 1.19-.346 1.14-.303 1.08-.272 1.006-.23.956-.106.503-.214 1.058-.18 1.047-.14 1.027-.114 1.018-.075 1.005-.04.985-.013.987.024.955.057.956.098.935.124.924.156.914.197.892.23.885.263.861.296.864.329.842.36.822.395.82.437.802.123.207.484.78.526.698.558.626.585.543.625.485.648.401.575.275.591.216.674.175.756.133.855.104.936.06 1.02.031h.221l.78-.03.83-.112.888-.176.944-.247.247-.07 3.673-1.109.444.75.017.04.476.71.012.01h6.285l-.18-.944-.082-.966.016-1.006.107-1.049.156-.882 8.487-39.603h-5.202l-.624.646-.361.382-.747-.463-.748-.41-.756-.37-.756-.33-.757-.278-.763-.225-.765-.185-.772-.133-.771-.092-.773-.053zm-1.348 7.774.789.084.755.185.723.277.698.39.666.493.526.482.567.7.46.759.346.802.23.852.123.903.025.585-.017.915-.05.945-.072.966-.107.996-.13 1.016-.174 1.048-.19 1.068-.222 1.098-.254 1.13-.287 1.15-.313 1.173-.089.327-.395 1.355-.427 1.274-.436 1.203-.46 1.108-.484 1.028-.5.943-.519.865-.542.78-.559.688-.584.615-.598.524-.625.453-.642.358-.656.288-.683.196-.707.112-.632.03-.699-.04-.747-.132-.814-.228-.87-.317-.19-.072-.673-.318-.617-.38-.55-.431-.493-.503-.427-.566-.37-.626-.313-.678-.247-.751-.188-.81-.13-.864-.067-.935-.012-.985.057-1.058.116-1.108.18-1.173.23-1.242.025-.112.288-1.234.304-1.19.336-1.151.37-1.108.386-1.08.42-1.025.443-.987.469-.944.5-.905.527-.863.558-.812.575-.78.608-.739.634-.699.451-.451.912-.833.878-.676.84-.555.812-.401.782-.268.748-.123z" style="display:inline;fill:#fff;fill-opacity:1;fill-rule:evenodd;stroke:none;stroke-width:.172393"/><path d="m-46.178 372.884.395 1.746 15.43-4.764-.855-3.73zm0 0" style="display:inline;fill:#fff;stroke:none;stroke-width:.122399;stroke-linecap:round;stroke-linejoin:round;stroke-miterlimit:10;stroke-opacity:1"/><path style="display:inline;fill:#fff;stroke:none;stroke-width:.637865;stroke-linecap:round;stroke-linejoin:round;stroke-miterlimit:10;stroke-dasharray:none;stroke-opacity:1" d="m-20.247 476.829-.303 2.074-.504 1.962-.756 1.906-.857 1.793-1.109 1.682-1.21 1.57-1.411 1.4-1.512 1.178-1.613 1.009-1.714.785-1.815.56-1.815.336-1.865.112-1.865-.112-1.814-.336-1.765-.56-1.764-.785-1.613-1.01-1.512-1.176-1.361-1.402-1.26-1.57-1.059-1.68-.907-1.794-.706-1.906-.504-1.962-.353-2.074-.101-2.074v-27.074h8.216v27.074l.102 1.513.302 1.402.504 1.345.706 1.233.857 1.121.958.953 1.159.785 1.21.56 1.26.337 1.31.112 1.311-.112 1.31-.337 1.21-.56 1.11-.785 1.008-.953.856-1.12.656-1.234.504-1.345.302-1.402.102-1.513v-27.074h8.216v27.074z"/><path style="display:inline;fill:#fff;stroke:none;stroke-width:.637421;stroke-linecap:round;stroke-linejoin:round;stroke-miterlimit:10;stroke-dasharray:none;stroke-opacity:1" d="M34.544 447.681h8.165v35.773H60.45v8.677H34.544Z"/><path style="display:inline;fill:#fff;stroke:none;stroke-width:.637325;stroke-linecap:round;stroke-linejoin:round;stroke-miterlimit:10;stroke-dasharray:none;stroke-opacity:1" d="M76.322 447.681v44.45H68.16v-44.45z"/><path style="display:inline;fill:#fff;stroke:none;stroke-width:.637583;stroke-linecap:round;stroke-linejoin:round;stroke-miterlimit:10;stroke-dasharray:none;stroke-opacity:1" d="M98.354 447.681h-9.33v44.45h8.17V462.07l17.901 30.062h9.38v-44.45h-8.22v30.063zM152.36 474.329v-7.781h17.549v25.583h-7.463v-3.19l-1.16 1.231-1.362 1.064-1.412.84-1.563.615-1.563.392-1.614.112h-1.613l-2.017-.224-1.967-.448-1.916-.671-1.866-.896-1.715-1.12-1.613-1.343-1.513-1.736-1.311-1.847-1.21-2.016-.958-2.127-.757-2.24-.605-2.295-.353-2.35-.151-2.352v-3.191l.151-2.407.353-2.352.605-2.295.757-2.24.958-2.126 1.21-2.016 1.31-1.847 1.514-1.68 1.613-1.343 1.715-1.176 1.866-.896 1.916-.671 1.967-.448 2.017-.224h2.269l2.017.224 2.017.448 1.916.671 1.815.896 1.765 1.176 1.614 1.343 1.513 1.68 1.31 1.903 1.362 2.687-7.664 4.031-.706-1.567-.958-1.344-1.11-1.232-1.26-1.007-1.16-.504-1.16-.392-1.21-.224-1.21-.112-1.261.112-1.261.224-1.21.448-1.16.56-1.059.727-.958.896-.857 1.064-.706 1.12-.555 1.287-.454 1.288-.454 2.239-.302 2.351-.05 2.295.05 2.352.302 2.295.454 2.24.454 1.343.555 1.231.706 1.12.857 1.064.958.896 1.06.727 1.159.616 1.21.392 1.26.224 1.261.112 1.362-.112 1.361-.28 1.311-.504 1.261-.784 1.11-.951.958-1.12.807-1.287.554-1.68.353-1.68.05-1.79z"/><path d="M189.77 492.131V473.69h16.38v-8.24h-16.38v-9.136h18.094v-8.633h-26.26v44.45z" style="display:inline;fill:#fff;stroke:none;stroke-width:.637828;stroke-linecap:round;stroke-linejoin:round;stroke-miterlimit:10;stroke-dasharray:none;stroke-opacity:1"/><path style="display:inline;fill:#fff;stroke:none;stroke-width:.637345;stroke-linecap:round;stroke-linejoin:round;stroke-miterlimit:10;stroke-dasharray:none;stroke-opacity:1" d="m237.342 456.583 1.058.783.958.896.856 1.064.706 1.12.554 1.231.403 1.344.504 2.239.302 2.295.05 2.351-.05 2.296-.302 2.295-.504 2.295-.403 1.288-.554 1.287-.706 1.12-.856 1.064-.958.895-1.058.728-1.159.56-1.21.448-1.259.224-1.26.112-1.26-.112-1.26-.224-1.209-.448-1.158-.56-1.059-.728-.957-.895-.857-1.064-.705-1.12-.554-1.287-.454-1.288-.453-2.295-.303-2.295-.05-2.296.05-2.35.303-2.296.453-2.24.454-1.343.554-1.232.705-1.12.857-1.063.957-.896 1.058-.783 1.16-.56 1.209-.392 1.26-.28 1.26-.056 1.259.056 1.26.28 1.209.392zm14.16 11.7-.152-2.351-.353-2.352-.554-2.295-.806-2.24-.957-2.126-1.16-2.016-1.31-1.847-1.511-1.736-1.613-1.343-1.763-1.12-1.814-.896-1.915-.727-2.016-.392-1.965-.224h-2.318l-2.015.224-1.965.392-1.915.727-1.865.896-1.713 1.12-1.612 1.343-1.512 1.736-1.31 1.847-1.159 2.016-1.008 2.127-.756 2.24-.554 2.294-.403 2.352-.151 2.351v3.19l.151 2.408.403 2.351.554 2.296.756 2.239 1.008 2.127 1.159 1.96 1.31 1.903 1.512 1.68 1.612 1.343 1.713 1.176 1.865.895 1.915.672 1.965.448 2.015.224h2.318l1.965-.224 2.016-.448 1.915-.672 1.814-.895 1.763-1.176 1.613-1.343 1.511-1.68 1.31-1.903 1.16-1.96.957-2.127.806-2.24.554-2.295.353-2.35.151-2.408z"/><path style="display:inline;fill:#fff;stroke:none;stroke-width:.637455;stroke-linecap:round;stroke-linejoin:round;stroke-miterlimit:10;stroke-dasharray:none;stroke-opacity:1" d="M269.596 455.91h9.527l.958.113.856.336.857.448.706.671.605.784.403.952.303.951.1 1.064-.1 1.008-.303 1.007-.403.896-.605.84-.706.616-.857.504-.856.335-.958.056h-9.527zm-8.166-8.229v44.45h8.166v-17.354h5.343l9.124 17.354h9.526l-9.577-18.138 1.462-.728 1.411-.951 1.26-1.12 1.11-1.344.957-1.455.756-1.568.605-1.679.353-1.735.151-1.792-.05-1.847-.302-1.736-.454-1.735-.705-1.624-.908-1.511-1.008-1.4-1.21-1.175-1.36-1.008-1.462-.84-1.513-.56-1.613-.392-1.613-.111zM.42 455.91h9.526l.958.113.857.336.857.448.706.671.604.784.404.952.302.951.101 1.064-.1 1.008-.303 1.007-.404.896-.604.84-.706.616-.857.504-.857.335-.958.056H.42Zm-8.166-8.229v44.45H.42v-17.354h5.343l9.123 17.354h9.527l-9.577-18.138 1.461-.728 1.412-.951 1.26-1.12 1.109-1.344.958-1.455.756-1.568.605-1.679.353-1.735.15-1.792-.05-1.847-.302-1.736-.453-1.735-.706-1.624-.907-1.511-1.009-1.4-1.21-1.175-1.36-1.008-1.462-.84-1.512-.56-1.613-.392-1.613-.111z"/><path style="display:inline;fill:#fff;stroke:none;stroke-width:.637983;stroke-linecap:round;stroke-linejoin:round;stroke-miterlimit:10;stroke-dasharray:none;stroke-opacity:1" d="M318.953 483.219h-6.96v-26.681h6.96l1.412.112 1.361.392 1.311.56 1.26.786 1.11.953.958 1.177.807 1.289.605 1.401.454 1.514.353 2.13.151 2.13v2.186l-.201 2.186-.404 2.13-.454 1.401-.655 1.401-.807 1.234-.958 1.065-1.11.953-1.21.728-1.26.505-1.362.336zm-.102 8.912 1.866-.112 1.916-.336 1.816-.56 1.765-.785 1.714-.953 1.563-1.177 1.463-1.346 1.361-1.513 1.16-1.682 1.009-1.793.857-1.906.655-1.962.454-2.074.303-2.41.15-2.41v-2.41l-.15-2.467-.303-2.41-.454-2.018-.655-2.018-.857-1.906-1.01-1.794-1.159-1.625-1.361-1.514-1.463-1.4-1.563-1.122-1.714-1.009-1.765-.785-1.816-.504-1.916-.336-1.866-.112h-15.077v44.45z"/><path d="m-18.312 256.99-1.325 2.017-1.463 1.906-1.616 1.85-1.937 1.794-2.074 1.681-2.153 1.345-2.26 1.122-2.272.952-2.309.673-2.36.448-2.286.169h-2.52l-2.195-.169-2.064-.448-1.948-.673-1.817-.952-1.604-1.122-1.432-1.345-1.215-1.737-1.016-1.85-.748-2.018-.493-2.13-.24-2.242-.056-2.298.24-2.355.462-2.354.856-3.195.814-2.41 1.023-2.354 1.288-2.299 1.426-2.186 1.634-2.13 1.83-2.018 2.022-1.905 2.13-1.682 2.154-1.345 2.22-1.177 2.312-.897 2.308-.673 2.305-.448 2.285-.168h2.52l2.196.168 2.12.448 1.948.673 1.776.897 1.645 1.177 1.432 1.345 1.23 1.682.945 1.905.832 2.747.451 2.915-10.034 3.587.013-1.513-.154-1.514-.424-1.345-.663-1.29-.89-1.064-1.048-.897-1.138-.56-1.183-.393-1.284-.224-1.315-.112-1.43.112-1.46.224-1.464.449-1.439.56-1.371.729-1.32.953-1.222 1.009-1.1 1.177-1.002 1.233-.794 1.29-1.176 2.297-.895 2.298-.672 2.299-.575 2.354-.336 2.298-.04 2.242.087 1.345.342 1.234.469 1.177.681 1.009.824.896.966.785 1.138.56 1.24.393 1.324.28 1.385.056 1.543-.112 1.587-.28 1.591-.504 1.484-.73 1.472-.896 1.294-1.065 1.211-1.177 1.074-1.29.88-1.4.726-1.458z" style="display:inline;fill:#fff;stroke:none;stroke-width:.672363;stroke-linecap:round;stroke-linejoin:round;stroke-miterlimit:10;stroke-dasharray:none;stroke-opacity:1"/><path style="display:inline;fill:#fff;stroke:none;stroke-width:.672573;stroke-linecap:round;stroke-linejoin:round;stroke-miterlimit:10;stroke-dasharray:none;stroke-opacity:1" d="m7.649 244.639 1.193.56.936.898.722 1.066.51 1.234.177 1.01-.006 1.065-.257 1.796-.41 1.738-.522 1.74-.705 1.794-.565 1.066-.719 1.01-1.17 1.234-1.294 1.066-1.417.897-1.479.505-1.348.225-1.172-.225-1.209-.505-.991-.897-.723-1.066-.453-1.234-.177-1.01.006-1.066.257-1.795.354-1.739.577-1.738.705-1.796.566-1.065.719-1.01 1.114-1.234 1.294-1.066 1.472-.897 1.495-.561 1.277-.169zm12.428 2.524-.022-.337-.303-1.795-.542-1.739-.827-1.514-1.024-1.403-1.252-1.178-1.287-.841-1.459-.617-1.544-.505-1.661-.28-1.706-.113-1.766.113-1.755.28-1.816.505-1.789.617-1.737.841-1.884 1.178-1.776 1.403-1.638 1.514-1.474 1.74-1.265 1.794-.202.337-1.161 2.244-.952 2.3-.729 2.3-.504 2.3-.28 2.3-.026 2.187.007.393.303 1.795.557 1.682.81 1.571 1.025 1.403 1.252 1.178 1.302.785 1.444.673 1.544.505 1.605.28 1.706.112 1.766-.112 1.812-.28 1.815-.505 1.804-.673 1.723-.785 1.883-1.178 1.776-1.403 1.653-1.57 1.459-1.683 1.265-1.795.217-.393 1.146-2.188.953-2.3.672-2.3.56-2.3.28-2.3z"/><path style="display:inline;fill:#fff;stroke:none;stroke-width:.672522;stroke-linecap:round;stroke-linejoin:round;stroke-miterlimit:10;stroke-dasharray:none;stroke-opacity:1" d="M31.515 269.881h-8.678l8.507-31.75h8.679l-.842 3.142 1.35-1.066 1.416-.897 1.554-.786 1.591-.505 1.546-.336 1.542-.112h2.128l-2.21 8.246h-2.967l-1.262.112-1.322.336-1.27.561-1.26.73-1.065.841-1.014 1.066-.86 1.122-.667 1.234-.386 1.234z"/><path d="m72.708 257.786 7.249 3.024-.258.336-1.279 1.848-1.457 1.68-1.58 1.512-1.775 1.4-1.882 1.176-1.792.84-1.732.616-1.814.504-1.81.28-1.765.112-1.705-.112-1.604-.28-1.544-.504-1.458-.616-1.287-.84-1.252-1.176-1.024-1.4-.826-1.512-.557-1.68-.288-1.848-.022-.336.04-2.24.28-2.296.503-2.295.727-2.296.936-2.24 1.16-2.24.217-.392 1.263-1.792 1.458-1.68 1.651-1.568 1.76-1.344 1.897-1.231 1.72-.784 1.804-.672 1.799-.448 1.77-.336 1.764-.112 1.705.112 1.645.336 1.56.448 1.386.672 1.357.784 1.237 1.231 1.04 1.344.754 1.568.558 1.68.303 1.792.063.392-8.855 2.968-.191-1.792-.51-1.232-.722-1.064-.95-.84-1.193-.56-1.242-.168-1.277.168-1.549.56-1.4.84-1.293 1.064-1.113 1.232-.733 1.064-.621 1.064-.633 1.736-.577 1.736-.369 1.792-.297 1.735.051 1.064.178 1.008.453 1.232.707 1.12.95.84 1.25.56 1.186.168 1.332-.168 1.494-.56 1.4-.84 1.308-1.12 1.17-1.232z" style="display:inline;fill:#fff;stroke:none;stroke-width:.671785;stroke-linecap:round;stroke-linejoin:round;stroke-miterlimit:10;stroke-dasharray:none;stroke-opacity:1"/><path style="display:inline;fill:#fff;stroke:none;stroke-width:2.63338;stroke-linecap:round;stroke-linejoin:round;stroke-miterlimit:10;stroke-opacity:1" d="m102.937 237.564-1.639.145-1.605.34-1.586.549-1.548.767-1.515.978-1.48 1.197-.407.373-1.248 1.283-1.157 1.354-1.034 1.443-.91 1.53-.786 1.604-.671 1.71-.057.143-.498 1.655-.41 1.622-.284 1.62-.18 1.622-.07 1.587.017.945.16 1.586.321 1.48.481 1.35.621 1.23.784 1.104.589.676 1.05.91 1.215.729 1.333.536 1.48.34 1.605.14.784.017 1.622-.085 1.655-.231 1.71-.338 1.746-.464.73.249 1.23.462.193.16h5.632l-.09-1.07-.035-1.71.159-1.193.75-2.813.748-2.763.713-2.603.659-2.439.605-2.279.57-2.123.536-1.96.48-1.814.446-1.639.39-1.479.358-1.337.303-1.16.266-1.01.232-.842.18-.694.124-.532.085-.372h-6.502l-.371 1.44-.283-.25-.928-.519-1.23-.44-1.514-.322-1.836-.25-2.12-.124zm.282 7.626.784.055 1.425.39 1.355.748.462.394.858 1.14.302 1.334v.074l-.09 1.835-.232 1.69-.356 1.531-.515 1.372-.445.927-1 1.784-.996 1.407-.999 1.05-.604.43-1.407.656-1.656.395-1.925.103-1.085-.142-1.18-.498-.854-.891-.515-1.265-.162-1.657v-.536l.124-1.672.305-1.515.107-.322.57-1.62.763-1.583.965-1.553.143-.214 1.174-1.334 1.48-1.23 1.638-.962z"/><path d="M139.777 229.957a4.366 4.366 0 0 1-4.366 4.367 4.366 4.366 0 0 1-4.366-4.367 4.366 4.366 0 0 1 4.366-4.366 4.366 4.366 0 0 1 4.366 4.366z" style="display:inline;fill:#fff;fill-rule:evenodd;stroke:none;stroke-width:.362115;stroke-linecap:round;stop-color:#000"/><path style="display:inline;fill:#fff;stroke:none;stroke-width:.206811;stroke-linecap:round;stroke-linejoin:round;stroke-miterlimit:10;stroke-opacity:1" d="m129.497 238.131-6.97 26.03-.09.428-.068.553v.568l.073.577.134.58.2.588.266.594.335.603.402.606.472.62h8.089l-.239-.303-.364-.523-.315-.536-.265-.562-.221-.583-.175-.6-.128-.62-.076-.64-.035-.666.015-.685 6.97-26.029zm0 0"/><path style="display:inline;fill:#fff;stroke:none;stroke-width:.672237;stroke-linecap:round;stroke-linejoin:round;stroke-miterlimit:10;stroke-dasharray:none;stroke-opacity:1" d="M202.58 269.882h-8.69l5.07-18.922.244-1.12.02-1.12-.178-1.007-.418-.952-.646-.728-1.042-.504-1.23-.224-1.304.056-1.308.28-1.353.448-1.19.672-1.121.84-.943 1.007-.733 1.064-.412 1.12-5.116 19.09h-8.688l11.91-44.45h8.689l-4.005 14.947 1.559-1.008 1.555-.784 1.679-.615 1.69-.448 1.614-.168h1.626l1.76.336 1.475.56 1.36.783 1.146.952.99 1.12.776 1.287.563 1.456.278 1.68.04 1.735-.2 1.791-.383 1.848z"/><path style="display:inline;fill:#fff;stroke:none;stroke-width:.672154;stroke-linecap:round;stroke-linejoin:round;stroke-miterlimit:10;stroke-dasharray:none;stroke-opacity:1" d="m159.854 246.307-1.139-.56-1.183-.392-1.371-.112-1.375.112-1.435.336-.904.448-.878.56-.812.728-.673.84-.976 1.344-.783 1.456-.513 1.288-.416 1.344-.192 1.344-.01 1.287.082.952.32.896.519.784.731.616.832.448 1.087.336 1.132.168h1.232l1.222-.168 1.282-.392.904-.448.878-.56.756-.728.617-.84.651-1.176.54-1.175 1.35-5.04.016-.896-.111-.84-.295-.784-.492-.672zm-19.69 24.135 1.318.728 1.49.504 1.52.391 2.543.336 2.618.056 2.414-.224.971-.28.92-.503.852-.672.714-.784.576-.896.368-.952.45-1.68-1.596.728-1.592.504-2.01.392-2.02.224-1.932-.112-1.733-.224-1.658-.504-1.486-.728-1.313-.952-1.06-1.064-.902-1.232-.634-1.4-.435-1.512-.252-1.568-.04-1.736.144-1.791.313-1.792.55-1.848.76-1.792.914-1.736 1.026-1.736 1.137-1.736 1.332-1.624 1.196-1.12 1.294-1.064 1.417-.895 1.442-.784 1.454-.616 1.958-.616 1.939-.336 1.935-.112 1.89.056 1.759.336 1.255.336 1.138.56.967.784.435-1.624h8.629l-8.178 30.518-.517 1.512-.726 1.456-.88 1.4-1.088 1.343-1.17 1.232-1.35 1.064-1.813 1.12-1.865.896-1.917.672-1.913.448-2.346.392-2.23.168-2.227-.056-2.14-.168-2.636-.616-2.48-.784-2.434-.952-2.247-1.232 5.966-7z"/><path style="display:inline;fill:#fff;stroke:none;stroke-width:.672067;stroke-linecap:round;stroke-linejoin:round;stroke-miterlimit:10;stroke-dasharray:none;stroke-opacity:1" d="m101.922 321.9 3.81-4.255 12.494 19.705h10.758l-16.92-26.703 16.08-17.747h-12.27l-13.952 15.452V292.9h-9.133v44.45h9.133z"/><path d="m-14.338 324.458-.784 2.018-.952 1.906-1.12 1.85-1.457 1.793-1.624 1.682-1.792 1.345-1.96 1.121-2.016.953-2.129.673-2.24.448-2.24.168h-2.52l-2.241-.168-2.184-.448-2.129-.673-2.072-.953-1.904-1.12-1.792-1.346-1.68-1.738-1.513-1.85-1.288-2.017-1.064-2.13-.84-2.242-.672-2.299-.392-2.354-.168-2.354v-3.195l.168-2.41.392-2.355.672-2.298.84-2.186 1.064-2.13 1.288-2.018 1.512-1.906 1.68-1.681 1.793-1.345 1.904-1.178 2.072-.896 2.129-.673 2.184-.448 2.24-.169h2.52l2.24.169 2.241.448 2.129.673 2.016.896 1.96 1.178 1.792 1.345 1.68 1.681 1.457 1.906 1.568 2.747 1.232 2.915-9.073 3.587-.392-1.513-.56-1.514-.784-1.345-1.008-1.29-1.177-1.064-1.288-.897-1.288-.56-1.288-.393-1.344-.224-1.345-.112-1.4.112-1.4.224-1.344.448-1.288.56-1.176.73-1.065.952-.952 1.01-.784 1.176-.672 1.234-.448 1.289-.56 2.298-.28 2.298-.056 2.298.056 2.355.28 2.298.56 2.242.448 1.345.672 1.233.784 1.177.952 1.01 1.065.896 1.176.785 1.288.56 1.344.393 1.4.28 1.4.056 1.513-.112 1.512-.28 1.456-.505 1.288-.728 1.232-.897 1.009-1.065.896-1.177.728-1.29.504-1.4.336-1.458z" style="display:inline;fill:#fff;stroke:none;stroke-width:.672363;stroke-linecap:round;stroke-linejoin:round;stroke-miterlimit:10;stroke-dasharray:none;stroke-opacity:1"/><path style="display:inline;fill:#fff;stroke:none;stroke-width:.67182;stroke-linecap:round;stroke-linejoin:round;stroke-miterlimit:10;stroke-dasharray:none;stroke-opacity:1" d="m19.48 301.802 1.176.783 1.063.896.952 1.064.784 1.12.616 1.231.448 1.344.56 2.239.336 2.295.056 2.351-.056 2.296-.336 2.295-.56 2.295-.448 1.288-.616 1.287-.784 1.12-.952 1.064-1.063.895-1.176.728-1.288.56-1.344.448-1.4.224-1.399.112-1.4-.112-1.4-.224-1.343-.448-1.288-.56-1.176-.728-1.063-.895-.952-1.064-.784-1.12-.616-1.287-.504-1.288-.504-2.295-.335-2.295-.056-2.296.056-2.35.335-2.296.504-2.24.504-1.343.616-1.232.784-1.12.952-1.063 1.063-.896 1.176-.783 1.288-.56 1.344-.392 1.4-.28 1.4-.056 1.399.056 1.4.28 1.343.392zm15.732 11.7-.168-2.351-.391-2.352-.616-2.295-.896-2.24-1.064-2.127-1.288-2.015-1.455-1.847-1.68-1.736-1.792-1.343-1.96-1.12-2.015-.896-2.127-.727-2.24-.392-2.183-.224H12.76l-2.24.224-2.183.392-2.127.727-2.072.896-1.903 1.12-1.792 1.343-1.68 1.736-1.455 1.847-1.288 2.015-1.12 2.128-.84 2.24-.615 2.294-.448 2.352-.168 2.35v3.192l.168 2.407.448 2.351.615 2.296.84 2.239 1.12 2.127 1.288 1.96 1.455 1.903 1.68 1.68 1.792 1.343 1.903 1.176 2.072.895 2.127.672 2.184.448 2.24.224h2.575l2.183-.224 2.24-.448 2.127-.672 2.016-.895 1.96-1.176 1.791-1.343 1.68-1.68 1.455-1.903 1.288-1.96 1.064-2.127.896-2.24.616-2.295.391-2.35.168-2.408z"/><path style="display:inline;fill:#fff;stroke:none;stroke-width:.671938;stroke-linecap:round;stroke-linejoin:round;stroke-miterlimit:10;stroke-dasharray:none;stroke-opacity:1" d="M55.318 301.13h10.585l1.064.112.952.336.952.447.784.672.673.784.448.952.336.951.112 1.064-.112 1.008-.336 1.007-.448.896-.673.84-.784.616-.952.504-.952.335-1.064.056H55.318Zm-9.073-8.23v44.45h9.073v-17.354h5.936l10.138 17.354h10.585l-10.641-18.138 1.624-.728 1.568-.951 1.4-1.12 1.232-1.344 1.065-1.455.84-1.568.672-1.68.392-1.735.168-1.791-.056-1.847-.336-1.736-.504-1.735-.784-1.624-1.008-1.511-1.12-1.4-1.345-1.176-1.512-1.007-1.624-.84-1.68-.56-1.793-.392-1.792-.112z"/><path style="fill:#000;stroke:none;stroke-width:.264583" d="M567.012-2.913v-44.901H522.11l22.45-22.451h44.902v44.901zM359.343 114.953v44.9h44.902l-22.45 22.452h-44.902v-44.902zM541.755-45.008 516.897-20.15c-2.343 2.343-6.446 2.7-9.298 1.014a87.314 87.314 0 0 0-44.42-12.157c-48.222 0-87.313 39.092-87.313 87.313a87.312 87.312 0 0 0 12.246 44.326c1.693 2.849 1.34 6.95-1.003 9.292l-24.96 24.959 22.451 22.45 24.96-24.958c2.342-2.343 6.443-2.695 9.293-1.007a87.241 87.241 0 0 0 22.595 9.377c3.207.83 5.855 3.993 5.855 7.307V515.68h31.75V147.866c0-3.314 2.65-6.465 5.859-7.287 7.778-1.994 15.104-5.081 21.888-9.004L490.938 104.1c-8.175 4.73-17.636 7.481-27.76 7.481a55.563 55.563 0 0 1-26.34-6.772l.018-.018a55.567 55.567 0 0 1-4.483-2.771A55.563 55.563 0 0 1 417.18 86.83a55.566 55.566 0 0 1-2.774-4.489l-.019.019a55.563 55.563 0 0 1-6.771-26.34c0-30.686 24.876-55.563 55.562-55.563a55.558 55.558 0 0 1 26.476 6.725 55.561 55.561 0 0 1 5.121 3.165l.463.314a55.556 55.556 0 0 1 4.578 3.623c.18.157.36.315.538.474a55.565 55.565 0 0 1 4.09 4.09c.156.176.311.352.465.53a55.562 55.562 0 0 1 3.625 4.579c.108.156.215.313.32.471a55.564 55.564 0 0 1 3.163 5.117 55.563 55.563 0 0 1 6.724 26.475c0 10.123-2.751 19.585-7.482 27.76l27.494 15.873c7.436-12.842 11.738-27.724 11.738-43.633a87.319 87.319 0 0 0-12.157-44.422c-1.686-2.851-1.329-6.955 1.014-9.298l24.858-24.857zm25.257 42.095v-44.901H522.11l22.45-22.451h44.902v44.901zM359.343 114.953v44.9h44.902l-22.45 22.452h-44.902v-44.902z"/><path style="fill:#008445;stroke-width:2.90145" d="M628.267-86.14a7.92 7.92 0 0 0-7.937 7.937v71.434a7.937 7.937 0 0 1 0 .004 7.937 7.937 0 0 1-7.938 7.937h-7.852a7.92 7.92 0 0 0-7.938 7.938v252.015a7.92 7.92 0 0 0 7.938 7.938h374.266a7.92 7.92 0 0 0 7.937-7.938V-78.203a7.92 7.92 0 0 0-7.937-7.937z"/><path style="display:inline;fill:#fff;fill-opacity:1;stroke:none;stroke-width:.672259;stroke-linecap:round;stroke-linejoin:round;stroke-miterlimit:10;stroke-dasharray:none;stroke-opacity:1" d="M192.38 182.305v-63.5h15.231l8.288 31.778 8.232-31.778h15.23v63.5h-10.136V131.47l-9.35 36.262h-7.952l-9.351-36.262v50.834z"/><path d="m279.08 138.795-.112 1.12-.336 1.064-.505 1.008-.728.896-.896.672-.953.56-1.064.336-1.121.056-1.12-.056-1.065-.336-1.009-.56-.84-.672-.728-.896-.56-1.008-.28-1.064-.113-1.12v-6.327l.112-1.12.28-1.064.56-1.008.729-.84.84-.728 1.009-.504 1.064-.336 1.121-.112 1.12.112 1.065.336.953.504.896.728.728.84.505 1.008.336 1.064.112 1.12zm-14.288 9.576-1.288.056-1.233.336-1.177.56-1.008.728-.897.896-.728 1.063-.56 1.12-.336 1.232-.113 1.288v14.951l.113 1.68.336 1.68.56 1.624.785 1.512.952 1.4 1.177 1.232 1.288 1.12 1.457.896 1.513.728 2.129.672 2.241.503 2.241.224h2.241l2.242-.224 2.185-.503 2.129-.672 1.569-.728 1.456-.896 1.29-1.12 1.12-1.232.952-1.4.785-1.512.56-1.624.336-1.68.112-1.68v-14.95l-.112-1.289-.336-1.232-.504-1.12-.729-1.063-.896-.896-1.065-.728-1.176-.56-1.233-.336-1.233-.056 1.233-.112 1.233-.336 1.176-.56 1.065-.728.896-.896.729-1.064.504-1.12.336-1.232.112-1.288v-10.527l-.112-1.68-.336-1.68-.56-1.568-.785-1.568-.952-1.4-1.12-1.232-1.29-1.12-1.456-.895-1.57-.728-2.128-.672-2.185-.448-2.242-.224h-2.24l-2.242.224-2.241.448-2.13.672-1.512.728-1.457.896-1.288 1.12-1.177 1.231-.952 1.4-.785 1.568-.56 1.568-.336 1.68-.113 1.68v10.527l.113 1.288.336 1.232.56 1.12.728 1.064.897.896 1.008.728 1.177.56 1.233.336zm14.288 20.27-.112 1.12-.336 1.064-.505 1.008-.728.84-.896.728-.953.56-1.064.28-1.121.112-1.12-.112-1.065-.28-1.009-.56-.84-.728-.728-.84-.56-1.008-.28-1.064-.113-1.12v-9.799l.112-1.12.28-1.064.56-1.008.729-.896.84-.672 1.009-.56 1.064-.28 1.121-.112 1.12.112 1.065.28.953.56.896.672.728.896.505 1.008.336 1.064.112 1.12z" style="display:inline;fill:#fff;fill-opacity:1;stroke:none;stroke-width:.672155;stroke-linecap:round;stroke-linejoin:round;stroke-miterlimit:10;stroke-dasharray:none;stroke-opacity:1"/><path style="fill:#fff;stroke:none;stroke-width:.331017;stroke-linecap:round;stroke-linejoin:round;stroke-miterlimit:10;stroke-opacity:1" d="M115.704 146.39h15.393l10.04 51.79h-23.819l-1.614-51.79m11.587-19.642h-12.206l-.731-23.818h8.33l4.607 23.818M79.224 198.18h23.82l1.614-51.79H89.265l-10.041 51.79m73.188-55.937a5.932 5.932 0 0 0-1.667 4.336l.241 6.955h-7.144l-1.686-8.322a5.958 5.958 0 0 0-5.835-4.78H84.033a5.947 5.947 0 0 0-5.834 4.78l-1.68 8.322h-7.144l.227-6.954a5.988 5.988 0 0 0-1.681-4.337 5.946 5.946 0 0 0-4.273-1.812h-5.554v-7.736h104.174v7.736h-5.576a5.957 5.957 0 0 0-4.28 1.812zM97.68 102.93l-4.608 23.818h12.194l.743-23.818h-8.33"/><path style="fill:#ffc90e;fill-opacity:1;stroke:none;stroke-width:.858741;stroke-linecap:round;stroke-linejoin:round;stroke-miterlimit:10;stroke-dasharray:none;stroke-opacity:1" d="M664.972-70.265h-11.847v63.5H663.5v-42.947L686.23-6.765h11.91v-63.5h-10.438v42.946z"/><path style="fill:#fff;stroke:none;stroke-width:.672494;stroke-linecap:round;stroke-linejoin:round;stroke-miterlimit:10;stroke-dasharray:none;stroke-opacity:1" d="M636.598 123.229h-7.732V96.547h7.732l1.569.113 1.513.392 1.456.56 1.401.785 1.233.953 1.064 1.177.897 1.29.672 1.4.504 1.514.393 2.13.168 2.13v2.186l-.224 2.186-.449 2.13-.504 1.402-.728 1.401-.897 1.233-1.064 1.065-1.233.953-1.345.729-1.4.504-1.513.337zm-.112 8.912 2.073-.112 2.13-.336 2.016-.56 1.961-.786 1.905-.952 1.737-1.178 1.625-1.345 1.513-1.513 1.288-1.682 1.121-1.794.953-1.905.728-1.962.504-2.074.336-2.41.168-2.41v-2.411l-.168-2.466-.336-2.41-.504-2.018-.728-2.018-.953-1.906-1.12-1.794-1.29-1.625-1.512-1.514-1.625-1.401-1.737-1.121-1.905-1.01-1.96-.784-2.018-.504-2.129-.337-2.073-.112h-16.753v44.45z"/><path style="fill:#fff;stroke:none;stroke-width:.67237;stroke-linecap:round;stroke-linejoin:round;stroke-miterlimit:10;stroke-dasharray:none;stroke-opacity:1" d="m703.257 116.839-.336 2.074-.56 1.961-.84 1.906-.953 1.794-1.232 1.682-1.344 1.57-1.568 1.4-1.68 1.178-1.793 1.008-1.904.785-2.016.56-2.017.337-2.072.112-2.072-.112-2.017-.336-1.96-.56-1.96-.786-1.792-1.008-1.68-1.178-1.513-1.4-1.4-1.57-1.176-1.682-1.008-1.794-.785-1.906-.56-1.961-.392-2.074-.112-2.074V87.69h9.13v27.074l.112 1.513.336 1.401.56 1.346.784 1.233.952 1.121 1.064.953 1.288.785 1.345.56 1.4.336 1.456.113 1.456-.113 1.456-.336 1.345-.56 1.232-.785 1.12-.953.952-1.121.728-1.233.56-1.346.336-1.4.112-1.514V87.69h9.13v27.074z"/><path d="m751.12 112.971-.785-1.29-.953-1.176-1.12-1.065-1.234-.841-1.345-.673 1.177-.785 1.065-1.008.84-1.122.73-1.233.504-1.345.336-1.401.112-1.458-.112-1.457-.336-1.401-.56-1.458-.73-1.457-.952-1.29-1.065-1.233-1.233-1.008-1.345-.897-1.402-.729-1.57-.504-1.569-.337-1.57-.112h-20.906v44.45H738.9l1.962-.224 1.85-.392 1.849-.73 1.738-.896 1.569-1.121 1.29-1.29 1.12-1.457.897-1.625.617-1.738.392-1.794.112-1.85-.056-1.569-.224-1.513-.393-1.514zm-24.887-7.399v-9.417h10.09l1.064.112 1.01.337.896.56.729.729.56.897.337 1.009.112 1.065-.112 1.009-.337 1.008-.56.897-.729.729-.897.617-1.009.336-1.065.112zm0 18.105V112.58h10.538l1.065.056 1.065.336.953.504.84.73.673.84.504.953.337 1.009.112 1.12-.112 1.066-.337 1.065-.504.953-.673.84-.84.673-.953.505-1.065.336-1.065.112h-10.538" style="fill:#fff;stroke:none;stroke-width:.672632;stroke-linecap:round;stroke-linejoin:round;stroke-miterlimit:10;stroke-dasharray:none;stroke-opacity:1"/><path style="fill:#fff;stroke:none;stroke-width:.671901;stroke-linecap:round;stroke-linejoin:round;stroke-miterlimit:10;stroke-dasharray:none;stroke-opacity:1" d="M763.501 87.691h9.072v35.773h19.713v8.677H763.5Z"/><path style="fill:#fff;stroke:none;stroke-width:.671799;stroke-linecap:round;stroke-linejoin:round;stroke-miterlimit:10;stroke-dasharray:none;stroke-opacity:1" d="M809.921 87.691v44.45h-9.07v-44.45Z"/><path style="fill:#fff;stroke:none;stroke-width:.672072;stroke-linecap:round;stroke-linejoin:round;stroke-miterlimit:10;stroke-dasharray:none;stroke-opacity:1" d="M834.4 87.691h-10.365v44.45h9.077V102.08l19.89 30.062h10.422v-44.45h-9.133v30.063z"/><path d="m639.984 18.712-1.11.03-1.1.083-1.078.133-1.078.186-1.068.247-1.058.298-1.037.349-1.038.41-1.017.463-1.017.512-.994.565-.998.626-.976.68-.245.184-.947.729-.913.76-.873.792-.83.811-.803.852-.75.873-.718.894-.679.934-.645.954-.598.988-.564 1.015-.523 1.037-.483 1.069-.216.514-.473 1.19-.432 1.14-.38 1.08-.339 1.005-.287.957-.133.502-.268 1.059-.225 1.046-.173 1.028-.145 1.017-.092 1.006-.052.984-.01.988.03.954.071.957.124.934.154.925.195.914.246.892.288.885.33.861.37.864.41.842.45.822.494.82.546.802.154.206.605.781.658.698.697.626.731.543.78.485.811.401.72.275.738.216.842.175.945.133 1.07.104 1.169.06 1.275.031h.277l.975-.03 1.037-.113 1.11-.175 1.18-.247.308-.07 4.592-1.109.555.75.02.04.596.709.01.01h7.857l-.226-.944-.102-.966.02-1.006.134-1.048.195-.883 10.608-39.603h-6.501l-.78.646-.452.382-.934-.462-.935-.411-.944-.37-.945-.33-.946-.278-.955-.225-.956-.185-.965-.133-.964-.092-.966-.053zm-1.685 7.774.985.084.944.184.905.278.872.39.833.493.657.482.71.7.574.759.432.802.287.852.154.903.031.584-.021.916-.062.944-.092.966-.133.997-.163 1.016-.217 1.047-.237 1.07-.278 1.097-.318 1.13-.358 1.15-.392 1.172-.111.328-.494 1.355-.534 1.274-.545 1.203-.574 1.108-.605 1.028-.627.943-.647.864-.678.78-.699.689-.73.614-.748.525-.78.452-.803.359-.82.288-.854.196-.883.111-.79.031-.874-.04-.934-.133-1.018-.227-1.087-.318-.238-.072-.841-.318-.772-.38-.687-.43-.616-.503-.533-.566-.462-.626-.392-.679-.309-.75-.235-.81-.164-.864-.082-.935-.01-.985.071-1.058.146-1.108.225-1.173.287-1.242.031-.113.36-1.233.38-1.19.42-1.152.463-1.108.482-1.08.524-1.024.555-.988.586-.944.626-.905.657-.862.698-.812.72-.78.759-.74.792-.698.564-.451 1.14-.833 1.098-.676 1.049-.556 1.016-.4.977-.268.935-.124z" style="fill:#fff;fill-opacity:1;fill-rule:evenodd;stroke:none;stroke-width:.192741"/><path style="fill:#fff;stroke:none;stroke-width:.672156;stroke-linecap:round;stroke-linejoin:round;stroke-miterlimit:10;stroke-dasharray:none;stroke-opacity:1" d="m677.236 64.236-2.534.672-2.529.448-2.47.224-2.48.056-2.349-.224-1.116-.224-1.042-.504-.829-.672-.67-.84-.474-.952-.204-1.12-.022-1.176.218-1.232 5.042-18.815h-5.1l1.936-7.223h5.1l2.655-9.912 9.36-2.52-3.331 12.432h8.068l-1.936 7.223h-8.068l-4.141 15.455-.124.672.115.616.257.504.456.392.54.28.602.056 1.711-.112 1.7-.28 1.689-.448z"/><path style="fill:#fff;stroke:none;stroke-width:.672235;stroke-linecap:round;stroke-linejoin:round;stroke-miterlimit:10;stroke-dasharray:none;stroke-opacity:1" d="M711.873 64.672h-8.689l5.07-18.922.244-1.12.02-1.119-.179-1.008-.417-.951-.646-.728-1.042-.504-1.23-.224-1.304.056-1.308.28-1.354.448-1.189.672-1.121.84-.943 1.007-.734 1.064-.412 1.12-5.115 19.09h-8.689l11.91-44.45h8.69l-4.006 14.947 1.56-1.008 1.555-.784 1.679-.615 1.69-.448 1.614-.168h1.626l1.76.336 1.475.56 1.36.783 1.146.952.99 1.12.775 1.287.563 1.456.28 1.68.038 1.735-.2 1.791-.382 1.847z"/><path d="m787.844 51.78-1.325 2.018-1.463 1.906-1.615 1.85-1.937 1.793-2.075 1.682-2.153 1.345-2.26 1.121-2.272.953-2.308.673-2.361.448-2.285.168h-2.52l-2.196-.168-2.064-.448-1.948-.673-1.817-.953-1.604-1.12-1.432-1.346-1.214-1.738-1.017-1.85-.747-2.017-.494-2.13-.24-2.242-.055-2.299.238-2.354.463-2.354.856-3.195.814-2.41 1.023-2.355 1.288-2.298 1.426-2.186 1.635-2.13 1.829-2.018 2.022-1.906 2.131-1.681 2.153-1.345 2.22-1.177 2.312-.897 2.309-.673 2.304-.448 2.286-.169h2.52l2.195.169 2.12.448 1.948.673 1.776.897 1.645 1.177 1.432 1.345 1.23 1.681.945 1.906.832 2.747.451 2.915-10.034 3.587.013-1.513-.154-1.514-.424-1.345-.662-1.29-.891-1.064-1.048-.897-1.138-.56-1.183-.393-1.284-.224-1.314-.112-1.43.112-1.46.224-1.465.448-1.438.56-1.372.73-1.32.952-1.222 1.01-1.1 1.177-1.002 1.233-.793 1.289-1.176 2.298-.896 2.298-.672 2.298-.575 2.355-.335 2.298-.041 2.242.087 1.345.342 1.233.469 1.178.682 1.008.823.897.966.785 1.138.56 1.24.393 1.324.28 1.386.056 1.542-.112 1.587-.28 1.591-.504 1.484-.73 1.472-.896 1.294-1.065 1.211-1.177 1.074-1.29.88-1.4.726-1.458z" style="fill:#fff;stroke:none;stroke-width:.672361;stroke-linecap:round;stroke-linejoin:round;stroke-miterlimit:10;stroke-dasharray:none;stroke-opacity:1"/><path style="fill:#fff;stroke:none;stroke-width:.671807;stroke-linecap:round;stroke-linejoin:round;stroke-miterlimit:10;stroke-dasharray:none;stroke-opacity:1" d="M804.047 20.222h8.66l-9.394 35.06-.054.617.144.504.327.45.428.28.6.056 1.69-.056 1.737-.225-1.094 7.63-2.817.504-2.773.337-2.797.224-1.144-.112-1.027-.337-.997-.449-.77-.673-.612-.841-.4-1.01-.218-1.066-.034-1.122.204-1.178z"/><path style="fill:#fff;stroke:none;stroke-width:2.63338;stroke-linecap:round;stroke-linejoin:round;stroke-miterlimit:10;stroke-opacity:1" d="m849.085 32.355-1.638.145-1.605.34-1.587.548-1.548.767-1.514.98-1.48 1.196-.407.373-1.248 1.283-1.158 1.354-1.033 1.443-.91 1.53-.786 1.604-.671 1.71-.058.143-.497 1.655-.41 1.622-.284 1.62-.18 1.622-.07 1.587.017.945.16 1.586.322 1.48.48 1.35.622 1.23.784 1.103.588.677 1.05.91 1.215.729 1.333.536 1.48.34 1.605.14.784.017 1.622-.086 1.655-.23 1.71-.339 1.746-.463.73.248 1.23.463.193.16h5.633l-.09-1.07-.036-1.71.159-1.193.75-2.813.748-2.763.713-2.603.659-2.44.605-2.278.57-2.123.536-1.96.48-1.814.446-1.639.391-1.479.357-1.337.303-1.16.266-1.011.232-.841.18-.694.124-.533.086-.372h-6.502l-.372 1.441-.283-.25-.927-.519-1.232-.44-1.513-.322-1.835-.25-2.12-.124zm.283 7.626.784.055 1.425.39 1.355.748.462.394.858 1.14.302 1.334v.074l-.09 1.835-.232 1.69-.357 1.531-.514 1.372-.446.927-1 1.784-.995 1.407-.999 1.05-.604.43-1.408.656-1.655.395-1.925.103-1.086-.142-1.179-.498-.854-.892-.515-1.264-.163-1.658v-.535l.125-1.672.304-1.515.108-.322.57-1.62.763-1.583.965-1.553.143-.214 1.174-1.334 1.48-1.23 1.638-.962z"/><path style="fill:#fff;stroke:none;stroke-width:.672156;stroke-linecap:round;stroke-linejoin:round;stroke-miterlimit:10;stroke-dasharray:none;stroke-opacity:1" d="m886.15 64.236-2.533.672-2.529.448-2.47.224-2.48.056-2.349-.224-1.116-.224-1.042-.504-.828-.672-.672-.84-.473-.952-.204-1.12-.022-1.176.218-1.232 5.042-18.815h-5.099l1.936-7.223h5.098l2.656-9.912 9.36-2.52-3.331 12.432h8.068l-1.936 7.223h-8.068l-4.14 15.455-.125.672.115.616.257.504.456.392.541.28.601.056 1.711-.112 1.7-.28 1.689-.448z"/><path style="fill:#fff;stroke:none;stroke-width:.672235;stroke-linecap:round;stroke-linejoin:round;stroke-miterlimit:10;stroke-dasharray:none;stroke-opacity:1" d="M920.788 64.672H912.1l5.07-18.922.244-1.12.02-1.119-.178-1.008-.418-.951-.646-.728-1.042-.504-1.23-.224-1.304.056-1.308.28-1.353.448-1.19.672-1.121.84-.943 1.007-.733 1.064-.412 1.12-5.116 19.09h-8.688l11.91-44.45h8.689l-4.005 14.947 1.559-1.008 1.555-.784 1.679-.615 1.69-.448 1.614-.168h1.626l1.76.336 1.475.56 1.36.783 1.146.952.99 1.12.776 1.287.563 1.456.278 1.68.04 1.735-.2 1.791-.382 1.847z"/><g style="fill:#fff;stroke:none"><path d="M1123.055 286.774a13.752 13.752 0 0 1-13.752 13.752 13.752 13.752 0 0 1-13.752-13.752 13.752 13.752 0 0 1 13.752-13.752 13.752 13.752 0 0 1 13.752 13.752z" style="fill:#fff;fill-rule:evenodd;stroke:none;stroke-width:1.14052;stroke-linecap:round;stop-color:#000" transform="matrix(.3175 0 0 .3175 476.651 -66.303)"/><path style="fill:#fff;stroke:none;stroke-width:.651374;stroke-linecap:round;stroke-linejoin:round;stroke-miterlimit:10;stroke-opacity:1" d="m1090.675 312.518-21.954 81.981-.283 1.351-.211 1.742v1.788l.229 1.817.423 1.828.63 1.853.836 1.87 1.057 1.9 1.265 1.906 1.487 1.957h25.477l-.753-.957-1.147-1.649-.992-1.688-.835-1.77-.696-1.835-.552-1.892-.401-1.953-.24-2.01-.111-2.1.047-2.158 21.953-81.98zm0 0" transform="matrix(.3175 0 0 .3175 476.651 -66.303)"/></g><path d="m628.787 12.894.494 1.746 19.287-4.765-1.068-3.73zm0 0" style="fill:#fff;stroke:none;stroke-width:.136846;stroke-linecap:round;stroke-linejoin:round;stroke-miterlimit:10;stroke-opacity:1"/><path style="fill:#fff;stroke:none;stroke-width:.671776;stroke-linecap:round;stroke-linejoin:round;stroke-miterlimit:10;stroke-dasharray:none;stroke-opacity:1" d="m626.24 221.346 3.3-12.316h9.012l1.09.112.973.336.873.504.716.671.488.896.304.952.107 1.063-.132 1.12-.285 1.064-.468 1.12-.662 1.007-.83 1.008-.952.84-1.076.671-1.143.504-1.153.336-1.15.112zm15.58-20.546h-19.144l-11.91 44.45h9.068l4.2-15.675h10.077l1.765-.112 1.826-.335 1.773-.56 1.777-.784 1.767-.952 1.587-1.12 1.521-1.287 1.398-1.456 1.173-1.455 1.077-1.512.924-1.567.715-1.624.49-1.623.38-1.624.155-1.623-.084-1.568-.267-1.511-.393-1.456-.618-1.455-.83-1.288-.988-1.12-1.257-.951-1.357-.784-1.473-.56-1.646-.336z"/><path style="fill:#fff;stroke:none;stroke-width:.672572;stroke-linecap:round;stroke-linejoin:round;stroke-miterlimit:10;stroke-dasharray:none;stroke-opacity:1" d="m672.2 220.007 1.194.561.935.898.723 1.066.509 1.234.177 1.01-.006 1.065-.256 1.795-.41 1.74-.522 1.738-.705 1.795-.566 1.066-.718 1.01-1.171 1.234-1.294 1.066-1.416.897-1.48.505-1.348.224-1.172-.224-1.208-.505-.992-.897-.722-1.066-.454-1.234-.177-1.01.006-1.066.257-1.795.354-1.739.578-1.739.705-1.795.565-1.065.719-1.01 1.115-1.234 1.293-1.066 1.473-.898 1.494-.56 1.277-.169zm12.428 2.525-.022-.337-.303-1.795-.542-1.739-.826-1.514-1.025-1.403-1.252-1.178-1.286-.841-1.46-.617-1.544-.505-1.66-.28-1.707-.113-1.766.112-1.755.281-1.815.505-1.79.617-1.737.841-1.884 1.178-1.775 1.403-1.638 1.514-1.474 1.74-1.265 1.794-.202.337-1.162 2.244-.952 2.3-.728 2.3-.504 2.3-.28 2.3-.027 2.187.007.392.303 1.796.557 1.682.811 1.571 1.025 1.402 1.252 1.178 1.302.786 1.443.673 1.545.505 1.605.28 1.706.112 1.766-.112 1.811-.28 1.815-.505 1.805-.673 1.722-.786 1.884-1.178 1.776-1.402 1.652-1.57 1.46-1.683 1.264-1.796.218-.392 1.146-2.188.952-2.3.672-2.3.56-2.3.28-2.3z"/><path style="fill:#fff;stroke:none;stroke-width:.672522;stroke-linecap:round;stroke-linejoin:round;stroke-miterlimit:10;stroke-dasharray:none;stroke-opacity:1" d="M696.067 245.25h-8.679l8.507-31.75h8.68l-.843 3.142 1.35-1.066 1.416-.898 1.554-.785 1.591-.505 1.546-.336 1.542-.112h2.128l-2.21 8.245h-2.967l-1.262.113-1.322.336-1.27.561-1.26.73-1.065.84-1.013 1.067-.86 1.122-.667 1.234-.387 1.234z"/><path style="fill:#fff;stroke:none;stroke-width:.672154;stroke-linecap:round;stroke-linejoin:round;stroke-miterlimit:10;stroke-dasharray:none;stroke-opacity:1" d="m735.338 244.814-2.533.672-2.53.448-2.469.224-2.48.056-2.35-.224-1.116-.224-1.042-.504-.828-.672-.671-.84-.474-.952-.204-1.12-.021-1.176.218-1.232 5.041-18.815h-5.098l1.935-7.223h5.099l2.656-9.912 9.36-2.52-3.331 12.432h8.068l-1.936 7.223h-8.068l-4.141 15.455-.124.672.115.616.257.504.455.392.542.28.6.056 1.712-.112 1.7-.28 1.689-.448z"/><path style="fill:#fff;stroke:none;stroke-width:.671903;stroke-linecap:round;stroke-linejoin:round;stroke-miterlimit:10;stroke-dasharray:none;stroke-opacity:1" d="M779.094 200.8h9.072l-9.585 35.773h19.712l-2.325 8.677h-28.784z"/><path style="fill:#fff;stroke:none;stroke-width:2.63339;stroke-linecap:round;stroke-linejoin:round;stroke-miterlimit:10;stroke-opacity:1" d="m821.463 212.933-1.639.145-1.605.34-1.586.548-1.548.767-1.515.98-1.48 1.196-.407.373-1.247 1.283-1.158 1.354-1.034 1.443-.91 1.53-.785 1.604-.672 1.71-.057.143-.498 1.655-.41 1.622-.283 1.62-.181 1.622-.069 1.586.017.946.16 1.586.321 1.48.48 1.35.622 1.23.784 1.103.588.677 1.051.91 1.215.729 1.333.536 1.48.34 1.605.14.784.017 1.621-.085 1.656-.232 1.71-.338 1.746-.463.73.248 1.23.463.193.16h5.632l-.09-1.07-.036-1.71.16-1.193.75-2.813.748-2.763.712-2.603.66-2.44.604-2.278.57-2.123.537-1.96.48-1.814.446-1.639.39-1.479.357-1.337.303-1.16.266-1.01.232-.842.18-.694.124-.533.086-.371h-6.502l-.372 1.44-.283-.25-.927-.519-1.231-.44-1.514-.322-1.835-.25-2.12-.124zm.283 7.626.784.055 1.424.39 1.355.748.463.394.858 1.14.301 1.334v.074l-.09 1.834-.231 1.69-.357 1.532-.515 1.372-.445.927-1 1.784-.996 1.407-.999 1.05-.604.43-1.407.656-1.656.395-1.925.103-1.085-.142-1.18-.498-.854-.891-.514-1.265-.163-1.658v-.535l.124-1.672.305-1.515.107-.322.57-1.62.764-1.583.964-1.553.143-.214 1.174-1.334 1.48-1.23 1.638-.962z"/><path d="M894.816 205.326a4.366 4.366 0 0 1-4.366 4.366 4.366 4.366 0 0 1-4.366-4.366 4.366 4.366 0 0 1 4.366-4.366 4.366 4.366 0 0 1 4.366 4.366z" style="fill:#fff;fill-rule:evenodd;stroke:none;stroke-width:.362116;stroke-linecap:round;stop-color:#000"/><path style="fill:#fff;stroke:none;stroke-width:.206812;stroke-linecap:round;stroke-linejoin:round;stroke-miterlimit:10;stroke-opacity:1" d="m884.535 213.5-6.97 26.029-.09.429-.067.553v.568l.073.577.134.58.2.588.265.594.336.603.402.605.472.622h8.089l-.24-.304-.363-.524-.315-.535-.266-.563-.22-.582-.176-.6-.127-.621-.076-.638-.036-.667.015-.685 6.97-26.029zm0 0"/><path style="fill:#fff;stroke:none;stroke-width:.672572;stroke-linecap:round;stroke-linejoin:round;stroke-miterlimit:10;stroke-dasharray:none;stroke-opacity:1" d="m858.89 220.007 1.194.561.935.898.723 1.066.509 1.234.178 1.01-.006 1.065-.257 1.795-.41 1.74-.522 1.738-.705 1.795-.566 1.066-.719 1.01-1.17 1.234-1.294 1.066-1.416.897-1.48.505-1.348.224-1.172-.224-1.208-.505-.992-.897-.722-1.066-.454-1.234-.177-1.01.006-1.066.257-1.795.354-1.739.578-1.739.705-1.795.565-1.065.719-1.01 1.115-1.234 1.293-1.066 1.473-.898 1.494-.56 1.277-.169zm12.428 2.525-.022-.337-.303-1.795-.542-1.739-.826-1.514-1.025-1.403-1.252-1.178-1.287-.841-1.458-.617-1.545-.505-1.661-.28-1.706-.113-1.766.112-1.755.281-1.815.505-1.79.617-1.737.841-1.884 1.178-1.776 1.403-1.638 1.514-1.474 1.74-1.264 1.794-.203.337-1.16 2.244-.953 2.3-.728 2.3-.505 2.3-.28 2.3-.026 2.187.007.392.303 1.796.557 1.682.811 1.571 1.025 1.402 1.252 1.178 1.302.786 1.443.673 1.545.505 1.605.28 1.706.112 1.766-.112 1.811-.28 1.815-.505 1.805-.673 1.722-.786 1.884-1.178 1.776-1.402 1.652-1.57 1.46-1.683 1.264-1.796.218-.392 1.146-2.188.952-2.3.672-2.3.56-2.3.28-2.3z"/><path style="fill:#fff;stroke:none;stroke-width:.671957;stroke-linecap:round;stroke-linejoin:round;stroke-miterlimit:10;stroke-dasharray:none;stroke-opacity:1" d="m903.54 232.651-2.564-.672-1.224-.448-1.051-.672-.895-.84-.753-.951-.555-1.064-.413-1.176-.073-1.4.11-1.456.39-1.456.559-1.456.782-1.456.96-1.288 1.17-1.232 1.238-1.064 1.319-.952 1.442-.784 1.453-.616 1.505-.392 2.136-.447 2.076-.224h2.071l2.027.168 1.967.392 1.545.503 1.444.672 1.328.896 1.256.952 1.03 1.176-6.907 5.712-1.182-1.232-1.41-1.008-1.581-.784-.933-.28-1.02-.168h-1.063l-1.195.28-1.143.504-1.076.672-.598.56-.389.616-.139.728.059.616.242.56.567.392 3.5.728 3.24.448 1.228.224 1.224.448 1.082.56 1.037.728.865.952.666 1.063.47 1.176.214 1.288.017 1.4-.151 1.4-.446 1.456-.6 1.4-.822 1.4-1.103 1.4-1.242 1.288-1.379 1.176-1.502 1.008-1.554.784-2.363.671-2.36.448-2.356.224h-2.24l-2.236-.224-2.12-.448-1.85-.616-1.735-.84-1.507-1.063-1.35-1.232-1.178-1.456 7.888-5.824.846 1.232 1.059 1.064 1.23.84 1.389.672 1.504.448 1.62.224h1.511l1.17-.392 1.06-.616.64-.504.515-.672.251-.728.027-.728-.227-.616-.44-.448-1.958-.84-2.12-.448z"/><path style="fill:#fff;stroke:none;stroke-width:.671795;stroke-linecap:round;stroke-linejoin:round;stroke-miterlimit:10;stroke-dasharray:none;stroke-opacity:1" d="M935.17 225.764h12.873l.133-1.12-.107-1.064-.305-.952-.502-.84-.7-.728-.802-.56-.958-.392-1.06-.224h-1.12l-1.179.224-1.168.392-1.102.56-1.09.728-.953.84-.815.952-.676 1.064zm-1.913 7.56-.02 1.12.233 1.007.432.896.63.784.786.616 1.264.504 1.38.28 1.44.056 1.486-.112 1.56-.392 1.691-.672 1.64-.896 1.53-1.12 3.918 5.432-1.45 1.232-1.53 1.12-1.599.952-1.65.728-1.717.56-2.135.447-2.131.224-2.086.056-2.026-.168-1.91-.392-1.447-.447-1.346-.616-1.174-.84-1.032-.952-.932-1.12-.677-1.232-.591-1.344-.338-1.456-.243-2.016-.06-2.072.178-2.128.417-2.183.697-2.184.906-2.128 1.13-2.128 1.324-2.016 1.386-1.624 1.58-1.512 1.76-1.344 1.811-1.12 1.624-.84 1.707-.727 1.702-.504 1.698-.28 1.653-.112 1.608.056 1.548.28 1.503.448 1.347.616 1.174.84 1.17 1.063 1.013 1.232.73 1.456.546 1.512.277 1.68.109 2.52-.131 2.576-.425 2.632-.594 2.631h-21.156Z"/><path style="fill:#ffc90e;stroke:none;stroke-width:.95957;stroke-linecap:round;stroke-linejoin:round;stroke-miterlimit:10;stroke-dasharray:none;stroke-opacity:1;fill-opacity:1" d="m761.192-7.645 2.16-.96 2.082-1.2 1.84-1.519 1.682-1.68 1.36-2.158 1.12-2.32.881-2.479.48-2.56.24-2.558-.16-2.64-.4-2.559-.72-2.079-.96-1.92-1.361-1.759-1.6-1.52-1.842-1.199-2-.88 1.76-.96 1.6-1.119 1.442-1.44 1.2-1.599.88-1.76.641-1.839.4-2 .08-1.919-.24-2.399-.48-2.32-.8-2.318-1.041-2.08-1.44-2-1.602-1.759-1.84-1.519-2.322-1.44-2.401-1.2-2.561-.879-2.722-.72-2.641-.4-2.722-.08-2.801.08-2.642.4-2.64.72-2.562.88-2.482 1.2-2.32 1.439-1.842 1.52-1.6 1.759-1.361 2-1.12 2.079-.801 2.319-.48 2.32-.24 2.398.08 1.92.4 2 .64 1.839.96 1.76 1.121 1.599 1.44 1.44 1.602 1.119 1.76.96-2 .88-1.841 1.199-1.601 1.52-1.361 1.759-.96 1.92-.72 2.078-.401 2.56-.16 2.639.24 2.559.48 2.56.88 2.478 1.121 2.32 1.361 2.159 1.68 1.68 1.922 1.519 2 1.2 2.162.96 2.962.959 2.961.72 3.042.48 3.121.08 3.042-.08 3.041-.48 2.962-.72zm-3.522-48.224.56 1.2.32 1.279.16 1.28-.16 1.279-.32 1.28-.56 1.2-.72 1.039-1.121.96-1.281.64-1.76.64-1.762.399-1.84.16-1.842-.16-1.84-.4-1.762-.64-1.28-.64-1.04-.96-.801-1.039-.56-1.2-.32-1.279-.16-1.28.16-1.28.32-1.279.56-1.2.8-1.04 1.04-.959 1.281-.64 1.761-.64 1.841-.4 1.841-.08 1.841.08 1.761.4 1.761.64 1.28.64 1.121.96zm.16 35.908-1.12.96-2.322 1.04-2.561.64-2.642.24-2.641-.24-2.642-.64-2.32-1.04-1.121-.96-.8-1.2-.641-1.36-.4-1.359-.16-1.52.16-1.439.4-1.44.64-1.359.8-1.2 1.121-.96 2.321-1.039 2.642-.56 2.641-.32 2.642.32 2.56.56 2.322 1.04 1.12.96.881 1.2.64 1.359.32 1.44.16 1.439-.16 1.52-.32 1.359-.64 1.36z"/></g></svg>