<svg width="5233.687" height="2256" viewBox="0 0 1384.746 596.9" xmlns="http://www.w3.org/2000/svg"><g transform="matrix(1.5 0 0 1.5 -169.118 174.104)" style="display:inline"><rect style="display:inline;fill:#000;fill-opacity:1;fill-rule:evenodd;stroke-width:.264999;stroke-linecap:round;stop-color:#000" width="328.557" height="397.581" x="112.922" y="-115.893" rx="11.024"/><rect style="display:inline;fill:#000;fill-opacity:1;fill-rule:evenodd;stroke-width:.264999;stroke-linecap:round;stop-color:#000" width="499.181" height="397.581" x="536.553" y="-115.893" rx="11.024"/><rect style="display:inline;fill:#fff;fill-opacity:1;fill-rule:evenodd;stroke-width:.264999;stroke-linecap:round;stop-color:#000" width="327.852" height="396.875" x="113.274" y="-115.54" rx="10.583"/><rect style="display:inline;fill:#fff;fill-opacity:1;fill-rule:evenodd;stroke-width:.264999;stroke-linecap:round;stop-color:#000" width="498.475" height="396.875" x="536.905" y="-115.54" rx="10.583"/><rect style="display:inline;fill:#115ec6;fill-opacity:1;fill-rule:evenodd;stroke-width:.264999;stroke-linecap:round;stop-color:#000" height="381" x="121.212" y="-107.602" rx="21.167" width="311.977"/><rect style="display:inline;fill:#115ec6;fill-opacity:1;fill-rule:evenodd;stroke-width:.264999;stroke-linecap:round;stop-color:#000" height="381" x="544.843" y="-107.602" rx="21.167" width="482.6"/><path style="fill:#fff;stroke:none;stroke-width:.412975;stroke-linecap:round;stroke-linejoin:round;stroke-miterlimit:10;stroke-dasharray:none;stroke-opacity:1" d="M308.642 95.598h5.14l-5.431 23.848h11.17l-1.317 5.785h-16.312z"/><path style="fill:#fff;stroke:none;stroke-width:.413131;stroke-linecap:round;stroke-linejoin:round;stroke-miterlimit:10;stroke-dasharray:none;stroke-opacity:1" d="m258.658 124.94-1.435.448-1.434.298-1.399.15-1.405.037-1.332-.15-.632-.149-.59-.336-.47-.448-.38-.56-.269-.634-.115-.747-.012-.784.123-.821 2.857-12.543h-2.89l1.098-4.816h2.889l1.505-6.607 5.304-1.68-1.888 8.287h4.572l-1.097 4.816h-4.572l-2.346 10.303-.07.448.064.41.146.337.258.261.307.187.34.037.97-.075.963-.186.957-.299z"/><path style="fill:#fff;stroke:none;stroke-width:.413597;stroke-linecap:round;stroke-linejoin:round;stroke-miterlimit:10;stroke-dasharray:none;stroke-opacity:1" d="m205.475 111.768-.234.748-2.896 12.715h-4.924l4.821-21.167h4.924l-.34 1.496.883-.673.922-.56.92-.412.949-.262.923-.15.913.038.997.224.836.374.77.524.65.635.56.748.44.86.318.973.157 1.122.022 1.159-.114 1.197-.217 1.234-2.879 12.64h-4.924l2.87-12.603.14-.748.043-.748-.124-.71-.245-.599-.366-.486-.59-.336-.697-.15-.74.037-.732.15-.776.337-.674.448-.636.561-.534.673z"/><path style="fill:#fff;stroke:none;stroke-width:.413356;stroke-linecap:round;stroke-linejoin:round;stroke-miterlimit:10;stroke-dasharray:none;stroke-opacity:1" d="M276.706 125.23h-4.918l4.82-21.166h4.919l-.477 2.095.764-.711.803-.598.88-.524.902-.336.876-.225.874-.075h1.206l-1.252 5.498h-1.682l-.715.074-.75.225-.719.374-.713.486-.604.56-.574.711-.488.748-.378.823-.219.823z"/><path d="m160.056 104.677-.192.944-.26 1.216-.323 1.476-.397 1.727-3.451 15.191h4.623l3.617-15.874 1.145-5.028.213-.901.296-1.348.21-1.073.122-.804.036-.532-.054-.77-.204-.85-.361-.78-.515-.717-.572-.522-.692-.421-.74-.25-.802-.077-.646.031-.878.198-.876.335-.858.49-.074.053-.489.358-.905.718-1.32 1.04-.101-.162-.61-.944-.461-.683-.296-.435-.619-.543-.71-.348-.784-.108-.536.031-.793.143-.82.271-.84.39-.868.522-.887.63-.915.76.056-.435.065-.889.074-1.11h-5.123l-.118.61-.213 1.117-.213 1.108-.213 1.086-.21 1.075-.214 1.055-.213 1.041-.21 1.031-.213 1.01-.213.989-.202.988-.212.955-.213.957-.204.933-.211.912-3.36 14.767h4.947l.082-.348.38-1.508.351-1.445.332-1.358.313-1.28.296-1.216.276-1.129.249-1.054.24-.978.212-.889.195-.825.166-.752.157-.661.128-.596.112-.512.074-.303.213-.922.23-1.045.267-1.17.193-.957.278-1.173.267-.934.25-.693.45-.794.648-.672.767-.414.885-.129.654.074.601.285.406.498.204.717.009.933-.184 1.14-4.578 20.11h4.854l.13-.445.192-.728.204-.77.213-.825.222-.87.23-.923.24-.954.24-1.02.25-1.066.266-1.107.26-1.163.276-1.205.286-1.25.287-1.302.294-1.344.065-.296.248-1.086.231-1.01.213-.943.027-.153.251-1.205.267-1.01.269-.815.044-.097.489-.836.648-.596.802-.358.95-.122.85.088.7.316.436.532.147.76-.01.118-.064.435z" style="display:inline;fill:#fff;fill-opacity:1;fill-rule:evenodd;stroke:none;stroke-width:.243067"/><path style="fill:#fff;stroke:none;stroke-width:1.61858;stroke-linecap:round;stroke-linejoin:round;stroke-miterlimit:10;stroke-opacity:1" d="m178.462 103.686-.928.097-.91.227-.899.365-.877.511-.859.653-.838.798-.23.249-.708.855-.656.902-.585.962-.516 1.02-.445 1.07-.38 1.14-.033.095-.282 1.104-.233 1.08-.16 1.08-.103 1.082-.039 1.058.01.63.09 1.057.182.987.272.9.352.82.445.736.333.45.596.608.688.485.755.358.839.226.91.094.444.011.918-.057.939-.154.969-.225.989-.31.414.166.697.309.109.106h3.192l-.051-.713-.02-1.14.09-.795.425-1.875.424-1.843.403-1.735.374-1.626.343-1.52.323-1.415.304-1.306.272-1.21.252-1.092.222-.986.202-.891.172-.774.15-.674.132-.56.102-.463.07-.355.049-.248h-3.685l-.21.96-.16-.166-.526-.347-.698-.293-.858-.215-1.04-.166-1.2-.083zm.16 5.084.445.037.807.26.768.498.262.263.486.76.17.89v.048l-.05 1.224-.132 1.126-.202 1.021-.291.915-.253.618-.566 1.19-.564.937-.566.7-.343.286-.797.438-.939.263-1.09.069-.616-.095-.668-.332-.484-.594-.292-.843-.092-1.105v-.357l.07-1.115.173-1.01.061-.214.323-1.08.433-1.056.547-1.035.08-.143.666-.889.838-.82.929-.64zM332.65 103.686l-.928.097-.91.227-.898.365-.878.511-.858.653-.838.798-.231.249-.707.855-.656.902-.586.962-.515 1.02-.446 1.07-.38 1.14-.033.095-.282 1.104-.232 1.08-.16 1.08-.103 1.082-.039 1.058.009.63.09 1.057.183.987.272.9.352.82.444.736.334.45.595.608.688.485.756.358.838.226.91.094.444.011.919-.057.938-.154.97-.225.989-.31.414.166.696.309.11.106h3.191l-.05-.713-.02-1.14.09-.795.425-1.875.423-1.843.404-1.735.373-1.626.343-1.52.323-1.415.304-1.306.273-1.21.252-1.092.221-.986.203-.891.171-.774.151-.674.132-.56.102-.463.07-.355.048-.248h-3.684l-.21.96-.161-.166-.526-.347-.697-.293-.858-.215-1.04-.166-1.201-.083zm.16 5.084.445.037.807.26.768.498.262.263.486.76.171.89v.049l-.05 1.223-.132 1.126-.202 1.021-.292.915-.252.618-.567 1.19-.564.937-.566.7-.342.287-.798.437-.938.263-1.09.069-.616-.095-.668-.331-.484-.595-.292-.842-.092-1.106v-.357l.07-1.115.173-1.01.06-.214.323-1.08.433-1.056.547-1.035.081-.143.665-.889.839-.82.928-.64z"/><path d="M199.338 98.615a2.474 2.91 0 0 1-2.474 2.91 2.474 2.91 0 0 1-2.474-2.91 2.474 2.91 0 0 1 2.474-2.91 2.474 2.91 0 0 1 2.474 2.91z" style="fill:#fff;fill-rule:evenodd;stroke:none;stroke-width:.222569;stroke-linecap:round;stop-color:#000"/><path style="fill:#fff;stroke:none;stroke-width:.127114;stroke-linecap:round;stroke-linejoin:round;stroke-miterlimit:10;stroke-opacity:1" d="m193.513 104.064-3.95 17.353-.051.286-.038.368v.379l.041.384.076.387.114.392.15.396.19.402.228.404.267.414h4.584l-.135-.202-.207-.35-.178-.357-.15-.374-.126-.389-.099-.4-.072-.414-.043-.425-.02-.445.008-.456 3.95-17.353zm0 0"/><path d="M230.644 98.615a2.474 2.91 0 0 1-2.474 2.91 2.474 2.91 0 0 1-2.474-2.91 2.474 2.91 0 0 1 2.474-2.91 2.474 2.91 0 0 1 2.474 2.91z" style="fill:#fff;fill-rule:evenodd;stroke:none;stroke-width:.222569;stroke-linecap:round;stop-color:#000"/><path style="fill:#fff;stroke:none;stroke-width:.127114;stroke-linecap:round;stroke-linejoin:round;stroke-miterlimit:10;stroke-opacity:1" d="m224.818 104.064-3.95 17.353-.05.286-.039.368v.379l.042.384.076.387.113.392.15.396.19.402.228.404.268.414h4.584l-.136-.202-.206-.35-.179-.357-.15-.374-.125-.389-.1-.4-.072-.414-.043-.425-.02-.445.008-.456 3.95-17.353zm0 0"/><path d="M273.644 98.615a2.474 2.91 0 0 1-2.474 2.91 2.474 2.91 0 0 1-2.474-2.91 2.474 2.91 0 0 1 2.474-2.91 2.474 2.91 0 0 1 2.474 2.91z" style="fill:#fff;fill-rule:evenodd;stroke:none;stroke-width:.222569;stroke-linecap:round;stop-color:#000"/><path style="fill:#fff;stroke:none;stroke-width:.127114;stroke-linecap:round;stroke-linejoin:round;stroke-miterlimit:10;stroke-opacity:1" d="m267.818 104.064-3.95 17.353-.05.286-.038.368v.379l.04.384.077.387.113.392.15.396.19.402.228.404.268.414h4.584l-.136-.202-.206-.35-.179-.357-.15-.374-.125-.389-.1-.4-.071-.414-.044-.425-.02-.445.008-.456 3.95-17.353zm0 0"/><path style="fill:#fff;stroke:none;stroke-width:.413009;stroke-linecap:round;stroke-linejoin:round;stroke-miterlimit:10;stroke-dasharray:none;stroke-opacity:1" d="m235.587 116.832-1.452-.448-.694-.3-.596-.447-.507-.56-.427-.635-.314-.709-.234-.784-.041-.933.062-.97.221-.971.316-.971.444-.97.544-.86.663-.82.701-.71.748-.634.817-.523.823-.41.853-.262 1.21-.299 1.177-.149h1.174l1.148.112 1.115.261.875.336.818.448.753.598.712.634.583.784-3.913 3.808-.67-.821-.8-.672-.895-.523-.53-.187-.576-.112h-.603l-.677.187-.648.336-.61.448-.339.373-.22.41-.079.486.033.41.137.374.322.262 1.983.485 1.836.298.696.15.694.298.613.374.587.485.49.635.378.709.266.784.122.859.01.933-.086.933-.253.97-.34.934-.466.933-.625.934-.703.858-.781.784-.851.672-.881.523-1.34.448-1.337.298-1.335.15h-1.27l-1.266-.15-1.201-.298-1.05-.411-.982-.56-.854-.71-.765-.82-.667-.971 4.47-3.883.479.822.6.709.697.56.787.448.852.299.918.149h.857l.662-.261.601-.411.362-.336.293-.448.142-.485.015-.486-.128-.41-.25-.299-1.11-.56-1.2-.299z"/><path style="fill:#fff;stroke:none;stroke-width:.413388;stroke-linecap:round;stroke-linejoin:round;stroke-miterlimit:10;stroke-dasharray:none;stroke-opacity:1" d="m353.86 108.402.676.374.53.599.41.71.288.823.1.673-.003.71-.145 1.197-.232 1.16-.296 1.159-.4 1.197-.32.71-.407.673-.664.823-.733.71-.803.599-.838.336-.764.15-.664-.15-.685-.336-.562-.599-.409-.71-.257-.823-.1-.673.003-.71.145-1.197.2-1.16.328-1.159.4-1.196.32-.711.407-.673.632-.823.733-.71.835-.599.846-.374.724-.112zm7.042 1.683-.013-.224-.171-1.197-.308-1.16-.468-1.009-.58-.935-.71-.785-.729-.561-.826-.411-.876-.337-.941-.187-.967-.075-1 .075-.995.187-1.029.337-1.014.41-.984.562-1.068.785-1.006.935-.928 1.01-.835 1.16-.717 1.196-.115.224-.658 1.496-.54 1.533-.412 1.534-.286 1.533-.159 1.533-.014 1.459.004.261.171 1.197.316 1.122.46 1.047.58.935.71.785.737.524.818.449.876.336.91.187.966.075 1-.075 1.027-.187 1.029-.336 1.022-.45.976-.523 1.068-.785 1.006-.935.937-1.047.826-1.122.717-1.197.123-.261.65-1.459.54-1.533.38-1.533.318-1.534.159-1.533z"/><path d="M374.217 98.615a2.474 2.91 0 0 1-2.474 2.91 2.474 2.91 0 0 1-2.474-2.91 2.474 2.91 0 0 1 2.474-2.91 2.474 2.91 0 0 1 2.474 2.91z" style="fill:#fff;fill-rule:evenodd;stroke:none;stroke-width:.222569;stroke-linecap:round;stop-color:#000"/><path style="fill:#fff;stroke:none;stroke-width:.127114;stroke-linecap:round;stroke-linejoin:round;stroke-miterlimit:10;stroke-opacity:1" d="m368.392 104.064-3.95 17.353-.051.286-.038.368v.379l.041.384.076.387.114.392.15.396.19.402.228.404.267.414h4.584l-.135-.202-.207-.35-.178-.357-.15-.374-.126-.389-.099-.4-.072-.414-.043-.425-.02-.445.008-.456 3.95-17.353zm0 0"/><path style="fill:#fff;stroke:none;stroke-width:.413009;stroke-linecap:round;stroke-linejoin:round;stroke-miterlimit:10;stroke-dasharray:none;stroke-opacity:1" d="m379.161 116.832-1.453-.448-.693-.3-.596-.447-.507-.56-.427-.635-.315-.709-.233-.784-.042-.933.063-.97.22-.971.317-.971.443-.97.545-.86.663-.82.7-.71.748-.634.817-.523.824-.41.852-.262 1.21-.299 1.177-.149h1.174l1.149.112 1.114.261.876.336.818.448.752.598.712.634.583.784-3.913 3.808-.67-.821-.799-.672-.896-.523-.529-.187-.577-.112h-.603l-.677.187-.648.336-.61.448-.338.373-.22.41-.08.486.034.41.137.374.321.262 1.984.485 1.836.298.696.15.693.298.613.374.588.485.49.635.378.709.265.784.122.859.01.933-.085.933-.253.97-.34.934-.466.933-.625.934-.703.858-.782.784-.851.672-.88.523-1.34.448-1.337.298-1.335.15h-1.27l-1.267-.15-1.2-.298-1.05-.411-.983-.56-.854-.71-.764-.82-.668-.971 4.47-3.883.48.822.6.709.697.56.786.448.852.299.918.149h.857l.663-.261.6-.411.363-.336.292-.448.143-.485.015-.486-.129-.41-.25-.299-1.109-.56-1.201-.299z"/><path style="fill:#fff;stroke:none;stroke-width:.412909;stroke-linecap:round;stroke-linejoin:round;stroke-miterlimit:10;stroke-dasharray:none;stroke-opacity:1" d="M397.085 112.24h7.295l.075-.747-.061-.71-.173-.634-.284-.56-.397-.485-.454-.373-.544-.262-.6-.149h-.634l-.668.15-.663.26-.624.374-.618.485-.54.56-.461.635-.384.71zM396 117.28l-.012.746.132.672.245.597.357.523.445.41.717.337.782.186.816.038.842-.075.884-.261.958-.448.929-.598.868-.746 2.22 3.62-.822.822-.867.747-.906.634-.935.486-.973.373-1.21.299-1.208.149-1.182.037-1.148-.112-1.082-.261-.82-.299-.763-.41-.665-.56-.585-.635-.528-.747-.383-.82-.336-.897-.19-.97-.139-1.344-.034-1.382.101-1.418.236-1.456.395-1.456.514-1.419.64-1.418.75-1.344.786-1.083.896-1.008.996-.896 1.027-.746.92-.56.967-.485.965-.336.962-.187.937-.075.911.037.877.187.852.299.763.41.665.56.663.71.574.82.414.972.31 1.007.157 1.12.06 1.68-.073 1.718-.241 1.754-.336 1.755h-11.989z"/><rect style="fill:#fff;fill-opacity:1;fill-rule:evenodd;stroke:none;stroke-width:2.74455;stroke-linecap:round;stroke-miterlimit:4;stroke-dasharray:none;stop-color:#000" width="70.908" height="63.5" x="346.405" y="196.668" rx="7.937"/><rect style="fill:#000;fill-opacity:1;fill-rule:evenodd;stroke:none;stroke-width:2.74456;stroke-linecap:round;stroke-miterlimit:4;stroke-dasharray:none;stop-color:#000" width="65.617" height="58.208" x="349.051" y="199.314" rx="5.821"/><path style="fill:#fff;stroke:none;stroke-width:.448227;stroke-linecap:round;stroke-linejoin:round;stroke-miterlimit:10;stroke-dasharray:none;stroke-opacity:1" d="M367.916 160.382 374 170.21h7.132l-9.633-15.62 8.624-14.013h-7.13l-5.078 8.22-5.078-8.22h-7.131l8.662 14.013-9.633 15.62h7.131z"/><path style="fill:#fff;stroke:none;stroke-width:.447935;stroke-linecap:round;stroke-linejoin:round;stroke-miterlimit:10;stroke-dasharray:none;stroke-opacity:1" d="M289.628 140.577h6.048v23.848h13.142v5.785h-19.19z"/><path d="m194.59 157.43-.523-.86-.635-.784-.747-.71-.823-.56-.896-.45.784-.522.71-.673.56-.747.487-.822.336-.897.224-.934.075-.972-.075-.972-.224-.934-.374-.971-.485-.972-.636-.86-.71-.822-.822-.672-.897-.598-.934-.486-1.046-.336-1.046-.224-1.047-.075h-13.938v29.633h14.536l1.308-.15 1.233-.26 1.233-.487 1.159-.598 1.046-.747.86-.86.747-.971.598-1.084.41-1.158.262-1.196.075-1.233-.037-1.046-.15-1.01-.261-1.008zM178 152.497v-6.278h6.726l.71.075.673.224.598.374.486.486.373.598.224.672.075.71-.075.673-.224.673-.373.598-.486.485-.598.411-.673.225-.71.074zm0 12.07v-7.399h7.025l.71.038.71.224.635.336.56.486.45.56.336.636.224.673.075.747-.075.71-.224.71-.337.635-.448.56-.56.45-.636.336-.71.224-.71.074H178M225.494 157.43l-.523-.86-.636-.784-.747-.71-.822-.56-.897-.45.785-.522.71-.673.56-.747.486-.822.336-.897.225-.934.074-.972-.074-.972-.225-.934-.373-.971-.486-.972-.635-.86-.71-.822-.822-.672-.897-.598-.934-.486-1.047-.336-1.046-.224-1.046-.075H202.81v29.633h14.536l1.308-.15 1.234-.26 1.233-.487 1.158-.598 1.046-.747.86-.86.747-.971.598-1.084.411-1.158.262-1.196.074-1.233-.037-1.046-.15-1.01-.261-1.008zm-16.592-4.933v-6.278h6.727l.71.075.672.224.598.374.486.486.374.598.224.672.074.71-.074.673-.224.673-.374.598-.486.485-.598.411-.672.225-.71.074zm0 12.07v-7.399h7.026l.71.038.71.224.635.336.56.486.449.56.336.636.224.673.075.747-.075.71-.224.71-.336.635-.449.56-.56.45-.635.336-.71.224-.71.074h-7.026" style="fill:#fff;stroke:none;stroke-width:.44842;stroke-linecap:round;stroke-linejoin:round;stroke-miterlimit:10;stroke-dasharray:none;stroke-opacity:1"/><path style="fill:#fff;stroke:none;stroke-width:.448232;stroke-linecap:round;stroke-linejoin:round;stroke-miterlimit:10;stroke-dasharray:none;stroke-opacity:1" d="M254.246 164.418h-14.524v-6.502h12.134v-5.493h-12.134v-6.091h13.404v-5.755h-19.49v29.633h20.61zM335.103 164.418h-14.524v-6.502h12.134v-5.493h-12.134v-6.091h13.403v-5.755h-19.49v29.633h20.61z"/><path d="M148.232 140.577h7.878l9.895 29.633h-6.646l-1.606-5.231H146.59l-1.605 5.231h-6.646zm3.92 6.203-3.957 12.967h7.953z" style="fill:#fff;stroke:none;stroke-width:.448236;stroke-linecap:round;stroke-linejoin:round;stroke-miterlimit:10;stroke-dasharray:none;stroke-opacity:1"/><path style="fill:#fff;stroke:none;stroke-width:.447865;stroke-linecap:round;stroke-linejoin:round;stroke-miterlimit:10;stroke-dasharray:none;stroke-opacity:1" d="M349.361 140.577v29.633h-6.046v-29.633Z"/><path style="fill:#fff;stroke:none;stroke-width:.448433;stroke-linecap:round;stroke-linejoin:round;stroke-miterlimit:10;stroke-dasharray:none;stroke-opacity:1" d="m268.22 158.514-9.941-17.937h6.95l6.055 10.874 6.016-10.874h6.951l-9.94 17.937v11.696h-6.092z"/><path style="fill:#fff;stroke:none;stroke-width:.448329;stroke-linecap:round;stroke-linejoin:round;stroke-miterlimit:10;stroke-dasharray:none;stroke-opacity:1" d="M148.653 16.102H143.5l4.766-17.788h5.155l1.025.075.939.262.87.373.795.524.651.635.5.785.367.859.198.934.066 1.01-.12 1.42-.268 1.42-.39 1.457-.54 1.457-.68 1.42-.586.934-.736.934-.818.823-.9.71-.992.635-1.026.486-1.024.336-1.069.224zm-1.666 5.941 1.402-.074 1.48-.225 1.444-.373 1.448-.523 1.44-.636 1.368-.784 1.324-.897 1.278-1.01 1.16-1.12 1.067-1.196.976-1.27.836-1.308.707-1.383.654-1.607.543-1.607.43-1.607.329-1.644.206-1.607.025-1.345-.125-1.345-.295-1.27-.427-1.197-.568-1.083-.739-1.01-.833-.933-.957-.748-1.09-.672-1.167-.524-1.255-.336-1.359-.224-1.362-.075h-11.169l-7.94 29.633z"/><path style="fill:#fff;stroke:none;stroke-width:.448347;stroke-linecap:round;stroke-linejoin:round;stroke-miterlimit:10;stroke-dasharray:none;stroke-opacity:1" d="M195.259 22.043h-5.786L195.144.877h5.786l-.56 2.094.899-.71.944-.599 1.036-.523 1.06-.337 1.032-.224 1.027-.075h1.419L206.314 6h-1.978l-.842.075-.881.224-.847.374-.84.486-.71.561-.675.71-.574.749-.444.823-.258.822z"/><path style="fill:#fff;stroke:none;stroke-width:1.75559;stroke-linecap:round;stroke-linejoin:round;stroke-miterlimit:10;stroke-opacity:1" d="m178.738.498-1.092.097-1.07.227-1.058.365-1.032.512-1.01.652-.986.798-.272.249-.831.855-.772.903-.69.962-.606 1.02-.524 1.07-.448 1.14-.038.094-.331 1.104-.274 1.08-.189 1.081-.12 1.081-.046 1.058.01.63.107 1.058.215.986.32.9.414.821.523.735.392.451.7.607.81.485.89.358.986.227 1.07.094.522.01 1.081-.056 1.104-.155 1.14-.225 1.164-.31.487.167.82.308.128.106h3.755l-.06-.712-.023-1.14.105-.796.501-1.875.498-1.842.475-1.735.44-1.627.403-1.519.38-1.415.358-1.307.32-1.209.297-1.093.26-.986.238-.891.202-.773.178-.674.154-.561.12-.463.083-.355.057-.248h-4.334l-.248.96-.189-.166-.618-.346-.82-.294-1.01-.214-1.223-.166-1.414-.083zm.188 5.084.523.037.95.26.903.499.308.262.572.76.202.89v.049l-.06 1.223-.155 1.127-.238 1.02-.343.916-.297.617-.667 1.19-.663.938-.666.7-.403.286-.938.438-1.104.263-1.283.068-.724-.094-.786-.332-.57-.594-.343-.843-.108-1.105v-.358l.083-1.114.203-1.01.072-.214.379-1.08.51-1.056.643-1.035.095-.143.783-.89.986-.82 1.092-.64z"/><path style="fill:#fff;stroke:none;stroke-width:.448104;stroke-linecap:round;stroke-linejoin:round;stroke-miterlimit:10;stroke-dasharray:none;stroke-opacity:1" d="M213.026.877h5.79l-3.381 12.618-.126.746-.05.747.118.672.279.634.467.486.695.336.791.112h.86l.909-.187.864-.299.83-.448.71-.56.666-.671.451-.71.275-.746 3.411-12.73h5.79l-5.672 21.166h-5.79l.4-1.493-1.001.672-1.074.523-1.119.41-1.088.3-1.113.111h-1.084l-1.172-.224-.984-.373-.868-.523-.801-.634-.622-.747-.554-.859-.375-.97-.148-1.12-.026-1.157.106-1.232.245-1.195z"/><path style="fill:#fff;fill-opacity:1;fill-rule:evenodd;stroke:none;stroke-width:.283385" d="m219.562-2.558.31.995 7.614-1.74-.558-2.066zm0 0"/><path style="fill:#fff;stroke:none;stroke-width:.448262;stroke-linecap:round;stroke-linejoin:round;stroke-miterlimit:10;stroke-dasharray:none;stroke-opacity:1" d="M314.913 67.023h-7.618l-6.908-29.634h6.236l4.742 20.366 4.257-20.366h7.058l4.257 20.366 4.742-20.366h6.236l-6.908 29.634h-7.618l-4.22-20.329z"/><path style="fill:#fff;stroke:none;stroke-width:.448329;stroke-linecap:round;stroke-linejoin:round;stroke-miterlimit:10;stroke-dasharray:none;stroke-opacity:1" d="M153.167 61.081h-5.154V43.294h5.154l1.046.074 1.009.262.971.374.934.523.822.635.71.785.597.86.448.933.336 1.01.262 1.42.112 1.42v1.457l-.15 1.457-.298 1.42-.337.934-.485.935-.598.822-.71.71-.821.635-.897.486-.934.336-1.008.224zm-.074 5.942 1.382-.075 1.42-.224 1.344-.374 1.307-.523 1.27-.635 1.158-.785 1.083-.897 1.009-1.009.859-1.121.747-1.196.635-1.27.486-1.308.336-1.383.224-1.607.112-1.607v-1.606l-.112-1.645-.224-1.607-.336-1.345-.486-1.345-.635-1.27-.747-1.196-.86-1.084-1.008-1.009-1.083-.934-1.158-.748-1.27-.672-1.307-.523-1.345-.337-1.42-.224-1.381-.075h-11.169v29.634z"/><path style="fill:#fff;stroke:none;stroke-width:.447881;stroke-linecap:round;stroke-linejoin:round;stroke-miterlimit:10;stroke-dasharray:none;stroke-opacity:1" d="m285.12 43.323.784.523.71.597.634.71.522.746.41.82.3.896.373 1.493.224 1.53.037 1.568-.037 1.53-.224 1.53-.374 1.53-.298.859-.41.858-.523.747-.635.709-.709.597-.784.485-.858.373-.896.299-.933.15-.933.074-.934-.075-.933-.15-.895-.298-.859-.373-.784-.485-.709-.597-.634-.71-.523-.746-.41-.858-.337-.858-.335-1.53-.224-1.53-.038-1.531.038-1.568.224-1.53.335-1.493.336-.895.411-.821.523-.747.634-.709.71-.597.783-.523.859-.373.895-.261.933-.187.934-.037.933.037.933.187.896.261zm10.488 7.8-.112-1.567-.26-1.567-.411-1.53-.598-1.493-.709-1.419-.858-1.343-.97-1.232-1.12-1.157-1.195-.896-1.306-.746-1.344-.597-1.418-.485-1.493-.262-1.456-.149h-1.717l-1.493.15-1.456.26-1.418.486-1.381.597-1.269.746-1.194.896-1.12 1.157-.97 1.232-.86 1.343-.746 1.419-.56 1.492-.41 1.53-.299 1.568-.112 1.568v2.127l.112 1.605.299 1.567.41 1.53.56 1.493.747 1.419.858 1.306.97 1.269 1.12 1.12 1.195.895 1.269.784 1.381.597 1.418.448 1.456.298 1.493.15h1.717l1.456-.15 1.493-.298 1.418-.448 1.344-.597 1.306-.784 1.195-.896 1.12-1.12.97-1.268.858-1.306.71-1.419.597-1.493.41-1.53.261-1.567.112-1.605z"/><path style="fill:#fff;stroke:none;stroke-width:.447958;stroke-linecap:round;stroke-linejoin:round;stroke-miterlimit:10;stroke-dasharray:none;stroke-opacity:1" d="M212.915 42.876h7.057l.71.074.634.224.635.299.523.448.448.522.299.635.224.634.074.71-.074.67-.224.673-.3.597-.447.56-.523.41-.635.336-.634.224-.71.037h-7.057zm-6.048-5.487v29.634h6.048v-11.57h3.958l6.758 11.57h7.057l-7.094-12.093 1.083-.485 1.045-.634.934-.747.821-.895.71-.97.56-1.046.448-1.12.261-1.156.112-1.195-.037-1.231-.224-1.157-.336-1.157-.523-1.083-.672-1.007-.747-.933-.896-.784-1.008-.672-1.083-.56-1.12-.373-1.195-.261-1.195-.075zM244.242 42.876h7.057l.71.074.634.224.635.299.523.448.448.522.298.635.224.634.075.71-.075.67-.224.673-.298.597-.448.56-.523.41-.635.336-.635.224-.71.037h-7.056zm-6.049-5.487v29.634h6.049v-11.57h3.958l6.758 11.57h7.057L254.92 54.93l1.082-.485 1.046-.634.933-.747.822-.895.71-.97.56-1.046.447-1.12.262-1.156.112-1.195-.038-1.231-.224-1.157-.336-1.157-.522-1.083-.673-1.007-.746-.933-.896-.784-1.009-.672-1.082-.56-1.12-.373-1.195-.261-1.195-.075z"/><path style="fill:#fff;stroke:none;stroke-width:.448246;stroke-linecap:round;stroke-linejoin:round;stroke-miterlimit:10;stroke-dasharray:none;stroke-opacity:1" d="m197.607 56.821-.224 1.383-.374 1.308-.56 1.27-.635 1.196-.821 1.12-.896 1.047-1.046.934-1.12.785-1.195.673-1.27.523-1.344.374-1.344.224-1.381.075-1.382-.075-1.344-.224-1.307-.374-1.307-.523-1.195-.673-1.12-.785-1.008-.934-.933-1.046-.784-1.121-.673-1.196-.522-1.27-.374-1.308-.261-1.383-.075-1.383V37.39h6.086v18.05l.075 1.008.224.935.374.896.522.822.635.748.71.635.858.523.896.374.934.224.97.075.972-.075.97-.224.897-.374.821-.523.747-.635.635-.748.485-.822.373-.896.224-.935.075-1.009V37.39h6.086v18.05z"/><path style="display:inline;fill:#fff;fill-opacity:1;fill-rule:evenodd;stroke:none;stroke-width:.705712;stroke-linecap:round;stroke-linejoin:round;stroke-miterlimit:10;stroke-opacity:1" d="m162.115-79.418 43.764 43.763-10.042 10.043-43.764-43.764.065 19.963-14.955-14.954-.096-30.006 30.099.003 14.954 14.955z"/><path style="display:inline;fill:#fff;stroke:none;stroke-width:.640066;stroke-linecap:round;stroke-linejoin:round;stroke-miterlimit:10;stroke-dasharray:none;stroke-opacity:1" d="M362.827 220.954h-7.043v-7.25l3.468-.32 1.067-.267.96-.48.855-.693.587-.907.426-.96.694-2.825h7.684v42.333h-8.698z"/><path style="display:inline;fill:#fff;stroke:none;stroke-width:.639714;stroke-linecap:round;stroke-linejoin:round;stroke-miterlimit:10;stroke-dasharray:none;stroke-opacity:1" d="M379.475 215.09v-7.838h29.796v7.837l-14.285 34.496h-9.381l14.285-34.496z"/><path style="display:inline;fill:#fff;stroke:none;stroke-width:.336247;stroke-linecap:round;stroke-linejoin:round;stroke-miterlimit:10;stroke-dasharray:none;stroke-opacity:1" d="m179.991 252.495-3.95-6.193-1.709 1.765v4.428h-4.342V230.27h4.342v11.912l5.52-5.55h5.798l-6.471 6.53 5.939 9.333z"/><path style="display:inline;fill:#fff;stroke:none;stroke-width:.336258;stroke-linecap:round;stroke-linejoin:round;stroke-miterlimit:10;stroke-dasharray:none;stroke-opacity:1" d="M192.482 236.62h-4.34v15.875h4.34v-9.536l.056-.56.224-.534.336-.504.447-.421.504-.337.896-.308.336-.028.308.028.14.028.588.252.42.365.336.449.224.533.14.56.028.561v9.452h4.34v-9.536l.055-.56.196-.534.364-.504.448-.421.504-.337.896-.308.308-.028.336.028.112.028.588.252.42.365.364.449.223.533.112.56.028.562v9.452h4.34v-9.48l-.028-.926-.168-.898-.252-.87-.364-.84-.476-.73-.56-.645-.644-.56-.7-.478-.756-.392-.811-.28-.924-.169-.7-.028-.7.084-.7.14-.644.225-.644.308-.588.42-.532.478-.476.56-.391-.616-.476-.505-.56-.421-.644-.309-.504-.168-.924-.168-.812-.028-.784.112-.784.196-.728.309-.7.42-.643.505z"/><path style="display:inline;fill:#fff;stroke:none;stroke-width:.640066;stroke-linecap:round;stroke-linejoin:round;stroke-miterlimit:10;stroke-dasharray:none;stroke-opacity:1" d="M146.932 223.6h-7.044v-7.251l3.469-.32 1.067-.267.96-.48.854-.693.587-.906.427-.96.694-2.825h7.684v42.333h-8.698z"/><path style="fill:#fff;fill-opacity:1;stroke:none;stroke-width:.596685;stroke-linecap:round;stroke-linejoin:round;stroke-miterlimit:10;stroke-dasharray:none;stroke-opacity:1" d="M236.199-81.144h-8.58v42.333h7.513v-28.63l16.463 28.63h8.625v-42.333h-7.558v28.631z"/><path style="fill:#fff;fill-opacity:1;stroke:none;stroke-width:.447914;stroke-linecap:round;stroke-linejoin:round;stroke-miterlimit:10;stroke-dasharray:none;stroke-opacity:1" d="M275.392-74.798h13.958L278.153-38.81h7.203l11.197-35.987v-6.346h-21.161z"/><path style="display:inline;fill:#fff;fill-opacity:1;stroke:none;stroke-width:.447914;stroke-linecap:round;stroke-linejoin:round;stroke-miterlimit:10;stroke-dasharray:none;stroke-opacity:1" d="M305.025-74.798h13.958L307.787-38.81h7.203l11.196-35.987v-6.346h-21.161z"/><path style="fill:#fff;fill-opacity:1;stroke:none;stroke-width:.447914;stroke-linecap:round;stroke-linejoin:round;stroke-miterlimit:10;stroke-dasharray:none;stroke-opacity:1" d="M796.692 224.181h13.958l-11.197 35.987h7.203l11.197-35.987v-6.346h-21.161z"/><path style="fill:#fff;fill-opacity:1;stroke:none;stroke-width:.448173;stroke-linecap:round;stroke-linejoin:round;stroke-miterlimit:10;stroke-dasharray:none;stroke-opacity:1" d="M754.36 260.168v-42.333h10.154l5.525 21.185 5.487-21.185h10.155v42.333h-6.758V226.28l-6.234 24.175h-5.3l-6.235-24.175v33.89z"/><path style="fill:#fff;stroke:none;stroke-width:.264583" d="m666.551 228.418-34.396 10.584v-15.875H610.99v15.875l-34.396-10.584 44.979 31.75z"/><path style="display:inline;fill:#fff;stroke:none;stroke-width:.264583" d="m995.693 228.418-34.396 10.584v-15.875H940.13v15.875l-34.395-10.584 44.979 31.75z"/><path style="display:inline;fill:#fff;stroke:none;stroke-width:.448609;stroke-linecap:round;stroke-linejoin:round;stroke-miterlimit:10;stroke-dasharray:none;stroke-opacity:1" d="m932.906 117.06-.276.748-3.407 12.714h-5.792l5.671-21.166h5.793l-.4 1.496 1.04-.673 1.084-.561 1.082-.412 1.116-.261 1.087-.15 1.073.037 1.173.225.984.374.906.523.764.636.66.748.516.86.375.972.185 1.122.026 1.16-.134 1.196-.256 1.234-3.387 12.64h-5.792l3.377-12.602.163-.748.05-.748-.145-.71-.288-.599-.43-.486-.695-.337-.82-.15-.87.038-.861.15-.913.336-.793.449-.748.561-.629.673zM907.717 117.06l-.275.748-3.407 12.714h-5.792l5.671-21.166h5.793l-.401 1.496 1.04-.673 1.084-.561 1.082-.412 1.117-.261 1.086-.15 1.074.037 1.173.225.984.374.906.523.764.636.659.748.517.86.375.972.185 1.122.026 1.16-.134 1.196-.256 1.234-3.387 12.64h-5.792l3.376-12.602.164-.748.05-.748-.145-.71-.289-.599-.43-.486-.694-.337-.82-.15-.87.038-.862.15-.912.336-.793.449-.748.561-.629.673zM782.834 117.06l-.275.748-3.407 12.714h-5.793l5.672-21.166h5.792l-.4 1.496 1.04-.673 1.084-.561 1.082-.412 1.116-.261 1.087-.15 1.074.037 1.173.225.983.374.906.523.764.636.66.748.516.86.375.972.185 1.122.026 1.16-.133 1.196-.256 1.234-3.387 12.64h-5.793l3.377-12.602.163-.748.051-.748-.146-.71-.288-.599-.43-.486-.695-.337-.82-.15-.869.038-.862.15-.912.336-.793.449-.749.56-.628.674zM718.276 117.06l-.276.748-3.407 12.714h-5.792l5.671-21.166h5.793l-.4 1.496 1.04-.673 1.084-.561 1.082-.412 1.116-.261 1.087-.15 1.073.037 1.173.225.984.374.906.523.764.636.66.748.516.86.375.972.185 1.122.026 1.16-.134 1.196-.256 1.234-3.386 12.64h-5.793l3.377-12.602.163-.748.051-.748-.146-.71-.288-.599-.43-.486-.695-.337-.82-.15-.869.038-.862.15-.913.336-.793.449-.748.56-.629.674z"/><path style="display:inline;fill:#fff;stroke:none;stroke-width:.447871;stroke-linecap:round;stroke-linejoin:round;stroke-miterlimit:10;stroke-dasharray:none;stroke-opacity:1" d="M857.553 100.89h5.774l-6.263 23.372-.036.411.096.337.218.3.285.186.4.037 1.127-.037 1.158-.15-.73 5.086-1.878.337-1.848.224-1.865.15-.762-.075-.685-.224-.665-.3-.513-.448-.408-.561-.267-.673-.145-.71-.023-.749.136-.785z"/><path style="display:inline;fill:#fff;stroke:none;stroke-width:1.75559;stroke-linecap:round;stroke-linejoin:round;stroke-miterlimit:10;stroke-opacity:1" d="m875.937 108.978-1.092.096-1.07.227-1.058.366-1.032.511-1.01.653-.986.797-.271.25-.832.854-.772.903-.689.962-.606 1.02-.524 1.07-.448 1.14-.038.095-.332 1.103-.273 1.081-.19 1.08-.12 1.081-.046 1.058.011.63.107 1.058.214.986.32.9.415.821.522.735.392.451.701.607.81.486.888.357.987.227 1.07.094.523.01 1.08-.056 1.104-.154 1.14-.226 1.164-.309.487.166.82.309.129.106h3.755l-.06-.713-.024-1.14.106-.795.5-1.876.498-1.842.475-1.735.44-1.626.403-1.52.38-1.415.358-1.306.32-1.21.297-1.092.26-.986.238-.892.202-.773.178-.674.154-.56.12-.463.084-.355.057-.248h-4.335l-.248.96-.188-.166-.619-.347-.82-.293-1.01-.215-1.223-.166-1.413-.083zm.189 5.083.523.037.95.26.903.499.308.262.572.761.201.889v.05l-.06 1.222-.154 1.127-.238 1.021-.343.915-.297.618-.667 1.189-.663.938-.666.7-.403.286-.938.438-1.104.263-1.283.069-.724-.095-.786-.332-.57-.594-.343-.843-.108-1.105v-.357l.083-1.115.203-1.01.072-.214.38-1.08.509-1.056.643-1.035.095-.143.783-.89.986-.82 1.093-.64zM746.82 108.978l-1.092.096-1.07.227-1.057.366-1.032.511-1.01.653-.986.797-.272.25-.832.854-.772.903-.689.962-.606 1.02-.524 1.07-.448 1.14-.038.095-.332 1.103-.273 1.081-.189 1.08-.12 1.081-.047 1.058.011.63.107 1.058.214.986.32.9.415.821.523.735.392.451.7.607.81.486.889.357.986.227 1.07.094.523.01 1.081-.056 1.104-.154 1.14-.226 1.164-.309.487.166.82.309.128.106h3.755l-.06-.713-.024-1.14.106-.795.5-1.876.499-1.842.475-1.735.44-1.626.402-1.52.38-1.415.358-1.306.32-1.21.297-1.092.26-.986.239-.892.202-.773.177-.674.155-.56.12-.463.082-.355.057-.248h-4.335l-.248.96-.188-.166-.618-.347-.821-.293-1.01-.215-1.223-.166-1.413-.083zm.19 5.083.522.037.95.26.903.499.308.262.572.761.201.889v.05l-.06 1.222-.154 1.127-.238 1.021-.343.915-.297.618-.666 1.189-.664.938-.666.7-.403.286-.938.438-1.104.263-1.283.069-.724-.095-.786-.332-.57-.594-.342-.843-.109-1.105v-.357l.083-1.115.203-1.01.072-.214.38-1.08.509-1.056.643-1.035.095-.143.783-.89.987-.82 1.092-.64z"/><path d="M900.498 103.906a2.91 2.91 0 0 1-2.91 2.911 2.91 2.91 0 0 1-2.912-2.91 2.91 2.91 0 0 1 2.911-2.911 2.91 2.91 0 0 1 2.91 2.91z" style="display:inline;fill:#fff;fill-rule:evenodd;stroke:none;stroke-width:.24141;stroke-linecap:round;stop-color:#000"/><path style="display:inline;fill:#fff;stroke:none;stroke-width:.137874;stroke-linecap:round;stroke-linejoin:round;stroke-miterlimit:10;stroke-opacity:1" d="m893.644 109.356-4.647 17.352-.06.286-.045.369v.378l.05.385.09.387.133.392.176.396.224.402.268.404.315.414h5.392l-.159-.203-.243-.349-.21-.357-.177-.375-.147-.388-.117-.4-.085-.414-.05-.426-.025-.444.01-.457 4.647-17.352zm0 0"/><path style="display:inline;fill:#fff;stroke:none;stroke-width:.448347;stroke-linecap:round;stroke-linejoin:round;stroke-miterlimit:10;stroke-dasharray:none;stroke-opacity:1" d="M837.637 130.522h-5.786l5.671-21.166h5.786l-.56 2.094.899-.71.944-.599 1.036-.523 1.06-.337 1.031-.224 1.028-.075h1.419l-1.473 5.497h-1.979l-.84.075-.882.224-.847.374-.84.487-.71.56-.675.711-.574.748-.444.823-.258.822z"/><path style="display:inline;fill:#fff;stroke:none;stroke-width:.448246;stroke-linecap:round;stroke-linejoin:round;stroke-miterlimit:10;stroke-dasharray:none;stroke-opacity:1" d="m826.875 120.321-.594 1.383-.724 1.308-.9 1.27-.956 1.196-1.122 1.12-1.176 1.047-1.296.934-1.33.785-1.375.673-1.41.523-1.444.374-1.405.224-1.401.075-1.362-.075-1.284-.224-1.207-.374-1.166-.523-1.015-.673-.91-.785-.758-.934-.653-1.046-.484-1.121-.351-1.196-.183-1.27-.023-1.308.11-1.383.295-1.383 4.837-18.049h6.086l-4.836 18.05-.196 1.008-.026.934.133.897.302.822.435.748.54.635.718.523.796.374.873.224.951.075.99-.075 1.032-.224.996-.374.962-.523.917-.635.835-.748.705-.822.614-.897.474-.934.345-1.009 4.837-18.049h6.086l-4.836 18.05z"/><path style="display:inline;fill:#fff;stroke:none;stroke-width:.448157;stroke-linecap:round;stroke-linejoin:round;stroke-miterlimit:10;stroke-dasharray:none;stroke-opacity:1" d="M687.096 130.523h-5.793l3.38-12.615.163-.747.013-.746-.119-.672-.278-.634-.43-.485-.696-.336-.82-.15-.869.038-.872.186-.902.299-.793.448-.748.56-.628.671-.49.71-.274.746-3.41 12.727h-5.793l7.94-29.634h5.793l-2.67 9.965 1.04-.672 1.037-.522 1.119-.41 1.126-.3 1.076-.111h1.084l1.173.224.984.373.907.522.764.635.66.746.517.859.375.97.186 1.12.026 1.157-.133 1.194-.256 1.232z"/><path style="display:inline;fill:#fff;stroke:none;stroke-width:.448104;stroke-linecap:round;stroke-linejoin:round;stroke-miterlimit:10;stroke-dasharray:none;stroke-opacity:1" d="m664.004 130.231-1.689.448-1.686.3-1.646.148-1.654.038-1.566-.15-.744-.149-.695-.336-.552-.448-.447-.56-.316-.634-.136-.747-.014-.784.145-.821 3.361-12.544h-3.399l1.29-4.815h3.4l1.77-6.608 6.24-1.68-2.22 8.288h5.378l-1.29 4.815h-5.38l-2.76 10.304-.083.448.077.41.172.336.303.262.361.186.4.038 1.141-.075 1.134-.187 1.126-.298z"/><path d="m639.17 99.882-.74.02-.733.056-.72.088-.718.124-.712.165-.705.198-.691.233-.693.274-.677.308-.678.342-.663.376-.665.418-.651.453-.164.123-.63.486-.61.506-.582.528-.553.541-.535.568-.5.582-.479.596-.452.622-.43.637-.399.658-.377.677-.348.691-.322.713-.144.342-.315.794-.288.76-.253.72-.226.67-.192.638-.089.335-.178.706-.15.697-.116.685-.096.679-.062.67-.034.656-.01.658.02.637.047.637.082.623.103.617.13.61.164.594.192.59.22.574.246.576.274.561.3.548.33.547.363.535.103.137.403.52.439.466.465.417.487.362.52.323.54.268.48.183.493.144.561.117.63.089.713.07.78.04.85.02h.184l.65-.02.691-.075.74-.118.787-.164.206-.047 3.06-.74.37.501.015.026.397.473.01.007h5.237l-.15-.629-.068-.644.013-.67.089-.7.13-.588 7.072-26.402h-4.334l-.52.43-.301.255-.623-.308-.623-.274-.63-.247-.63-.22-.63-.185-.637-.15-.637-.123-.643-.089-.643-.061-.644-.035zm-1.123 5.183.656.056.63.123.602.185.582.26.555.328.438.322.473.466.383.506.289.535.19.568.104.602.02.39-.013.61-.041.63-.061.644-.09.664-.108.677-.145.699-.158.712-.185.732-.212.754-.239.766-.26.782-.075.218-.329.904-.356.849-.363.802-.383.739-.403.685-.418.629-.432.576-.452.52-.465.459-.487.41-.499.35-.52.3-.535.24-.547.192-.57.13-.588.075-.527.02-.582-.026-.623-.089-.679-.151-.725-.212-.158-.048-.56-.212-.515-.253-.459-.288-.41-.335-.356-.377-.307-.417-.262-.453-.205-.5-.157-.54-.11-.576-.054-.623-.01-.657.047-.705.097-.74.15-.78.191-.83.021-.074.24-.822.254-.794.28-.767.308-.74.321-.719.35-.683.37-.658.39-.63.418-.603.438-.575.465-.541.48-.52.506-.493.528-.466.377-.3.76-.556.731-.45.7-.371.677-.267.651-.179.623-.082z" style="display:inline;fill:#fff;fill-opacity:1;fill-rule:evenodd;stroke:none;stroke-width:.128494"/><path d="m631.705 96.004.33 1.164 12.858-3.177-.712-2.486zm0 0" style="display:inline;fill:#fff;stroke:none;stroke-width:.0912305;stroke-linecap:round;stroke-linejoin:round;stroke-miterlimit:10;stroke-opacity:1"/><path style="display:inline;fill:#fff;stroke:none;stroke-width:.448246;stroke-linecap:round;stroke-linejoin:round;stroke-miterlimit:10;stroke-dasharray:none;stroke-opacity:1" d="m649.696 165.3-.224 1.383-.373 1.308-.56 1.27-.635 1.196-.822 1.121-.896 1.046-1.045.935-1.12.784-1.195.673-1.27.523-1.344.374-1.344.224-1.382.075-1.381-.075-1.345-.224-1.306-.374-1.307-.523-1.195-.673-1.12-.784-1.008-.935-.934-1.046-.784-1.121-.672-1.196-.523-1.27-.373-1.308-.262-1.383-.075-1.383v-18.049h6.087v18.05l.075 1.008.224.935.373.896.523.823.635.747.71.635.858.523.896.374.933.224.971.075.971-.075.97-.224.897-.374.821-.523.747-.635.635-.747.485-.823.374-.896.224-.935.075-1.009v-18.049h6.086v18.05z"/><path style="display:inline;fill:#fff;stroke:none;stroke-width:.447934;stroke-linecap:round;stroke-linejoin:round;stroke-miterlimit:10;stroke-dasharray:none;stroke-opacity:1" d="M690.282 145.868h6.048v23.849h13.142v5.785h-19.19z"/><path style="display:inline;fill:#fff;stroke:none;stroke-width:.447866;stroke-linecap:round;stroke-linejoin:round;stroke-miterlimit:10;stroke-dasharray:none;stroke-opacity:1" d="M721.23 145.868v29.634h-6.047v-29.634z"/><path style="display:inline;fill:#fff;stroke:none;stroke-width:.448048;stroke-linecap:round;stroke-linejoin:round;stroke-miterlimit:10;stroke-dasharray:none;stroke-opacity:1" d="M737.549 145.868h-6.91v29.634h6.05V155.46l13.26 20.042h6.948v-29.634h-6.088v20.042zM777.554 163.633v-5.187h12.998v17.056h-5.528v-2.128l-.859.821-1.009.71-1.045.56-1.158.41-1.158.261-1.196.075h-1.195l-1.494-.15-1.457-.298-1.42-.448-1.381-.597-1.27-.746-1.196-.896-1.12-1.157-.971-1.232-.897-1.343-.71-1.419-.56-1.492-.448-1.53-.261-1.568-.112-1.568v-2.127l.112-1.605.261-1.567.448-1.53.56-1.493.71-1.419.897-1.343.97-1.232 1.121-1.12 1.196-.895 1.27-.784 1.382-.597 1.42-.448 1.456-.298 1.494-.15h1.681l1.494.15 1.494.298 1.42.448 1.344.597 1.308.784 1.195.896 1.12 1.12.972 1.268 1.008 1.792-5.677 2.687-.523-1.045-.71-.896-.822-.821-.934-.672-.859-.336-.859-.26-.896-.15-.897-.075-.934.075-.933.15-.897.298-.859.373-.784.485-.71.597-.635.71-.523.746-.41.858-.337.859-.336 1.492-.224 1.568-.037 1.53.037 1.568.224 1.53.336 1.493.336.895.411.821.523.747.635.709.71.597.784.485.86.41.896.262.933.15.934.074 1.009-.075 1.008-.186.971-.336.934-.523.822-.634.71-.747.597-.858.411-1.12.262-1.12.037-1.193z"/><path d="M805.264 175.502v-12.295h12.134v-5.493h-12.134v-6.09h13.403v-5.756h-19.451v29.634z" style="display:inline;fill:#fff;stroke:none;stroke-width:.44822;stroke-linecap:round;stroke-linejoin:round;stroke-miterlimit:10;stroke-dasharray:none;stroke-opacity:1"/><path style="display:inline;fill:#fff;stroke:none;stroke-width:.447881;stroke-linecap:round;stroke-linejoin:round;stroke-miterlimit:10;stroke-dasharray:none;stroke-opacity:1" d="m840.503 151.803.784.522.709.597.634.71.523.746.41.82.3.897.372 1.492.224 1.53.037 1.568-.037 1.53-.224 1.53-.373 1.53-.298.859-.41.858-.524.747-.634.709-.71.597-.783.485-.859.374-.895.298-.933.15-.934.074-.933-.075-.933-.149-.896-.298-.858-.374-.784-.485-.71-.597-.634-.71-.522-.746-.41-.858-.337-.858-.336-1.53-.224-1.53-.037-1.53.037-1.568.224-1.53.336-1.493.336-.896.41-.821.523-.747.635-.709.71-.597.783-.522.858-.374.896-.261.933-.187.933-.037.934.037.933.187.895.261zm10.488 7.8-.112-1.568-.26-1.567-.412-1.53-.597-1.493-.709-1.419-.858-1.343-.97-1.232-1.12-1.157-1.195-.895-1.306-.747-1.344-.597-1.418-.485-1.493-.261-1.456-.15h-1.717l-1.493.15-1.456.26-1.418.486-1.381.597-1.27.747-1.194.895-1.12 1.157-.97 1.232-.858 1.343-.747 1.419-.56 1.493-.41 1.53-.299 1.567-.112 1.568v2.127l.112 1.605.299 1.567.41 1.53.56 1.493.747 1.419.858 1.306.97 1.269 1.12 1.12 1.195.895 1.269.784 1.38.597 1.42.448 1.455.299 1.493.149h1.717l1.456-.15 1.493-.298 1.418-.448 1.344-.597 1.306-.784 1.194-.895 1.12-1.12.97-1.27.86-1.305.708-1.419.597-1.492.411-1.53.261-1.568.112-1.605z"/><path style="display:inline;fill:#fff;stroke:none;stroke-width:.447958;stroke-linecap:round;stroke-linejoin:round;stroke-miterlimit:10;stroke-dasharray:none;stroke-opacity:1" d="M864.395 151.355h7.057l.71.074.634.224.635.299.522.448.448.522.3.635.223.634.075.71-.075.671-.224.672-.299.597-.448.56-.522.41-.635.336-.635.224-.71.037h-7.056zm-6.049-5.487v29.634h6.049v-11.57h3.958l6.758 11.57h7.057l-7.094-12.092 1.082-.486 1.046-.634.933-.747.822-.895.71-.97.56-1.046.447-1.12.262-1.156.112-1.195-.037-1.231-.224-1.157-.336-1.157-.523-1.082-.672-1.008-.747-.933-.896-.784-1.008-.672-1.083-.56-1.12-.373-1.195-.26-1.195-.076zM665.005 151.355h7.057l.71.074.634.224.635.299.522.448.448.522.3.635.223.634.075.71-.075.671-.224.672-.299.597-.448.56-.522.41-.635.336-.635.224-.71.037h-7.056zm-6.049-5.487v29.634h6.049v-11.57h3.958l6.758 11.57h7.057l-7.095-12.092 1.083-.486 1.046-.634.933-.747.822-.895.71-.97.56-1.046.447-1.12.262-1.156.112-1.195-.037-1.231-.224-1.157-.337-1.157-.522-1.082-.672-1.008-.747-.933-.896-.784-1.008-.672-1.083-.56-1.12-.373-1.195-.26-1.195-.076z"/><path style="display:inline;fill:#fff;stroke:none;stroke-width:.448329;stroke-linecap:round;stroke-linejoin:round;stroke-miterlimit:10;stroke-dasharray:none;stroke-opacity:1" d="M900.955 169.56h-5.154v-17.787h5.154l1.046.074 1.009.262.97.374.935.523.821.635.71.785.598.86.448.934.336 1.009.262 1.42.112 1.42v1.457l-.15 1.457-.299 1.42-.336.935-.485.934-.598.822-.71.71-.821.635-.897.486-.934.336-1.008.224zm-.075 5.942 1.382-.075 1.42-.224 1.344-.374 1.308-.523 1.27-.635 1.158-.785 1.083-.897 1.008-1.009.86-1.12.747-1.197.635-1.27.485-1.308.336-1.383.224-1.607.113-1.607v-1.606l-.113-1.645-.224-1.606-.336-1.346-.485-1.345-.635-1.27-.747-1.196-.86-1.084-1.008-1.009-1.083-.934-1.158-.748-1.27-.672-1.308-.523-1.344-.337-1.42-.224-1.382-.075h-11.168v29.634z"/><path d="m721.233 2.865-.883 1.346-.975 1.27-1.077 1.233-1.292 1.196-1.383 1.121-1.435.897-1.507.747-1.514.636-1.54.448-1.573.299-1.524.112h-1.68l-1.463-.112-1.376-.299-1.3-.448-1.21-.636-1.07-.747-.954-.897-.81-1.158-.678-1.233-.498-1.346-.329-1.42-.16-1.494-.037-1.533.16-1.57.308-1.569.57-2.13.543-1.606.682-1.57.859-1.532.95-1.457 1.09-1.42 1.22-1.346 1.348-1.27 1.42-1.121 1.435-.897 1.48-.785 1.542-.598 1.539-.448 1.536-.3 1.524-.111h1.68l1.464.112 1.413.299 1.299.448 1.184.598 1.096.785.955.897.82 1.12.63 1.271.555 1.831.3 1.944-6.69 2.391.01-1.009-.103-1.009-.283-.897-.441-.86-.594-.71-.699-.597-.758-.374-.79-.261-.855-.15-.876-.074-.954.074-.973.15-.977.299-.958.373-.915.486-.88.635-.814.673-.733.785-.669.822-.529.86-.784 1.532-.597 1.532-.448 1.532-.383 1.57-.224 1.531-.027 1.495.059.897.227.822.313.785.454.672.55.598.643.523.76.374.825.262.884.187.923.037 1.028-.075 1.058-.187 1.061-.336.99-.486.98-.598.863-.71.808-.784.716-.86.586-.934.484-.972z" style="fill:#fff;stroke:none;stroke-width:.448242;stroke-linecap:round;stroke-linejoin:round;stroke-miterlimit:10;stroke-dasharray:none;stroke-opacity:1"/><path style="fill:#fff;stroke:none;stroke-width:.448382;stroke-linecap:round;stroke-linejoin:round;stroke-miterlimit:10;stroke-dasharray:none;stroke-opacity:1" d="m738.54-5.369.796.374.624.599.482.71.34.823.118.673-.004.71-.172 1.197-.273 1.16-.348 1.159-.47 1.197-.377.71-.48.673-.78.823-.862.71-.944.599-.986.337-.9.15-.78-.15-.806-.337-.661-.598-.482-.71-.302-.824-.119-.673.004-.71.172-1.197.236-1.16.385-1.159.47-1.196.377-.71.48-.674.742-.823.863-.71.981-.599.997-.374.851-.112zm8.286 1.683-.015-.224-.202-1.197-.361-1.16-.551-1.009-.683-.935-.835-.785-.857-.561-.973-.411-1.03-.337-1.107-.187-1.137-.075-1.178.075-1.17.187-1.21.337-1.193.411-1.158.561-1.256.785-1.184.935-1.092 1.01-.982 1.16-.844 1.196-.135.224-.774 1.496-.634 1.533-.486 1.534-.336 1.533-.187 1.533-.018 1.459.005.261.203 1.197.37 1.122.542 1.047.683.935.834.785.868.524.963.449 1.03.336 1.07.187 1.137.075 1.177-.075 1.207-.187 1.21-.336 1.204-.45 1.148-.523 1.256-.785 1.184-.935 1.101-1.047.973-1.122.843-1.197.145-.261.764-1.459.635-1.533.448-1.533.374-1.534.187-1.533z"/><path style="fill:#fff;stroke:none;stroke-width:.448348;stroke-linecap:round;stroke-linejoin:round;stroke-miterlimit:10;stroke-dasharray:none;stroke-opacity:1" d="M754.452 11.46h-5.786l5.671-21.167h5.786l-.56 2.095.899-.71.944-.6 1.036-.523 1.06-.336 1.032-.225 1.027-.075h1.419l-1.473 5.498h-1.979l-.84.075-.882.224-.847.374-.84.486-.71.561-.675.71-.574.748-.444.823-.258.823z"/><path d="m781.913 3.397 4.833 2.015-.172.224-.852 1.232-.972 1.12-1.054 1.008-1.183.934-1.254.783-1.195.56-1.155.411-1.21.336-1.206.187-1.177.074-1.136-.074-1.07-.187-1.029-.336-.972-.41-.857-.56-.835-.784-.683-.934-.55-1.008-.372-1.12-.192-1.232-.015-.224.027-1.493.186-1.53.336-1.53.485-1.531.624-1.494.773-1.493.144-.261.843-1.195.972-1.12 1.1-1.045 1.173-.896 1.265-.821 1.148-.523 1.202-.448 1.2-.299 1.179-.223 1.176-.075 1.137.075 1.096.223 1.04.3.925.447.904.523.825.821.693.896.503 1.045.372 1.12.202 1.195.042.261-5.903 1.979-.128-1.195-.34-.821-.481-.71-.634-.56-.795-.373-.828-.112-.851.112-1.033.373-.933.56-.862.71-.743.821-.488.71-.414.709-.422 1.157-.385 1.157-.245 1.195-.198 1.157.033.71.119.671.302.821.472.747.633.56.833.373.79.112.889-.112.996-.373.933-.56.872-.747.78-.82z" style="fill:#fff;stroke:none;stroke-width:.447857;stroke-linecap:round;stroke-linejoin:round;stroke-miterlimit:10;stroke-dasharray:none;stroke-opacity:1"/><path style="fill:#fff;stroke:none;stroke-width:1.75559;stroke-linecap:round;stroke-linejoin:round;stroke-miterlimit:10;stroke-opacity:1" d="m802.066-10.085-1.092.097-1.07.227-1.058.365-1.032.511-1.01.653-.986.798-.272.249-.832.855-.772.903-.689.961-.606 1.02-.524 1.07-.448 1.14-.038.095-.332 1.104-.273 1.08-.189 1.08-.12 1.082-.046 1.058.01.63.107 1.057.214.987.32.9.415.82.523.736.392.45.7.608.81.485.889.358.986.226 1.07.094.523.011 1.081-.057 1.104-.154 1.14-.225 1.164-.31.487.166.82.309.128.106h3.755l-.06-.713-.024-1.14.106-.795.5-1.875.5-1.842.474-1.736.44-1.626.403-1.52.38-1.414.357-1.307.32-1.21.298-1.092.26-.986.238-.891.202-.773.178-.675.154-.56.12-.463.083-.355.057-.248h-4.335l-.248.96-.188-.166-.618-.346-.821-.294-1.01-.214-1.223-.167-1.413-.083zM802.254-5l.523.037.95.26.903.498.308.263.572.76.201.89v.049l-.06 1.223-.154 1.126-.238 1.022-.343.914-.297.618-.667 1.19-.663.937-.666.7-.403.287-.938.437-1.104.263-1.283.07-.724-.096-.786-.331-.57-.595-.343-.842-.108-1.106v-.357l.083-1.114.203-1.01.071-.215.38-1.08.51-1.055.643-1.036.095-.143.782-.889.987-.82 1.092-.64z"/><path d="M826.626-15.156a2.91 2.91 0 0 1-2.91 2.91 2.91 2.91 0 0 1-2.911-2.91 2.91 2.91 0 0 1 2.91-2.91 2.91 2.91 0 0 1 2.911 2.91z" style="fill:#fff;fill-rule:evenodd;stroke:none;stroke-width:.24141;stroke-linecap:round;stop-color:#000"/><path style="fill:#fff;stroke:none;stroke-width:.137874;stroke-linecap:round;stroke-linejoin:round;stroke-miterlimit:10;stroke-opacity:1" d="m819.773-9.707-4.647 17.353-.06.286-.045.368v.379l.049.385.089.386.134.393.176.395.224.403.268.403.315.414h5.392l-.16-.202-.242-.35-.21-.356-.177-.375-.147-.389-.117-.4-.085-.413-.05-.426-.024-.445.01-.456 4.647-17.353zm0 0"/><path style="fill:#fff;stroke:none;stroke-width:.448158;stroke-linecap:round;stroke-linejoin:round;stroke-miterlimit:10;stroke-dasharray:none;stroke-opacity:1" d="M868.494 11.46h-5.792l3.38-12.615.162-.746.013-.746-.118-.672-.279-.635-.43-.485-.695-.336-.82-.15-.87.038-.872.187-.902.298-.792.448-.748.56-.629.672-.489.709-.275.746-3.41 12.727h-5.792l7.94-29.633h5.793l-2.67 9.965 1.039-.672 1.037-.523 1.119-.41 1.126-.299 1.077-.112h1.084l1.173.224.984.373.906.523.764.634.66.747.517.858.376.97.185 1.12.027 1.157-.133 1.194-.256 1.232z"/><path style="fill:#fff;stroke:none;stroke-width:.448103;stroke-linecap:round;stroke-linejoin:round;stroke-miterlimit:10;stroke-dasharray:none;stroke-opacity:1" d="m840.01-4.256-.758-.374-.79-.26-.913-.076-.917.075-.956.224-.603.299-.586.373-.54.485-.45.56-.65.896-.522.97-.342.86-.278.895-.128.896-.006.859.054.635.214.597.346.523.487.41.555.299.725.224.754.112h.822l.814-.112.855-.261.602-.3.586-.372.504-.486.411-.56.434-.784.36-.784.9-3.36.01-.597-.073-.56-.197-.522-.328-.448zm-13.126 16.09.879.485.993.336 1.013.261 1.696.224 1.745.037 1.61-.149.647-.187.613-.336.568-.448.476-.522.384-.598.245-.634.3-1.12-1.064.485-1.06.336-1.34.262-1.348.149-1.288-.075-1.155-.15-1.105-.335-.99-.485-.876-.635-.707-.71-.602-.82-.422-.934-.29-1.008-.168-1.045-.026-1.157.096-1.195.208-1.195.367-1.231.507-1.195.609-1.157.684-1.158.758-1.157.888-1.082.797-.747.863-.71.944-.597.962-.522.97-.41 1.304-.412 1.293-.224 1.29-.074 1.26.037 1.173.224.836.224.76.373.644.523.29-1.083h5.752l-5.451 20.346-.345 1.008-.484.97-.587.934-.725.896-.78.82-.9.71-1.209.747-1.243.597-1.278.448-1.276.299-1.564.261-1.487.112-1.484-.037-1.426-.112-1.758-.411-1.653-.523-1.623-.634-1.498-.821 3.977-4.667z"/><path style="fill:#fff;stroke:none;stroke-width:.448045;stroke-linecap:round;stroke-linejoin:round;stroke-miterlimit:10;stroke-dasharray:none;stroke-opacity:1" d="m801.39 46.139 2.54-2.837 8.329 13.137h7.172l-11.28-17.802 10.72-11.831h-8.18l-9.302 10.3v-10.3h-6.088v29.633h6.088z"/><path d="m723.883 47.844-.523 1.346-.635 1.27-.746 1.233-.971 1.196-1.083 1.121-1.195.897-1.307.748-1.344.635-1.419.448-1.493.3-1.494.111h-1.68l-1.494-.112-1.456-.299-1.419-.448-1.381-.635-1.27-.748-1.194-.897-1.12-1.158-1.009-1.233-.859-1.346-.709-1.42-.56-1.494-.448-1.532-.261-1.57-.112-1.57v-2.13l.112-1.606.26-1.57.449-1.532.56-1.457.71-1.42.858-1.345 1.008-1.271 1.12-1.121 1.195-.897 1.27-.785 1.381-.598 1.42-.448 1.455-.299 1.494-.112h1.68l1.494.112 1.493.299 1.42.448 1.343.598 1.307.785 1.195.897 1.12 1.121.97 1.27 1.046 1.832.822 1.943-6.049 2.391-.261-1.009-.374-1.009-.522-.896-.673-.86-.784-.71-.858-.598-.86-.373-.858-.262-.896-.15-.896-.074-.934.074-.933.15-.896.299-.86.374-.783.485-.71.636-.634.672-.523.785-.448.822-.299.86-.373 1.532-.187 1.532-.037 1.532.037 1.57.187 1.532.373 1.494.299.897.448.822.523.785.634.673.71.598.784.523.859.373.896.262.933.187.934.037 1.008-.075 1.008-.186.97-.337.86-.486.821-.597.672-.71.598-.785.485-.86.336-.934.224-.971z" style="fill:#fff;stroke:none;stroke-width:.448242;stroke-linecap:round;stroke-linejoin:round;stroke-miterlimit:10;stroke-dasharray:none;stroke-opacity:1"/><path style="fill:#fff;stroke:none;stroke-width:.44788;stroke-linecap:round;stroke-linejoin:round;stroke-miterlimit:10;stroke-dasharray:none;stroke-opacity:1" d="m746.428 32.74.784.523.709.597.635.709.522.746.41.821.3.896.372 1.493.224 1.53.038 1.568-.038 1.53-.224 1.53-.373 1.53-.298.859-.41.858-.523.746-.635.71-.71.597-.783.485-.858.373-.896.299-.933.149-.934.075-.933-.075-.933-.15-.896-.298-.858-.373-.784-.485-.71-.597-.634-.71-.522-.746-.41-.858-.337-.859-.336-1.53-.224-1.53-.037-1.53.037-1.568.224-1.53.336-1.493.336-.896.41-.82.523-.747.635-.71.71-.596.783-.523.858-.373.896-.261.933-.187.933-.037.934.037.933.187.896.26zm10.488 7.8-.112-1.567-.26-1.568-.411-1.53-.598-1.493-.709-1.418-.858-1.344-.97-1.231-1.12-1.157-1.195-.896-1.306-.746-1.344-.597-1.418-.486-1.493-.26-1.456-.15h-1.717l-1.493.15-1.456.26-1.418.486-1.381.597-1.27.746-1.194.896-1.12 1.157-.97 1.231-.858 1.344-.747 1.418-.56 1.493-.41 1.53-.299 1.568-.112 1.567v2.128l.112 1.604.299 1.568.41 1.53.56 1.493.747 1.418.858 1.306.97 1.27 1.12 1.12 1.195.895 1.269.784 1.38.597 1.42.448 1.455.298 1.493.15h1.717l1.456-.15 1.493-.298 1.418-.448 1.344-.597 1.306-.784 1.194-.896 1.12-1.12.97-1.269.86-1.306.708-1.418.598-1.493.41-1.53.261-1.568.112-1.604z"/><path style="fill:#fff;stroke:none;stroke-width:.447959;stroke-linecap:round;stroke-linejoin:round;stroke-miterlimit:10;stroke-dasharray:none;stroke-opacity:1" d="M770.32 32.292h7.057l.71.075.634.224.635.298.522.448.448.523.3.634.223.635.075.709-.075.672-.224.671-.299.597-.448.56-.522.41-.635.337-.635.224-.71.037h-7.056zm-6.049-5.486v29.633h6.049V44.87h3.958l6.758 11.57h7.057l-7.094-12.092 1.082-.485 1.046-.635.933-.746.822-.896.71-.97.56-1.045.447-1.12.262-1.157.112-1.194-.038-1.232-.224-1.157-.336-1.157-.522-1.082-.673-1.008-.746-.933-.896-.783-1.009-.672-1.082-.56-1.12-.373-1.195-.261-1.195-.075z"/></g></svg>