<svg width="2544.713" height="1791" viewBox="0 0 673.289 473.869" xmlns="http://www.w3.org/2000/svg"><g transform="translate(217.144 66.736)"><rect style="fill:#000;fill-opacity:1;stroke:none;stroke-width:8.59502;stroke-dasharray:none" width="182.819" height="112.183" x="28.091" y="-66.472" rx="16.536"/><rect style="fill:#000;fill-opacity:1;stroke:none;stroke-width:.264583" width="672.759" height="354.277" x="-216.879" y="52.591" rx="16.536"/><rect style="fill:#fff;fill-opacity:1;stroke:none;stroke-width:.264583" width="671.701" height="353.219" x="-216.35" y="53.12" rx="15.875"/><rect style="fill:#008445;fill-opacity:1;stroke:none;stroke-width:.264583" width="647.889" height="329.406" x="-204.444" y="65.026" rx="31.75"/><path style="color:#000;fill:#fff;stroke-width:.999993;-inkscape-stroke:none" d="M-163.801 243.62c-11.013 20.817-16.83 44.885-16.83 69.454 0 24.57 5.817 48.636 16.83 69.452l7.015-3.71c-10.37-19.6-15.908-42.427-15.908-65.742 0-23.314 5.539-46.143 15.908-65.743z"/><path d="m-117.634 282.322-1.06 2.018-1.17 1.905-1.293 1.85-1.55 1.794-1.66 1.681-1.722 1.346-1.808 1.12-1.817.954-1.847.672-1.888.449-1.829.168h-2.016l-1.756-.168-1.652-.449-1.558-.672-1.454-.953-1.283-1.121-1.145-1.346-.972-1.737-.813-1.85-.598-2.018-.395-2.13-.191-2.242-.045-2.298.19-2.354.371-2.355.685-3.195.651-2.41.818-2.354 1.03-2.298 1.141-2.186 1.308-2.13 1.463-2.018 1.619-1.906 1.704-1.682 1.722-1.345 1.776-1.177 1.85-.897 1.847-.673 1.844-.448 1.828-.168h2.016l1.756.168 1.696.448 1.559.673 1.42.897 1.317 1.177 1.145 1.345.984 1.682.756 1.906.666 2.746.36 2.915-8.027 3.587.011-1.513-.124-1.513-.339-1.346-.53-1.289-.712-1.065-.839-.897-.91-.56-.946-.393-1.028-.224-1.051-.112-1.144.112-1.168.224-1.172.449-1.15.56-1.098.729-1.055.953-.978 1.009-.88 1.177-.802 1.233-.635 1.29-.94 2.297-.717 2.299-.537 2.298-.46 2.354-.269 2.298-.032 2.242.07 1.346.273 1.233.375 1.177.545 1.009.66.897.772.784.91.561.992.392 1.06.28 1.108.057 1.234-.112 1.27-.28 1.273-.505 1.186-.729 1.178-.897 1.035-1.065.97-1.177.858-1.289.704-1.401.581-1.458z" style="fill:#fff;stroke:none;stroke-width:.601381;stroke-linecap:round;stroke-linejoin:round;stroke-miterlimit:10;stroke-dasharray:none;stroke-opacity:1"/><path style="fill:#fff;stroke:none;stroke-width:2.35538;stroke-linecap:round;stroke-linejoin:round;stroke-miterlimit:10;stroke-opacity:1" d="m-98.613 262.896-1.31.145-1.285.34-1.27.549-1.238.767-1.211.979-1.184 1.196-.326.374-.998 1.283-.926 1.353-.827 1.443-.728 1.531-.629 1.603-.537 1.711-.045.142-.399 1.656-.328 1.621-.226 1.62-.145 1.622-.055 1.587.013.945.128 1.586.257 1.48.385 1.35.497 1.231.627 1.103.47.676.841.91.972.729 1.066.536 1.184.34 1.284.141.627.016 1.298-.085 1.324-.231 1.368-.338 1.397-.464.584.249.984.462.154.16h4.506l-.072-1.07-.028-1.71.127-1.193.6-2.812.598-2.763.57-2.603.528-2.44.484-2.279.456-2.122.429-1.96.384-1.814.357-1.64.312-1.478.286-1.337.242-1.16.213-1.012.185-.84.145-.694.099-.533.068-.372h-5.201l-.298 1.44-.226-.249-.742-.52-.985-.44-1.21-.322-1.469-.249-1.696-.124zm.226 7.626.627.055 1.14.391 1.084.747.37.394.686 1.14.242 1.334v.074l-.073 1.835-.185 1.69-.285 1.531-.412 1.373-.356.926-.8 1.784-.797 1.407-.799 1.05-.483.43-1.126.656-1.324.395-1.54.103-.869-.142-.943-.498-.684-.891-.411-1.264-.13-1.658v-.536l.099-1.672.244-1.515.086-.321.455-1.62.611-1.584.772-1.553.114-.214.94-1.334 1.183-1.23 1.311-.961z"/><path style="fill:#fff;stroke:none;stroke-width:.601192;stroke-linecap:round;stroke-linejoin:round;stroke-miterlimit:10;stroke-dasharray:none;stroke-opacity:1" d="m-68.961 294.777-2.027.672-2.023.448-1.976.224-1.984.056-1.88-.224-.892-.224-.834-.504-.663-.672-.537-.84-.378-.952-.164-1.12-.016-1.176.174-1.232 4.033-18.814h-4.079l1.549-7.224h4.079l2.124-9.911 7.488-2.52-2.665 12.431h6.455l-1.549 7.224h-6.454l-3.313 15.455-.1.672.093.616.205.504.365.392.433.28.48.056 1.37-.113 1.36-.28 1.35-.447zM240.41 294.777l-2.026.672-2.023.448-1.976.224-1.984.056-1.88-.224-.892-.224-.834-.504-.663-.672-.537-.84-.378-.952-.164-1.12-.016-1.176.174-1.232 4.033-18.814h-4.079l1.549-7.224h4.079l2.124-9.911 7.488-2.52-2.665 12.431h6.455l-1.549 7.224h-6.454l-3.313 15.455-.1.672.093.616.206.504.364.392.433.28.48.056 1.37-.112 1.36-.28 1.35-.448z"/><path style="fill:#fff;stroke:none;stroke-width:.601267;stroke-linecap:round;stroke-linejoin:round;stroke-miterlimit:10;stroke-dasharray:none;stroke-opacity:1" d="M-41.251 295.214h-6.951l4.056-18.922.195-1.12.016-1.12-.143-1.007-.334-.952-.517-.728-.833-.503-.984-.224-1.043.056-1.047.28-1.083.447-.95.672-.898.84-.754 1.008-.587 1.063-.33 1.12-4.092 19.09h-6.951l9.528-44.45h6.951l-3.204 14.947 1.248-1.008 1.244-.783 1.343-.616 1.351-.448 1.292-.168h1.3l1.409.336 1.18.56 1.088.784.917.951.791 1.12.621 1.288.45 1.455.224 1.68.031 1.735-.16 1.791-.306 1.848z"/><path style="fill:#fff;stroke:none;stroke-width:2.35538;stroke-linecap:round;stroke-linejoin:round;stroke-miterlimit:10;stroke-opacity:1" d="m-18.857 262.896-1.31.145-1.285.34-1.27.549-1.238.767-1.211.979-1.184 1.196-.326.374-.998 1.283-.926 1.353-.827 1.443-.728 1.531-.628 1.603-.538 1.711-.046.142-.398 1.656-.328 1.621-.226 1.62-.145 1.622-.055 1.587.013.945.128 1.586.257 1.48.385 1.35.497 1.231.627 1.103.47.676.841.91.972.729 1.066.536 1.184.34 1.284.141.627.016 1.298-.085 1.324-.231 1.368-.338 1.397-.464.584.249.984.462.154.16h4.506l-.072-1.07-.028-1.71.127-1.193.6-2.812.598-2.763.57-2.603.528-2.44.484-2.279.455-2.122.43-1.96.384-1.814.357-1.64.312-1.478.286-1.337.242-1.16.213-1.012.185-.84.145-.694.099-.533.068-.372h-5.201l-.298 1.44-.226-.249-.742-.52-.985-.44-1.21-.322-1.469-.249-1.696-.124zm.226 7.626.627.055 1.14.391 1.084.747.37.394.686 1.141.242 1.333v.074l-.073 1.835-.185 1.69-.285 1.531-.412 1.373-.356.926-.8 1.784-.797 1.407-.799 1.05-.483.43-1.126.656-1.324.395-1.54.103-.869-.142-.943-.498-.684-.891-.411-1.264-.13-1.658v-.536l.099-1.672.244-1.515.086-.321.455-1.62.611-1.584.772-1.553.114-.214.94-1.334 1.183-1.23 1.311-.961z"/><path d="M10.615 255.29a3.493 4.366 0 0 1-3.493 4.366 3.493 4.366 0 0 1-3.493-4.366 3.493 4.366 0 0 1 3.493-4.366 3.493 4.366 0 0 1 3.493 4.366z" style="fill:#fff;fill-rule:evenodd;stroke:none;stroke-width:.323885;stroke-linecap:round;stop-color:#000"/><path style="fill:#fff;stroke:none;stroke-width:.184978;stroke-linecap:round;stroke-linejoin:round;stroke-miterlimit:10;stroke-opacity:1" d="m2.39 263.463-5.575 26.03-.072.428-.054.553v.568l.058.577.108.58.16.589.212.593.268.603.322.606.378.621h6.47l-.19-.304-.292-.523-.252-.536-.212-.562-.177-.583-.14-.6-.102-.62-.06-.639-.03-.667.013-.685 5.576-26.029zm0 0"/><path style="fill:#fff;stroke:none;stroke-width:.601523;stroke-linecap:round;stroke-linejoin:round;stroke-miterlimit:10;stroke-dasharray:none;stroke-opacity:1" d="M14.938 295.214H7.995l6.806-31.75h6.943l-.674 3.141 1.08-1.066 1.133-.897 1.243-.785 1.273-.505 1.237-.337 1.234-.112h1.702l-1.768 8.246H25.83l-1.01.112-1.057.337-1.016.56-1.008.73-.852.841-.81 1.066-.69 1.122-.532 1.234-.31 1.234zM208.994 295.214h-6.943l6.806-31.75h6.943l-.674 3.141 1.08-1.066 1.133-.897 1.243-.785 1.273-.505 1.237-.337 1.234-.112h1.702l-1.768 8.246h-2.374l-1.01.112-1.057.337-1.016.56-1.008.73-.852.841-.81 1.066-.69 1.122-.532 1.234-.31 1.234z"/><path style="fill:#fff;stroke:none;stroke-width:.601871;stroke-linecap:round;stroke-linejoin:round;stroke-miterlimit:10;stroke-dasharray:none;stroke-opacity:1" d="m59.919 275.02-.33 1.121-4.089 19.073H48.55l6.806-31.75h6.95l-.48 2.244 1.248-1.01 1.301-.841 1.299-.618 1.34-.392 1.303-.225 1.289.057 1.407.336 1.18.561 1.088.785.917.954.79 1.122.621 1.29.45 1.459.222 1.682.03 1.74-.16 1.794-.307 1.851-4.064 18.96h-6.951l4.052-18.903.196-1.122.06-1.122-.174-1.066-.346-.898-.516-.729-.834-.505-.983-.224-1.044.056-1.034.224-1.095.505-.952.673-.898.842-.754 1.01z"/><path style="fill:#fff;stroke:none;stroke-width:2.35538;stroke-linecap:round;stroke-linejoin:round;stroke-miterlimit:10;stroke-opacity:1" d="m94.173 262.896-1.31.145-1.285.34-1.27.549-1.238.767-1.211.979-1.184 1.197-.326.373-.998 1.283-.926 1.353-.827 1.443-.728 1.531-.629 1.603-.537 1.711-.046.142-.398 1.656-.328 1.621-.226 1.62-.145 1.622-.055 1.587.013.945.128 1.586.257 1.48.385 1.35.497 1.231.627 1.103.47.676.841.91.972.729 1.066.536 1.184.34 1.284.141.627.016 1.298-.085 1.324-.231 1.368-.338 1.397-.464.584.249.984.462.154.16h4.506l-.072-1.07-.029-1.71.128-1.193.6-2.812.598-2.763.57-2.603.528-2.44.484-2.279.455-2.122.43-1.96.384-1.814.356-1.64.313-1.478.286-1.337.242-1.16.213-1.012.185-.84.145-.694.099-.533.068-.372h-5.201l-.298 1.44-.226-.249-.742-.52-.985-.44-1.21-.322-1.469-.249-1.696-.124zm.226 7.626.627.055 1.14.391 1.084.747.37.394.686 1.141.242 1.333v.074l-.073 1.835-.185 1.69-.285 1.531-.412 1.373-.356.926-.8 1.784-.797 1.407-.799 1.05-.483.43-1.126.656-1.324.395-1.54.103-.869-.142-.943-.498-.684-.891-.411-1.264-.13-1.658v-.536l.099-1.672.244-1.515.086-.321.455-1.62.611-1.584.772-1.553.114-.214.94-1.334 1.183-1.23 1.311-.961z"/><path d="m163.184 264.383-.272 1.416-.367 1.823-.456 2.215-.56 2.59-4.872 22.787h6.527l5.106-23.81 1.617-7.543.3-1.352.418-2.021.298-1.61.17-1.206.051-.798-.076-1.155-.288-1.274-.509-1.17-.727-1.076-.807-.783-.978-.633-1.044-.375-1.133-.115-.911.047-1.24.297-1.237.502-1.212.736-.104.079-.69.538-1.278 1.075-1.863 1.562-.143-.245-.86-1.415-.652-1.025-.418-.652-.873-.815-1.003-.522-1.107-.162-.756.047-1.12.214-1.158.407-1.186.585-1.225.783-1.253.946-1.29 1.138.079-.652.092-1.332.104-1.665h-7.233l-.167.913-.3 1.677-.301 1.66-.3 1.63-.298 1.614-.3 1.581-.301 1.562-.298 1.547-.3 1.514-.301 1.483-.285 1.484-.3 1.431-.3 1.436-.289 1.4-.297 1.368-4.742 22.15h6.982l.117-.522.534-2.262.497-2.167.469-2.037.442-1.922.418-1.823.39-1.693.35-1.581.339-1.468.3-1.333.276-1.237.234-1.127.221-.993.18-.894.159-.767.104-.455.3-1.384.327-1.566.376-1.756.272-1.435.392-1.76.377-1.4.354-1.04.636-1.19.914-1.009 1.083-.621 1.25-.193.923.11.848.427.573.748.288 1.075.012 1.4-.26 1.709-6.463 30.166h6.853l.183-.668.272-1.092.289-1.154.3-1.238.313-1.305.326-1.384.339-1.432.338-1.53.351-1.598.377-1.661.367-1.744.39-1.808.404-1.874.405-1.954.414-2.017.092-.443.351-1.629.326-1.514.3-1.416.039-.23.354-1.807.376-1.514.38-1.223.063-.146.69-1.254.914-.893 1.133-.538 1.341-.182 1.2.13.99.475.614.799.208 1.139-.015.178-.09.653z" style="display:inline;fill:#fff;fill-opacity:1;fill-rule:evenodd;stroke:none;stroke-width:.353714"/><path style="fill:#fff;stroke:none;stroke-width:2.35538;stroke-linecap:round;stroke-linejoin:round;stroke-miterlimit:10;stroke-opacity:1" d="m189.169 262.896-1.31.145-1.285.34-1.27.549-1.238.767-1.211.979-1.184 1.197-.326.373-.998 1.283-.926 1.353-.827 1.443-.728 1.531-.629 1.603-.537 1.711-.046.142-.398 1.656-.328 1.621-.226 1.62-.145 1.622-.055 1.587.013.945.128 1.586.257 1.48.385 1.35.497 1.231.627 1.103.47.676.841.91.972.729 1.066.536 1.184.34 1.284.141.627.016 1.298-.085 1.324-.231 1.368-.338 1.397-.464.584.249.984.462.154.16h4.506l-.072-1.07-.029-1.71.128-1.193.6-2.812.598-2.763.57-2.603.527-2.44.484-2.278.456-2.123.43-1.96.384-1.814.356-1.64.313-1.478.286-1.337.242-1.16.213-1.011.185-.842.145-.693.099-.533.068-.372h-5.201l-.298 1.44-.226-.249-.742-.52-.985-.44-1.21-.321-1.469-.25-1.696-.124zm.226 7.626.627.055 1.14.391 1.084.747.37.394.686 1.141.242 1.333v.074l-.073 1.835-.185 1.69-.285 1.531-.412 1.373-.356.926-.8 1.784-.797 1.407-.799 1.05-.483.43-1.126.656-1.324.395-1.54.103-.869-.142-.943-.498-.684-.891-.411-1.264-.13-1.658v-.536l.099-1.672.244-1.515.086-.321.455-1.62.611-1.584.772-1.553.114-.214.94-1.334 1.183-1.23 1.311-.961z"/><path style="fill:#fff;stroke:none;stroke-width:.672348;stroke-linecap:round;stroke-linejoin:round;stroke-miterlimit:10;stroke-dasharray:none;stroke-opacity:1" d="M-49.627 353.994h-21.786v-9.753h18.201v-8.24h-18.201v-9.136h20.105v-8.632h-29.234v44.45h30.915z"/><path style="fill:#fff;stroke:none;stroke-width:.671938;stroke-linecap:round;stroke-linejoin:round;stroke-miterlimit:10;stroke-dasharray:none;stroke-opacity:1" d="M148.41 326.462h10.585l1.064.112.952.336.952.448.784.672.672.783.448.952.336.952.112 1.063-.112 1.008-.336 1.008-.448.895-.672.84-.784.616-.952.504-.952.336-1.064.056h-10.586zm-9.074-8.23v44.45h9.073v-17.354h5.937l10.137 17.355h10.586l-10.642-18.139 1.624-.727 1.569-.952 1.4-1.12 1.232-1.343 1.064-1.456.84-1.567.672-1.68.392-1.735.168-1.792-.056-1.847-.336-1.736-.504-1.735-.784-1.624-1.008-1.511-1.12-1.4-1.344-1.175-1.512-1.008-1.625-.84-1.68-.56-1.792-.391-1.792-.112z"/><path style="fill:#fff;stroke:none;stroke-width:.672392;stroke-linecap:round;stroke-linejoin:round;stroke-miterlimit:10;stroke-dasharray:none;stroke-opacity:1" d="M-123.727 362.683h-11.426l-10.363-44.45h9.354l7.114 30.548 6.385-30.548h10.587l6.385 30.548 7.114-30.548h9.354l-10.363 44.45h-11.426l-6.33-30.493z"/><path style="fill:#fff;stroke:none;stroke-width:.672205;stroke-linecap:round;stroke-linejoin:round;stroke-miterlimit:10;stroke-dasharray:none;stroke-opacity:1" d="m-2.156 324.279-1.85-1.624-1.961-1.4-2.13-1.23-2.186-1.065-2.298-.783-2.41-.616-2.41-.336-2.467-.112-2.41.112-2.41.336-2.41.616-1.738.671-1.626.84-1.513 1.064-1.402 1.231-1.233 1.344-.953 1.344-.728 1.455-.56 1.512-.393 1.567-.112 1.624.056 1.623.28 1.624.504 1.511.673 1.512.84 1.343 1.066 1.288 1.177 1.064 1.681 1.12 1.85.783 1.962.504 10.482 2.351 1.009.392.84.56.73.783.504.896.28.952.056 1.064-.168 1.007-.449.952-.616.84-.953.783-1.065.616-1.177.448-1.233.224h-3.027l-1.738-.224-1.681-.336-1.626-.56-1.625-.727-1.906-1.232-1.794-1.344-1.625-1.567-7.735 5.934 1.625 1.68 1.738 1.567 1.85 1.4 1.961 1.231 2.13 1.008 2.41.784 2.523.56 2.522.391 2.522.168 2.579-.056 2.522-.224 2.522-.448 2.467-.671 1.681-.672 1.57-.896 1.457-1.12 1.29-1.287 1.12-1.456.897-1.567.673-1.68.448-1.791.168-1.791-.056-1.792-.28-1.847-.504-1.736-.785-1.623-1.009-1.344-1.177-1.175-1.233-1.064-1.402-.952-1.457-.784-1.401-.56-1.458-.447-10.425-2.575-.729-.28-.673-.448-.56-.616-.448-.672-.225-.728-.112-.783.056-.784.28-.784.393-.672.897-.895 1.009-.672 1.177-.504 1.233-.28 1.233-.112 1.85.112 1.793.28 1.794.504 1.682.616 1.625.84 1.57 1.007 1.4 1.176 6.895-6.27"/><path style="fill:#fff;stroke:none;stroke-width:.671903;stroke-linecap:round;stroke-linejoin:round;stroke-miterlimit:10;stroke-dasharray:none;stroke-opacity:1" d="M3.504 318.233v8.677h12.6v35.773h9.129V326.91h12.6v-8.677zM180.67 318.233v8.677h12.6v35.773h9.128V326.91h12.6v-8.677z"/><path style="fill:#fff;stroke:none;stroke-width:.671776;stroke-linecap:round;stroke-linejoin:round;stroke-miterlimit:10;stroke-dasharray:none;stroke-opacity:1" d="M55.803 338.778v-12.316h9.013l1.12.112 1.063.336 1.008.504.896.671.727.896.56.952.392 1.064.168 1.12v1.063l-.168 1.12-.392 1.007-.56 1.008-.727.84-.896.671-1.008.504-1.063.336-1.12.112zm10.077-20.545H46.735v44.45h9.068v-15.675H65.88l1.735-.112 1.736-.336 1.623-.56 1.567-.784 1.512-.952 1.287-1.12 1.176-1.287 1.008-1.455.783-1.456.672-1.511.504-1.568.28-1.623.056-1.624-.056-1.623-.28-1.624-.504-1.567-.672-1.512-.783-1.455-1.008-1.456-1.176-1.288-1.287-1.12-1.512-.95-1.567-.785-1.623-.56-1.736-.335z"/><path style="fill:#fff;stroke:none;stroke-width:.67182;stroke-linecap:round;stroke-linejoin:round;stroke-miterlimit:10;stroke-dasharray:none;stroke-opacity:1" d="m112.571 327.134 1.176.784 1.064.895.952 1.064.784 1.12.615 1.231.448 1.344.56 2.24.336 2.294.056 2.352-.056 2.295-.336 2.295-.56 2.295-.448 1.288-.616 1.288-.783 1.12-.952 1.063-1.064.896-1.176.727-1.287.56-1.344.448-1.4.224-1.4.112-1.4-.112-1.399-.224-1.343-.448-1.288-.56-1.176-.727-1.064-.896-.952-1.064-.783-1.12-.616-1.287-.504-1.288-.504-2.295-.336-2.295-.056-2.295.056-2.352.336-2.295.504-2.24.504-1.343.616-1.231.783-1.12.952-1.064 1.064-.895 1.176-.784 1.288-.56 1.343-.392 1.4-.28 1.4-.056 1.4.056 1.399.28 1.344.392zm15.733 11.7-.168-2.351-.392-2.351-.616-2.296-.896-2.239-1.063-2.127-1.288-2.016-1.456-1.847-1.68-1.736-1.791-1.343-1.96-1.12-2.015-.895-2.128-.728-2.24-.392-2.183-.224h-2.575l-2.24.224-2.183.392-2.128.728-2.071.895-1.904 1.12-1.791 1.343-1.68 1.736-1.456 1.847-1.287 2.016-1.12 2.127-.84 2.24-.616 2.295-.448 2.35-.168 2.352v3.191l.168 2.407.448 2.352.616 2.295.84 2.24 1.12 2.127 1.287 1.959 1.456 1.903 1.68 1.68 1.791 1.343 1.904 1.176 2.071.896 2.128.671 2.183.448 2.24.224h2.575l2.184-.224 2.24-.448 2.127-.671 2.015-.896 1.96-1.176 1.792-1.343 1.68-1.68 1.455-1.903 1.288-1.96 1.063-2.127.896-2.24.616-2.294.392-2.352.168-2.407z"/><path style="fill:#fff;stroke:none;stroke-width:.720077;stroke-linecap:round;stroke-linejoin:round;stroke-miterlimit:10;stroke-dasharray:none;stroke-opacity:1" d="M297.925 330.473H290v-8.158l3.902-.36 1.2-.3 1.081-.54.96-.779.66-1.02.481-1.08.78-3.178h8.645v47.625h-9.785z"/><path style="fill:#fff;stroke:none;stroke-width:.71968;stroke-linecap:round;stroke-linejoin:round;stroke-miterlimit:10;stroke-dasharray:none;stroke-opacity:1" d="m344.33 332.512-.24 1.26-.421 1.14-.6 1.14-1.021 1.139-1.26.96-1.381.66-1.501.42-1.561.119-1.2-.06-1.141-.3-1.14-.48-.961-.66-.9-.84-.721-.959-.6-1.14-.42-1.14-.24-1.259-.06-1.26.06-1.259.24-1.26.42-1.2.6-1.139.72-.96.9-.78.961-.66 1.14-.48 1.141-.299 1.201-.12 1.56.12 1.502.42 1.38.72 1.261.9 1.02 1.139.6 1.14.421 1.2.24 1.259.12 1.26zm.78 13.316-.24 1.5-.42 1.44-.661 1.379-.84 1.26-.961 1.139-1.14 1.02-1.261.6-1.321.42-1.38.18h-1.381l-1.381-.24-1.38-.42-1.021-.48-.9-.72-.721-.9-.54-.96-.36-1.14-9.005 3.36.48 1.5.6 1.439.84 1.32.961 1.199 1.08 1.14 1.261.9 1.321.839 1.44.6 2.162.72 2.581.36 2.642.18 2.641-.06 2.581-.3 1.501-.42 1.5-.54 1.742-.84 1.62-1.08 1.502-1.26 1.32-1.439 1.14-1.56.961-1.679.78-1.74.601-1.799.72-2.939.48-2.939.24-2.999.12-2.999-.18-2.999-.36-2.999-.54-2.939-.78-2.94-.3-.959-.6-1.8-.841-1.679-1.02-1.56-.24-.3-1.321-1.559-1.501-1.38-1.681-1.139-1.861-.96-2.101-.66-2.221-.42-2.221-.24-2.222-.06-2.22.18-2.162.36-2.161.6-1.62.72-1.442.96-1.38 1.08-1.201 1.26-1.02 1.439-.841 1.5-.66 1.619-.66 2.58-.36 2.638-.06 2.64v1.919l.24 1.86.36 1.799.6 1.8.78 1.679 1.08 1.499 1.201 1.32 1.381 1.14 1.5.959 1.562.84 1.74.6 1.741.42 1.741.18h2.162l2.1-.24 2.102-.48 1.98-.72 1.922-.96 1.74-1.14z"/><path style="fill:#fff;stroke:none;stroke-width:.720077;stroke-linecap:round;stroke-linejoin:round;stroke-miterlimit:10;stroke-dasharray:none;stroke-opacity:1" d="M370.383 330.473h-7.924v-8.158l3.902-.36 1.2-.3 1.081-.54.96-.779.66-1.02.481-1.08.78-3.178h8.645v47.625h-9.785z"/><path style="color:#000;fill:#fff;stroke-width:.999993;-inkscape-stroke:none" d="M402.802 243.62c11.013 20.817 16.83 44.885 16.83 69.454 0 24.57-5.817 48.636-16.83 69.452l-7.016-3.71c10.37-19.6 15.909-42.427 15.909-65.742 0-23.314-5.539-46.143-15.909-65.743z"/><path style="fill:#fff;stroke:none;stroke-width:.672202;stroke-linecap:round;stroke-linejoin:round;stroke-miterlimit:10;stroke-dasharray:none;stroke-opacity:1" d="m-138.396 165.529-1.85-1.624-1.962-1.4-2.13-1.23-2.186-1.065-2.298-.783-2.41-.616-2.41-.336-2.467-.112-2.41.112-2.41.336-2.41.616-1.738.671-1.626.84-1.513 1.064-1.401 1.231-1.233 1.344-.953 1.344-.729 1.455-.56 1.512-.393 1.567-.112 1.624.056 1.623.28 1.624.505 1.511.673 1.512.84 1.343 1.065 1.288 1.177 1.064 1.682 1.12 1.85.783 1.962.504 10.481 2.351 1.01.392.84.56.729.783.504.896.28.952.056 1.064-.168 1.007-.448.952-.617.84-.953.783-1.065.616-1.177.448-1.233.224h-3.027l-1.737-.224-1.682-.336-1.625-.56-1.626-.727-1.906-1.232-1.793-1.344-1.626-1.567-7.735 5.934 1.626 1.68 1.737 1.567 1.85 1.4 1.962 1.231 2.13 1.008 2.41.784 2.522.56 2.523.391 2.522.168 2.578-.056 2.523-.224 2.522-.447 2.466-.672 1.682-.672 1.57-.896 1.457-1.12 1.289-1.287 1.121-1.455.897-1.568.672-1.68.449-1.79.168-1.792-.056-1.792-.28-1.847-.505-1.736-.785-1.623-1.009-1.344-1.177-1.175-1.233-1.064-1.401-.952-1.457-.783-1.402-.56-1.457-.448-10.426-2.575-.728-.28-.673-.448-.56-.616-.449-.672-.224-.727-.112-.784.056-.784.28-.784.393-.672.896-.895 1.01-.672 1.176-.504 1.234-.28 1.233-.112 1.85.112 1.793.28 1.794.504 1.681.616 1.626.84 1.57 1.007 1.4 1.176 6.895-6.27"/><path style="fill:#fff;stroke:none;stroke-width:.671901;stroke-linecap:round;stroke-linejoin:round;stroke-miterlimit:10;stroke-dasharray:none;stroke-opacity:1" d="M-127.08 159.483h9.072v35.772h19.712v8.678h-28.784z"/><path style="fill:#fff;stroke:none;stroke-width:.671799;stroke-linecap:round;stroke-linejoin:round;stroke-miterlimit:10;stroke-dasharray:none;stroke-opacity:1" d="M-80.66 159.483v44.45h-9.07v-44.45z"/><path style="fill:#fff;stroke:none;stroke-width:.672072;stroke-linecap:round;stroke-linejoin:round;stroke-miterlimit:10;stroke-dasharray:none;stroke-opacity:1" d="M-49.513 186.13v-7.781h19.498v25.584h-8.292v-3.191l-1.29 1.231-1.512 1.064-1.569.84-1.737.615-1.737.392-1.792.112h-1.793l-2.242-.224-2.185-.448-2.129-.671-2.073-.896-1.905-1.12-1.793-1.343-1.68-1.736-1.458-1.847-1.344-2.016-1.065-2.127-.84-2.24-.673-2.294-.392-2.352-.168-2.351v-3.191l.168-2.407.392-2.351.673-2.296.84-2.239 1.065-2.127 1.344-2.016 1.457-1.847 1.681-1.68 1.793-1.343 1.905-1.176 2.073-.896 2.13-.671 2.184-.448 2.242-.224h2.52l2.242.224 2.241.448 2.13.671 2.016.896 1.961 1.176 1.793 1.343 1.681 1.68 1.457 1.903 1.513 2.687-8.517 4.031-.784-1.567-1.065-1.344-1.232-1.232-1.401-1.007-1.289-.504-1.288-.392-1.345-.224-1.345-.112-1.4.112-1.401.224-1.345.448-1.289.56-1.176.728-1.065.895-.952 1.064-.785 1.12-.616 1.287-.504 1.288-.505 2.239-.336 2.351-.056 2.296.056 2.35.336 2.296.505 2.24.504 1.343.616 1.232.785 1.12.952 1.063 1.065.896 1.176.727 1.29.616 1.344.392 1.4.224 1.401.112 1.513-.112 1.513-.28 1.457-.504 1.4-.784 1.233-.951 1.065-1.12.896-1.287.616-1.68.393-1.68.056-1.79z"/><path style="fill:#fff;stroke:none;stroke-width:.671822;stroke-linecap:round;stroke-linejoin:round;stroke-miterlimit:10;stroke-dasharray:none;stroke-opacity:1" d="m6.493 168.384 1.176.784 1.064.895.952 1.064.783 1.12.616 1.231.448 1.344.56 2.24.336 2.294.056 2.352-.056 2.295-.336 2.295-.56 2.295-.448 1.288-.616 1.288-.783 1.12-.952 1.063-1.064.896-1.176.727-1.287.56-1.344.448-1.4.224-1.4.112-1.4-.112-1.399-.224-1.344-.448-1.287-.56-1.176-.727-1.064-.896-.952-1.064-.783-1.12-.616-1.287-.504-1.288-.504-2.295-.336-2.295-.056-2.295.056-2.352.336-2.295.504-2.24.504-1.343.616-1.231.783-1.12.952-1.064 1.064-.895 1.176-.784 1.287-.56 1.344-.392 1.4-.28 1.4-.056 1.4.056 1.399.28 1.344.392zm15.733 11.7-.168-2.351-.392-2.351-.616-2.296-.896-2.239-1.063-2.127-1.288-2.016-1.456-1.847-1.68-1.736-1.791-1.343-1.96-1.12-2.015-.895-2.128-.728-2.24-.392-2.183-.224H-.225l-2.24.224-2.183.392-2.128.728-2.071.895-1.904 1.12-1.791 1.343-1.68 1.736-1.456 1.847-1.288 2.016-1.12 2.127-.84 2.24-.615 2.295-.448 2.35-.168 2.352v3.191l.168 2.407.448 2.352.616 2.295.84 2.24 1.12 2.127 1.287 1.959 1.456 1.903 1.68 1.68 1.791 1.343 1.904 1.176 2.071.896 2.128.671 2.183.448 2.24.224H2.35l2.184-.224 2.24-.448 2.127-.671 2.015-.896 1.96-1.176 1.792-1.343 1.68-1.68 1.455-1.903 1.288-1.96 1.063-2.127.896-2.24.616-2.294.392-2.352.168-2.407z"/><path style="fill:#fff;stroke:none;stroke-width:.658621;stroke-linecap:round;stroke-linejoin:round;stroke-miterlimit:10;stroke-dasharray:none;stroke-opacity:1" d="m-137.616 98.06-1.358-1.624-1.523-1.4-1.728-1.23-1.825-1.064-2.005-.784-2.155-.616-2.227-.336-2.34-.112-2.342.112-2.4.336-2.472.616-1.841.672-1.777.84-1.726 1.063-1.662 1.232-1.53 1.343-1.26 1.344-1.074 1.455-.927 1.512-.78 1.567-.525 1.624-.364 1.623-.148 1.624.095 1.511.257 1.512.462 1.343.69 1.288.857 1.064 1.326 1.12 1.575.783 1.753.504 9.458 2.351.868.392.663.56.498.784.254.895.024.952-.22 1.064-.42 1.007-.676.952-.808.84-1.116.784-1.181.615-1.245.448-1.242.224h-2.905l-1.61-.224-1.529-.336-1.416-.56-1.374-.727-1.512-1.232-1.377-1.343-1.157-1.568-8.952 5.934 1.128 1.68 1.265 1.567 1.416 1.4 1.567 1.231 1.785 1.008 2.112.784 2.278.56 2.32.392 2.379.168 2.49-.056 2.478-.224 2.537-.448 2.54-.672 1.788-.672 1.737-.896 1.687-1.12 1.569-1.287 1.45-1.455 1.264-1.568 1.078-1.68.891-1.79.623-1.792.407-1.792.206-1.847-.038-1.736-.336-1.623-.623-1.344-.827-1.175-.91-1.064-1.101-.952-1.197-.783-1.202-.56-1.284-.448-9.346-2.575-.627-.28-.53-.448-.38-.616-.258-.672-.028-.727.094-.784.255-.784.47-.784.55-.671 1.092-.896 1.141-.672 1.26-.504 1.256-.28 1.212-.112 1.747.112 1.65.28 1.592.504 1.456.616 1.345.84 1.247 1.007 1.043 1.176 8.231-6.27"/><path style="fill:#fff;stroke:none;stroke-width:.658233;stroke-linecap:round;stroke-linejoin:round;stroke-miterlimit:10;stroke-dasharray:none;stroke-opacity:1" d="M-127.76 92.014h8.314l-9.018 35.059-.052.617.139.505.313.449.41.28.576.056 1.624-.056 1.667-.224-1.05 7.629-2.705.504-2.661.337-2.686.224-1.098-.112-.986-.336-.957-.45-.74-.672-.587-.842-.384-1.01-.209-1.065-.033-1.122.196-1.178z"/><path style="fill:#fff;stroke:none;stroke-width:.658575;stroke-linecap:round;stroke-linejoin:round;stroke-miterlimit:10;stroke-dasharray:none;stroke-opacity:1" d="m-80.479 112.89-1.093-.56-1.136-.393-1.316-.112-1.32.112-1.377.336-.868.448-.844.56-.779.728-.646.84-.937 1.344-.751 1.456-.493 1.288-.4 1.344-.184 1.344-.01 1.288.079.952.307.896.498.784.702.615.799.448 1.043.336 1.086.168h1.184l1.172-.168 1.23-.392.87-.448.842-.56.726-.727.592-.84.625-1.176.518-1.176 1.296-5.04.015-.896-.107-.84-.282-.784-.473-.672zm-18.902 24.134 1.265.728 1.43.504 1.46.392 2.44.336 2.515.056 2.316-.224.933-.28.883-.504.818-.672.686-.784.553-.896.352-.952.432-1.68-1.532.728-1.528.504-1.93.392-1.94.224-1.853-.112-1.664-.224-1.591-.504-1.427-.728-1.261-.952-1.017-1.064-.867-1.232-.608-1.4-.418-1.512-.242-1.568-.038-1.736.139-1.791.3-1.792.528-1.848.73-1.792.877-1.736.984-1.736 1.092-1.736 1.279-1.624 1.148-1.12 1.242-1.063 1.36-.896 1.385-.784 1.396-.616 1.88-.616 1.861-.336 1.858-.112 1.814.056 1.689.336 1.204.336 1.093.56.928.784.418-1.624h8.283l-7.85 30.518-.497 1.512-.697 1.456-.844 1.4-1.045 1.343-1.124 1.232-1.295 1.064-1.74 1.12-1.791.896-1.84.672-1.837.448-2.252.392-2.141.168-2.137-.056-2.055-.168-2.53-.616-2.38-.784-2.338-.952-2.157-1.232 5.727-7z"/><path style="fill:#fff;stroke:none;stroke-width:.658222;stroke-linecap:round;stroke-linejoin:round;stroke-miterlimit:10;stroke-dasharray:none;stroke-opacity:1" d="M-55.83 116.977h12.357l.127-1.12-.102-1.064-.293-.952-.482-.84-.673-.728-.769-.56-.92-.392-1.017-.224h-1.075l-1.132.224-1.122.392-1.057.56-1.047.728-.915.84-.782.952-.65 1.064zm-1.838 7.56-.02 1.12.225 1.007.414.896.605.784.755.616 1.213.504 1.325.28 1.383.056 1.426-.112 1.498-.392 1.623-.672 1.574-.896 1.47-1.12 3.761 5.432-1.391 1.232-1.47 1.12-1.535.952-1.584.728-1.649.56-2.05.448-2.045.224-2.002.056-1.945-.168-1.834-.392-1.389-.448-1.292-.616-1.127-.84-.991-.952-.894-1.12-.65-1.232-.568-1.344-.324-1.456-.234-2.016-.058-2.072.171-2.127.4-2.184.67-2.184.87-2.128 1.084-2.128 1.271-2.016 1.331-1.624 1.518-1.512 1.689-1.343 1.738-1.12 1.56-.84 1.638-.728 1.634-.504 1.63-.28 1.587-.112 1.544.056 1.486.28 1.443.448 1.292.616 1.127.84 1.124 1.063.972 1.232.7 1.456.525 1.512.266 1.68.104 2.52-.125 2.576-.408 2.632-.57 2.631h-20.31z"/><path style="fill:#fff;stroke:none;stroke-width:2.58019;stroke-linecap:round;stroke-linejoin:round;stroke-miterlimit:10;stroke-opacity:1" d="m-15.333 104.146-1.573.145-1.541.341-1.523.548-1.486.767-1.454.979-1.42 1.197-.391.373-1.198 1.283-1.112 1.354-.992 1.442-.873 1.531-.755 1.603-.644 1.711-.055.142-.478 1.656-.394 1.621-.272 1.62-.174 1.622-.065 1.587.016.946.153 1.585.309 1.48.461 1.35.597 1.231.753 1.103.564.677 1.01.91 1.165.728 1.28.537 1.42.34 1.541.14.753.016 1.556-.085 1.59-.231 1.641-.338 1.677-.464.701.249 1.18.462.185.16h5.407l-.086-1.07-.034-1.71.153-1.193.72-2.812.718-2.763.684-2.603.633-2.44.58-2.278.548-2.123.515-1.96.461-1.814.428-1.64.375-1.478.342-1.337.291-1.16.256-1.012.222-.84.174-.694.118-.533.082-.372h-6.241l-.357 1.44-.272-.249-.89-.52-1.182-.44-1.453-.322-1.762-.249-2.035-.124zm.271 7.626.753.055 1.367.391 1.301.747.444.394.824 1.141.29 1.333v.074l-.087 1.835-.222 1.69-.343 1.531-.494 1.373-.427.926-.96 1.784-.956 1.407-.959 1.05-.58.43-1.351.656-1.59.395-1.847.103-1.042-.142-1.133-.498-.82-.891-.494-1.264-.156-1.658v-.536l.12-1.672.292-1.515.103-.321.546-1.62.734-1.584.926-1.553.137-.214 1.127-1.334 1.42-1.23 1.574-.961z"/><path d="m22.094 124.369 6.959 3.023-.248.336-1.227 1.848-1.4 1.68-1.517 1.512-1.703 1.4-1.807 1.176-1.72.84-1.663.616-1.742.504-1.737.28-1.695.112-1.637-.112-1.54-.28-1.482-.504-1.4-.616-1.234-.84-1.202-1.176-.983-1.4-.793-1.512-.535-1.68-.277-1.848-.021-.336.039-2.24.268-2.295.483-2.296.698-2.296.899-2.24 1.113-2.24.208-.392 1.213-1.792 1.4-1.68 1.585-1.567 1.689-1.344 1.821-1.232 1.653-.784 1.73-.672 1.728-.448 1.698-.336 1.694-.112 1.637.112 1.58.336 1.496.448 1.332.672 1.302.784 1.188 1.232.997 1.344.725 1.568.535 1.68.292 1.791.06.392-8.5 2.968-.184-1.792-.49-1.232-.693-1.064-.912-.84-1.145-.56-1.193-.168-1.225.168-1.487.56-1.345.84-1.24 1.064-1.07 1.232-.703 1.064-.596 1.064-.608 1.736-.554 1.736-.353 1.792-.286 1.736.049 1.064.17 1.007.436 1.232.679 1.12.912.84 1.2.56 1.138.168 1.28-.168 1.433-.56 1.344-.84 1.255-1.12 1.123-1.232z" style="fill:#fff;stroke:none;stroke-width:.658214;stroke-linecap:round;stroke-linejoin:round;stroke-miterlimit:10;stroke-dasharray:none;stroke-opacity:1"/><path style="fill:#fff;stroke:none;stroke-width:.658654;stroke-linecap:round;stroke-linejoin:round;stroke-miterlimit:10;stroke-dasharray:none;stroke-opacity:1" d="M60.512 136.464H52.17l4.867-18.922.234-1.12.02-1.12-.172-1.007-.401-.952-.62-.728-1-.503-1.18-.224-1.253.056-1.256.28-1.3.447-1.14.672-1.078.84-.905 1.008-.704 1.063-.395 1.12-4.91 19.09h-8.342l11.434-44.45h8.341l-3.845 14.947 1.497-1.008 1.493-.783 1.612-.616 1.622-.448 1.55-.168h1.56l1.69.336 1.416.56 1.306.784 1.1.951.95 1.12.745 1.288.54 1.455.268 1.68.038 1.735-.192 1.791-.367 1.848z"/><g style="fill:#fff"><path d="M1118.103 286.774a11.001 13.752 0 0 1-11.002 13.752 11.001 13.752 0 0 1-11-13.752 11.001 13.752 0 0 1 11-13.752 11.001 13.752 0 0 1 11.002 13.752z" style="fill:#fff;fill-rule:evenodd;stroke:none;stroke-width:1.02011;stroke-linecap:round;stop-color:#000" transform="matrix(.381 0 0 .3175 -525.75 5.489)"/><path style="fill:#fff;stroke:none;stroke-width:.582607;stroke-linecap:round;stroke-linejoin:round;stroke-miterlimit:10;stroke-opacity:1" d="m1092.199 312.518-17.563 81.981-.226 1.351-.17 1.742v1.788l.184 1.817.338 1.828.505 1.853.668 1.87.845 1.9 1.012 1.906 1.19 1.957h20.381l-.602-.957-.917-1.649-.794-1.688-.668-1.77-.556-1.835-.442-1.892-.321-1.953-.192-2.01-.09-2.1.039-2.158 17.563-81.98zm0 0" transform="matrix(.381 0 0 .3175 -525.75 5.489)"/></g><path style="fill:#fff;stroke:none;stroke-width:.50437;stroke-linecap:round;stroke-linejoin:round;stroke-miterlimit:10;stroke-dasharray:none;stroke-opacity:1" d="m344.873 124.557-5.925-9.29-2.564 2.648v6.642h-6.513V91.22h6.513v17.867l8.279-8.324h8.698l-9.707 9.795 8.909 14z"/><path style="fill:#fff;stroke:none;stroke-width:.504386;stroke-linecap:round;stroke-linejoin:round;stroke-miterlimit:10;stroke-dasharray:none;stroke-opacity:1" d="M363.608 100.745H357.1v23.812h6.51v-14.304l.083-.841.336-.8.504-.757.672-.63.756-.506 1.344-.463.504-.042.462.042.21.043.881.378.63.547.504.673.336.8.21.841.042.841v14.178h6.51v-14.304l.083-.841.294-.8.546-.757.672-.63.756-.506 1.344-.463.462-.042.503.042.168.043.882.378.63.547.546.673.336.8.168.841.042.841v14.178h6.509v-14.22l-.042-1.388-.252-1.346-.378-1.304-.546-1.263-.714-1.093-.84-.968-.965-.841-1.05-.716-1.134-.589-1.218-.42-1.386-.253-1.05-.042-1.05.126-1.05.21-.965.337-.966.463-.882.631-.798.715-.714.842-.587-.926-.714-.757-.84-.631-.966-.463-.756-.252-1.386-.253-1.218-.042-1.175.168-1.176.295-1.092.463-1.05.63-.966.758z"/><path style="fill:#fff;stroke:none;stroke-width:.720077;stroke-linecap:round;stroke-linejoin:round;stroke-miterlimit:10;stroke-dasharray:none;stroke-opacity:1" d="M313.686 171.723h-7.924v-8.158l3.902-.36 1.201-.3 1.08-.54.961-.78.66-1.019.48-1.08.781-3.178h8.645v47.625h-9.786z"/><path style="fill:#fff;stroke:none;stroke-width:.720365;stroke-linecap:round;stroke-linejoin:round;stroke-miterlimit:10;stroke-dasharray:none;stroke-opacity:1" d="m346.037 190.6.48 1.261.72 1.201.96 1.081 1.08.841 1.2.66 1.38.421 1.38.18 1.38-.06 1.32-.3 1.32-.54 1.14-.721 1.02-.961.84-1.141.66-1.261.48-1.382.3-1.381.06-1.441-.12-1.442-.3-1.381-.48-1.321-.72-1.262-1.02-1.08-1.2-.901-1.32-.721-1.44-.42-1.44-.12-1.5.06-1.44.36-1.38.66-1.2.841-1.08 1.021-.84 1.261-9.9-1.561 3.6-24.743h29.521v8.828h-21.181l-1.02 7.087 1.56-.961 1.62-.781 1.74-.6 1.8-.36 1.86-.121 1.8.06 1.86.3 1.74.54 1.681.722 1.56.96 1.44 1.081 1.44 1.382 1.26 1.501 1.08 1.622.78 1.621.48 1.682.36 2.582.12 2.643-.12 2.642-.3 2.583-.48 2.582-.54 1.742-.84 1.621-.96 1.502-1.2 1.381-1.32 1.261-1.5 1.021-1.62.841-2.1.78-2.16.601-2.22.36-2.28.12-2.22-.12-2.221-.36-2.16-.6-2.1-.841-1.68-.9-1.5-1.022-1.38-1.261-1.2-1.381-1.08-1.562-.84-1.621-.66-1.742-.42-1.802 9.42-2.702zM390.26 190.6l.48 1.261.72 1.201.96 1.081 1.08.841 1.2.66 1.38.421 1.38.18 1.38-.06 1.32-.3 1.32-.54 1.14-.721 1.021-.961.84-1.141.66-1.261.48-1.382.3-1.381.06-1.441-.12-1.442-.3-1.381-.48-1.321-.72-1.262-1.02-1.08-1.2-.901-1.32-.721-1.44-.42-1.44-.12-1.5.06-1.44.36-1.38.66-1.2.841-1.08 1.021-.841 1.261-9.9-1.561 3.6-24.743h29.522v8.828H392.54l-1.02 7.087 1.56-.961 1.62-.781 1.74-.6 1.8-.36 1.86-.121 1.8.06 1.86.3 1.741.54 1.68.722 1.56.96 1.44 1.081 1.44 1.382 1.26 1.501 1.08 1.622.78 1.621.48 1.682.36 2.582.12 2.643-.12 2.642-.3 2.583-.48 2.582-.54 1.742-.84 1.621-.96 1.502-1.2 1.381-1.32 1.261-1.5 1.021-1.62.841-2.1.78-2.16.601-2.22.36-2.28.12-2.22-.12-2.22-.36-2.16-.6-2.101-.841-1.68-.9-1.5-1.022-1.38-1.261-1.2-1.381-1.08-1.562-.84-1.621-.66-1.742-.42-1.802 9.42-2.702z"/><rect style="fill:#fff;fill-opacity:1;stroke:none;stroke-width:8.59502;stroke-dasharray:none" width="181.761" height="111.125" x="28.62" y="-65.942" rx="15.875"/><rect style="fill:#008445;fill-opacity:1;stroke:none;stroke-width:7.9375;stroke-dasharray:none" width="165.886" height="95.25" x="36.557" y="-58.005" rx="23.813"/><path style="fill:#ffc90e;fill-opacity:1;stroke:none;stroke-width:.858741;stroke-linecap:round;stroke-linejoin:round;stroke-miterlimit:10;stroke-dasharray:none;stroke-opacity:1" d="M72.379-42.13H60.533v63.5h10.373v-42.946L93.638 21.37h11.91v-63.5H95.111V.817Z"/><path style="fill:#ffc90e;fill-opacity:1;stroke:none;stroke-width:.960092;stroke-linecap:round;stroke-linejoin:round;stroke-miterlimit:10;stroke-dasharray:none;stroke-opacity:1" d="m139.844-1.291 20.065-26.585v26.585Zm-14.39 11.77h34.455V21.37h13.03V10.48h8.154V-1.291h-8.154V-42.13H156.31L125.455-1.29z"/></g></svg>