<svg xmlns="http://www.w3.org/2000/svg" width="2766.8" height="878" viewBox="0 0 732.049 232.304"><g transform="translate(7.786 48.608)"><rect style="fill:#000;fill-rule:evenodd;stroke-width:.0255134;stop-color:#000" width="731.52" height="231.775" x="-7.522" y="-48.343" rx="16.536"/><rect style="fill:#fff;fill-rule:evenodd;stroke-width:.0255134;stop-color:#000" width="729.933" height="230.188" x="-6.728" y="-47.549" rx="15.875"/><rect style="fill:#804000;fill-opacity:1;fill-rule:evenodd;stroke-width:.0251868;stop-color:#000" width="714.071" height="214.313" x="1.21" y="-39.612" rx="31.75"/><path style="fill:#fff;stroke:none;stroke-width:.671798;stroke-linecap:round;stroke-linejoin:round;stroke-miterlimit:10;stroke-dasharray:none;stroke-opacity:1" d="M270.726 82.626v44.45h-9.07v-44.45z"/><path style="fill:#fff;stroke:none;stroke-width:.671938;stroke-linecap:round;stroke-linejoin:round;stroke-miterlimit:10;stroke-dasharray:none;stroke-opacity:1" d="M223.855 90.855h10.585l1.064.112.952.336.952.448.784.672.673.783.448.952.336.952.112 1.063-.112 1.008-.336 1.008-.448.895-.673.84-.784.616-.952.504-.952.336-1.064.056h-10.585zm-9.073-8.23v44.45h9.073v-17.354h5.936l10.138 17.355h10.585l-10.641-18.139 1.624-.727 1.568-.952 1.4-1.12 1.232-1.343 1.065-1.456.84-1.567.672-1.68.392-1.735.168-1.792-.056-1.847-.336-1.736-.504-1.735-.784-1.624-1.009-1.511-1.12-1.4-1.344-1.175-1.512-1.008-1.624-.84-1.68-.56-1.793-.391-1.792-.112z"/><path style="fill:#fff;stroke:none;stroke-width:.672344;stroke-linecap:round;stroke-linejoin:round;stroke-miterlimit:10;stroke-dasharray:none;stroke-opacity:1" d="m289.093 82.626 9.577 33.575 9.577-33.575h9.464l-12.713 44.45h-12.657l-12.713-44.45z"/><path style="fill:#fff;stroke:none;stroke-width:.672348;stroke-linecap:round;stroke-linejoin:round;stroke-miterlimit:10;stroke-dasharray:none;stroke-opacity:1" d="M357.923 118.387h-21.786v-9.753h18.202v-8.24h-18.202v-9.136h20.106v-8.632h-29.235v44.45h30.915z"/><path style="fill:#fff;stroke:none;stroke-width:.671938;stroke-linecap:round;stroke-linejoin:round;stroke-miterlimit:10;stroke-dasharray:none;stroke-opacity:1" d="M379.43 90.855h10.585l1.064.112.952.336.952.448.784.672.673.783.448.952.336.952.112 1.063-.112 1.008-.336 1.008-.448.895-.673.84-.784.616-.952.504-.952.336-1.064.056H379.43zm-9.073-8.23v44.45h9.073v-17.354h5.936l10.138 17.355h10.585l-10.641-18.139 1.624-.727 1.568-.952 1.4-1.12 1.232-1.343 1.065-1.456.84-1.567.672-1.68.392-1.735.168-1.792-.056-1.847-.336-1.736-.504-1.735-.784-1.624-1.009-1.511-1.12-1.4-1.344-1.175-1.512-1.008-1.624-.84-1.68-.56-1.793-.391-1.792-.112z"/><path d="m475.132 107.905-.785-1.289-.952-1.177-1.121-1.065-1.234-.84-1.345-.673 1.177-.785 1.065-1.009.841-1.121.729-1.233.504-1.345.336-1.402.113-1.457-.113-1.458-.336-1.4-.56-1.458-.729-1.458-.953-1.289-1.065-1.233-1.233-1.009-1.345-.897-1.402-.729-1.569-.504-1.57-.336-1.569-.112H441.11v44.45h21.804l1.962-.225 1.85-.392 1.85-.729 1.737-.897 1.57-1.12 1.288-1.29 1.121-1.457.897-1.626.617-1.737.392-1.794.112-1.85-.056-1.57-.224-1.513-.392-1.513zm-24.887-7.399V91.09h10.09l1.064.112 1.01.336.896.56.729.73.56.896.337 1.009.112 1.065-.112 1.009-.337 1.009-.56.897-.729.728-.897.617-1.009.336-1.064.112zm0 18.106v-11.099h10.538l1.065.056 1.065.336.953.505.84.729.673.84.505.953.336 1.01.112 1.12-.112 1.065-.336 1.065-.505.953-.672.841-.841.673-.953.504-1.065.336-1.065.112h-10.538" style="fill:#fff;stroke:none;stroke-width:.67263;stroke-linecap:round;stroke-linejoin:round;stroke-miterlimit:10;stroke-dasharray:none;stroke-opacity:1"/><path style="fill:#fff;stroke:none;stroke-width:.67182;stroke-linecap:round;stroke-linejoin:round;stroke-miterlimit:10;stroke-dasharray:none;stroke-opacity:1" d="m510.914 91.527 1.176.784 1.064.895.952 1.064.783 1.12.616 1.231.448 1.344.56 2.239.336 2.295.056 2.352-.056 2.295-.336 2.295-.56 2.295-.448 1.288-.616 1.288-.783 1.12-.952 1.063-1.064.896-1.176.727-1.287.56-1.344.448-1.4.224-1.4.112-1.4-.112-1.399-.224-1.344-.448-1.287-.56-1.176-.727-1.064-.896-.952-1.064-.783-1.12-.616-1.287-.504-1.288-.504-2.295-.336-2.295-.056-2.295.056-2.352.336-2.295.504-2.24.504-1.343.616-1.231.783-1.12.952-1.064 1.064-.895 1.176-.784 1.287-.56 1.344-.392 1.4-.28 1.4-.056 1.4.056 1.399.28 1.344.392zm15.733 11.7-.168-2.351-.392-2.351-.616-2.296-.896-2.239-1.063-2.127-1.288-2.016L520.768 88l-1.68-1.736-1.791-1.343-1.96-1.12-2.015-.896-2.128-.727-2.24-.392-2.183-.224h-2.575l-2.24.224-2.183.392-2.128.727-2.071.896-1.904 1.12-1.791 1.343-1.68 1.736-1.456 1.847-1.288 2.016-1.12 2.127-.839 2.24-.616 2.295-.448 2.35-.168 2.352v3.191l.168 2.407.448 2.352.616 2.295.84 2.24 1.12 2.126 1.287 1.96 1.456 1.903 1.68 1.68 1.791 1.343 1.904 1.176 2.071.896 2.128.671 2.183.448 2.24.224h2.575l2.184-.224 2.24-.448 2.127-.671 2.015-.896 1.96-1.176 1.792-1.343 1.68-1.68 1.455-1.903 1.288-1.96 1.063-2.127.896-2.24.616-2.294.392-2.352.168-2.407z"/><path style="fill:#fff;stroke:none;stroke-width:.672649;stroke-linecap:round;stroke-linejoin:round;stroke-miterlimit:10;stroke-dasharray:none;stroke-opacity:1" d="m546.205 109.531-14.91-26.905h10.426l9.081 16.311 9.025-16.311h10.426l-14.91 26.905v17.545h-9.138z"/><path style="fill:#fff;stroke:none;stroke-width:.672071;stroke-linecap:round;stroke-linejoin:round;stroke-miterlimit:10;stroke-dasharray:none;stroke-opacity:1" d="M588.575 82.626H578.21v44.45h9.077V97.013l19.89 30.063h10.421v-44.45h-9.132v30.062z"/><path style="fill:#fff;stroke:none;stroke-width:.672348;stroke-linecap:round;stroke-linejoin:round;stroke-miterlimit:10;stroke-dasharray:none;stroke-opacity:1" d="M662.406 118.387H640.62v-9.753h18.201v-8.24H640.62v-9.136h20.105v-8.632h-29.234v44.45h30.915z"/><path d="m354.413 36.468-.44-1.29-.637-1.176-.836-1.065-1.008-.841-1.165-.673 1.388-.785 1.335-1.008 1.141-1.122 1.06-1.233.864-1.345.712-1.401.503-1.458.278-1.457.04-1.401-.17-1.458-.339-1.457-.607-1.29-.735-1.233-.963-1.008-1.105-.897-1.206-.729-1.434-.505-1.48-.336-1.539-.112h-20.907l-11.91 44.45h21.804l2.022-.224 1.954-.392 2.045-.73 1.978-.896 1.87-1.121 1.635-1.29 1.511-1.457 1.333-1.625 1.082-1.738.873-1.794.608-1.85.364-1.569.181-1.513.014-1.514zm-22.905-7.399 2.523-9.417h10.09l1.035.112.919.336.746.561.534.729.32.897.066 1.008-.173 1.065-.383 1.01-.607 1.008-.8.897-.924.729-1.062.617-1.1.336-1.094.112zm-4.851 18.105 2.974-11.098h10.538l1.05.056.974.336.818.504.646.73.447.84.25.953.065 1.009-.188 1.12-.398 1.066-.621 1.065-.76.953-.898.84-1.021.673-1.088.505-1.155.336-1.095.112h-10.538" style="fill:#fff;stroke:none;stroke-width:.672629;stroke-linecap:round;stroke-linejoin:round;stroke-miterlimit:10;stroke-dasharray:none;stroke-opacity:1"/><path style="fill:#fff;stroke:none;stroke-width:.672912;stroke-linecap:round;stroke-linejoin:round;stroke-miterlimit:10;stroke-dasharray:none;stroke-opacity:1" d="m265.486 35.444-.413 1.122-5.11 19.072h-8.689l8.507-31.75h8.69l-.602 2.244 1.56-1.01 1.627-.841 1.623-.617 1.674-.393 1.63-.224 1.61.056 1.76.336 1.476.561 1.359.786 1.146.953.989 1.122.775 1.29.562 1.459.278 1.683.038 1.738-.2 1.796-.384 1.85-5.08 18.96h-8.69l5.066-18.903.245-1.122.076-1.122-.219-1.066-.432-.897-.646-.73-1.042-.504-1.229-.225-1.304.056-1.293.225-1.369.505-1.19.673-1.122.841-.943 1.01z"/><path style="fill:#fff;stroke:none;stroke-width:.672235;stroke-linecap:round;stroke-linejoin:round;stroke-miterlimit:10;stroke-dasharray:none;stroke-opacity:1" d="M388.262 55.638h-8.69l5.07-18.922.245-1.12.02-1.12-.179-1.007-.418-.952-.646-.727-1.042-.504-1.229-.224-1.304.056-1.309.28-1.353.447-1.189.672-1.122.84-.942 1.008-.734 1.063-.412 1.12-5.115 19.09h-8.69l11.911-44.45h8.69l-4.006 14.947 1.56-1.007 1.555-.784 1.678-.616 1.69-.448 1.614-.168h1.626l1.76.336 1.476.56 1.36.784 1.146.951.989 1.12.776 1.288.563 1.455.279 1.68.04 1.735-.2 1.792-.383 1.847z"/><path d="m235.727 9.677-1.11.03-1.099.084-1.078.132-1.078.186-1.069.247-1.057.298-1.037.349-1.039.41-1.016.463-1.017.512-.995.565-.997.626-.976.68-.246.184-.946.73-.914.758-.873.793-.83.811-.802.852-.75.873-.719.895-.678.933-.646.955-.597.987-.565 1.016-.523 1.036-.483 1.069-.216.514-.472 1.19-.433 1.14-.379 1.08-.34 1.006-.287.956-.133.503-.267 1.058-.226 1.047-.173 1.027-.144 1.018-.093 1.005-.052.985-.01.987.03.955.071.956.123.935.155.924.195.914.246.892.288.885.33.862.369.863.41.842.452.822.493.82.546.802.154.207.605.78.657.698.698.626.731.543.78.485.811.401.72.275.738.216.842.175.945.133 1.07.105 1.169.06 1.275.03h.277l.975-.03 1.037-.112 1.11-.176 1.18-.247.308-.07 4.592-1.109.555.75.02.04.596.71.01.01h7.856l-.225-.945-.103-.966.02-1.006.134-1.048.196-.883 10.608-39.603h-6.502l-.78.646-.451.382-.935-.463-.934-.41-.945-.37-.945-.33-.946-.278-.954-.225-.957-.186-.965-.132-.963-.092-.966-.053zm-1.684 7.774.985.084.944.185.904.277.873.39.832.493.657.482.71.7.574.76.433.801.286.852.155.903.03.585-.021.915-.061.945-.093.966-.133.996-.163 1.016-.217 1.048-.237 1.069-.278 1.098-.318 1.13-.358 1.15-.391 1.172-.112.327-.494 1.356-.534 1.274-.544 1.202-.575 1.108-.605 1.028-.627.944-.647.864-.678.78-.698.688-.73.615-.748.524-.781.453-.802.359-.821.287-.854.196-.883.112-.79.031-.874-.04-.934-.133-1.018-.227-1.087-.318-.237-.072-.842-.318-.771-.38-.688-.431-.615-.503-.534-.566-.462-.626-.392-.678-.309-.75-.235-.811-.163-.864-.083-.935-.01-.985.07-1.058.146-1.108.226-1.172.286-1.243.031-.112.36-1.234.38-1.19.42-1.151.463-1.108.482-1.08.524-1.025.555-.987.586-.944.626-.905.657-.863.698-.812.72-.78.76-.739.791-.699.565-.451 1.14-.833 1.097-.676 1.049-.555 1.016-.401.977-.268.935-.123z" style="fill:#fff;fill-opacity:1;fill-rule:evenodd;stroke:none;stroke-width:.192742"/><path d="M454.364 15.714a4.366 4.366 0 0 1-4.366 4.366 4.366 4.366 0 0 1-4.366-4.366 4.366 4.366 0 0 1 4.366-4.366 4.366 4.366 0 0 1 4.366 4.366z" style="fill:#fff;fill-rule:evenodd;stroke:none;stroke-width:.362117;stroke-linecap:round;stop-color:#000"/><path style="fill:#fff;stroke:none;stroke-width:.206812;stroke-linecap:round;stroke-linejoin:round;stroke-miterlimit:10;stroke-opacity:1" d="m444.084 23.888-6.97 26.029-.09.429-.068.553v.567l.073.577.135.58.2.589.265.594.336.603.401.605.472.621h8.09l-.24-.304-.364-.523-.315-.536-.265-.562-.22-.582-.176-.601-.128-.62-.076-.639-.035-.666.015-.685 6.97-26.03zm0 0"/><path style="fill:#fff;stroke:none;stroke-width:.672571;stroke-linecap:round;stroke-linejoin:round;stroke-miterlimit:10;stroke-dasharray:none;stroke-opacity:1" d="m418.439 30.395 1.193.561.936.898.722 1.065.51 1.234.177 1.01-.006 1.066-.257 1.795-.41 1.739-.522 1.739-.705 1.795-.565 1.066-.719 1.01-1.17 1.234-1.294 1.065-1.417.898-1.48.505-1.347.224-1.172-.224-1.209-.505-.991-.898-.723-1.065-.453-1.235-.178-1.01.006-1.065.257-1.795.354-1.74.578-1.738.705-1.795.566-1.066.718-1.01 1.115-1.234 1.294-1.065 1.472-.898 1.494-.56 1.278-.17zm12.427 2.524-.022-.336-.303-1.795-.542-1.74-.826-1.514-1.024-1.402-1.253-1.178-1.286-.842-1.459-.617-1.545-.504-1.66-.28-1.706-.113-1.767.112-1.755.28-1.815.505-1.79.617-1.737.842-1.883 1.178-1.776 1.402-1.638 1.515-1.474 1.739-1.265 1.795-.202.336-1.161 2.244-.953 2.3-.728 2.3-.504 2.3-.28 2.3-.026 2.187.007.393.303 1.795.557 1.683.81 1.57 1.025 1.403 1.252 1.178 1.302.785 1.444.673 1.544.505 1.605.28 1.706.113 1.766-.112 1.812-.28 1.815-.506 1.804-.673 1.723-.785 1.883-1.178 1.776-1.402 1.653-1.571 1.459-1.683 1.265-1.795.217-.393 1.146-2.187.953-2.3.672-2.3.56-2.3.28-2.3z"/><path style="fill:#fff;fill-opacity:1;fill-rule:evenodd;stroke:none;stroke-width:.593378" d="m414.88 18.687.458 1.513 11.584-2.621-.85-3.093z"/><path style="fill:#fff;stroke:none;stroke-width:.672912;stroke-linecap:round;stroke-linejoin:round;stroke-miterlimit:10;stroke-dasharray:none;stroke-opacity:1" d="m465.194 35.444-.413 1.122-5.11 19.072h-8.69l8.508-31.75h8.689l-.602 2.244 1.56-1.01 1.627-.841 1.623-.617 1.675-.393 1.63-.224 1.61.056 1.76.336 1.475.561 1.36.786 1.145.953.989 1.122.775 1.29.563 1.459.277 1.683.039 1.738-.2 1.796-.385 1.85-5.08 18.96h-8.689l5.065-18.903.245-1.122.076-1.122-.218-1.066-.433-.897-.645-.73-1.042-.504-1.23-.225-1.304.056-1.293.225-1.368.505-1.19.673-1.122.841-.943 1.01zM502.976 35.444l-.413 1.122-5.11 19.072h-8.689l8.507-31.75h8.69l-.602 2.244 1.56-1.01 1.627-.841 1.623-.617 1.674-.393 1.63-.224 1.61.056 1.76.336 1.476.561 1.359.786 1.146.953.989 1.122.775 1.29.562 1.459.278 1.683.039 1.738-.201 1.796-.384 1.85-5.08 18.96h-8.69l5.066-18.903.245-1.122.076-1.122-.219-1.066-.432-.897-.646-.73-1.041-.504-1.23-.225-1.304.056-1.293.225-1.369.505-1.19.673-1.122.841-.943 1.01z"/><g style="fill:#fff"><path d="M-63.554 125.468a14.525 14.525 0 0 0-9.52 3.505 14.296 14.296 0 0 1-9.367 3.433 15.897 15.897 0 0 1-9.738-3.425 17.063 17.063 0 0 0-8.778-3.49 14.55 14.55 0 0 0-9.51 3.511 14.282 14.282 0 0 1-9.368 3.43 15.82 15.82 0 0 1-9.736-3.431 15.825 15.825 0 0 0-8.918-3.407 14.628 14.628 0 0 0-9.51 3.518 14.258 14.258 0 0 1-9.367 3.433 15.756 15.756 0 0 1-9.723-3.435 15.79 15.79 0 0 0-8.913-3.405v3.883a15.585 15.585 0 0 1 8.913 3.405 15.604 15.604 0 0 0 9.723 3.435 14.367 14.367 0 0 0 9.367-3.447 14.53 14.53 0 0 1 9.51-3.506 15.985 15.985 0 0 1 8.918 3.42 15.725 15.725 0 0 0 9.736 3.42 14.372 14.372 0 0 0 9.369-3.444 14.55 14.55 0 0 1 9.509-3.51 16.958 16.958 0 0 1 8.778 3.503 15.708 15.708 0 0 0 9.738 3.424 14.375 14.375 0 0 0 9.367-3.446 14.525 14.525 0 0 1 9.52-3.506z" style="fill:#fff;stroke:none;stroke-width:.672727;stroke-linecap:round;stroke-linejoin:round;stroke-miterlimit:10;stroke-opacity:1" transform="matrix(1.2 0 0 1.20605 252.099 -21.588)"/><path d="M-167.089 124.935a15.778 15.778 0 0 0 9.723 3.434 14.296 14.296 0 0 0 9.368-3.432 14.62 14.62 0 0 1 9.509-3.52 15.862 15.862 0 0 1 8.918 3.405 15.827 15.827 0 0 0 9.736 3.434 14.266 14.266 0 0 0 9.369-3.432 14.565 14.565 0 0 1 9.509-3.508 17.076 17.076 0 0 1 8.778 3.487 15.862 15.862 0 0 0 9.738 3.424 14.273 14.273 0 0 0 9.367-3.429 14.525 14.525 0 0 1 9.52-3.506v-3.898a14.544 14.544 0 0 0-9.52 3.506 14.387 14.387 0 0 1-9.367 3.447 15.715 15.715 0 0 1-9.738-3.425 16.958 16.958 0 0 0-8.778-3.504 14.55 14.55 0 0 0-9.51 3.511 14.382 14.382 0 0 1-9.368 3.446 15.735 15.735 0 0 1-9.736-3.418 15.948 15.948 0 0 0-8.918-3.422 14.521 14.521 0 0 0-9.51 3.507 14.361 14.361 0 0 1-9.367 3.444 15.655 15.655 0 0 1-9.723-3.42 15.79 15.79 0 0 0-8.912-3.405v3.869a15.765 15.765 0 0 1 8.912 3.405z" style="fill:#fff;stroke:none;stroke-width:.672727;stroke-linecap:round;stroke-linejoin:round;stroke-miterlimit:10;stroke-opacity:1" transform="matrix(1.2 0 0 1.20605 252.099 -21.588)"/><path d="M-176.002 113.471a15.585 15.585 0 0 1 8.913 3.405 15.603 15.603 0 0 0 9.723 3.435 14.367 14.367 0 0 0 9.368-3.448 14.529 14.529 0 0 1 9.509-3.505 15.985 15.985 0 0 1 8.918 3.42 15.724 15.724 0 0 0 9.736 3.42 14.372 14.372 0 0 0 9.369-3.444 14.55 14.55 0 0 1 9.51-3.511 16.958 16.958 0 0 1 8.777 3.504 15.705 15.705 0 0 0 9.738 3.423 14.375 14.375 0 0 0 9.367-3.445 14.525 14.525 0 0 1 9.52-3.506v-3.869a14.525 14.525 0 0 0-9.52 3.506 14.296 14.296 0 0 1-9.367 3.432 15.895 15.895 0 0 1-9.738-3.425 17.063 17.063 0 0 0-8.778-3.489 14.55 14.55 0 0 0-9.51 3.511 14.282 14.282 0 0 1-9.368 3.429 15.82 15.82 0 0 1-9.736-3.43 15.825 15.825 0 0 0-8.918-3.408 14.628 14.628 0 0 0-9.51 3.519 14.258 14.258 0 0 1-9.367 3.432 15.756 15.756 0 0 1-9.722-3.434 15.79 15.79 0 0 0-8.914-3.405zm67.326-33.286v15.836h-18.329l-9.756-3.784-7.091-4.457-5.128-5.296-5.3-6.587-2.3-5.942-1.484-3.785V55.239l4.12-8.241 5.467-8.439 6.924-6.42 6.782-4.146 7.43-2.635 8.099-.814h9.924l7.821.478 5.38.84 5.745 1.628 3.843 1.792 2.912 2.157 2.749 1.992.478 1.822-.365 3.365-3.7 1.82-5.636 1.428-10.705 2.245-6.672 1.43-8.383 2.942-8.212 3.923-5.38 3.336-4.99 4.344-2.328 3.982-1.682 4.259-.672 4.85.755 6.056 2.384 5.127 3.558 3.42 4.906 1.376 2.945-.533 5.102-1.993 4.596-3.839 2.886-2.438.843-.168h2.464" style="fill:#fff;stroke:none;stroke-width:.672727;stroke-linecap:round;stroke-linejoin:round;stroke-miterlimit:10;stroke-opacity:1" transform="matrix(1.2 0 0 1.20605 252.099 -21.588)"/></g></g></svg>