<svg xmlns="http://www.w3.org/2000/svg" width="3052" height="1997" viewBox="0 0 807.508 528.373"><g style="display:inline" transform="translate(132.07 97.499)"><rect width="806.929" height="527.844" x="-131.78" y="-97.234" rx="15.875" style="fill:#000;stroke:none;stroke-width:.396931"/><rect width="783.116" height="162.719" x="-119.874" y="-85.328" rx="31.75" style="fill:#fff;stroke:none;stroke-width:.396874"/><rect width="783.116" height="162.719" x="-119.874" y="85.328" rx="31.75" style="fill:#fff;stroke:none;stroke-width:.399985"/><path d="M-32.561 17.86-52.405-1.985v59.53h-23.812v-59.53l-19.844 19.843v-31.75l31.75-31.75 31.75 31.75z" style="fill:#000;fill-opacity:1;stroke:none;stroke-width:.396874"/><path d="M6.328-5.073h9.809l.986.12.882.36.882.48.727.72.623.839.415 1.02.311 1.02.104 1.139-.104 1.08-.311 1.08-.415.959-.623.9-.727.66-.882.54-.882.36-.986.06h-9.81ZM-2.08-13.89v47.624h8.408V15.14h5.501l9.394 18.594h9.809L21.17 14.301l1.505-.78 1.453-1.02 1.297-1.2 1.142-1.439.986-1.56.779-1.679.623-1.8.363-1.859.156-1.92-.052-1.979-.312-1.859-.467-1.86-.726-1.739-.935-1.62-1.038-1.499-1.245-1.26-1.401-1.08-1.505-.899-1.557-.6-1.661-.42-1.66-.12z" style="fill:#000;stroke:none;stroke-width:.669523;stroke-linecap:round;stroke-linejoin:round;stroke-miterlimit:10;stroke-dasharray:none;stroke-opacity:1"/><path d="m-32.561 160.734-19.844-19.843H30.94v-23.813h-83.344l19.844-19.844h-31.75l-31.75 31.75 31.75 31.75z" style="fill:#000;fill-opacity:1;stroke:none;stroke-width:.396874"/><path d="M-80.985 181.458h9.81l.985.12.882.36.883.48.726.72.623.84.415 1.019.312 1.02.103 1.14-.103 1.079-.312 1.08-.415.96-.623.899-.726.66-.883.54-.882.36-.986.06h-9.809zm-8.407-8.817v47.625h8.407v-18.594h5.502l9.393 18.594h9.809l-9.86-19.434 1.504-.78 1.453-1.02 1.298-1.2 1.142-1.439.986-1.56.778-1.679.623-1.8.363-1.859.156-1.919-.052-1.98-.311-1.859-.467-1.86-.727-1.739-.934-1.62-1.038-1.499-1.246-1.26-1.4-1.079-1.506-.9-1.557-.6-1.66-.42-1.661-.12z" style="fill:#000;stroke:none;stroke-width:.669523;stroke-linecap:round;stroke-linejoin:round;stroke-miterlimit:10;stroke-dasharray:none;stroke-opacity:1"/><rect width="783.116" height="162.719" x="-119.874" y="255.984" rx="31.75" style="display:inline;fill:#fff;stroke:none;stroke-width:.396874"/><path d="m575.93 331.39 19.845-19.843H512.43v-23.813h83.344l-19.844-19.843h31.75l31.75 31.75-31.75 31.75z" style="display:inline;fill:#000;fill-opacity:1;stroke:none;stroke-width:.396874"/><path d="M-33.505 188.056h-7.924v-8.158l3.902-.36 1.2-.3 1.08-.54.961-.78.66-1.019.481-1.08.78-3.178h8.645v47.625h-9.785z" style="display:inline;fill:#000;stroke:none;stroke-width:.720076;stroke-linecap:round;stroke-linejoin:round;stroke-miterlimit:10;stroke-dasharray:none;stroke-opacity:1"/><path d="m44.47 205.972.6 1.501.84 1.442 1.08 1.201 1.2 1.081 1.26.6 1.32.421 1.38.3 1.38.06 1.56-.06 1.561-.36 1.44-.66 1.38-.842.78-.9.6-1.021.36-1.201.12-1.562-.06-1.02-.24-.962-.48-.96-.6-.842-.78-.66-.84-.54-1.38-.361-1.44-.18-6-.36v-8.649l4.74-.36 1.62-.24 1.62-.48 1.2-.661 1.08-.901.6-.901.36-1.021.12-1.021-.12-1.081-.36-1.02-.72-.962-.84-.9-1.02-.661-1.08-.48-1.62-.301-1.62-.12-1.62.12-1.62.3-1.56.48-1.5.721-1.021.841-.84.961-.6 1.141-.42 1.201-.24 1.322-9.721-1.382.42-1.862.66-1.861.84-1.682 1.02-1.621 1.2-1.502 1.38-1.321 1.56-1.201 1.86-1.081 2.04-.901 2.041-.72 2.16-.481 2.16-.24 2.22-.06 2.16.18 2.161.42 2.1.6 2.04.781 1.56.841 1.44.961 1.32 1.141 1.141 1.321.96 1.442.78 1.561.54 1.622.36 1.681.18 1.742-.18 1.922-.3 1.922-.54 1.861-.6 1.141-.84 1.021-.96.841-1.08.66-1.2.481 1.38.6 1.32.782 1.08 1.02.9 1.202.66 1.32.54 2.463.24 2.463-.12 2.462-.36 2.402-.42 1.622-.66 1.561-.78 1.502-1.02 1.38-1.14 1.202-1.32 1.081-1.44.84-1.56.722-1.62.48-3.18.48-3.181.18-3.24-.06-3.18-.36-1.801-.42-1.8-.6-1.62-.781-1.62-1.021-1.38-1.202-1.56-1.921-1.32-2.102-1.02-2.222-.841-2.343-.54-2.402 9.72-1.561z" style="display:inline;fill:#000;stroke:none;stroke-width:.720375;stroke-linecap:round;stroke-linejoin:round;stroke-miterlimit:10;stroke-dasharray:none;stroke-opacity:1"/><path d="m17.462 219.606 1.62-.72 1.561-.9 1.38-1.14 1.262-1.259 1.02-1.62.84-1.739.66-1.86.361-1.919.18-1.92-.12-1.978-.3-1.92-.54-1.56-.72-1.439-1.021-1.32-1.2-1.14-1.382-.899-1.5-.66 1.32-.72 1.2-.84 1.081-1.079.9-1.2.661-1.319.48-1.38.3-1.5.06-1.439-.18-1.799-.36-1.74-.6-1.739-.78-1.56-1.08-1.499-1.202-1.32-1.38-1.14-1.741-1.079-1.801-.9-1.921-.66-2.041-.54-1.981-.3-2.041-.06-2.101.06-1.981.3-1.981.54-1.921.66-1.861.9-1.741 1.08-1.381 1.14-1.2 1.319-1.021 1.5-.84 1.559-.601 1.74-.36 1.739-.18 1.8.06 1.439.3 1.5.48 1.379.72 1.32.84 1.2 1.082 1.079 1.2.84 1.32.72-1.5.66-1.38.899-1.201 1.14-1.02 1.32-.721 1.439-.54 1.56-.3 1.919-.12 1.979.18 1.92.36 1.919.66 1.86.84 1.739 1.02 1.62 1.261 1.259 1.441 1.14 1.501.899 1.62.72 2.222.72 2.221.54 2.281.36 2.342.06 2.28-.06 2.282-.36 2.221-.54zm-2.642-36.169.42.9.24.96.12.96-.12.959-.24.96-.42.9-.54.78-.84.719-.961.48-1.32.48-1.321.3-1.381.12-1.38-.12-1.382-.3-1.32-.48-.96-.48-.781-.72-.6-.78-.42-.9-.24-.959-.121-.96.12-.96.24-.96.42-.899.6-.78.781-.72.96-.48 1.321-.48 1.381-.299 1.38-.06 1.382.06 1.32.3 1.32.48.961.48.84.72zm.12 26.932-.84.72-1.741.78-1.921.48-1.981.179-1.981-.18-1.981-.48-1.741-.78-.84-.72-.6-.899-.481-1.02-.3-1.02-.12-1.139.12-1.08.3-1.08.48-1.019.6-.9.84-.72 1.742-.78 1.98-.42 1.982-.239 1.98.24 1.922.42 1.74.78.841.72.66.899.48 1.02.24 1.08.121 1.079-.12 1.14-.24 1.02-.48 1.019z" style="display:inline;fill:#000;stroke:none;stroke-width:.719679;stroke-linecap:round;stroke-linejoin:round;stroke-miterlimit:10;stroke-dasharray:none;stroke-opacity:1"/><path d="M53.807 1.525h-7.924v-8.158l3.902-.36 1.201-.3 1.08-.54.961-.78.66-1.019.48-1.08.781-3.179h8.645v47.625h-9.786z" style="display:inline;fill:#000;stroke:none;stroke-width:.720076;stroke-linecap:round;stroke-linejoin:round;stroke-miterlimit:10;stroke-dasharray:none;stroke-opacity:1"/><path d="m104.774 33.075 1.621-.72 1.56-.9 1.382-1.14 1.26-1.26 1.02-1.619.841-1.74.66-1.858.36-1.92.18-1.92-.12-1.979-.3-1.919-.54-1.56-.72-1.44-1.02-1.319-1.201-1.14-1.381-.899-1.5-.66 1.32-.72 1.2-.84 1.081-1.079.9-1.2.66-1.32.481-1.379.3-1.5.06-1.439-.18-1.8-.36-1.739-.6-1.74-.78-1.559-1.081-1.5-1.2-1.319-1.382-1.14-1.74-1.08-1.801-.899-1.921-.66-2.042-.54-1.98-.3-2.042-.06-2.1.06-1.982.3-1.98.54-1.922.66-1.86.9-1.742 1.08-1.38 1.14-1.201 1.319-1.02 1.5-.841 1.559-.6 1.74-.36 1.739-.18 1.8.06 1.439.3 1.5.48 1.379.72 1.32.84 1.199 1.081 1.08 1.2.84 1.321.72-1.5.659-1.381.9-1.2 1.14L79.5 13.1l-.72 1.44-.54 1.559-.301 1.92-.12 1.979.18 1.92.36 1.919.66 1.859.84 1.74 1.021 1.619 1.261 1.26 1.44 1.14 1.502.899 1.62.72 2.222.72 2.22.54 2.282.36 2.341.059 2.281-.06 2.282-.36 2.22-.54zm-2.641-36.169.42.9.24.96.12.96-.12.959-.24.96-.42.9-.54.779-.841.72-.96.48-1.321.48-1.32.3-1.382.12-1.38-.12-1.381-.3-1.32-.48-.961-.48-.78-.72-.601-.78-.42-.9-.24-.96-.12-.959.12-.96.24-.96.42-.899.6-.78.78-.72.961-.48 1.321-.48 1.38-.3 1.381-.06 1.381.06 1.32.3 1.322.48.96.48.84.72zm.12 26.932-.84.72-1.742.779-1.92.48-1.982.18-1.98-.18-1.982-.48-1.74-.78-.841-.72-.6-.9-.48-1.019-.3-1.02-.12-1.14.12-1.079.3-1.08.48-1.02.6-.899.84-.72 1.741-.78 1.981-.42 1.981-.24 1.981.24 1.921.42 1.741.78.84.72.661.9.48 1.02.24 1.08.12 1.079-.12 1.14-.24 1.02-.48 1.019zM151.719 33.075l1.62-.72 1.561-.9 1.381-1.14 1.26-1.26 1.021-1.619.84-1.74.661-1.858.36-1.92.18-1.92-.12-1.979-.3-1.919-.54-1.56-.72-1.44-1.021-1.319-1.2-1.14-1.381-.899-1.501-.66 1.32-.72 1.201-.84 1.08-1.079.901-1.2.66-1.32.48-1.379.3-1.5.06-1.439-.18-1.8-.36-1.739-.6-1.74-.78-1.559-1.08-1.5-1.201-1.319-1.381-1.14-1.74-1.08-1.802-.899-1.92-.66-2.042-.54-1.981-.3-2.041-.06-2.101.06-1.981.3-1.981.54-1.921.66-1.861.9-1.741 1.08-1.38 1.14-1.201 1.319-1.021 1.5-.84 1.559-.6 1.74-.36 1.739-.181 1.8.06 1.439.3 1.5.48 1.379.72 1.32.841 1.199 1.08 1.08 1.201.84 1.321.72-1.5.659-1.381.9-1.201 1.14-1.02 1.319-.721 1.44-.54 1.559-.3 1.92-.12 1.979.18 1.92.36 1.919.66 1.859.84 1.74 1.021 1.619 1.26 1.26 1.441 1.14 1.501.899 1.621.72 2.221.72 2.221.54 2.282.36 2.34.059 2.282-.06 2.281-.36 2.221-.54zm-2.642-36.169.42.9.24.96.12.96-.12.959-.24.96-.42.9-.54.779-.84.72-.96.48-1.322.48-1.32.3-1.38.12-1.382-.12-1.38-.3-1.321-.48-.96-.48-.781-.72-.6-.78-.42-.9-.24-.96-.12-.959.12-.96.24-.96.42-.899.6-.78.78-.72.96-.48 1.322-.48 1.38-.3 1.381-.06 1.38.06 1.321.3 1.321.48.96.48.841.72zm.12 26.932-.84.72-1.74.779-1.922.48-1.98.18-1.982-.18-1.981-.48-1.74-.78-.841-.72-.6-.9-.48-1.019-.301-1.02-.12-1.14.12-1.079.3-1.08.48-1.02.6-.899.841-.72 1.741-.78 1.981-.42 1.981-.24 1.981.24 1.921.42 1.741.78.84.72.66.9.481 1.02.24 1.08.12 1.079-.12 1.14-.24 1.02-.48 1.019z" style="display:inline;fill:#000;stroke:none;stroke-width:.719679;stroke-linecap:round;stroke-linejoin:round;stroke-miterlimit:10;stroke-dasharray:none;stroke-opacity:1"/><path d="M481.243 352.114h9.809l.986.12.882.36.882.48.727.72.622.84.416 1.02.311 1.019.104 1.14-.104 1.08-.311 1.079-.416.96-.622.9-.727.659-.882.54-.882.36-.986.06h-9.81zm-8.408-8.817v47.625h8.408v-18.594h5.501l9.394 18.594h9.808l-9.86-19.434 1.505-.78 1.453-1.02 1.297-1.199 1.142-1.44.986-1.559.779-1.68.622-1.799.364-1.86.155-1.919-.052-1.98-.31-1.859-.468-1.859-.727-1.74-.934-1.619-1.038-1.5-1.245-1.259-1.402-1.08-1.505-.9-1.557-.6-1.66-.419-1.661-.12z" style="display:inline;fill:#000;stroke:none;stroke-width:.669523;stroke-linecap:round;stroke-linejoin:round;stroke-miterlimit:10;stroke-dasharray:none;stroke-opacity:1"/><path d="M528.722 358.712h-7.924v-8.157l3.902-.36 1.2-.3 1.081-.54.96-.78.661-1.02.48-1.08.78-3.178h8.645v47.625h-9.785z" style="display:inline;fill:#000;stroke:none;stroke-width:.720076;stroke-linecap:round;stroke-linejoin:round;stroke-miterlimit:10;stroke-dasharray:none;stroke-opacity:1"/><path d="m606.697 376.628.6 1.502.84 1.441 1.08 1.201 1.2 1.081 1.26.6 1.32.421 1.381.3 1.38.06 1.56-.06 1.56-.36 1.44-.66 1.38-.841.78-.901.6-1.021.36-1.201.12-1.562-.06-1.02-.24-.962-.48-.96-.6-.841-.78-.66-.84-.541-1.38-.36-1.44-.18-6-.361v-8.648l4.74-.36 1.62-.241 1.62-.48 1.2-.661 1.08-.9.6-.902.36-1.02.12-1.022-.12-1.08-.36-1.022-.72-.96-.84-.901-1.02-.661-1.08-.48-1.62-.3-1.62-.12-1.62.12-1.62.3-1.56.48-1.5.72-1.02.841-.84.961-.6 1.141-.42 1.202-.24 1.32-9.722-1.38.42-1.862.66-1.862.84-1.682 1.02-1.621 1.2-1.502 1.38-1.32 1.561-1.202 1.86-1.081 2.04-.9 2.04-.722 2.16-.48 2.16-.24 2.221-.06 2.16.18 2.16.42 2.1.6 2.04.782 1.561.84 1.44.961 1.32 1.141 1.14 1.322.96 1.441.78 1.561.54 1.622.36 1.682.18 1.741-.18 1.922-.3 1.922-.54 1.862-.6 1.14-.84 1.022-.96.84-1.08.661-1.2.48 1.38.601 1.32.78 1.08 1.022.9 1.2.66 1.322.54 2.462.24 2.463-.12 2.462-.36 2.402-.42 1.622-.66 1.561-.78 1.502-1.02 1.381-1.14 1.201-1.32 1.081-1.44.841-1.56.72-1.62.481-3.18.48-3.18.18-3.241-.06-3.18-.36-1.8-.42-1.8-.6-1.62-.781-1.621-1.021-1.38-1.201-1.56-1.922-1.32-2.102-1.02-2.222-.84-2.342-.54-2.403 9.72-1.561z" style="display:inline;fill:#000;stroke:none;stroke-width:.720375;stroke-linecap:round;stroke-linejoin:round;stroke-miterlimit:10;stroke-dasharray:none;stroke-opacity:1"/><path d="m579.689 390.262 1.62-.72 1.562-.9 1.38-1.14 1.261-1.259 1.02-1.62.841-1.739.66-1.859.36-1.92.18-1.919-.12-1.98-.3-1.919-.54-1.56-.72-1.439-1.02-1.32-1.201-1.139-1.381-.9-1.501-.66 1.32-.72 1.201-.839 1.08-1.08.901-1.2.66-1.319.481-1.38.3-1.499.06-1.44-.18-1.799-.36-1.74-.6-1.739-.78-1.56-1.081-1.499-1.201-1.32-1.38-1.139-1.742-1.08-1.8-.9-1.922-.66-2.04-.539-1.982-.3-2.04-.06-2.102.06-1.981.3-1.981.54-1.921.66-1.861.9-1.74 1.079-1.382 1.14-1.2 1.32-1.02 1.499-.841 1.56-.6 1.739-.36 1.74-.18 1.799.06 1.44.3 1.499.48 1.38.72 1.319.84 1.2 1.08 1.08 1.202.839 1.32.72-1.5.66-1.381.9-1.2 1.139-1.021 1.32-.72 1.439-.541 1.56-.3 1.919-.12 1.98.18 1.919.36 1.919.66 1.86.84 1.739 1.021 1.62 1.26 1.259 1.442 1.14 1.5.9 1.621.72 2.221.719 2.222.54 2.28.36 2.342.06 2.281-.06 2.281-.36 2.222-.54zm-2.641-36.169.42.9.24.96.12.96-.12.96-.24.959-.42.9-.54.78-.841.72-.96.48-1.321.479-1.321.3-1.38.12-1.381-.12-1.381-.3-1.32-.48-.961-.48-.78-.72-.601-.78-.42-.899-.24-.96-.12-.96.12-.96.24-.959.42-.9.6-.78.78-.72.961-.479 1.32-.48 1.382-.3 1.38-.06 1.38.06 1.322.3 1.32.48.96.48.841.72zm.12 26.932-.84.72-1.742.78-1.92.48-1.982.18-1.98-.18-1.982-.48-1.74-.78-.841-.72-.6-.9-.48-1.02-.3-1.02-.121-1.139.12-1.08.3-1.079.48-1.02.6-.9.841-.72 1.741-.779 1.981-.42 1.981-.24 1.981.24 1.921.42 1.741.78.84.72.661.9.48 1.019.24 1.08.12 1.08-.12 1.139-.24 1.02-.48 1.02z" style="display:inline;fill:#000;stroke:none;stroke-width:.719679;stroke-linecap:round;stroke-linejoin:round;stroke-miterlimit:10;stroke-dasharray:none;stroke-opacity:1"/><path d="m585.732 32.065-14.91-26.906h10.426l9.08 16.312 9.025-16.312h10.427l-14.911 26.906v17.544h-9.137z" style="fill:#000;stroke:none;stroke-width:.67265;stroke-linecap:round;stroke-linejoin:round;stroke-miterlimit:10;stroke-dasharray:none;stroke-opacity:1"/><path d="m349.99 34.158 3.81-4.254 12.495 19.705h10.757l-16.92-26.703 16.08-17.747h-12.27L349.99 20.61V5.16h-9.132v44.45h9.132z" style="fill:#000;stroke:none;stroke-width:.672068;stroke-linecap:round;stroke-linejoin:round;stroke-miterlimit:10;stroke-dasharray:none;stroke-opacity:1"/><path d="m330.885 36.717-.784 2.018-.952 1.906-1.12 1.85-1.456 1.793-1.624 1.682-1.793 1.345-1.96 1.121-2.016.953-2.128.673-2.24.448-2.24.168h-2.521l-2.24-.168-2.185-.448-2.128-.673-2.072-.953-1.905-1.12-1.792-1.346-1.68-1.738-1.512-1.85-1.289-2.017-1.064-2.13-.84-2.243-.672-2.298-.392-2.354-.168-2.354v-3.195l.168-2.41.392-2.355.672-2.298.84-2.186 1.064-2.13 1.289-2.018 1.512-1.906 1.68-1.681 1.792-1.345 1.905-1.178 2.072-.896 2.128-.673 2.184-.449 2.24-.168h2.521l2.24.168 2.24.449 2.129.673 2.016.896 1.96 1.178 1.793 1.345 1.68 1.681 1.456 1.906 1.568 2.747 1.232 2.915-9.073 3.587-.392-1.514-.56-1.513-.784-1.345-1.008-1.29-1.176-1.064-1.288-.897-1.289-.56-1.288-.393-1.344-.224-1.344-.112-1.4.112-1.4.224-1.345.448-1.288.56-1.176.73-1.064.952-.952 1.01-.784 1.176-.672 1.234-.449 1.289-.56 2.298-.28 2.298-.056 2.298.056 2.355.28 2.298.56 2.242.449 1.345.672 1.233.784 1.177.952 1.01 1.064.896 1.176.785 1.288.56 1.345.393 1.4.28 1.4.056 1.512-.112 1.512-.28 1.456-.505 1.289-.728 1.232-.897 1.008-1.065.896-1.177.728-1.29.504-1.4.336-1.458zM422.643 36.717l-.784 2.018-.952 1.906-1.12 1.85-1.457 1.793-1.624 1.682-1.792 1.345-1.96 1.121-2.017.953-2.128.673-2.24.448-2.24.168h-2.52l-2.241-.168-2.184-.448-2.129-.673-2.072-.953-1.904-1.12-1.792-1.346-1.68-1.738-1.513-1.85-1.288-2.017-1.064-2.13-.84-2.243-.672-2.298-.392-2.354-.168-2.354v-3.195l.168-2.41.392-2.355.672-2.298.84-2.186 1.064-2.13 1.288-2.018 1.512-1.906 1.68-1.681 1.793-1.345 1.904-1.178 2.072-.896 2.129-.673 2.184-.449 2.24-.168h2.52l2.24.168 2.241.449 2.128.673 2.017.896 1.96 1.178 1.792 1.345 1.68 1.681 1.457 1.906 1.568 2.747 1.232 2.915-9.073 3.587-.392-1.514-.56-1.513-.784-1.345-1.009-1.29-1.176-1.064-1.288-.897-1.288-.56-1.288-.393-1.344-.224-1.345-.112-1.4.112-1.4.224-1.344.448-1.288.56-1.176.73-1.065.952-.952 1.01-.784 1.176-.672 1.234-.448 1.289-.56 2.298-.28 2.298-.056 2.298.056 2.355.28 2.298.56 2.242.448 1.345.672 1.233.784 1.177.952 1.01 1.065.896 1.176.785 1.288.56 1.344.393 1.4.28 1.4.056 1.513-.112 1.512-.28 1.456-.505 1.288-.728 1.232-.897 1.008-1.065.897-1.177.728-1.29.504-1.4.336-1.458z" style="fill:#000;stroke:none;stroke-width:.672364;stroke-linecap:round;stroke-linejoin:round;stroke-miterlimit:10;stroke-dasharray:none;stroke-opacity:1"/><path d="m266.596 14.06 1.175.784 1.064.896.952 1.064.784 1.12.616 1.23.448 1.345.56 2.239.335 2.295.056 2.351-.056 2.296-.335 2.295-.56 2.295-.448 1.288-.616 1.287-.784 1.12-.952 1.064-1.064.895-1.175.728-1.288.56-1.344.448-1.4.224-1.399.112-1.4-.112-1.4-.224-1.343-.448-1.288-.56-1.176-.728-1.063-.895-.952-1.064-.784-1.12-.616-1.287-.504-1.288-.504-2.295-.336-2.295-.056-2.296.056-2.35.336-2.296.504-2.24.504-1.343.616-1.232.784-1.12.952-1.063 1.063-.896 1.176-.783 1.288-.56 1.344-.392 1.4-.28 1.399-.056 1.4.056 1.4.28 1.343.392zm15.732 11.7-.168-2.35-.392-2.352-.615-2.295-.896-2.24-1.064-2.127-1.288-2.015-1.455-1.847-1.68-1.736-1.792-1.343-1.96-1.12-2.015-.896-2.127-.727-2.24-.392-2.183-.224h-2.576l-2.24.224-2.183.392-2.127.727-2.072.896-1.903 1.12-1.792 1.343-1.68 1.736-1.455 1.847-1.288 2.015-1.12 2.128-.84 2.24-.616 2.294-.447 2.352-.168 2.35v3.192l.168 2.407.447 2.351.616 2.296.84 2.239 1.12 2.127 1.288 1.96 1.455 1.903 1.68 1.68 1.792 1.343 1.903 1.176 2.072.895 2.127.672 2.184.448 2.24.224h2.575l2.183-.224 2.24-.448 2.127-.672 2.016-.895 1.96-1.176 1.791-1.343 1.68-1.68 1.455-1.903 1.288-1.96 1.064-2.127.896-2.24.615-2.295.392-2.35.168-2.408zM456.46 14.06l1.176.784 1.064.896.952 1.064.784 1.12.616 1.23.448 1.345.56 2.239.335 2.295.056 2.351-.056 2.296-.336 2.295-.56 2.295-.447 1.288-.616 1.287-.784 1.12-.952 1.064-1.064.895-1.175.728-1.288.56-1.344.448-1.4.224-1.4.112-1.399-.112-1.4-.224-1.343-.448-1.288-.56-1.176-.728-1.063-.895-.952-1.064-.784-1.12-.616-1.287-.504-1.288-.504-2.295-.336-2.295-.056-2.296.056-2.35.336-2.296.504-2.24.504-1.343.616-1.232.784-1.12.952-1.063 1.063-.896 1.176-.783 1.288-.56 1.344-.392 1.4-.28 1.399-.056 1.4.056 1.4.28 1.343.392zm15.733 11.7-.168-2.35-.392-2.352-.616-2.295-.895-2.24-1.064-2.127-1.288-2.015-1.455-1.847-1.68-1.736-1.792-1.343-1.96-1.12-2.015-.896-2.127-.727-2.24-.392-2.183-.224h-2.576l-2.24.224-2.183.392-2.127.727-2.072.896-1.903 1.12-1.792 1.343-1.68 1.736-1.455 1.847-1.288 2.015-1.12 2.128-.84 2.24-.616 2.294-.447 2.352-.168 2.35v3.192l.168 2.407.447 2.351.616 2.296.84 2.239 1.12 2.127 1.288 1.96 1.455 1.903 1.68 1.68 1.792 1.343 1.903 1.176 2.072.895 2.127.672 2.184.448 2.24.224h2.575l2.183-.224 2.24-.448 2.127-.672 2.016-.895 1.96-1.176 1.79-1.343 1.68-1.68 1.456-1.903 1.288-1.96 1.064-2.127.895-2.24.616-2.295.392-2.35.168-2.408z" style="fill:#000;stroke:none;stroke-width:.671819;stroke-linecap:round;stroke-linejoin:round;stroke-miterlimit:10;stroke-dasharray:none;stroke-opacity:1"/><path d="M205.279 13.389h10.585l1.064.112.952.336.952.447.784.672.672.784.449.952.336.951.112 1.064-.112 1.008-.337 1.007-.448.896-.672.84-.784.616-.952.504-.952.335-1.064.056h-10.585Zm-9.074-8.23v44.45h9.074V32.255h5.936l10.138 17.354h10.585l-10.641-18.138 1.624-.728 1.568-.951 1.4-1.12 1.232-1.344 1.064-1.455.84-1.568.673-1.68.392-1.735.168-1.791-.056-1.847-.336-1.736-.504-1.735-.784-1.624-1.009-1.511-1.12-1.4-1.344-1.176-1.512-1.007-1.624-.84-1.68-.56-1.793-.392-1.792-.112zM492.299 13.389h10.585l1.064.112.952.336.952.447.784.672.672.784.449.952.336.951.112 1.064-.112 1.008-.337 1.007-.448.896-.672.84-.784.616-.952.504-.952.335-1.064.056h-10.585Zm-9.074-8.23v44.45h9.074V32.255h5.936l10.138 17.354h10.585l-10.641-18.138 1.624-.728 1.568-.951 1.4-1.12 1.232-1.344 1.064-1.455.84-1.568.673-1.68.392-1.735.168-1.791-.056-1.847-.336-1.736-.504-1.735-.784-1.624-1.009-1.511-1.12-1.4-1.344-1.176-1.512-1.007-1.624-.84-1.68-.56-1.793-.392-1.792-.112zM539.289 13.389h10.585l1.064.112.952.336.952.447.784.672.672.784.449.952.336.951.112 1.064-.112 1.008-.337 1.007-.448.896-.672.84-.784.616-.952.504-.952.335-1.064.056h-10.585Zm-9.074-8.23v44.45h9.074V32.255h5.936l10.138 17.354h10.585l-10.641-18.138 1.624-.728 1.568-.951 1.4-1.12 1.232-1.344 1.064-1.455.84-1.568.673-1.68.392-1.735.168-1.791-.056-1.847-.336-1.736-.504-1.735-.784-1.624-1.009-1.511-1.12-1.4-1.344-1.176-1.512-1.007-1.624-.84-1.68-.56-1.793-.392-1.792-.112z" style="fill:#000;stroke:none;stroke-width:.671938;stroke-linecap:round;stroke-linejoin:round;stroke-miterlimit:10;stroke-dasharray:none;stroke-opacity:1"/><path d="m226.3-37.03-.44-1.289-.638-1.177-.835-1.065-1.008-.84-1.165-.673 1.387-.785 1.336-1.009 1.14-1.121 1.06-1.233.865-1.345.712-1.402.502-1.457.279-1.458.039-1.4-.17-1.458-.338-1.458-.608-1.289-.734-1.233-.963-1.009-1.105-.897-1.206-.729-1.434-.504-1.48-.336-1.54-.112H199.05l-11.91 44.45h21.804l2.022-.225 1.955-.392 2.045-.729 1.978-.897 1.87-1.12 1.634-1.29 1.512-1.457 1.332-1.626 1.082-1.737.873-1.794.608-1.85.365-1.57.181-1.513.013-1.513zm-22.905-7.399 2.523-9.416h10.09l1.034.112.919.336.747.56.533.73.32.896.066 1.009-.173 1.065-.383 1.009-.606 1.009-.801.897-.924.729-1.062.616-1.099.336-1.095.112zm-4.852 18.106 2.974-11.099h10.538l1.05.056.975.336.818.505.645.729.447.84.25.953.066 1.01-.189 1.12-.397 1.065-.622 1.065-.76.953-.898.841-1.02.673-1.089.504-1.155.336-1.095.113h-10.538" style="fill:#000;stroke:none;stroke-width:.672629;stroke-linecap:round;stroke-linejoin:round;stroke-miterlimit:10;stroke-dasharray:none;stroke-opacity:1"/><path d="M239.56-49.61h8.684l-5.071 18.927-.188 1.12-.076 1.12.178 1.008.417.952.702.728 1.041.504 1.188.168h1.289l1.363-.28 1.297-.448 1.245-.672 1.065-.84.999-1.008.677-1.064.412-1.12 5.116-19.094h8.685l-8.507 31.75h-8.685l.6-2.24-1.503 1.008-1.61.784-1.678.616-1.633.448-1.67.168h-1.625l-1.759-.336-1.474-.56-1.303-.784-1.202-.952-.932-1.12-.832-1.288-.562-1.456-.223-1.68-.039-1.736.16-1.848.367-1.792z" style="fill:#000;stroke:none;stroke-width:.672153;stroke-linecap:round;stroke-linejoin:round;stroke-miterlimit:10;stroke-dasharray:none;stroke-opacity:1"/><path d="m308.105-43.102 1.194.56.935.898.723 1.066.509 1.234.177 1.01-.006 1.065-.257 1.796-.41 1.738-.521 1.74-.705 1.794-.566 1.066-.719 1.01-1.17 1.234-1.294 1.066-1.416.897-1.48.505-1.348.225-1.172-.225-1.208-.505-.992-.897-.722-1.066-.454-1.234-.177-1.01.006-1.066.257-1.795.354-1.739.578-1.738.705-1.796.565-1.065.719-1.01 1.114-1.234 1.294-1.066 1.473-.897 1.494-.561 1.277-.169zm12.428 2.524-.022-.337-.303-1.795-.542-1.739-.826-1.514-1.025-1.403-1.252-1.178-1.287-.841-1.458-.617-1.545-.505-1.66-.28-1.707-.113-1.766.113-1.755.28-1.815.505-1.79.617-1.737.841-1.884 1.178-1.776 1.403-1.638 1.514-1.474 1.74-1.264 1.794-.203.337-1.16 2.244-.953 2.3-.728 2.3-.505 2.3-.28 2.3-.026 2.187.007.393.303 1.795.557 1.682.811 1.571 1.024 1.403 1.253 1.178 1.301.785 1.444.673 1.545.505 1.605.28 1.706.112 1.766-.112 1.81-.28 1.816-.505 1.804-.673 1.723-.785 1.884-1.178 1.775-1.403 1.653-1.57 1.46-1.683 1.264-1.795.217-.393 1.147-2.188.952-2.3.672-2.3.56-2.3.28-2.3z" style="fill:#000;stroke:none;stroke-width:.672574;stroke-linecap:round;stroke-linejoin:round;stroke-miterlimit:10;stroke-dasharray:none;stroke-opacity:1"/><path d="M438.97-17.86h-8.68l8.508-31.75h8.678l-.841 3.142 1.35-1.066 1.416-.897 1.554-.786 1.59-.505 1.547-.336 1.542-.112h2.127l-2.21 8.246h-2.967l-1.262.112-1.322.336-1.27.561-1.259.73-1.065.841-1.014 1.066-.86 1.122-.667 1.234-.387 1.234z" style="fill:#000;stroke:none;stroke-width:.672523;stroke-linecap:round;stroke-linejoin:round;stroke-miterlimit:10;stroke-dasharray:none;stroke-opacity:1"/><path d="M386.195-17.86h-8.688l5.07-18.921.244-1.12.02-1.12-.18-1.007-.417-.952-.646-.728-1.042-.504-1.23-.224-1.304.056-1.308.28-1.353.448-1.19.672-1.121.84-.943 1.007-.733 1.064-.412 1.12-5.115 19.09h-8.69l11.911-44.45h8.689l-4.005 14.947 1.56-1.008 1.555-.784 1.678-.615 1.69-.448 1.614-.168h1.626l1.76.336 1.475.56 1.36.783 1.146.952.99 1.12.776 1.287.563 1.456.279 1.68.04 1.735-.2 1.791-.384 1.848z" style="fill:#000;stroke:none;stroke-width:.672237;stroke-linecap:round;stroke-linejoin:round;stroke-miterlimit:10;stroke-dasharray:none;stroke-opacity:1"/><path d="m346.177-29.955 7.249 3.024-.258.336-1.279 1.848-1.457 1.68-1.58 1.512-1.775 1.4-1.882 1.176-1.793.84-1.732.616-1.814.504-1.81.28-1.765.112-1.705-.112-1.604-.28-1.544-.504-1.458-.616-1.286-.84-1.252-1.176-1.024-1.4-.826-1.512-.557-1.68-.289-1.848-.022-.336.04-2.24.28-2.296.503-2.295.727-2.296.936-2.24 1.16-2.24.217-.392 1.264-1.792 1.457-1.68 1.652-1.568 1.76-1.344 1.896-1.231 1.722-.784 1.803-.672 1.799-.448 1.769-.336 1.765-.112 1.705.112 1.645.336 1.559.448 1.387.672 1.357.784 1.237 1.231 1.039 1.344.755 1.568.557 1.68.304 1.792.063.392-8.855 2.968-.191-1.792-.51-1.232-.722-1.064-.95-.84-1.193-.56-1.243-.168-1.276.168-1.55.56-1.4.84-1.292 1.064-1.114 1.232-.733 1.064-.62 1.064-.634 1.736-.577 1.736-.368 1.791-.297 1.736.05 1.064.178 1.008.454 1.232.707 1.12.95.84 1.25.56 1.186.168 1.332-.168 1.493-.56 1.4-.84 1.308-1.12 1.17-1.232z" style="fill:#000;stroke:none;stroke-width:.671785;stroke-linecap:round;stroke-linejoin:round;stroke-miterlimit:10;stroke-dasharray:none;stroke-opacity:1"/><path d="m414.188-50.177-1.639.145-1.605.34-1.586.549-1.548.767-1.515.978-1.48 1.197-.407.373-1.247 1.283-1.158 1.354-1.034 1.443-.91 1.53-.785 1.604-.672 1.71-.057.143-.498 1.655-.41 1.622-.283 1.62-.181 1.622-.069 1.587.017.945.16 1.586.32 1.48.481 1.35.622 1.23.784 1.104.588.676 1.051.91 1.214.729 1.334.536 1.48.34 1.604.14.784.017 1.622-.086 1.655-.23 1.71-.339 1.746-.463.731.248 1.23.463.192.16h5.633l-.09-1.07-.036-1.71.16-1.193.75-2.813.748-2.763.712-2.603.659-2.44.605-2.278.57-2.123.536-1.96.481-1.814.445-1.639.391-1.479.357-1.337.303-1.16.266-1.011.232-.841.18-.694.124-.533.086-.372h-6.502l-.372 1.441-.283-.25-.927-.519-1.232-.44-1.513-.322-1.835-.25-2.12-.124zm.283 7.626.784.055 1.424.39 1.355.748.462.394.859 1.14.301 1.334v.074l-.09 1.835-.231 1.69-.357 1.531-.515 1.372-.445.927-1 1.784-.996 1.407-.999 1.05-.604.43-1.407.656-1.656.395-1.925.103-1.085-.142-1.18-.498-.854-.891-.515-1.265-.162-1.657v-.536l.124-1.672.305-1.515.107-.322.57-1.62.763-1.583.965-1.553.143-.214 1.174-1.334 1.48-1.23 1.638-.962z" style="fill:#000;stroke:none;stroke-width:2.63339;stroke-linecap:round;stroke-linejoin:round;stroke-miterlimit:10;stroke-opacity:1"/><path d="m279.775-49.61-6.97 26.03-.09.428-.067.553v.568l.073.577.134.58.2.588.265.594.336.603.402.606.472.62h8.089l-.24-.303-.363-.523-.316-.536-.265-.562-.22-.583-.176-.6-.127-.62-.076-.64-.036-.666.015-.685 6.97-26.029zM290.142-59.29l-11.281 4.207.468 1.507 11.573-2.62zm0 0" style="fill:#000;stroke:none;stroke-width:.206811;stroke-linecap:round;stroke-linejoin:round;stroke-miterlimit:10;stroke-opacity:1"/><path d="m283.109 202.721-14.91-26.905h10.426l9.08 16.311 9.025-16.311h10.427l-14.911 26.905v17.545h-9.137zM415.189 202.721l-14.91-26.905h10.426l9.08 16.311 9.025-16.311h10.427l-14.911 26.905v17.545h-9.137z" style="fill:#000;stroke:none;stroke-width:.67265;stroke-linecap:round;stroke-linejoin:round;stroke-miterlimit:10;stroke-dasharray:none;stroke-opacity:1"/><path d="M199.652 175.816h9.072v35.772h19.712v8.678h-28.784zM237.117 175.816h9.072v35.772H265.9v8.678h-28.784z" style="fill:#000;stroke:none;stroke-width:.671904;stroke-linecap:round;stroke-linejoin:round;stroke-miterlimit:10;stroke-dasharray:none;stroke-opacity:1"/><path d="m142.186 201.096-.785-1.29-.953-1.177-1.121-1.065-1.233-.84-1.345-.673 1.177-.785 1.065-1.009.84-1.12.73-1.234.504-1.345.336-1.402.112-1.457-.112-1.457-.336-1.402-.56-1.457-.73-1.457-.952-1.29-1.065-1.233-1.234-1.009-1.345-.897-1.401-.728-1.57-.505-1.569-.336-1.57-.112h-20.907v44.45h21.804l1.962-.224 1.85-.393 1.85-.729 1.737-.896 1.57-1.121 1.289-1.29 1.12-1.457.898-1.626.616-1.737.393-1.794.112-1.85-.056-1.57-.225-1.513-.392-1.513zm-24.887-7.4v-9.416h10.089l1.065.112 1.009.336.897.56.728.73.56.896.337 1.01.112 1.064-.112 1.01-.336 1.008-.56.897-.73.729-.896.616-1.01.337-1.064.112zm0 18.106v-11.099h10.537l1.065.056 1.065.337.953.504.841.729.673.84.504.954.336 1.008.112 1.122-.112 1.065-.336 1.065-.504.952-.673.841-.84.673-.954.504-1.065.337-1.065.112H117.3" style="fill:#000;stroke:none;stroke-width:.672629;stroke-linecap:round;stroke-linejoin:round;stroke-miterlimit:10;stroke-dasharray:none;stroke-opacity:1"/><path d="M164.088 175.816h11.818l14.841 44.45h-9.969l-2.408-7.848h-16.746l-2.408 7.848h-9.97zm5.881 9.305-5.937 19.45h11.93z" style="fill:#000;stroke:none;stroke-width:.672354;stroke-linecap:round;stroke-linejoin:round;stroke-miterlimit:10;stroke-dasharray:none;stroke-opacity:1"/><path d="m349.196 201.096-.785-1.29-.953-1.177-1.121-1.065-1.233-.84-1.345-.673 1.177-.785 1.065-1.009.84-1.12.73-1.234.504-1.345.336-1.402.112-1.457-.112-1.457-.336-1.402-.56-1.457-.73-1.457-.952-1.29-1.065-1.233-1.234-1.009-1.345-.897-1.401-.728-1.57-.505-1.57-.336-1.569-.112h-20.907v44.45h21.804l1.962-.224 1.85-.393 1.85-.729 1.737-.896 1.57-1.121 1.289-1.29 1.12-1.457.898-1.626.616-1.737.393-1.794.112-1.85-.056-1.57-.225-1.513-.392-1.513zm-24.887-7.4v-9.416h10.089l1.065.112 1.009.336.897.56.728.73.56.896.337 1.01.112 1.064-.112 1.01-.336 1.008-.56.897-.73.729-.896.616-1.01.337-1.064.112zm0 18.106v-11.099h10.537l1.065.056 1.065.337.953.504.841.729.673.84.504.954.336 1.008.112 1.122-.112 1.065-.336 1.065-.504.952-.673.841-.84.673-.954.504-1.065.337-1.065.112H324.31" style="fill:#000;stroke:none;stroke-width:.672629;stroke-linecap:round;stroke-linejoin:round;stroke-miterlimit:10;stroke-dasharray:none;stroke-opacity:1"/><path d="M371.098 175.816h11.818l14.841 44.45h-9.969l-2.408-7.848h-16.746l-2.408 7.848h-9.97zm5.881 9.305-5.937 19.45h11.93z" style="fill:#000;stroke:none;stroke-width:.672354;stroke-linecap:round;stroke-linejoin:round;stroke-miterlimit:10;stroke-dasharray:none;stroke-opacity:1"/><path d="m138.306 133.627-.44-1.29-.637-1.176-.835-1.065-1.008-.841-1.165-.673 1.387-.785 1.336-1.009 1.14-1.12 1.06-1.234.865-1.345.712-1.401.502-1.458.279-1.457.039-1.401-.17-1.458-.338-1.457-.608-1.29-.734-1.233-.963-1.009-1.105-.896-1.206-.73-1.435-.504-1.479-.336-1.54-.112h-20.907l-11.91 44.45h21.804l2.022-.224 1.955-.393 2.045-.728 1.978-.897 1.87-1.121 1.634-1.29 1.512-1.457 1.332-1.625 1.082-1.738.873-1.794.608-1.85.365-1.569.181-1.513.013-1.514zm-22.904-7.4 2.523-9.416h10.09l1.034.112.919.336.747.561.533.729.32.896.066 1.01-.173 1.064-.383 1.01-.606 1.008-.801.897-.924.729-1.062.616-1.099.337-1.095.112zm-4.852 18.106 2.974-11.098h10.538l1.05.056.975.336.818.504.645.73.447.84.25.953.066 1.009-.189 1.12-.397 1.066-.622 1.065-.76.953-.898.84-1.02.673-1.089.505-1.155.336-1.095.112H110.55" style="fill:#000;stroke:none;stroke-width:.672629;stroke-linecap:round;stroke-linejoin:round;stroke-miterlimit:10;stroke-dasharray:none;stroke-opacity:1"/><path d="m326.112 152.36-2.533.672-2.53.448-2.468.224-2.48.056-2.35-.224-1.117-.224-1.041-.504-.829-.672-.671-.84-.473-.952-.204-1.12-.021-1.175.218-1.232 5.041-18.815h-5.099l1.936-7.224h5.099l2.655-9.911 9.36-2.52-3.33 12.431h8.067l-1.935 7.224h-8.068l-4.142 15.455-.124.672.116.616.257.504.455.392.541.28.602.056 1.71-.112 1.7-.28 1.69-.448z" style="fill:#000;stroke:none;stroke-width:.672153;stroke-linecap:round;stroke-linejoin:round;stroke-miterlimit:10;stroke-dasharray:none;stroke-opacity:1"/><path d="m197.29 120.48-1.639.145-1.605.34-1.586.548-1.548.767-1.515.979-1.48 1.197-.407.373-1.247 1.283-1.158 1.354-1.034 1.442-.91 1.531-.785 1.604-.672 1.71-.057.142-.498 1.656-.41 1.621-.283 1.62-.181 1.622-.069 1.587.017.946.16 1.585.321 1.48.48 1.35.622 1.231.784 1.103.588.677 1.051.91 1.215.728 1.333.537 1.48.34 1.604.14.785.017 1.621-.086 1.656-.231 1.71-.338 1.746-.464.73.25 1.23.462.193.16h5.632l-.09-1.07-.036-1.71.16-1.193.75-2.813.748-2.763.712-2.603.66-2.44.604-2.278.57-2.123.537-1.96.48-1.814.446-1.64.39-1.478.357-1.337.303-1.16.266-1.011.232-.842.18-.693.124-.533.086-.372h-6.502l-.372 1.44-.283-.249-.927-.52-1.231-.44-1.514-.321-1.835-.25-2.12-.124zm.283 7.625.784.056 1.424.39 1.355.747.462.394.859 1.141.301 1.333v.074l-.09 1.835-.231 1.69-.357 1.532-.515 1.372-.445.926-1 1.785-.996 1.406-.999 1.05-.604.43-1.407.656-1.656.395-1.925.103-1.085-.142-1.18-.498-.854-.891-.515-1.264-.162-1.658v-.536l.124-1.672.305-1.515.107-.321.57-1.62.763-1.584.965-1.553.143-.214 1.174-1.334 1.48-1.23 1.638-.961z" style="fill:#000;stroke:none;stroke-width:2.63339;stroke-linecap:round;stroke-linejoin:round;stroke-miterlimit:10;stroke-opacity:1"/><path d="M360.75 152.797h-8.689l5.07-18.922.244-1.12.02-1.12-.179-1.007-.417-.952-.646-.727-1.042-.504-1.23-.224-1.304.056-1.308.28-1.354.448-1.189.671-1.122.84-.942 1.008-.734 1.063-.412 1.12-5.115 19.09h-8.689l11.91-44.45h8.69l-4.006 14.947 1.56-1.007 1.555-.784 1.679-.616 1.69-.448 1.614-.168h1.625l1.76.336 1.476.56 1.36.784 1.146.951.99 1.12.775 1.288.563 1.455.279 1.68.04 1.735-.2 1.792-.383 1.847z" style="fill:#000;stroke:none;stroke-width:.672237;stroke-linecap:round;stroke-linejoin:round;stroke-miterlimit:10;stroke-dasharray:none;stroke-opacity:1"/><path d="m548.362 152.36-2.533.672-2.53.448-2.468.224-2.48.056-2.35-.224-1.117-.224-1.041-.504-.829-.672-.671-.84-.473-.952-.205-1.12-.02-1.175.218-1.232 5.041-18.815h-5.099l1.936-7.224h5.099l2.655-9.911 9.36-2.52-3.33 12.431h8.067l-1.935 7.224h-8.068l-4.142 15.455-.124.672.115.616.258.504.455.392.541.28.602.056 1.71-.112 1.7-.28 1.69-.448z" style="fill:#000;stroke:none;stroke-width:.672153;stroke-linecap:round;stroke-linejoin:round;stroke-miterlimit:10;stroke-dasharray:none;stroke-opacity:1"/><path d="M583 152.797h-8.689l5.07-18.922.244-1.12.02-1.12-.179-1.007-.417-.952-.646-.727-1.043-.504-1.229-.224-1.304.056-1.308.28-1.354.448-1.189.671-1.122.84-.942 1.008-.734 1.063-.412 1.12-5.115 19.09h-8.689l11.91-44.45h8.69l-4.006 14.947 1.56-1.007 1.555-.784 1.678-.616 1.69-.448 1.615-.168h1.625l1.76.336 1.476.56 1.36.784 1.146.951.99 1.12.775 1.288.563 1.455.279 1.68.04 1.735-.2 1.792-.383 1.847z" style="fill:#000;stroke:none;stroke-width:.672237;stroke-linecap:round;stroke-linejoin:round;stroke-miterlimit:10;stroke-dasharray:none;stroke-opacity:1"/><path d="m388.742 120.48-1.638.145-1.605.34-1.587.548-1.548.767-1.515.979-1.48 1.197-.406.373-1.248 1.283-1.158 1.354-1.033 1.442-.91 1.531-.786 1.604-.672 1.71-.057.142-.497 1.656-.41 1.621-.284 1.62-.18 1.622-.07 1.587.017.946.16 1.585.321 1.48.48 1.35.622 1.231.784 1.103.588.677 1.051.91 1.215.728 1.333.537 1.48.34 1.605.14.784.017 1.621-.086 1.656-.231 1.71-.338 1.746-.464.73.25 1.23.462.193.16h5.632l-.09-1.07-.035-1.71.159-1.193.75-2.813.748-2.763.712-2.603.66-2.44.604-2.278.57-2.123.537-1.96.48-1.814.446-1.64.39-1.478.357-1.337.303-1.16.267-1.011.232-.842.18-.693.124-.533.085-.372h-6.502l-.372 1.44-.282-.249-.928-.52-1.231-.44-1.514-.321-1.835-.25-2.12-.124zm.283 7.625.784.056 1.424.39 1.355.747.463.394.858 1.141.302 1.333v.074l-.09 1.835-.232 1.69-.357 1.532-.515 1.372-.445.926-1 1.785-.995 1.406-1 1.05-.604.43-1.407.656-1.655.395-1.925.103-1.086-.142-1.18-.498-.854-.891-.514-1.264-.163-1.658v-.536l.125-1.672.304-1.515.108-.321.569-1.62.764-1.584.965-1.553.142-.214 1.175-1.334 1.48-1.23 1.638-.961z" style="fill:#000;stroke:none;stroke-width:2.63339;stroke-linecap:round;stroke-linejoin:round;stroke-miterlimit:10;stroke-opacity:1"/><path d="M530.675 112.873a4.366 4.366 0 0 1-4.366 4.366 4.366 4.366 0 0 1-4.366-4.366 4.366 4.366 0 0 1 4.366-4.366 4.366 4.366 0 0 1 4.366 4.366z" style="fill:#000;fill-rule:evenodd;stroke:none;stroke-width:.362114;stroke-linecap:round;stop-color:#000"/><path d="m520.395 121.047-6.97 26.028-.09.43-.067.552v.568l.072.577.135.58.2.589.265.594.336.603.401.605.472.621h8.09l-.24-.304-.364-.523-.315-.536-.265-.562-.22-.583-.176-.6-.128-.62-.076-.639-.035-.667.015-.685 6.97-26.028zm0 0" style="fill:#000;stroke:none;stroke-width:.206811;stroke-linecap:round;stroke-linejoin:round;stroke-miterlimit:10;stroke-opacity:1"/><path d="M155.105 133.31h12.873l.132-1.12-.107-1.064-.304-.952-.503-.84-.7-.727-.802-.56-.958-.392-1.06-.224h-1.119l-1.18.224-1.168.392-1.101.56-1.09.727-.953.84-.815.952-.677 1.064zm-1.914 7.56-.02 1.12.234 1.008.431.896.63.783.786.616 1.264.504 1.38.28 1.44.056 1.486-.112 1.56-.392 1.691-.671 1.64-.896 1.531-1.12 3.918 5.431-1.45 1.232-1.531 1.12-1.598.952-1.65.728-1.718.56-2.135.448-2.13.224-2.087.056-2.025-.168-1.91-.392-1.447-.448-1.347-.616-1.174-.84-1.032-.952-.931-1.12-.678-1.232-.591-1.344-.337-1.456-.244-2.015-.06-2.072.178-2.128.417-2.184.697-2.184.906-2.128 1.13-2.128 1.324-2.015 1.387-1.624 1.58-1.512 1.76-1.344 1.81-1.12 1.625-.84 1.706-.728 1.702-.504 1.698-.28 1.654-.112 1.608.056 1.548.28 1.503.448 1.346.616 1.174.84 1.17 1.064 1.014 1.232.729 1.456.546 1.512.278 1.68.108 2.52-.13 2.575-.426 2.632-.593 2.632h-21.157z" style="fill:#000;stroke:none;stroke-width:.671796;stroke-linecap:round;stroke-linejoin:round;stroke-miterlimit:10;stroke-dasharray:none;stroke-opacity:1"/><path d="m171.752 114.224-11.608 2.626-.472-1.523 11.292-4.202z" style="fill:#000;fill-opacity:1;stroke:none;stroke-width:3.3615"/><path d="m470.094 133.627-.44-1.29-.637-1.176-.836-1.065-1.008-.841-1.165-.673 1.388-.785 1.335-1.009 1.141-1.12 1.06-1.234.864-1.345.712-1.401.503-1.458.278-1.457.04-1.401-.17-1.458-.339-1.457-.607-1.29-.735-1.233-.963-1.009-1.105-.896-1.206-.73-1.434-.504-1.48-.336-1.539-.112h-20.907l-11.91 44.45h21.804l2.022-.224 1.954-.393 2.045-.728 1.978-.897 1.87-1.121 1.635-1.29 1.511-1.457 1.333-1.625 1.082-1.738.873-1.794.608-1.85.364-1.569.181-1.513.013-1.514zm-22.905-7.4 2.523-9.416h10.09l1.035.112.919.336.746.56.534.73.32.896.066 1.01-.173 1.064-.383 1.01-.607 1.008-.8.897-.924.729-1.062.616-1.1.337-1.094.112zm-4.851 18.106 2.974-11.098h10.538l1.05.056.974.336.818.504.646.729.447.84.25.954.065 1.009-.188 1.12-.398 1.066-.621 1.065-.76.953-.898.84-1.021.673-1.088.505-1.155.336-1.095.112h-10.538" style="fill:#000;stroke:none;stroke-width:.672629;stroke-linecap:round;stroke-linejoin:round;stroke-miterlimit:10;stroke-dasharray:none;stroke-opacity:1"/><path d="M486.892 133.31h12.873l.133-1.12-.107-1.064-.305-.952-.502-.84-.7-.727-.802-.56-.959-.392-1.059-.224h-1.12l-1.179.224-1.168.392-1.102.56-1.09.727-.953.84-.815.952-.677 1.064zm-1.913 7.56-.02 1.12.233 1.008.432.896.63.783.786.616 1.264.504 1.38.28 1.44.056 1.485-.112 1.56-.392 1.692-.672 1.64-.895 1.53-1.12 3.918 5.431-1.45 1.232-1.53 1.12-1.599.952-1.65.728-1.717.56-2.135.448-2.131.224-2.086.056-2.026-.168-1.91-.392-1.447-.448-1.346-.616-1.174-.84-1.033-.952-.93-1.12-.678-1.232-.592-1.344-.337-1.456-.243-2.015-.06-2.072.177-2.128.418-2.184.697-2.184.906-2.128 1.13-2.128 1.323-2.015 1.387-1.624 1.58-1.512 1.76-1.344 1.811-1.12 1.624-.84 1.707-.728 1.702-.504 1.698-.28 1.653-.112 1.608.056 1.548.28 1.503.448 1.346.616 1.175.84 1.17 1.064 1.013 1.232.73 1.456.546 1.512.277 1.68.108 2.52-.13 2.575-.425 2.632-.594 2.632h-21.156zM603.732 133.31h12.873l.133-1.12-.107-1.064-.305-.952-.502-.84-.7-.727-.802-.56-.959-.392-1.059-.224h-1.12l-1.179.224-1.168.392-1.102.56-1.09.727-.953.84-.815.952-.677 1.064zm-1.913 7.56-.02 1.12.233 1.008.432.896.63.783.786.616 1.264.504 1.38.28 1.44.056 1.485-.112 1.56-.392 1.692-.671 1.64-.896 1.53-1.12 3.918 5.431-1.45 1.232-1.53 1.12-1.599.952-1.65.728-1.717.56-2.135.448-2.131.224-2.086.056-2.026-.168-1.91-.392-1.447-.448-1.346-.616-1.174-.84-1.033-.952-.93-1.12-.678-1.232-.592-1.344-.337-1.456-.243-2.015-.06-2.072.177-2.128.418-2.184.697-2.184.906-2.128 1.13-2.128 1.323-2.015 1.387-1.624 1.58-1.512 1.76-1.344 1.811-1.12 1.624-.84 1.707-.728 1.702-.504 1.698-.28 1.653-.112 1.608.056 1.548.28 1.503.448 1.346.616 1.175.84 1.17 1.064 1.013 1.232.73 1.456.546 1.512.277 1.68.108 2.52-.13 2.575-.425 2.632-.594 2.632h-21.156z" style="fill:#000;stroke:none;stroke-width:.671796;stroke-linecap:round;stroke-linejoin:round;stroke-miterlimit:10;stroke-dasharray:none;stroke-opacity:1"/><path d="m288.86 106.836-1.11.03-1.098.084-1.079.133-1.078.185-1.068.247-1.058.298-1.037.35-1.038.41-1.017.462-1.017.513-.995.564-.997.627-.976.679-.246.184-.946.73-.913.759-.873.792-.83.812-.803.851-.75.873-.718.895-.679.933-.645.955-.598.987-.565 1.016-.522 1.036-.483 1.07-.216.513-.473 1.19-.432 1.14-.38 1.08-.339 1.006-.287.956-.133.503-.268 1.058-.225 1.047-.173 1.027-.145 1.018-.092 1.005-.052.985-.01.987.03.955.071.956.123.935.155.924.195.914.246.892.288.885.33.862.369.863.41.842.452.822.493.82.546.802.154.207.605.78.657.698.698.626.731.543.78.485.811.401.72.275.738.216.842.175.945.133 1.07.105 1.169.06 1.275.03h.277l.975-.03 1.037-.112 1.11-.176 1.18-.247.308-.07 4.591-1.109.555.75.021.04.596.71.01.01h7.856l-.225-.945-.103-.966.02-1.006.134-1.049.196-.882 10.608-39.603h-6.502l-.78.646-.452.382-.934-.463-.935-.41-.944-.37-.945-.33-.946-.278-.954-.225-.957-.185-.965-.133-.963-.092-.966-.053zm-1.684 7.775.985.084.944.184.904.277.873.39.833.493.657.482.71.7.574.76.432.801.287.852.154.903.03.585-.02.915-.062.945-.092.966-.134.996-.163 1.016-.216 1.048-.237 1.069-.278 1.098-.318 1.13-.358 1.15-.392 1.172-.111.327-.494 1.356-.534 1.274-.545 1.202-.575 1.108-.604 1.028-.627.944-.648.864-.678.78-.698.688-.73.615-.748.524-.78.453-.803.358-.82.288-.854.196-.883.112-.79.031-.874-.04-.934-.133-1.018-.227-1.088-.318-.237-.072-.841-.318-.772-.38-.688-.431-.615-.503-.534-.565-.461-.627-.392-.678-.309-.75-.235-.81-.164-.865-.083-.935-.01-.984.071-1.058.145-1.109.226-1.172.287-1.243.03-.112.361-1.234.38-1.19.42-1.15.463-1.11.481-1.079.525-1.025.555-.987.585-.944.626-.905.658-.862.698-.812.719-.78.76-.74.792-.699.564-.45 1.14-.834 1.098-.676 1.048-.555 1.017-.4.976-.269.935-.123z" style="fill:#000;fill-opacity:1;fill-rule:evenodd;stroke:none;stroke-width:.19274"/><path d="m277.664 101.018.494 1.746L297.445 98l-1.068-3.73zm0 0" style="fill:#000;stroke:none;stroke-width:.136846;stroke-linecap:round;stroke-linejoin:round;stroke-miterlimit:10;stroke-opacity:1"/><path d="M224.959 108.347h8.66l-9.394 35.059-.054.617.144.505.327.449.428.28.6.056 1.69-.056 1.737-.224-1.095 7.629-2.817.505-2.772.336-2.798.225-1.143-.113-1.027-.336-.997-.449-.77-.673-.612-.842-.4-1.01-.218-1.065-.034-1.122.204-1.178z" style="fill:#000;stroke:none;stroke-width:.671804;stroke-linecap:round;stroke-linejoin:round;stroke-miterlimit:10;stroke-dasharray:none;stroke-opacity:1"/><path d="M191.315 390.922H179.89l-10.362-44.45h9.354l7.113 30.549 6.386-30.55h10.586l6.385 30.55 7.114-30.55h9.354l-10.362 44.45H204.03l-6.33-30.492z" style="fill:#000;stroke:none;stroke-width:.672391;stroke-linecap:round;stroke-linejoin:round;stroke-miterlimit:10;stroke-dasharray:none;stroke-opacity:1"/><path d="M281.023 346.472h9.072v35.773h19.712v8.677h-28.784z" style="fill:#000;stroke:none;stroke-width:.671904;stroke-linecap:round;stroke-linejoin:round;stroke-miterlimit:10;stroke-dasharray:none;stroke-opacity:1"/><path d="m268.642 371.752-.785-1.29-.953-1.177-1.121-1.065-1.233-.84-1.345-.673 1.177-.785 1.065-1.009.84-1.12.73-1.234.504-1.345.336-1.402.112-1.457-.112-1.457-.336-1.402-.561-1.457-.729-1.457-.953-1.29-1.065-1.233-1.233-1.009-1.345-.897-1.401-.728-1.57-.505-1.57-.336-1.569-.112h-20.907v44.45h21.804l1.962-.224 1.85-.393 1.85-.728 1.737-.897 1.57-1.121 1.289-1.29 1.12-1.457.898-1.625.616-1.738.393-1.794.112-1.85-.056-1.569-.225-1.513-.392-1.514zm-24.887-7.4v-9.416h10.089l1.065.112 1.009.336.897.56.728.73.56.896.337 1.01.112 1.064-.112 1.01-.336 1.008-.56.897-.73.729-.896.616-1.01.337-1.064.112zm0 18.106v-11.099h10.537l1.065.056 1.065.337.953.504.841.729.673.84.504.954.336 1.009.112 1.12-.112 1.066-.336 1.065-.504.953-.673.84-.84.673-.954.504-1.065.337-1.065.112h-10.537" style="fill:#000;stroke:none;stroke-width:.672629;stroke-linecap:round;stroke-linejoin:round;stroke-miterlimit:10;stroke-dasharray:none;stroke-opacity:1"/><path d="M160.957 382.234h-21.786v-9.754h18.202v-8.24h-18.202v-9.136h20.106v-8.632h-29.234v44.45h30.914z" style="fill:#000;stroke:none;stroke-width:.672349;stroke-linecap:round;stroke-linejoin:round;stroke-miterlimit:10;stroke-dasharray:none;stroke-opacity:1"/><path d="M327.443 346.472v44.45h-9.07v-44.45z" style="fill:#000;stroke:none;stroke-width:.671798;stroke-linecap:round;stroke-linejoin:round;stroke-miterlimit:10;stroke-dasharray:none;stroke-opacity:1"/><path d="M87.127 346.472H76.762v44.45h9.076v-30.063l19.89 30.063h10.422v-44.45h-9.132v30.062z" style="fill:#000;stroke:none;stroke-width:.672071;stroke-linecap:round;stroke-linejoin:round;stroke-miterlimit:10;stroke-dasharray:none;stroke-opacity:1"/><path d="m376.704 352.518-1.85-1.624-1.961-1.4-2.13-1.23-2.186-1.064-2.299-.784-2.41-.616-2.41-.336-2.466-.112-2.41.112-2.41.336-2.411.616-1.738.672-1.625.84-1.514 1.063-1.4 1.232-1.234 1.343-.953 1.344-.729 1.455-.56 1.512-.392 1.567-.113 1.624.056 1.623.28 1.624.505 1.511.673 1.512.84 1.343 1.066 1.288 1.177 1.064 1.681 1.12 1.85.783 1.962.504 10.482 2.351 1.008.392.841.56.729.784.504.895.28.952.057 1.064-.168 1.007-.449.952-.616.84-.953.784-1.065.615-1.177.448-1.234.224h-3.026l-1.738-.224-1.682-.336-1.625-.56-1.626-.727-1.905-1.232-1.794-1.343-1.626-1.568-7.735 5.934 1.626 1.68 1.737 1.567 1.85 1.4 1.962 1.231 2.13 1.008 2.41.784 2.523.56 2.522.392 2.522.167 2.579-.056 2.522-.223 2.522-.448 2.467-.672 1.681-.672 1.57-.896 1.457-1.12 1.29-1.287 1.12-1.455.897-1.568.673-1.68.448-1.79.168-1.792-.056-1.792-.28-1.847-.505-1.736-.784-1.623-1.01-1.344-1.176-1.175-1.233-1.064-1.402-.952-1.457-.783-1.401-.56-1.458-.448-10.425-2.575-.73-.28-.672-.448-.56-.616-.449-.672-.224-.727-.112-.784.056-.784.28-.784.393-.671.897-.896 1.009-.672 1.177-.504 1.233-.28 1.233-.112 1.85.112 1.793.28 1.794.504 1.681.616 1.626.84 1.57 1.007 1.4 1.176 6.895-6.27M423.06 352.518l-1.85-1.624-1.962-1.4-2.13-1.23-2.186-1.064-2.299-.784-2.41-.616-2.41-.336-2.466-.112-2.41.112-2.41.336-2.411.616-1.738.672-1.625.84-1.514 1.063-1.4 1.232-1.234 1.343-.953 1.344-.729 1.455-.56 1.512-.392 1.567-.113 1.624.056 1.623.28 1.624.505 1.511.673 1.512.84 1.343 1.066 1.288 1.177 1.064 1.681 1.12 1.85.783 1.962.504 10.482 2.351 1.008.392.841.56.729.784.504.895.28.952.057 1.064-.169 1.007-.448.952-.617.84-.952.784-1.065.615-1.177.448-1.234.224h-3.026l-1.738-.224-1.682-.336-1.625-.56-1.626-.727-1.905-1.232-1.794-1.343-1.626-1.568-7.735 5.934 1.626 1.68 1.737 1.567 1.85 1.4 1.962 1.231 2.13 1.008 2.41.784 2.523.56 2.522.392 2.522.167 2.579-.056 2.522-.223 2.522-.448 2.467-.672 1.681-.672 1.57-.896 1.457-1.12 1.29-1.287 1.12-1.455.897-1.568.673-1.68.448-1.79.168-1.792-.056-1.792-.28-1.847-.505-1.736-.784-1.623-1.01-1.344-1.176-1.175-1.233-1.064-1.402-.952-1.457-.783-1.401-.56-1.458-.448-10.425-2.575-.73-.28-.672-.448-.56-.616-.449-.672-.224-.727-.112-.784.056-.784.28-.784.393-.671.897-.896 1.008-.672 1.178-.504 1.233-.28 1.233-.112 1.85.112 1.793.28 1.794.504 1.681.616 1.626.84 1.57 1.007 1.4 1.176 6.895-6.27" style="fill:#000;stroke:none;stroke-width:.672206;stroke-linecap:round;stroke-linejoin:round;stroke-miterlimit:10;stroke-dasharray:none;stroke-opacity:1"/><path d="M234.487 314.54h-7.732l7.149-26.68h7.732l1.539.112 1.407.392 1.307.56 1.19.785.978.953.749 1.177.55 1.29.298 1.4.098 1.514-.178 2.13-.403 2.13-.585 2.186-.81 2.186-1.02 2.13-.88 1.402-1.103 1.401-1.227 1.233-1.35 1.065-1.488.953-1.54.729-1.536.504-1.603.337zm-2.5 8.913 2.103-.112 2.219-.336 2.167-.56 2.171-.786 2.16-.953 2.053-1.177 1.985-1.345 1.919-1.513 1.739-1.682 1.601-1.794 1.463-1.905 1.254-1.962 1.06-2.074.982-2.41.814-2.41.646-2.411.493-2.466.31-2.41.036-2.019-.188-2.017-.442-1.906-.64-1.794-.853-1.626-1.107-1.513-1.25-1.401-1.436-1.121-1.635-1.01-1.75-.784-1.882-.504-2.04-.337-2.042-.112h-16.753l-11.91 44.45z" style="fill:#000;stroke:none;stroke-width:.672494;stroke-linecap:round;stroke-linejoin:round;stroke-miterlimit:10;stroke-dasharray:none;stroke-opacity:1"/><path d="m108.834 310.56-1.324 2.019-1.463 1.906-1.616 1.85-1.937 1.793-2.075 1.682-2.152 1.345-2.261 1.121-2.272.953-2.308.673-2.36.448-2.286.168h-2.52l-2.195-.168-2.065-.448-1.948-.673-1.817-.953-1.603-1.121-1.432-1.345-1.215-1.738-1.016-1.85-.748-2.018-.493-2.13-.24-2.242-.056-2.298.239-2.354.463-2.354.856-3.195.814-2.41 1.022-2.355 1.288-2.298 1.426-2.186 1.635-2.13 1.829-2.018 2.023-1.906 2.13-1.681 2.153-1.346 2.22-1.177 2.313-.897 2.308-.672 2.305-.449 2.285-.168h2.52l2.195.168 2.12.449 1.949.672 1.776.897 1.644 1.177 1.432 1.346 1.23 1.681.945 1.906.833 2.747.45 2.914-10.034 3.588.014-1.514-.155-1.513-.424-1.345-.662-1.29-.891-1.065-1.048-.897-1.138-.56-1.183-.392-1.284-.225-1.314-.112-1.43.112-1.46.225-1.465.448-1.438.56-1.372.73-1.32.952-1.222 1.009-1.1 1.177-1.002 1.233-.793 1.29-1.176 2.298-.896 2.298-.672 2.298-.575 2.354-.335 2.298-.041 2.243.088 1.345.341 1.233.469 1.177.682 1.01.824.896.965.785 1.138.56 1.24.393 1.324.28 1.386.056 1.542-.112 1.587-.28 1.592-.505 1.483-.729 1.472-.896 1.294-1.065 1.211-1.178 1.074-1.289.88-1.401.726-1.457z" style="fill:#000;stroke:none;stroke-width:.672364;stroke-linecap:round;stroke-linejoin:round;stroke-miterlimit:10;stroke-dasharray:none;stroke-opacity:1"/><path d="M304.395 323.453h-8.68l8.508-31.75h8.679l-.842 3.141 1.35-1.065 1.416-.898 1.554-.785 1.591-.505 1.546-.337 1.542-.112h2.128l-2.21 8.246h-2.967l-1.262.112-1.322.337-1.27.56-1.26.73-1.065.841-1.013 1.066-.86 1.122-.667 1.234-.387 1.234z" style="fill:#000;stroke:none;stroke-width:.672523;stroke-linecap:round;stroke-linejoin:round;stroke-miterlimit:10;stroke-dasharray:none;stroke-opacity:1"/><path d="M180.6 279.003h8.66l-9.394 35.06-.054.616.144.505.327.449.428.28.6.056 1.69-.056 1.737-.224-1.095 7.629-2.817.505-2.772.336-2.798.225-1.143-.113-1.027-.336-.997-.449-.77-.673-.612-.842-.4-1.01-.218-1.065-.034-1.122.204-1.178z" style="fill:#000;stroke:none;stroke-width:.671804;stroke-linecap:round;stroke-linejoin:round;stroke-miterlimit:10;stroke-dasharray:none;stroke-opacity:1"/><path d="M420.849 323.453h-8.69l5.07-18.922.245-1.12.02-1.12-.18-1.007-.417-.952-.646-.727-1.042-.504-1.23-.224-1.303.056-1.309.28-1.353.448-1.189.671-1.122.84-.943 1.008-.733 1.063-.412 1.12-5.115 19.09h-8.69l11.911-44.45h8.689l-4.005 14.947 1.56-1.007 1.555-.784 1.678-.616 1.69-.448 1.614-.168h1.626l1.76.336 1.475.56 1.36.784 1.147.952.989 1.12.776 1.287.563 1.455.279 1.68.04 1.735-.2 1.792-.383 1.847z" style="fill:#000;stroke:none;stroke-width:.672237;stroke-linecap:round;stroke-linejoin:round;stroke-miterlimit:10;stroke-dasharray:none;stroke-opacity:1"/><path d="m380.83 311.358 7.249 3.024-.258.336-1.279 1.848-1.457 1.68-1.58 1.511-1.775 1.4-1.882 1.176-1.792.84-1.733.616-1.814.504-1.81.28-1.765.112-1.705-.112-1.604-.28-1.544-.504-1.458-.616-1.286-.84-1.252-1.176-1.024-1.4-.826-1.512-.557-1.68-.289-1.847-.022-.336.04-2.24.28-2.296.503-2.296.727-2.296.936-2.24 1.16-2.24.217-.391 1.264-1.792 1.457-1.68 1.652-1.568 1.76-1.344 1.896-1.232 1.722-.784 1.803-.672 1.799-.448 1.769-.336 1.765-.112 1.705.112 1.645.336 1.559.448 1.387.672 1.357.784 1.237 1.232 1.039 1.344.755 1.568.557 1.68.304 1.792.063.392-8.855 2.967-.191-1.792-.51-1.231-.722-1.064-.95-.84-1.194-.56-1.242-.168-1.276.168-1.55.56-1.4.84-1.292 1.064-1.114 1.231-.733 1.064-.62 1.064-.634 1.736-.577 1.736-.368 1.792-.297 1.736.05 1.064.178 1.008.454 1.232.707 1.12.95.84 1.25.56 1.186.167 1.332-.168 1.493-.56 1.4-.84 1.308-1.12 1.17-1.231z" style="fill:#000;stroke:none;stroke-width:.671785;stroke-linecap:round;stroke-linejoin:round;stroke-miterlimit:10;stroke-dasharray:none;stroke-opacity:1"/><path d="m279.613 291.136-1.638.145-1.605.34-1.587.548-1.548.767-1.514.979-1.48 1.197-.407.373-1.248 1.283-1.158 1.354-1.033 1.442-.91 1.531-.786 1.604-.671 1.71-.058.142-.497 1.656-.41 1.621-.284 1.62-.18 1.622-.07 1.587.017.946.16 1.585.321 1.48.481 1.35.621 1.231.784 1.103.588.677 1.052.91 1.214.728 1.333.537 1.48.34 1.605.14.784.017 1.621-.086 1.656-.23 1.71-.339 1.746-.464.73.25 1.23.462.193.16h5.632l-.09-1.07-.035-1.71.159-1.193.75-2.813.748-2.763.712-2.603.66-2.44.605-2.278.57-2.123.536-1.96.48-1.814.446-1.64.39-1.478.358-1.337.302-1.16.267-1.011.232-.841.18-.694.124-.533.085-.372h-6.502l-.372 1.44-.282-.249-.928-.52-1.231-.44-1.514-.321-1.835-.25-2.12-.124zm.283 7.625.784.056 1.424.39 1.356.747.462.394.858 1.141.302 1.333v.074l-.09 1.835-.232 1.69-.357 1.532-.514 1.372-.446.926-1 1.785-.995 1.406-.999 1.05-.604.43-1.408.656-1.655.395-1.925.103-1.086-.142-1.179-.498-.854-.891-.515-1.264-.163-1.658v-.536l.125-1.672.304-1.514.108-.322.569-1.62.764-1.584.965-1.553.143-.214 1.174-1.334 1.48-1.23 1.638-.961zM341.843 291.136l-1.638.145-1.605.34-1.587.548-1.548.767-1.514.979-1.48 1.197-.407.373-1.248 1.283-1.158 1.354-1.033 1.442-.91 1.531-.786 1.604-.671 1.71-.058.142-.497 1.656-.41 1.621-.284 1.62-.18 1.622-.07 1.587.017.946.16 1.585.321 1.48.481 1.35.621 1.231.784 1.103.588.677 1.052.91 1.214.728 1.333.537 1.48.34 1.605.14.784.017 1.621-.086 1.656-.231 1.71-.338 1.746-.464.73.25 1.23.462.193.16h5.632l-.09-1.07-.035-1.71.159-1.193.75-2.813.748-2.763.712-2.603.66-2.44.605-2.278.57-2.123.536-1.96.48-1.814.446-1.64.39-1.478.358-1.337.302-1.16.267-1.011.232-.842.18-.693.124-.533.085-.372h-6.502l-.372 1.44-.282-.249-.928-.52-1.231-.44-1.514-.321-1.835-.25-2.12-.124zm.283 7.625.784.056 1.424.39 1.356.747.462.394.858 1.141.302 1.333v.074l-.09 1.835-.232 1.69-.357 1.532-.514 1.372-.446.927-1 1.784-.995 1.406-1 1.05-.603.43-1.408.656-1.655.395-1.925.103-1.086-.142-1.179-.497-.854-.892-.515-1.264-.163-1.658v-.536l.125-1.672.304-1.514.108-.322.569-1.62.764-1.584.965-1.553.143-.214 1.174-1.334 1.48-1.23 1.638-.961z" style="fill:#000;stroke:none;stroke-width:2.63339;stroke-linecap:round;stroke-linejoin:round;stroke-miterlimit:10;stroke-opacity:1"/><path d="M172.309 283.529a4.366 4.366 0 0 1-4.366 4.366 4.366 4.366 0 0 1-4.366-4.366 4.366 4.366 0 0 1 4.366-4.366 4.366 4.366 0 0 1 4.366 4.366z" style="fill:#000;fill-rule:evenodd;stroke:none;stroke-width:.362114;stroke-linecap:round;stop-color:#000"/><path d="m162.028 291.703-6.97 26.029-.09.429-.067.553v.567l.073.577.134.58.2.589.265.594.336.603.402.605.472.621h8.089l-.24-.303-.363-.524-.315-.536-.266-.562-.22-.582-.176-.601-.127-.62-.076-.639-.035-.666.014-.685 6.97-26.03zm0 0" style="fill:#000;stroke:none;stroke-width:.206811;stroke-linecap:round;stroke-linejoin:round;stroke-miterlimit:10;stroke-opacity:1"/><path d="M121.813 291.703h8.684l-5.071 18.927-.188 1.12-.076 1.12.178 1.008.417.952.702.728 1.041.504 1.188.168h1.289l1.363-.28 1.297-.448 1.245-.672 1.065-.84.999-1.008.677-1.064.412-1.12 5.116-19.095h8.685l-8.507 31.75h-8.685l.6-2.24-1.502 1.008-1.611.784-1.678.616-1.633.448-1.67.168h-1.625l-1.759-.336-1.474-.56-1.303-.784-1.202-.952-.932-1.12-.832-1.288-.562-1.456-.223-1.68-.039-1.735.16-1.848.367-1.792z" style="fill:#000;stroke:none;stroke-width:.672153;stroke-linecap:round;stroke-linejoin:round;stroke-miterlimit:10;stroke-dasharray:none;stroke-opacity:1"/><path d="m131.618 286.55.463 1.494 11.422-2.61-.837-3.099zm0 0" style="fill:#000;fill-opacity:1;fill-rule:evenodd;stroke:none;stroke-width:.425074"/></g></svg>