<svg xmlns="http://www.w3.org/2000/svg" width="2405.6" height="917" viewBox="0 0 636.482 242.623"><g transform="translate(-151.493 48.079)"><rect style="fill:#000;fill-rule:evenodd;stroke-width:.0255134;stop-color:#000" width="635.953" height="242.094" x="151.757" y="-47.814" rx="15.875"/><rect style="fill:#fff;fill-opacity:1;fill-rule:evenodd;stroke-width:.0251868;stop-color:#000" width="620.078" height="226.219" x="159.695" y="-39.876" rx="31.75"/><path d="m248.49 119.547-.785-1.29-.952-1.176-1.121-1.065-1.234-.841-1.345-.673 1.177-.784 1.065-1.01.841-1.12.729-1.234.504-1.345.336-1.401.113-1.458-.113-1.457-.336-1.401-.56-1.458-.73-1.457-.952-1.29-1.065-1.232-1.233-1.01-1.345-.896-1.402-.729-1.57-.504-1.569-.337-1.569-.112h-20.907v44.45h21.804l1.962-.224 1.85-.392 1.85-.729 1.737-.897 1.57-1.12 1.288-1.29 1.121-1.458.897-1.625.617-1.738.392-1.793.112-1.85-.056-1.57-.224-1.513-.392-1.513zm-24.887-7.399v-9.417h10.09l1.064.112 1.01.337.896.56.729.729.56.897.337 1.009.112 1.065-.112 1.009-.337 1.009-.56.896-.729.73-.897.616-1.009.336-1.065.112zm0 18.105v-11.098h10.538l1.065.056 1.065.336.953.505.84.728.673.841.505.953.336 1.009.112 1.121-.112 1.065-.336 1.065-.505.953-.672.84-.841.673-.953.505-1.065.336-1.065.112h-10.538" style="fill:#000;stroke:none;stroke-width:.672629;stroke-linecap:round;stroke-linejoin:round;stroke-miterlimit:10;stroke-dasharray:none;stroke-opacity:1"/><path d="M270.393 94.267h11.817l14.842 44.45h-9.97l-2.408-7.847H267.93l-2.409 7.847h-9.969zm5.88 9.305-5.936 19.45h11.93z" style="fill:#000;stroke:none;stroke-width:.672354;stroke-linecap:round;stroke-linejoin:round;stroke-miterlimit:10;stroke-dasharray:none;stroke-opacity:1"/><path style="fill:#000;stroke:none;stroke-width:.671904;stroke-linecap:round;stroke-linejoin:round;stroke-miterlimit:10;stroke-dasharray:none;stroke-opacity:1" d="M305.956 94.267h9.072v35.773h19.713v8.677h-28.785zM343.421 94.267h9.072v35.773h19.713v8.677H343.42z"/><path style="fill:#000;stroke:none;stroke-width:.671798;stroke-linecap:round;stroke-linejoin:round;stroke-miterlimit:10;stroke-dasharray:none;stroke-opacity:1" d="M389.841 94.267v44.45h-9.069v-44.45Z"/><path style="fill:#000;stroke:none;stroke-width:.672071;stroke-linecap:round;stroke-linejoin:round;stroke-miterlimit:10;stroke-dasharray:none;stroke-opacity:1" d="M414.32 94.267h-10.365v44.45h9.077v-30.062l19.89 30.062h10.422v-44.45h-9.133v30.063z"/><path d="M466.925 94.267h11.818l14.841 44.45h-9.969l-2.408-7.847h-16.746l-2.408 7.847h-9.97zm5.881 9.305-5.937 19.45h11.93z" style="fill:#000;stroke:none;stroke-width:.672354;stroke-linecap:round;stroke-linejoin:round;stroke-miterlimit:10;stroke-dasharray:none;stroke-opacity:1"/><path d="m540.014 125.825-.784 2.018-.952 1.906-1.12 1.85-1.456 1.793-1.624 1.682-1.793 1.345-1.96 1.121-2.016.953-2.128.673-2.24.448-2.24.168h-2.521l-2.24-.168-2.185-.448-2.128-.673-2.072-.953-1.905-1.12-1.792-1.346-1.68-1.738-1.512-1.85-1.288-2.018-1.065-2.13-.84-2.242-.672-2.298-.392-2.354-.168-2.354v-3.195l.168-2.41.392-2.355.672-2.298.84-2.186 1.065-2.13 1.288-2.018 1.512-1.906 1.68-1.681 1.792-1.346 1.905-1.177 2.072-.897 2.128-.672 2.184-.449 2.24-.168h2.521l2.24.168 2.24.449 2.129.672 2.016.897 1.96 1.177 1.793 1.346 1.68 1.681 1.456 1.906 1.568 2.747 1.232 2.914-9.073 3.588-.392-1.514-.56-1.513-.784-1.345-1.008-1.29-1.176-1.065-1.288-.896-1.289-.56-1.288-.393-1.344-.225-1.344-.112-1.4.112-1.4.225-1.345.448-1.288.56-1.176.73-1.064.952-.952 1.01-.784 1.176-.672 1.233-.448 1.29-.56 2.298-.28 2.298-.057 2.298.056 2.354.28 2.299.56 2.242.449 1.345.672 1.233.784 1.177.952 1.01 1.064.896 1.176.785 1.288.56 1.345.393 1.4.28 1.4.056 1.512-.112 1.512-.28 1.456-.505 1.289-.728 1.232-.897 1.008-1.065.896-1.177.728-1.29.504-1.401.336-1.457z" style="fill:#000;stroke:none;stroke-width:.672364;stroke-linecap:round;stroke-linejoin:round;stroke-miterlimit:10;stroke-dasharray:none;stroke-opacity:1"/><path style="fill:#000;stroke:none;stroke-width:.67237;stroke-linecap:round;stroke-linejoin:round;stroke-miterlimit:10;stroke-dasharray:none;stroke-opacity:1" d="m586.39 123.415-.337 2.074-.56 1.962-.84 1.905-.952 1.794-1.232 1.682-1.344 1.57-1.569 1.4-1.68 1.178-1.792 1.009-1.904.784-2.017.56-2.016.337-2.072.112-2.073-.112-2.016-.336-1.96-.56-1.96-.785-1.793-1.01-1.68-1.176-1.512-1.402-1.4-1.57-1.177-1.68-1.008-1.795-.784-1.905-.56-1.962-.392-2.074-.112-2.074V94.267h9.13v27.074l.111 1.513.336 1.402.56 1.345.785 1.233.952 1.121 1.064.953 1.288.785 1.344.56 1.4.337 1.457.112 1.456-.112 1.456-.337 1.344-.56 1.233-.785 1.12-.953.952-1.121.728-1.233.56-1.345.336-1.402.112-1.513V94.267h9.13v27.074z"/><path style="fill:#000;stroke:none;stroke-width:.671938;stroke-linecap:round;stroke-linejoin:round;stroke-miterlimit:10;stroke-dasharray:none;stroke-opacity:1" d="M609.353 102.497h10.585l1.064.112.952.336.952.447.784.672.673.784.448.952.336.951.112 1.064-.112 1.008-.336 1.007-.448.896-.673.84-.784.616-.952.503-.952.336-1.064.056h-10.585Zm-9.073-8.23v44.45h9.073v-17.354h5.936l10.138 17.354h10.585l-10.641-18.138 1.624-.728 1.568-.952 1.4-1.12 1.232-1.343 1.064-1.455.84-1.568.673-1.68.392-1.735.168-1.791-.056-1.848-.336-1.735-.504-1.735-.784-1.624-1.009-1.511-1.12-1.4-1.344-1.176-1.512-1.007-1.624-.84-1.68-.56-1.793-.392-1.792-.112zM656.343 102.497h10.585l1.064.112.952.336.952.447.784.672.673.784.448.952.336.951.112 1.064-.112 1.008-.336 1.007-.448.896-.673.84-.784.616-.952.503-.952.336-1.064.056h-10.585Zm-9.073-8.23v44.45h9.073v-17.354h5.936l10.138 17.354h10.585l-10.641-18.138 1.624-.728 1.568-.952 1.4-1.12 1.232-1.343 1.064-1.455.84-1.568.673-1.68.392-1.735.168-1.791-.056-1.848-.336-1.735-.504-1.735-.784-1.624-1.009-1.511-1.12-1.4-1.344-1.176-1.512-1.007-1.624-.84-1.68-.56-1.793-.392-1.792-.112z"/><path d="M703.78 94.267h11.818l14.841 44.45h-9.969l-2.408-7.847h-16.746l-2.408 7.847h-9.97zm5.881 9.305-5.937 19.45h11.93z" style="fill:#000;stroke:none;stroke-width:.672354;stroke-linecap:round;stroke-linejoin:round;stroke-miterlimit:10;stroke-dasharray:none;stroke-opacity:1"/><path d="m296.363 36.203-.44-1.289-.637-1.177-.835-1.065-1.008-.84-1.165-.673 1.387-.785 1.336-1.009 1.14-1.121 1.06-1.233.865-1.346.712-1.4.502-1.458.279-1.458.039-1.401-.17-1.457-.338-1.458-.608-1.289-.734-1.233-.963-1.009-1.105-.897-1.206-.729-1.434-.504-1.48-.336-1.54-.112h-20.907l-11.91 44.45h21.804l2.022-.225 1.955-.392 2.045-.729 1.978-.897 1.87-1.12 1.634-1.29 1.512-1.457 1.332-1.626 1.083-1.737.872-1.794.608-1.85.365-1.57.181-1.513.013-1.513zm-22.904-7.399 2.523-9.416h10.09l1.034.112.92.336.746.56.533.73.32.896.066 1.009-.173 1.065-.382 1.009-.607 1.009-.801.897-.924.728-1.062.617-1.099.336-1.095.112zm-4.852 18.106 2.974-11.099h10.538l1.05.056.975.336.818.505.645.729.447.84.25.953.066 1.01-.189 1.12-.397 1.065-.622 1.065-.76.953-.898.84-1.02.674-1.089.504-1.155.336-1.095.112h-10.538" style="fill:#000;stroke:none;stroke-width:.672629;stroke-linecap:round;stroke-linejoin:round;stroke-miterlimit:10;stroke-dasharray:none;stroke-opacity:1"/><path style="fill:#000;stroke:none;stroke-width:2.63339;stroke-linecap:round;stroke-linejoin:round;stroke-miterlimit:10;stroke-opacity:1" d="m320.422 23.056-1.639.145-1.605.34-1.586.548-1.548.768-1.515.978-1.48 1.197-.407.373-1.247 1.283-1.158 1.354-1.034 1.443-.91 1.53-.785 1.604-.672 1.71-.057.143-.498 1.655-.41 1.622-.283 1.62-.181 1.622-.069 1.587.017.945.16 1.586.32 1.48.481 1.35.622 1.23.784 1.103.588.677 1.051.91 1.214.729 1.334.536 1.48.34 1.604.14.784.017 1.622-.085 1.655-.232 1.71-.338 1.746-.463.731.249 1.23.462.192.16h5.633l-.09-1.07-.036-1.71.159-1.193.75-2.813.748-2.763.713-2.603.659-2.44.605-2.278.57-2.123.536-1.96.48-1.814.446-1.639.391-1.479.357-1.337.303-1.16.266-1.01.232-.842.18-.694.124-.532.085-.372h-6.501l-.372 1.44-.283-.25-.927-.519-1.232-.44-1.513-.322-1.835-.25-2.12-.124zm.283 7.626.784.055 1.424.39 1.355.748.463.394.858 1.14.301 1.334v.074l-.09 1.834-.231 1.69-.357 1.532-.515 1.372-.445.927-1 1.784-.996 1.407-.999 1.05-.604.43-1.407.656-1.656.394-1.925.103-1.085-.142-1.18-.497-.854-.892-.514-1.264-.163-1.658v-.536l.124-1.671.305-1.515.107-.322.57-1.62.763-1.583.965-1.553.143-.214 1.174-1.334 1.48-1.231 1.638-.96z"/><path d="M357.262 15.45a4.366 4.366 0 0 1-4.366 4.365 4.366 4.366 0 0 1-4.366-4.366 4.366 4.366 0 0 1 4.366-4.366 4.366 4.366 0 0 1 4.366 4.366z" style="fill:#000;fill-rule:evenodd;stroke:none;stroke-width:.362114;stroke-linecap:round;stop-color:#000"/><path style="fill:#000;stroke:none;stroke-width:.206811;stroke-linecap:round;stroke-linejoin:round;stroke-miterlimit:10;stroke-opacity:1" d="m346.982 23.623-6.97 26.029-.09.429-.068.553v.568l.073.577.135.58.2.588.265.594.336.603.401.605.472.622h8.09l-.24-.304-.364-.523-.315-.536-.265-.562-.22-.583-.176-.6-.128-.62-.076-.64-.035-.666.015-.685 6.97-26.029zm0 0"/><path style="fill:#000;stroke:none;stroke-width:.671804;stroke-linecap:round;stroke-linejoin:round;stroke-miterlimit:10;stroke-dasharray:none;stroke-opacity:1" d="M365.553 10.923h8.66l-9.394 35.06-.053.617.144.504.327.45.427.28.6.056 1.691-.056 1.736-.225-1.094 7.63-2.817.504-2.772.337-2.798.224-1.143-.112-1.028-.337-.997-.448-.77-.674-.612-.841-.4-1.01-.217-1.066-.035-1.121.204-1.178z"/><path style="fill:#000;stroke:none;stroke-width:.671796;stroke-linecap:round;stroke-linejoin:round;stroke-miterlimit:10;stroke-dasharray:none;stroke-opacity:1" d="M385.87 35.887h12.872l.133-1.12-.107-1.064-.305-.952-.502-.84-.7-.728-.802-.56-.959-.392-1.059-.224h-1.12l-1.179.224-1.168.392-1.102.56-1.09.728-.953.84-.815.952-.677 1.064zm-1.914 7.56-.02 1.12.233 1.007.432.896.63.784.786.616 1.264.504 1.38.28 1.44.056 1.486-.112 1.56-.392 1.691-.672 1.64-.896 1.53-1.12 3.918 5.432-1.449 1.232-1.531 1.12-1.599.952-1.65.728-1.717.56-2.135.447-2.131.224-2.086.056-2.026-.168-1.91-.392-1.447-.447-1.346-.616-1.174-.84-1.032-.952-.932-1.12-.677-1.232-.591-1.344-.338-1.456-.243-2.016-.06-2.072.178-2.128.417-2.183.697-2.184.906-2.128 1.13-2.128 1.324-2.016 1.386-1.624 1.58-1.512 1.76-1.344 1.811-1.12 1.625-.84 1.706-.727 1.702-.504 1.698-.28 1.653-.112 1.608.056 1.548.28 1.504.448 1.346.615 1.174.84 1.17 1.064 1.013 1.232.73 1.456.546 1.512.277 1.68.109 2.52-.13 2.576-.426 2.631-.593 2.632h-21.157z"/><path style="fill:#000;stroke:none;stroke-width:.672912;stroke-linecap:round;stroke-linejoin:round;stroke-miterlimit:10;stroke-dasharray:none;stroke-opacity:1" d="m446.832 35.18-.413 1.121-5.11 19.072h-8.69l8.508-31.75h8.689l-.601 2.244 1.56-1.01 1.626-.84 1.623-.618 1.675-.393 1.63-.224 1.61.056 1.76.337 1.475.56 1.36.786 1.145.954.989 1.122.775 1.29.563 1.458.277 1.683.039 1.739-.2 1.795-.385 1.851-5.08 18.96h-8.689l5.066-18.904.244-1.122.077-1.122-.22-1.065-.432-.898-.645-.73-1.042-.504-1.23-.224-1.303.056-1.294.224-1.368.505-1.19.673-1.122.842-.943 1.01z"/><path style="fill:#000;stroke:none;stroke-width:2.63339;stroke-linecap:round;stroke-linejoin:round;stroke-miterlimit:10;stroke-opacity:1" d="m489.65 23.056-1.64.145-1.604.34-1.587.548-1.548.768-1.514.978-1.48 1.197-.407.373-1.248 1.283-1.158 1.354-1.033 1.443-.91 1.53-.786 1.604-.671 1.71-.058.143-.497 1.655-.41 1.622-.284 1.62-.18 1.622-.07 1.587.017.945.16 1.586.321 1.48.481 1.35.621 1.23.784 1.103.588.677 1.051.91 1.215.729 1.333.536 1.48.34 1.605.14.784.017 1.621-.085 1.656-.232 1.71-.338 1.746-.463.73.249 1.23.462.193.16h5.632l-.09-1.07-.035-1.71.159-1.193.75-2.813.748-2.763.712-2.603.66-2.44.605-2.278.57-2.123.536-1.96.48-1.814.446-1.639.39-1.479.358-1.337.302-1.16.267-1.01.232-.842.18-.694.124-.532.085-.372H498.5l-.372 1.44-.282-.25-.928-.519-1.231-.44-1.514-.322-1.835-.25-2.12-.124zm.282 7.626.784.055 1.424.39 1.356.748.462.394.858 1.14.302 1.334v.074l-.09 1.834-.232 1.69-.357 1.532-.514 1.372-.446.927-1 1.784-.995 1.407-.999 1.05-.604.43-1.408.656-1.655.394-1.925.103-1.086-.142-1.179-.497-.854-.892-.515-1.264-.163-1.658v-.536l.125-1.671.304-1.515.108-.322.569-1.62.764-1.583.965-1.553.143-.214 1.174-1.334 1.48-1.231 1.638-.96z"/><path d="m572.87 42.481-1.324 2.018-1.463 1.906-1.616 1.85-1.937 1.793-2.075 1.682-2.152 1.345-2.261 1.121-2.272.953-2.308.673-2.36.448-2.286.169h-2.52l-2.195-.169-2.065-.448-1.948-.673-1.817-.953-1.603-1.12-1.432-1.346-1.215-1.738-1.016-1.85-.748-2.017-.493-2.13-.24-2.242-.056-2.299.239-2.354.463-2.354.856-3.195.814-2.41 1.022-2.354 1.288-2.299 1.426-2.186 1.635-2.13 1.829-2.018 2.023-1.905 2.13-1.682 2.153-1.345 2.22-1.177 2.313-.897 2.308-.673 2.304-.448 2.286-.168h2.52l2.195.168 2.12.448 1.949.673 1.776.897 1.644 1.177 1.432 1.345 1.23 1.682.945 1.905.833 2.747.45 2.915-10.034 3.587.014-1.513-.155-1.514-.424-1.345-.662-1.29-.891-1.064-1.048-.897-1.138-.56-1.183-.393-1.284-.224-1.314-.112-1.43.112-1.46.224-1.465.448-1.438.56-1.372.73-1.32.953-1.222 1.008-1.1 1.178-1.002 1.233-.793 1.289-1.176 2.298-.896 2.298-.672 2.298-.575 2.355-.335 2.298-.041 2.242.088 1.345.341 1.233.469 1.178.682 1.009.824.896.965.785 1.138.56 1.24.393 1.324.28 1.386.056 1.542-.112 1.587-.28 1.592-.504 1.483-.73 1.472-.896 1.294-1.065 1.211-1.177 1.074-1.29.88-1.4.726-1.458z" style="fill:#000;stroke:none;stroke-width:.672364;stroke-linecap:round;stroke-linejoin:round;stroke-miterlimit:10;stroke-dasharray:none;stroke-opacity:1"/><path style="fill:#000;stroke:none;stroke-width:.672574;stroke-linecap:round;stroke-linejoin:round;stroke-miterlimit:10;stroke-dasharray:none;stroke-opacity:1" d="m598.831 30.13 1.194.561.936.898.722 1.066.51 1.234.177 1.01-.006 1.065-.257 1.795-.41 1.74-.522 1.738-.705 1.795-.565 1.066-.719 1.01-1.17 1.234-1.294 1.066-1.417.897-1.48.505-1.347.224-1.172-.224-1.209-.505-.991-.897-.723-1.066-.453-1.234-.178-1.01.006-1.066.257-1.795.354-1.739.578-1.739.705-1.795.566-1.065.718-1.01 1.115-1.234 1.294-1.066 1.472-.898 1.494-.56 1.278-.169zm12.428 2.525-.022-.337-.303-1.795-.542-1.739-.826-1.514-1.024-1.403-1.253-1.178-1.286-.841-1.459-.617-1.545-.505-1.66-.28-1.706-.113-1.767.113-1.755.28-1.815.505-1.79.617-1.737.841-1.883 1.178-1.776 1.403-1.638 1.514-1.474 1.74-1.265 1.794-.202.337-1.161 2.244-.953 2.3-.728 2.3-.504 2.3-.28 2.3-.027 2.187.007.393.303 1.795.557 1.682.811 1.571 1.025 1.402 1.252 1.178 1.302.786 1.443.673 1.545.505 1.605.28 1.706.112 1.766-.112 1.811-.28 1.815-.505 1.805-.673 1.722-.786 1.884-1.178 1.776-1.402 1.652-1.57 1.46-1.683 1.264-1.795.218-.393 1.146-2.188.952-2.3.672-2.3.56-2.3.28-2.3z"/><path style="fill:#000;stroke:none;stroke-width:.672523;stroke-linecap:round;stroke-linejoin:round;stroke-miterlimit:10;stroke-dasharray:none;stroke-opacity:1" d="M622.698 55.373h-8.679l8.508-31.75h8.679l-.842 3.142 1.35-1.066 1.416-.897 1.554-.786 1.591-.505 1.546-.336 1.542-.112h2.127l-2.209 8.246h-2.968l-1.262.112-1.322.336-1.27.561-1.259.73-1.065.84-1.014 1.067-.86 1.122-.667 1.234-.387 1.234z"/><path style="fill:#000;stroke:none;stroke-width:2.63339;stroke-linecap:round;stroke-linejoin:round;stroke-miterlimit:10;stroke-opacity:1" d="m660.147 23.056-1.639.145-1.605.34-1.586.548-1.548.768-1.515.978-1.48 1.197-.407.373-1.247 1.283-1.158 1.354-1.034 1.443-.91 1.53-.785 1.604-.672 1.71-.057.143-.498 1.655-.41 1.622-.283 1.62-.181 1.622-.069 1.587.017.945.16 1.586.32 1.48.482 1.35.62 1.23.785 1.103.588.677 1.051.91 1.215.729 1.333.536 1.48.34 1.604.14.784.017 1.622-.085 1.655-.232 1.71-.338 1.747-.463.73.249 1.23.462.193.16h5.632l-.09-1.07-.036-1.71.16-1.193.75-2.813.748-2.763.712-2.603.66-2.44.604-2.278.57-2.123.536-1.96.481-1.814.446-1.639.39-1.479.357-1.337.303-1.16.266-1.01.232-.842.18-.694.124-.532.086-.372h-6.502l-.372 1.44-.283-.25-.927-.519-1.231-.44-1.514-.322-1.835-.25-2.12-.124zm.283 7.626.784.055 1.424.39 1.355.748.463.394.858 1.14.301 1.334v.074l-.09 1.834-.231 1.69-.357 1.532-.515 1.372-.445.927-1 1.784-.996 1.407-.999 1.05-.604.43-1.407.656-1.656.394-1.925.103-1.085-.142-1.18-.497-.854-.892-.514-1.264-.163-1.658v-.536l.124-1.671.305-1.515.107-.322.57-1.62.763-1.583.965-1.553.143-.214 1.174-1.334 1.48-1.231 1.638-.96z"/></g></svg>