<svg xmlns="http://www.w3.org/2000/svg" width="1887.908" height="602" viewBox="0 0 499.509 159.279"><g transform="translate(-151.757 47.814)"><rect style="fill:#000;fill-rule:evenodd;stroke-width:.0255134;stop-color:#000" width="498.98" height="158.75" x="152.022" y="-47.549" rx="15.875"/><rect style="fill:#fff;fill-opacity:1;fill-rule:evenodd;stroke-width:.0251868;stop-color:#000" width="483.105" height="142.875" x="159.96" y="-39.612" rx="31.75"/><path style="fill:#000;stroke:none;stroke-width:.671938;stroke-linecap:round;stroke-linejoin:round;stroke-miterlimit:10;stroke-dasharray:none;stroke-opacity:1" d="M233.051 19.418h10.586l1.034.111.862.336.832.448.604.672.462.784.193.951.081.952-.173 1.064-.382 1.008-.606 1.007-.688.896-.897.84-.95.615-1.086.504-1.042.336-1.08.056h-10.585zm-6.868-8.23-11.91 44.45h9.073l4.65-17.354h5.937l5.487 17.354h10.585l-5.78-18.138 1.818-.728 1.823-.952 1.7-1.12 1.593-1.343 1.454-1.455 1.26-1.568 1.122-1.68.857-1.735.648-1.791.44-1.848.128-1.735-.039-1.736-.349-1.623-.603-1.512-.745-1.4-1.03-1.175-1.242-1.008-1.399-.84-1.53-.56-1.687-.39-1.762-.113z"/><path style="fill:#000;stroke:none;stroke-width:.672574;stroke-linecap:round;stroke-linejoin:round;stroke-miterlimit:10;stroke-dasharray:none;stroke-opacity:1" d="m280.26 30.395 1.195.561.935.898.723 1.065.509 1.234.177 1.01-.006 1.066-.257 1.795-.41 1.739-.522 1.739-.704 1.795-.566 1.066-.719 1.01-1.17 1.234-1.294 1.065-1.416.898-1.48.505-1.348.224-1.172-.224-1.208-.505-.992-.898-.722-1.065-.454-1.235-.177-1.01.006-1.065.257-1.795.354-1.74.578-1.738.705-1.795.565-1.066.719-1.01 1.114-1.234 1.294-1.065 1.473-.898 1.494-.56 1.277-.17zm12.429 2.524-.022-.336-.303-1.795-.542-1.74-.827-1.514-1.024-1.402-1.252-1.178-1.287-.842-1.458-.617-1.545-.504-1.661-.28-1.706-.113-1.766.112-1.755.28-1.816.505-1.789.617-1.737.842-1.884 1.178-1.776 1.402-1.638 1.515-1.474 1.739-1.265 1.795-.202.336-1.161 2.244-.952 2.3-.729 2.3-.504 2.3-.28 2.3-.026 2.187.007.393.303 1.795.557 1.683.811 1.57 1.025 1.403 1.252 1.178 1.302.785 1.443.673 1.545.505 1.605.28 1.706.113 1.766-.112 1.811-.28 1.815-.506 1.805-.673 1.722-.785 1.884-1.178 1.776-1.402 1.652-1.571 1.46-1.683 1.264-1.795.218-.393 1.146-2.187.952-2.3.672-2.3.56-2.3.28-2.3z"/><path style="fill:#000;stroke:none;stroke-width:.671957;stroke-linecap:round;stroke-linejoin:round;stroke-miterlimit:10;stroke-dasharray:none;stroke-opacity:1" d="m307.448 43.039-2.563-.672-1.224-.448-1.052-.672-.895-.84-.753-.952-.555-1.064-.413-1.176-.072-1.4.11-1.456.39-1.455.558-1.456.782-1.456.961-1.288 1.17-1.232 1.237-1.064 1.32-.952 1.441-.784 1.453-.616 1.505-.392 2.136-.448 2.076-.224h2.072l2.027.168 1.966.392 1.545.504 1.444.672 1.328.896 1.257.952 1.029 1.176-6.907 5.711-1.181-1.231-1.41-1.008-1.582-.784-.933-.28-1.019-.168h-1.064l-1.195.28-1.143.504-1.076.672-.598.56-.389.616-.139.727.06.616.241.56.567.392 3.5.728 3.24.448 1.228.224 1.224.448 1.082.56 1.037.728.865.952.667 1.064.469 1.176.214 1.288.017 1.4-.15 1.4-.447 1.456-.599 1.4-.823 1.4-1.103 1.4-1.241 1.287-1.38 1.176-1.501 1.008-1.554.784-2.364.672-2.36.448-2.356.224h-2.24l-2.235-.224-2.12-.448-1.851-.616-1.735-.84-1.507-1.064-1.35-1.232-1.177-1.456 7.888-5.823.846 1.232 1.058 1.064 1.231.84 1.388.672 1.504.448 1.62.223h1.512l1.169-.391 1.06-.616.64-.504.516-.672.25-.728.028-.728-.227-.616-.44-.448-1.959-.84-2.12-.448z"/><path style="fill:#000;stroke:none;stroke-width:2.63339;stroke-linecap:round;stroke-linejoin:round;stroke-miterlimit:10;stroke-opacity:1" d="m370.151 23.32-1.638.146-1.605.34-1.587.548-1.548.767-1.514.979-1.48 1.197-.407.373-1.248 1.283-1.158 1.354-1.033 1.442-.91 1.531-.786 1.604-.671 1.71-.058.142-.497 1.656-.41 1.621-.284 1.62-.18 1.622-.07 1.587.017.946.16 1.585.321 1.48.48 1.35.622 1.231.784 1.103.588.677 1.051.91 1.215.728 1.333.537 1.48.34 1.605.14.784.017 1.621-.086 1.656-.23 1.71-.339 1.746-.464.73.25 1.23.462.193.16h5.632l-.09-1.07-.035-1.71.158-1.193.751-2.813.748-2.763.712-2.603.66-2.44.604-2.278.57-2.123.537-1.96.48-1.814.446-1.64.39-1.478.357-1.337.303-1.16.267-1.011.231-.841.18-.694.124-.533.086-.372h-6.502l-.372 1.44-.283-.249-.927-.52-1.231-.44-1.514-.321-1.835-.25-2.12-.124zm.283 7.626.784.056 1.424.39 1.356.747.462.394.858 1.141.302 1.333v.074l-.09 1.835-.232 1.69-.357 1.532-.514 1.372-.446.926-1 1.785-.995 1.406-1 1.05-.603.43-1.408.656-1.655.395-1.925.103-1.086-.142-1.18-.498-.854-.891-.514-1.264-.163-1.658v-.536l.125-1.672.304-1.514.108-.322.569-1.62.764-1.584.965-1.553.143-.214 1.174-1.334 1.48-1.23 1.638-.961z"/><path style="fill:#000;stroke:none;stroke-width:.672912;stroke-linecap:round;stroke-linejoin:round;stroke-miterlimit:10;stroke-dasharray:none;stroke-opacity:1" d="m400.358 35.444-.412 1.122-5.11 19.072h-8.69l8.508-31.75h8.689l-.602 2.244 1.56-1.01 1.627-.841 1.623-.617 1.675-.393 1.63-.224 1.61.056 1.76.336L415.7 24l1.36.786 1.145.953.989 1.122.775 1.29.563 1.459.277 1.683.039 1.739-.2 1.795-.385 1.85-5.08 18.96h-8.689l5.065-18.903.245-1.122.076-1.122-.218-1.066-.433-.897-.645-.73-1.042-.504-1.23-.225-1.304.056-1.293.225-1.369.505-1.189.673-1.122.841-.943 1.01z"/><path d="m494.198 24.808-.34 1.415-.459 1.824-.57 2.214-.7 2.59-6.09 22.788h8.159l6.383-23.812 2.02-7.541.376-1.353.522-2.02.372-1.61.213-1.207.064-.798-.095-1.155-.36-1.274-.637-1.17-.909-1.076-1.009-.783-1.222-.632-1.305-.376-1.415-.115-1.14.048-1.55.296-1.546.502-1.515.736-.13.079-.862.538-1.598 1.075-2.329 1.562-.178-.244-1.076-1.416-.814-1.024-.522-.653-1.092-.815-1.254-.522-1.384-.162-.945.048-1.4.213-1.447.408-1.483.585-1.53.783-1.567.945-1.613 1.139.098-.653.115-1.332.13-1.665h-9.04l-.21.913-.375 1.677-.376 1.661-.375 1.63-.372 1.613-.376 1.582-.375 1.562-.372 1.546-.376 1.515-.376 1.483-.356 1.483-.375 1.431-.376 1.436-.36 1.4-.371 1.368-5.929 22.15h8.728l.147-.522.668-2.262.62-2.167.586-2.037.554-1.921.522-1.824.486-1.692.44-1.582.422-1.467.376-1.333.344-1.238.293-1.127.277-.993.225-.893.198-.768.13-.454.376-1.384.408-1.567.47-1.756.34-1.435.49-1.76.471-1.4.443-1.04.795-1.19 1.143-1.008 1.352-.622 1.562-.193 1.155.11 1.06.428.716.747.36 1.075.015 1.4-.324 1.709-8.08 30.166h8.567l.229-.668.34-1.092.36-1.154.376-1.238.391-1.305.408-1.384.423-1.432.423-1.53.439-1.598.47-1.661.46-1.744.486-1.807.506-1.875.506-1.953.518-2.017.115-.443.439-1.63.407-1.514.376-1.416.047-.23.443-1.807.47-1.514.475-1.223.08-.145.861-1.254 1.143-.894 1.416-.538 1.677-.182 1.499.13 1.237.475.768.8.261 1.138-.02.178-.11.653z" style="display:inline;fill:#000;fill-opacity:1;fill-rule:evenodd;stroke:none;stroke-width:.395465"/><path style="fill:#000;stroke:none;stroke-width:.672237;stroke-linecap:round;stroke-linejoin:round;stroke-miterlimit:10;stroke-dasharray:none;stroke-opacity:1" d="M536.469 55.638h-8.689l5.07-18.922.244-1.12.02-1.12-.179-1.007-.417-.952-.646-.727-1.042-.504-1.23-.224-1.304.056-1.308.28-1.354.448-1.189.671-1.121.84-.943 1.008-.734 1.063-.412 1.12-5.115 19.09h-8.689l11.91-44.45h8.69l-4.006 14.947 1.56-1.007 1.555-.784 1.679-.616 1.69-.448 1.614-.168h1.625l1.76.336 1.476.56 1.36.784 1.146.952.99 1.12.775 1.287.563 1.455.279 1.68.04 1.735-.2 1.792-.383 1.847z"/><path style="fill:#000;stroke:none;stroke-width:.206811;stroke-linecap:round;stroke-linejoin:round;stroke-miterlimit:10;stroke-opacity:1" d="m555.779 23.888-6.97 26.029-.09.429-.068.553v.567l.073.577.135.58.2.589.265.594.336.603.401.605.472.621h8.09l-.24-.303-.364-.524-.315-.536-.265-.562-.22-.582-.176-.601-.128-.62-.076-.639-.035-.666.015-.685 6.97-26.03zM566.145 14.208l-11.281 4.207.469 1.506 11.573-2.619zm0 0"/><path style="fill:#000;stroke:none;stroke-width:.671804;stroke-linecap:round;stroke-linejoin:round;stroke-miterlimit:10;stroke-dasharray:none;stroke-opacity:1" d="M574.35 11.188h8.66l-9.394 35.06-.053.616.144.505.327.449.427.28.6.056 1.691-.056 1.736-.224-1.094 7.629-2.817.505-2.772.336-2.798.225-1.143-.113-1.028-.336-.997-.449-.77-.673-.612-.841-.4-1.01-.217-1.066-.035-1.122.204-1.178z"/></g></svg>