<svg xmlns="http://www.w3.org/2000/svg" width="1830.8" height="923" viewBox="0 0 484.399 244.21"><g transform="translate(-150.435 49.137)"><rect style="fill:#000;fill-rule:evenodd;stroke-width:.0255134;stop-color:#000" width="483.87" height="243.681" x="150.699" y="-48.872" rx="16.536"/><rect style="fill:#fff;fill-rule:evenodd;stroke-width:.0255134;stop-color:#000" width="482.283" height="242.094" x="151.493" y="-48.079" rx="15.875"/><rect style="fill:#008445;fill-opacity:1;fill-rule:evenodd;stroke-width:.0251868;stop-color:#000" width="466.408" height="226.219" x="159.43" y="-40.141" rx="31.75"/><path d="m284.633 42.217-1.325 2.018-1.462 1.905-1.616 1.85-1.937 1.794-2.075 1.681-2.152 1.346-2.261 1.12-2.272.954-2.308.672-2.36.449-2.286.168h-2.52l-2.196-.168-2.064-.449-1.948-.672-1.817-.953-1.604-1.121L249 51.465l-1.215-1.737-1.017-1.85-.747-2.018-.493-2.13-.24-2.242-.056-2.298.239-2.354.463-2.355.856-3.195.813-2.41 1.023-2.354 1.288-2.298 1.426-2.186 1.635-2.13 1.829-2.018 2.023-1.906 2.13-1.682 2.153-1.345 2.22-1.177 2.312-.897 2.309-.673 2.304-.448 2.286-.168h2.52l2.195.168 2.12.448 1.948.673 1.776.897 1.645 1.177 1.432 1.345 1.23 1.682.945 1.906.833 2.746.45 2.915-10.034 3.587.014-1.513-.155-1.513-.424-1.346-.662-1.289-.891-1.065-1.048-.897-1.138-.56-1.183-.393-1.284-.224-1.314-.112-1.43.112-1.46.224-1.465.449-1.438.56-1.372.729-1.32.953-1.222 1.009-1.1 1.177-1.002 1.233-.793 1.29-1.176 2.298-.896 2.298-.672 2.298-.575 2.354-.335 2.298-.041 2.242.088 1.346.341 1.233.469 1.177.682 1.009.824.897.966.784 1.137.561 1.24.392 1.325.28 1.385.057 1.542-.112 1.587-.28 1.592-.505 1.483-.729 1.473-.897 1.293-1.065 1.212-1.177 1.073-1.289.88-1.401.726-1.458z" style="fill:#fff;stroke:none;stroke-width:.672364;stroke-linecap:round;stroke-linejoin:round;stroke-miterlimit:10;stroke-dasharray:none;stroke-opacity:1"/><path d="M310.008 15.185a4.366 4.366 0 0 1-4.366 4.366 4.366 4.366 0 0 1-4.366-4.366 4.366 4.366 0 0 1 4.366-4.366 4.366 4.366 0 0 1 4.366 4.366z" style="fill:#fff;fill-rule:evenodd;stroke:none;stroke-width:.362116;stroke-linecap:round;stop-color:#000"/><path style="fill:#fff;stroke:none;stroke-width:.206812;stroke-linecap:round;stroke-linejoin:round;stroke-miterlimit:10;stroke-opacity:1" d="m299.727 23.358-6.97 26.03-.09.428-.067.553v.568l.073.577.134.58.2.589.265.593.336.604.402.605.472.621h8.089l-.24-.304-.363-.523-.316-.536-.265-.562-.22-.583-.176-.6-.127-.62-.076-.639-.036-.667.015-.685 6.97-26.029zm0 0"/><path style="fill:#fff;stroke:none;stroke-width:.671804;stroke-linecap:round;stroke-linejoin:round;stroke-miterlimit:10;stroke-dasharray:none;stroke-opacity:1" d="M318.299 10.659h8.66l-9.394 35.059-.054.617.144.505.327.449.428.28.6.056 1.69-.056 1.737-.224-1.095 7.629-2.817.504-2.772.337-2.798.224-1.143-.112-1.027-.336-.997-.45-.77-.672-.613-.842-.4-1.01-.217-1.065-.034-1.122.203-1.178zM338.301 10.659h8.66l-9.394 35.059-.053.617.144.505.326.449.428.28.6.056 1.691-.056 1.736-.224-1.094 7.629-2.817.504-2.772.337-2.798.224-1.143-.112-1.028-.336-.997-.45-.77-.672-.612-.842-.4-1.01-.217-1.065-.035-1.122.204-1.178z"/><path d="m402.838 9.148-1.11.03-1.099.083-1.079.133-1.077.186-1.069.247-1.057.298-1.037.349-1.039.41-1.016.463-1.018.512-.994.565-.997.626-.977.68-.245.184-.946.729-.914.76-.873.792-.83.811-.803.852-.75.873-.718.894-.679.934-.645.954-.598.988-.564 1.015-.523 1.037-.483 1.069-.216.514-.472 1.19-.433 1.14-.379 1.08-.34 1.005-.287.957-.133.503-.268 1.058-.225 1.047-.173 1.027-.145 1.017-.092 1.006-.052.985-.01.987.03.955.071.956.123.935.155.924.195.914.246.892.288.885.33.861.369.864.41.842.452.822.493.82.546.802.154.207.605.78.658.698.697.626.731.543.78.485.811.401.72.275.738.216.842.175.945.133 1.07.104 1.169.06 1.275.03h.277l.975-.03 1.037-.111 1.11-.176 1.18-.247.308-.07 4.592-1.109.555.75.02.04.596.71.01.01h7.856l-.225-.945-.103-.966.02-1.006.134-1.049.196-.882 10.608-39.603h-6.501l-.781.646-.451.381-.934-.462-.935-.41-.945-.371-.945-.33-.946-.277-.954-.225-.956-.186-.965-.133-.964-.091-.966-.053zm-1.684 7.774.985.084.944.185.904.277.873.39.832.493.657.482.71.7.574.759.433.802.286.852.155.903.03.585-.021.915-.061.945-.093.966-.133.996-.163 1.016-.217 1.048-.237 1.068-.278 1.098-.318 1.13-.358 1.15-.391 1.173-.112.327-.494 1.356-.534 1.273-.544 1.203-.575 1.108-.605 1.028-.627.943-.647.865-.678.78-.698.688-.73.615-.748.524-.781.453-.802.358-.821.288-.854.196-.883.112-.79.03-.874-.04-.934-.132-1.018-.228-1.087-.317-.237-.072-.842-.318-.771-.38-.688-.431-.615-.503-.534-.566-.462-.626-.392-.678-.309-.751-.235-.81-.164-.864-.082-.935-.01-.985.07-1.058.146-1.108.225-1.173.287-1.242.031-.112.36-1.234.38-1.19.42-1.151.463-1.108.482-1.08.524-1.025.555-.987.586-.944.626-.905.657-.863.698-.812.72-.78.759-.739.792-.699.565-.451 1.14-.833 1.097-.676 1.049-.555 1.016-.401.977-.268.935-.124z" style="fill:#fff;fill-opacity:1;fill-rule:evenodd;stroke:none;stroke-width:.192742"/><path d="M439.23 15.185a4.366 4.366 0 0 1-4.366 4.366 4.366 4.366 0 0 1-4.366-4.366 4.366 4.366 0 0 1 4.366-4.366 4.366 4.366 0 0 1 4.366 4.366z" style="fill:#fff;fill-rule:evenodd;stroke:none;stroke-width:.362116;stroke-linecap:round;stop-color:#000"/><path style="fill:#fff;stroke:none;stroke-width:.206812;stroke-linecap:round;stroke-linejoin:round;stroke-miterlimit:10;stroke-opacity:1" d="m428.95 23.359-6.97 26.028-.09.43-.068.552v.568l.073.577.134.58.2.589.266.593.335.604.402.605.472.621h8.09l-.24-.304-.364-.523-.315-.536-.265-.562-.221-.583-.175-.6-.128-.62-.076-.639-.035-.667.015-.685 6.97-26.028zm0 0"/><path style="fill:#fff;stroke:none;stroke-width:.672913;stroke-linecap:round;stroke-linejoin:round;stroke-miterlimit:10;stroke-dasharray:none;stroke-opacity:1" d="m477.047 34.914-.413 1.122-5.11 19.073h-8.689l8.507-31.75h8.69l-.602 2.244 1.56-1.01 1.627-.841 1.622-.617 1.675-.393 1.63-.225 1.61.057 1.76.336 1.476.561 1.359.785 1.146.954.988 1.122.776 1.29.562 1.459.278 1.682.038 1.74-.2 1.794-.384 1.852-5.08 18.96h-8.69l5.066-18.904.244-1.122.077-1.122-.22-1.066-.431-.897-.646-.73-1.042-.505-1.229-.224-1.304.056-1.294.225-1.368.504-1.19.674-1.122.841-.943 1.01z"/><path style="fill:#fff;stroke:none;stroke-width:.672522;stroke-linecap:round;stroke-linejoin:round;stroke-miterlimit:10;stroke-dasharray:none;stroke-opacity:1" d="M444.634 55.109h-8.68l8.508-31.75h8.679l-.842 3.141 1.35-1.066 1.416-.897 1.554-.785 1.591-.505 1.546-.337 1.542-.112h2.128l-2.21 8.246h-2.967l-1.262.112-1.322.337-1.27.56-1.26.73-1.065.841-1.013 1.066-.86 1.122-.668 1.234-.386 1.234z"/><path style="fill:#fff;stroke:none;stroke-width:.671795;stroke-linecap:round;stroke-linejoin:round;stroke-miterlimit:10;stroke-dasharray:none;stroke-opacity:1" d="M512.605 35.622h12.873l.132-1.12-.107-1.064-.304-.952-.503-.84-.7-.728-.802-.56-.958-.391-1.06-.224h-1.119l-1.18.224-1.168.391-1.101.56-1.09.728-.954.84-.814.952-.677 1.064zm-1.914 7.56-.02 1.12.234 1.008.431.895.63.784.786.616 1.264.504 1.38.28 1.44.056 1.486-.112 1.56-.392 1.691-.672 1.64-.896 1.531-1.12 3.918 5.432-1.45 1.232-1.531 1.12-1.599.952-1.65.728-1.717.56-2.135.448-2.13.224-2.087.056-2.026-.168-1.91-.392-1.447-.448-1.346-.616-1.174-.84-1.032-.952-.931-1.12-.678-1.232-.591-1.344-.338-1.456-.243-2.015-.06-2.072.178-2.128.417-2.184.697-2.184.906-2.128 1.13-2.128 1.324-2.016 1.386-1.623 1.58-1.512 1.76-1.344 1.811-1.12 1.625-.84 1.706-.728 1.702-.504 1.698-.28 1.653-.112 1.609.056 1.548.28 1.503.448 1.346.616 1.174.84 1.17 1.064 1.013 1.232.73 1.456.546 1.512.277 1.68.109 2.52-.13 2.575-.426 2.632-.593 2.632h-21.157z"/><path style="fill:#fff;stroke:none;stroke-width:.672649;stroke-linecap:round;stroke-linejoin:round;stroke-miterlimit:10;stroke-dasharray:none;stroke-opacity:1" d="m553.296 120.908-14.91-26.905h10.426l9.08 16.311 9.026-16.311h10.426l-14.91 26.905v17.545h-9.138z"/><path style="fill:#fff;stroke:none;stroke-width:.672068;stroke-linecap:round;stroke-linejoin:round;stroke-miterlimit:10;stroke-dasharray:none;stroke-opacity:1" d="m222.94 123.002 3.81-4.255 12.494 19.706h10.758l-16.921-26.704 16.08-17.746h-12.27l-13.951 15.45v-15.45h-9.133v44.45h9.133z"/><path style="fill:#fff;stroke:none;stroke-width:.671903;stroke-linecap:round;stroke-linejoin:round;stroke-miterlimit:10;stroke-dasharray:none;stroke-opacity:1" d="M281.244 94.003h9.072v35.772h19.713v8.678h-28.785z"/><path style="fill:#fff;stroke:none;stroke-width:.672348;stroke-linecap:round;stroke-linejoin:round;stroke-miterlimit:10;stroke-dasharray:none;stroke-opacity:1" d="M532.336 129.764H510.55v-9.753h18.202v-8.24H510.55v-9.136h20.106v-8.632h-29.234v44.45h30.914z"/><path d="M365.696 94.003h11.817l14.842 44.45h-9.97l-2.408-7.848h-16.745l-2.409 7.848h-9.969zm5.88 9.304-5.936 19.45h11.93z" style="fill:#fff;stroke:none;stroke-width:.672354;stroke-linecap:round;stroke-linejoin:round;stroke-miterlimit:10;stroke-dasharray:none;stroke-opacity:1"/><path style="fill:#fff;stroke:none;stroke-width:.671798;stroke-linecap:round;stroke-linejoin:round;stroke-miterlimit:10;stroke-dasharray:none;stroke-opacity:1" d="M267.022 94.003v44.45h-9.07v-44.45Z"/><path style="fill:#fff;stroke:none;stroke-width:.672071;stroke-linecap:round;stroke-linejoin:round;stroke-miterlimit:10;stroke-dasharray:none;stroke-opacity:1" d="M458.506 94.003h-10.365v44.45h9.076V108.39l19.89 30.063h10.422v-44.45h-9.132v30.062Z"/><path style="fill:#fff;stroke:none;stroke-width:.671938;stroke-linecap:round;stroke-linejoin:round;stroke-miterlimit:10;stroke-dasharray:none;stroke-opacity:1" d="M410.333 102.232h10.585l1.064.112.953.336.952.448.784.672.672.783.448.952.336.952.112 1.063-.112 1.008-.336 1.008-.448.896-.672.84-.784.615-.952.504-.953.336-1.064.056h-10.585zm-9.073-8.23v44.45h9.073v-17.354h5.937l10.137 17.355h10.585l-10.641-18.139 1.624-.727 1.568-.952 1.4-1.12 1.233-1.343 1.064-1.456.84-1.567.672-1.68.392-1.735.168-1.792-.056-1.847-.336-1.736-.504-1.735-.784-1.624-1.008-1.511-1.12-1.4-1.345-1.175-1.512-1.008-1.624-.84-1.68-.56-1.792-.391-1.793-.112z"/><path style="fill:#fff;stroke:none;stroke-width:.671903;stroke-linecap:round;stroke-linejoin:round;stroke-miterlimit:10;stroke-dasharray:none;stroke-opacity:1" d="M318.71 94.003h9.071v35.772h19.713v8.678h-28.785z"/></g></svg>